M48
;Layer_Color=9474304
;FILE_FORMAT=4:3
METRIC,LZ
;TYPE=PLATED
T01F00S00C0.500
T02F00S00C0.890
T03F00S00C0.900
T04F00S00C1.143
T05F00S00C2.550
;TYPE=NON_PLATED
T06F00S00C3.250
%
T01
X000762Y001143
X0092641
X00728Y003048
Y0036195
X00635
X0059364Y0024765
X0053547Y0028575
X0079375Y003937
X0076835Y0045085
X004826Y0040005
X004699Y0033655
X00381Y003683
X003175Y003429
Y002286
X004255Y0023558
X0023495Y005461
X0017145Y0052705
X0008128
X000762Y008636
X002159Y006223
X004826Y0090043
Y0095524
X0092732Y008763
T02
X001524Y0008382
X0017272
X0019304
X0021336
X002032Y001016
X0018288
X0016256
X0014224
X0034729
X0036761
X0038793
X0040825
X0041841Y0008382
X0039809
X0037777
X0035745
X0059182
X0061214
X0063246
X0065278
X0064262Y001016
X006223
X0060198
X0058166
X0078232
X0080264
X0082296
X0084328
X0085344Y0008382
X0083312
X008128
X0079248
X0041148Y0090043
X0039116
X0037084
X0035052
X0036068Y0091821
X00381
X0040132
X0034036
T03
X0051308Y0087983
Y0090523
Y0093063
Y0095603
T04
X001387Y004191
X000762Y004191
X001087Y003716
T05
X0005Y0005
X0095Y0004858
X0005Y0095
X0095
T06
X001143Y0005842
X002413
X0031935
X0044635
X0055372
X0068072
X0075438
X0088138
X0043942Y0094361
X0031242
M30
