M48
;Layer_Color=9474304
;FILE_FORMAT=4:3
METRIC,LZ
;TYPE=PLATED
T01F00S00C0.381
T04F00S00C0.800
T05F00S00C0.900
T06F00S00C0.991
T07F00S00C1.016
T08F00S00C1.100
T09F00S00C1.143
T10F00S00C1.295
T11F00S00C1.300
T12F00S00C2.550
%
T01
X0010176Y0006408
X0008255Y0016709
X0012747Y001638
X001651Y001422
X001844Y0013571
X0022155Y0011709
X0022151Y0005963
X0026141Y0005222
X002794Y0006079
Y0012066
X0037358Y0010235
X0017791Y0005222
X0015875Y0001563
X0012747Y0009504
X0052149Y0009814
X0053385Y0013335
X006146Y0010235
X00858Y0004493
X0092075Y004081
X0085724Y004064
X0085008Y0043823
X008584Y0046271
X0085073Y0050382
X0085865Y0055419
X0076781Y0053286
X00762Y0050711
X0071077Y0049787
X0069916Y0048991
X0069287Y0048263
X006731Y0047919
X006796Y0046155
X0066675Y0044478
X006731Y0043176
X006985Y0043154
X0071406Y0041275
Y0039294
X0069994Y0038216
X0068537Y0038746
X006604Y0038272
X0062267Y0038172
X0063273Y0037085
X0062808Y0035686
X005816Y0033678
X0054567Y003176
X0052027Y00381
X005207Y0043154
X0052027Y0044504
X0053114Y004699
X0054291Y0046333
X0055352Y004518
X0056515Y004457
X0056847Y0043314
X0057796Y0043154
X0059055Y0043258
X0060475Y0043326
X0062315Y0043227
X0060867Y00488
X0059043
X0059885Y0047886
X0058082Y0047856
X0056589Y0047767
X0057236Y0048767
X0055753Y0048617
X0054214Y0048545
X005327Y0048733
X0063273Y0051572
X0066113Y0052433
X0066613Y0054259
X0067855Y005524
X0069068Y005472
X0069364Y005614
X0066981Y005706
X0068575Y0053286
X0070037Y0053267
X0067442Y0050815
X0076343Y0042579
X0073568Y0035035
X0071406Y00343
X0073609Y003006
X0071987Y0027411
X0069913
X0073025Y002413
X0072987Y002055
X0067324Y0018404
X0062675Y0023773
X0063137Y002874
X0080905Y0030854
X0080865Y0033367
X0081915Y0047421
X005084Y0045269
X004953Y0045151
X005082Y0043181
X0047008Y0043227
X0044549Y004343
X0042871
X0038789Y0043227
X0037537Y003975
X0044433Y00381
X004699
X0047008Y003392
X0045634Y0033563
X0044407Y0033133
X0045765Y0031499
X0044978Y0029069
X00458Y002772
X005Y002774
X0049813Y0030245
X0044978Y0020145
X0038673Y002438
X0034998Y0028521
X003243Y0036195
X0026724Y0043543
X0031736Y0048623
X0038963Y004899
X0038296Y0052739
X0036195Y0056459
X0045765Y005433
X0045834Y0052705
X0047008Y005343
X0048231Y0052433
X0049589Y005163
X004699Y0050231
X0048174Y0047743
X0046947Y0046259
X0044634Y004699
X0043601Y0048502
X0047707Y005614
X0048812Y005704
X0014158Y0053824
X0011607Y0049163
X0011592Y0036195
X0012862Y0020955
X0028521Y0022225
X0032439Y001968
X0008255Y0026789
X0009525Y004975
X0008971Y0060325
X0018667Y0061434
Y0062854
Y0058488
X0018338Y0070485
X0024292Y0069104
X0027305Y0069433
Y0067418
X0025377Y0066525
Y0064905
X0027305Y0063435
X0032966Y0061948
Y0065506
X0038406Y007814
X0021787Y0079193
X0012065Y0095232
X0050165Y0064324
X005Y0062853
X0048788Y006035
X0047788Y005788
X005
X0053868Y0060685
X0053002Y0061585
X0054567Y0062853
X0055529Y005974
X0056473Y005884
Y0065282
X0055443Y0068324
X005352Y007058
X005263Y0073025
X0054567Y0075681
X006948Y0073025
X0068737Y006577
X0068691Y0062388
X0068583Y005884
X0069994Y005788
X0073025Y0059244
X008128Y0060325
X0084492Y0070268
X0089535Y0071755
X0087821Y0076835
X0079523Y007874
X0076897Y008509
X0070663Y0080645
X006477Y006477
X009144Y0064135
X0093765Y0066099
X0094323Y006816
X009398Y007431
X009796Y0059529
X0097268Y009017
T04
X0053379Y0015426
Y0017426
T05
X0066887Y000486
Y000986
X006324Y0015269
X00607
X005816
T06
X0003852Y006531
Y006785
Y007801
X0011472
Y006785
Y006531
T07
X00762Y002005
X00812
T08
X0010176Y000914
Y001168
Y001422
X0053254Y00353
X0050714
X0048174
X0045634
X0043094
X0029372Y0048623
Y0051163
Y0053703
X0024292Y0048623
Y0046083
Y0043543
X0019212
Y0046083
Y0048623
X0014458
Y0046083
Y0043543
X0020982Y002946
Y002692
Y002438
T09
X0079015Y0088682
X0083764Y0085682
X0083764Y0091932
T10
X008636Y0030845
Y0035925
X008763Y005053
Y005561
X000762Y008355
Y008863
T11
X005207Y007974
X005715
X006223
T12
X0005Y0005
X0095Y0004858
X0005Y0095
X0095
M30
