G04*
G04 #@! TF.GenerationSoftware,Altium Limited,Altium Designer,23.7.1 (13)*
G04*
G04 Layer_Physical_Order=2*
G04 Layer_Color=16711680*
%FSLAX44Y44*%
%MOMM*%
G71*
G04*
G04 #@! TF.SameCoordinates,0BEFCA26-5C96-4926-A50D-4D7A3FA2ED98*
G04*
G04*
G04 #@! TF.FilePolarity,Positive*
G04*
G01*
G75*
%ADD61C,1.3900*%
%ADD62R,1.3900X1.3900*%
%ADD63C,3.2500*%
%ADD67C,0.4000*%
%ADD68R,1.5000X1.5000*%
%ADD69C,1.5000*%
%ADD70C,2.0320*%
%ADD72C,1.0000*%
%ADD73C,4.3180*%
G36*
X50000Y996666D02*
X950000D01*
X950140Y996694D01*
X956096Y996303D01*
X962088Y995112D01*
X967872Y993148D01*
X973352Y990446D01*
X978431Y987052D01*
X983024Y983024D01*
X987052Y978431D01*
X990446Y973352D01*
X993148Y967872D01*
X995112Y962088D01*
X996303Y956096D01*
X996694Y950140D01*
X996666Y950000D01*
X996666Y50000D01*
X996694Y49860D01*
X996303Y43904D01*
X995112Y37912D01*
X993148Y32127D01*
X990446Y26648D01*
X987052Y21569D01*
X983024Y16976D01*
X978431Y12948D01*
X973352Y9554D01*
X967872Y6852D01*
X962088Y4888D01*
X956096Y3697D01*
X950140Y3306D01*
X950000Y3334D01*
X50000D01*
X49860Y3306D01*
X43904Y3697D01*
X37912Y4888D01*
X32128Y6852D01*
X26648Y9554D01*
X21569Y12948D01*
X16976Y16976D01*
X12948Y21569D01*
X9554Y26648D01*
X6852Y32127D01*
X4888Y37912D01*
X3697Y43904D01*
X3380Y48739D01*
X3334Y50000D01*
X3334Y50000D01*
X3334Y51252D01*
Y950000D01*
X3306Y950140D01*
X3697Y956096D01*
X4888Y962088D01*
X6852Y967872D01*
X9554Y973352D01*
X12948Y978431D01*
X16976Y983024D01*
X21569Y987052D01*
X26648Y990446D01*
X32127Y993148D01*
X37912Y995112D01*
X43904Y996303D01*
X49860Y996694D01*
X50000Y996666D01*
D02*
G37*
%LPC*%
G36*
X522580Y965534D02*
X503580D01*
Y946534D01*
X522580D01*
Y965534D01*
D02*
G37*
G36*
X952323Y973590D02*
X947677D01*
X943119Y972683D01*
X938826Y970905D01*
X934962Y968324D01*
X931676Y965038D01*
X929095Y961174D01*
X927317Y956881D01*
X926410Y952323D01*
Y947677D01*
X927317Y943119D01*
X929095Y938826D01*
X931676Y934962D01*
X934962Y931676D01*
X938826Y929095D01*
X943119Y927317D01*
X947677Y926410D01*
X952323D01*
X956881Y927317D01*
X961174Y929095D01*
X965038Y931676D01*
X968324Y934962D01*
X970905Y938826D01*
X972683Y943119D01*
X973590Y947677D01*
Y952323D01*
X972683Y956881D01*
X970905Y961174D01*
X968324Y965038D01*
X965038Y968324D01*
X961174Y970905D01*
X956881Y972683D01*
X952323Y973590D01*
D02*
G37*
G36*
X52323D02*
X47677D01*
X43119Y972683D01*
X38826Y970905D01*
X34962Y968324D01*
X31676Y965038D01*
X29095Y961174D01*
X27317Y956881D01*
X26410Y952323D01*
Y947677D01*
X27317Y943119D01*
X29095Y938826D01*
X31676Y934962D01*
X34962Y931676D01*
X38826Y929095D01*
X43119Y927317D01*
X47677Y926410D01*
X52323D01*
X56881Y927317D01*
X61174Y929095D01*
X65038Y931676D01*
X68324Y934962D01*
X70905Y938826D01*
X72683Y943119D01*
X73590Y947677D01*
Y952323D01*
X72683Y956881D01*
X70905Y961174D01*
X68324Y965038D01*
X65038Y968324D01*
X61174Y970905D01*
X56881Y972683D01*
X52323Y973590D01*
D02*
G37*
G36*
X441217Y961860D02*
X437622D01*
X434097Y961159D01*
X430775Y959783D01*
X427786Y957786D01*
X425244Y955244D01*
X423247Y952255D01*
X421871Y948933D01*
X421170Y945407D01*
Y941813D01*
X421871Y938287D01*
X423247Y934965D01*
X425244Y931976D01*
X427786Y929434D01*
X430775Y927437D01*
X434097Y926061D01*
X437622Y925360D01*
X441217D01*
X444743Y926061D01*
X448065Y927437D01*
X451054Y929434D01*
X453596Y931976D01*
X455593Y934965D01*
X456969Y938287D01*
X457670Y941813D01*
Y945407D01*
X456969Y948933D01*
X455593Y952255D01*
X453596Y955244D01*
X451054Y957786D01*
X448065Y959783D01*
X444743Y961159D01*
X441217Y961860D01*
D02*
G37*
G36*
X314217D02*
X310623D01*
X307097Y961159D01*
X303775Y959783D01*
X300786Y957786D01*
X298244Y955244D01*
X296247Y952255D01*
X294871Y948933D01*
X294170Y945407D01*
Y941813D01*
X294871Y938287D01*
X296247Y934965D01*
X298244Y931976D01*
X300786Y929434D01*
X303775Y927437D01*
X307097Y926061D01*
X310623Y925360D01*
X314217D01*
X317743Y926061D01*
X321065Y927437D01*
X324054Y929434D01*
X326596Y931976D01*
X328593Y934965D01*
X329969Y938287D01*
X330670Y941813D01*
Y945407D01*
X329969Y948933D01*
X328593Y952255D01*
X326596Y955244D01*
X324054Y957786D01*
X321065Y959783D01*
X317743Y961159D01*
X314217Y961860D01*
D02*
G37*
G36*
X514331Y940134D02*
X511829D01*
X509413Y939486D01*
X507247Y938235D01*
X505478Y936467D01*
X504227Y934300D01*
X503580Y931884D01*
Y929383D01*
X504227Y926967D01*
X505478Y924800D01*
X507247Y923032D01*
X509413Y921781D01*
X511829Y921134D01*
X514331D01*
X516747Y921781D01*
X518913Y923032D01*
X520682Y924800D01*
X521933Y926967D01*
X522580Y929383D01*
Y931884D01*
X521933Y934300D01*
X520682Y936467D01*
X518913Y938235D01*
X516747Y939486D01*
X514331Y940134D01*
D02*
G37*
G36*
X362680Y927975D02*
Y920210D01*
X370445D01*
X369952Y922051D01*
X368642Y924319D01*
X366789Y926172D01*
X364521Y927482D01*
X362680Y927975D01*
D02*
G37*
G36*
X358680Y927975D02*
X356839Y927482D01*
X354571Y926172D01*
X352718Y924319D01*
X351408Y922051D01*
X350915Y920210D01*
X358680D01*
Y927975D01*
D02*
G37*
G36*
X402498Y927160D02*
X400142D01*
X397865Y926550D01*
X395825Y925372D01*
X394158Y923705D01*
X392980Y921665D01*
X392370Y919388D01*
Y917032D01*
X392980Y914755D01*
X394158Y912715D01*
X395825Y911048D01*
X397865Y909870D01*
X400142Y909260D01*
X402498D01*
X404775Y909870D01*
X406815Y911048D01*
X408482Y912715D01*
X409660Y914755D01*
X410270Y917032D01*
Y919388D01*
X409660Y921665D01*
X408482Y923705D01*
X406815Y925372D01*
X404775Y926550D01*
X402498Y927160D01*
D02*
G37*
G36*
X382178D02*
X379822D01*
X377545Y926550D01*
X375505Y925372D01*
X373838Y923705D01*
X372660Y921665D01*
X372050Y919388D01*
Y917032D01*
X372660Y914755D01*
X373838Y912715D01*
X375505Y911048D01*
X377545Y909870D01*
X379822Y909260D01*
X382178D01*
X384455Y909870D01*
X386495Y911048D01*
X388162Y912715D01*
X389340Y914755D01*
X389950Y917032D01*
Y919388D01*
X389340Y921665D01*
X388162Y923705D01*
X386495Y925372D01*
X384455Y926550D01*
X382178Y927160D01*
D02*
G37*
G36*
X358680Y916210D02*
X350915D01*
X351408Y914369D01*
X352718Y912101D01*
X354571Y910248D01*
X356839Y908938D01*
X358680Y908445D01*
Y916210D01*
D02*
G37*
G36*
X515080Y915568D02*
Y907233D01*
X523414D01*
X522864Y909286D01*
X521482Y911681D01*
X519527Y913636D01*
X517133Y915018D01*
X515080Y915568D01*
D02*
G37*
G36*
X511080Y915568D02*
X509027Y915018D01*
X506633Y913636D01*
X504678Y911681D01*
X503296Y909286D01*
X502746Y907233D01*
X511080D01*
Y915568D01*
D02*
G37*
G36*
X372840Y910195D02*
Y902430D01*
X380605D01*
X380112Y904271D01*
X378802Y906539D01*
X376949Y908392D01*
X374681Y909702D01*
X372840Y910195D01*
D02*
G37*
G36*
X370445Y916210D02*
X362680D01*
Y908445D01*
X363100Y908557D01*
X363757Y907419D01*
X362878Y906539D01*
X361568Y904271D01*
X361075Y902430D01*
X368840D01*
Y910195D01*
X368420Y910083D01*
X367763Y911221D01*
X368642Y912101D01*
X369952Y914369D01*
X370445Y916210D01*
D02*
G37*
G36*
X511080Y903233D02*
X502746D01*
X503296Y901181D01*
X504678Y898786D01*
X506633Y896832D01*
X509027Y895449D01*
X511080Y894899D01*
Y903233D01*
D02*
G37*
G36*
X523414D02*
X515080D01*
Y894899D01*
X517133Y895449D01*
X519527Y896832D01*
X521482Y898786D01*
X522864Y901181D01*
X523414Y903233D01*
D02*
G37*
G36*
X483522Y962244D02*
X481678D01*
X479898Y961767D01*
X478302Y960845D01*
X476999Y959542D01*
X476077Y957946D01*
X475600Y956165D01*
Y954322D01*
X476077Y952542D01*
X476999Y950946D01*
X478302Y949642D01*
X478522Y949515D01*
Y906158D01*
X478302Y906031D01*
X476999Y904728D01*
X476077Y903132D01*
X475600Y901352D01*
Y899508D01*
X476077Y897728D01*
X476999Y896132D01*
X478302Y894829D01*
X479898Y893907D01*
X481678Y893430D01*
X483522D01*
X485302Y893907D01*
X486898Y894829D01*
X488201Y896132D01*
X489123Y897728D01*
X489600Y899508D01*
Y901352D01*
X489123Y903132D01*
X488201Y904728D01*
X486898Y906031D01*
X486678Y906158D01*
Y949515D01*
X486898Y949642D01*
X488201Y950946D01*
X489123Y952542D01*
X489600Y954322D01*
Y956165D01*
X489123Y957946D01*
X488201Y959542D01*
X486898Y960845D01*
X485302Y961767D01*
X483522Y962244D01*
D02*
G37*
G36*
X412658Y909380D02*
X410302D01*
X408025Y908770D01*
X405985Y907592D01*
X404318Y905925D01*
X403140Y903885D01*
X402530Y901608D01*
Y899252D01*
X403140Y896975D01*
X404318Y894935D01*
X405985Y893268D01*
X408025Y892090D01*
X410302Y891480D01*
X412658D01*
X414935Y892090D01*
X416975Y893268D01*
X418642Y894935D01*
X419820Y896975D01*
X420430Y899252D01*
Y901608D01*
X419820Y903885D01*
X418642Y905925D01*
X416975Y907592D01*
X414935Y908770D01*
X412658Y909380D01*
D02*
G37*
G36*
X392338D02*
X389982D01*
X387705Y908770D01*
X385665Y907592D01*
X383998Y905925D01*
X382820Y903885D01*
X382210Y901608D01*
Y899252D01*
X382820Y896975D01*
X383998Y894935D01*
X385665Y893268D01*
X387705Y892090D01*
X389982Y891480D01*
X392338D01*
X394615Y892090D01*
X396655Y893268D01*
X398322Y894935D01*
X399500Y896975D01*
X400110Y899252D01*
Y901608D01*
X399500Y903885D01*
X398322Y905925D01*
X396655Y907592D01*
X394615Y908770D01*
X392338Y909380D01*
D02*
G37*
G36*
X349310Y927160D02*
X331410D01*
Y909260D01*
X345374D01*
X345714Y907990D01*
X345025Y907592D01*
X343358Y905925D01*
X342180Y903885D01*
X341570Y901608D01*
Y899252D01*
X342180Y896975D01*
X343358Y894935D01*
X345025Y893268D01*
X347065Y892090D01*
X349342Y891480D01*
X351698D01*
X353975Y892090D01*
X356015Y893268D01*
X357682Y894935D01*
X358860Y896975D01*
X359470Y899252D01*
Y901608D01*
X358860Y903885D01*
X357682Y905925D01*
X356015Y907592D01*
X353975Y908770D01*
X351698Y909380D01*
X350114D01*
X349342Y909380D01*
X349310Y909404D01*
X349310Y910389D01*
Y927160D01*
D02*
G37*
G36*
X368840Y898430D02*
X361075D01*
X361568Y896589D01*
X362878Y894321D01*
X364731Y892468D01*
X366999Y891158D01*
X368840Y890665D01*
Y898430D01*
D02*
G37*
G36*
X380605D02*
X372840D01*
Y890665D01*
X374681Y891158D01*
X376949Y892468D01*
X378802Y894321D01*
X380112Y896589D01*
X380605Y898430D01*
D02*
G37*
G36*
X514331Y889333D02*
X511829D01*
X509413Y888686D01*
X507247Y887435D01*
X505478Y885667D01*
X504227Y883500D01*
X503580Y881084D01*
Y878583D01*
X504227Y876167D01*
X505478Y874000D01*
X507247Y872232D01*
X509413Y870981D01*
X511829Y870334D01*
X514331D01*
X516747Y870981D01*
X518913Y872232D01*
X520682Y874000D01*
X521933Y876167D01*
X522580Y878583D01*
Y881084D01*
X521933Y883500D01*
X520682Y885667D01*
X518913Y887435D01*
X516747Y888686D01*
X514331Y889333D01*
D02*
G37*
G36*
X78200Y432188D02*
Y421100D01*
X89288D01*
X88463Y424180D01*
X86731Y427180D01*
X84280Y429631D01*
X81280Y431363D01*
X78200Y432188D01*
D02*
G37*
G36*
X74200D02*
X71120Y431363D01*
X68120Y429631D01*
X65669Y427180D01*
X63937Y424180D01*
X63112Y421100D01*
X74200D01*
Y432188D01*
D02*
G37*
G36*
X140298Y431260D02*
X137096D01*
X134003Y430431D01*
X131230Y428830D01*
X128966Y426566D01*
X127365Y423794D01*
X126537Y420701D01*
Y417499D01*
X127365Y414406D01*
X128966Y411634D01*
X131230Y409370D01*
X134003Y407769D01*
X137096Y406940D01*
X140298D01*
X143390Y407769D01*
X146163Y409370D01*
X148427Y411634D01*
X150028Y414406D01*
X150857Y417499D01*
Y420701D01*
X150028Y423794D01*
X148427Y426566D01*
X146163Y428830D01*
X143390Y430431D01*
X140298Y431260D01*
D02*
G37*
G36*
X89288Y417100D02*
X78200D01*
Y406012D01*
X81280Y406837D01*
X84280Y408569D01*
X86731Y411020D01*
X88463Y414020D01*
X89288Y417100D01*
D02*
G37*
G36*
X74200D02*
X63112D01*
X63937Y414020D01*
X65669Y411020D01*
X68120Y408569D01*
X71120Y406837D01*
X74200Y406012D01*
Y417100D01*
D02*
G37*
G36*
X110699Y384690D02*
Y373602D01*
X121788D01*
X120962Y376682D01*
X119230Y379682D01*
X116780Y382133D01*
X113779Y383865D01*
X110699Y384690D01*
D02*
G37*
G36*
X106699Y384690D02*
X103620Y383865D01*
X100619Y382133D01*
X98169Y379682D01*
X96436Y376682D01*
X95611Y373602D01*
X106699D01*
Y384690D01*
D02*
G37*
G36*
X121788Y369602D02*
X110699D01*
Y358514D01*
X113779Y359339D01*
X116780Y361071D01*
X119230Y363521D01*
X120962Y366522D01*
X121788Y369602D01*
D02*
G37*
G36*
X106699D02*
X95611D01*
X96436Y366522D01*
X98169Y363521D01*
X100619Y361071D01*
X103620Y359339D01*
X106699Y358514D01*
Y369602D01*
D02*
G37*
G36*
X824960Y111365D02*
Y103600D01*
X832725D01*
X832232Y105441D01*
X830922Y107709D01*
X829069Y109562D01*
X826801Y110872D01*
X824960Y111365D01*
D02*
G37*
G36*
X820960D02*
X819119Y110872D01*
X816851Y109562D01*
X814998Y107709D01*
X813688Y105441D01*
X813195Y103600D01*
X820960D01*
Y111365D01*
D02*
G37*
G36*
X624300D02*
Y103600D01*
X632065D01*
X631572Y105441D01*
X630262Y107709D01*
X628409Y109562D01*
X626141Y110872D01*
X624300Y111365D01*
D02*
G37*
G36*
X620300D02*
X618459Y110872D01*
X616191Y109562D01*
X614338Y107709D01*
X613028Y105441D01*
X612535Y103600D01*
X620300D01*
Y111365D01*
D02*
G37*
G36*
X389930D02*
Y103600D01*
X397695D01*
X397202Y105441D01*
X395892Y107709D01*
X394039Y109562D01*
X391771Y110872D01*
X389930Y111365D01*
D02*
G37*
G36*
X385930D02*
X384090Y110872D01*
X381821Y109562D01*
X379968Y107709D01*
X378658Y105441D01*
X378165Y103600D01*
X385930D01*
Y111365D01*
D02*
G37*
G36*
X184880D02*
Y103600D01*
X192645D01*
X192152Y105441D01*
X190842Y107709D01*
X188989Y109562D01*
X186721Y110872D01*
X184880Y111365D01*
D02*
G37*
G36*
X180880D02*
X179039Y110872D01*
X176771Y109562D01*
X174918Y107709D01*
X173608Y105441D01*
X173115Y103600D01*
X180880D01*
Y111365D01*
D02*
G37*
G36*
X820960Y99600D02*
X813195D01*
X813688Y97759D01*
X814998Y95491D01*
X815877Y94611D01*
X815220Y93473D01*
X814800Y93585D01*
Y85820D01*
X822565D01*
X822072Y87661D01*
X820762Y89929D01*
X819883Y90809D01*
X820540Y91947D01*
X820960Y91835D01*
Y99600D01*
D02*
G37*
G36*
X803818Y110550D02*
X801462D01*
X799185Y109940D01*
X797145Y108762D01*
X795478Y107095D01*
X794300Y105055D01*
X793690Y102778D01*
Y100422D01*
X794300Y98145D01*
X795478Y96105D01*
X797145Y94438D01*
X799185Y93260D01*
X801462Y92650D01*
X803818D01*
X806095Y93260D01*
X808135Y94438D01*
X809802Y96105D01*
X810980Y98145D01*
X811590Y100422D01*
Y102778D01*
X810980Y105055D01*
X809802Y107095D01*
X808135Y108762D01*
X806095Y109940D01*
X803818Y110550D01*
D02*
G37*
G36*
X783498D02*
X781142D01*
X778865Y109940D01*
X776825Y108762D01*
X775158Y107095D01*
X773980Y105055D01*
X773370Y102778D01*
Y100422D01*
X773980Y98145D01*
X775158Y96105D01*
X776825Y94438D01*
X778865Y93260D01*
X781142Y92650D01*
X783498D01*
X785775Y93260D01*
X787815Y94438D01*
X789482Y96105D01*
X790660Y98145D01*
X791270Y100422D01*
Y102778D01*
X790660Y105055D01*
X789482Y107095D01*
X787815Y108762D01*
X785775Y109940D01*
X783498Y110550D01*
D02*
G37*
G36*
X603158D02*
X600802D01*
X598525Y109940D01*
X596485Y108762D01*
X594818Y107095D01*
X593640Y105055D01*
X593030Y102778D01*
Y100422D01*
X593640Y98145D01*
X594818Y96105D01*
X596485Y94438D01*
X598525Y93260D01*
X600802Y92650D01*
X603158D01*
X605435Y93260D01*
X607475Y94438D01*
X609142Y96105D01*
X610320Y98145D01*
X610930Y100422D01*
Y102778D01*
X610320Y105055D01*
X609142Y107095D01*
X607475Y108762D01*
X605435Y109940D01*
X603158Y110550D01*
D02*
G37*
G36*
X582838D02*
X580482D01*
X578205Y109940D01*
X576165Y108762D01*
X574498Y107095D01*
X573320Y105055D01*
X572710Y102778D01*
Y100422D01*
X573320Y98145D01*
X574498Y96105D01*
X576165Y94438D01*
X578205Y93260D01*
X580482Y92650D01*
X582838D01*
X585115Y93260D01*
X587155Y94438D01*
X588822Y96105D01*
X590000Y98145D01*
X590610Y100422D01*
Y102778D01*
X590000Y105055D01*
X588822Y107095D01*
X587155Y108762D01*
X585115Y109940D01*
X582838Y110550D01*
D02*
G37*
G36*
X368788D02*
X366432D01*
X364155Y109940D01*
X362115Y108762D01*
X360448Y107095D01*
X359270Y105055D01*
X358660Y102778D01*
Y100422D01*
X359270Y98145D01*
X360448Y96105D01*
X362115Y94438D01*
X364155Y93260D01*
X366432Y92650D01*
X368788D01*
X371065Y93260D01*
X373106Y94438D01*
X374772Y96105D01*
X375950Y98145D01*
X376560Y100422D01*
Y102778D01*
X375950Y105055D01*
X374772Y107095D01*
X373106Y108762D01*
X371065Y109940D01*
X368788Y110550D01*
D02*
G37*
G36*
X348468D02*
X346112D01*
X343835Y109940D01*
X341795Y108762D01*
X340128Y107095D01*
X338950Y105055D01*
X338340Y102778D01*
Y100422D01*
X338950Y98145D01*
X340128Y96105D01*
X341795Y94438D01*
X343835Y93260D01*
X346112Y92650D01*
X348468D01*
X350745Y93260D01*
X352785Y94438D01*
X354452Y96105D01*
X355630Y98145D01*
X356240Y100422D01*
Y102778D01*
X355630Y105055D01*
X354452Y107095D01*
X352785Y108762D01*
X350745Y109940D01*
X348468Y110550D01*
D02*
G37*
G36*
X163738D02*
X161382D01*
X159105Y109940D01*
X157065Y108762D01*
X155398Y107095D01*
X154220Y105055D01*
X153610Y102778D01*
Y100422D01*
X154220Y98145D01*
X155398Y96105D01*
X157065Y94438D01*
X159105Y93260D01*
X161382Y92650D01*
X163738D01*
X166015Y93260D01*
X168055Y94438D01*
X169722Y96105D01*
X170900Y98145D01*
X171510Y100422D01*
Y102778D01*
X170900Y105055D01*
X169722Y107095D01*
X168055Y108762D01*
X166015Y109940D01*
X163738Y110550D01*
D02*
G37*
G36*
X143418D02*
X141062D01*
X138785Y109940D01*
X136745Y108762D01*
X135078Y107095D01*
X133900Y105055D01*
X133290Y102778D01*
Y100422D01*
X133900Y98145D01*
X135078Y96105D01*
X136745Y94438D01*
X138785Y93260D01*
X141062Y92650D01*
X143418D01*
X145695Y93260D01*
X147735Y94438D01*
X149402Y96105D01*
X150580Y98145D01*
X151190Y100422D01*
Y102778D01*
X150580Y105055D01*
X149402Y107095D01*
X147735Y108762D01*
X145695Y109940D01*
X143418Y110550D01*
D02*
G37*
G36*
X832725Y99600D02*
X824960D01*
Y91835D01*
X826801Y92328D01*
X829069Y93638D01*
X830922Y95491D01*
X832232Y97759D01*
X832725Y99600D01*
D02*
G37*
G36*
X620300D02*
X612535D01*
X613028Y97759D01*
X614338Y95491D01*
X616191Y93638D01*
X618459Y92328D01*
X620300Y91835D01*
Y99600D01*
D02*
G37*
G36*
X385930D02*
X378165D01*
X378658Y97759D01*
X379968Y95491D01*
X381821Y93638D01*
X384090Y92328D01*
X385930Y91835D01*
Y99600D01*
D02*
G37*
G36*
X180880D02*
X173115D01*
X173608Y97759D01*
X174918Y95491D01*
X176771Y93638D01*
X179039Y92328D01*
X180880Y91835D01*
Y99600D01*
D02*
G37*
G36*
X810800Y93585D02*
X808959Y93092D01*
X806691Y91782D01*
X804838Y89929D01*
X803528Y87661D01*
X803035Y85820D01*
X810800D01*
Y93585D01*
D02*
G37*
G36*
X634460D02*
Y85820D01*
X642225D01*
X641732Y87661D01*
X640422Y89929D01*
X638569Y91782D01*
X636301Y93092D01*
X634460Y93585D01*
D02*
G37*
G36*
X632065Y99600D02*
X624300D01*
Y91835D01*
X624720Y91947D01*
X625377Y90809D01*
X624498Y89929D01*
X623188Y87661D01*
X622695Y85820D01*
X630460D01*
Y93585D01*
X630040Y93473D01*
X629383Y94611D01*
X630262Y95491D01*
X631572Y97759D01*
X632065Y99600D01*
D02*
G37*
G36*
X400090Y93585D02*
Y85820D01*
X407855D01*
X407362Y87661D01*
X406052Y89929D01*
X404199Y91782D01*
X401931Y93092D01*
X400090Y93585D01*
D02*
G37*
G36*
X397695Y99600D02*
X389930D01*
Y91835D01*
X390350Y91947D01*
X391007Y90809D01*
X390128Y89929D01*
X388818Y87661D01*
X388325Y85820D01*
X396090D01*
Y93585D01*
X395670Y93473D01*
X395013Y94611D01*
X395892Y95491D01*
X397202Y97759D01*
X397695Y99600D01*
D02*
G37*
G36*
X195040Y93585D02*
Y85820D01*
X202805D01*
X202312Y87661D01*
X201002Y89929D01*
X199149Y91782D01*
X196881Y93092D01*
X195040Y93585D01*
D02*
G37*
G36*
X192645Y99600D02*
X184880D01*
Y91835D01*
X185300Y91947D01*
X185957Y90809D01*
X185078Y89929D01*
X183768Y87661D01*
X183275Y85820D01*
X191040D01*
Y93585D01*
X190620Y93473D01*
X189963Y94611D01*
X190842Y95491D01*
X192152Y97759D01*
X192645Y99600D01*
D02*
G37*
G36*
X844458Y110550D02*
X842102D01*
X839825Y109940D01*
X837785Y108762D01*
X836118Y107095D01*
X834940Y105055D01*
X834330Y102778D01*
Y100422D01*
X834940Y98145D01*
X836118Y96105D01*
X837785Y94438D01*
X839825Y93260D01*
X842102Y92650D01*
X843686D01*
X844458Y92650D01*
X844490Y92626D01*
X844490Y91641D01*
Y74870D01*
X862390D01*
Y92770D01*
X848426D01*
X848086Y94040D01*
X848775Y94438D01*
X850442Y96105D01*
X851620Y98145D01*
X852230Y100422D01*
Y102778D01*
X851620Y105055D01*
X850442Y107095D01*
X848775Y108762D01*
X846735Y109940D01*
X844458Y110550D01*
D02*
G37*
G36*
X834298Y92770D02*
X831942D01*
X829665Y92160D01*
X827625Y90982D01*
X825958Y89315D01*
X824780Y87275D01*
X824170Y84998D01*
Y82642D01*
X824780Y80365D01*
X825958Y78325D01*
X827625Y76658D01*
X829665Y75480D01*
X831942Y74870D01*
X834298D01*
X836575Y75480D01*
X838615Y76658D01*
X840282Y78325D01*
X841460Y80365D01*
X842070Y82642D01*
Y84998D01*
X841460Y87275D01*
X840282Y89315D01*
X838615Y90982D01*
X836575Y92160D01*
X834298Y92770D01*
D02*
G37*
G36*
X793658D02*
X791302D01*
X789025Y92160D01*
X786985Y90982D01*
X785318Y89315D01*
X784140Y87275D01*
X783530Y84998D01*
Y82642D01*
X784140Y80365D01*
X785318Y78325D01*
X786985Y76658D01*
X789025Y75480D01*
X791302Y74870D01*
X793658D01*
X795935Y75480D01*
X797975Y76658D01*
X799642Y78325D01*
X800820Y80365D01*
X801430Y82642D01*
Y84998D01*
X800820Y87275D01*
X799642Y89315D01*
X797975Y90982D01*
X795935Y92160D01*
X793658Y92770D01*
D02*
G37*
G36*
X643798Y110550D02*
X641442D01*
X639165Y109940D01*
X637125Y108762D01*
X635458Y107095D01*
X634280Y105055D01*
X633670Y102778D01*
Y100422D01*
X634280Y98145D01*
X635458Y96105D01*
X637125Y94438D01*
X639165Y93260D01*
X641442Y92650D01*
X643026D01*
X643798Y92650D01*
X643830Y92626D01*
X643830Y91641D01*
Y74870D01*
X661730D01*
Y92770D01*
X647766D01*
X647426Y94040D01*
X648115Y94438D01*
X649782Y96105D01*
X650960Y98145D01*
X651570Y100422D01*
Y102778D01*
X650960Y105055D01*
X649782Y107095D01*
X648115Y108762D01*
X646075Y109940D01*
X643798Y110550D01*
D02*
G37*
G36*
X613318Y92770D02*
X610962D01*
X608685Y92160D01*
X606645Y90982D01*
X604978Y89315D01*
X603800Y87275D01*
X603190Y84998D01*
Y82642D01*
X603800Y80365D01*
X604978Y78325D01*
X606645Y76658D01*
X608685Y75480D01*
X610962Y74870D01*
X613318D01*
X615595Y75480D01*
X617635Y76658D01*
X619302Y78325D01*
X620480Y80365D01*
X621090Y82642D01*
Y84998D01*
X620480Y87275D01*
X619302Y89315D01*
X617635Y90982D01*
X615595Y92160D01*
X613318Y92770D01*
D02*
G37*
G36*
X592998D02*
X590642D01*
X588365Y92160D01*
X586325Y90982D01*
X584658Y89315D01*
X583480Y87275D01*
X582870Y84998D01*
Y82642D01*
X583480Y80365D01*
X584658Y78325D01*
X586325Y76658D01*
X588365Y75480D01*
X590642Y74870D01*
X592998D01*
X595275Y75480D01*
X597315Y76658D01*
X598982Y78325D01*
X600160Y80365D01*
X600770Y82642D01*
Y84998D01*
X600160Y87275D01*
X598982Y89315D01*
X597315Y90982D01*
X595275Y92160D01*
X592998Y92770D01*
D02*
G37*
G36*
X409428Y110550D02*
X407072D01*
X404795Y109940D01*
X402755Y108762D01*
X401088Y107095D01*
X399910Y105055D01*
X399300Y102778D01*
Y100422D01*
X399910Y98145D01*
X401088Y96105D01*
X402755Y94438D01*
X404795Y93260D01*
X407072Y92650D01*
X408656D01*
X409428Y92650D01*
X409460Y92626D01*
X409460Y91641D01*
Y74870D01*
X427360D01*
Y92770D01*
X413396D01*
X413056Y94040D01*
X413745Y94438D01*
X415412Y96105D01*
X416590Y98145D01*
X417200Y100422D01*
Y102778D01*
X416590Y105055D01*
X415412Y107095D01*
X413745Y108762D01*
X411705Y109940D01*
X409428Y110550D01*
D02*
G37*
G36*
X378948Y92770D02*
X376592D01*
X374315Y92160D01*
X372275Y90982D01*
X370608Y89315D01*
X369430Y87275D01*
X368820Y84998D01*
Y82642D01*
X369430Y80365D01*
X370608Y78325D01*
X372275Y76658D01*
X374315Y75480D01*
X376592Y74870D01*
X378948D01*
X381225Y75480D01*
X383265Y76658D01*
X384932Y78325D01*
X386110Y80365D01*
X386720Y82642D01*
Y84998D01*
X386110Y87275D01*
X384932Y89315D01*
X383265Y90982D01*
X381225Y92160D01*
X378948Y92770D01*
D02*
G37*
G36*
X358628D02*
X356272D01*
X353995Y92160D01*
X351955Y90982D01*
X350288Y89315D01*
X349110Y87275D01*
X348500Y84998D01*
Y82642D01*
X349110Y80365D01*
X350288Y78325D01*
X351955Y76658D01*
X353995Y75480D01*
X356272Y74870D01*
X358628D01*
X360905Y75480D01*
X362946Y76658D01*
X364612Y78325D01*
X365790Y80365D01*
X366400Y82642D01*
Y84998D01*
X365790Y87275D01*
X364612Y89315D01*
X362946Y90982D01*
X360905Y92160D01*
X358628Y92770D01*
D02*
G37*
G36*
X204378Y110550D02*
X202022D01*
X199745Y109940D01*
X197705Y108762D01*
X196038Y107095D01*
X194860Y105055D01*
X194250Y102778D01*
Y100422D01*
X194860Y98145D01*
X196038Y96105D01*
X197705Y94438D01*
X199745Y93260D01*
X202022Y92650D01*
X203606D01*
X204378Y92650D01*
X204410Y92626D01*
X204410Y91641D01*
Y74870D01*
X222310D01*
Y92770D01*
X208346D01*
X208006Y94040D01*
X208695Y94438D01*
X210362Y96105D01*
X211540Y98145D01*
X212150Y100422D01*
Y102778D01*
X211540Y105055D01*
X210362Y107095D01*
X208695Y108762D01*
X206655Y109940D01*
X204378Y110550D01*
D02*
G37*
G36*
X173898Y92770D02*
X171542D01*
X169265Y92160D01*
X167225Y90982D01*
X165558Y89315D01*
X164380Y87275D01*
X163770Y84998D01*
Y82642D01*
X164380Y80365D01*
X165558Y78325D01*
X167225Y76658D01*
X169265Y75480D01*
X171542Y74870D01*
X173898D01*
X176175Y75480D01*
X178215Y76658D01*
X179882Y78325D01*
X181060Y80365D01*
X181670Y82642D01*
Y84998D01*
X181060Y87275D01*
X179882Y89315D01*
X178215Y90982D01*
X176175Y92160D01*
X173898Y92770D01*
D02*
G37*
G36*
X153578D02*
X151222D01*
X148945Y92160D01*
X146905Y90982D01*
X145238Y89315D01*
X144060Y87275D01*
X143450Y84998D01*
Y82642D01*
X144060Y80365D01*
X145238Y78325D01*
X146905Y76658D01*
X148945Y75480D01*
X151222Y74870D01*
X153578D01*
X155855Y75480D01*
X157895Y76658D01*
X159562Y78325D01*
X160740Y80365D01*
X161350Y82642D01*
Y84998D01*
X160740Y87275D01*
X159562Y89315D01*
X157895Y90982D01*
X155855Y92160D01*
X153578Y92770D01*
D02*
G37*
G36*
X822565Y81820D02*
X814800D01*
Y74055D01*
X816641Y74548D01*
X818909Y75858D01*
X820762Y77711D01*
X822072Y79979D01*
X822565Y81820D01*
D02*
G37*
G36*
X810800D02*
X803035D01*
X803528Y79979D01*
X804838Y77711D01*
X806691Y75858D01*
X808959Y74548D01*
X810800Y74055D01*
Y81820D01*
D02*
G37*
G36*
X642225D02*
X634460D01*
Y74055D01*
X636301Y74548D01*
X638569Y75858D01*
X640422Y77711D01*
X641732Y79979D01*
X642225Y81820D01*
D02*
G37*
G36*
X630460D02*
X622695D01*
X623188Y79979D01*
X624498Y77711D01*
X626351Y75858D01*
X628619Y74548D01*
X630460Y74055D01*
Y81820D01*
D02*
G37*
G36*
X407855D02*
X400090D01*
Y74055D01*
X401931Y74548D01*
X404199Y75858D01*
X406052Y77711D01*
X407362Y79979D01*
X407855Y81820D01*
D02*
G37*
G36*
X396090D02*
X388325D01*
X388818Y79979D01*
X390128Y77711D01*
X391981Y75858D01*
X394249Y74548D01*
X396090Y74055D01*
Y81820D01*
D02*
G37*
G36*
X202805D02*
X195040D01*
Y74055D01*
X196881Y74548D01*
X199149Y75858D01*
X201002Y77711D01*
X202312Y79979D01*
X202805Y81820D01*
D02*
G37*
G36*
X191040D02*
X183275D01*
X183768Y79979D01*
X185078Y77711D01*
X186931Y75858D01*
X189199Y74548D01*
X191040Y74055D01*
Y81820D01*
D02*
G37*
G36*
X883177Y76670D02*
X879583D01*
X876057Y75969D01*
X872735Y74593D01*
X869746Y72596D01*
X867204Y70054D01*
X865207Y67065D01*
X863831Y63743D01*
X863130Y60217D01*
Y56623D01*
X863831Y53097D01*
X865207Y49775D01*
X867204Y46786D01*
X869746Y44244D01*
X872735Y42247D01*
X876057Y40871D01*
X879583Y40170D01*
X883177D01*
X886703Y40871D01*
X890025Y42247D01*
X893014Y44244D01*
X895556Y46786D01*
X897553Y49775D01*
X898929Y53097D01*
X899630Y56623D01*
Y60217D01*
X898929Y63743D01*
X897553Y67065D01*
X895556Y70054D01*
X893014Y72596D01*
X890025Y74593D01*
X886703Y75969D01*
X883177Y76670D01*
D02*
G37*
G36*
X756178D02*
X752582D01*
X749057Y75969D01*
X745735Y74593D01*
X742746Y72596D01*
X740204Y70054D01*
X738207Y67065D01*
X736831Y63743D01*
X736130Y60217D01*
Y56623D01*
X736831Y53097D01*
X738207Y49775D01*
X740204Y46786D01*
X742746Y44244D01*
X745735Y42247D01*
X749057Y40871D01*
X752582Y40170D01*
X756178D01*
X759703Y40871D01*
X763025Y42247D01*
X766014Y44244D01*
X768556Y46786D01*
X770553Y49775D01*
X771929Y53097D01*
X772630Y56623D01*
Y60217D01*
X771929Y63743D01*
X770553Y67065D01*
X768556Y70054D01*
X766014Y72596D01*
X763025Y74593D01*
X759703Y75969D01*
X756178Y76670D01*
D02*
G37*
G36*
X682517D02*
X678923D01*
X675397Y75969D01*
X672075Y74593D01*
X669086Y72596D01*
X666544Y70054D01*
X664547Y67065D01*
X663171Y63743D01*
X662470Y60217D01*
Y56623D01*
X663171Y53097D01*
X664547Y49775D01*
X666544Y46786D01*
X669086Y44244D01*
X672075Y42247D01*
X675397Y40871D01*
X678923Y40170D01*
X682517D01*
X686043Y40871D01*
X689365Y42247D01*
X692354Y44244D01*
X694896Y46786D01*
X696893Y49775D01*
X698269Y53097D01*
X698970Y56623D01*
Y60217D01*
X698269Y63743D01*
X696893Y67065D01*
X694896Y70054D01*
X692354Y72596D01*
X689365Y74593D01*
X686043Y75969D01*
X682517Y76670D01*
D02*
G37*
G36*
X555518D02*
X551922D01*
X548397Y75969D01*
X545075Y74593D01*
X542086Y72596D01*
X539544Y70054D01*
X537547Y67065D01*
X536171Y63743D01*
X535470Y60217D01*
Y56623D01*
X536171Y53097D01*
X537547Y49775D01*
X539544Y46786D01*
X542086Y44244D01*
X545075Y42247D01*
X548397Y40871D01*
X551922Y40170D01*
X555518D01*
X559043Y40871D01*
X562365Y42247D01*
X565354Y44244D01*
X567896Y46786D01*
X569893Y49775D01*
X571269Y53097D01*
X571970Y56623D01*
Y60217D01*
X571269Y63743D01*
X569893Y67065D01*
X567896Y70054D01*
X565354Y72596D01*
X562365Y74593D01*
X559043Y75969D01*
X555518Y76670D01*
D02*
G37*
G36*
X448148D02*
X444552D01*
X441027Y75969D01*
X437705Y74593D01*
X434716Y72596D01*
X432174Y70054D01*
X430177Y67065D01*
X428801Y63743D01*
X428100Y60217D01*
Y56623D01*
X428801Y53097D01*
X430177Y49775D01*
X432174Y46786D01*
X434716Y44244D01*
X437705Y42247D01*
X441027Y40871D01*
X444552Y40170D01*
X448148D01*
X451673Y40871D01*
X454995Y42247D01*
X457984Y44244D01*
X460526Y46786D01*
X462523Y49775D01*
X463899Y53097D01*
X464600Y56623D01*
Y60217D01*
X463899Y63743D01*
X462523Y67065D01*
X460526Y70054D01*
X457984Y72596D01*
X454995Y74593D01*
X451673Y75969D01*
X448148Y76670D01*
D02*
G37*
G36*
X321147D02*
X317553D01*
X314027Y75969D01*
X310705Y74593D01*
X307716Y72596D01*
X305174Y70054D01*
X303177Y67065D01*
X301801Y63743D01*
X301100Y60217D01*
Y56623D01*
X301801Y53097D01*
X303177Y49775D01*
X305174Y46786D01*
X307716Y44244D01*
X310705Y42247D01*
X314027Y40871D01*
X317553Y40170D01*
X321147D01*
X324673Y40871D01*
X327995Y42247D01*
X330984Y44244D01*
X333526Y46786D01*
X335523Y49775D01*
X336899Y53097D01*
X337600Y56623D01*
Y60217D01*
X336899Y63743D01*
X335523Y67065D01*
X333526Y70054D01*
X330984Y72596D01*
X327995Y74593D01*
X324673Y75969D01*
X321147Y76670D01*
D02*
G37*
G36*
X243097D02*
X239503D01*
X235977Y75969D01*
X232655Y74593D01*
X229666Y72596D01*
X227124Y70054D01*
X225127Y67065D01*
X223751Y63743D01*
X223050Y60217D01*
Y56623D01*
X223751Y53097D01*
X225127Y49775D01*
X227124Y46786D01*
X229666Y44244D01*
X232655Y42247D01*
X235977Y40871D01*
X239503Y40170D01*
X243097D01*
X246623Y40871D01*
X249945Y42247D01*
X252934Y44244D01*
X255476Y46786D01*
X257473Y49775D01*
X258849Y53097D01*
X259550Y56623D01*
Y60217D01*
X258849Y63743D01*
X257473Y67065D01*
X255476Y70054D01*
X252934Y72596D01*
X249945Y74593D01*
X246623Y75969D01*
X243097Y76670D01*
D02*
G37*
G36*
X116097D02*
X112502D01*
X108977Y75969D01*
X105655Y74593D01*
X102666Y72596D01*
X100124Y70054D01*
X98127Y67065D01*
X96751Y63743D01*
X96050Y60217D01*
Y56623D01*
X96751Y53097D01*
X98127Y49775D01*
X100124Y46786D01*
X102666Y44244D01*
X105655Y42247D01*
X108977Y40871D01*
X112502Y40170D01*
X116097D01*
X119623Y40871D01*
X122945Y42247D01*
X125934Y44244D01*
X128476Y46786D01*
X130473Y49775D01*
X131849Y53097D01*
X132550Y56623D01*
Y60217D01*
X131849Y63743D01*
X130473Y67065D01*
X128476Y70054D01*
X125934Y72596D01*
X122945Y74593D01*
X119623Y75969D01*
X116097Y76670D01*
D02*
G37*
G36*
X52323Y73590D02*
X47677D01*
X43119Y72683D01*
X38826Y70905D01*
X34962Y68324D01*
X31676Y65038D01*
X29095Y61174D01*
X27317Y56881D01*
X26410Y52323D01*
Y47677D01*
X27317Y43119D01*
X29095Y38826D01*
X31676Y34962D01*
X34962Y31676D01*
X38826Y29095D01*
X43119Y27317D01*
X47677Y26410D01*
X52323D01*
X56881Y27317D01*
X61174Y29095D01*
X65038Y31676D01*
X68324Y34962D01*
X70905Y38826D01*
X72683Y43119D01*
X73590Y47677D01*
Y52323D01*
X72683Y56881D01*
X70905Y61174D01*
X68324Y65038D01*
X65038Y68324D01*
X61174Y70905D01*
X56881Y72683D01*
X52323Y73590D01*
D02*
G37*
G36*
X952323Y72165D02*
X947677D01*
X943119Y71259D01*
X938826Y69480D01*
X934962Y66899D01*
X931676Y63613D01*
X929095Y59749D01*
X927317Y55456D01*
X926410Y50898D01*
Y46252D01*
X927317Y41694D01*
X929095Y37401D01*
X931676Y33537D01*
X934962Y30252D01*
X938826Y27670D01*
X943119Y25892D01*
X947677Y24985D01*
X952323D01*
X956881Y25892D01*
X961174Y27670D01*
X965038Y30252D01*
X968324Y33537D01*
X970905Y37401D01*
X972683Y41694D01*
X973590Y46252D01*
Y50898D01*
X972683Y55456D01*
X970905Y59749D01*
X968324Y63613D01*
X965038Y66899D01*
X961174Y69480D01*
X956881Y71259D01*
X952323Y72165D01*
D02*
G37*
%LPD*%
D61*
X411480Y900430D02*
D03*
X401320Y918210D02*
D03*
X391160Y900430D02*
D03*
X381000Y918210D02*
D03*
X370840Y900430D02*
D03*
X360680Y918210D02*
D03*
X350520Y900430D02*
D03*
X843280Y101600D02*
D03*
X833120Y83820D02*
D03*
X822960Y101600D02*
D03*
X812800Y83820D02*
D03*
X802640Y101600D02*
D03*
X792480Y83820D02*
D03*
X782320Y101600D02*
D03*
X642620D02*
D03*
X632460Y83820D02*
D03*
X622300Y101600D02*
D03*
X612140Y83820D02*
D03*
X601980Y101600D02*
D03*
X591820Y83820D02*
D03*
X581660Y101600D02*
D03*
X408250D02*
D03*
X398090Y83820D02*
D03*
X387930Y101600D02*
D03*
X377770Y83820D02*
D03*
X367610Y101600D02*
D03*
X357450Y83820D02*
D03*
X347290Y101600D02*
D03*
X203200D02*
D03*
X193040Y83820D02*
D03*
X182880Y101600D02*
D03*
X172720Y83820D02*
D03*
X162560Y101600D02*
D03*
X152400Y83820D02*
D03*
X142240Y101600D02*
D03*
D62*
X340360Y918210D02*
D03*
X853440Y83820D02*
D03*
X652780D02*
D03*
X418410D02*
D03*
X213360D02*
D03*
D63*
X312420Y943610D02*
D03*
X439420D02*
D03*
X754380Y58420D02*
D03*
X881380D02*
D03*
X553720D02*
D03*
X680720D02*
D03*
X319350D02*
D03*
X446350D02*
D03*
X114300D02*
D03*
X241300D02*
D03*
D67*
X482600Y900430D02*
Y955244D01*
D68*
X513080Y956033D02*
D03*
D69*
Y930634D02*
D03*
Y905234D02*
D03*
Y879834D02*
D03*
D70*
X138697Y419100D02*
D03*
X76200Y419100D02*
D03*
X108699Y371602D02*
D03*
D72*
X482600Y955244D02*
D03*
Y900430D02*
D03*
X81280Y527050D02*
D03*
X171450D02*
D03*
X926410Y114300D02*
D03*
X76200D02*
D03*
Y863600D02*
D03*
X927317Y876300D02*
D03*
X768350Y450850D02*
D03*
X793750Y393700D02*
D03*
X728004Y361950D02*
D03*
X635000D02*
D03*
X728004Y304800D02*
D03*
X593640Y247650D02*
D03*
X535470Y285750D02*
D03*
X482600Y400050D02*
D03*
X469900Y336550D02*
D03*
X381000Y368300D02*
D03*
X317500Y342900D02*
D03*
X425504Y235582D02*
D03*
X317500Y228600D02*
D03*
X215900Y622300D02*
D03*
X234950Y546100D02*
D03*
D73*
X50000Y950000D02*
D03*
X950000D02*
D03*
X50000Y50000D02*
D03*
X950000Y48575D02*
D03*
M02*
