G04*
G04 #@! TF.GenerationSoftware,Altium Limited,Altium Designer,23.7.1 (13)*
G04*
G04 Layer_Color=65535*
%FSLAX44Y44*%
%MOMM*%
G71*
G04*
G04 #@! TF.SameCoordinates,0BEFCA26-5C96-4926-A50D-4D7A3FA2ED98*
G04*
G04*
G04 #@! TF.FilePolarity,Positive*
G04*
G01*
G75*
%ADD10C,0.2500*%
%ADD11C,0.6000*%
%ADD12C,0.2000*%
%ADD13C,0.5000*%
%ADD14C,0.0508*%
%ADD15C,0.1778*%
%ADD16C,0.2540*%
%ADD17C,0.1524*%
D10*
X289525Y918210D02*
G03*
X289525Y918210I-1250J0D01*
G01*
X82750Y606500D02*
G03*
X82750Y606500I-1250J0D01*
G01*
X235650Y596200D02*
G03*
X235650Y596200I-1250J0D01*
G01*
X344150Y284700D02*
G03*
X344150Y284700I-1250J0D01*
G01*
X298650Y335600D02*
G03*
X298650Y335600I-1250J0D01*
G01*
X409500Y289950D02*
G03*
X409500Y289950I-1250J0D01*
G01*
X787454Y431100D02*
G03*
X787454Y431100I-1250J0D01*
G01*
X638254Y441400D02*
G03*
X638254Y441400I-1250J0D01*
G01*
X721854Y287500D02*
G03*
X721854Y287500I-1250J0D01*
G01*
X578050Y288400D02*
G03*
X578050Y288400I-1250J0D01*
G01*
X325800Y381238D02*
G03*
X325800Y381238I-1250J0D01*
G01*
X906775Y83820D02*
G03*
X906775Y83820I-1250J0D01*
G01*
X706115D02*
G03*
X706115Y83820I-1250J0D01*
G01*
X471745D02*
G03*
X471745Y83820I-1250J0D01*
G01*
X266695D02*
G03*
X266695Y83820I-1250J0D01*
G01*
D11*
X390000Y302500D02*
G03*
X390000Y302500I-3000J0D01*
G01*
D12*
X500380Y867133D02*
X525780D01*
X500380D02*
Y968734D01*
X525780Y867133D02*
Y968734D01*
X500380D02*
X525780D01*
X456565Y842645D02*
Y923610D01*
X295275Y842645D02*
Y923610D01*
Y842645D02*
X456565D01*
X56550Y583200D02*
Y585200D01*
X45050Y583200D02*
Y585200D01*
X97000Y541500D02*
Y601500D01*
X157000Y541500D02*
Y601500D01*
X97000Y541500D02*
X157000D01*
X97000Y601500D02*
X157000D01*
X231400Y582700D02*
Y585700D01*
X200400Y582700D02*
Y585700D01*
X231400D01*
X200400Y582700D02*
X231400D01*
X265700Y627550D02*
X267700D01*
X265700Y617050D02*
X267700D01*
X265200Y591200D02*
X268200D01*
X265200Y601200D02*
X268200D01*
Y591200D02*
Y601200D01*
X248250Y558800D02*
Y560800D01*
X259750Y558800D02*
Y560800D01*
X200650Y537700D02*
Y539700D01*
X212150Y537700D02*
Y539700D01*
X355150Y269700D02*
X357500D01*
X328300D02*
X330650D01*
X328300Y223700D02*
Y269700D01*
X355150Y223700D02*
X357500D01*
X328300D02*
X330650D01*
X357500D02*
Y269700D01*
X264400Y316850D02*
X272400D01*
X264400D02*
Y324850D01*
X286400Y316850D02*
X294400D01*
Y324850D01*
X328500Y306500D02*
Y328500D01*
X306500Y306500D02*
Y328500D01*
X348650Y367300D02*
Y369300D01*
X337150Y367300D02*
Y369300D01*
X365000Y342500D02*
X397000D01*
X365000Y292500D02*
X397000D01*
X365000D02*
Y342500D01*
X397000Y292500D02*
Y342500D01*
X452028Y404250D02*
X453480D01*
X452028Y391750D02*
X453480D01*
X444504Y367574D02*
Y369026D01*
X432004Y367574D02*
Y369026D01*
X464150Y367300D02*
Y369300D01*
X475650Y367300D02*
Y369300D01*
X447004Y293800D02*
Y315800D01*
X425504Y293800D02*
Y315800D01*
X450047Y249323D02*
Y274323D01*
X471047Y249323D02*
Y274323D01*
X415004Y249323D02*
Y274323D01*
X436004Y249323D02*
Y274323D01*
X371223Y240381D02*
X404285D01*
X371223Y216819D02*
X404285D01*
X818504Y426100D02*
X821504D01*
X818504Y436100D02*
X821504D01*
Y426100D02*
Y436100D01*
X808504Y415350D02*
X810504D01*
X808504Y404850D02*
X810504D01*
X766703Y375250D02*
X768704D01*
X766703Y386750D02*
X768704D01*
X752204Y417600D02*
X783204D01*
X752204Y420600D02*
X783204D01*
X752204Y417600D02*
Y420600D01*
X783204Y417600D02*
Y420600D01*
X652504Y376400D02*
Y436400D01*
X712504Y376400D02*
Y436400D01*
X652504Y376400D02*
X712504D01*
X652504Y436400D02*
X712504D01*
X612054Y418100D02*
Y420100D01*
X600554Y418100D02*
Y420100D01*
X595900Y271950D02*
X597900D01*
X595900Y261450D02*
X597900D01*
X608100Y283400D02*
X611100D01*
X608100Y293400D02*
X611100D01*
Y283400D02*
Y293400D01*
X678104Y237800D02*
Y259800D01*
X699680Y237747D02*
Y259747D01*
X733854Y220500D02*
X770854D01*
X733854Y287500D02*
X770854D01*
Y220500D02*
Y287500D01*
X733854Y220500D02*
Y287500D01*
X574300Y272400D02*
Y278400D01*
X565800Y272400D02*
X574300D01*
X543300D02*
Y278400D01*
Y272400D02*
X551800D01*
X259300Y451000D02*
X295300D01*
Y441000D02*
Y451000D01*
X259300Y441000D02*
Y451000D01*
X295300Y361000D02*
Y371000D01*
X259300Y361000D02*
X295300D01*
X259300D02*
Y371000D01*
X737235Y159385D02*
X898525D01*
Y78420D02*
Y159385D01*
X737235Y78420D02*
Y159385D01*
X536575D02*
X697865D01*
Y78420D02*
Y159385D01*
X536575Y78420D02*
Y159385D01*
X302205D02*
X463495D01*
Y78420D02*
Y159385D01*
X302205Y78420D02*
Y159385D01*
X97155D02*
X258445D01*
Y78420D02*
Y159385D01*
X97155Y78420D02*
Y159385D01*
X754054Y294050D02*
X776054D01*
X754107Y315627D02*
X776107D01*
D13*
X1825Y374142D02*
X146697Y374142D01*
X1825Y374142D02*
X1825Y464058D01*
X146697Y464058D01*
X146697Y374142D02*
X146697Y464058D01*
D14*
X758444Y949198D02*
X768096D01*
X786892Y859282D02*
X796036D01*
X758444Y948690D02*
X768096D01*
X756920Y885190D02*
X764540D01*
X748284Y942086D02*
X749300D01*
X758444Y946150D02*
X767588D01*
X786892Y858266D02*
X795020D01*
X761492Y848614D02*
X799592D01*
X752856Y949706D02*
X756920D01*
X786892Y859790D02*
X796036D01*
X786384Y857758D02*
X795020D01*
X787908Y858774D02*
X795528D01*
X758444Y947674D02*
X761492D01*
X752348Y947166D02*
X756412D01*
X758444D02*
X768096D01*
X747776Y908558D02*
X748792D01*
X755396Y947674D02*
X756920D01*
X757936Y949706D02*
X767588D01*
X758444Y946658D02*
X767588D01*
X764540Y947674D02*
X768096D01*
X765048Y948182D02*
X768096D01*
X755396Y925830D02*
X770128D01*
X749808Y889762D02*
X750316D01*
X758444Y948182D02*
X761492D01*
X754380Y944626D02*
X756920D01*
X754380Y933450D02*
X770128D01*
X754380Y931418D02*
X761492D01*
X758444Y950214D02*
X766572D01*
X754380Y932942D02*
X770128D01*
X758444Y945642D02*
X766064D01*
X751332Y941070D02*
X758444D01*
Y945134D02*
X761492D01*
X762508Y931926D02*
X770128D01*
X762508Y931418D02*
X770128D01*
X754380Y931926D02*
X761492D01*
X762508Y930402D02*
X770128D01*
X762508Y929894D02*
X770128D01*
X754380Y923290D02*
X770128D01*
X758444Y943610D02*
X762508D01*
X758444Y944626D02*
X761492D01*
X754380Y922782D02*
X770128D01*
X754380Y922274D02*
X770128D01*
X754380Y930910D02*
X757428D01*
X762508Y928370D02*
X770128D01*
X762508Y927862D02*
X770128D01*
X760984Y910590D02*
X763016D01*
X754380Y910082D02*
X756412D01*
X754380Y934466D02*
X770128D01*
X754380Y933958D02*
X770128D01*
X754380Y921766D02*
X770636D01*
X764032Y944118D02*
X767588D01*
X762508Y929386D02*
X770128D01*
X762508Y928878D02*
X770128D01*
X752348Y941578D02*
X757428D01*
X753872Y934974D02*
X770128D01*
X758444Y910082D02*
X763524D01*
X752856Y909574D02*
X756412D01*
X762508Y930910D02*
X770128D01*
X763016Y945134D02*
X766572D01*
X762508Y927354D02*
X770128D01*
X762508Y926846D02*
X770128D01*
X755904Y945134D02*
X756920D01*
X754380Y923798D02*
X770128D01*
X751332Y909066D02*
X764540D01*
X758444Y944118D02*
X761492D01*
X757936Y943102D02*
X762000D01*
X755904Y926338D02*
X770128D01*
X755904Y950214D02*
X756920D01*
X764032Y943610D02*
X768096D01*
X754380Y932434D02*
X770128D01*
X757428Y909574D02*
X764032D01*
X763524Y944626D02*
X767080D01*
X765048Y853186D02*
X768096D01*
X751332Y853694D02*
X763524D01*
X765048D02*
X768604D01*
X752348Y853186D02*
X764032D01*
X752856Y852678D02*
X768096D01*
X757936Y882650D02*
X763524D01*
X757936Y883158D02*
X764032D01*
X753364Y852170D02*
X768604D01*
X758444Y882142D02*
X763016D01*
X757428Y883666D02*
X764540D01*
X756920Y884682D02*
X764540D01*
X757428Y884174D02*
X764540D01*
X760476Y870458D02*
X763016D01*
X756412Y870966D02*
X761492D01*
X752856Y871474D02*
X759460D01*
X751332Y871982D02*
X758952D01*
X759460Y881634D02*
X762508D01*
X751332Y901446D02*
X769620D01*
X753364Y900430D02*
X769620D01*
X761492Y856742D02*
X764540D01*
X756412D02*
X759460D01*
X760984Y855218D02*
X763524D01*
X752856Y900938D02*
X769620D01*
X754888Y899922D02*
X770128D01*
X755904Y856234D02*
X759460D01*
X760984Y855726D02*
X764032D01*
X761492Y856234D02*
X764032D01*
X761492Y857250D02*
X764540D01*
X756920Y857758D02*
X759968D01*
X756412Y857250D02*
X759968D01*
X761492Y857758D02*
X764540D01*
X761492Y858266D02*
X764540D01*
X757428D02*
X759968D01*
X762000Y858774D02*
X764540D01*
X757428D02*
X759968D01*
X762000Y859282D02*
X765048D01*
X757428D02*
X759968D01*
X762000Y859790D02*
X765048D01*
X757936D02*
X760476D01*
X762000Y860298D02*
X765048D01*
X757936D02*
X760476D01*
X762508Y860806D02*
X765048D01*
X757936D02*
X760476D01*
X762508Y861314D02*
X765048D01*
X757936D02*
X760476D01*
X762508Y861822D02*
X765048D01*
X757936D02*
X760476D01*
X762508Y862330D02*
X765048D01*
X757936D02*
X760476D01*
X762508Y862838D02*
X768096D01*
X757936D02*
X760476D01*
X762508Y863346D02*
X768096D01*
X758444D02*
X760476D01*
X758444Y863854D02*
X768096D01*
X786892Y908558D02*
X789432D01*
X786892Y909066D02*
X787908D01*
X786892Y914146D02*
X787400D01*
X786384Y872998D02*
X788416D01*
X786384Y873506D02*
X788416D01*
X786384Y874014D02*
X789940D01*
X787908Y862838D02*
X789940D01*
X787908Y863346D02*
X789940D01*
X786892Y863854D02*
X789940D01*
X748284Y913130D02*
X763016D01*
X750316Y913638D02*
X786892D01*
X749808Y914146D02*
X786384D01*
X747776Y914654D02*
X787400D01*
X746760Y915162D02*
X788416D01*
X754380Y920750D02*
X779780D01*
X750824Y862330D02*
X756412D01*
X754380Y921258D02*
X771144D01*
X750316Y861314D02*
X756412D01*
X750316Y892810D02*
X762508D01*
X750824Y861822D02*
X756412D01*
X750316Y893318D02*
X762000D01*
X749808Y860298D02*
X755904D01*
X750824Y894334D02*
X760984D01*
X749808Y859790D02*
X755904D01*
X750824Y863854D02*
X756412D01*
X760984Y895858D02*
X771144D01*
X749808Y857758D02*
X754888D01*
X786892Y951738D02*
X808228D01*
X749808Y858266D02*
X755396D01*
X763016Y937006D02*
X779780D01*
X749808Y891794D02*
X752856D01*
X763016Y937514D02*
X779780D01*
X748284Y946658D02*
X756412D01*
X749808Y892302D02*
X753364D01*
X763016Y938022D02*
X779272D01*
X750824Y864362D02*
X767588D01*
X749300Y872490D02*
X757936D01*
X763524Y938530D02*
X779272D01*
X748284Y946150D02*
X756412D01*
X746760Y872998D02*
X756412D01*
X764032Y939038D02*
X778764D01*
X759968Y896366D02*
X771144D01*
X748284Y943610D02*
X756920D01*
X765048Y939546D02*
X778256D01*
X759460Y896874D02*
X771144D01*
X748284Y944118D02*
X756920D01*
X765048Y940054D02*
X778256D01*
X759460Y897382D02*
X771144D01*
X748284Y944626D02*
X751332D01*
X786892Y910590D02*
X796544D01*
X749300Y901954D02*
X769112D01*
X748284Y945134D02*
X751840D01*
X762508Y915670D02*
X776732D01*
X747776Y902462D02*
X769112D01*
X748284Y945642D02*
X756412D01*
X764540Y916178D02*
X776732D01*
X748284Y865378D02*
X767588D01*
X746760Y912622D02*
X758444D01*
X764032Y916686D02*
X777748D01*
X759968Y849122D02*
X801116D01*
X749808Y890270D02*
X750824D01*
X763524Y917194D02*
X778256D01*
X757936Y850138D02*
X783336D01*
X749808Y890778D02*
X750824D01*
X763524Y917702D02*
X778256D01*
X756412Y850646D02*
X778256D01*
X749808Y891286D02*
X751840D01*
X763016Y918210D02*
X779272D01*
X755904Y851154D02*
X778256D01*
X750316Y855218D02*
X759460D01*
X763016Y918718D02*
X779272D01*
X754888Y851662D02*
X773176D01*
X749808Y855726D02*
X759460D01*
X765048Y885698D02*
X774192D01*
X750316Y860806D02*
X756412D01*
X749808Y857250D02*
X754888D01*
X748284Y948690D02*
X756920D01*
X748284Y948182D02*
X756920D01*
X748284Y947674D02*
X753364D01*
X748284Y947166D02*
X751332D01*
X764540Y886206D02*
X774192D01*
X764032Y886714D02*
X774700D01*
X786892Y888238D02*
X791972D01*
X786892Y888746D02*
X791972D01*
X787908Y889254D02*
X792988D01*
X765048Y891794D02*
X772160D01*
X748792Y940054D02*
X761492D01*
X749808Y859282D02*
X755904D01*
X765048Y892302D02*
X772160D01*
X750824Y854202D02*
X763524D01*
X749808Y856234D02*
X755396D01*
X786384Y875030D02*
X792988D01*
X750824Y908558D02*
X765048D01*
X749808Y908050D02*
X765556D01*
X750824Y893826D02*
X761492D01*
X750824Y854710D02*
X763524D01*
X786384Y874522D02*
X791972D01*
X761492Y895350D02*
X771652D01*
X762508Y894842D02*
X771652D01*
X763016Y894334D02*
X771652D01*
X763524Y893826D02*
X771652D01*
X763524Y893318D02*
X771652D01*
X764540Y892810D02*
X772160D01*
X748284Y939546D02*
X761492D01*
X747268Y939038D02*
X762508D01*
X756920Y954786D02*
X780796D01*
X749808Y858774D02*
X755904D01*
X749300Y954278D02*
X788416D01*
X749808Y856742D02*
X754888D01*
X750824Y864870D02*
X767588D01*
X748284Y943102D02*
X756920D01*
X759460Y849630D02*
X801624D01*
X748284Y942594D02*
X756920D01*
X749808Y940562D02*
X759968D01*
X747776Y949198D02*
X756920D01*
X750824Y863346D02*
X756412D01*
X750824Y862838D02*
X756412D01*
X756920Y885698D02*
X764540D01*
X763524Y887222D02*
X770128D01*
X760984Y886714D02*
X763016D01*
X758444Y888238D02*
X759968D01*
X761492Y887730D02*
X762508D01*
X763016D02*
X768096D01*
X757428Y898906D02*
X770128D01*
X762508Y888238D02*
X767588D01*
X757428Y886206D02*
X759968D01*
X754380Y925322D02*
X770128D01*
X760984Y886206D02*
X763524D01*
X754380Y924814D02*
X770128D01*
X757428Y886714D02*
X759968D01*
X762508Y888746D02*
X767080D01*
X757428Y887222D02*
X759968D01*
X760984D02*
X763016D01*
X758952Y888746D02*
X759968D01*
X755904Y899414D02*
X770128D01*
X757936Y887730D02*
X759968D01*
X761492Y889254D02*
X766064D01*
X760984Y889762D02*
X765556D01*
X754380Y924306D02*
X770128D01*
X757428Y898398D02*
X770636D01*
X752348Y895858D02*
X758444D01*
Y897890D02*
X770636D01*
X753364Y896366D02*
X755904D01*
X751332Y895350D02*
X759460D01*
X751332Y894842D02*
X759968D01*
X755904Y892302D02*
X763016D01*
X757428Y891794D02*
X763016D01*
X758444Y891286D02*
X763524D01*
X759460Y890778D02*
X764540D01*
X760984Y890270D02*
X765048D01*
Y847598D02*
X797052D01*
X763524Y875538D02*
X778256D01*
X763524Y848106D02*
X798068D01*
X761492Y877570D02*
X796544D01*
X763016Y876046D02*
X778256D01*
X764540Y875030D02*
X777748D01*
X762000Y876554D02*
X779272D01*
X762000Y877062D02*
X779780D01*
X739140Y953262D02*
X798576D01*
X743204Y953770D02*
X794512D01*
X736600Y952754D02*
X801116D01*
X731012Y905510D02*
X767080D01*
X746760Y938530D02*
X762508D01*
X746252Y938022D02*
X762508D01*
X745744Y935990D02*
X779780D01*
X745236Y935482D02*
X770128D01*
X745744Y936498D02*
X779780D01*
X746252Y937514D02*
X762508D01*
X733044Y952246D02*
X762000D01*
X745744Y937006D02*
X762508D01*
X690880Y911606D02*
X713232D01*
X745236Y912114D02*
X756412D01*
X729488D02*
X741172D01*
X690880D02*
X713232D01*
X717296Y912622D02*
X739140D01*
X690372D02*
X713232D01*
X717804Y913130D02*
X739648D01*
X690372D02*
X713232D01*
X717804Y913638D02*
X740664D01*
X690372D02*
X713232D01*
X717804Y914146D02*
X740664D01*
X690372D02*
X713740D01*
X717804Y914654D02*
X741680D01*
X690372D02*
X713740D01*
X727456Y915162D02*
X742188D01*
X690372D02*
X713740D01*
X746252Y915670D02*
X759968D01*
X727456D02*
X742696D01*
X690372D02*
X713740D01*
X746252Y916178D02*
X759968D01*
X727456D02*
X743204D01*
X689864D02*
X714248D01*
X727456Y916686D02*
X743204D01*
X689864D02*
X714248D01*
X727456Y917194D02*
X744220D01*
X699008D02*
X714248D01*
X689864D02*
X698500D01*
X727456Y917702D02*
X744220D01*
X689864D02*
X714248D01*
X727456Y918210D02*
X736092D01*
X699008D02*
X714248D01*
X689356D02*
X698500D01*
X745236D02*
X762508D01*
X736600Y918718D02*
X762508D01*
X828548Y913638D02*
X846836D01*
X744220Y866394D02*
X762000D01*
X745744Y865886D02*
X763524D01*
X736600Y903478D02*
X768096D01*
X736600Y919226D02*
X779780D01*
X737108Y919734D02*
X779780D01*
X734060Y904494D02*
X768096D01*
X732028Y905002D02*
X767588D01*
X736600Y920242D02*
X779780D01*
X828548Y910590D02*
X846836D01*
X828548Y911098D02*
X846836D01*
X745744Y917194D02*
X761492D01*
X745236Y917702D02*
X762000D01*
X828548Y909574D02*
X846836D01*
X828548Y910082D02*
X846836D01*
X745744Y916686D02*
X760984D01*
X735584Y903986D02*
X768096D01*
X828548Y911606D02*
X846836D01*
X828548Y912114D02*
X846836D01*
X828548Y912622D02*
X846836D01*
X828548Y913130D02*
X846836D01*
X740156Y902970D02*
X768604D01*
X735584Y880110D02*
X745236D01*
X734568Y880618D02*
X744728D01*
X733552Y881126D02*
X744220D01*
X732536Y881634D02*
X743204D01*
X732028Y882142D02*
X743204D01*
X731012Y882650D02*
X742696D01*
X768604Y955294D02*
X769620D01*
X780288Y862838D02*
X784860D01*
X785368Y864362D02*
X789940D01*
X773176D02*
X776224D01*
X803148Y946658D02*
X807212D01*
X797560D02*
X801116D01*
X794512D02*
X795528D01*
X803148Y947166D02*
X806196D01*
X797052D02*
X801116D01*
X796544Y947674D02*
X801116D01*
X796544Y948182D02*
X801116D01*
X766064Y865886D02*
X768096D01*
X766572Y866394D02*
X768096D01*
X767080Y866902D02*
X768096D01*
Y867410D02*
X768604D01*
Y874014D02*
X769112D01*
X765556Y854202D02*
X769112D01*
X765556Y854710D02*
X769112D01*
X765556Y855218D02*
X769112D01*
X766064Y855726D02*
X769112D01*
X766064Y856234D02*
X769112D01*
X766064Y856742D02*
X769112D01*
X766064Y857250D02*
X769112D01*
X766064Y857758D02*
X769112D01*
X766572Y858266D02*
X769112D01*
X766572Y858774D02*
X769112D01*
X721360Y881634D02*
X725424D01*
X720852Y882142D02*
X724916D01*
X720344Y882650D02*
X724408D01*
X719836Y883158D02*
X723900D01*
X719328Y883666D02*
X723392D01*
X718820Y884174D02*
X722884D01*
X718820Y884682D02*
X722376D01*
X743204Y946658D02*
X746252D01*
X737108D02*
X741172D01*
X731012D02*
X734568D01*
X743204Y947166D02*
X746252D01*
X736600D02*
X740664D01*
X732536D02*
X735584D01*
X743712Y947674D02*
X746760D01*
X736600D02*
X740664D01*
X743712Y948182D02*
X746760D01*
X738124D02*
X740664D01*
X743712Y948690D02*
X747268D01*
X736600Y930402D02*
X739140D01*
X736600Y930910D02*
X743204D01*
X736600Y931418D02*
X743204D01*
X736600Y931926D02*
X744220D01*
X736600Y932434D02*
X744220D01*
X736092Y932942D02*
X744220D01*
X731012Y937514D02*
X744220D01*
X731520Y938022D02*
X744220D01*
X732536Y938530D02*
X743712D01*
X734568Y939038D02*
X742188D01*
X731012Y939546D02*
X732536D01*
X731012Y940054D02*
X734060D01*
X731520Y940562D02*
X735584D01*
X739648Y941070D02*
X741680D01*
X731520D02*
X734568D01*
X739648Y941578D02*
X743712D01*
X731520D02*
X734568D01*
X739648Y942086D02*
X743712D01*
X731520D02*
X734568D01*
X739140Y942594D02*
X744220D01*
X731520D02*
X734568D01*
X739140Y943102D02*
X744220D01*
X731520D02*
X734568D01*
X739140Y943610D02*
X744220D01*
X731520D02*
X734568D01*
X738124Y944118D02*
X744728D01*
X731520D02*
X734568D01*
X738124Y944626D02*
X744728D01*
X731520D02*
X734568D01*
X742696Y945134D02*
X745236D01*
X738124D02*
X741680D01*
X731520D02*
X734568D01*
X742696Y945642D02*
X745744D01*
X737616D02*
X741172D01*
X731520D02*
X734568D01*
X746252Y908050D02*
X749300D01*
X740156Y909574D02*
X746252D01*
X737108Y910082D02*
X748792D01*
X734568Y910590D02*
X750316D01*
X736600Y918210D02*
X744220D01*
X731012Y921258D02*
X735076D01*
X734060Y921766D02*
X735076D01*
X731012Y890778D02*
X739140D01*
X731012Y893318D02*
X739648D01*
X731012Y893826D02*
X739648D01*
X732028Y894334D02*
X739648D01*
X733044Y894842D02*
X739648D01*
X733044Y895350D02*
X739648D01*
X734060Y895858D02*
X739648D01*
X735076Y896366D02*
X740156D01*
X736092Y896874D02*
X740664D01*
X736600Y897382D02*
X740664D01*
X737616Y897890D02*
X740664D01*
X738632Y898398D02*
X741172D01*
X739140Y898906D02*
X741172D01*
X740664Y899414D02*
X741680D01*
X741172Y867918D02*
X749300D01*
X741172Y868426D02*
X747776D01*
X739648Y868934D02*
X744728D01*
X738124Y869442D02*
X744220D01*
X737616Y869950D02*
X744728D01*
X735584Y870458D02*
X744728D01*
X734060Y870966D02*
X742696D01*
X732536Y871474D02*
X740664D01*
X731520Y871982D02*
X739648D01*
X736600Y876554D02*
X749808D01*
X736600Y877062D02*
X749300D01*
X735584Y877570D02*
X748284D01*
X734568Y878078D02*
X747776D01*
X735076Y878586D02*
X746760D01*
X735584Y879094D02*
X746252D01*
X735584Y879602D02*
X745744D01*
X707644Y939546D02*
X710692D01*
X707644Y939038D02*
X710692D01*
X707644Y938530D02*
X710692D01*
X707644Y938022D02*
X710692D01*
X707644Y937514D02*
X710692D01*
X707644Y937006D02*
X710692D01*
X730504D02*
X744220D01*
X707644Y936498D02*
X715772D01*
X729488D02*
X744220D01*
X707644Y935990D02*
X715264D01*
X729488D02*
X744220D01*
X707644Y935482D02*
X714248D01*
X728980D02*
X744220D01*
X708152Y934974D02*
X712724D01*
X728472D02*
X744220D01*
X744728D02*
X752856D01*
X708152Y934466D02*
X712216D01*
X727964D02*
X744220D01*
X744728D02*
X752856D01*
X727964Y933958D02*
X744220D01*
X744728D02*
X752856D01*
X727456Y933450D02*
X744220D01*
X744728D02*
X752856D01*
X710184Y932942D02*
X716788D01*
X727456D02*
X735584D01*
X744728D02*
X752856D01*
X709168Y932434D02*
X716788D01*
X727456D02*
X735076D01*
X744728D02*
X752856D01*
X709168Y931926D02*
X716788D01*
X727456D02*
X735076D01*
X744728D02*
X752856D01*
X708152Y931418D02*
X716788D01*
X726948D02*
X735076D01*
X744728D02*
X752856D01*
X708152Y930910D02*
X716788D01*
X726948D02*
X735584D01*
X744728D02*
X752856D01*
X688848Y930402D02*
X697484D01*
X708152D02*
X716788D01*
X726948D02*
X736092D01*
X744728D02*
X752856D01*
X687324Y929894D02*
X695452D01*
X708152D02*
X716788D01*
X726948D02*
X738124D01*
X744728D02*
X752856D01*
X685800Y929386D02*
X693928D01*
X708152D02*
X716280D01*
X726948D02*
X741172D01*
X744728D02*
X752856D01*
X685292Y928878D02*
X692912D01*
X708152D02*
X716280D01*
X726948D02*
X741680D01*
X744728D02*
X752856D01*
X683768Y928370D02*
X691388D01*
X708152D02*
X716280D01*
X726948D02*
X742696D01*
X744728D02*
X752856D01*
X682752Y927862D02*
X689864D01*
X708152D02*
X715772D01*
X726948D02*
X743712D01*
X744728D02*
X752856D01*
X708152Y927354D02*
X715772D01*
X726948D02*
X744220D01*
X744728D02*
X752856D01*
X708152Y926846D02*
X715772D01*
X727456D02*
X744220D01*
X744728D02*
X752856D01*
X708152Y926338D02*
X715772D01*
X727456D02*
X744220D01*
X744728D02*
X752856D01*
X729488Y951738D02*
X750824D01*
X727964Y951230D02*
X747776D01*
X724916Y950722D02*
X742188D01*
X722884Y950214D02*
X738124D01*
X720852Y949706D02*
X736092D01*
X718820Y949198D02*
X732536D01*
X702564Y947166D02*
X721868D01*
X702564Y946658D02*
X719836D01*
X850392Y905510D02*
X852932D01*
X851916Y925830D02*
X854964D01*
X777748Y905510D02*
X803148D01*
X811784D02*
X821944D01*
X828040D02*
X836168D01*
X766064Y885190D02*
X773684D01*
X790448D02*
X798068D01*
X809244D02*
X817880D01*
X770636Y946150D02*
X779272D01*
X788924D02*
X791972D01*
X818896D02*
X836676D01*
X781304Y925830D02*
X798576D01*
X800608D02*
X813308D01*
X828040D02*
X837692D01*
X703580Y905510D02*
X712216D01*
X728472Y885190D02*
X741172D01*
X702564Y946150D02*
X718820D01*
X708660Y925830D02*
X715264D01*
X828548Y919226D02*
X846836D01*
X828548Y919734D02*
X847344D01*
X828548Y920242D02*
X847344D01*
X727456Y925830D02*
X752856D01*
X828548Y918718D02*
X846836D01*
X828548Y918210D02*
X846836D01*
X828548Y914146D02*
X846836D01*
X828548Y914654D02*
X846836D01*
X828548Y917194D02*
X846836D01*
X828548Y915670D02*
X846836D01*
X828548Y917702D02*
X846836D01*
X828548Y915162D02*
X846836D01*
X828548Y916178D02*
X846836D01*
X828548Y916686D02*
X846836D01*
X707136Y940054D02*
X710692D01*
X707136Y940562D02*
X710692D01*
X708152Y941070D02*
X711200D01*
X709168Y941578D02*
X711200D01*
X702564Y944626D02*
X712216D01*
X702564Y945134D02*
X713232D01*
X702564Y945642D02*
X716280D01*
X703580Y906018D02*
X712216D01*
X703580Y906526D02*
X712724D01*
X703580Y907034D02*
X712724D01*
X727964Y907542D02*
X741680D01*
X703580D02*
X712724D01*
X727456Y908050D02*
X737108D01*
X703072D02*
X712724D01*
X726440Y908558D02*
X735076D01*
X703072D02*
X712724D01*
X726440Y909066D02*
X734060D01*
X703072D02*
X712724D01*
X725932Y909574D02*
X732536D01*
X703072D02*
X712724D01*
X725932Y910082D02*
X730504D01*
X703072D02*
X712724D01*
X703072Y910590D02*
X713232D01*
X734060Y911098D02*
X751332D01*
X703072D02*
X713232D01*
X732028Y911606D02*
X753872D01*
X790448Y892302D02*
X795528D01*
X808736Y892810D02*
X816356D01*
X790956D02*
X796544D01*
X808736Y893318D02*
X814832D01*
X791464D02*
X800100D01*
X808228Y893826D02*
X814832D01*
X808228Y894334D02*
X813308D01*
X807720Y894842D02*
X812800D01*
X807720Y895350D02*
X811784D01*
X830580Y896366D02*
X839724D01*
X806704D02*
X811784D01*
X781812D02*
X791464D01*
X828548Y896874D02*
X838200D01*
X806196D02*
X812292D01*
X781812D02*
X791464D01*
X828040Y897382D02*
X837184D01*
X806196D02*
X812292D01*
X781812D02*
X791464D01*
X825500Y897890D02*
X835660D01*
X781304D02*
X791972D01*
X823468Y898398D02*
X833628D01*
X781304D02*
X792480D01*
X822452Y898906D02*
X833120D01*
X781304D02*
X792988D01*
X781304Y899414D02*
X792988D01*
X780796Y899922D02*
X793496D01*
X811784Y900430D02*
X818896D01*
X780288D02*
X794512D01*
X811276Y900938D02*
X818388D01*
X780288D02*
X794512D01*
X832104Y901446D02*
X836168D01*
X809752D02*
X816864D01*
X780288D02*
X795020D01*
X830072Y901954D02*
X836168D01*
X809752D02*
X815340D01*
X779780D02*
X796036D01*
X829056Y902462D02*
X836168D01*
X810260D02*
X814832D01*
X779780D02*
X796544D01*
X828040Y902970D02*
X836168D01*
X810260D02*
X813308D01*
X779272D02*
X797560D01*
X828040Y903478D02*
X836168D01*
X810768D02*
X813816D01*
X779272D02*
X798576D01*
X828040Y903986D02*
X836168D01*
X810768D02*
X813816D01*
X779272D02*
X799084D01*
X828040Y904494D02*
X836168D01*
X811276D02*
X813816D01*
X778764D02*
X800608D01*
X828040Y905002D02*
X836168D01*
X811276D02*
X824484D01*
X778256D02*
X802132D01*
X800100Y868934D02*
X812800D01*
X802132Y869442D02*
X813816D01*
X803656Y869950D02*
X814324D01*
X807212Y870458D02*
X815340D01*
X809752Y870966D02*
X816356D01*
X811784Y871474D02*
X816864D01*
X791464D02*
X791972D01*
X791464Y871982D02*
X791972D01*
X811784Y873506D02*
X816356D01*
X811784Y874014D02*
X817372D01*
X769620D02*
X777748D01*
X765556Y874522D02*
X777748D01*
X785876Y875538D02*
X794512D01*
X785368Y876046D02*
X795020D01*
X784352Y876554D02*
X796036D01*
X783336Y877062D02*
X796036D01*
X805180Y878078D02*
X812800D01*
X766572D02*
X791464D01*
X805688Y878586D02*
X812800D01*
X766572D02*
X791464D01*
X806196Y879094D02*
X813816D01*
X766572D02*
X789432D01*
X806704Y879602D02*
X814832D01*
X770128D02*
X787908D01*
X806704Y880110D02*
X815340D01*
X771144D02*
X787400D01*
X807212Y880618D02*
X815848D01*
X807720Y881126D02*
X816864D01*
X807720Y881634D02*
X816864D01*
X808228Y882142D02*
X816356D01*
X808228Y882650D02*
X815848D01*
X791464D02*
X797052D01*
X808736Y883158D02*
X815340D01*
X790956D02*
X797052D01*
X808736Y883666D02*
X815848D01*
X790956D02*
X797560D01*
X768604D02*
X771652D01*
X808736Y884174D02*
X816864D01*
X790448D02*
X798068D01*
X767588D02*
X772668D01*
X809244Y884682D02*
X817372D01*
X790448D02*
X798068D01*
X766572D02*
X773176D01*
X770636Y846582D02*
X792988D01*
X767588Y847090D02*
X795528D01*
X784352Y850138D02*
X802640D01*
X789432Y850646D02*
X803656D01*
X789432Y851154D02*
X803656D01*
X789432Y851662D02*
X804672D01*
X789432Y852170D02*
X792480D01*
X769620D02*
X773176D01*
X788924Y852678D02*
X791972D01*
X770128D02*
X773176D01*
X788924Y853186D02*
X791972D01*
X770128D02*
X773176D01*
X788924Y853694D02*
X791972D01*
X770128D02*
X773176D01*
X788416Y854202D02*
X791464D01*
X770636D02*
X773176D01*
X788416Y854710D02*
X791464D01*
X770636D02*
X773684D01*
X788416Y855218D02*
X791464D01*
X770636D02*
X773684D01*
X775208Y855726D02*
X791464D01*
X771144D02*
X773684D01*
X775208Y856234D02*
X791464D01*
X771144D02*
X773684D01*
X775208Y856742D02*
X791972D01*
X771144D02*
X773684D01*
X784352Y857250D02*
X795020D01*
X771144D02*
X773684D01*
X771144Y857758D02*
X779272D01*
X771144Y858266D02*
X778256D01*
X770636Y858774D02*
X776732D01*
X766572Y859282D02*
X775716D01*
X766572Y859790D02*
X775208D01*
X766572Y860298D02*
X774700D01*
X766572Y860806D02*
X774700D01*
X766064Y861314D02*
X774700D01*
X851408Y926338D02*
X854964D01*
X849884Y926846D02*
X854964D01*
X848360Y927354D02*
X854964D01*
X847344Y927862D02*
X854964D01*
X846328Y928370D02*
X853948D01*
X844804Y928878D02*
X852424D01*
X850392Y906018D02*
X852932D01*
X850392Y906526D02*
X852932D01*
X850392Y907034D02*
X852932D01*
X850392Y907542D02*
X852932D01*
X850392Y908050D02*
X852932D01*
X850392Y908558D02*
X852932D01*
X850392Y909066D02*
X852932D01*
X850392Y909574D02*
X852932D01*
X850392Y910082D02*
X852932D01*
X850392Y910590D02*
X852932D01*
X850392Y911098D02*
X852932D01*
X850392Y911606D02*
X852932D01*
X850392Y912114D02*
X852932D01*
X850392Y912622D02*
X852932D01*
X850392Y913130D02*
X852932D01*
X850392Y913638D02*
X852932D01*
X850392Y914146D02*
X852932D01*
X850392Y914654D02*
X852932D01*
X850392Y915162D02*
X852932D01*
X850392Y915670D02*
X853440D01*
X850392Y916178D02*
X853948D01*
X850392Y916686D02*
X854456D01*
X718312Y885190D02*
X721868D01*
X726440Y905510D02*
X727456D01*
X716280D02*
X722884D01*
X743204Y946150D02*
X745744D01*
X737108D02*
X741172D01*
X731012D02*
X734568D01*
X772160Y925830D02*
X780288D01*
X781304Y946150D02*
X784352D01*
Y864870D02*
X789432D01*
X772668D02*
X777748D01*
X784352Y885190D02*
X788416D01*
X803148Y946150D02*
X807212D01*
X798068D02*
X801624D01*
X800100Y864870D02*
X806196D01*
X793496D02*
X798068D01*
X806704Y905510D02*
X809244D01*
X817880Y925830D02*
X825500D01*
X821944Y885190D02*
X825500D01*
X839216Y925830D02*
X845312D01*
X836676Y905510D02*
X846836D01*
X682752Y926338D02*
X686308D01*
X682752Y926846D02*
X687832D01*
X682752Y927354D02*
X689356D01*
X686308Y906018D02*
X689356D01*
X686308Y906526D02*
X689356D01*
X686308Y907034D02*
X689356D01*
X686308Y907542D02*
X689356D01*
X686308Y908050D02*
X689356D01*
X686308Y908558D02*
X689356D01*
X685800Y909066D02*
X688848D01*
X685800Y909574D02*
X688848D01*
X685800Y910082D02*
X688848D01*
X685800Y910590D02*
X688848D01*
X685800Y911098D02*
X688848D01*
X685800Y911606D02*
X688848D01*
X685800Y912114D02*
X688340D01*
X685292Y912622D02*
X688340D01*
X685292Y913130D02*
X688340D01*
X685292Y913638D02*
X687832D01*
X685292Y914146D02*
X687832D01*
X684784Y914654D02*
X687832D01*
X684276Y915162D02*
X687832D01*
X683768Y915670D02*
X687324D01*
X683260Y916178D02*
X687324D01*
X682752Y916686D02*
X686816D01*
X682752Y917194D02*
X686308D01*
X682752Y917702D02*
X685800D01*
X682752Y918210D02*
X685800D01*
X682752Y918718D02*
X685800D01*
X682752Y919226D02*
X685800D01*
X682752Y919734D02*
X685800D01*
X682752Y920242D02*
X685800D01*
X682752Y920750D02*
X685800D01*
X682752Y921258D02*
X685800D01*
X682752Y921766D02*
X685800D01*
X682752Y922274D02*
X685800D01*
X682752Y922782D02*
X685800D01*
X682752Y923290D02*
X685800D01*
X682752Y923798D02*
X685800D01*
X682752Y924306D02*
X685800D01*
X682752Y924814D02*
X685800D01*
X682752Y925322D02*
X685800D01*
X699516Y926338D02*
X707644D01*
X692404D02*
X699008D01*
X699516Y926846D02*
X707644D01*
X693928D02*
X699008D01*
X699516Y927354D02*
X707644D01*
X695452D02*
X699008D01*
X699516Y927862D02*
X707644D01*
X696468D02*
X699008D01*
X699516Y928370D02*
X707644D01*
X697992D02*
X699008D01*
X700024Y928878D02*
X707644D01*
X700024Y929386D02*
X707644D01*
X702056Y929894D02*
X707644D01*
X703072Y930402D02*
X707644D01*
X705104Y930910D02*
X707644D01*
X690372D02*
X699008D01*
X706120Y931418D02*
X707644D01*
X691388D02*
X700024D01*
X692912Y931926D02*
X701548D01*
X694436Y932434D02*
X703072D01*
X695452Y932942D02*
X704088D01*
X696976Y933450D02*
X705104D01*
X698500Y933958D02*
X705104D01*
X700532Y934466D02*
X705104D01*
X701548Y934974D02*
X705104D01*
X702564Y935482D02*
X705104D01*
X702564Y935990D02*
X705104D01*
X702564Y936498D02*
X705104D01*
X702564Y937006D02*
X705104D01*
X702564Y937514D02*
X705104D01*
X702564Y938022D02*
X705104D01*
X702564Y938530D02*
X705104D01*
X702564Y939038D02*
X705104D01*
X702564Y939546D02*
X705104D01*
X702564Y940054D02*
X705104D01*
X702564Y940562D02*
X705104D01*
X702564Y941070D02*
X705104D01*
X702564Y941578D02*
X705104D01*
X702564Y942086D02*
X705104D01*
X702564Y942594D02*
X705104D01*
X702564Y943102D02*
X705104D01*
X702564Y943610D02*
X705104D01*
X702564Y944118D02*
X705104D01*
X691388Y906018D02*
X701548D01*
X691388Y906526D02*
X701548D01*
X691388Y907034D02*
X702056D01*
X691388Y907542D02*
X702056D01*
X691388Y908050D02*
X702056D01*
X691388Y908558D02*
X702056D01*
X691388Y909066D02*
X702056D01*
X690880Y909574D02*
X702056D01*
X690880Y910082D02*
X702056D01*
X690880Y910590D02*
X702056D01*
X690880Y911098D02*
X702564D01*
X699516Y919734D02*
X708152D01*
X699516Y920242D02*
X708152D01*
X699516Y920750D02*
X708152D01*
X699516Y921258D02*
X708152D01*
X699516Y921766D02*
X708152D01*
X699516Y922274D02*
X707644D01*
X699516Y922782D02*
X707644D01*
X699516Y923290D02*
X707644D01*
X699516Y923798D02*
X707644D01*
X699516Y924306D02*
X707644D01*
X699516Y924814D02*
X707644D01*
X699516Y925322D02*
X707644D01*
X690372D02*
X699008D01*
X692404Y894334D02*
X700532D01*
X693928Y894842D02*
X702564D01*
X694436Y895350D02*
X703072D01*
X695960Y895858D02*
X705104D01*
X697992Y896366D02*
X707136D01*
X699516Y896874D02*
X709168D01*
X700532Y897382D02*
X709676D01*
X692912D02*
X693928D01*
X692912Y897890D02*
X694944D01*
X692912Y898398D02*
X696468D01*
X692912Y898906D02*
X697484D01*
X692912Y899414D02*
X699008D01*
X692404Y899922D02*
X700024D01*
X692404Y900430D02*
X700532D01*
X692404Y900938D02*
X700532D01*
X692404Y901446D02*
X700532D01*
X704088Y901954D02*
X706120D01*
X692404D02*
X701040D01*
X704088Y902462D02*
X707644D01*
X692404D02*
X701040D01*
X704088Y902970D02*
X709168D01*
X692404D02*
X701040D01*
X691896Y903478D02*
X701040D01*
X691896Y903986D02*
X701040D01*
X691896Y904494D02*
X701040D01*
X691896Y905002D02*
X701040D01*
X712216Y947674D02*
X724408D01*
X713232Y948182D02*
X725932D01*
X715772Y948690D02*
X729488D01*
X717804Y926338D02*
X725932D01*
X717804Y926846D02*
X725932D01*
X717804Y927354D02*
X725932D01*
X717804Y927862D02*
X725932D01*
X717804Y928370D02*
X725932D01*
X717804Y928878D02*
X725932D01*
X717296Y929386D02*
X725932D01*
X717296Y929894D02*
X725932D01*
X717296Y930402D02*
X725932D01*
X717296Y930910D02*
X725932D01*
X717296Y931418D02*
X725932D01*
X717296Y931926D02*
X726440D01*
X717296Y932434D02*
X726440D01*
X717296Y932942D02*
X726440D01*
X717296Y933450D02*
X726440D01*
X712216D02*
X716788D01*
X714248Y933958D02*
X726440D01*
X718312Y934466D02*
X726440D01*
X715772D02*
X717296D01*
X718312Y934974D02*
X726440D01*
X719836Y935482D02*
X726440D01*
X722376Y935990D02*
X726440D01*
X723900Y936498D02*
X726440D01*
X719328Y937006D02*
X720344D01*
X712216D02*
X716280D01*
X719328Y937514D02*
X722884D01*
X713232D02*
X716788D01*
X719328Y938022D02*
X722884D01*
X713740D02*
X717296D01*
X725932Y938530D02*
X726440D01*
X719328D02*
X722376D01*
X714248D02*
X717296D01*
X725932Y939038D02*
X729488D01*
X719328D02*
X722376D01*
X714248D02*
X717296D01*
X724916Y939546D02*
X729996D01*
X719328D02*
X722376D01*
X714248D02*
X717296D01*
X724916Y940054D02*
X729488D01*
X719328D02*
X722376D01*
X714248D02*
X717296D01*
X723900Y940562D02*
X729488D01*
X719328D02*
X722376D01*
X714248D02*
X717296D01*
X722884Y941070D02*
X729488D01*
X719328D02*
X722376D01*
X714248D02*
X717296D01*
X719328Y941578D02*
X729488D01*
X714248D02*
X717296D01*
X719328Y942086D02*
X729488D01*
X713232D02*
X717296D01*
X726440Y942594D02*
X729488D01*
X719328D02*
X725932D01*
X713740D02*
X717296D01*
X726440Y943102D02*
X729488D01*
X719328D02*
X725932D01*
X714756D02*
X717804D01*
X726440Y943610D02*
X729488D01*
X719328D02*
X724408D01*
X717296D02*
X717804D01*
X726440Y944118D02*
X729488D01*
X719328D02*
X723900D01*
X726440Y944626D02*
X729488D01*
X721360D02*
X723900D01*
X726440Y945134D02*
X729488D01*
X722884D02*
X723900D01*
X725932Y945642D02*
X729488D01*
X726440Y906018D02*
X727456D01*
X716788D02*
X722884D01*
X726440Y906526D02*
X726948D01*
X719328D02*
X722884D01*
X719836Y907034D02*
X722376D01*
X719836Y907542D02*
X722376D01*
X719836Y908050D02*
X722376D01*
X717296D02*
X717804D01*
X717296Y908558D02*
X722884D01*
X717296Y909066D02*
X722884D01*
X717296Y909574D02*
X722884D01*
X717296Y910082D02*
X722884D01*
X717296Y910590D02*
X723900D01*
X717296Y911098D02*
X723900D01*
X717296Y911606D02*
X724916D01*
X717296Y912114D02*
X727456D01*
X717804Y915162D02*
X726440D01*
X717804Y915670D02*
X726440D01*
X717804Y916178D02*
X726440D01*
X717804Y916686D02*
X725932D01*
X717804Y917194D02*
X725932D01*
X717804Y917702D02*
X725932D01*
X717804Y918210D02*
X725932D01*
X717804Y918718D02*
X725932D01*
X717804Y919226D02*
X725932D01*
X717804Y919734D02*
X725932D01*
X717804Y920242D02*
X725932D01*
X717804Y920750D02*
X725932D01*
X717804Y921258D02*
X725932D01*
X717804Y921766D02*
X725932D01*
X717804Y922274D02*
X725932D01*
X717804Y922782D02*
X725932D01*
X717804Y923290D02*
X725932D01*
X717804Y923798D02*
X725932D01*
X717804Y924306D02*
X725932D01*
X717804Y924814D02*
X725932D01*
X717804Y925322D02*
X725932D01*
X717804Y885698D02*
X721360D01*
X717296Y886206D02*
X720852D01*
X717296Y886714D02*
X721360D01*
X717804Y887222D02*
X721868D01*
X718312Y887730D02*
X722884D01*
X718820Y888238D02*
X723392D01*
X719328Y888746D02*
X723900D01*
X719836Y889254D02*
X724916D01*
X720852Y889762D02*
X724916D01*
X720852Y890270D02*
X724408D01*
X720344Y890778D02*
X723900D01*
X719836Y891286D02*
X723392D01*
X719328Y891794D02*
X722884D01*
X719328Y892302D02*
X722884D01*
X719328Y892810D02*
X723900D01*
X719836Y893318D02*
X724408D01*
X720344Y893826D02*
X724916D01*
X720852Y894334D02*
X725424D01*
X721360Y894842D02*
X725932D01*
X722376Y895350D02*
X726440D01*
X722884Y895858D02*
X727456D01*
X723392Y896366D02*
X727456D01*
X723900Y896874D02*
X727456D01*
X723900Y897382D02*
X726948D01*
X722884Y897890D02*
X726440D01*
X722884Y898398D02*
X725932D01*
X722376Y898906D02*
X725932D01*
X722376Y899414D02*
X725424D01*
X721868Y899922D02*
X724916D01*
X721360Y900430D02*
X724408D01*
X711200D02*
X719328D01*
X721360Y900938D02*
X724408D01*
X712216D02*
X719328D01*
X720852Y901446D02*
X724408D01*
X714248D02*
X719328D01*
X720852Y901954D02*
X723900D01*
X716280D02*
X719328D01*
X720852Y902462D02*
X723900D01*
X716788D02*
X719328D01*
X720852Y902970D02*
X723900D01*
X716788D02*
X719328D01*
X726948Y903478D02*
X729996D01*
X720344D02*
X723392D01*
X716788D02*
X719328D01*
X726948Y903986D02*
X729488D01*
X716788D02*
X722884D01*
X726440Y904494D02*
X728980D01*
X716788D02*
X722884D01*
X726440Y905002D02*
X727964D01*
X716788D02*
X722884D01*
X724916Y876046D02*
X729488D01*
X725932Y876554D02*
X729488D01*
X725932Y877062D02*
X729488D01*
X726440Y877570D02*
X729996D01*
X725424Y878586D02*
X729996D01*
X724408Y879094D02*
X729488D01*
X723900Y879602D02*
X728472D01*
X723392Y880110D02*
X727964D01*
X722376Y880618D02*
X727456D01*
X721868Y881126D02*
X726440D01*
X727456Y918718D02*
X735584D01*
X699008D02*
X714248D01*
X688848D02*
X698500D01*
X727456Y919226D02*
X735584D01*
X699008D02*
X714248D01*
X688848D02*
X698500D01*
X727456Y919734D02*
X735584D01*
X708660D02*
X714248D01*
X688848D02*
X698500D01*
X728472Y920242D02*
X735076D01*
X708660D02*
X714756D01*
X688848D02*
X698500D01*
X736600Y920750D02*
X752856D01*
X728980D02*
X735076D01*
X708660D02*
X714756D01*
X688848D02*
X698500D01*
X736600Y921258D02*
X752856D01*
X708660D02*
X714756D01*
X688848D02*
X697992D01*
X736092Y921766D02*
X752856D01*
X708660D02*
X714756D01*
X688848D02*
X697992D01*
X733044Y922274D02*
X752856D01*
X708660D02*
X714756D01*
X688848D02*
X697992D01*
X731520Y922782D02*
X752856D01*
X708660D02*
X714756D01*
X688848D02*
X697992D01*
X729996Y923290D02*
X752856D01*
X709168D02*
X714756D01*
X688848D02*
X698500D01*
X728980Y923798D02*
X752856D01*
X709168D02*
X714756D01*
X688848D02*
X699008D01*
X728980Y924306D02*
X752856D01*
X709168D02*
X714756D01*
X689356D02*
X699008D01*
X727964Y924814D02*
X752856D01*
X709168D02*
X715264D01*
X689356D02*
X699008D01*
X727456Y925322D02*
X752856D01*
X709168D02*
X715264D01*
X727964Y885698D02*
X740664D01*
X727456Y886206D02*
X740664D01*
X727456Y886714D02*
X740156D01*
X727964Y887222D02*
X740156D01*
X727964Y887730D02*
X739648D01*
X728980Y888238D02*
X739648D01*
X728980Y888746D02*
X739648D01*
X729488Y889254D02*
X739648D01*
X729996Y889762D02*
X739648D01*
X730504Y890270D02*
X739648D01*
X689356Y890778D02*
X690880D01*
X730504Y891286D02*
X739140D01*
X689356D02*
X692404D01*
X729488Y891794D02*
X739140D01*
X689356D02*
X693928D01*
X729488Y892302D02*
X739140D01*
X689356D02*
X694944D01*
X766064Y861822D02*
X769620D01*
X765556Y862330D02*
X769112D01*
X781304Y946658D02*
X784352D01*
X785876Y947166D02*
X786384D01*
X781304D02*
X784352D01*
X781304Y947674D02*
X784352D01*
X777748D02*
X778256D01*
X781304Y948182D02*
X784352D01*
X777240D02*
X778256D01*
X781304Y948690D02*
X784352D01*
X781304Y949198D02*
X784860D01*
X785368Y949706D02*
X786384D01*
X780796D02*
X784860D01*
X778764D02*
X779272D01*
X785368Y950214D02*
X786384D01*
X771652D02*
X777240D01*
X772160Y926338D02*
X780288D01*
X772160Y926846D02*
X780288D01*
X772160Y927354D02*
X780288D01*
X772160Y927862D02*
X780288D01*
X772160Y928370D02*
X780288D01*
X772160Y928878D02*
X780288D01*
X772160Y929386D02*
X780288D01*
X772160Y929894D02*
X780288D01*
X772160Y930402D02*
X780288D01*
X772160Y930910D02*
X780288D01*
X772160Y931418D02*
X780288D01*
X772160Y931926D02*
X780288D01*
X772160Y932434D02*
X780288D01*
X772160Y932942D02*
X780288D01*
X772160Y933450D02*
X780288D01*
X772160Y933958D02*
X780288D01*
X781304Y934466D02*
X790956D01*
X771652D02*
X780288D01*
X781304Y934974D02*
X790956D01*
X771652D02*
X780288D01*
X780796Y935482D02*
X790956D01*
X771652D02*
X780288D01*
Y935990D02*
X790956D01*
X780288Y936498D02*
X790448D01*
X780288Y937006D02*
X790448D01*
X780288Y937514D02*
X789940D01*
X780288Y938022D02*
X789940D01*
X780288Y938530D02*
X789940D01*
X780288Y939038D02*
X789432D01*
X780288Y939546D02*
X789432D01*
X780288Y940054D02*
X789432D01*
X781304Y940562D02*
X788924D01*
X781304Y941070D02*
X782828D01*
Y942594D02*
X784860D01*
X781304D02*
X782320D01*
X780796Y943102D02*
X784860D01*
X773684D02*
X775716D01*
X781304Y943610D02*
X784352D01*
X781304Y944118D02*
X784352D01*
X781304Y944626D02*
X784352D01*
X781304Y945134D02*
X784352D01*
X781304Y945642D02*
X784352D01*
X775208D02*
X779780D01*
X775716Y908558D02*
X785876D01*
X775208Y909066D02*
X785368D01*
X775208Y909574D02*
X783844D01*
X779780Y910082D02*
X782320D01*
X774700D02*
X778256D01*
X779780Y910590D02*
X780288D01*
X774192D02*
X776224D01*
X773684Y911098D02*
X774700D01*
X775208Y913130D02*
X789432D01*
X780288Y915670D02*
X788416D01*
X780288Y916178D02*
X788416D01*
X780288Y916686D02*
X788416D01*
X780288Y917194D02*
X788416D01*
X780288Y917702D02*
X788416D01*
X780288Y918210D02*
X788416D01*
X780288Y918718D02*
X788416D01*
X780288Y919226D02*
X788416D01*
X780796Y919734D02*
X787908D01*
X781304Y920242D02*
X787908D01*
X781304Y920750D02*
X787908D01*
X781304Y921258D02*
X787908D01*
X771652D02*
X780288D01*
X772160Y921766D02*
X780288D01*
X772160Y922274D02*
X780288D01*
X772160Y922782D02*
X780288D01*
X772160Y923290D02*
X780288D01*
X772160Y923798D02*
X780288D01*
X772160Y924306D02*
X780288D01*
X772160Y924814D02*
X780288D01*
X772160Y925322D02*
X780288D01*
X783336Y885698D02*
X789432D01*
X782828Y886206D02*
X789940D01*
X782320Y886714D02*
X790956D01*
X782320Y887222D02*
X790956D01*
X772160D02*
X774700D01*
X773684Y887730D02*
X774700D01*
X781812Y888238D02*
X783336D01*
X774192D02*
X774700D01*
X781812Y888746D02*
X782828D01*
X783844Y889254D02*
X785368D01*
X781812D02*
X782320D01*
X783336Y889762D02*
X786892D01*
X783336Y890270D02*
X786892D01*
X783336Y890778D02*
X787908D01*
X783336Y891286D02*
X788416D01*
X783336Y891794D02*
X788416D01*
X782828Y892302D02*
X788924D01*
X782828Y892810D02*
X789432D01*
X782828Y893318D02*
X789940D01*
X782828Y893826D02*
X789940D01*
X782828Y894334D02*
X789940D01*
X782320Y894842D02*
X790448D01*
X782320Y895350D02*
X790956D01*
X782320Y895858D02*
X790956D01*
X772668Y865378D02*
X788924D01*
X772668Y865886D02*
X787908D01*
X772668Y866394D02*
X787908D01*
X773176Y866902D02*
X786384D01*
X774192Y867410D02*
X784860D01*
X776732Y867918D02*
X781812D01*
Y869442D02*
X784860D01*
X780288Y869950D02*
X785368D01*
X779272Y870458D02*
X786384D01*
X777748Y870966D02*
X786892D01*
X776732Y871474D02*
X787400D01*
X776224Y871982D02*
X787908D01*
X775208Y872490D02*
X787908D01*
X774700Y872998D02*
X785368D01*
X773684Y873506D02*
X785368D01*
X783844Y874014D02*
X785368D01*
X778764D02*
X780796D01*
X784352Y874522D02*
X784860D01*
X779272D02*
X780288D01*
X784352Y875030D02*
X784860D01*
X779272D02*
X779780D01*
X772160Y880618D02*
X787400D01*
X771652Y881126D02*
X786892D01*
X773176Y881634D02*
X786384D01*
X773176Y882142D02*
X785368D01*
X774700Y882650D02*
X783844D01*
X776732Y883158D02*
X780796D01*
X784352Y884682D02*
X787908D01*
X779272Y845566D02*
X785368D01*
X775208Y846074D02*
X788416D01*
X784860Y850646D02*
X787908D01*
X779272D02*
X782828D01*
X784860Y851154D02*
X787908D01*
X779780D02*
X782828D01*
X784352Y851662D02*
X787908D01*
X779780D02*
X782828D01*
X774700D02*
X777748D01*
X784352Y852170D02*
X787400D01*
X779780D02*
X782828D01*
X774700D02*
X778256D01*
X784352Y852678D02*
X787400D01*
X779780D02*
X782828D01*
X774700D02*
X778256D01*
X784352Y853186D02*
X787400D01*
X779780D02*
X782828D01*
X775208D02*
X777748D01*
X784352Y853694D02*
X786892D01*
X779780D02*
X782828D01*
X775208D02*
X778256D01*
X784352Y854202D02*
X786892D01*
X779780D02*
X782828D01*
X775208D02*
X778256D01*
X779780Y854710D02*
X786892D01*
X775208D02*
X778256D01*
X775208Y855218D02*
X787400D01*
X774700Y857250D02*
X781304D01*
X785876Y860298D02*
X789940D01*
X784860Y860806D02*
X788924D01*
X784352Y861314D02*
X788416D01*
X781812Y861822D02*
X787400D01*
X773176D02*
X774700D01*
X778764Y862330D02*
X786384D01*
X774700D02*
X775208D01*
X729996Y892810D02*
X739140D01*
X689356D02*
X696468D01*
X688848Y893318D02*
X697992D01*
X688848Y893826D02*
X699008D01*
X688848Y894334D02*
X691896D01*
X688848Y894842D02*
X691388D01*
X688848Y895350D02*
X691388D01*
X688848Y895858D02*
X691388D01*
X688340Y896366D02*
X691388D01*
X688340Y896874D02*
X691388D01*
X688340Y897382D02*
X691388D01*
X702056Y897890D02*
X712216D01*
X688340D02*
X690880D01*
X729996Y898398D02*
X730504D01*
X704088D02*
X714248D01*
X687832D02*
X690880D01*
X729488Y898906D02*
X731012D01*
X705104D02*
X715264D01*
X687832D02*
X690880D01*
X728980Y899414D02*
X731520D01*
X707136D02*
X717804D01*
X687832D02*
X690880D01*
X728980Y899922D02*
X732536D01*
X709168D02*
X719328D01*
X687832D02*
X690880D01*
X728472Y900430D02*
X733044D01*
X687832D02*
X690372D01*
X727964Y900938D02*
X734060D01*
X687324D02*
X690372D01*
X727964Y901446D02*
X734568D01*
X687324D02*
X690372D01*
X727456Y901954D02*
X733044D01*
X687324D02*
X690372D01*
X727456Y902462D02*
X732536D01*
X687324D02*
X690372D01*
X727456Y902970D02*
X731012D01*
X687324D02*
X690372D01*
X704088Y903478D02*
X711200D01*
X687324D02*
X690372D01*
X704088Y903986D02*
X711708D01*
X686816D02*
X689864D01*
X704088Y904494D02*
X711708D01*
X686816D02*
X689864D01*
X704088Y905002D02*
X712216D01*
X686816D02*
X689864D01*
X740664Y866902D02*
X757428D01*
X740664Y867410D02*
X752348D01*
X730504Y872490D02*
X738124D01*
X729488Y872998D02*
X736600D01*
X745744Y873506D02*
X755904D01*
X728980D02*
X735584D01*
X743712Y874014D02*
X754380D01*
X727964D02*
X734060D01*
X741680Y874522D02*
X753364D01*
X726440D02*
X733044D01*
X741172Y875030D02*
X752856D01*
X726440D02*
X732028D01*
X739648Y875538D02*
X751332D01*
X725424D02*
X731012D01*
X738124Y876046D02*
X750824D01*
X725932Y878078D02*
X730504D01*
Y883158D02*
X742188D01*
X729996Y883666D02*
X741680D01*
X729488Y884174D02*
X741680D01*
X728980Y884682D02*
X741172D01*
X817880Y946658D02*
X836676D01*
X788924D02*
X791972D01*
X770636D02*
X779272D01*
X815340Y947166D02*
X836676D01*
X788924D02*
X795528D01*
X770128D02*
X778764D01*
X785368Y947674D02*
X795528D01*
X769620D02*
X776732D01*
X811784Y948182D02*
X824484D01*
X785368D02*
X795528D01*
X769620D02*
X774192D01*
X808228Y948690D02*
X821944D01*
X785368D02*
X795528D01*
X769620D02*
X779272D01*
X805180Y949198D02*
X818896D01*
X785368D02*
X791972D01*
X770128D02*
X779272D01*
X801624Y949706D02*
X816864D01*
X771144D02*
X778256D01*
X799592Y950214D02*
X814832D01*
X795528Y950722D02*
X812800D01*
X789940Y951230D02*
X809752D01*
X775716Y952246D02*
X804672D01*
X828040Y926338D02*
X837692D01*
X800100D02*
X812800D01*
X781304D02*
X798576D01*
X828548Y921258D02*
X839216D01*
X806704D02*
X816864D01*
X788416D02*
X798576D01*
X828548Y921766D02*
X838708D01*
X805180D02*
X816864D01*
X781304D02*
X798576D01*
X828548Y922274D02*
X838708D01*
X804164D02*
X816864D01*
X781304D02*
X798576D01*
X828548Y922782D02*
X838708D01*
X803656D02*
X816356D01*
X781304D02*
X798576D01*
X828548Y923290D02*
X838708D01*
X803148D02*
X816356D01*
X781304D02*
X798576D01*
X828548Y923798D02*
X838200D01*
X802132D02*
X815848D01*
X781304D02*
X798576D01*
X828548Y924306D02*
X838200D01*
X801624D02*
X815340D01*
X781304D02*
X798576D01*
X828548Y924814D02*
X838200D01*
X801624D02*
X814832D01*
X781304D02*
X798576D01*
X828548Y925322D02*
X838200D01*
X801116D02*
X813816D01*
X781304D02*
X798576D01*
X809244Y885698D02*
X817880D01*
X790448D02*
X798068D01*
X809752Y886206D02*
X818388D01*
X790956D02*
X794004D01*
X809752Y886714D02*
X818896D01*
X791464D02*
X794004D01*
X809752Y887222D02*
X819404D01*
X791464D02*
X793496D01*
X809752Y887730D02*
X819912D01*
X781812D02*
X791464D01*
X809752Y888238D02*
X819912D01*
X809752Y888746D02*
X820420D01*
X809752Y889254D02*
X820928D01*
X768096D02*
X772668D01*
X809752Y889762D02*
X820420D01*
X788416D02*
X793496D01*
X767588D02*
X772668D01*
X809752Y890270D02*
X819912D01*
X788416D02*
X793496D01*
X766572D02*
X772668D01*
X809752Y890778D02*
X818896D01*
X789432D02*
X794004D01*
X766064D02*
X772668D01*
X809244Y891286D02*
X818388D01*
X789940D02*
X794512D01*
X766064D02*
X772668D01*
X809244Y891794D02*
X817880D01*
X789940D02*
X795020D01*
X808736Y892302D02*
X816864D01*
X828040Y926846D02*
X837692D01*
X800100D02*
X811784D01*
X781304D02*
X798576D01*
X828040Y927354D02*
X837184D01*
X811784D02*
X815848D01*
X781304D02*
X798576D01*
X828040Y927862D02*
X837184D01*
X799592D02*
X816864D01*
X781304D02*
X798576D01*
X828040Y928370D02*
X837184D01*
X799592D02*
X816864D01*
X781304D02*
X798576D01*
X828040Y928878D02*
X836676D01*
X809244D02*
X816864D01*
X781304D02*
X798576D01*
X828040Y929386D02*
X836676D01*
X809244D02*
X816864D01*
X781304D02*
X798576D01*
X828040Y929894D02*
X835660D01*
X809244D02*
X826516D01*
X781304D02*
X798576D01*
X828040Y930402D02*
X834136D01*
X808736D02*
X826516D01*
X781304D02*
X798576D01*
X828040Y930910D02*
X832104D01*
X808736D02*
X826516D01*
X781304D02*
X798576D01*
X808228Y931418D02*
X826516D01*
X781304D02*
X798576D01*
X799592Y931926D02*
X826516D01*
X781304D02*
X798576D01*
X799592Y932434D02*
X826516D01*
X781304D02*
X791464D01*
X799592Y932942D02*
X826516D01*
X781304D02*
X791464D01*
X799592Y933450D02*
X824484D01*
X781304D02*
X791464D01*
X799592Y933958D02*
X816356D01*
X781304D02*
X791464D01*
X800100Y934466D02*
X815340D01*
X791464D02*
X799592D01*
X800100Y934974D02*
X814832D01*
X791464D02*
X799592D01*
X800100Y935482D02*
X814324D01*
X791464D02*
X799592D01*
X801116Y935990D02*
X813308D01*
X791464D02*
X799592D01*
X801116Y936498D02*
X812800D01*
X791464D02*
X799592D01*
X802132Y937006D02*
X811784D01*
X791464D02*
X799592D01*
X791464Y937514D02*
X799592D01*
X791464Y938022D02*
X799592D01*
X791464Y938530D02*
X799592D01*
X791464Y939038D02*
X799592D01*
X811784Y939546D02*
X816356D01*
X811784Y940054D02*
X815340D01*
X811276Y940562D02*
X814832D01*
X766064D02*
X777240D01*
X811276Y941070D02*
X813816D01*
X767080D02*
X776224D01*
X811276Y941578D02*
X813816D01*
X767588D02*
X775716D01*
X810768Y942086D02*
X813816D01*
X789432D02*
X792480D01*
X769620D02*
X773684D01*
X810768Y942594D02*
X814324D01*
X788416D02*
X791972D01*
X810768Y943102D02*
X820420D01*
X788416D02*
X791972D01*
X811276Y943610D02*
X819404D01*
X788924D02*
X791972D01*
X769112D02*
X778256D01*
X811276Y944118D02*
X818388D01*
X788924D02*
X791972D01*
X769620D02*
X779272D01*
X825500Y944626D02*
X836676D01*
X788924D02*
X791972D01*
X769620D02*
X779780D01*
X824484Y945134D02*
X836676D01*
X788924D02*
X791972D01*
X769620D02*
X779780D01*
X821436Y945642D02*
X836676D01*
X788924D02*
X791972D01*
X770128D02*
X771652D01*
X828040Y906018D02*
X836168D01*
X811784D02*
X820928D01*
X777748D02*
X803656D01*
X828040Y906526D02*
X835660D01*
X811784D02*
X818388D01*
X777240D02*
X804672D01*
X828040Y907034D02*
X835660D01*
X811784D02*
X816356D01*
X776732D02*
X805180D01*
X828040Y907542D02*
X835660D01*
X776732D02*
X805688D01*
X828040Y908050D02*
X835152D01*
X776224D02*
X806196D01*
X828548Y908558D02*
X835152D01*
X828548Y909066D02*
X835152D01*
X789940Y910082D02*
X794512D01*
X785876Y911098D02*
X797052D01*
X783844Y911606D02*
X798576D01*
X811784Y912114D02*
X815340D01*
X781304D02*
X799592D01*
X811784Y912622D02*
X815848D01*
X779780D02*
X800608D01*
X811276Y913130D02*
X816356D01*
X808736Y913638D02*
X816864D01*
X790956D02*
X805180D01*
X790956Y914146D02*
X816864D01*
X790448Y914654D02*
X816864D01*
X799592Y915162D02*
X816864D01*
X789940D02*
X798576D01*
X799592Y915670D02*
X817372D01*
X789940D02*
X798576D01*
X799592Y916178D02*
X817372D01*
X789940D02*
X798576D01*
X809244Y916686D02*
X817372D01*
X789940D02*
X798576D01*
X809244Y917194D02*
X817372D01*
X789432D02*
X798576D01*
X809244Y917702D02*
X817372D01*
X789432D02*
X798576D01*
X809244Y918210D02*
X817372D01*
X789432D02*
X798576D01*
X809244Y918718D02*
X817372D01*
X788924D02*
X798576D01*
X808736Y919226D02*
X817372D01*
X788924D02*
X798576D01*
X808736Y919734D02*
X817372D01*
X788416D02*
X798576D01*
X808228Y920242D02*
X816864D01*
X788416D02*
X798576D01*
X828548Y920750D02*
X839216D01*
X799592D02*
X816864D01*
X788416D02*
X798576D01*
X850392Y917194D02*
X854964D01*
X851408Y917702D02*
X854964D01*
X851916Y918210D02*
X854964D01*
X851916Y918718D02*
X854964D01*
X851916Y919226D02*
X854964D01*
X851916Y919734D02*
X854964D01*
X851916Y920242D02*
X854964D01*
X851916Y920750D02*
X854964D01*
X851916Y921258D02*
X854964D01*
X851916Y921766D02*
X854964D01*
X851916Y922274D02*
X854964D01*
X851916Y922782D02*
X854964D01*
X851916Y923290D02*
X854964D01*
X851916Y923798D02*
X854964D01*
X851916Y924306D02*
X854964D01*
X851916Y924814D02*
X854964D01*
X851916Y925322D02*
X854964D01*
X852424Y888238D02*
X852932D01*
X851916Y888746D02*
X852932D01*
X850392Y889254D02*
X852932D01*
X848868Y889762D02*
X852932D01*
X848360Y890270D02*
X852932D01*
X846836Y890778D02*
X852932D01*
X845312Y891286D02*
X852932D01*
X843788Y891794D02*
X852932D01*
X842772Y892302D02*
X852932D01*
X850392Y892810D02*
X852932D01*
X850392Y893318D02*
X852932D01*
X850392Y893826D02*
X852932D01*
X850392Y894334D02*
X852932D01*
X850392Y894842D02*
X852932D01*
X850392Y895350D02*
X852932D01*
X850392Y895858D02*
X852932D01*
X850392Y896366D02*
X852932D01*
X850392Y896874D02*
X852932D01*
X850392Y897382D02*
X852932D01*
X850392Y897890D02*
X852932D01*
X850392Y898398D02*
X852932D01*
X850392Y898906D02*
X852932D01*
X850392Y899414D02*
X852932D01*
X850392Y899922D02*
X852932D01*
X850392Y900430D02*
X852932D01*
X850392Y900938D02*
X852932D01*
X850392Y901446D02*
X852932D01*
X850392Y901954D02*
X852932D01*
X850392Y902462D02*
X852932D01*
X850392Y902970D02*
X852932D01*
X850392Y903478D02*
X852932D01*
X850392Y903986D02*
X852932D01*
X850392Y904494D02*
X852932D01*
X850392Y905002D02*
X852932D01*
X682752Y925830D02*
X685800D01*
X686816Y905510D02*
X689356D01*
X699516Y925830D02*
X707644D01*
X691896D02*
X699008D01*
X691388Y905510D02*
X701548D01*
X717804Y925830D02*
X725932D01*
X727964Y946150D02*
X729996D01*
X729488Y906526D02*
X766572D01*
X729996Y906018D02*
X767080D01*
X728472Y907034D02*
X766064D01*
X742696Y907542D02*
X766064D01*
X818388Y940054D02*
X821436D01*
X822960Y940562D02*
X831596D01*
X818388D02*
X821436D01*
X831088Y941070D02*
X831596D01*
X822960D02*
X830072D01*
X818388D02*
X821436D01*
X822960Y941578D02*
X829056D01*
X818388D02*
X821436D01*
X822960Y942086D02*
X827024D01*
X817880D02*
X820928D01*
X822452Y942594D02*
X824992D01*
X816864D02*
X820420D01*
X822452Y943102D02*
X823976D01*
X812292Y944626D02*
X817372D01*
X812800Y945134D02*
X816356D01*
X823468Y906526D02*
X825500D01*
X821436Y907034D02*
X826516D01*
X820420Y907542D02*
X826516D01*
X812292D02*
X815340D01*
X818388Y908050D02*
X826516D01*
X812292D02*
X815340D01*
X816864Y908558D02*
X826516D01*
X812292D02*
X815340D01*
X816864Y909066D02*
X826516D01*
X812800D02*
X815340D01*
X816864Y909574D02*
X826516D01*
X812800D02*
X815340D01*
X816864Y910082D02*
X826516D01*
X812800D02*
X815340D01*
X816864Y910590D02*
X826516D01*
X812800D02*
X815340D01*
X816864Y911098D02*
X826516D01*
X812800D02*
X815340D01*
X816864Y911606D02*
X826516D01*
X812292D02*
X815340D01*
X816864Y912114D02*
X826008D01*
X816864Y912622D02*
X826008D01*
X817372Y913130D02*
X825500D01*
X817880Y913638D02*
X825500D01*
X817880Y914146D02*
X825500D01*
X817880Y914654D02*
X825500D01*
X817880Y915162D02*
X825500D01*
X817880Y915670D02*
X825500D01*
X817880Y916178D02*
X825500D01*
X817880Y916686D02*
X825500D01*
X817880Y917194D02*
X825500D01*
X817880Y917702D02*
X825500D01*
X817880Y918210D02*
X825500D01*
X817880Y918718D02*
X825500D01*
X817880Y919226D02*
X825500D01*
X817880Y919734D02*
X825500D01*
X817880Y920242D02*
X825500D01*
X817880Y920750D02*
X825500D01*
X817880Y921258D02*
X825500D01*
X817880Y921766D02*
X825500D01*
X817880Y922274D02*
X825500D01*
X817880Y922782D02*
X825500D01*
X817880Y923290D02*
X825500D01*
X817880Y923798D02*
X825500D01*
X817880Y924306D02*
X825500D01*
X817880Y924814D02*
X825500D01*
X817880Y925322D02*
X825500D01*
X822452Y885698D02*
X826008D01*
X822960Y886206D02*
X826516D01*
X823468Y886714D02*
X826516D01*
X823468Y887222D02*
X827024D01*
X823976Y887730D02*
X827024D01*
X824484Y888238D02*
X827532D01*
X824484Y888746D02*
X828040D01*
X824992Y889254D02*
X828040D01*
X824992Y889762D02*
X828548D01*
X825500Y890270D02*
X828548D01*
X824992Y890778D02*
X828548D01*
X824484Y891286D02*
X828040D01*
X823468Y891794D02*
X827532D01*
X822960Y892302D02*
X827024D01*
X822452Y892810D02*
X826516D01*
X821436Y893318D02*
X826008D01*
X820928Y893826D02*
X825500D01*
X820420Y894334D02*
X824992D01*
X819404Y894842D02*
X824484D01*
X818896Y895350D02*
X823468D01*
X817880Y895858D02*
X822960D01*
X816864Y896366D02*
X821944D01*
X816356Y896874D02*
X821436D01*
X816864Y897382D02*
X820928D01*
X817372Y897890D02*
X820928D01*
X816864Y898398D02*
X821436D01*
X816356Y898906D02*
X821944D01*
Y899414D02*
X830580D01*
X814832D02*
X820420D01*
X821944Y899922D02*
X828548D01*
X813308D02*
X819912D01*
X821944Y900430D02*
X827024D01*
X821944Y900938D02*
X825500D01*
X821944Y901446D02*
X824484D01*
X821944Y901954D02*
X824484D01*
X821944Y902462D02*
X824484D01*
X820928Y902970D02*
X824484D01*
X818388Y903478D02*
X824484D01*
X817372Y903986D02*
X824484D01*
X814832Y904494D02*
X824992D01*
X794512Y949198D02*
X795020D01*
X800100Y927354D02*
X810768D01*
X799592Y928878D02*
X808228D01*
X799592Y929386D02*
X808228D01*
X799592Y929894D02*
X807720D01*
X799592Y930402D02*
X807720D01*
X799592Y930910D02*
X807720D01*
X799592Y931418D02*
X807720D01*
X791972Y932434D02*
X798576D01*
X791972Y932942D02*
X798576D01*
X791972Y933450D02*
X798576D01*
X791972Y933958D02*
X798576D01*
X803148Y937514D02*
X810260D01*
X803656Y938022D02*
X809244D01*
X791972Y939546D02*
X796544D01*
X791972Y940054D02*
X794512D01*
X801116Y940562D02*
X803656D01*
X799592Y941070D02*
X803656D01*
X799592Y941578D02*
X803656D01*
X800100Y942086D02*
X803656D01*
X800100Y942594D02*
X803656D01*
X800100Y943102D02*
X803656D01*
X800100Y943610D02*
X803656D01*
X799592Y944118D02*
X804672D01*
X799084Y944626D02*
X805180D01*
X798576Y945134D02*
X805688D01*
X802132Y945642D02*
X806196D01*
X798576D02*
X801624D01*
X806704Y906018D02*
X809752D01*
X807720Y906526D02*
X809752D01*
X808228Y907034D02*
X809752D01*
X808228Y907542D02*
X809752D01*
X808736Y908050D02*
X809752D01*
X809244Y908558D02*
X809752D01*
X796036D02*
X806704D01*
X809244Y909066D02*
X809752D01*
X796544D02*
X807212D01*
X798068Y909574D02*
X807720D01*
X799592Y910082D02*
X808228D01*
X801116Y910590D02*
X808228D01*
X802132Y911098D02*
X808228D01*
X804164Y911606D02*
X808736D01*
X807720Y912114D02*
X808736D01*
X806704D02*
X807212D01*
X793496Y913130D02*
X802132D01*
X799592Y916686D02*
X808736D01*
X799592Y917194D02*
X808228D01*
X799592Y917702D02*
X807720D01*
X799592Y918210D02*
X807720D01*
X799592Y918718D02*
X807720D01*
X799592Y919226D02*
X807720D01*
X799592Y919734D02*
X807720D01*
X799592Y920242D02*
X807720D01*
X799592Y921258D02*
X806196D01*
X801116Y921766D02*
X803148D01*
X794512Y886206D02*
X797560D01*
X794512Y886714D02*
X797052D01*
X795020Y887222D02*
X797052D01*
X795020Y887730D02*
X796544D01*
X791972D02*
X793496D01*
X795020Y888238D02*
X796036D01*
X795020Y888746D02*
X795528D01*
X799592Y891286D02*
X800608D01*
X799084Y891794D02*
X800608D01*
X798576Y892302D02*
X800608D01*
X797560Y892810D02*
X800608D01*
X791972Y893826D02*
X800100D01*
X792988Y894334D02*
X800100D01*
X793496Y894842D02*
X799592D01*
X794004Y895350D02*
X799592D01*
X807212Y895858D02*
X811276D01*
X795528D02*
X798576D01*
X805180Y897890D02*
X811276D01*
X804672Y898398D02*
X809752D01*
X804672Y898906D02*
X808736D01*
X803656Y899414D02*
X806704D01*
X803148Y899922D02*
X805180D01*
X802132Y900430D02*
X803148D01*
X806704Y902462D02*
X807720D01*
X805180Y902970D02*
X808228D01*
X803656Y903478D02*
X808228D01*
X803656Y903986D02*
X808736D01*
X804672Y904494D02*
X808736D01*
X805688Y905002D02*
X809244D01*
X799592Y865378D02*
X805688D01*
X792988D02*
X798068D01*
X791972Y865886D02*
X805688D01*
X791972Y866394D02*
X805180D01*
X791972Y866902D02*
X805180D01*
X796036Y867410D02*
X806196D01*
X792480D02*
X795020D01*
X797052Y867918D02*
X809752D01*
X792480D02*
X795020D01*
X798068Y868426D02*
X810768D01*
X792480D02*
X795020D01*
X792480Y868934D02*
X794512D01*
X792480Y869442D02*
X794512D01*
X792480Y869950D02*
X794004D01*
X791972Y870458D02*
X793496D01*
X791972Y870966D02*
X792988D01*
X798068Y872490D02*
X798576D01*
X799084Y872998D02*
X800100D01*
X799592Y873506D02*
X801116D01*
X800608Y874014D02*
X802640D01*
X801116Y874522D02*
X804672D01*
X801624Y875030D02*
X805180D01*
X802132Y875538D02*
X806704D01*
X803148Y876046D02*
X808736D01*
X803656Y876554D02*
X809752D01*
X804164Y877062D02*
X810260D01*
X804672Y877570D02*
X811276D01*
X792988Y881634D02*
X796036D01*
X791972Y882142D02*
X796544D01*
X794004Y852170D02*
X805180D01*
X794004Y852678D02*
X806196D01*
X794004Y853186D02*
X806196D01*
X798068Y853694D02*
X806196D01*
X793496D02*
X796544D01*
X798068Y854202D02*
X806704D01*
X793496D02*
X796544D01*
X798068Y854710D02*
X806704D01*
X793496D02*
X796544D01*
X802132Y855218D02*
X806704D01*
X798068D02*
X801116D01*
X792988D02*
X796036D01*
X802132Y855726D02*
X806704D01*
X797560D02*
X800608D01*
X792988D02*
X796036D01*
X802132Y856234D02*
X806704D01*
X797560D02*
X800608D01*
X792988D02*
X796036D01*
X802132Y856742D02*
X807212D01*
X797052D02*
X800100D01*
X792988D02*
X795528D01*
X801624Y857250D02*
X807212D01*
X797052D02*
X800100D01*
X801624Y857758D02*
X807212D01*
X796544D02*
X799592D01*
X801116Y858266D02*
X807212D01*
X796544D02*
X799592D01*
X801116Y858774D02*
X806704D01*
X796544D02*
X799592D01*
X801116Y859282D02*
X806704D01*
X796544D02*
X799084D01*
X801116Y859790D02*
X806704D01*
X796544D02*
X799084D01*
X800608Y860298D02*
X806196D01*
X792988D02*
X798576D01*
X800608Y860806D02*
X806196D01*
X793496D02*
X798576D01*
X800100Y861314D02*
X805688D01*
X794004D02*
X798576D01*
X800100Y861822D02*
X805688D01*
X794004D02*
X798576D01*
X800100Y862330D02*
X805688D01*
X794004D02*
X798576D01*
X800100Y862838D02*
X805688D01*
X794004D02*
X798576D01*
X800100Y863346D02*
X805688D01*
X794004D02*
X798068D01*
X800100Y863854D02*
X805688D01*
X793496D02*
X798068D01*
X800100Y864362D02*
X805688D01*
X793496D02*
X798068D01*
X813308Y947674D02*
X825500D01*
X817880Y926338D02*
X825500D01*
X817880Y926846D02*
X825500D01*
X813816D02*
X815848D01*
X817880Y927354D02*
X826008D01*
X816356D02*
X816864D01*
X817880Y927862D02*
X826008D01*
X817880Y928370D02*
X826516D01*
X817880Y928878D02*
X826516D01*
X817880Y929386D02*
X826516D01*
X828548Y931418D02*
X831596D01*
X828548Y931926D02*
X829564D01*
X816864Y933958D02*
X822452D01*
X818388Y934466D02*
X819912D01*
X825500Y934974D02*
X826516D01*
X818388D02*
X819404D01*
X823976Y935482D02*
X826516D01*
X829564Y935990D02*
X830072D01*
X822452D02*
X826008D01*
X829056Y936498D02*
X830072D01*
X822452D02*
X826008D01*
X827024Y937006D02*
X830072D01*
X822960D02*
X826008D01*
X822960Y937514D02*
X830072D01*
X815340D02*
X820420D01*
X822960Y938022D02*
X830072D01*
X814832D02*
X820420D01*
X830580Y938530D02*
X831596D01*
X822960D02*
X830072D01*
X813308D02*
X821436D01*
X829564Y939038D02*
X831596D01*
X822960D02*
X828040D01*
X812800D02*
X821436D01*
X827024Y939546D02*
X831596D01*
X822960D02*
X826008D01*
X817880D02*
X821436D01*
X826516Y940054D02*
X831596D01*
X822960D02*
X826008D01*
X812292Y871982D02*
X816356D01*
X812800Y872490D02*
X816356D01*
X812292Y872998D02*
X815848D01*
X812800Y874522D02*
X818388D01*
X813308Y875030D02*
X818896D01*
X814324Y875538D02*
X819912D01*
X815340Y876046D02*
X820420D01*
X816356Y876554D02*
X820928D01*
X816864Y877062D02*
X821436D01*
X817880Y877570D02*
X821944D01*
X818388Y878078D02*
X822960D01*
X818896Y878586D02*
X822960D01*
X819404Y879094D02*
X823468D01*
X819912Y879602D02*
X824484D01*
X820420Y880110D02*
X824484D01*
X820928Y880618D02*
X824992D01*
X821436Y881126D02*
X825500D01*
X820928Y881634D02*
X825500D01*
X820420Y882142D02*
X825500D01*
X819912Y882650D02*
X824992D01*
X820420Y883158D02*
X824484D01*
X820420Y883666D02*
X824484D01*
X821436Y884174D02*
X824992D01*
X821436Y884682D02*
X825500D01*
X839216Y926338D02*
X844804D01*
X839216Y926846D02*
X843280D01*
X840232Y927354D02*
X841756D01*
X840232Y927862D02*
X841248D01*
X843788Y929386D02*
X851916D01*
X842264Y929894D02*
X850392D01*
X840740Y930402D02*
X848868D01*
X838708Y930910D02*
X847344D01*
X838200Y931418D02*
X846328D01*
X836168Y931926D02*
X844804D01*
X834644Y932434D02*
X843280D01*
X833628Y932942D02*
X842264D01*
X833628Y933450D02*
X840740D01*
X833628Y933958D02*
X839216D01*
X833628Y934466D02*
X837184D01*
X833628Y934974D02*
X836676D01*
X833628Y935482D02*
X836676D01*
X833628Y935990D02*
X836676D01*
X833628Y936498D02*
X836676D01*
X833628Y937006D02*
X836676D01*
X833628Y937514D02*
X836676D01*
X833628Y938022D02*
X836676D01*
X833628Y938530D02*
X836676D01*
X833628Y939038D02*
X836676D01*
X833628Y939546D02*
X836676D01*
X833628Y940054D02*
X836676D01*
X833628Y940562D02*
X836676D01*
X833628Y941070D02*
X836676D01*
X833628Y941578D02*
X836676D01*
X833628Y942086D02*
X836676D01*
X833628Y942594D02*
X836676D01*
X833628Y943102D02*
X836676D01*
X833628Y943610D02*
X836676D01*
X833628Y944118D02*
X836676D01*
Y906018D02*
X846836D01*
X836676Y906526D02*
X846836D01*
X836168Y907034D02*
X846836D01*
X836168Y907542D02*
X846836D01*
X835660Y908050D02*
X846836D01*
X835660Y908558D02*
X846836D01*
X835660Y909066D02*
X846836D01*
X839724Y920750D02*
X847344D01*
X839724Y921258D02*
X847344D01*
X839724Y921766D02*
X847344D01*
X839216Y922274D02*
X847344D01*
X839216Y922782D02*
X847344D01*
X839216Y923290D02*
X847344D01*
X839216Y923798D02*
X847344D01*
X839216Y924306D02*
X847344D01*
X839216Y924814D02*
X847344D01*
X839216Y925322D02*
X846836D01*
X841248Y892810D02*
X849376D01*
X839724Y893318D02*
X847852D01*
X838708Y893826D02*
X846836D01*
X837184Y894334D02*
X845312D01*
X835152Y894842D02*
X843788D01*
X834644Y895350D02*
X843280D01*
X832612Y895858D02*
X841756D01*
X844804Y896366D02*
X845820D01*
X846328Y896874D02*
X846836D01*
X843280D02*
X845820D01*
X842264Y897382D02*
X846836D01*
X841248Y897890D02*
X846836D01*
X839724Y898398D02*
X846836D01*
X838708Y898906D02*
X846836D01*
X838708Y899414D02*
X846836D01*
X838200Y899922D02*
X846836D01*
X838200Y900430D02*
X846836D01*
X834136D02*
X835152D01*
X838200Y900938D02*
X846836D01*
X833628D02*
X835152D01*
X838200Y901446D02*
X846836D01*
X837692Y901954D02*
X846836D01*
X837692Y902462D02*
X846836D01*
X837184Y902970D02*
X846836D01*
X837184Y903478D02*
X846836D01*
X837184Y903986D02*
X846836D01*
X836676Y904494D02*
X846836D01*
X836676Y905002D02*
X846836D01*
X796544Y948690D02*
X797052D01*
D15*
X756996Y843122D02*
X750225D01*
Y832966D01*
X756996D01*
X750225Y838044D02*
X753611D01*
X767153Y841430D02*
X765460Y843122D01*
X762075D01*
X760382Y841430D01*
Y834658D01*
X762075Y832966D01*
X765460D01*
X767153Y834658D01*
X777310Y843122D02*
X770538D01*
Y832966D01*
X777310D01*
X770538Y838044D02*
X773924D01*
X795930Y832966D02*
Y843122D01*
X790852Y838044D01*
X797623D01*
X807780Y843122D02*
X801009D01*
Y838044D01*
X804394Y839737D01*
X806087D01*
X807780Y838044D01*
Y834658D01*
X806087Y832966D01*
X802701D01*
X801009Y834658D01*
X811165Y841430D02*
X812858Y843122D01*
X816244D01*
X817936Y841430D01*
Y839737D01*
X816244Y838044D01*
X814551D01*
X816244D01*
X817936Y836351D01*
Y834658D01*
X816244Y832966D01*
X812858D01*
X811165Y834658D01*
D16*
X601980Y812794D02*
X612137D01*
X607058D01*
Y797559D01*
X624833D02*
X619754D01*
X617215Y800098D01*
Y805177D01*
X619754Y807716D01*
X624833D01*
X627372Y805177D01*
Y802637D01*
X617215D01*
X634989Y807716D02*
X640068D01*
X642607Y805177D01*
Y797559D01*
X634989D01*
X632450Y800098D01*
X634989Y802637D01*
X642607D01*
X647685Y797559D02*
Y807716D01*
X650224D01*
X652764Y805177D01*
Y797559D01*
Y805177D01*
X655303Y807716D01*
X657842Y805177D01*
Y797559D01*
X662920Y810255D02*
X665460Y812794D01*
X670538D01*
X673077Y810255D01*
Y800098D01*
X670538Y797559D01*
X665460D01*
X662920Y800098D01*
Y810255D01*
X685773Y797559D02*
Y812794D01*
X678155Y805177D01*
X688312D01*
X693390D02*
X703547D01*
X711165Y807716D02*
X716243D01*
X718782Y805177D01*
Y797559D01*
X711165D01*
X708625Y800098D01*
X711165Y802637D01*
X718782D01*
X723861Y797559D02*
X728939D01*
X726400D01*
Y812794D01*
X723861D01*
X744174Y797559D02*
X739096D01*
X736556Y800098D01*
Y805177D01*
X739096Y807716D01*
X744174D01*
X746713Y805177D01*
Y802637D01*
X736556D01*
X751792Y812794D02*
X761948Y797559D01*
Y812794D02*
X751792Y797559D01*
X777183Y812794D02*
X767027D01*
Y797559D01*
X777183D01*
X767027Y805177D02*
X772105D01*
X792418Y810255D02*
X789879Y812794D01*
X784801D01*
X782262Y810255D01*
Y807716D01*
X784801Y805177D01*
X789879D01*
X792418Y802637D01*
Y800098D01*
X789879Y797559D01*
X784801D01*
X782262Y800098D01*
X797497Y805177D02*
X807654D01*
X812732Y797559D02*
Y812794D01*
X820349D01*
X822888Y810255D01*
Y805177D01*
X820349Y802637D01*
X812732D01*
X830506Y797559D02*
X835584D01*
X838124Y800098D01*
Y805177D01*
X835584Y807716D01*
X830506D01*
X827967Y805177D01*
Y800098D01*
X830506Y797559D01*
X843202Y807716D02*
Y800098D01*
X845741Y797559D01*
X848280Y800098D01*
X850819Y797559D01*
X853359Y800098D01*
Y807716D01*
X866055Y797559D02*
X860976D01*
X858437Y800098D01*
Y805177D01*
X860976Y807716D01*
X866055D01*
X868594Y805177D01*
Y802637D01*
X858437D01*
X873672Y807716D02*
Y797559D01*
Y802637D01*
X876211Y805177D01*
X878751Y807716D01*
X881290D01*
X888907Y795020D02*
X899064D01*
X904142Y797559D02*
Y812794D01*
X911760D01*
X914299Y810255D01*
Y805177D01*
X911760Y802637D01*
X904142D01*
X919377Y807716D02*
Y797559D01*
Y802637D01*
X921917Y805177D01*
X924456Y807716D01*
X926995D01*
X937152Y797559D02*
X942230D01*
X944769Y800098D01*
Y805177D01*
X942230Y807716D01*
X937152D01*
X934612Y805177D01*
Y800098D01*
X937152Y797559D01*
X949847Y807716D02*
X960004Y797559D01*
X954926Y802637D01*
X960004Y807716D01*
X949847Y797559D01*
X302266Y835658D02*
X297187D01*
X299727D01*
Y822962D01*
X297187Y820423D01*
X294648D01*
X292109Y822962D01*
X317501Y820423D02*
X307344D01*
X317501Y830579D01*
Y833118D01*
X314962Y835658D01*
X309883D01*
X307344Y833118D01*
X322579D02*
X325118Y835658D01*
X330197D01*
X332736Y833118D01*
Y822962D01*
X330197Y820423D01*
X325118D01*
X322579Y822962D01*
Y833118D01*
X347971Y820423D02*
X337814D01*
X347971Y830579D01*
Y833118D01*
X345432Y835658D01*
X340353D01*
X337814Y833118D01*
X485149Y861058D02*
Y845823D01*
Y853440D01*
X495306D01*
Y861058D01*
Y845823D01*
X510541D02*
X500384D01*
X510541Y855979D01*
Y858518D01*
X508002Y861058D01*
X502923D01*
X500384Y858518D01*
X515619D02*
X518158Y861058D01*
X523237D01*
X525776Y858518D01*
Y848362D01*
X523237Y845823D01*
X518158D01*
X515619Y848362D01*
Y858518D01*
X530854D02*
X533393Y861058D01*
X538472D01*
X541011Y858518D01*
Y848362D01*
X538472Y845823D01*
X533393D01*
X530854Y848362D01*
Y858518D01*
X684920Y978447D02*
Y965751D01*
X687460Y963212D01*
X692538D01*
X695077Y965751D01*
Y978447D01*
X700155Y963212D02*
X705234D01*
X702695D01*
Y978447D01*
X700155Y975908D01*
X747909Y184189D02*
X742831D01*
X745370D01*
Y171493D01*
X742831Y168954D01*
X740292D01*
X737752Y171493D01*
X763144Y168954D02*
X752987D01*
X763144Y179111D01*
Y181650D01*
X760605Y184189D01*
X755527D01*
X752987Y181650D01*
X768223D02*
X770762Y184189D01*
X775840D01*
X778379Y181650D01*
Y171493D01*
X775840Y168954D01*
X770762D01*
X768223Y171493D01*
Y181650D01*
X783458D02*
X785997Y184189D01*
X791075D01*
X793614Y181650D01*
Y171493D01*
X791075Y168954D01*
X785997D01*
X783458Y171493D01*
Y181650D01*
D17*
X378113Y253369D02*
X376632Y254851D01*
X373669D01*
X372188Y253369D01*
Y247445D01*
X373669Y245963D01*
X376632D01*
X378113Y247445D01*
X381075Y253369D02*
X382556Y254851D01*
X385519D01*
X387000Y253369D01*
Y251888D01*
X385519Y250407D01*
X384038D01*
X385519D01*
X387000Y248926D01*
Y247445D01*
X385519Y245963D01*
X382556D01*
X381075Y247445D01*
X389962Y253369D02*
X391444Y254851D01*
X394406D01*
X395887Y253369D01*
Y247445D01*
X394406Y245963D01*
X391444D01*
X389962Y247445D01*
Y253369D01*
X398849Y245963D02*
X401812D01*
X400331D01*
Y254851D01*
X398849Y253369D01*
X231633Y508104D02*
Y502179D01*
X234595Y499217D01*
X237557Y502179D01*
Y508104D01*
X240520D02*
Y499217D01*
X244963D01*
X246445Y500698D01*
Y502179D01*
X244963Y503661D01*
X240520D01*
X244963D01*
X246445Y505142D01*
Y506623D01*
X244963Y508104D01*
X240520D01*
X249407Y499217D02*
Y505142D01*
X252369Y508104D01*
X255332Y505142D01*
Y499217D01*
Y503661D01*
X249407D01*
X258294Y508104D02*
X264219D01*
X261256D01*
Y499217D01*
X267181Y497736D02*
X273106D01*
X276068Y499217D02*
Y508104D01*
X280512D01*
X281993Y506623D01*
Y503661D01*
X280512Y502179D01*
X276068D01*
X289399Y508104D02*
X286437D01*
X284956Y506623D01*
Y500698D01*
X286437Y499217D01*
X289399D01*
X290880Y500698D01*
Y506623D01*
X289399Y508104D01*
X299767Y506623D02*
X298286Y508104D01*
X295324D01*
X293843Y506623D01*
Y505142D01*
X295324Y503661D01*
X298286D01*
X299767Y502179D01*
Y500698D01*
X298286Y499217D01*
X295324D01*
X293843Y500698D01*
X251599Y266634D02*
Y260709D01*
X254562Y257747D01*
X257524Y260709D01*
Y266634D01*
X260486D02*
Y257747D01*
X264930D01*
X266411Y259228D01*
Y260709D01*
X264930Y262191D01*
X260486D01*
X264930D01*
X266411Y263672D01*
Y265153D01*
X264930Y266634D01*
X260486D01*
X269373Y257747D02*
Y263672D01*
X272336Y266634D01*
X275298Y263672D01*
Y257747D01*
Y262191D01*
X269373D01*
X278261Y266634D02*
X284185D01*
X281223D01*
Y257747D01*
X287148Y256266D02*
X293072D01*
X296035Y257747D02*
Y263672D01*
X298997Y266634D01*
X301960Y263672D01*
Y257747D01*
Y262191D01*
X296035D01*
X184540Y434381D02*
Y428457D01*
X187503Y425494D01*
X190465Y428457D01*
Y434381D01*
X193428Y424013D02*
X199352D01*
X208239Y434381D02*
X202315D01*
Y425494D01*
X208239D01*
X202315Y429938D02*
X205277D01*
X211202Y425494D02*
Y434381D01*
X217127Y425494D01*
Y434381D01*
X739357Y213994D02*
Y206588D01*
X740838Y205106D01*
X743801D01*
X745282Y206588D01*
Y213994D01*
X748244Y212512D02*
X749725Y213994D01*
X752688D01*
X754169Y212512D01*
Y211031D01*
X752688Y209550D01*
X751206D01*
X752688D01*
X754169Y208069D01*
Y206588D01*
X752688Y205106D01*
X749725D01*
X748244Y206588D01*
X757131Y212512D02*
X758612Y213994D01*
X761575D01*
X763056Y212512D01*
Y206588D01*
X761575Y205106D01*
X758612D01*
X757131Y206588D01*
Y212512D01*
X770462Y205106D02*
Y213994D01*
X766018Y209550D01*
X771943D01*
X733007Y448944D02*
Y441538D01*
X734488Y440056D01*
X737450D01*
X738932Y441538D01*
Y448944D01*
X741894Y447462D02*
X743375Y448944D01*
X746338D01*
X747819Y447462D01*
Y445981D01*
X746338Y444500D01*
X744856D01*
X746338D01*
X747819Y443019D01*
Y441538D01*
X746338Y440056D01*
X743375D01*
X741894Y441538D01*
X750781Y447462D02*
X752262Y448944D01*
X755225D01*
X756706Y447462D01*
Y441538D01*
X755225Y440056D01*
X752262D01*
X750781Y441538D01*
Y447462D01*
X759668D02*
X761150Y448944D01*
X764112D01*
X765593Y447462D01*
Y445981D01*
X764112Y444500D01*
X762631D01*
X764112D01*
X765593Y443019D01*
Y441538D01*
X764112Y440056D01*
X761150D01*
X759668Y441538D01*
X195857Y616499D02*
Y609093D01*
X197338Y607612D01*
X200301D01*
X201782Y609093D01*
Y616499D01*
X204744Y615018D02*
X206225Y616499D01*
X209188D01*
X210669Y615018D01*
Y613537D01*
X209188Y612056D01*
X207707D01*
X209188D01*
X210669Y610575D01*
Y609093D01*
X209188Y607612D01*
X206225D01*
X204744Y609093D01*
X213631Y615018D02*
X215112Y616499D01*
X218075D01*
X219556Y615018D01*
Y609093D01*
X218075Y607612D01*
X215112D01*
X213631Y609093D01*
Y615018D01*
X228443Y607612D02*
X222518D01*
X228443Y613537D01*
Y615018D01*
X226962Y616499D01*
X224000D01*
X222518Y615018D01*
X543696Y311191D02*
Y303785D01*
X545177Y302304D01*
X548140D01*
X549621Y303785D01*
Y311191D01*
X552584Y309710D02*
X554065Y311191D01*
X557027D01*
X558508Y309710D01*
Y308229D01*
X557027Y306748D01*
X555546D01*
X557027D01*
X558508Y305267D01*
Y303785D01*
X557027Y302304D01*
X554065D01*
X552584Y303785D01*
X561471Y309710D02*
X562952Y311191D01*
X565914D01*
X567395Y309710D01*
Y303785D01*
X565914Y302304D01*
X562952D01*
X561471Y303785D01*
Y309710D01*
X570358Y302304D02*
X573320D01*
X571839D01*
Y311191D01*
X570358Y309710D01*
X354414Y354964D02*
Y347558D01*
X355895Y346076D01*
X358857D01*
X360339Y347558D01*
Y354964D01*
X363301Y353482D02*
X364782Y354964D01*
X367745D01*
X369226Y353482D01*
Y352001D01*
X367745Y350520D01*
X366263D01*
X367745D01*
X369226Y349039D01*
Y347558D01*
X367745Y346076D01*
X364782D01*
X363301Y347558D01*
X372188Y353482D02*
X373669Y354964D01*
X376632D01*
X378113Y353482D01*
Y347558D01*
X376632Y346076D01*
X373669D01*
X372188Y347558D01*
Y353482D01*
X381075D02*
X382556Y354964D01*
X385519D01*
X387000Y353482D01*
Y347558D01*
X385519Y346076D01*
X382556D01*
X381075Y347558D01*
Y353482D01*
X637692Y452333D02*
X636211Y453814D01*
X633248D01*
X631767Y452333D01*
Y450851D01*
X633248Y449370D01*
X636211D01*
X637692Y447889D01*
Y446408D01*
X636211Y444927D01*
X633248D01*
X631767Y446408D01*
X640654Y453814D02*
Y444927D01*
X643616Y447889D01*
X646579Y444927D01*
Y453814D01*
X649541Y452333D02*
X651022Y453814D01*
X653985D01*
X655466Y452333D01*
Y450851D01*
X653985Y449370D01*
X652504D01*
X653985D01*
X655466Y447889D01*
Y446408D01*
X653985Y444927D01*
X651022D01*
X649541Y446408D01*
X658428Y452333D02*
X659910Y453814D01*
X662872D01*
X664353Y452333D01*
Y446408D01*
X662872Y444927D01*
X659910D01*
X658428Y446408D01*
Y452333D01*
X673240Y444927D02*
X667316D01*
X673240Y450851D01*
Y452333D01*
X671759Y453814D01*
X668797D01*
X667316Y452333D01*
X98429Y615018D02*
X96948Y616499D01*
X93986D01*
X92505Y615018D01*
Y613537D01*
X93986Y612056D01*
X96948D01*
X98429Y610575D01*
Y609093D01*
X96948Y607612D01*
X93986D01*
X92505Y609093D01*
X101392Y616499D02*
Y607612D01*
X104354Y610575D01*
X107316Y607612D01*
Y616499D01*
X110279Y615018D02*
X111760Y616499D01*
X114722D01*
X116204Y615018D01*
Y613537D01*
X114722Y612056D01*
X113241D01*
X114722D01*
X116204Y610575D01*
Y609093D01*
X114722Y607612D01*
X111760D01*
X110279Y609093D01*
X119166Y615018D02*
X120647Y616499D01*
X123610D01*
X125091Y615018D01*
Y609093D01*
X123610Y607612D01*
X120647D01*
X119166Y609093D01*
Y615018D01*
X128053Y607612D02*
X131016D01*
X129534D01*
Y616499D01*
X128053Y615018D01*
X242789Y466936D02*
X241308Y468417D01*
X238346D01*
X236864Y466936D01*
Y465455D01*
X238346Y463974D01*
X241308D01*
X242789Y462493D01*
Y461011D01*
X241308Y459530D01*
X238346D01*
X236864Y461011D01*
X245751Y468417D02*
Y459530D01*
X248714Y462493D01*
X251676Y459530D01*
Y468417D01*
X254639Y466936D02*
X256120Y468417D01*
X259082D01*
X260563Y466936D01*
Y465455D01*
X259082Y463974D01*
X257601D01*
X259082D01*
X260563Y462493D01*
Y461011D01*
X259082Y459530D01*
X256120D01*
X254639Y461011D01*
X263526Y466936D02*
X265007Y468417D01*
X267969D01*
X269450Y466936D01*
Y461011D01*
X267969Y459530D01*
X265007D01*
X263526Y461011D01*
Y466936D01*
X272413D02*
X273894Y468417D01*
X276856D01*
X278338Y466936D01*
Y461011D01*
X276856Y459530D01*
X273894D01*
X272413Y461011D01*
Y466936D01*
X822647Y401956D02*
Y410844D01*
X827091D01*
X828572Y409362D01*
Y406400D01*
X827091Y404919D01*
X822647D01*
X825610D02*
X828572Y401956D01*
X831535Y409362D02*
X833016Y410844D01*
X835978D01*
X837459Y409362D01*
Y407881D01*
X835978Y406400D01*
X834497D01*
X835978D01*
X837459Y404919D01*
Y403438D01*
X835978Y401956D01*
X833016D01*
X831535Y403438D01*
X840422Y401956D02*
X843384D01*
X841903D01*
Y410844D01*
X840422Y409362D01*
X853753Y401956D02*
X847828D01*
X853753Y407881D01*
Y409362D01*
X852271Y410844D01*
X849309D01*
X847828Y409362D01*
X253629Y630556D02*
Y639444D01*
X258072D01*
X259554Y637962D01*
Y635000D01*
X258072Y633519D01*
X253629D01*
X256591D02*
X259554Y630556D01*
X262516Y637962D02*
X263997Y639444D01*
X266959D01*
X268441Y637962D01*
Y636481D01*
X266959Y635000D01*
X265478D01*
X266959D01*
X268441Y633519D01*
Y632038D01*
X266959Y630556D01*
X263997D01*
X262516Y632038D01*
X271403Y630556D02*
X274365D01*
X272884D01*
Y639444D01*
X271403Y637962D01*
X278809Y630556D02*
X281771D01*
X280290D01*
Y639444D01*
X278809Y637962D01*
X752209Y363856D02*
Y372744D01*
X756653D01*
X758134Y371262D01*
Y368300D01*
X756653Y366819D01*
X752209D01*
X755171D02*
X758134Y363856D01*
X761096Y371262D02*
X762577Y372744D01*
X765540D01*
X767021Y371262D01*
Y369781D01*
X765540Y368300D01*
X764059D01*
X765540D01*
X767021Y366819D01*
Y365338D01*
X765540Y363856D01*
X762577D01*
X761096Y365338D01*
X769983Y363856D02*
X772946D01*
X771464D01*
Y372744D01*
X769983Y371262D01*
X777389D02*
X778870Y372744D01*
X781833D01*
X783314Y371262D01*
Y365338D01*
X781833Y363856D01*
X778870D01*
X777389Y365338D01*
Y371262D01*
X222884Y521407D02*
X213996D01*
Y525850D01*
X215478Y527332D01*
X218440D01*
X219921Y525850D01*
Y521407D01*
Y524369D02*
X222884Y527332D01*
X215478Y530294D02*
X213996Y531775D01*
Y534738D01*
X215478Y536219D01*
X216959D01*
X218440Y534738D01*
Y533256D01*
Y534738D01*
X219921Y536219D01*
X221402D01*
X222884Y534738D01*
Y531775D01*
X221402Y530294D01*
X215478Y539181D02*
X213996Y540662D01*
Y543625D01*
X215478Y545106D01*
X221402D01*
X222884Y543625D01*
Y540662D01*
X221402Y539181D01*
X215478D01*
X221402Y548068D02*
X222884Y549549D01*
Y552512D01*
X221402Y553993D01*
X215478D01*
X213996Y552512D01*
Y549549D01*
X215478Y548068D01*
X216959D01*
X218440Y549549D01*
Y553993D01*
X593609Y401807D02*
X584722D01*
Y406250D01*
X586203Y407732D01*
X589165D01*
X590646Y406250D01*
Y401807D01*
Y404769D02*
X593609Y407732D01*
X586203Y410694D02*
X584722Y412175D01*
Y415138D01*
X586203Y416619D01*
X587684D01*
X589165Y415138D01*
Y413656D01*
Y415138D01*
X590646Y416619D01*
X592128D01*
X593609Y415138D01*
Y412175D01*
X592128Y410694D01*
X586203Y419581D02*
X584722Y421062D01*
Y424025D01*
X586203Y425506D01*
X592128D01*
X593609Y424025D01*
Y421062D01*
X592128Y419581D01*
X586203D01*
Y428468D02*
X584722Y429949D01*
Y432912D01*
X586203Y434393D01*
X587684D01*
X589165Y432912D01*
X590646Y434393D01*
X592128D01*
X593609Y432912D01*
Y429949D01*
X592128Y428468D01*
X590646D01*
X589165Y429949D01*
X587684Y428468D01*
X586203D01*
X589165Y429949D02*
Y432912D01*
X243204Y552667D02*
X234316D01*
Y557110D01*
X235798Y558592D01*
X238760D01*
X240241Y557110D01*
Y552667D01*
Y555629D02*
X243204Y558592D01*
X235798Y561554D02*
X234316Y563035D01*
Y565998D01*
X235798Y567479D01*
X237279D01*
X238760Y565998D01*
Y564516D01*
Y565998D01*
X240241Y567479D01*
X241722D01*
X243204Y565998D01*
Y563035D01*
X241722Y561554D01*
X235798Y570441D02*
X234316Y571922D01*
Y574885D01*
X235798Y576366D01*
X241722D01*
X243204Y574885D01*
Y571922D01*
X241722Y570441D01*
X235798D01*
X234316Y579328D02*
Y585253D01*
X235798D01*
X241722Y579328D01*
X243204D01*
X40004Y569407D02*
X31116D01*
Y573851D01*
X32598Y575332D01*
X35560D01*
X37041Y573851D01*
Y569407D01*
Y572369D02*
X40004Y575332D01*
X32598Y578294D02*
X31116Y579775D01*
Y582738D01*
X32598Y584219D01*
X34079D01*
X35560Y582738D01*
Y581256D01*
Y582738D01*
X37041Y584219D01*
X38522D01*
X40004Y582738D01*
Y579775D01*
X38522Y578294D01*
X32598Y587181D02*
X31116Y588662D01*
Y591625D01*
X32598Y593106D01*
X38522D01*
X40004Y591625D01*
Y588662D01*
X38522Y587181D01*
X32598D01*
X31116Y601993D02*
X32598Y599031D01*
X35560Y596068D01*
X38522D01*
X40004Y597550D01*
Y600512D01*
X38522Y601993D01*
X37041D01*
X35560Y600512D01*
Y596068D01*
X299743Y542507D02*
X290856D01*
Y546950D01*
X292338Y548432D01*
X295300D01*
X296781Y546950D01*
Y542507D01*
Y545469D02*
X299743Y548432D01*
X292338Y551394D02*
X290856Y552875D01*
Y555838D01*
X292338Y557319D01*
X293819D01*
X295300Y555838D01*
Y554356D01*
Y555838D01*
X296781Y557319D01*
X298262D01*
X299743Y555838D01*
Y552875D01*
X298262Y551394D01*
X292338Y560281D02*
X290856Y561762D01*
Y564725D01*
X292338Y566206D01*
X298262D01*
X299743Y564725D01*
Y561762D01*
X298262Y560281D01*
X292338D01*
X290856Y575093D02*
Y569168D01*
X295300D01*
X293819Y572131D01*
Y573612D01*
X295300Y575093D01*
X298262D01*
X299743Y573612D01*
Y570649D01*
X298262Y569168D01*
X620394Y239907D02*
X611506D01*
Y244350D01*
X612988Y245832D01*
X615950D01*
X617431Y244350D01*
Y239907D01*
Y242869D02*
X620394Y245832D01*
X612988Y248794D02*
X611506Y250275D01*
Y253238D01*
X612988Y254719D01*
X614469D01*
X615950Y253238D01*
Y251756D01*
Y253238D01*
X617431Y254719D01*
X618912D01*
X620394Y253238D01*
Y250275D01*
X618912Y248794D01*
X612988Y257681D02*
X611506Y259162D01*
Y262125D01*
X612988Y263606D01*
X618912D01*
X620394Y262125D01*
Y259162D01*
X618912Y257681D01*
X612988D01*
X620394Y271012D02*
X611506D01*
X615950Y266568D01*
Y272493D01*
X437187Y407036D02*
Y415924D01*
X441630D01*
X443111Y414442D01*
Y411480D01*
X441630Y409999D01*
X437187D01*
X440149D02*
X443111Y407036D01*
X446074Y414442D02*
X447555Y415924D01*
X450517D01*
X451998Y414442D01*
Y412961D01*
X450517Y411480D01*
X449036D01*
X450517D01*
X451998Y409999D01*
Y408518D01*
X450517Y407036D01*
X447555D01*
X446074Y408518D01*
X454961Y414442D02*
X456442Y415924D01*
X459404D01*
X460886Y414442D01*
Y408518D01*
X459404Y407036D01*
X456442D01*
X454961Y408518D01*
Y414442D01*
X463848D02*
X465329Y415924D01*
X468292D01*
X469773Y414442D01*
Y412961D01*
X468292Y411480D01*
X466810D01*
X468292D01*
X469773Y409999D01*
Y408518D01*
X468292Y407036D01*
X465329D01*
X463848Y408518D01*
X457923Y353007D02*
X449036D01*
Y357450D01*
X450517Y358932D01*
X453480D01*
X454961Y357450D01*
Y353007D01*
Y355969D02*
X457923Y358932D01*
X450517Y361894D02*
X449036Y363375D01*
Y366338D01*
X450517Y367819D01*
X451998D01*
X453480Y366338D01*
Y364856D01*
Y366338D01*
X454961Y367819D01*
X456442D01*
X457923Y366338D01*
Y363375D01*
X456442Y361894D01*
X450517Y370781D02*
X449036Y372262D01*
Y375225D01*
X450517Y376706D01*
X456442D01*
X457923Y375225D01*
Y372262D01*
X456442Y370781D01*
X450517D01*
X457923Y385593D02*
Y379668D01*
X451998Y385593D01*
X450517D01*
X449036Y384112D01*
Y381149D01*
X450517Y379668D01*
X333838Y387307D02*
Y396194D01*
X338282D01*
X339763Y394712D01*
Y391750D01*
X338282Y390269D01*
X333838D01*
X336800D02*
X339763Y387307D01*
X342725Y394712D02*
X344206Y396194D01*
X347169D01*
X348650Y394712D01*
Y393231D01*
X347169Y391750D01*
X345688D01*
X347169D01*
X348650Y390269D01*
Y388788D01*
X347169Y387307D01*
X344206D01*
X342725Y388788D01*
X351612Y394712D02*
X353094Y396194D01*
X356056D01*
X357537Y394712D01*
Y388788D01*
X356056Y387307D01*
X353094D01*
X351612Y388788D01*
Y394712D01*
X360499Y387307D02*
X363462D01*
X361981D01*
Y396194D01*
X360499Y394712D01*
X486834Y352733D02*
X477947D01*
Y357177D01*
X479429Y358658D01*
X482391D01*
X483872Y357177D01*
Y352733D01*
Y355695D02*
X486834Y358658D01*
X479429Y361620D02*
X477947Y363101D01*
Y366064D01*
X479429Y367545D01*
X480910D01*
X482391Y366064D01*
Y364582D01*
Y366064D01*
X483872Y367545D01*
X485353D01*
X486834Y366064D01*
Y363101D01*
X485353Y361620D01*
X479429Y370507D02*
X477947Y371988D01*
Y374951D01*
X479429Y376432D01*
X485353D01*
X486834Y374951D01*
Y371988D01*
X485353Y370507D01*
X479429D01*
Y379394D02*
X477947Y380876D01*
Y383838D01*
X479429Y385319D01*
X485353D01*
X486834Y383838D01*
Y380876D01*
X485353Y379394D01*
X479429D01*
X263952Y347558D02*
Y353482D01*
X262470Y354964D01*
X259508D01*
X258027Y353482D01*
Y347558D01*
X259508Y346076D01*
X262470D01*
X260989Y349039D02*
X263952Y346076D01*
X262470D02*
X263952Y347558D01*
X266914Y353482D02*
X268395Y354964D01*
X271358D01*
X272839Y353482D01*
Y352001D01*
X271358Y350520D01*
X269876D01*
X271358D01*
X272839Y349039D01*
Y347558D01*
X271358Y346076D01*
X268395D01*
X266914Y347558D01*
X275801Y353482D02*
X277282Y354964D01*
X280245D01*
X281726Y353482D01*
Y347558D01*
X280245Y346076D01*
X277282D01*
X275801Y347558D01*
Y353482D01*
X284688D02*
X286169Y354964D01*
X289132D01*
X290613Y353482D01*
Y347558D01*
X289132Y346076D01*
X286169D01*
X284688Y347558D01*
Y353482D01*
X9107Y473076D02*
Y481964D01*
X13550D01*
X15032Y480482D01*
Y477520D01*
X13550Y476039D01*
X9107D01*
X23919Y473076D02*
X17994D01*
X23919Y479001D01*
Y480482D01*
X22438Y481964D01*
X19475D01*
X17994Y480482D01*
X26881D02*
X28362Y481964D01*
X31325D01*
X32806Y480482D01*
Y474558D01*
X31325Y473076D01*
X28362D01*
X26881Y474558D01*
Y480482D01*
X35768D02*
X37250Y481964D01*
X40212D01*
X41693Y480482D01*
Y474558D01*
X40212Y473076D01*
X37250D01*
X35768Y474558D01*
Y480482D01*
X800320Y449370D02*
Y440483D01*
X806245D01*
X815132Y449370D02*
X809207D01*
Y440483D01*
X815132D01*
X809207Y444927D02*
X812169D01*
X818094Y449370D02*
Y440483D01*
X822538D01*
X824019Y441964D01*
Y447889D01*
X822538Y449370D01*
X818094D01*
X826981Y447889D02*
X828462Y449370D01*
X831425D01*
X832906Y447889D01*
Y446408D01*
X831425Y444927D01*
X829944D01*
X831425D01*
X832906Y443446D01*
Y441964D01*
X831425Y440483D01*
X828462D01*
X826981Y441964D01*
X835868Y447889D02*
X837349Y449370D01*
X840312D01*
X841793Y447889D01*
Y441964D01*
X840312Y440483D01*
X837349D01*
X835868Y441964D01*
Y447889D01*
X850680Y440483D02*
X844755D01*
X850680Y446408D01*
Y447889D01*
X849199Y449370D01*
X846237D01*
X844755Y447889D01*
X242001Y614044D02*
Y605156D01*
X247926D01*
X256813Y614044D02*
X250888D01*
Y605156D01*
X256813D01*
X250888Y609600D02*
X253850D01*
X259775Y614044D02*
Y605156D01*
X264219D01*
X265700Y606638D01*
Y612562D01*
X264219Y614044D01*
X259775D01*
X268662Y612562D02*
X270144Y614044D01*
X273106D01*
X274587Y612562D01*
Y611081D01*
X273106Y609600D01*
X271625D01*
X273106D01*
X274587Y608119D01*
Y606638D01*
X273106Y605156D01*
X270144D01*
X268662Y606638D01*
X277549Y612562D02*
X279031Y614044D01*
X281993D01*
X283474Y612562D01*
Y606638D01*
X281993Y605156D01*
X279031D01*
X277549Y606638D01*
Y612562D01*
X286437Y605156D02*
X289399D01*
X287918D01*
Y614044D01*
X286437Y612562D01*
X589165Y306944D02*
Y298057D01*
X595090D01*
X603977Y306944D02*
X598052D01*
Y298057D01*
X603977D01*
X598052Y302500D02*
X601015D01*
X606940Y306944D02*
Y298057D01*
X611383D01*
X612864Y299538D01*
Y305462D01*
X611383Y306944D01*
X606940D01*
X615827Y305462D02*
X617308Y306944D01*
X620270D01*
X621751Y305462D01*
Y303981D01*
X620270Y302500D01*
X618789D01*
X620270D01*
X621751Y301019D01*
Y299538D01*
X620270Y298057D01*
X617308D01*
X615827Y299538D01*
X624714Y305462D02*
X626195Y306944D01*
X629157D01*
X630639Y305462D01*
Y299538D01*
X629157Y298057D01*
X626195D01*
X624714Y299538D01*
Y305462D01*
X633601D02*
X635082Y306944D01*
X638044D01*
X639526Y305462D01*
Y299538D01*
X638044Y298057D01*
X635082D01*
X633601Y299538D01*
Y305462D01*
X370707Y213994D02*
Y205106D01*
X376632D01*
X379594Y212512D02*
X381075Y213994D01*
X384038D01*
X385519Y212512D01*
Y211031D01*
X384038Y209550D01*
X382556D01*
X384038D01*
X385519Y208069D01*
Y206588D01*
X384038Y205106D01*
X381075D01*
X379594Y206588D01*
X388481Y212512D02*
X389962Y213994D01*
X392925D01*
X394406Y212512D01*
Y206588D01*
X392925Y205106D01*
X389962D01*
X388481Y206588D01*
Y212512D01*
X397368D02*
X398849Y213994D01*
X401812D01*
X403293Y212512D01*
Y206588D01*
X401812Y205106D01*
X398849D01*
X397368Y206588D01*
Y212512D01*
X102581Y176825D02*
X99619D01*
X101100D01*
Y169419D01*
X99619Y167938D01*
X98138D01*
X96656Y169419D01*
X111468Y167938D02*
X105543D01*
X111468Y173863D01*
Y175344D01*
X109987Y176825D01*
X107025D01*
X105543Y175344D01*
X114431D02*
X115912Y176825D01*
X118874D01*
X120355Y175344D01*
Y169419D01*
X118874Y167938D01*
X115912D01*
X114431Y169419D01*
Y175344D01*
X127761Y167938D02*
Y176825D01*
X123318Y172382D01*
X129242D01*
X307559Y176825D02*
X304597D01*
X306078D01*
Y169419D01*
X304597Y167938D01*
X303116D01*
X301634Y169419D01*
X316446Y167938D02*
X310522D01*
X316446Y173863D01*
Y175344D01*
X314965Y176825D01*
X312003D01*
X310522Y175344D01*
X319409D02*
X320890Y176825D01*
X323852D01*
X325333Y175344D01*
Y169419D01*
X323852Y167938D01*
X320890D01*
X319409Y169419D01*
Y175344D01*
X328296D02*
X329777Y176825D01*
X332739D01*
X334221Y175344D01*
Y173863D01*
X332739Y172382D01*
X331258D01*
X332739D01*
X334221Y170901D01*
Y169419D01*
X332739Y167938D01*
X329777D01*
X328296Y169419D01*
X542001Y176825D02*
X539039D01*
X540520D01*
Y169419D01*
X539039Y167938D01*
X537557D01*
X536076Y169419D01*
X550888Y167938D02*
X544963D01*
X550888Y173863D01*
Y175344D01*
X549407Y176825D01*
X546445D01*
X544963Y175344D01*
X553851D02*
X555332Y176825D01*
X558294D01*
X559775Y175344D01*
Y169419D01*
X558294Y167938D01*
X555332D01*
X553851Y169419D01*
Y175344D01*
X562738Y167938D02*
X565700D01*
X564219D01*
Y176825D01*
X562738Y175344D01*
X942132Y149012D02*
X940650Y150494D01*
X937688D01*
X936207Y149012D01*
Y143088D01*
X937688Y141606D01*
X940650D01*
X942132Y143088D01*
Y146050D01*
X939169D01*
X945094Y141606D02*
Y150494D01*
X951019Y141606D01*
Y150494D01*
X953981D02*
Y141606D01*
X958425D01*
X959906Y143088D01*
Y149012D01*
X958425Y150494D01*
X953981D01*
X962868Y149012D02*
X964350Y150494D01*
X967312D01*
X968793Y149012D01*
Y147531D01*
X967312Y146050D01*
X965831D01*
X967312D01*
X968793Y144569D01*
Y143088D01*
X967312Y141606D01*
X964350D01*
X962868Y143088D01*
X939592Y907456D02*
X938111Y908938D01*
X935148D01*
X933667Y907456D01*
Y901532D01*
X935148Y900050D01*
X938111D01*
X939592Y901532D01*
Y904494D01*
X936629D01*
X942554Y900050D02*
Y908938D01*
X948479Y900050D01*
Y908938D01*
X951441D02*
Y900050D01*
X955885D01*
X957366Y901532D01*
Y907456D01*
X955885Y908938D01*
X951441D01*
X966253Y900050D02*
X960328D01*
X966253Y905975D01*
Y907456D01*
X964772Y908938D01*
X961809D01*
X960328Y907456D01*
X46955Y897974D02*
X45474Y899455D01*
X42512D01*
X41030Y897974D01*
Y892049D01*
X42512Y890568D01*
X45474D01*
X46955Y892049D01*
Y895012D01*
X43993D01*
X49917Y890568D02*
Y899455D01*
X55842Y890568D01*
Y899455D01*
X58805D02*
Y890568D01*
X63248D01*
X64729Y892049D01*
Y897974D01*
X63248Y899455D01*
X58805D01*
X67692Y890568D02*
X70654D01*
X69173D01*
Y899455D01*
X67692Y897974D01*
X40432Y149012D02*
X38951Y150494D01*
X35988D01*
X34507Y149012D01*
Y143088D01*
X35988Y141606D01*
X38951D01*
X40432Y143088D01*
Y146050D01*
X37469D01*
X43394Y141606D02*
Y150494D01*
X49319Y141606D01*
Y150494D01*
X52281D02*
Y141606D01*
X56725D01*
X58206Y143088D01*
Y149012D01*
X56725Y150494D01*
X52281D01*
X61168Y149012D02*
X62649Y150494D01*
X65612D01*
X67093Y149012D01*
Y143088D01*
X65612Y141606D01*
X62649D01*
X61168Y143088D01*
Y149012D01*
X315596Y237707D02*
X324484D01*
Y242150D01*
X323002Y243632D01*
X317078D01*
X315596Y242150D01*
Y237707D01*
X317078Y246594D02*
X315596Y248075D01*
Y251038D01*
X317078Y252519D01*
X318559D01*
X320040Y251038D01*
Y249556D01*
Y251038D01*
X321521Y252519D01*
X323002D01*
X324484Y251038D01*
Y248075D01*
X323002Y246594D01*
X317078Y255481D02*
X315596Y256962D01*
Y259925D01*
X317078Y261406D01*
X323002D01*
X324484Y259925D01*
Y256962D01*
X323002Y255481D01*
X317078D01*
Y264368D02*
X315596Y265849D01*
Y268812D01*
X317078Y270293D01*
X323002D01*
X324484Y268812D01*
Y265849D01*
X323002Y264368D01*
X317078D01*
X757393Y330538D02*
X755912Y332019D01*
X752950D01*
X751468Y330538D01*
Y324613D01*
X752950Y323132D01*
X755912D01*
X757393Y324613D01*
X760356Y330538D02*
X761837Y332019D01*
X764799D01*
X766280Y330538D01*
Y329057D01*
X764799Y327576D01*
X763318D01*
X764799D01*
X766280Y326095D01*
Y324613D01*
X764799Y323132D01*
X761837D01*
X760356Y324613D01*
X769243Y330538D02*
X770724Y332019D01*
X773686D01*
X775167Y330538D01*
Y324613D01*
X773686Y323132D01*
X770724D01*
X769243Y324613D01*
Y330538D01*
X778130D02*
X779611Y332019D01*
X782573D01*
X784054Y330538D01*
Y329057D01*
X782573Y327576D01*
X784054Y326095D01*
Y324613D01*
X782573Y323132D01*
X779611D01*
X778130Y324613D01*
Y326095D01*
X779611Y327576D01*
X778130Y329057D01*
Y330538D01*
X779611Y327576D02*
X782573D01*
X663788Y240753D02*
X662306Y239272D01*
Y236310D01*
X663788Y234829D01*
X669712D01*
X671194Y236310D01*
Y239272D01*
X669712Y240753D01*
X663788Y243716D02*
X662306Y245197D01*
Y248159D01*
X663788Y249641D01*
X665269D01*
X666750Y248159D01*
Y246678D01*
Y248159D01*
X668231Y249641D01*
X669712D01*
X671194Y248159D01*
Y245197D01*
X669712Y243716D01*
X663788Y252603D02*
X662306Y254084D01*
Y257047D01*
X663788Y258528D01*
X669712D01*
X671194Y257047D01*
Y254084D01*
X669712Y252603D01*
X663788D01*
X662306Y261490D02*
Y267415D01*
X663788D01*
X669712Y261490D01*
X671194D01*
X464398Y325232D02*
X462916Y323750D01*
Y320788D01*
X464398Y319307D01*
X470322D01*
X471804Y320788D01*
Y323750D01*
X470322Y325232D01*
X464398Y328194D02*
X462916Y329675D01*
Y332638D01*
X464398Y334119D01*
X465879D01*
X467360Y332638D01*
Y331156D01*
Y332638D01*
X468841Y334119D01*
X470322D01*
X471804Y332638D01*
Y329675D01*
X470322Y328194D01*
X464398Y337081D02*
X462916Y338562D01*
Y341525D01*
X464398Y343006D01*
X470322D01*
X471804Y341525D01*
Y338562D01*
X470322Y337081D01*
X464398D01*
X462916Y351893D02*
X464398Y348931D01*
X467360Y345968D01*
X470322D01*
X471804Y347449D01*
Y350412D01*
X470322Y351893D01*
X468841D01*
X467360Y350412D01*
Y345968D01*
X393916Y379362D02*
X392435Y380844D01*
X389473D01*
X387991Y379362D01*
Y373438D01*
X389473Y371956D01*
X392435D01*
X393916Y373438D01*
X396879Y379362D02*
X398360Y380844D01*
X401322D01*
X402803Y379362D01*
Y377881D01*
X401322Y376400D01*
X399841D01*
X401322D01*
X402803Y374919D01*
Y373438D01*
X401322Y371956D01*
X398360D01*
X396879Y373438D01*
X405766Y379362D02*
X407247Y380844D01*
X410209D01*
X411690Y379362D01*
Y373438D01*
X410209Y371956D01*
X407247D01*
X405766Y373438D01*
Y379362D01*
X420578Y380844D02*
X414653D01*
Y376400D01*
X417615Y377881D01*
X419096D01*
X420578Y376400D01*
Y373438D01*
X419096Y371956D01*
X416134D01*
X414653Y373438D01*
X438998Y249432D02*
X437516Y247950D01*
Y244988D01*
X438998Y243507D01*
X444922D01*
X446404Y244988D01*
Y247950D01*
X444922Y249432D01*
X438998Y252394D02*
X437516Y253875D01*
Y256838D01*
X438998Y258319D01*
X440479D01*
X441960Y256838D01*
Y255357D01*
Y256838D01*
X443441Y258319D01*
X444922D01*
X446404Y256838D01*
Y253875D01*
X444922Y252394D01*
X438998Y261281D02*
X437516Y262762D01*
Y265725D01*
X438998Y267206D01*
X444922D01*
X446404Y265725D01*
Y262762D01*
X444922Y261281D01*
X438998D01*
X446404Y274612D02*
X437516D01*
X441960Y270168D01*
Y276093D01*
X474985Y251082D02*
X473504Y249601D01*
Y246638D01*
X474985Y245157D01*
X480910D01*
X482391Y246638D01*
Y249601D01*
X480910Y251082D01*
X474985Y254044D02*
X473504Y255525D01*
Y258488D01*
X474985Y259969D01*
X476466D01*
X477947Y258488D01*
Y257006D01*
Y258488D01*
X479429Y259969D01*
X480910D01*
X482391Y258488D01*
Y255525D01*
X480910Y254044D01*
X474985Y262931D02*
X473504Y264412D01*
Y267375D01*
X474985Y268856D01*
X480910D01*
X482391Y267375D01*
Y264412D01*
X480910Y262931D01*
X474985D01*
Y271818D02*
X473504Y273300D01*
Y276262D01*
X474985Y277743D01*
X476466D01*
X477947Y276262D01*
Y274781D01*
Y276262D01*
X479429Y277743D01*
X480910D01*
X482391Y276262D01*
Y273300D01*
X480910Y271818D01*
X454238Y287688D02*
X452756Y286207D01*
Y283245D01*
X454238Y281763D01*
X460162D01*
X461644Y283245D01*
Y286207D01*
X460162Y287688D01*
X454238Y290651D02*
X452756Y292132D01*
Y295094D01*
X454238Y296575D01*
X455719D01*
X457200Y295094D01*
Y293613D01*
Y295094D01*
X458681Y296575D01*
X460162D01*
X461644Y295094D01*
Y292132D01*
X460162Y290651D01*
X454238Y299538D02*
X452756Y301019D01*
Y303981D01*
X454238Y305462D01*
X460162D01*
X461644Y303981D01*
Y301019D01*
X460162Y299538D01*
X454238D01*
X461644Y314349D02*
Y308425D01*
X455719Y314349D01*
X454238D01*
X452756Y312868D01*
Y309906D01*
X454238Y308425D01*
X309672Y297602D02*
X308190Y299084D01*
X305228D01*
X303747Y297602D01*
Y291678D01*
X305228Y290196D01*
X308190D01*
X309672Y291678D01*
X312634Y297602D02*
X314115Y299084D01*
X317078D01*
X318559Y297602D01*
Y296121D01*
X317078Y294640D01*
X315596D01*
X317078D01*
X318559Y293159D01*
Y291678D01*
X317078Y290196D01*
X314115D01*
X312634Y291678D01*
X321521Y297602D02*
X323002Y299084D01*
X325965D01*
X327446Y297602D01*
Y291678D01*
X325965Y290196D01*
X323002D01*
X321521Y291678D01*
Y297602D01*
X330408D02*
X331889Y299084D01*
X334852D01*
X336333Y297602D01*
Y291678D01*
X334852Y290196D01*
X331889D01*
X330408Y291678D01*
Y297602D01*
X548881Y228144D02*
X542956D01*
Y223700D01*
X545918Y225181D01*
X547399D01*
X548881Y223700D01*
Y220738D01*
X547399Y219256D01*
X544437D01*
X542956Y220738D01*
X551843Y219256D02*
Y220738D01*
X553324D01*
Y219256D01*
X551843D01*
X559249Y226662D02*
X560730Y228144D01*
X563692D01*
X565174Y226662D01*
Y220738D01*
X563692Y219256D01*
X560730D01*
X559249Y220738D01*
Y226662D01*
X568136Y228144D02*
Y222219D01*
X571098Y219256D01*
X574061Y222219D01*
Y228144D01*
X805951Y366819D02*
X807432Y368300D01*
X810395D01*
X811876Y366819D01*
Y365338D01*
X810395Y363856D01*
X808913D01*
X810395D01*
X811876Y362375D01*
Y360894D01*
X810395Y359413D01*
X807432D01*
X805951Y360894D01*
X814838Y359413D02*
Y360894D01*
X816319D01*
Y359413D01*
X814838D01*
X822244Y366819D02*
X823725Y368300D01*
X826688D01*
X828169Y366819D01*
Y365338D01*
X826688Y363856D01*
X825207D01*
X826688D01*
X828169Y362375D01*
Y360894D01*
X826688Y359413D01*
X823725D01*
X822244Y360894D01*
X831131Y368300D02*
Y362375D01*
X834094Y359413D01*
X837056Y362375D01*
Y368300D01*
M02*
