G04*
G04 #@! TF.GenerationSoftware,Altium Limited,Altium Designer,23.7.1 (13)*
G04*
G04 Layer_Color=16711935*
%FSLAX44Y44*%
%MOMM*%
G71*
G04*
G04 #@! TF.SameCoordinates,0BEFCA26-5C96-4926-A50D-4D7A3FA2ED98*
G04*
G04*
G04 #@! TF.FilePolarity,Negative*
G04*
G01*
G75*
%ADD59R,1.7032X1.7032*%
%ADD60C,1.7032*%
%ADD61C,1.3900*%
%ADD62R,1.3900X1.3900*%
%ADD63C,3.2500*%
%ADD64C,2.2352*%
%ADD66C,1.2032*%
%ADD74C,4.5212*%
D59*
X513080Y956033D02*
D03*
D60*
Y930634D02*
D03*
Y905234D02*
D03*
Y879834D02*
D03*
D61*
X411480Y900430D02*
D03*
X401320Y918210D02*
D03*
X391160Y900430D02*
D03*
X381000Y918210D02*
D03*
X370840Y900430D02*
D03*
X360680Y918210D02*
D03*
X350520Y900430D02*
D03*
X843280Y101600D02*
D03*
X833120Y83820D02*
D03*
X822960Y101600D02*
D03*
X812800Y83820D02*
D03*
X802640Y101600D02*
D03*
X792480Y83820D02*
D03*
X782320Y101600D02*
D03*
X642620D02*
D03*
X632460Y83820D02*
D03*
X622300Y101600D02*
D03*
X612140Y83820D02*
D03*
X601980Y101600D02*
D03*
X591820Y83820D02*
D03*
X581660Y101600D02*
D03*
X408250D02*
D03*
X398090Y83820D02*
D03*
X387930Y101600D02*
D03*
X377770Y83820D02*
D03*
X367610Y101600D02*
D03*
X357450Y83820D02*
D03*
X347290Y101600D02*
D03*
X203200D02*
D03*
X193040Y83820D02*
D03*
X182880Y101600D02*
D03*
X172720Y83820D02*
D03*
X162560Y101600D02*
D03*
X152400Y83820D02*
D03*
X142240Y101600D02*
D03*
D62*
X340360Y918210D02*
D03*
X853440Y83820D02*
D03*
X652780D02*
D03*
X418410D02*
D03*
X213360D02*
D03*
D63*
X312420Y943610D02*
D03*
X439420D02*
D03*
X754380Y58420D02*
D03*
X881380D02*
D03*
X553720D02*
D03*
X680720D02*
D03*
X319350D02*
D03*
X446350D02*
D03*
X114300D02*
D03*
X241300D02*
D03*
D64*
X138697Y419100D02*
D03*
X76200Y419100D02*
D03*
X108699Y371602D02*
D03*
D66*
X482600Y955244D02*
D03*
Y900430D02*
D03*
X81280Y527050D02*
D03*
X171450D02*
D03*
X926410Y114300D02*
D03*
X76200D02*
D03*
Y863600D02*
D03*
X927317Y876300D02*
D03*
X768350Y450850D02*
D03*
X793750Y393700D02*
D03*
X728004Y361950D02*
D03*
X635000D02*
D03*
X728004Y304800D02*
D03*
X593640Y247650D02*
D03*
X535470Y285750D02*
D03*
X482600Y400050D02*
D03*
X469900Y336550D02*
D03*
X381000Y368300D02*
D03*
X317500Y342900D02*
D03*
X425504Y235582D02*
D03*
X317500Y228600D02*
D03*
X215900Y622300D02*
D03*
X234950Y546100D02*
D03*
D74*
X50000Y950000D02*
D03*
X950000D02*
D03*
X50000Y50000D02*
D03*
X950000Y48575D02*
D03*
M02*
