G04*
G04 #@! TF.GenerationSoftware,Altium Limited,Altium Designer,23.7.1 (13)*
G04*
G04 Layer_Color=8421504*
%FSLAX44Y44*%
%MOMM*%
G71*
G04*
G04 #@! TF.SameCoordinates,0BEFCA26-5C96-4926-A50D-4D7A3FA2ED98*
G04*
G04*
G04 #@! TF.FilePolarity,Positive*
G04*
G01*
G75*
%ADD18R,2.0300X3.8000*%
%ADD19R,1.3500X1.0000*%
%ADD20R,2.1000X1.4000*%
%ADD21R,0.5080X1.3000*%
%ADD22R,0.5080X1.3000*%
%ADD23R,0.8000X1.2500*%
%ADD24R,1.1000X1.2000*%
%ADD25R,1.5000X1.4000*%
%ADD26R,3.8000X2.0300*%
%ADD27R,1.7000X2.5000*%
%ADD28R,0.6000X1.4500*%
%ADD29R,1.3500X0.9500*%
G04:AMPARAMS|DCode=30|XSize=0.6mm|YSize=1.45mm|CornerRadius=0.051mm|HoleSize=0mm|Usage=FLASHONLY|Rotation=270.000|XOffset=0mm|YOffset=0mm|HoleType=Round|Shape=RoundedRectangle|*
%AMROUNDEDRECTD30*
21,1,0.6000,1.3480,0,0,270.0*
21,1,0.4980,1.4500,0,0,270.0*
1,1,0.1020,-0.6740,-0.2490*
1,1,0.1020,-0.6740,0.2490*
1,1,0.1020,0.6740,0.2490*
1,1,0.1020,0.6740,-0.2490*
%
%ADD30ROUNDEDRECTD30*%
%ADD31R,1.1500X1.4000*%
%ADD32R,0.8065X1.3082*%
%ADD33R,1.3082X0.8065*%
%ADD34R,1.2000X1.4000*%
%ADD35R,1.4549X1.5562*%
%ADD36R,1.0000X1.3500*%
G04:AMPARAMS|DCode=37|XSize=3.25mm|YSize=2.05mm|CornerRadius=0.0513mm|HoleSize=0mm|Usage=FLASHONLY|Rotation=90.000|XOffset=0mm|YOffset=0mm|HoleType=Round|Shape=RoundedRectangle|*
%AMROUNDEDRECTD37*
21,1,3.2500,1.9475,0,0,90.0*
21,1,3.1475,2.0500,0,0,90.0*
1,1,0.1025,0.9738,1.5738*
1,1,0.1025,0.9738,-1.5738*
1,1,0.1025,-0.9738,-1.5738*
1,1,0.1025,-0.9738,1.5738*
%
%ADD37ROUNDEDRECTD37*%
G04:AMPARAMS|DCode=38|XSize=1mm|YSize=2.05mm|CornerRadius=0.05mm|HoleSize=0mm|Usage=FLASHONLY|Rotation=90.000|XOffset=0mm|YOffset=0mm|HoleType=Round|Shape=RoundedRectangle|*
%AMROUNDEDRECTD38*
21,1,1.0000,1.9500,0,0,90.0*
21,1,0.9000,2.0500,0,0,90.0*
1,1,0.1000,0.9750,0.4500*
1,1,0.1000,0.9750,-0.4500*
1,1,0.1000,-0.9750,-0.4500*
1,1,0.1000,-0.9750,0.4500*
%
%ADD38ROUNDEDRECTD38*%
%ADD39R,0.6000X1.2000*%
%ADD40R,2.5000X1.2000*%
%ADD41R,0.9500X1.3500*%
D18*
X952500Y876300D02*
D03*
X950000Y114300D02*
D03*
X50000D02*
D03*
X50800Y863600D02*
D03*
D19*
Y593200D02*
D03*
Y575200D02*
D03*
X254000Y550800D02*
D03*
Y568800D02*
D03*
X206400Y529700D02*
D03*
Y547700D02*
D03*
X342900Y377300D02*
D03*
Y359300D02*
D03*
X469900Y359300D02*
D03*
Y377300D02*
D03*
X606304Y428100D02*
D03*
Y410100D02*
D03*
D20*
X81500Y549000D02*
D03*
X172500D02*
D03*
X81500Y594000D02*
D03*
X172500D02*
D03*
X637004Y383900D02*
D03*
X728004D02*
D03*
X637004Y428900D02*
D03*
X728004D02*
D03*
D21*
X225400Y596200D02*
D03*
X777204Y431100D02*
D03*
D22*
X215900Y596200D02*
D03*
X206400D02*
D03*
Y572200D02*
D03*
X225400D02*
D03*
X777204Y407100D02*
D03*
X758204D02*
D03*
Y431100D02*
D03*
X767703D02*
D03*
D23*
X258700Y622300D02*
D03*
X274700D02*
D03*
X801504Y410100D02*
D03*
X817504D02*
D03*
X588900Y266700D02*
D03*
X604900D02*
D03*
D24*
X277200Y596200D02*
D03*
X256200D02*
D03*
X830504Y431100D02*
D03*
X809504D02*
D03*
X620100Y288400D02*
D03*
X599100D02*
D03*
D25*
X279400Y548800D02*
D03*
Y568800D02*
D03*
D26*
X266700Y520700D02*
D03*
X279400Y279400D02*
D03*
X822204Y381000D02*
D03*
X558800Y241300D02*
D03*
X203200Y406000D02*
D03*
D27*
X342900Y226700D02*
D03*
Y266700D02*
D03*
D28*
X279400Y312100D02*
D03*
X269900Y335600D02*
D03*
X288900D02*
D03*
D29*
X317500Y325000D02*
D03*
Y310000D02*
D03*
X436254Y297300D02*
D03*
Y312300D02*
D03*
X460547Y254323D02*
D03*
Y269323D02*
D03*
X425504Y254323D02*
D03*
Y269323D02*
D03*
X688854Y241300D02*
D03*
Y256300D02*
D03*
D30*
X353750Y336550D02*
D03*
Y323850D02*
D03*
Y311150D02*
D03*
Y298450D02*
D03*
X408250Y336550D02*
D03*
Y323850D02*
D03*
Y311150D02*
D03*
Y298450D02*
D03*
D31*
X412754Y359300D02*
D03*
X396754D02*
D03*
D32*
X444245Y398000D02*
D03*
X461262D02*
D03*
D33*
X438254Y376809D02*
D03*
Y359791D02*
D03*
D34*
X436254Y333600D02*
D03*
X452754D02*
D03*
X378754Y266700D02*
D03*
X396754D02*
D03*
D35*
X397010Y228600D02*
D03*
X378497D02*
D03*
D36*
X776704Y381000D02*
D03*
X758704D02*
D03*
D37*
X784104Y254000D02*
D03*
D38*
X720604Y231000D02*
D03*
Y254000D02*
D03*
Y277000D02*
D03*
D39*
X568300Y288400D02*
D03*
X549300D02*
D03*
X558800Y270400D02*
D03*
D40*
X249800Y406000D02*
D03*
X304800D02*
D03*
Y381000D02*
D03*
X249800D02*
D03*
Y431000D02*
D03*
X304800D02*
D03*
D41*
X772554Y304800D02*
D03*
X757554D02*
D03*
M02*
