G04*
G04 #@! TF.GenerationSoftware,Altium Limited,Altium Designer,23.7.1 (13)*
G04*
G04 Layer_Physical_Order=1*
G04 Layer_Color=255*
%FSLAX44Y44*%
%MOMM*%
G71*
G04*
G04 #@! TF.SameCoordinates,9BDE129D-A6D9-4E47-A380-7317F5008C5C*
G04*
G04*
G04 #@! TF.FilePolarity,Positive*
G04*
G01*
G75*
%ADD19C,0.2540*%
%ADD20R,0.9500X1.3500*%
G04:AMPARAMS|DCode=21|XSize=0.2mm|YSize=1.65mm|CornerRadius=0.029mm|HoleSize=0mm|Usage=FLASHONLY|Rotation=90.000|XOffset=0mm|YOffset=0mm|HoleType=Round|Shape=RoundedRectangle|*
%AMROUNDEDRECTD21*
21,1,0.2000,1.5920,0,0,90.0*
21,1,0.1420,1.6500,0,0,90.0*
1,1,0.0580,0.7960,0.0710*
1,1,0.0580,0.7960,-0.0710*
1,1,0.0580,-0.7960,-0.0710*
1,1,0.0580,-0.7960,0.0710*
%
%ADD21ROUNDEDRECTD21*%
G04:AMPARAMS|DCode=22|XSize=3.1mm|YSize=5.18mm|CornerRadius=0.0465mm|HoleSize=0mm|Usage=FLASHONLY|Rotation=0.000|XOffset=0mm|YOffset=0mm|HoleType=Round|Shape=RoundedRectangle|*
%AMROUNDEDRECTD22*
21,1,3.1000,5.0870,0,0,0.0*
21,1,3.0070,5.1800,0,0,0.0*
1,1,0.0930,1.5035,-2.5435*
1,1,0.0930,-1.5035,-2.5435*
1,1,0.0930,-1.5035,2.5435*
1,1,0.0930,1.5035,2.5435*
%
%ADD22ROUNDEDRECTD22*%
%ADD23R,1.4000X1.5000*%
%ADD24R,1.5000X1.4000*%
%ADD25R,1.4000X1.2000*%
%ADD26R,1.2000X1.4000*%
%ADD33C,3.2500*%
%ADD34R,1.3900X1.3900*%
%ADD35C,1.3900*%
%ADD43C,1.3970*%
%ADD44R,1.3970X1.3970*%
%ADD47C,0.3000*%
%ADD48C,0.4000*%
%ADD49C,1.5000*%
%ADD50R,1.5000X1.5000*%
%ADD51R,1.5000X1.5000*%
%ADD52C,3.0000*%
%ADD53C,1.6000*%
%ADD54R,1.6000X1.6000*%
%ADD55C,2.0320*%
%ADD56C,1.0000*%
%ADD57C,0.6000*%
G36*
X50000Y996666D02*
X950000D01*
X950140Y996694D01*
X956096Y996303D01*
X962088Y995112D01*
X967872Y993148D01*
X973352Y990446D01*
X978431Y987052D01*
X983024Y983024D01*
X987052Y978431D01*
X990446Y973352D01*
X993148Y967872D01*
X995112Y962088D01*
X996303Y956096D01*
X996694Y950140D01*
X996666Y950000D01*
X996666Y50000D01*
X996694Y49860D01*
X996303Y43904D01*
X995112Y37912D01*
X993148Y32127D01*
X990446Y26648D01*
X987052Y21569D01*
X983024Y16976D01*
X978431Y12948D01*
X973352Y9554D01*
X967872Y6852D01*
X962088Y4888D01*
X956096Y3697D01*
X950140Y3306D01*
X950000Y3334D01*
X50000D01*
X49860Y3306D01*
X43904Y3697D01*
X37912Y4888D01*
X32128Y6852D01*
X26648Y9554D01*
X21569Y12948D01*
X16976Y16976D01*
X12948Y21569D01*
X9554Y26648D01*
X6852Y32127D01*
X4888Y37912D01*
X3697Y43904D01*
X3380Y48739D01*
X3334Y50000D01*
X3334Y50000D01*
X3334Y51252D01*
Y950000D01*
X3306Y950140D01*
X3697Y956096D01*
X4888Y962088D01*
X6852Y967872D01*
X9554Y973352D01*
X12948Y978431D01*
X16976Y983024D01*
X21569Y987052D01*
X26648Y990446D01*
X32127Y993148D01*
X37912Y995112D01*
X43904Y996303D01*
X49860Y996694D01*
X50000Y996666D01*
D02*
G37*
%LPC*%
G36*
X951674Y967000D02*
X948326D01*
X945041Y966347D01*
X941947Y965065D01*
X939163Y963205D01*
X936795Y960837D01*
X934935Y958053D01*
X933653Y954959D01*
X933000Y951674D01*
Y948326D01*
X933653Y945041D01*
X934935Y941947D01*
X936795Y939163D01*
X939163Y936795D01*
X941947Y934935D01*
X945041Y933653D01*
X948326Y933000D01*
X951674D01*
X954959Y933653D01*
X958053Y934935D01*
X960837Y936795D01*
X963205Y939163D01*
X965065Y941947D01*
X966347Y945041D01*
X967000Y948326D01*
Y951674D01*
X966347Y954959D01*
X965065Y958053D01*
X963205Y960837D01*
X960837Y963205D01*
X958053Y965065D01*
X954959Y966347D01*
X951674Y967000D01*
D02*
G37*
G36*
X51674D02*
X48326D01*
X45041Y966347D01*
X41947Y965065D01*
X39163Y963205D01*
X36795Y960837D01*
X34935Y958053D01*
X33653Y954959D01*
X33000Y951674D01*
Y948326D01*
X33653Y945041D01*
X34935Y941947D01*
X36795Y939163D01*
X39163Y936795D01*
X41947Y934935D01*
X45041Y933653D01*
X48326Y933000D01*
X51674D01*
X54959Y933653D01*
X58053Y934935D01*
X60837Y936795D01*
X63205Y939163D01*
X65065Y941947D01*
X66347Y945041D01*
X67000Y948326D01*
Y951674D01*
X66347Y954959D01*
X65065Y958053D01*
X63205Y960837D01*
X60837Y963205D01*
X58053Y965065D01*
X54959Y966347D01*
X51674Y967000D01*
D02*
G37*
G36*
X501601Y934854D02*
X498399D01*
X495306Y934025D01*
X492534Y932424D01*
X490270Y930160D01*
X488669Y927387D01*
X488367Y926262D01*
X485001D01*
X483636Y925991D01*
X482478Y925217D01*
X458204Y900943D01*
X457196Y901526D01*
X454103Y902354D01*
X450901D01*
X447808Y901526D01*
X445036Y899925D01*
X442772Y897661D01*
X441171Y894888D01*
X440342Y891795D01*
Y888594D01*
X441171Y885501D01*
X442772Y882728D01*
X445036Y880464D01*
X447808Y878863D01*
X450901Y878034D01*
X454103D01*
X457196Y878863D01*
X459968Y880464D01*
X462232Y882728D01*
X463833Y885501D01*
X464662Y888594D01*
Y891795D01*
X463833Y894888D01*
X463251Y895897D01*
X486479Y919125D01*
X488367D01*
X488669Y918000D01*
X490270Y915227D01*
X492534Y912963D01*
X495306Y911362D01*
X498399Y910534D01*
X501601D01*
X504694Y911362D01*
X507466Y912963D01*
X509730Y915227D01*
X511331Y918000D01*
X511372Y918153D01*
X526849D01*
X526877Y918048D01*
X527799Y916452D01*
X529102Y915149D01*
X530698Y914227D01*
X532478Y913750D01*
X534322D01*
X536102Y914227D01*
X537698Y915149D01*
X539001Y916452D01*
X539923Y918048D01*
X540400Y919828D01*
Y921672D01*
X539923Y923452D01*
X539001Y925048D01*
X537698Y926351D01*
X536102Y927273D01*
X534322Y927750D01*
X532478D01*
X530698Y927273D01*
X529102Y926351D01*
X528041Y925290D01*
X511893D01*
X511331Y927387D01*
X509730Y930160D01*
X507466Y932424D01*
X504694Y934025D01*
X501601Y934854D01*
D02*
G37*
G36*
X700000Y915800D02*
X680000D01*
Y902039D01*
X480000D01*
X479220Y901884D01*
X478558Y901442D01*
X478116Y900780D01*
X477961Y900000D01*
Y830000D01*
X478116Y829220D01*
X478558Y828558D01*
X479220Y828116D01*
X480000Y827961D01*
X710000D01*
X710780Y828116D01*
X711442Y828558D01*
X711884Y829220D01*
X712039Y830000D01*
Y846952D01*
X712636Y847199D01*
X713309Y847366D01*
X714848Y846477D01*
X716628Y846000D01*
X718472D01*
X720252Y846477D01*
X721848Y847399D01*
X722351Y847902D01*
X891554D01*
X891660Y847505D01*
X892838Y845465D01*
X894505Y843798D01*
X896545Y842620D01*
X898822Y842010D01*
X901178D01*
X903455Y842620D01*
X905495Y843798D01*
X907162Y845465D01*
X908340Y847505D01*
X908950Y849782D01*
Y851170D01*
X915780D01*
Y859120D01*
X907830D01*
Y857583D01*
X906560Y857057D01*
X905495Y858122D01*
X903455Y859300D01*
X901178Y859910D01*
X898822D01*
X896545Y859300D01*
X894505Y858122D01*
X892838Y856455D01*
X892609Y856058D01*
X723867D01*
X723151Y857298D01*
X721848Y858601D01*
X720252Y859523D01*
X718472Y860000D01*
X716628D01*
X714848Y859523D01*
X713309Y858634D01*
X712636Y858801D01*
X712039Y859048D01*
Y900000D01*
X712006Y900168D01*
X712856Y901438D01*
X819608D01*
X819899Y900935D01*
X821202Y899632D01*
X822798Y898710D01*
X824578Y898233D01*
X826422D01*
X828202Y898710D01*
X829798Y899632D01*
X831101Y900935D01*
X832023Y902531D01*
X832500Y904311D01*
Y906154D01*
X832023Y907935D01*
X831101Y909531D01*
X829798Y910834D01*
X828202Y911756D01*
X826422Y912233D01*
X824578D01*
X822798Y911756D01*
X821202Y910834D01*
X819962Y909595D01*
X700000D01*
Y915800D01*
D02*
G37*
G36*
X944977Y907310D02*
X941383D01*
X937857Y906609D01*
X934535Y905233D01*
X931546Y903236D01*
X929004Y900694D01*
X927007Y897705D01*
X925631Y894383D01*
X924930Y890857D01*
Y887262D01*
X925631Y883737D01*
X927007Y880415D01*
X929004Y877426D01*
X931546Y874884D01*
X934535Y872887D01*
X937857Y871511D01*
X941383Y870810D01*
X944977D01*
X948503Y871511D01*
X951825Y872887D01*
X954814Y874884D01*
X957356Y877426D01*
X959353Y880415D01*
X960729Y883737D01*
X961430Y887262D01*
Y890857D01*
X960729Y894383D01*
X959353Y897705D01*
X957356Y900694D01*
X954814Y903236D01*
X951825Y905233D01*
X948503Y906609D01*
X944977Y907310D01*
D02*
G37*
G36*
X927730Y871070D02*
X919780D01*
Y863120D01*
X927730D01*
Y871070D01*
D02*
G37*
G36*
X915780D02*
X907830D01*
Y863120D01*
X915780D01*
Y871070D01*
D02*
G37*
G36*
X927730Y859120D02*
X919780D01*
Y851170D01*
X927730D01*
Y859120D01*
D02*
G37*
G36*
X918958Y849750D02*
X916602D01*
X914325Y849140D01*
X912285Y847962D01*
X910618Y846295D01*
X909440Y844255D01*
X908830Y841978D01*
Y839622D01*
X909440Y837345D01*
X910618Y835305D01*
X912285Y833638D01*
X914325Y832460D01*
X916602Y831850D01*
X918958D01*
X921235Y832460D01*
X923275Y833638D01*
X924942Y835305D01*
X925760Y836722D01*
X959309D01*
X959436Y836502D01*
X960740Y835199D01*
X962336Y834277D01*
X964116Y833800D01*
X965959D01*
X967740Y834277D01*
X969336Y835199D01*
X970639Y836502D01*
X971561Y838098D01*
X972038Y839878D01*
Y841722D01*
X971561Y843502D01*
X970639Y845098D01*
X969336Y846401D01*
X967740Y847323D01*
X965959Y847800D01*
X964116D01*
X962336Y847323D01*
X960740Y846401D01*
X959436Y845098D01*
X959309Y844878D01*
X925760D01*
X924942Y846295D01*
X923275Y847962D01*
X921235Y849140D01*
X918958Y849750D01*
D02*
G37*
G36*
X901178Y839590D02*
X898822D01*
X896545Y838980D01*
X894505Y837802D01*
X892838Y836135D01*
X891660Y834095D01*
X891050Y831818D01*
Y829462D01*
X891660Y827185D01*
X892838Y825145D01*
X894505Y823478D01*
X896545Y822300D01*
X898822Y821690D01*
X901178D01*
X903455Y822300D01*
X905495Y823478D01*
X907162Y825145D01*
X908340Y827185D01*
X908950Y829462D01*
Y831818D01*
X908340Y834095D01*
X907162Y836135D01*
X905495Y837802D01*
X903455Y838980D01*
X901178Y839590D01*
D02*
G37*
G36*
Y819270D02*
X898822D01*
X896545Y818660D01*
X894505Y817482D01*
X892838Y815815D01*
X892020Y814398D01*
X831228D01*
X831101Y814618D01*
X829798Y815921D01*
X828202Y816843D01*
X826422Y817320D01*
X824578D01*
X822798Y816843D01*
X821202Y815921D01*
X819899Y814618D01*
X818977Y813022D01*
X818500Y811242D01*
Y809398D01*
X818977Y807618D01*
X819899Y806022D01*
X821202Y804719D01*
X822798Y803797D01*
X824578Y803320D01*
X826422D01*
X828202Y803797D01*
X829798Y804719D01*
X831101Y806022D01*
X831228Y806242D01*
X892020D01*
X892838Y804825D01*
X894505Y803158D01*
X896545Y801980D01*
X898822Y801370D01*
X901178D01*
X903455Y801980D01*
X905495Y803158D01*
X907162Y804825D01*
X908340Y806865D01*
X908950Y809142D01*
Y811498D01*
X908340Y813775D01*
X907162Y815815D01*
X905495Y817482D01*
X903455Y818660D01*
X901178Y819270D01*
D02*
G37*
G36*
X918958Y829430D02*
X916602D01*
X914325Y828820D01*
X912285Y827642D01*
X910618Y825975D01*
X909440Y823935D01*
X908830Y821658D01*
Y819302D01*
X909440Y817025D01*
X910618Y814985D01*
X912285Y813318D01*
X914325Y812140D01*
X916602Y811530D01*
X918958D01*
X921235Y812140D01*
X923275Y813318D01*
X924942Y814985D01*
X926120Y817025D01*
X926730Y819302D01*
Y821658D01*
X926120Y823935D01*
X924942Y825975D01*
X923275Y827642D01*
X921235Y828820D01*
X918958Y829430D01*
D02*
G37*
G36*
X611251Y814500D02*
X608749D01*
X606333Y813853D01*
X604167Y812602D01*
X602398Y810833D01*
X601147Y808667D01*
X600500Y806251D01*
Y803749D01*
X601147Y801333D01*
X602398Y799167D01*
X604167Y797398D01*
X606333Y796147D01*
X608749Y795500D01*
X611251D01*
X613667Y796147D01*
X615833Y797398D01*
X617602Y799167D01*
X618828Y801291D01*
X628896D01*
X629399Y800421D01*
X630702Y799117D01*
X632298Y798196D01*
X634078Y797719D01*
X635922D01*
X637702Y798196D01*
X639298Y799117D01*
X640601Y800421D01*
X641523Y802017D01*
X642000Y803797D01*
Y805640D01*
X641523Y807421D01*
X640601Y809017D01*
X639298Y810320D01*
X637702Y811242D01*
X635922Y811719D01*
X634078D01*
X632298Y811242D01*
X630702Y810320D01*
X629399Y809017D01*
X629059Y808428D01*
X618917D01*
X618853Y808667D01*
X617602Y810833D01*
X615833Y812602D01*
X613667Y813853D01*
X611251Y814500D01*
D02*
G37*
G36*
X918958Y809110D02*
X916602D01*
X914325Y808500D01*
X912285Y807322D01*
X910618Y805655D01*
X909440Y803615D01*
X908830Y801338D01*
Y798982D01*
X909440Y796705D01*
X910618Y794665D01*
X912285Y792998D01*
X914325Y791820D01*
X916602Y791210D01*
X918958D01*
X921235Y791820D01*
X923275Y792998D01*
X924942Y794665D01*
X925760Y796082D01*
X972703D01*
X972830Y795862D01*
X974133Y794559D01*
X975729Y793637D01*
X977509Y793160D01*
X979352D01*
X981133Y793637D01*
X982729Y794559D01*
X984032Y795862D01*
X984954Y797458D01*
X985431Y799238D01*
Y801082D01*
X984954Y802862D01*
X984032Y804458D01*
X982729Y805761D01*
X981133Y806683D01*
X979352Y807160D01*
X977509D01*
X975729Y806683D01*
X974133Y805761D01*
X972830Y804458D01*
X972703Y804238D01*
X925760D01*
X924942Y805655D01*
X923275Y807322D01*
X921235Y808500D01*
X918958Y809110D01*
D02*
G37*
G36*
X901178Y798950D02*
X898822D01*
X896545Y798340D01*
X894505Y797162D01*
X892838Y795495D01*
X891660Y793455D01*
X891050Y791178D01*
Y788822D01*
X891660Y786545D01*
X892838Y784505D01*
X894505Y782838D01*
X896545Y781660D01*
X898822Y781050D01*
X901178D01*
X903455Y781660D01*
X905495Y782838D01*
X907162Y784505D01*
X908340Y786545D01*
X908950Y788822D01*
Y791178D01*
X908340Y793455D01*
X907162Y795495D01*
X905495Y797162D01*
X903455Y798340D01*
X901178Y798950D01*
D02*
G37*
G36*
X944977Y780310D02*
X941383D01*
X937857Y779609D01*
X934535Y778233D01*
X931546Y776236D01*
X929004Y773694D01*
X927007Y770705D01*
X925631Y767383D01*
X924930Y763857D01*
Y760263D01*
X925631Y756737D01*
X927007Y753415D01*
X929004Y750426D01*
X931546Y747884D01*
X934535Y745887D01*
X937857Y744511D01*
X941383Y743810D01*
X944977D01*
X948503Y744511D01*
X951825Y745887D01*
X954814Y747884D01*
X957356Y750426D01*
X959353Y753415D01*
X960729Y756737D01*
X961430Y760263D01*
Y763857D01*
X960729Y767383D01*
X959353Y770705D01*
X957356Y773694D01*
X954814Y776236D01*
X951825Y778233D01*
X948503Y779609D01*
X944977Y780310D01*
D02*
G37*
G36*
X965959Y737250D02*
X964116D01*
X962336Y736773D01*
X960740Y735851D01*
X959436Y734548D01*
X959309Y734328D01*
X577228D01*
X577101Y734548D01*
X575798Y735851D01*
X574202Y736773D01*
X572422Y737250D01*
X570578D01*
X568798Y736773D01*
X567202Y735851D01*
X565899Y734548D01*
X564977Y732952D01*
X564500Y731172D01*
Y729328D01*
X564977Y727548D01*
X565899Y725952D01*
X567202Y724649D01*
X568798Y723727D01*
X570578Y723250D01*
X572422D01*
X574202Y723727D01*
X575798Y724649D01*
X577101Y725952D01*
X577228Y726172D01*
X959309D01*
X959436Y725952D01*
X960740Y724649D01*
X962336Y723727D01*
X964116Y723250D01*
X965959D01*
X967740Y723727D01*
X969336Y724649D01*
X970639Y725952D01*
X971561Y727548D01*
X972038Y729328D01*
Y731172D01*
X971561Y732952D01*
X970639Y734548D01*
X969336Y735851D01*
X967740Y736773D01*
X965959Y737250D01*
D02*
G37*
G36*
X978822Y724550D02*
X976978D01*
X975198Y724073D01*
X973602Y723151D01*
X972299Y721848D01*
X972172Y721628D01*
X589928D01*
X589801Y721848D01*
X588498Y723151D01*
X586902Y724073D01*
X585122Y724550D01*
X583278D01*
X581498Y724073D01*
X579902Y723151D01*
X578599Y721848D01*
X577677Y720252D01*
X577200Y718472D01*
Y716628D01*
X577677Y714848D01*
X578599Y713252D01*
X579902Y711949D01*
X581498Y711027D01*
X583278Y710550D01*
X585122D01*
X586902Y711027D01*
X588498Y711949D01*
X589801Y713252D01*
X589928Y713472D01*
X972172D01*
X972299Y713252D01*
X973602Y711949D01*
X975198Y711027D01*
X976978Y710550D01*
X978822D01*
X980602Y711027D01*
X982198Y711949D01*
X983501Y713252D01*
X984423Y714848D01*
X984900Y716628D01*
Y718472D01*
X984423Y720252D01*
X983501Y721848D01*
X982198Y723151D01*
X980602Y724073D01*
X978822Y724550D01*
D02*
G37*
G36*
X349020Y707250D02*
X335520D01*
Y702069D01*
X310823D01*
X310401Y702798D01*
X309098Y704101D01*
X307502Y705023D01*
X305722Y705500D01*
X303878D01*
X302098Y705023D01*
X300502Y704101D01*
X299199Y702798D01*
X298277Y701202D01*
X297800Y699422D01*
Y697578D01*
X298277Y695798D01*
X299199Y694202D01*
X300502Y692899D01*
X302098Y691977D01*
X303878Y691500D01*
X305722D01*
X307502Y691977D01*
X309098Y692899D01*
X310401Y694202D01*
X310823Y694931D01*
X335520D01*
Y689750D01*
X349020D01*
Y707250D01*
D02*
G37*
G36*
X364020D02*
X350520D01*
Y689750D01*
X353192D01*
Y679500D01*
X351270D01*
X351000Y679500D01*
X350000Y680152D01*
Y680500D01*
X342000D01*
Y670000D01*
X340000D01*
Y668000D01*
X330000D01*
Y660152D01*
X330000Y660152D01*
X330000Y659500D01*
X331000Y658848D01*
X331000Y658230D01*
Y652647D01*
X310823D01*
X310401Y653376D01*
X309098Y654680D01*
X307502Y655601D01*
X305722Y656078D01*
X303878D01*
X302098Y655601D01*
X300502Y654680D01*
X299199Y653376D01*
X298277Y651780D01*
X297800Y650000D01*
Y648157D01*
X298277Y646376D01*
X299199Y644780D01*
X300502Y643477D01*
X302098Y642555D01*
X303878Y642078D01*
X305722D01*
X307502Y642555D01*
X309098Y643477D01*
X310401Y644780D01*
X310823Y645510D01*
X331000D01*
Y640500D01*
X337431D01*
Y639000D01*
X333000D01*
Y621000D01*
X337431D01*
Y619500D01*
X331000D01*
X331000Y601152D01*
X330000Y600500D01*
Y599848D01*
X330000Y599848D01*
Y592000D01*
X340000D01*
Y588000D01*
X330000D01*
Y580152D01*
X330000Y580152D01*
X330000Y579500D01*
X331000Y578848D01*
X331000Y578230D01*
Y573025D01*
X317173D01*
X316751Y573755D01*
X315448Y575058D01*
X313852Y575979D01*
X312072Y576457D01*
X310228D01*
X308448Y575979D01*
X306852Y575058D01*
X305549Y573755D01*
X304627Y572159D01*
X304150Y570378D01*
Y568535D01*
X304627Y566755D01*
X305549Y565159D01*
X306852Y563855D01*
X308448Y562934D01*
X310228Y562457D01*
X312072D01*
X313852Y562934D01*
X315448Y563855D01*
X316751Y565159D01*
X317173Y565888D01*
X331000D01*
Y560500D01*
X331000D01*
Y559500D01*
X331000D01*
Y540500D01*
X336931D01*
Y539000D01*
X332500D01*
Y521000D01*
X336431D01*
Y519500D01*
X331000D01*
Y500500D01*
X331000D01*
Y499500D01*
X331000D01*
Y480500D01*
X349000D01*
Y499500D01*
X349000D01*
Y500500D01*
X349000D01*
Y519500D01*
X343569D01*
Y521000D01*
X348500D01*
Y539000D01*
X344069D01*
Y540500D01*
X349000D01*
Y559500D01*
X349000D01*
Y560500D01*
X349000D01*
X349000Y578848D01*
X350000Y579500D01*
X351000Y578848D01*
Y560770D01*
X351000Y560500D01*
Y559500D01*
X351000Y559230D01*
Y540500D01*
X354922D01*
Y539000D01*
X350500D01*
Y521000D01*
X366500D01*
Y528922D01*
X416716D01*
X417676Y528280D01*
X419237Y527970D01*
X431663D01*
X431663Y527970D01*
X433224Y528280D01*
X434184Y528922D01*
X458316D01*
X458634Y528500D01*
X470500D01*
X481555D01*
X480832Y529582D01*
X480821Y529589D01*
X480727Y529728D01*
X480551Y531297D01*
X480617Y531396D01*
X480795Y532290D01*
Y533710D01*
X480617Y534604D01*
X480111Y535361D01*
X479850Y535535D01*
Y536965D01*
X480111Y537139D01*
X480617Y537896D01*
X480795Y538790D01*
Y540210D01*
X480617Y541104D01*
X480111Y541861D01*
X479850Y542035D01*
Y543465D01*
X480111Y543639D01*
X480617Y544397D01*
X480795Y545290D01*
Y546710D01*
X480617Y547603D01*
X480111Y548361D01*
X479850Y548535D01*
Y549965D01*
X480111Y550139D01*
X480617Y550896D01*
X480795Y551790D01*
Y553210D01*
X480617Y554104D01*
X480111Y554861D01*
X479850Y555035D01*
Y556465D01*
X480111Y556639D01*
X480617Y557397D01*
X480795Y558290D01*
Y559710D01*
X480617Y560603D01*
X480111Y561361D01*
X479850Y561535D01*
Y562965D01*
X480111Y563139D01*
X480617Y563896D01*
X480795Y564790D01*
Y566210D01*
X480617Y567104D01*
X480779Y567832D01*
X481165Y568473D01*
X481207Y568507D01*
X482493Y569366D01*
X482802Y569674D01*
X483258Y569454D01*
X483849Y568926D01*
X483702Y568185D01*
Y517315D01*
X483893Y516353D01*
X484438Y515538D01*
X485253Y514993D01*
X486215Y514802D01*
X515208D01*
Y510334D01*
X515363Y509554D01*
X515805Y508892D01*
X516466Y508450D01*
X517247Y508295D01*
X520206D01*
X520686Y507710D01*
Y506919D01*
X520674Y506865D01*
X520374Y506135D01*
X519507Y505705D01*
X517247D01*
X516466Y505550D01*
X515805Y505108D01*
X515363Y504446D01*
X515208Y503666D01*
Y430000D01*
X515363Y429220D01*
X515805Y428558D01*
X516466Y428116D01*
X517247Y427961D01*
X750901D01*
X750934Y427967D01*
X750968Y427962D01*
X751324Y428045D01*
X751682Y428116D01*
X751710Y428135D01*
X751742Y428143D01*
X752039Y428355D01*
X752343Y428558D01*
X752362Y428586D01*
X752389Y428606D01*
X752582Y428916D01*
X752785Y429220D01*
X752792Y429253D01*
X752810Y429282D01*
X752991Y429764D01*
X753749Y430500D01*
X756251D01*
X757009Y429764D01*
X757190Y429282D01*
X757208Y429253D01*
X757215Y429220D01*
X757418Y428916D01*
X757611Y428606D01*
X757638Y428586D01*
X757657Y428558D01*
X757961Y428355D01*
X758257Y428143D01*
X758290Y428135D01*
X758318Y428116D01*
X758677Y428045D01*
X759032Y427962D01*
X759066Y427967D01*
X759099Y427961D01*
X794500D01*
X795280Y428116D01*
X795942Y428558D01*
X796384Y429220D01*
X796539Y430000D01*
Y430500D01*
X813461D01*
Y430000D01*
X813616Y429220D01*
X814058Y428558D01*
X814720Y428116D01*
X815500Y427961D01*
X870000D01*
X870780Y428116D01*
X871442Y428558D01*
X871884Y429220D01*
X872039Y430000D01*
Y572785D01*
X872013Y572917D01*
X872022Y573051D01*
X871936Y573304D01*
X871884Y573565D01*
X871809Y573677D01*
X871766Y573805D01*
X871590Y574005D01*
X871442Y574227D01*
X871330Y574302D01*
X871241Y574403D01*
X871002Y574521D01*
X870780Y574669D01*
X870648Y574695D01*
X870528Y574755D01*
X869965Y574906D01*
X869250Y575159D01*
X869112Y576333D01*
X869113Y576346D01*
X869663Y578399D01*
Y581601D01*
X869113Y583653D01*
X869112Y583667D01*
X869250Y584841D01*
X869965Y585094D01*
X870528Y585245D01*
X870648Y585305D01*
X870780Y585331D01*
X871002Y585479D01*
X871241Y585597D01*
X871330Y585698D01*
X871442Y585773D01*
X871590Y585995D01*
X871766Y586195D01*
X871809Y586323D01*
X871884Y586435D01*
X871936Y586696D01*
X872022Y586949D01*
X872013Y587083D01*
X872039Y587215D01*
Y649500D01*
X871961Y649896D01*
X871885Y650278D01*
X871884Y650279D01*
X871884Y650280D01*
X871661Y650614D01*
X871444Y650940D01*
X871443Y650941D01*
X871442Y650942D01*
X871113Y651162D01*
X870783Y651383D01*
X870782Y651383D01*
X870780Y651384D01*
X870391Y651461D01*
X870003Y651539D01*
X809902Y651625D01*
X809894Y651632D01*
X809087Y652530D01*
X809000Y652742D01*
Y657000D01*
X803669D01*
Y660727D01*
X804398Y661149D01*
X805701Y662452D01*
X806623Y664048D01*
X807100Y665828D01*
Y667672D01*
X806623Y669452D01*
X805701Y671048D01*
X804398Y672351D01*
X802802Y673273D01*
X801022Y673750D01*
X799178D01*
X797398Y673273D01*
X795802Y672351D01*
X794499Y671048D01*
X793577Y669452D01*
X793100Y667672D01*
Y665828D01*
X793577Y664048D01*
X794499Y662452D01*
X795802Y661149D01*
X796531Y660727D01*
Y657000D01*
X791000D01*
Y652551D01*
X790101Y651653D01*
X518148Y652042D01*
X518148Y652042D01*
X518147Y652042D01*
X517762Y651965D01*
X517368Y651888D01*
X517367Y651887D01*
X517366Y651887D01*
X517048Y651675D01*
X516706Y651447D01*
X516705Y651446D01*
X516705Y651445D01*
X515806Y650548D01*
X515806Y650547D01*
X515805Y650547D01*
X515588Y650223D01*
X515363Y649887D01*
X515363Y649886D01*
X515363Y649885D01*
X515286Y649501D01*
X515208Y649107D01*
X515208Y649106D01*
X515208Y649105D01*
Y600978D01*
X487596D01*
X486036Y600668D01*
X484712Y599784D01*
X484712Y599784D01*
X482369Y597441D01*
X481485Y596118D01*
X481175Y594557D01*
X481175Y594557D01*
Y588055D01*
X480680Y587732D01*
X479905Y587499D01*
X479353Y587867D01*
X478460Y588045D01*
X475143D01*
X474061Y588768D01*
X472500Y589078D01*
X454807D01*
X454680Y589298D01*
X453377Y590601D01*
X451780Y591523D01*
X450000Y592000D01*
X448157D01*
X446376Y591523D01*
X444780Y590601D01*
X443477Y589298D01*
X442556Y587702D01*
X442078Y585922D01*
Y584078D01*
X442556Y582298D01*
X443477Y580702D01*
X444780Y579399D01*
X446376Y578477D01*
X448157Y578000D01*
X450000D01*
X451780Y578477D01*
X453377Y579399D01*
X454680Y580702D01*
X454807Y580922D01*
X459402D01*
X459639Y580724D01*
X460293Y579652D01*
X460205Y579210D01*
Y577790D01*
X460383Y576897D01*
X460889Y576139D01*
X461150Y575965D01*
Y574535D01*
X460889Y574361D01*
X460383Y573604D01*
X460205Y572710D01*
Y571290D01*
X460293Y570848D01*
X459639Y569776D01*
X459402Y569578D01*
X447889D01*
X447444Y571237D01*
X446523Y572833D01*
X445220Y574136D01*
X443624Y575058D01*
X441843Y575535D01*
X440000D01*
X438220Y575058D01*
X436623Y574136D01*
X435320Y572833D01*
X434399Y571237D01*
X433922Y569457D01*
Y567613D01*
X434017Y567258D01*
X432878Y566601D01*
X432098Y567381D01*
X430775Y568265D01*
X429214Y568575D01*
X429214Y568575D01*
X426391D01*
X425601Y569943D01*
X424298Y571246D01*
X422702Y572168D01*
X420922Y572645D01*
X419078D01*
X417298Y572168D01*
X415702Y571246D01*
X414399Y569943D01*
X413477Y568347D01*
X413000Y566567D01*
Y564724D01*
X413477Y562943D01*
X414399Y561347D01*
X415702Y560044D01*
X416545Y559557D01*
X416871Y558079D01*
X416137Y558061D01*
X415478Y558171D01*
X414298Y559351D01*
X412702Y560273D01*
X410922Y560750D01*
X409078D01*
X407298Y560273D01*
X405702Y559351D01*
X404399Y558048D01*
X403477Y556452D01*
X403000Y554672D01*
Y552828D01*
X403477Y551048D01*
X404399Y549452D01*
X405702Y548149D01*
X407298Y547227D01*
X409078Y546750D01*
X410922D01*
X412702Y547227D01*
X414298Y548149D01*
X414821Y548672D01*
X417323D01*
X418439Y547976D01*
X418450Y547470D01*
Y546127D01*
X418792Y544848D01*
X418037Y543578D01*
X397000D01*
Y543672D01*
X396523Y545452D01*
X395601Y547048D01*
X394298Y548351D01*
X392702Y549273D01*
X390922Y549750D01*
X389078D01*
X387298Y549273D01*
X385702Y548351D01*
X384399Y547048D01*
X383477Y545452D01*
X383000Y543672D01*
Y541828D01*
X383477Y540048D01*
X384399Y538452D01*
X384502Y538348D01*
X383976Y537078D01*
X366500D01*
Y539000D01*
X363078D01*
Y540500D01*
X369000D01*
Y559230D01*
X369000Y559500D01*
Y560500D01*
X369000Y560770D01*
Y565922D01*
X384272D01*
X384399Y565702D01*
X385702Y564399D01*
X387298Y563477D01*
X389078Y563000D01*
X390922D01*
X392702Y563477D01*
X394298Y564399D01*
X395601Y565702D01*
X396523Y567298D01*
X397000Y569078D01*
Y570922D01*
X396523Y572702D01*
X395601Y574298D01*
X394298Y575601D01*
X392702Y576523D01*
X390922Y577000D01*
X389078D01*
X387298Y576523D01*
X385702Y575601D01*
X384399Y574298D01*
X384272Y574078D01*
X369000D01*
Y579500D01*
X369000D01*
Y580500D01*
X369000D01*
Y599230D01*
X369000Y599500D01*
Y600500D01*
X369000Y600770D01*
Y605922D01*
X404272D01*
X404399Y605702D01*
X405702Y604399D01*
X407298Y603477D01*
X409078Y603000D01*
X410922D01*
X412702Y603477D01*
X414298Y604399D01*
X415601Y605702D01*
X416523Y607298D01*
X417000Y609078D01*
Y610922D01*
X416523Y612702D01*
X415601Y614298D01*
X414298Y615601D01*
X412702Y616523D01*
X410922Y617000D01*
X409078D01*
X407298Y616523D01*
X405702Y615601D01*
X404399Y614298D01*
X404272Y614078D01*
X369000D01*
Y619500D01*
X364078D01*
Y621000D01*
X367000D01*
Y639000D01*
X351000D01*
Y621000D01*
X355922D01*
Y619500D01*
X351000D01*
Y601152D01*
X350000Y600500D01*
X349000Y601152D01*
X349000Y601770D01*
Y619500D01*
X344569D01*
Y621000D01*
X349000D01*
Y639000D01*
X344569D01*
Y640500D01*
X349000D01*
X349000Y658848D01*
X350000Y659500D01*
X351000Y658848D01*
Y640500D01*
X369000D01*
Y645922D01*
X415336D01*
X415463Y645702D01*
X416766Y644399D01*
X418362Y643477D01*
X420143Y643000D01*
X421986D01*
X423766Y643477D01*
X425362Y644399D01*
X426666Y645702D01*
X427587Y647298D01*
X428064Y649078D01*
Y650922D01*
X427587Y652702D01*
X426666Y654298D01*
X425362Y655601D01*
X423766Y656523D01*
X421986Y657000D01*
X420143D01*
X418362Y656523D01*
X416766Y655601D01*
X415463Y654298D01*
X415336Y654078D01*
X369000D01*
Y659500D01*
X369000D01*
Y660500D01*
X369000D01*
Y679500D01*
X361348D01*
Y689750D01*
X364020D01*
Y707250D01*
D02*
G37*
G36*
X338000Y680500D02*
X330000D01*
Y672000D01*
X338000D01*
Y680500D01*
D02*
G37*
G36*
X481750Y649770D02*
X462750D01*
Y644919D01*
X455101D01*
X454680Y645648D01*
X453377Y646951D01*
X451780Y647873D01*
X450000Y648350D01*
X448157D01*
X446376Y647873D01*
X444780Y646951D01*
X443477Y645648D01*
X442556Y644052D01*
X442078Y642272D01*
Y640428D01*
X442556Y638648D01*
X443477Y637052D01*
X444780Y635749D01*
X446376Y634827D01*
X448157Y634350D01*
X450000D01*
X451780Y634827D01*
X453377Y635749D01*
X454680Y637052D01*
X455101Y637781D01*
X462750D01*
Y631770D01*
X481750D01*
Y649770D01*
D02*
G37*
G36*
Y629770D02*
X462750D01*
Y626378D01*
X455728D01*
X455601Y626598D01*
X454298Y627901D01*
X452702Y628823D01*
X450922Y629300D01*
X449078D01*
X447298Y628823D01*
X445702Y627901D01*
X444399Y626598D01*
X443477Y625002D01*
X443000Y623222D01*
Y621378D01*
X443477Y619598D01*
X444399Y618002D01*
X445702Y616699D01*
X447298Y615777D01*
X449078Y615300D01*
X450922D01*
X452702Y615777D01*
X454298Y616699D01*
X455601Y618002D01*
X455728Y618222D01*
X462750D01*
Y611770D01*
X481750D01*
Y629770D01*
D02*
G37*
G36*
X889101Y639658D02*
X885900D01*
X882807Y638829D01*
X880034Y637228D01*
X877770Y634964D01*
X876169Y632192D01*
X875341Y629099D01*
Y625897D01*
X876169Y622804D01*
X877770Y620032D01*
X880034Y617768D01*
X882807Y616167D01*
X885900Y615338D01*
X889101D01*
X892194Y616167D01*
X894967Y617768D01*
X897231Y620032D01*
X898832Y622804D01*
X899401Y624930D01*
X912449D01*
X913482Y623897D01*
X915078Y622975D01*
X916858Y622498D01*
X918702D01*
X920482Y622975D01*
X922078Y623897D01*
X923381Y625200D01*
X924303Y626796D01*
X924780Y628577D01*
Y630420D01*
X924303Y632200D01*
X923381Y633796D01*
X922078Y635099D01*
X920482Y636021D01*
X918702Y636498D01*
X916858D01*
X915078Y636021D01*
X913482Y635099D01*
X912179Y633796D01*
X911257Y632200D01*
X911221Y632067D01*
X898866D01*
X898832Y632192D01*
X897231Y634964D01*
X894967Y637228D01*
X892194Y638829D01*
X889101Y639658D01*
D02*
G37*
G36*
X921601Y592160D02*
X918399D01*
X915306Y591331D01*
X912534Y589730D01*
X910270Y587466D01*
X908669Y584694D01*
X907840Y581601D01*
Y578399D01*
X908669Y575306D01*
X910270Y572534D01*
X912534Y570270D01*
X915306Y568669D01*
X918399Y567840D01*
X921601D01*
X924694Y568669D01*
X927466Y570270D01*
X929730Y572534D01*
X931331Y575306D01*
X931578Y576226D01*
X942362D01*
X942902Y575291D01*
X944205Y573988D01*
X945801Y573067D01*
X947582Y572590D01*
X949425D01*
X951205Y573067D01*
X952801Y573988D01*
X954105Y575291D01*
X955026Y576888D01*
X955503Y578668D01*
Y580511D01*
X955026Y582291D01*
X954105Y583888D01*
X952801Y585191D01*
X951205Y586113D01*
X949425Y586590D01*
X947582D01*
X945801Y586113D01*
X944205Y585191D01*
X942902Y583888D01*
X942599Y583363D01*
X931688D01*
X931331Y584694D01*
X929730Y587466D01*
X927466Y589730D01*
X924694Y591331D01*
X921601Y592160D01*
D02*
G37*
G36*
X450922Y526500D02*
X449078D01*
X447298Y526023D01*
X445702Y525101D01*
X444399Y523798D01*
X443477Y522202D01*
X443000Y520421D01*
Y518578D01*
X443477Y516798D01*
X444314Y515348D01*
X443941Y514097D01*
X443933Y514078D01*
X369000D01*
Y519500D01*
X351000D01*
Y500500D01*
X351000Y500500D01*
Y499500D01*
X351000D01*
X351000Y499230D01*
Y480500D01*
X369000D01*
Y491422D01*
X410875D01*
X410875Y491422D01*
X412436Y491732D01*
X413759Y492616D01*
X421064Y499922D01*
X455713D01*
X455713Y499922D01*
X457274Y500232D01*
X458597Y501116D01*
X458965Y501484D01*
X459528Y501359D01*
X460205Y500928D01*
Y499790D01*
X460383Y498896D01*
X460889Y498139D01*
X461646Y497633D01*
X462540Y497455D01*
X466422D01*
Y479000D01*
X460500D01*
Y461000D01*
X479500D01*
Y479000D01*
X474578D01*
Y497455D01*
X478460D01*
X479353Y497633D01*
X480111Y498139D01*
X480617Y498896D01*
X480795Y499790D01*
Y501210D01*
X480617Y502104D01*
X480111Y502861D01*
X479850Y503035D01*
Y504465D01*
X480111Y504639D01*
X480617Y505396D01*
X480795Y506290D01*
Y507710D01*
X480617Y508604D01*
X480111Y509361D01*
X479850Y509535D01*
Y510965D01*
X480111Y511139D01*
X480617Y511897D01*
X480795Y512790D01*
Y514210D01*
X480617Y515103D01*
X480111Y515861D01*
X479850Y516035D01*
Y517465D01*
X480111Y517639D01*
X480617Y518396D01*
X480795Y519290D01*
Y520710D01*
X480617Y521604D01*
X480551Y521703D01*
X480727Y523272D01*
X480821Y523411D01*
X480832Y523418D01*
X481555Y524500D01*
X470500D01*
X458634D01*
X458316Y524078D01*
X455321D01*
X454298Y525101D01*
X452702Y526023D01*
X450922Y526500D01*
D02*
G37*
G36*
X479500Y459000D02*
X460500D01*
Y441000D01*
X479500D01*
Y447281D01*
X481395D01*
X481816Y446552D01*
X483120Y445249D01*
X484716Y444327D01*
X486496Y443850D01*
X488339D01*
X490120Y444327D01*
X491716Y445249D01*
X493019Y446552D01*
X493941Y448148D01*
X494418Y449928D01*
Y451772D01*
X493941Y453552D01*
X493019Y455148D01*
X491716Y456451D01*
X490120Y457373D01*
X488339Y457850D01*
X486496D01*
X484716Y457373D01*
X483120Y456451D01*
X481816Y455148D01*
X481395Y454419D01*
X479500D01*
Y459000D01*
D02*
G37*
G36*
X550922Y425868D02*
X549078D01*
X547298Y425391D01*
X545702Y424469D01*
X544399Y423166D01*
X543477Y421570D01*
X543000Y419790D01*
Y419478D01*
X509270D01*
X508440Y420917D01*
X506767Y422590D01*
X504718Y423773D01*
X502433Y424385D01*
X500067D01*
X497782Y423773D01*
X495733Y422590D01*
X494060Y420917D01*
X492877Y418868D01*
X492265Y416583D01*
Y414217D01*
X492877Y411932D01*
X494060Y409883D01*
X495733Y408210D01*
X497782Y407027D01*
X500067Y406415D01*
X502433D01*
X504718Y407027D01*
X506767Y408210D01*
X508440Y409883D01*
X509270Y411322D01*
X544908D01*
X544908Y411322D01*
X546469Y411632D01*
X547468Y412300D01*
X549078Y411868D01*
X550922D01*
X552702Y412345D01*
X554298Y413267D01*
X555601Y414570D01*
X556523Y416166D01*
X557000Y417947D01*
Y419790D01*
X556523Y421570D01*
X555601Y423166D01*
X554298Y424469D01*
X552702Y425391D01*
X550922Y425868D01*
D02*
G37*
G36*
X502433Y398985D02*
X500067D01*
X497782Y398373D01*
X495733Y397190D01*
X494060Y395517D01*
X493571Y394670D01*
X456070D01*
X455601Y395481D01*
X454298Y396784D01*
X452702Y397706D01*
X450922Y398183D01*
X449078D01*
X447298Y397706D01*
X445702Y396784D01*
X444399Y395481D01*
X443477Y393885D01*
X443000Y392104D01*
Y390261D01*
X443477Y388481D01*
X444399Y386885D01*
X445702Y385582D01*
X447298Y384660D01*
X449078Y384183D01*
X450922D01*
X452702Y384660D01*
X454298Y385582D01*
X455230Y386513D01*
X492888D01*
X494060Y384483D01*
X495733Y382810D01*
X497782Y381627D01*
X500067Y381015D01*
X502433D01*
X504718Y381627D01*
X506767Y382810D01*
X508440Y384483D01*
X509623Y386532D01*
X510235Y388817D01*
Y391183D01*
X509623Y393468D01*
X508440Y395517D01*
X506767Y397190D01*
X504718Y398373D01*
X502433Y398985D01*
D02*
G37*
G36*
Y373585D02*
X500067D01*
X497782Y372973D01*
X495733Y371790D01*
X494060Y370117D01*
X492877Y368068D01*
X492265Y365783D01*
Y363417D01*
X492877Y361132D01*
X494060Y359083D01*
X495733Y357410D01*
X497782Y356227D01*
X500067Y355615D01*
X502433D01*
X504718Y356227D01*
X506767Y357410D01*
X508440Y359083D01*
X509612Y361113D01*
X554770D01*
X555702Y360182D01*
X557298Y359260D01*
X559078Y358783D01*
X560922D01*
X562702Y359260D01*
X564298Y360182D01*
X565601Y361485D01*
X566523Y363081D01*
X567000Y364861D01*
Y366704D01*
X566523Y368485D01*
X565601Y370081D01*
X564298Y371384D01*
X562702Y372306D01*
X560922Y372783D01*
X559078D01*
X557298Y372306D01*
X555702Y371384D01*
X554399Y370081D01*
X553930Y369270D01*
X508929D01*
X508440Y370117D01*
X506767Y371790D01*
X504718Y372973D01*
X502433Y373585D01*
D02*
G37*
G36*
X510235Y348185D02*
X492265D01*
Y344078D01*
X445728D01*
X445601Y344298D01*
X444298Y345601D01*
X442702Y346523D01*
X440922Y347000D01*
X439078D01*
X437298Y346523D01*
X435702Y345601D01*
X434399Y344298D01*
X433477Y342702D01*
X433000Y340922D01*
Y339078D01*
X433477Y337298D01*
X434399Y335702D01*
X435702Y334399D01*
X437298Y333477D01*
X439078Y333000D01*
X440922D01*
X442702Y333477D01*
X444298Y334399D01*
X445601Y335702D01*
X445728Y335922D01*
X492265D01*
Y330215D01*
X510235D01*
Y348185D01*
D02*
G37*
G36*
X51674Y67000D02*
X48326D01*
X45041Y66347D01*
X41947Y65065D01*
X39163Y63205D01*
X36795Y60837D01*
X34935Y58053D01*
X33653Y54959D01*
X33000Y51674D01*
Y48326D01*
X33653Y45041D01*
X34935Y41947D01*
X36795Y39163D01*
X39163Y36795D01*
X41947Y34935D01*
X45041Y33653D01*
X48326Y33000D01*
X51674D01*
X54959Y33653D01*
X58053Y34935D01*
X60837Y36795D01*
X63205Y39163D01*
X65065Y41947D01*
X66347Y45041D01*
X67000Y48326D01*
Y51674D01*
X66347Y54959D01*
X65065Y58053D01*
X63205Y60837D01*
X60837Y63205D01*
X58053Y65065D01*
X54959Y66347D01*
X51674Y67000D01*
D02*
G37*
G36*
X951674Y65575D02*
X948326D01*
X945041Y64922D01*
X941947Y63640D01*
X939163Y61780D01*
X936795Y59412D01*
X934935Y56627D01*
X933653Y53534D01*
X933000Y50249D01*
Y46901D01*
X933653Y43616D01*
X934935Y40522D01*
X936795Y37738D01*
X939163Y35370D01*
X941947Y33510D01*
X945041Y32228D01*
X948326Y31575D01*
X951674D01*
X954959Y32228D01*
X958053Y33510D01*
X960837Y35370D01*
X963205Y37738D01*
X965065Y40522D01*
X966347Y43616D01*
X967000Y46901D01*
Y50249D01*
X966347Y53534D01*
X965065Y56627D01*
X963205Y59412D01*
X960837Y61780D01*
X958053Y63640D01*
X954959Y64922D01*
X951674Y65575D01*
D02*
G37*
%LPD*%
G36*
X710000Y830000D02*
X480000D01*
Y900000D01*
X680000D01*
Y895800D01*
X700000D01*
Y900000D01*
X710000D01*
Y830000D01*
D02*
G37*
%LPC*%
G36*
X692000Y891252D02*
Y882400D01*
X700852D01*
X700250Y884646D01*
X698802Y887154D01*
X696754Y889202D01*
X694246Y890650D01*
X692000Y891252D01*
D02*
G37*
G36*
X688000Y891252D02*
X685754Y890650D01*
X683246Y889202D01*
X681198Y887154D01*
X679750Y884646D01*
X679148Y882400D01*
X688000D01*
Y891252D01*
D02*
G37*
G36*
Y878400D02*
X679148D01*
X679750Y876154D01*
X681198Y873646D01*
X683246Y871598D01*
X685754Y870150D01*
X688000Y869548D01*
Y878400D01*
D02*
G37*
G36*
X700852D02*
X692000D01*
Y869548D01*
X694246Y870150D01*
X696754Y871598D01*
X698802Y873646D01*
X700250Y876154D01*
X700852Y878400D01*
D02*
G37*
G36*
X502000Y873285D02*
Y862197D01*
X513088D01*
X512263Y865276D01*
X510531Y868277D01*
X508080Y870728D01*
X505080Y872460D01*
X502000Y873285D01*
D02*
G37*
G36*
X498000D02*
X494920Y872460D01*
X491920Y870728D01*
X489469Y868277D01*
X487737Y865276D01*
X486912Y862197D01*
X498000D01*
Y873285D01*
D02*
G37*
G36*
X691317Y865000D02*
X688683D01*
X686140Y864318D01*
X683860Y863002D01*
X681998Y861140D01*
X680833Y859122D01*
X666742D01*
X666001Y860404D01*
X664698Y861707D01*
X663102Y862629D01*
X661322Y863106D01*
X659478D01*
X657698Y862629D01*
X656102Y861707D01*
X654799Y860404D01*
X653877Y858808D01*
X653400Y857028D01*
Y855184D01*
X653877Y853404D01*
X654799Y851808D01*
X656102Y850505D01*
X657698Y849583D01*
X659478Y849106D01*
X661322D01*
X663102Y849583D01*
X664698Y850505D01*
X666001Y851808D01*
X666103Y851984D01*
X680455D01*
X680682Y851140D01*
X681998Y848860D01*
X683860Y846998D01*
X686140Y845682D01*
X688683Y845000D01*
X691317D01*
X693860Y845682D01*
X696140Y846998D01*
X698002Y848860D01*
X699318Y851140D01*
X700000Y853683D01*
Y856317D01*
X699318Y858860D01*
X698002Y861140D01*
X696140Y863002D01*
X693860Y864318D01*
X691317Y865000D01*
D02*
G37*
G36*
X620500Y865500D02*
X612000D01*
Y857000D01*
X620500D01*
Y865500D01*
D02*
G37*
G36*
X608000D02*
X599500D01*
Y857000D01*
X608000D01*
Y865500D01*
D02*
G37*
G36*
X513088Y858197D02*
X502000D01*
Y847109D01*
X505080Y847934D01*
X508080Y849666D01*
X510531Y852116D01*
X512263Y855117D01*
X513088Y858197D01*
D02*
G37*
G36*
X498000D02*
X486912D01*
X487737Y855117D01*
X489469Y852116D01*
X491920Y849666D01*
X494920Y847934D01*
X498000Y847109D01*
Y858197D01*
D02*
G37*
G36*
X620500Y853000D02*
X612000D01*
Y844500D01*
X620500D01*
Y853000D01*
D02*
G37*
G36*
X608000D02*
X599500D01*
Y844500D01*
X608000D01*
Y853000D01*
D02*
G37*
%LPD*%
G36*
X791000Y649613D02*
Y641270D01*
X791000Y641000D01*
X790348Y640000D01*
X790000D01*
Y633000D01*
X800000D01*
X810000D01*
Y640000D01*
X809652D01*
X809000Y641000D01*
X809000Y641270D01*
Y648688D01*
X809899Y649586D01*
X870000Y649500D01*
Y587215D01*
X868730Y586875D01*
X868034Y588080D01*
X865584Y590531D01*
X862583Y592263D01*
X859503Y593088D01*
Y580000D01*
Y566912D01*
X862583Y567737D01*
X865584Y569469D01*
X868034Y571920D01*
X868730Y573125D01*
X870000Y572785D01*
Y430000D01*
X815500D01*
Y438000D01*
X805000D01*
X794500D01*
Y430000D01*
X759099D01*
X758917Y430483D01*
X758879Y431270D01*
X760833Y432398D01*
X762602Y434167D01*
X763852Y436333D01*
X764500Y438749D01*
Y441251D01*
X763852Y443667D01*
X762602Y445833D01*
X760833Y447602D01*
X758667Y448853D01*
X756251Y449500D01*
X753749D01*
X751333Y448853D01*
X749167Y447602D01*
X747398Y445833D01*
X746147Y443667D01*
X746121Y443569D01*
X735697D01*
X735276Y444298D01*
X733972Y445601D01*
X732376Y446523D01*
X730596Y447000D01*
X728753D01*
X726972Y446523D01*
X725376Y445601D01*
X724073Y444298D01*
X723151Y442702D01*
X722674Y440922D01*
Y439078D01*
X723151Y437298D01*
X724073Y435702D01*
X725376Y434399D01*
X726972Y433477D01*
X728753Y433000D01*
X730596D01*
X732376Y433477D01*
X733972Y434399D01*
X735276Y435702D01*
X735697Y436431D01*
X746121D01*
X746147Y436333D01*
X747398Y434167D01*
X749167Y432398D01*
X751121Y431270D01*
X751083Y430483D01*
X750901Y430000D01*
X517247D01*
Y503666D01*
X520197D01*
X520910Y502543D01*
X520913Y502500D01*
X532000D01*
Y500500D01*
X534000D01*
Y496436D01*
X539960D01*
X541244Y496691D01*
X542332Y497418D01*
X543059Y498506D01*
X543214Y499285D01*
X544512Y499783D01*
X576753Y467542D01*
X577834Y466820D01*
X579110Y466566D01*
X716993D01*
X717550Y465602D01*
X718853Y464299D01*
X720450Y463377D01*
X722230Y462900D01*
X724073D01*
X725853Y463377D01*
X727449Y464299D01*
X728753Y465602D01*
X729674Y467198D01*
X730151Y468978D01*
Y470822D01*
X729674Y472602D01*
X728753Y474198D01*
X727449Y475501D01*
X725853Y476423D01*
X724073Y476900D01*
X722230D01*
X720450Y476423D01*
X718853Y475501D01*
X717550Y474198D01*
X716993Y473234D01*
X580491D01*
X575714Y478012D01*
X576200Y479185D01*
X578089D01*
X578599Y478302D01*
X579902Y476999D01*
X581498Y476077D01*
X583278Y475600D01*
X585122D01*
X586902Y476077D01*
X588498Y476999D01*
X589801Y478302D01*
X590723Y479898D01*
X591200Y481678D01*
Y483522D01*
X590723Y485302D01*
X589801Y486898D01*
X589159Y487540D01*
X589685Y488810D01*
X604900D01*
Y506810D01*
X593294D01*
X592900Y506889D01*
X592900Y506889D01*
X589537D01*
X559097Y537329D01*
X557774Y538213D01*
X556791Y538408D01*
X556107Y539614D01*
X556095Y539743D01*
X556271Y540048D01*
X556555Y541107D01*
X557971Y541487D01*
X567600Y531859D01*
X568923Y530975D01*
X570484Y530664D01*
X570484Y530664D01*
X581550D01*
Y527243D01*
X599550D01*
Y543242D01*
X581550D01*
Y538821D01*
X572173D01*
X562503Y548491D01*
X562989Y549664D01*
X581550D01*
Y545243D01*
X599550D01*
Y561242D01*
X581550D01*
Y557821D01*
X562783D01*
X562691Y557992D01*
X562702Y559310D01*
X564298Y560232D01*
X565601Y561535D01*
X566523Y563131D01*
X567000Y564911D01*
Y566755D01*
X566523Y568535D01*
X565601Y570131D01*
X564298Y571435D01*
X562702Y572356D01*
X561996Y572545D01*
X562163Y573815D01*
X621000D01*
Y568394D01*
X624572D01*
Y561700D01*
X619150D01*
Y542700D01*
X638150D01*
Y561700D01*
X632728D01*
Y568394D01*
X639000D01*
Y587394D01*
X621000D01*
Y581972D01*
X559333D01*
X557772Y581661D01*
X556449Y580778D01*
X556449Y580777D01*
X551750Y576078D01*
X543098D01*
X542861Y576276D01*
X542207Y577348D01*
X542295Y577790D01*
Y579210D01*
X542117Y580103D01*
X542051Y580203D01*
X542227Y581772D01*
X542321Y581911D01*
X542332Y581918D01*
X543055Y583000D01*
X532000D01*
X520945D01*
X521668Y581918D01*
X521679Y581911D01*
X521773Y581772D01*
X521949Y580203D01*
X521883Y580103D01*
X521705Y579210D01*
Y577790D01*
X521883Y576897D01*
X522389Y576139D01*
X522650Y575965D01*
Y574535D01*
X522389Y574361D01*
X521883Y573604D01*
X521705Y572710D01*
Y571290D01*
X521883Y570396D01*
X522389Y569639D01*
X522650Y569465D01*
Y568035D01*
X522389Y567861D01*
X521883Y567104D01*
X521705Y566210D01*
Y564790D01*
X521883Y563896D01*
X522389Y563139D01*
X522650Y562965D01*
Y561535D01*
X522389Y561361D01*
X521883Y560603D01*
X521705Y559710D01*
Y558290D01*
X521883Y557397D01*
X522389Y556639D01*
X522650Y556465D01*
Y555035D01*
X522389Y554861D01*
X521883Y554104D01*
X521705Y553210D01*
Y551790D01*
X521883Y550896D01*
X521949Y550797D01*
X521773Y549228D01*
X521679Y549089D01*
X521668Y549082D01*
X520945Y548000D01*
X532000D01*
Y544000D01*
X520945D01*
X521668Y542918D01*
X521679Y542911D01*
X521773Y542772D01*
X521949Y541203D01*
X521883Y541104D01*
X521705Y540210D01*
Y538790D01*
X521883Y537896D01*
X522389Y537139D01*
X522650Y536965D01*
Y535535D01*
X522389Y535361D01*
X521883Y534604D01*
X521705Y533710D01*
Y532290D01*
X521883Y531396D01*
X522389Y530639D01*
X522650Y530465D01*
Y529035D01*
X522389Y528861D01*
X521883Y528103D01*
X521705Y527210D01*
Y525790D01*
X521883Y524897D01*
X522389Y524139D01*
X522650Y523965D01*
Y522535D01*
X522389Y522361D01*
X521883Y521604D01*
X521705Y520710D01*
Y519290D01*
X521883Y518396D01*
X522389Y517639D01*
X522650Y517465D01*
Y516035D01*
X522389Y515861D01*
X521883Y515103D01*
X521705Y514210D01*
Y512790D01*
X521883Y511897D01*
X522078Y511604D01*
X521482Y510334D01*
X517247D01*
Y514993D01*
X518062Y515538D01*
X518607Y516353D01*
X518798Y517315D01*
Y568185D01*
X518607Y569147D01*
X518062Y569962D01*
X517247Y570507D01*
Y592822D01*
X711822D01*
X711949Y592602D01*
X713252Y591299D01*
X714848Y590377D01*
X716628Y589900D01*
X718472D01*
X720252Y590377D01*
X721848Y591299D01*
X723151Y592602D01*
X724073Y594198D01*
X724550Y595978D01*
Y597822D01*
X724073Y599602D01*
X723151Y601198D01*
X721848Y602501D01*
X720252Y603423D01*
X718472Y603900D01*
X716628D01*
X714848Y603423D01*
X713252Y602501D01*
X711949Y601198D01*
X711822Y600978D01*
X517247D01*
Y649105D01*
X518145Y650003D01*
X791000Y649613D01*
D02*
G37*
G36*
X544711Y505982D02*
X544714Y505982D01*
X570316Y480379D01*
X570316Y480379D01*
X571639Y479495D01*
X572662Y479292D01*
X573068Y479118D01*
X573553Y478313D01*
X573675Y478012D01*
X573830Y477231D01*
X574272Y476570D01*
X579049Y471792D01*
X579711Y471350D01*
X580491Y471195D01*
X716993D01*
X717255Y471247D01*
X717521Y471264D01*
X717642Y471324D01*
X717774Y471350D01*
X717996Y471498D01*
X718235Y471616D01*
X718324Y471717D01*
X718435Y471792D01*
X718584Y472014D01*
X718759Y472214D01*
X719182Y472946D01*
X720105Y473870D01*
X721237Y474523D01*
X722498Y474861D01*
X723804D01*
X725066Y474523D01*
X726197Y473870D01*
X727121Y472946D01*
X727774Y471815D01*
X728112Y470553D01*
Y469247D01*
X727774Y467985D01*
X727121Y466854D01*
X726197Y465930D01*
X725066Y465277D01*
X723804Y464939D01*
X722498D01*
X721237Y465277D01*
X720105Y465930D01*
X719182Y466854D01*
X718759Y467586D01*
X718584Y467786D01*
X718435Y468008D01*
X718324Y468083D01*
X718235Y468184D01*
X717996Y468302D01*
X717774Y468450D01*
X717642Y468476D01*
X717521Y468536D01*
X717255Y468553D01*
X716993Y468605D01*
X579311D01*
X578630Y468741D01*
X578053Y469126D01*
X545954Y501225D01*
X545645Y501432D01*
X545342Y501646D01*
X545315Y501652D01*
X545293Y501667D01*
X544928Y501740D01*
X544566Y501822D01*
X544539Y501817D01*
X544512Y501822D01*
X544148Y501750D01*
X543782Y501687D01*
X543515Y501585D01*
X542117Y502104D01*
X542051Y502203D01*
X542227Y503772D01*
X542321Y503911D01*
X542332Y503918D01*
X543059Y505006D01*
X543156Y505494D01*
X544551Y506089D01*
X544711Y505982D01*
D02*
G37*
%LPC*%
G36*
X810000Y629000D02*
X802000D01*
Y622000D01*
X810000D01*
Y629000D01*
D02*
G37*
G36*
X798000D02*
X790000D01*
Y622000D01*
X798000D01*
Y629000D01*
D02*
G37*
G36*
X539960Y589064D02*
X534000D01*
Y587000D01*
X543055D01*
X542332Y588082D01*
X541244Y588809D01*
X539960Y589064D01*
D02*
G37*
G36*
X530000D02*
X524040D01*
X522756Y588809D01*
X521668Y588082D01*
X520945Y587000D01*
X530000D01*
Y589064D01*
D02*
G37*
G36*
X855503Y593088D02*
X852424Y592263D01*
X849423Y590531D01*
X846973Y588080D01*
X845240Y585080D01*
X844415Y582000D01*
X855503D01*
Y593088D01*
D02*
G37*
G36*
X659000Y587394D02*
X641000D01*
Y568394D01*
X659000D01*
Y573210D01*
X710471D01*
X711027Y572246D01*
X712330Y570942D01*
X713926Y570021D01*
X715707Y569544D01*
X717550D01*
X719330Y570021D01*
X720927Y570942D01*
X722230Y572246D01*
X723151Y573842D01*
X723628Y575622D01*
Y577465D01*
X723151Y579246D01*
X722230Y580842D01*
X720927Y582145D01*
X719330Y583067D01*
X717550Y583544D01*
X715707D01*
X713926Y583067D01*
X712330Y582145D01*
X711027Y580842D01*
X710471Y579878D01*
X659000D01*
Y587394D01*
D02*
G37*
G36*
X855503Y578000D02*
X844415D01*
X845240Y574920D01*
X846973Y571920D01*
X849423Y569469D01*
X852424Y567737D01*
X855503Y566912D01*
Y578000D01*
D02*
G37*
G36*
X815500Y570500D02*
X807000D01*
Y562000D01*
X815500D01*
Y570500D01*
D02*
G37*
G36*
X803000D02*
X794500D01*
Y562000D01*
X803000D01*
Y570500D01*
D02*
G37*
G36*
X706101Y561700D02*
X703599D01*
X701183Y561053D01*
X699017Y559802D01*
X697248Y558033D01*
X696101Y556046D01*
X685633D01*
X685051Y557053D01*
X683748Y558357D01*
X682152Y559278D01*
X680372Y559755D01*
X678528D01*
X676748Y559278D01*
X675152Y558357D01*
X673849Y557053D01*
X672927Y555457D01*
X672450Y553677D01*
Y551834D01*
X672927Y550053D01*
X673849Y548457D01*
X675152Y547154D01*
X676748Y546232D01*
X678528Y545755D01*
X680372D01*
X682152Y546232D01*
X683748Y547154D01*
X685051Y548457D01*
X685312Y548909D01*
X695897D01*
X695997Y548533D01*
X697248Y546367D01*
X699017Y544598D01*
X701183Y543347D01*
X703599Y542700D01*
X706101D01*
X708517Y543347D01*
X710683Y544598D01*
X712452Y546367D01*
X713703Y548533D01*
X714350Y550949D01*
Y553451D01*
X713703Y555867D01*
X712452Y558033D01*
X710683Y559802D01*
X708517Y561053D01*
X706101Y561700D01*
D02*
G37*
G36*
X756251Y569500D02*
X753749D01*
X751333Y568853D01*
X749167Y567602D01*
X747398Y565833D01*
X746147Y563667D01*
X745500Y561251D01*
Y558749D01*
X746147Y556333D01*
X747398Y554167D01*
X749167Y552398D01*
X751333Y551147D01*
X753749Y550500D01*
X756251D01*
X758667Y551147D01*
X760833Y552398D01*
X762602Y554167D01*
X763852Y556333D01*
X763893Y556484D01*
X775058D01*
X775449Y555807D01*
X776752Y554504D01*
X778348Y553582D01*
X780128Y553105D01*
X781972D01*
X783752Y553582D01*
X785348Y554504D01*
X786651Y555807D01*
X787573Y557403D01*
X788050Y559183D01*
Y561026D01*
X787573Y562807D01*
X786651Y564403D01*
X785348Y565706D01*
X783752Y566628D01*
X781972Y567105D01*
X780128D01*
X778348Y566628D01*
X776752Y565706D01*
X775449Y564403D01*
X774997Y563621D01*
X763865D01*
X763852Y563667D01*
X762602Y565833D01*
X760833Y567602D01*
X758667Y568853D01*
X756251Y569500D01*
D02*
G37*
G36*
X815500Y558000D02*
X807000D01*
Y549500D01*
X815500D01*
Y558000D01*
D02*
G37*
G36*
X803000D02*
X794500D01*
Y549500D01*
X803000D01*
Y558000D01*
D02*
G37*
G36*
X706101Y536300D02*
X703599D01*
X701183Y535653D01*
X699017Y534402D01*
X697248Y532633D01*
X695997Y530467D01*
X695350Y528051D01*
Y525549D01*
X695997Y523133D01*
X697248Y520967D01*
X699017Y519198D01*
X701183Y517947D01*
X703599Y517300D01*
X706101D01*
X708517Y517947D01*
X710683Y519198D01*
X712452Y520967D01*
X713703Y523133D01*
X714350Y525549D01*
Y528051D01*
X713703Y530467D01*
X712452Y532633D01*
X710683Y534402D01*
X708517Y535653D01*
X706101Y536300D01*
D02*
G37*
G36*
X629901D02*
X627399D01*
X624983Y535653D01*
X622817Y534402D01*
X621048Y532633D01*
X619797Y530467D01*
X619150Y528051D01*
Y525549D01*
X619797Y523133D01*
X621048Y520967D01*
X622817Y519198D01*
X624983Y517947D01*
X627399Y517300D01*
X629901D01*
X632317Y517947D01*
X634483Y519198D01*
X636252Y520967D01*
X637503Y523133D01*
X638150Y525549D01*
Y528051D01*
X637503Y530467D01*
X636252Y532633D01*
X634483Y534402D01*
X632317Y535653D01*
X629901Y536300D01*
D02*
G37*
G36*
X530000Y498500D02*
X520945D01*
X521668Y497418D01*
X522756Y496691D01*
X524040Y496436D01*
X530000D01*
Y498500D01*
D02*
G37*
G36*
X622900Y506810D02*
X606900D01*
Y488810D01*
X622900D01*
Y494396D01*
X628977D01*
X629399Y493667D01*
X630702Y492363D01*
X632298Y491442D01*
X634078Y490965D01*
X635922D01*
X637702Y491442D01*
X639298Y492363D01*
X640601Y493667D01*
X641523Y495263D01*
X642000Y497043D01*
Y498886D01*
X641523Y500667D01*
X640601Y502263D01*
X639298Y503566D01*
X637702Y504488D01*
X635922Y504965D01*
X634078D01*
X632298Y504488D01*
X630702Y503566D01*
X629399Y502263D01*
X628977Y501533D01*
X622900D01*
Y506810D01*
D02*
G37*
G36*
X815500Y450500D02*
X807000D01*
Y442000D01*
X815500D01*
Y450500D01*
D02*
G37*
G36*
X803000D02*
X794500D01*
Y442000D01*
X803000D01*
Y450500D01*
D02*
G37*
%LPD*%
G36*
X718543Y581166D02*
X719675Y580513D01*
X720598Y579590D01*
X721251Y578459D01*
X721589Y577197D01*
Y575891D01*
X721251Y574629D01*
X720598Y573498D01*
X719674Y572574D01*
X718543Y571921D01*
X717282Y571583D01*
X715975D01*
X714714Y571921D01*
X713582Y572574D01*
X712659Y573498D01*
X712236Y574229D01*
X712061Y574430D01*
X711912Y574651D01*
X711801Y574726D01*
X711712Y574827D01*
X711473Y574945D01*
X711251Y575094D01*
X711119Y575120D01*
X710998Y575179D01*
X710732Y575197D01*
X710471Y575249D01*
X660000D01*
Y577839D01*
X710471D01*
X710732Y577891D01*
X710998Y577908D01*
X711119Y577967D01*
X711251Y577994D01*
X711473Y578142D01*
X711712Y578260D01*
X711801Y578361D01*
X711912Y578436D01*
X712061Y578658D01*
X712236Y578858D01*
X712659Y579590D01*
X713583Y580513D01*
X714714Y581166D01*
X715975Y581505D01*
X717282D01*
X718543Y581166D01*
D02*
G37*
D19*
X340000Y670000D02*
X340000Y670000D01*
X266700Y670000D02*
X340000D01*
X339399Y590601D02*
X340000Y590000D01*
X266700Y590601D02*
X339399D01*
X544530Y504480D02*
X579110Y469900D01*
X541839Y506730D02*
X544089Y504480D01*
X544530D01*
X532270Y506730D02*
X541839D01*
X532000Y507000D02*
X532270Y506730D01*
X650000Y577894D02*
X651350Y576544D01*
X716628D01*
X579110Y469900D02*
X723151D01*
X491248Y507000D02*
X532000D01*
X482480Y515768D02*
X491248Y507000D01*
X482480Y515768D02*
Y521725D01*
X479935Y524270D02*
X482480Y521725D01*
X479440Y524270D02*
X479935D01*
X477210Y526500D02*
X479440Y524270D01*
X470500Y526500D02*
X477210D01*
D20*
X357270Y698500D02*
D03*
X342270D02*
D03*
D21*
X470500Y585000D02*
D03*
Y578500D02*
D03*
Y572000D02*
D03*
Y565500D02*
D03*
Y559000D02*
D03*
Y552500D02*
D03*
Y546000D02*
D03*
Y539500D02*
D03*
Y533000D02*
D03*
Y526500D02*
D03*
Y520000D02*
D03*
Y513500D02*
D03*
Y507000D02*
D03*
Y500500D02*
D03*
X532000Y585000D02*
D03*
Y578500D02*
D03*
Y572000D02*
D03*
Y565500D02*
D03*
Y552500D02*
D03*
Y546000D02*
D03*
Y539500D02*
D03*
Y533000D02*
D03*
Y526500D02*
D03*
Y520000D02*
D03*
Y513500D02*
D03*
Y507000D02*
D03*
Y500500D02*
D03*
Y559000D02*
D03*
D22*
X501250Y542750D02*
D03*
D23*
X650000Y577894D02*
D03*
X630000D02*
D03*
X340000Y510000D02*
D03*
X360000D02*
D03*
X340000Y490000D02*
D03*
X360000D02*
D03*
Y610000D02*
D03*
X340000D02*
D03*
X360000Y550000D02*
D03*
X340000D02*
D03*
Y670000D02*
D03*
X360000D02*
D03*
X340000Y590000D02*
D03*
X360000D02*
D03*
Y570000D02*
D03*
X340000D02*
D03*
X360000Y650000D02*
D03*
X340000D02*
D03*
D24*
X472250Y620770D02*
D03*
Y640770D02*
D03*
X470000Y470000D02*
D03*
Y450000D02*
D03*
D25*
X590550Y553242D02*
D03*
Y535243D02*
D03*
X800000Y631000D02*
D03*
Y649000D02*
D03*
D26*
X596900Y497810D02*
D03*
X614900D02*
D03*
X341000Y630000D02*
D03*
X359000D02*
D03*
X340500Y530000D02*
D03*
X358500D02*
D03*
D33*
X943180Y762060D02*
D03*
Y889060D02*
D03*
D34*
X917780Y861120D02*
D03*
D35*
X900000Y850960D02*
D03*
X917780Y840800D02*
D03*
X900000Y830640D02*
D03*
X917780Y820480D02*
D03*
X900000Y810320D02*
D03*
X917780Y800160D02*
D03*
X900000Y790000D02*
D03*
D43*
X501250Y415400D02*
D03*
Y390000D02*
D03*
Y364600D02*
D03*
D44*
Y339200D02*
D03*
D47*
X339457Y569457D02*
X340000Y570000D01*
X311150Y569457D02*
X339457D01*
X340000Y609500D02*
Y610000D01*
Y550000D02*
Y570000D01*
Y610000D02*
X341000Y611000D01*
X304800Y698500D02*
X342270D01*
X339078Y649078D02*
X340000Y650000D01*
X341000Y649000D01*
X304800Y649078D02*
X339078D01*
X471670Y641350D02*
X472250Y640770D01*
X449078Y641350D02*
X471670D01*
X547854Y542750D02*
X549748D01*
X532500Y540000D02*
X545104D01*
X547854Y542750D01*
X532000Y539500D02*
X532500Y540000D01*
X470000Y546500D02*
X470500Y546000D01*
X425450Y547048D02*
X425998Y546500D01*
X470000D01*
X689447Y855553D02*
X690000Y855000D01*
X660953Y855553D02*
X689447D01*
X660400Y856106D02*
X660953Y855553D01*
X610000Y805000D02*
X610141Y804859D01*
X634859D01*
X635000Y804719D01*
X500000Y922694D02*
X500972Y921722D01*
X532428D01*
X533400Y920750D01*
X452502Y890194D02*
X485001Y922694D01*
X500000D01*
X800000Y649000D02*
X800100Y649100D01*
Y666750D01*
X887501Y627498D02*
X888501Y628498D01*
X916780D01*
X917780Y629498D01*
X920000Y580000D02*
X920205Y579795D01*
X948298D01*
X948503Y579590D01*
X755000Y560000D02*
X755052Y560052D01*
X780998D01*
X781050Y560105D01*
X704572Y552478D02*
X704850Y552200D01*
X679728Y552478D02*
X704572D01*
X679450Y552755D02*
X679728Y552478D01*
X729674Y440000D02*
X755000D01*
X614900Y497810D02*
X615054Y497965D01*
X635000D01*
X470000Y450000D02*
X470850Y450850D01*
X487418D01*
X341000Y630000D02*
Y649000D01*
Y611000D02*
Y630000D01*
X340500Y530000D02*
Y549500D01*
X340000Y550000D02*
X340500Y549500D01*
X340000Y510000D02*
Y529500D01*
X340500Y530000D01*
X340000Y490000D02*
Y510000D01*
D48*
X554105Y559000D02*
X555355Y557750D01*
X555961D01*
X559969Y553742D01*
X590550D01*
X570484Y534743D02*
X590550D01*
X530000Y552500D02*
X552120D01*
X552870Y551750D01*
X553476D01*
X570484Y534743D01*
X559667Y565500D02*
X560000Y565833D01*
X530000Y565500D02*
X559667D01*
X554423Y527750D02*
X570352Y511821D01*
X546272Y509750D02*
X546713D01*
X538250Y533750D02*
X552806D01*
X538250Y512500D02*
X543522D01*
X538250Y519375D02*
X549375D01*
X552806Y533750D02*
X553501Y534445D01*
X556213D01*
X546713Y509750D02*
X573200Y483263D01*
X543522Y512500D02*
X546272Y509750D01*
X546022Y527500D02*
X546272Y527750D01*
X554423D01*
X538250Y527500D02*
X546022D01*
X549375Y519375D02*
X550000Y518750D01*
X530000Y572000D02*
X553439D01*
X559333Y577894D02*
X630000D01*
X553439Y572000D02*
X559333Y577894D01*
X530000Y559000D02*
X554105D01*
X592900Y502810D02*
X596900Y498810D01*
X556213Y534445D02*
X587848Y502810D01*
X592900D01*
X420000Y565645D02*
X421148Y564497D01*
X429214D02*
X434711Y559000D01*
X411000Y552750D02*
X418424D01*
X421722Y556048D02*
X429178D01*
X421148Y564497D02*
X429214D01*
X430630Y539500D02*
X472500D01*
X394874D02*
X420270D01*
X421722Y538048D01*
X429178D01*
Y556048D02*
X432476Y552750D01*
X362000Y533000D02*
X418285D01*
X432476Y552750D02*
X472250D01*
X432615Y533000D02*
X472500D01*
X419237Y532048D02*
X431663D01*
X429178Y538048D02*
X430630Y539500D01*
X431663Y532048D02*
X432615Y533000D01*
X418285D02*
X419237Y532048D01*
X418424Y552750D02*
X421722Y556048D01*
X434711Y559000D02*
X472500D01*
X410000Y553750D02*
X411000Y552750D01*
X390000Y542750D02*
X391624D01*
X394874Y539500D01*
X442545Y568535D02*
X445580Y565500D01*
X440922Y568535D02*
X442545D01*
X445580Y565500D02*
X472500D01*
X472750Y572250D02*
X479610D01*
X472500Y572000D02*
X472750Y572250D01*
X485253Y577894D02*
Y594557D01*
X487596Y596900D01*
X479610Y572250D02*
X485253Y577894D01*
X487596Y596900D02*
X717550D01*
X470000Y470000D02*
X470500Y470500D01*
Y500500D01*
X596900Y497810D02*
Y498810D01*
X593750Y497810D02*
Y498310D01*
X690000Y905800D02*
X690284Y905517D01*
X825217D01*
X825500Y905233D01*
Y810320D02*
X900000D01*
X917780Y800160D02*
X978431D01*
X584200Y717550D02*
X977900D01*
X583537Y483263D02*
X584200Y482600D01*
X573200Y483263D02*
X583537D01*
X570352Y502798D02*
Y511821D01*
Y502798D02*
X571500Y501650D01*
Y730250D02*
X965038D01*
X917780Y840800D02*
X965038D01*
X718570Y851980D02*
X898980D01*
X717550Y853000D02*
X718570Y851980D01*
X628650Y552200D02*
Y576544D01*
X630000Y577894D01*
X898980Y851980D02*
X900000Y850960D01*
X449078Y585000D02*
X472500D01*
X470720Y622300D02*
X472250Y620770D01*
X450000Y622300D02*
X470720D01*
X357270Y672730D02*
X360000Y670000D01*
X357270Y672730D02*
Y698500D01*
X360000Y650000D02*
X421064D01*
X455713Y504000D02*
X458713Y507000D01*
X360000Y510000D02*
X453228D01*
X450500Y520000D02*
X472500D01*
X419375Y504000D02*
X455713D01*
X453228Y510000D02*
X456728Y513500D01*
X450000Y391183D02*
X450591Y390592D01*
X500658D01*
X456728Y513500D02*
X472500D01*
X450000Y519500D02*
X450500Y520000D01*
X458713Y507000D02*
X472500D01*
X360000Y650000D02*
Y670000D01*
Y610000D02*
Y629500D01*
X359500Y630000D02*
X360000Y629500D01*
Y610000D02*
X410000D01*
X360000Y570000D02*
Y590000D01*
Y570000D02*
X390000D01*
X359000Y530000D02*
X362000Y533000D01*
X359000Y530000D02*
Y549000D01*
X360000Y550000D01*
X410875Y495500D02*
X419375Y504000D01*
X365000Y495500D02*
X410875D01*
X360000Y490500D02*
X365000Y495500D01*
X360000Y490000D02*
Y490500D01*
X500450Y340000D02*
X501250Y339200D01*
X440000Y340000D02*
X500450D01*
X501250Y364600D02*
X501842Y365191D01*
X559409D01*
X560000Y365783D01*
X500658Y390592D02*
X501250Y390000D01*
Y415400D02*
X544908D01*
X548376Y418868D01*
X550000D01*
D49*
X755000Y440000D02*
D03*
Y560000D02*
D03*
X610000Y805000D02*
D03*
X628650Y526800D02*
D03*
X704850Y552200D02*
D03*
Y526800D02*
D03*
D50*
X805000Y440000D02*
D03*
Y560000D02*
D03*
X628650Y552200D02*
D03*
D51*
X610000Y855000D02*
D03*
D52*
X50000Y950000D02*
D03*
X950000D02*
D03*
X50000Y50000D02*
D03*
X950000Y48575D02*
D03*
D53*
X690000Y855000D02*
D03*
Y880400D02*
D03*
D54*
Y905800D02*
D03*
D55*
X857503Y580000D02*
D03*
X920000Y580000D02*
D03*
X887501Y627498D02*
D03*
X500000Y860197D02*
D03*
X500000Y922694D02*
D03*
X452502Y890194D02*
D03*
D56*
X311150Y569457D02*
D03*
X266700Y670000D02*
D03*
Y590601D02*
D03*
X449078Y641350D02*
D03*
X304800Y698500D02*
D03*
Y649078D02*
D03*
X549748Y542750D02*
D03*
X560000Y565833D02*
D03*
X550000Y518750D02*
D03*
X425450Y547048D02*
D03*
X420000Y565645D02*
D03*
X440922Y568535D02*
D03*
X410000Y553750D02*
D03*
X660400Y856106D02*
D03*
X635000Y804719D02*
D03*
X533400Y920750D02*
D03*
X800100Y666750D02*
D03*
X917780Y629498D02*
D03*
X948503Y579590D02*
D03*
X781050Y560105D02*
D03*
X679450Y552755D02*
D03*
X729674Y440000D02*
D03*
X635000Y497965D02*
D03*
X487418Y450850D02*
D03*
X716628Y576544D02*
D03*
X723151Y469900D02*
D03*
X825500Y905233D02*
D03*
Y810320D02*
D03*
X978431Y800160D02*
D03*
X977900Y717550D02*
D03*
X584200D02*
D03*
Y482600D02*
D03*
X571500Y501650D02*
D03*
X965038Y840800D02*
D03*
Y730250D02*
D03*
X571500D02*
D03*
X717550Y853000D02*
D03*
Y596900D02*
D03*
X449078Y585000D02*
D03*
X450000Y622300D02*
D03*
X421064Y650000D02*
D03*
X450000Y391183D02*
D03*
Y519500D02*
D03*
X410000Y610000D02*
D03*
X390000Y570000D02*
D03*
Y542750D02*
D03*
X440000Y340000D02*
D03*
X560000Y365783D02*
D03*
X550000Y418868D02*
D03*
D57*
X490250Y564750D02*
D03*
X501250D02*
D03*
X512250D02*
D03*
X490250Y553750D02*
D03*
X501250D02*
D03*
X512250D02*
D03*
X490250Y542750D02*
D03*
X501250D02*
D03*
X512250D02*
D03*
X490250Y531750D02*
D03*
X501250D02*
D03*
X512250D02*
D03*
X490250Y520750D02*
D03*
X501250D02*
D03*
X512250D02*
D03*
M02*
