G04*
G04 #@! TF.GenerationSoftware,Altium Limited,Altium Designer,23.7.1 (13)*
G04*
G04 Layer_Physical_Order=2*
G04 Layer_Color=16711680*
%FSLAX44Y44*%
%MOMM*%
G71*
G04*
G04 #@! TF.SameCoordinates,9BDE129D-A6D9-4E47-A380-7317F5008C5C*
G04*
G04*
G04 #@! TF.FilePolarity,Positive*
G04*
G01*
G75*
%ADD11C,0.2000*%
%ADD19C,0.2540*%
%ADD33C,3.2500*%
%ADD34R,1.3900X1.3900*%
%ADD35C,1.3900*%
%ADD43C,1.3970*%
%ADD44R,1.3970X1.3970*%
%ADD47C,0.3000*%
%ADD48C,0.4000*%
%ADD49C,1.5000*%
%ADD50R,1.5000X1.5000*%
%ADD51R,1.5000X1.5000*%
%ADD53C,1.6000*%
%ADD54R,1.6000X1.6000*%
%ADD55C,2.0320*%
%ADD56C,1.0000*%
%ADD57C,0.6000*%
%ADD58C,4.3180*%
G36*
X50000Y996666D02*
X950000D01*
X950140Y996694D01*
X956096Y996303D01*
X962088Y995112D01*
X967872Y993148D01*
X973352Y990446D01*
X978431Y987052D01*
X983024Y983024D01*
X987052Y978431D01*
X990446Y973352D01*
X993148Y967872D01*
X995112Y962088D01*
X996303Y956096D01*
X996694Y950140D01*
X996666Y950000D01*
X996666Y50000D01*
X996694Y49860D01*
X996303Y43904D01*
X995112Y37912D01*
X993148Y32127D01*
X990446Y26648D01*
X987052Y21569D01*
X983024Y16976D01*
X978431Y12948D01*
X973352Y9554D01*
X967872Y6852D01*
X962088Y4888D01*
X956096Y3697D01*
X950140Y3306D01*
X950000Y3334D01*
X50000D01*
X49860Y3306D01*
X43904Y3697D01*
X37912Y4888D01*
X32128Y6852D01*
X26648Y9554D01*
X21569Y12948D01*
X16976Y16976D01*
X12948Y21569D01*
X9554Y26648D01*
X6852Y32127D01*
X4888Y37912D01*
X3697Y43904D01*
X3380Y48739D01*
X3334Y50000D01*
X3334Y50000D01*
X3334Y51252D01*
Y950000D01*
X3306Y950140D01*
X3697Y956096D01*
X4888Y962088D01*
X6852Y967872D01*
X9554Y973352D01*
X12948Y978431D01*
X16976Y983024D01*
X21569Y987052D01*
X26648Y990446D01*
X32127Y993148D01*
X37912Y995112D01*
X43904Y996303D01*
X49860Y996694D01*
X50000Y996666D01*
D02*
G37*
%LPC*%
G36*
X952323Y973590D02*
X947677D01*
X943119Y972683D01*
X938826Y970905D01*
X934962Y968324D01*
X931676Y965038D01*
X929095Y961174D01*
X927317Y956881D01*
X926410Y952323D01*
Y947677D01*
X927317Y943119D01*
X929095Y938826D01*
X931676Y934962D01*
X934962Y931676D01*
X938826Y929095D01*
X943119Y927317D01*
X947677Y926410D01*
X952323D01*
X956881Y927317D01*
X961174Y929095D01*
X965038Y931676D01*
X968324Y934962D01*
X970905Y938826D01*
X972683Y943119D01*
X973590Y947677D01*
Y952323D01*
X972683Y956881D01*
X970905Y961174D01*
X968324Y965038D01*
X965038Y968324D01*
X961174Y970905D01*
X956881Y972683D01*
X952323Y973590D01*
D02*
G37*
G36*
X52323D02*
X47677D01*
X43119Y972683D01*
X38826Y970905D01*
X34962Y968324D01*
X31676Y965038D01*
X29095Y961174D01*
X27317Y956881D01*
X26410Y952323D01*
Y947677D01*
X27317Y943119D01*
X29095Y938826D01*
X31676Y934962D01*
X34962Y931676D01*
X38826Y929095D01*
X43119Y927317D01*
X47677Y926410D01*
X52323D01*
X56881Y927317D01*
X61174Y929095D01*
X65038Y931676D01*
X68324Y934962D01*
X70905Y938826D01*
X72683Y943119D01*
X73590Y947677D01*
Y952323D01*
X72683Y956881D01*
X70905Y961174D01*
X68324Y965038D01*
X65038Y968324D01*
X61174Y970905D01*
X56881Y972683D01*
X52323Y973590D01*
D02*
G37*
G36*
X502000Y935782D02*
Y924694D01*
X513088D01*
X512263Y927773D01*
X510531Y930774D01*
X508080Y933224D01*
X505080Y934957D01*
X502000Y935782D01*
D02*
G37*
G36*
X498000D02*
X494920Y934957D01*
X491920Y933224D01*
X489469Y930774D01*
X487737Y927773D01*
X486912Y924694D01*
X498000D01*
Y935782D01*
D02*
G37*
G36*
X513088Y920694D02*
X502000D01*
Y909605D01*
X505080Y910431D01*
X508080Y912163D01*
X510531Y914613D01*
X512263Y917614D01*
X513088Y920694D01*
D02*
G37*
G36*
X498000D02*
X486912D01*
X487737Y917614D01*
X489469Y914613D01*
X491920Y912163D01*
X494920Y910431D01*
X498000Y909605D01*
Y920694D01*
D02*
G37*
G36*
X700000Y915800D02*
X680000D01*
Y895800D01*
X700000D01*
Y915800D01*
D02*
G37*
G36*
X454502Y903283D02*
Y892194D01*
X465590D01*
X464765Y895274D01*
X463033Y898275D01*
X460582Y900725D01*
X457581Y902458D01*
X454502Y903283D01*
D02*
G37*
G36*
X450502D02*
X447422Y902458D01*
X444422Y900725D01*
X441971Y898275D01*
X440239Y895274D01*
X439414Y892194D01*
X450502D01*
Y903283D01*
D02*
G37*
G36*
X465590Y888194D02*
X454502D01*
Y877106D01*
X457581Y877931D01*
X460582Y879664D01*
X463033Y882114D01*
X464765Y885115D01*
X465590Y888194D01*
D02*
G37*
G36*
X450502D02*
X439414D01*
X440239Y885115D01*
X441971Y882114D01*
X444422Y879664D01*
X447422Y877931D01*
X450502Y877106D01*
Y888194D01*
D02*
G37*
G36*
X944977Y907310D02*
X941383D01*
X937857Y906609D01*
X934535Y905233D01*
X931546Y903236D01*
X929004Y900694D01*
X927007Y897705D01*
X925631Y894383D01*
X924930Y890857D01*
Y887262D01*
X925631Y883737D01*
X927007Y880415D01*
X929004Y877426D01*
X931546Y874884D01*
X934535Y872887D01*
X937857Y871511D01*
X941383Y870810D01*
X944977D01*
X948503Y871511D01*
X951825Y872887D01*
X954814Y874884D01*
X957356Y877426D01*
X959353Y880415D01*
X960729Y883737D01*
X961430Y887262D01*
Y890857D01*
X960729Y894383D01*
X959353Y897705D01*
X957356Y900694D01*
X954814Y903236D01*
X951825Y905233D01*
X948503Y906609D01*
X944977Y907310D01*
D02*
G37*
G36*
X691317Y890400D02*
X688683D01*
X686140Y889718D01*
X683860Y888402D01*
X681998Y886540D01*
X680682Y884260D01*
X680000Y881717D01*
Y879083D01*
X680682Y876540D01*
X681998Y874260D01*
X683860Y872398D01*
X686140Y871081D01*
X688683Y870400D01*
X691317D01*
X693860Y871081D01*
X696140Y872398D01*
X698002Y874260D01*
X699318Y876540D01*
X700000Y879083D01*
Y881717D01*
X699318Y884260D01*
X698002Y886540D01*
X696140Y888402D01*
X693860Y889718D01*
X691317Y890400D01*
D02*
G37*
G36*
X692000Y865852D02*
Y857000D01*
X700852D01*
X700250Y859246D01*
X698802Y861754D01*
X696754Y863802D01*
X694246Y865250D01*
X692000Y865852D01*
D02*
G37*
G36*
X688000Y865852D02*
X685754Y865250D01*
X683246Y863802D01*
X681198Y861754D01*
X679750Y859246D01*
X679148Y857000D01*
X688000D01*
Y865852D01*
D02*
G37*
G36*
X926730Y870070D02*
X908830D01*
Y856106D01*
X907560Y855766D01*
X907162Y856455D01*
X905495Y858122D01*
X903455Y859300D01*
X901178Y859910D01*
X898822D01*
X896545Y859300D01*
X894505Y858122D01*
X892838Y856455D01*
X891660Y854415D01*
X891050Y852138D01*
Y849782D01*
X891660Y847505D01*
X892838Y845465D01*
X894505Y843798D01*
X896545Y842620D01*
X898822Y842010D01*
X901178D01*
X903455Y842620D01*
X905495Y843798D01*
X907162Y845465D01*
X908340Y847505D01*
X908950Y849782D01*
Y851366D01*
X908950Y852138D01*
X908974Y852170D01*
X909959Y852170D01*
X926730D01*
Y870070D01*
D02*
G37*
G36*
X501601Y872357D02*
X498399D01*
X495306Y871528D01*
X492534Y869927D01*
X490270Y867663D01*
X488669Y864891D01*
X487840Y861798D01*
Y858596D01*
X488669Y855503D01*
X490270Y852731D01*
X492534Y850467D01*
X495306Y848866D01*
X498399Y848037D01*
X501601D01*
X504694Y848866D01*
X507466Y850467D01*
X509730Y852731D01*
X511331Y855503D01*
X512160Y858596D01*
Y861798D01*
X511331Y864891D01*
X509730Y867663D01*
X507466Y869927D01*
X504694Y871528D01*
X501601Y872357D01*
D02*
G37*
G36*
X619500Y864500D02*
X600500D01*
Y845500D01*
X619500D01*
Y864500D01*
D02*
G37*
G36*
X688000Y853000D02*
X679148D01*
X679750Y850754D01*
X681198Y848246D01*
X683246Y846198D01*
X685754Y844750D01*
X688000Y844148D01*
Y853000D01*
D02*
G37*
G36*
X700852D02*
X692000D01*
Y844148D01*
X694246Y844750D01*
X696754Y846198D01*
X698802Y848246D01*
X700250Y850754D01*
X700852Y853000D01*
D02*
G37*
G36*
X902000Y840405D02*
Y832640D01*
X909765D01*
X909272Y834481D01*
X907962Y836749D01*
X906109Y838602D01*
X903841Y839912D01*
X902000Y840405D01*
D02*
G37*
G36*
X898000Y840405D02*
X896159Y839912D01*
X893891Y838602D01*
X892038Y836749D01*
X890728Y834481D01*
X890235Y832640D01*
X898000D01*
Y840405D01*
D02*
G37*
G36*
X918958Y849750D02*
X916602D01*
X914325Y849140D01*
X912285Y847962D01*
X910618Y846295D01*
X909440Y844255D01*
X908830Y841978D01*
Y839622D01*
X909440Y837345D01*
X910618Y835305D01*
X912285Y833638D01*
X914325Y832460D01*
X916602Y831850D01*
X918958D01*
X921235Y832460D01*
X923275Y833638D01*
X924942Y835305D01*
X926120Y837345D01*
X926730Y839622D01*
Y841978D01*
X926120Y844255D01*
X924942Y846295D01*
X923275Y847962D01*
X921235Y849140D01*
X918958Y849750D01*
D02*
G37*
G36*
X915780Y830245D02*
X913939Y829752D01*
X911671Y828442D01*
X910791Y827563D01*
X909653Y828220D01*
X909765Y828640D01*
X902000D01*
Y820875D01*
X903841Y821368D01*
X906109Y822678D01*
X906989Y823557D01*
X908127Y822900D01*
X908015Y822480D01*
X915780D01*
Y830245D01*
D02*
G37*
G36*
X919780Y830245D02*
Y822480D01*
X927545D01*
X927052Y824321D01*
X925742Y826589D01*
X923889Y828442D01*
X921621Y829752D01*
X919780Y830245D01*
D02*
G37*
G36*
X898000Y828640D02*
X890235D01*
X890728Y826799D01*
X892038Y824531D01*
X893891Y822678D01*
X896159Y821368D01*
X898000Y820875D01*
Y828640D01*
D02*
G37*
G36*
X915780Y818480D02*
X908015D01*
X908508Y816639D01*
X909818Y814371D01*
X911671Y812518D01*
X913939Y811208D01*
X915780Y810715D01*
Y818480D01*
D02*
G37*
G36*
X927545D02*
X919780D01*
Y810715D01*
X921621Y811208D01*
X923889Y812518D01*
X925742Y814371D01*
X927052Y816639D01*
X927545Y818480D01*
D02*
G37*
G36*
X612000Y815334D02*
Y807000D01*
X620334D01*
X619784Y809053D01*
X618402Y811447D01*
X616447Y813402D01*
X614053Y814784D01*
X612000Y815334D01*
D02*
G37*
G36*
X608000Y815334D02*
X605947Y814784D01*
X603553Y813402D01*
X601598Y811447D01*
X600216Y809053D01*
X599666Y807000D01*
X608000D01*
Y815334D01*
D02*
G37*
G36*
X826422Y912233D02*
X824578D01*
X822798Y911756D01*
X821202Y910834D01*
X819899Y909531D01*
X818977Y907935D01*
X818500Y906154D01*
Y904311D01*
X818977Y902531D01*
X819899Y900935D01*
X821202Y899632D01*
X821422Y899505D01*
Y816048D01*
X821202Y815921D01*
X819899Y814618D01*
X818977Y813022D01*
X818500Y811242D01*
Y809398D01*
X818977Y807618D01*
X819899Y806022D01*
X821202Y804719D01*
X822798Y803797D01*
X824578Y803320D01*
X826422D01*
X828202Y803797D01*
X829798Y804719D01*
X831101Y806022D01*
X832023Y807618D01*
X832500Y809398D01*
Y811242D01*
X832023Y813022D01*
X831101Y814618D01*
X829798Y815921D01*
X829578Y816048D01*
Y899505D01*
X829798Y899632D01*
X831101Y900935D01*
X832023Y902531D01*
X832500Y904311D01*
Y906154D01*
X832023Y907935D01*
X831101Y909531D01*
X829798Y910834D01*
X828202Y911756D01*
X826422Y912233D01*
D02*
G37*
G36*
X901178Y819270D02*
X898822D01*
X896545Y818660D01*
X894505Y817482D01*
X892838Y815815D01*
X891660Y813775D01*
X891050Y811498D01*
Y809142D01*
X891660Y806865D01*
X892838Y804825D01*
X894505Y803158D01*
X896545Y801980D01*
X898822Y801370D01*
X901178D01*
X903455Y801980D01*
X905495Y803158D01*
X907162Y804825D01*
X908340Y806865D01*
X908950Y809142D01*
Y811498D01*
X908340Y813775D01*
X907162Y815815D01*
X905495Y817482D01*
X903455Y818660D01*
X901178Y819270D01*
D02*
G37*
G36*
X620335Y803000D02*
X612000D01*
Y794666D01*
X614053Y795216D01*
X616447Y796598D01*
X618402Y798553D01*
X619784Y800947D01*
X620335Y803000D01*
D02*
G37*
G36*
X608000D02*
X599665D01*
X600216Y800947D01*
X601598Y798553D01*
X603553Y796598D01*
X605947Y795216D01*
X608000Y794666D01*
Y803000D01*
D02*
G37*
G36*
X918958Y809110D02*
X916602D01*
X914325Y808500D01*
X912285Y807322D01*
X910618Y805655D01*
X909440Y803615D01*
X908830Y801338D01*
Y798982D01*
X909440Y796705D01*
X910618Y794665D01*
X912285Y792998D01*
X914325Y791820D01*
X916602Y791210D01*
X918958D01*
X921235Y791820D01*
X923275Y792998D01*
X924942Y794665D01*
X926120Y796705D01*
X926730Y798982D01*
Y801338D01*
X926120Y803615D01*
X924942Y805655D01*
X923275Y807322D01*
X921235Y808500D01*
X918958Y809110D01*
D02*
G37*
G36*
X901178Y798950D02*
X898822D01*
X896545Y798340D01*
X894505Y797162D01*
X892838Y795495D01*
X891660Y793455D01*
X891050Y791178D01*
Y788822D01*
X891660Y786545D01*
X892838Y784505D01*
X894505Y782838D01*
X896545Y781660D01*
X898822Y781050D01*
X901178D01*
X903455Y781660D01*
X905495Y782838D01*
X907162Y784505D01*
X908340Y786545D01*
X908950Y788822D01*
Y791178D01*
X908340Y793455D01*
X907162Y795495D01*
X905495Y797162D01*
X903455Y798340D01*
X901178Y798950D01*
D02*
G37*
G36*
X965959Y847800D02*
X964116D01*
X962336Y847323D01*
X960740Y846401D01*
X959436Y845098D01*
X958515Y843502D01*
X958038Y841722D01*
Y839878D01*
X958515Y838098D01*
X959436Y836502D01*
X960740Y835199D01*
X960959Y835072D01*
Y770145D01*
X959689Y769892D01*
X959353Y770705D01*
X957356Y773694D01*
X954814Y776236D01*
X951825Y778233D01*
X948503Y779609D01*
X944977Y780310D01*
X941383D01*
X937857Y779609D01*
X934535Y778233D01*
X931546Y776236D01*
X929004Y773694D01*
X927007Y770705D01*
X925631Y767383D01*
X924930Y763857D01*
Y760263D01*
X925631Y756737D01*
X927007Y753415D01*
X929004Y750426D01*
X931546Y747884D01*
X934535Y745887D01*
X937857Y744511D01*
X941383Y743810D01*
X944977D01*
X948503Y744511D01*
X951825Y745887D01*
X954814Y747884D01*
X957356Y750426D01*
X959353Y753415D01*
X959689Y754228D01*
X960959Y753975D01*
Y735978D01*
X960740Y735851D01*
X959436Y734548D01*
X958515Y732952D01*
X958038Y731172D01*
Y729328D01*
X958515Y727548D01*
X959436Y725952D01*
X960740Y724649D01*
X962336Y723727D01*
X964116Y723250D01*
X965959D01*
X967740Y723727D01*
X969336Y724649D01*
X970639Y725952D01*
X971561Y727548D01*
X972038Y729328D01*
Y731172D01*
X971561Y732952D01*
X970639Y734548D01*
X969336Y735851D01*
X969116Y735978D01*
Y835072D01*
X969336Y835199D01*
X970639Y836502D01*
X971561Y838098D01*
X972038Y839878D01*
Y841722D01*
X971561Y843502D01*
X970639Y845098D01*
X969336Y846401D01*
X967740Y847323D01*
X965959Y847800D01*
D02*
G37*
G36*
X979352Y807160D02*
X977509D01*
X975729Y806683D01*
X974133Y805761D01*
X972830Y804458D01*
X971908Y802862D01*
X971431Y801082D01*
Y799238D01*
X971908Y797458D01*
X972830Y795862D01*
X974087Y794604D01*
Y723431D01*
X973602Y723151D01*
X972299Y721848D01*
X971377Y720252D01*
X970900Y718472D01*
Y716628D01*
X971377Y714848D01*
X972299Y713252D01*
X973602Y711949D01*
X975198Y711027D01*
X976978Y710550D01*
X978822D01*
X980602Y711027D01*
X982198Y711949D01*
X983501Y713252D01*
X984423Y714848D01*
X984900Y716628D01*
Y718472D01*
X984423Y720252D01*
X983501Y721848D01*
X982244Y723106D01*
Y794278D01*
X982729Y794559D01*
X984032Y795862D01*
X984954Y797458D01*
X985431Y799238D01*
Y801082D01*
X984954Y802862D01*
X984032Y804458D01*
X982729Y805761D01*
X981133Y806683D01*
X979352Y807160D01*
D02*
G37*
G36*
X889501Y640586D02*
Y629498D01*
X900589D01*
X899764Y632578D01*
X898031Y635578D01*
X895581Y638029D01*
X892580Y639761D01*
X889501Y640586D01*
D02*
G37*
G36*
X885501Y640586D02*
X882421Y639761D01*
X879420Y638029D01*
X876970Y635578D01*
X875238Y632578D01*
X874412Y629498D01*
X885501D01*
Y640586D01*
D02*
G37*
G36*
X421986Y657000D02*
X420143D01*
X418362Y656523D01*
X416766Y655601D01*
X415463Y654298D01*
X414541Y652702D01*
X414064Y650922D01*
Y649078D01*
X414541Y647298D01*
X415463Y645702D01*
X416454Y644711D01*
Y615242D01*
X415184Y614716D01*
X414298Y615601D01*
X412702Y616523D01*
X410922Y617000D01*
X409078D01*
X407298Y616523D01*
X405702Y615601D01*
X404399Y614298D01*
X403477Y612702D01*
X403000Y610922D01*
Y609078D01*
X403477Y607298D01*
X404399Y605702D01*
X405702Y604399D01*
X405922Y604272D01*
Y559478D01*
X405702Y559351D01*
X404399Y558048D01*
X403477Y556452D01*
X403000Y554672D01*
Y552828D01*
X403477Y551048D01*
X404399Y549452D01*
X405702Y548149D01*
X407298Y547227D01*
X409078Y546750D01*
X410922D01*
X412702Y547227D01*
X414298Y548149D01*
X415601Y549452D01*
X416523Y551048D01*
X417000Y552828D01*
Y554672D01*
X416523Y556452D01*
X415601Y558048D01*
X414838Y558811D01*
X414890Y559110D01*
X414955Y559185D01*
X416282Y559709D01*
X417298Y559122D01*
X419078Y558645D01*
X420922D01*
X422702Y559122D01*
X424298Y560044D01*
X425601Y561347D01*
X426523Y562943D01*
X427000Y564724D01*
Y566567D01*
X426523Y568347D01*
X425601Y569943D01*
X424610Y570934D01*
Y643964D01*
X425362Y644399D01*
X426666Y645702D01*
X427587Y647298D01*
X428064Y649078D01*
Y650922D01*
X427587Y652702D01*
X426666Y654298D01*
X425362Y655601D01*
X423766Y656523D01*
X421986Y657000D01*
D02*
G37*
G36*
X885501Y625498D02*
X874412D01*
X875238Y622419D01*
X876970Y619418D01*
X879420Y616967D01*
X882421Y615235D01*
X885501Y614410D01*
Y625498D01*
D02*
G37*
G36*
X900589D02*
X889501D01*
Y614410D01*
X892580Y615235D01*
X895581Y616967D01*
X898031Y619418D01*
X899764Y622419D01*
X900589Y625498D01*
D02*
G37*
G36*
X718472Y860000D02*
X716628D01*
X714848Y859523D01*
X713252Y858601D01*
X711949Y857298D01*
X711027Y855702D01*
X710550Y853922D01*
Y852078D01*
X711027Y850298D01*
X711949Y848702D01*
X713252Y847399D01*
X713472Y847272D01*
Y602628D01*
X713252Y602501D01*
X711949Y601198D01*
X711027Y599602D01*
X710550Y597822D01*
Y595978D01*
X711027Y594198D01*
X711949Y592602D01*
X713252Y591299D01*
X714848Y590377D01*
X716628Y589900D01*
X718472D01*
X720252Y590377D01*
X721848Y591299D01*
X723151Y592602D01*
X724073Y594198D01*
X724550Y595978D01*
Y597822D01*
X724073Y599602D01*
X723151Y601198D01*
X721848Y602501D01*
X721628Y602628D01*
Y847272D01*
X721848Y847399D01*
X723151Y848702D01*
X724073Y850298D01*
X724550Y852078D01*
Y853922D01*
X724073Y855702D01*
X723151Y857298D01*
X721848Y858601D01*
X720252Y859523D01*
X718472Y860000D01*
D02*
G37*
G36*
X267622Y677000D02*
X265778D01*
X263998Y676523D01*
X262402Y675601D01*
X261099Y674298D01*
X260177Y672702D01*
X259700Y670921D01*
Y669078D01*
X260177Y667298D01*
X261099Y665702D01*
X262402Y664398D01*
X263366Y663842D01*
Y596759D01*
X262402Y596203D01*
X261099Y594899D01*
X260177Y593303D01*
X259700Y591523D01*
Y589680D01*
X260177Y587900D01*
X261099Y586303D01*
X262402Y585000D01*
X263998Y584078D01*
X265778Y583601D01*
X267622D01*
X269402Y584078D01*
X270998Y585000D01*
X272301Y586303D01*
X273223Y587900D01*
X273700Y589680D01*
Y591523D01*
X273223Y593303D01*
X272301Y594899D01*
X270998Y596203D01*
X270034Y596759D01*
Y663842D01*
X270998Y664398D01*
X272301Y665702D01*
X273223Y667298D01*
X273700Y669078D01*
Y670921D01*
X273223Y672702D01*
X272301Y674298D01*
X270998Y675601D01*
X269402Y676523D01*
X267622Y677000D01*
D02*
G37*
G36*
X922000Y593088D02*
Y582000D01*
X933088D01*
X932263Y585080D01*
X930531Y588080D01*
X928080Y590531D01*
X925080Y592263D01*
X922000Y593088D01*
D02*
G37*
G36*
X918000D02*
X914920Y592263D01*
X911920Y590531D01*
X909469Y588080D01*
X907737Y585080D01*
X906912Y582000D01*
X918000D01*
Y593088D01*
D02*
G37*
G36*
X450922Y629300D02*
X449078D01*
X447298Y628823D01*
X445702Y627901D01*
X444399Y626598D01*
X443477Y625002D01*
X443000Y623222D01*
Y621378D01*
X443477Y619598D01*
X444399Y618002D01*
X445461Y616940D01*
Y590994D01*
X444780Y590601D01*
X443477Y589298D01*
X442556Y587702D01*
X442078Y585922D01*
Y584078D01*
X442556Y582298D01*
X443477Y580702D01*
X444780Y579399D01*
X446376Y578477D01*
X448157Y578000D01*
X450000D01*
X451780Y578477D01*
X453377Y579399D01*
X454680Y580702D01*
X455601Y582298D01*
X456078Y584078D01*
Y585922D01*
X455601Y587702D01*
X454680Y589298D01*
X453618Y590360D01*
Y616306D01*
X454298Y616699D01*
X455601Y618002D01*
X456523Y619598D01*
X457000Y621378D01*
Y623222D01*
X456523Y625002D01*
X455601Y626598D01*
X454298Y627901D01*
X452702Y628823D01*
X450922Y629300D01*
D02*
G37*
G36*
X572422Y737250D02*
X570578D01*
X568798Y736773D01*
X567202Y735851D01*
X565899Y734548D01*
X564977Y732952D01*
X564500Y731172D01*
Y729328D01*
X564977Y727548D01*
X565899Y725952D01*
X567202Y724649D01*
X567422Y724522D01*
Y569518D01*
X566152Y569178D01*
X565601Y570131D01*
X564298Y571435D01*
X562702Y572356D01*
X560922Y572833D01*
X559078D01*
X557298Y572356D01*
X555702Y571435D01*
X554399Y570131D01*
X553477Y568535D01*
X553000Y566755D01*
Y564911D01*
X553477Y563131D01*
X554399Y561535D01*
X555702Y560232D01*
X555922Y560105D01*
Y524524D01*
X554652Y523998D01*
X554298Y524351D01*
X552702Y525273D01*
X550922Y525750D01*
X549078D01*
X547298Y525273D01*
X545702Y524351D01*
X544399Y523048D01*
X543477Y521452D01*
X543000Y519672D01*
Y517828D01*
X543477Y516048D01*
X544399Y514452D01*
X545702Y513149D01*
X545922Y513022D01*
Y424596D01*
X545702Y424469D01*
X544399Y423166D01*
X543477Y421570D01*
X543000Y419790D01*
Y417947D01*
X543477Y416166D01*
X544399Y414570D01*
X545702Y413267D01*
X547298Y412345D01*
X549078Y411868D01*
X550922D01*
X552702Y412345D01*
X554298Y413267D01*
X554652Y413620D01*
X555922Y413094D01*
Y371511D01*
X555702Y371384D01*
X554399Y370081D01*
X553477Y368485D01*
X553000Y366704D01*
Y364861D01*
X553477Y363081D01*
X554399Y361485D01*
X555702Y360182D01*
X557298Y359260D01*
X559078Y358783D01*
X560922D01*
X562702Y359260D01*
X564298Y360182D01*
X565601Y361485D01*
X566523Y363081D01*
X567000Y364861D01*
Y366704D01*
X566523Y368485D01*
X565601Y370081D01*
X564298Y371384D01*
X564078Y371511D01*
Y497965D01*
X565348Y498305D01*
X565899Y497352D01*
X567202Y496049D01*
X568798Y495127D01*
X570578Y494650D01*
X572422D01*
X574202Y495127D01*
X575798Y496049D01*
X577101Y497352D01*
X578023Y498948D01*
X578500Y500728D01*
Y502572D01*
X578023Y504352D01*
X577101Y505948D01*
X575798Y507251D01*
X575578Y507378D01*
Y724522D01*
X575798Y724649D01*
X577101Y725952D01*
X578023Y727548D01*
X578500Y729328D01*
Y731172D01*
X578023Y732952D01*
X577101Y734548D01*
X575798Y735851D01*
X574202Y736773D01*
X572422Y737250D01*
D02*
G37*
G36*
X859104Y592160D02*
X855902D01*
X852810Y591331D01*
X850037Y589730D01*
X847773Y587466D01*
X846172Y584694D01*
X845343Y581601D01*
Y578399D01*
X846172Y575306D01*
X847773Y572534D01*
X850037Y570270D01*
X852810Y568669D01*
X855902Y567840D01*
X859104D01*
X862197Y568669D01*
X864970Y570270D01*
X867234Y572534D01*
X868835Y575306D01*
X869663Y578399D01*
Y581601D01*
X868835Y584694D01*
X867234Y587466D01*
X864970Y589730D01*
X862197Y591331D01*
X859104Y592160D01*
D02*
G37*
G36*
X933088Y578000D02*
X922000D01*
Y566912D01*
X925080Y567737D01*
X928080Y569469D01*
X930531Y571920D01*
X932263Y574920D01*
X933088Y578000D01*
D02*
G37*
G36*
X918000D02*
X906912D01*
X907737Y574920D01*
X909469Y571920D01*
X911920Y569469D01*
X914920Y567737D01*
X918000Y566912D01*
Y578000D01*
D02*
G37*
G36*
X513245Y569750D02*
X511255D01*
X509418Y568989D01*
X508011Y567582D01*
X507423Y566163D01*
X506077D01*
X505489Y567582D01*
X504082Y568989D01*
X502245Y569750D01*
X500255D01*
X498418Y568989D01*
X497011Y567582D01*
X496423Y566163D01*
X495077D01*
X494489Y567582D01*
X493082Y568989D01*
X491245Y569750D01*
X489255D01*
X487418Y568989D01*
X486011Y567582D01*
X485250Y565745D01*
Y563755D01*
X486011Y561918D01*
X487418Y560511D01*
X488837Y559923D01*
Y558577D01*
X487418Y557989D01*
X486011Y556582D01*
X485250Y554745D01*
Y552755D01*
X486011Y550918D01*
X487418Y549511D01*
X488837Y548923D01*
Y547577D01*
X487418Y546989D01*
X486011Y545582D01*
X485250Y543745D01*
Y541755D01*
X486011Y539918D01*
X487418Y538511D01*
X488837Y537923D01*
Y536577D01*
X487418Y535989D01*
X486011Y534582D01*
X485250Y532745D01*
Y530755D01*
X486011Y528918D01*
X487418Y527511D01*
X488837Y526923D01*
Y525577D01*
X487418Y524989D01*
X486011Y523582D01*
X485250Y521744D01*
Y519755D01*
X486011Y517918D01*
X487418Y516511D01*
X489255Y515750D01*
X491245D01*
X493082Y516511D01*
X494489Y517918D01*
X495077Y519337D01*
X496423D01*
X497011Y517918D01*
X498418Y516511D01*
X500255Y515750D01*
X502245D01*
X504082Y516511D01*
X505489Y517918D01*
X506077Y519337D01*
X507423D01*
X508011Y517918D01*
X509418Y516511D01*
X511255Y515750D01*
X513245D01*
X515082Y516511D01*
X516489Y517918D01*
X517250Y519755D01*
Y521744D01*
X516489Y523582D01*
X515082Y524989D01*
X513663Y525577D01*
Y526923D01*
X515082Y527511D01*
X516489Y528918D01*
X517250Y530755D01*
Y532745D01*
X516489Y534582D01*
X515082Y535989D01*
X513663Y536577D01*
Y537923D01*
X515082Y538511D01*
X516489Y539918D01*
X517250Y541755D01*
Y543745D01*
X516489Y545582D01*
X515082Y546989D01*
X513663Y547577D01*
Y548923D01*
X515082Y549511D01*
X516489Y550918D01*
X517250Y552755D01*
Y554745D01*
X516489Y556582D01*
X515082Y557989D01*
X513663Y558577D01*
Y559923D01*
X515082Y560511D01*
X516489Y561918D01*
X517250Y563755D01*
Y565745D01*
X516489Y567582D01*
X515082Y568989D01*
X513245Y569750D01*
D02*
G37*
G36*
X757000Y570335D02*
Y562000D01*
X765334D01*
X764784Y564053D01*
X763402Y566447D01*
X761447Y568402D01*
X759053Y569784D01*
X757000Y570335D01*
D02*
G37*
G36*
X753000D02*
X750947Y569784D01*
X748553Y568402D01*
X746598Y566447D01*
X745216Y564053D01*
X744666Y562000D01*
X753000D01*
Y570335D01*
D02*
G37*
G36*
X706850Y562534D02*
Y554200D01*
X715184D01*
X714634Y556253D01*
X713252Y558647D01*
X711297Y560602D01*
X708903Y561984D01*
X706850Y562534D01*
D02*
G37*
G36*
X702850D02*
X700797Y561984D01*
X698403Y560602D01*
X696448Y558647D01*
X695066Y556253D01*
X694516Y554200D01*
X702850D01*
Y562534D01*
D02*
G37*
G36*
X814500Y569500D02*
X795500D01*
Y550500D01*
X814500D01*
Y569500D01*
D02*
G37*
G36*
X765334Y558000D02*
X757000D01*
Y549665D01*
X759053Y550216D01*
X761447Y551598D01*
X763402Y553553D01*
X764784Y555947D01*
X765334Y558000D01*
D02*
G37*
G36*
X753000D02*
X744666D01*
X745216Y555947D01*
X746598Y553553D01*
X748553Y551598D01*
X750947Y550216D01*
X753000Y549665D01*
Y558000D01*
D02*
G37*
G36*
X638150Y561700D02*
X619150D01*
Y542700D01*
X638150D01*
Y561700D01*
D02*
G37*
G36*
X715184Y550200D02*
X706850D01*
Y541866D01*
X708903Y542416D01*
X711297Y543798D01*
X713252Y545753D01*
X714634Y548147D01*
X715184Y550200D01*
D02*
G37*
G36*
X702850D02*
X694516D01*
X695066Y548147D01*
X696448Y545753D01*
X698403Y543798D01*
X700797Y542416D01*
X702850Y541866D01*
Y550200D01*
D02*
G37*
G36*
X390922Y577000D02*
X389078D01*
X387298Y576523D01*
X385702Y575601D01*
X384399Y574298D01*
X383477Y572702D01*
X383000Y570922D01*
Y569078D01*
X383477Y567298D01*
X384399Y565702D01*
X385702Y564399D01*
X385922Y564272D01*
Y548478D01*
X385702Y548351D01*
X384399Y547048D01*
X383477Y545452D01*
X383000Y543672D01*
Y541828D01*
X383477Y540048D01*
X384399Y538452D01*
X385702Y537149D01*
X387298Y536227D01*
X389078Y535750D01*
X390922D01*
X392702Y536227D01*
X394298Y537149D01*
X395601Y538452D01*
X396523Y540048D01*
X397000Y541828D01*
Y543672D01*
X396523Y545452D01*
X395601Y547048D01*
X394298Y548351D01*
X394078Y548478D01*
Y564272D01*
X394298Y564399D01*
X395601Y565702D01*
X396523Y567298D01*
X397000Y569078D01*
Y570922D01*
X396523Y572702D01*
X395601Y574298D01*
X394298Y575601D01*
X392702Y576523D01*
X390922Y577000D01*
D02*
G37*
G36*
X706101Y536300D02*
X703599D01*
X701183Y535653D01*
X699017Y534402D01*
X697248Y532633D01*
X695997Y530467D01*
X695350Y528051D01*
Y525549D01*
X695997Y523133D01*
X697248Y520967D01*
X699017Y519198D01*
X701183Y517947D01*
X703599Y517300D01*
X706101D01*
X708517Y517947D01*
X710683Y519198D01*
X712452Y520967D01*
X713703Y523133D01*
X714350Y525549D01*
Y528051D01*
X713703Y530467D01*
X712452Y532633D01*
X710683Y534402D01*
X708517Y535653D01*
X706101Y536300D01*
D02*
G37*
G36*
X629901D02*
X627399D01*
X624983Y535653D01*
X622817Y534402D01*
X621048Y532633D01*
X619797Y530467D01*
X619150Y528051D01*
Y525549D01*
X619797Y523133D01*
X621048Y520967D01*
X622817Y519198D01*
X624983Y517947D01*
X627399Y517300D01*
X629901D01*
X632317Y517947D01*
X634483Y519198D01*
X636252Y520967D01*
X637503Y523133D01*
X638150Y525549D01*
Y528051D01*
X637503Y530467D01*
X636252Y532633D01*
X634483Y534402D01*
X632317Y535653D01*
X629901Y536300D01*
D02*
G37*
G36*
X585122Y724550D02*
X583278D01*
X581498Y724073D01*
X579902Y723151D01*
X578599Y721848D01*
X577677Y720252D01*
X577200Y718472D01*
Y716628D01*
X577677Y714848D01*
X578599Y713252D01*
X579902Y711949D01*
X580122Y711822D01*
Y488328D01*
X579902Y488201D01*
X578599Y486898D01*
X577677Y485302D01*
X577200Y483522D01*
Y481678D01*
X577677Y479898D01*
X578599Y478302D01*
X579902Y476999D01*
X581498Y476077D01*
X583278Y475600D01*
X585122D01*
X586902Y476077D01*
X588498Y476999D01*
X589801Y478302D01*
X590723Y479898D01*
X591200Y481678D01*
Y483522D01*
X590723Y485302D01*
X589801Y486898D01*
X588498Y488201D01*
X588278Y488328D01*
Y711822D01*
X588498Y711949D01*
X589801Y713252D01*
X590723Y714848D01*
X591200Y716628D01*
Y718472D01*
X590723Y720252D01*
X589801Y721848D01*
X588498Y723151D01*
X586902Y724073D01*
X585122Y724550D01*
D02*
G37*
G36*
X717550Y583544D02*
X715707D01*
X713926Y583067D01*
X712330Y582145D01*
X711027Y580842D01*
X710106Y579246D01*
X709629Y577465D01*
Y575622D01*
X710106Y573842D01*
X711027Y572246D01*
X712330Y570942D01*
X713926Y570021D01*
X715707Y569544D01*
X717550D01*
X718625Y569832D01*
X719817Y568640D01*
Y476058D01*
X718853Y475501D01*
X717550Y474198D01*
X716628Y472602D01*
X716151Y470822D01*
Y468978D01*
X716628Y467198D01*
X717550Y465602D01*
X718853Y464299D01*
X720450Y463377D01*
X722230Y462900D01*
X724073D01*
X725853Y463377D01*
X727449Y464299D01*
X728753Y465602D01*
X729674Y467198D01*
X730151Y468978D01*
Y470822D01*
X729674Y472602D01*
X728753Y474198D01*
X727449Y475501D01*
X726485Y476058D01*
Y570021D01*
X726232Y571297D01*
X725509Y572378D01*
X723340Y574547D01*
X723628Y575622D01*
Y577465D01*
X723151Y579246D01*
X722230Y580842D01*
X720927Y582145D01*
X719330Y583067D01*
X717550Y583544D01*
D02*
G37*
G36*
X757000Y450335D02*
Y442000D01*
X765334D01*
X764784Y444053D01*
X763402Y446447D01*
X761447Y448402D01*
X759053Y449784D01*
X757000Y450335D01*
D02*
G37*
G36*
X753000D02*
X750947Y449784D01*
X748553Y448402D01*
X746598Y446447D01*
X745216Y444053D01*
X744666Y442000D01*
X753000D01*
Y450335D01*
D02*
G37*
G36*
X814500Y449500D02*
X795500D01*
Y430500D01*
X814500D01*
Y449500D01*
D02*
G37*
G36*
X765334Y438000D02*
X757000D01*
Y429665D01*
X759053Y430216D01*
X761447Y431598D01*
X763402Y433553D01*
X764784Y435947D01*
X765334Y438000D01*
D02*
G37*
G36*
X753000D02*
X744666D01*
X745216Y435947D01*
X746598Y433553D01*
X748553Y431598D01*
X750947Y430216D01*
X753000Y429665D01*
Y438000D01*
D02*
G37*
G36*
X502433Y424385D02*
X500067D01*
X497782Y423773D01*
X495733Y422590D01*
X494060Y420917D01*
X492877Y418868D01*
X492265Y416583D01*
Y414217D01*
X492877Y411932D01*
X494060Y409883D01*
X495733Y408210D01*
X497782Y407027D01*
X500067Y406415D01*
X502433D01*
X504718Y407027D01*
X506767Y408210D01*
X508440Y409883D01*
X509623Y411932D01*
X510235Y414217D01*
Y416583D01*
X509623Y418868D01*
X508440Y420917D01*
X506767Y422590D01*
X504718Y423773D01*
X502433Y424385D01*
D02*
G37*
G36*
X441843Y575535D02*
X440000D01*
X438220Y575058D01*
X436623Y574136D01*
X435320Y572833D01*
X434399Y571237D01*
X433922Y569457D01*
Y567613D01*
X434399Y565833D01*
X435320Y564237D01*
X436382Y563175D01*
Y345994D01*
X435702Y345601D01*
X434399Y344298D01*
X433477Y342702D01*
X433000Y340922D01*
Y339078D01*
X433477Y337298D01*
X434399Y335702D01*
X435702Y334399D01*
X437298Y333477D01*
X439078Y333000D01*
X440922D01*
X442702Y333477D01*
X444298Y334399D01*
X445601Y335702D01*
X446523Y337298D01*
X447000Y339078D01*
Y340922D01*
X446523Y342702D01*
X445601Y344298D01*
X444539Y345360D01*
Y385100D01*
X445042Y385308D01*
X445809Y385520D01*
X447298Y384660D01*
X449078Y384183D01*
X450922D01*
X452702Y384660D01*
X454298Y385582D01*
X455601Y386885D01*
X456523Y388481D01*
X457000Y390261D01*
Y392104D01*
X456523Y393885D01*
X455601Y395481D01*
X454298Y396784D01*
X454078Y396911D01*
Y513772D01*
X454298Y513899D01*
X455601Y515202D01*
X456523Y516798D01*
X457000Y518578D01*
Y520421D01*
X456523Y522202D01*
X455601Y523798D01*
X454298Y525101D01*
X452702Y526023D01*
X450922Y526500D01*
X449078D01*
X447298Y526023D01*
X445809Y525163D01*
X445042Y525375D01*
X444539Y525583D01*
Y562541D01*
X445220Y562934D01*
X446523Y564237D01*
X447444Y565833D01*
X447922Y567613D01*
Y569457D01*
X447444Y571237D01*
X446523Y572833D01*
X445220Y574136D01*
X443624Y575058D01*
X441843Y575535D01*
D02*
G37*
G36*
X502433Y398985D02*
X500067D01*
X497782Y398373D01*
X495733Y397190D01*
X494060Y395517D01*
X492877Y393468D01*
X492265Y391183D01*
Y388817D01*
X492877Y386532D01*
X494060Y384483D01*
X495733Y382810D01*
X497782Y381627D01*
X500067Y381015D01*
X502433D01*
X504718Y381627D01*
X506767Y382810D01*
X508440Y384483D01*
X509623Y386532D01*
X510235Y388817D01*
Y391183D01*
X509623Y393468D01*
X508440Y395517D01*
X506767Y397190D01*
X504718Y398373D01*
X502433Y398985D01*
D02*
G37*
G36*
Y373585D02*
X500067D01*
X497782Y372973D01*
X495733Y371790D01*
X494060Y370117D01*
X492877Y368068D01*
X492265Y365783D01*
Y363417D01*
X492877Y361132D01*
X494060Y359083D01*
X495733Y357410D01*
X497782Y356227D01*
X500067Y355615D01*
X502433D01*
X504718Y356227D01*
X506767Y357410D01*
X508440Y359083D01*
X509623Y361132D01*
X510235Y363417D01*
Y365783D01*
X509623Y368068D01*
X508440Y370117D01*
X506767Y371790D01*
X504718Y372973D01*
X502433Y373585D01*
D02*
G37*
G36*
X510235Y348185D02*
X492265D01*
Y330215D01*
X510235D01*
Y348185D01*
D02*
G37*
G36*
X52323Y73590D02*
X47677D01*
X43119Y72683D01*
X38826Y70905D01*
X34962Y68324D01*
X31676Y65038D01*
X29095Y61174D01*
X27317Y56881D01*
X26410Y52323D01*
Y47677D01*
X27317Y43119D01*
X29095Y38826D01*
X31676Y34962D01*
X34962Y31676D01*
X38826Y29095D01*
X43119Y27317D01*
X47677Y26410D01*
X52323D01*
X56881Y27317D01*
X61174Y29095D01*
X65038Y31676D01*
X68324Y34962D01*
X70905Y38826D01*
X72683Y43119D01*
X73590Y47677D01*
Y52323D01*
X72683Y56881D01*
X70905Y61174D01*
X68324Y65038D01*
X65038Y68324D01*
X61174Y70905D01*
X56881Y72683D01*
X52323Y73590D01*
D02*
G37*
G36*
X952323Y72165D02*
X947677D01*
X943119Y71259D01*
X938826Y69480D01*
X934962Y66899D01*
X931676Y63613D01*
X929095Y59749D01*
X927317Y55456D01*
X926410Y50898D01*
Y46252D01*
X927317Y41694D01*
X929095Y37401D01*
X931676Y33537D01*
X934962Y30252D01*
X938826Y27670D01*
X943119Y25892D01*
X947677Y24985D01*
X952323D01*
X956881Y25892D01*
X961174Y27670D01*
X965038Y30252D01*
X968324Y33537D01*
X970905Y37401D01*
X972683Y41694D01*
X973590Y46252D01*
Y50898D01*
X972683Y55456D01*
X970905Y59749D01*
X968324Y63613D01*
X965038Y66899D01*
X961174Y69480D01*
X956881Y71259D01*
X952323Y72165D01*
D02*
G37*
%LPD*%
D11*
X995730Y950000D02*
G03*
X950000Y995730I-45730J0D01*
G01*
X973038Y840800D02*
G03*
X960038Y834555I-8000J0D01*
G01*
X970038D02*
G03*
X973038Y840800I-5000J6245D01*
G01*
X974590Y950000D02*
G03*
X974590Y950000I-24590J0D01*
G01*
X962430Y889060D02*
G03*
X962430Y889060I-19250J0D01*
G01*
D02*
G03*
X962430Y889060I-19250J0D01*
G01*
X927730Y840800D02*
G03*
X908298Y837785I-9950J0D01*
G01*
X983166Y793711D02*
G03*
X986431Y800160I-4735J6449D01*
G01*
D02*
G03*
X973166Y794137I-8000J0D01*
G01*
X973038Y730250D02*
G03*
X970038Y736495I-8000J0D01*
G01*
X985900Y717550D02*
G03*
X983166Y723573I-8000J0D01*
G01*
X928730Y820480D02*
G03*
X920222Y831154I-10950J0D01*
G01*
Y809806D02*
G03*
X928730Y820480I-2442J10674D01*
G01*
X920222Y831154D02*
G03*
X927730Y840800I-2442J9646D01*
G01*
Y800160D02*
G03*
X920222Y809806I-9950J0D01*
G01*
X915338D02*
G03*
X927730Y800160I2442J-9646D01*
G01*
X960038Y771354D02*
G03*
X960038Y752766I-16858J-9294D01*
G01*
X973166Y723999D02*
G03*
X985900Y717550I4735J-6449D01*
G01*
X960038Y736495D02*
G03*
X973038Y730250I5000J-6245D01*
G01*
X960038Y771354D02*
G03*
X960038Y752766I-16858J-9294D01*
G01*
X833500Y905233D02*
G03*
X820500Y898988I-8000J0D01*
G01*
X830500D02*
G03*
X833500Y905233I-5000J6245D01*
G01*
X907830Y857100D02*
G03*
X897558Y841314I-7830J-6140D01*
G01*
X725550Y853000D02*
G03*
X712550Y846755I-8000J0D01*
G01*
X701000Y880400D02*
G03*
X701000Y880400I-11000J0D01*
G01*
X702000Y855000D02*
G03*
X702000Y855000I-12000J0D01*
G01*
X910368Y834162D02*
G03*
X915338Y831154I7412J6638D01*
G01*
X902442Y841314D02*
G03*
X909950Y850960I-2442J9646D01*
G01*
X910950Y830640D02*
G03*
X910368Y834162I-10950J0D01*
G01*
X910816Y828930D02*
G03*
X910950Y830640I-10816J1710D01*
G01*
X915338Y831154D02*
G03*
X910816Y828930I2442J-10674D01*
G01*
X908298Y837785D02*
G03*
X902442Y841314I-8298J-7145D01*
G01*
X722550Y846755D02*
G03*
X725550Y853000I-5000J6245D01*
G01*
X897558Y841314D02*
G03*
X897558Y819966I2442J-10674D01*
G01*
X907412Y816958D02*
G03*
X902442Y819966I-7412J-6638D01*
G01*
D02*
G03*
X906964Y822190I-2442J10674D01*
G01*
X909950Y810320D02*
G03*
X909482Y813335I-9950J0D01*
G01*
D02*
G03*
X915338Y809806I8298J7145D01*
G01*
X906964Y822190D02*
G03*
X907412Y816958I10816J-1710D01*
G01*
X897558Y819966D02*
G03*
X909950Y810320I2442J-9646D01*
G01*
Y790000D02*
G03*
X909950Y790000I-9950J0D01*
G01*
X833500Y810320D02*
G03*
X830500Y816565I-8000J0D01*
G01*
X820500D02*
G03*
X833500Y810320I5000J-6245D01*
G01*
X621500Y805000D02*
G03*
X621500Y805000I-11500J0D01*
G01*
X576500Y724005D02*
G03*
X579500Y730250I-5000J6245D01*
G01*
X589200Y711305D02*
G03*
X592200Y717550I-5000J6245D01*
G01*
D02*
G03*
X576500Y719720I-8000J0D01*
G01*
X901661Y627498D02*
G03*
X901661Y627498I-14160J0D01*
G01*
X934160Y580000D02*
G03*
X934160Y580000I-14160J0D01*
G01*
X974590Y48575D02*
G03*
X974590Y48575I-24590J0D01*
G01*
X950000Y4270D02*
G03*
X995730Y50000I0J45730D01*
G01*
X724432Y574779D02*
G03*
X724628Y576544I-7803J1764D01*
G01*
X725550Y596900D02*
G03*
X722550Y603145I-8000J0D01*
G01*
X870663Y580000D02*
G03*
X870663Y580000I-13160J0D01*
G01*
X727421Y570021D02*
G03*
X726171Y573040I-4270J0D01*
G01*
X766500Y560000D02*
G03*
X766500Y560000I-11500J0D01*
G01*
X727421Y570021D02*
G03*
X726171Y573040I-4270J0D01*
G01*
X712550Y603145D02*
G03*
X725550Y596900I5000J-6245D01*
G01*
X724628Y576544D02*
G03*
X718393Y568741I-8000J0D01*
G01*
X731151Y469900D02*
G03*
X727421Y476665I-8000J0D01*
G01*
X766500Y440000D02*
G03*
X766500Y440000I-11500J0D01*
G01*
X718881Y476665D02*
G03*
X731151Y469900I4270J-6765D01*
G01*
X716350Y552200D02*
G03*
X716350Y552200I-11500J0D01*
G01*
X639150Y526800D02*
G03*
X639150Y526800I-10500J0D01*
G01*
X715350D02*
G03*
X715350Y526800I-10500J0D01*
G01*
X592200Y482600D02*
G03*
X589200Y488845I-8000J0D01*
G01*
X579200D02*
G03*
X592200Y482600I5000J-6245D01*
G01*
X514160Y922694D02*
G03*
X514160Y922694I-14160J0D01*
G01*
X466662Y890194D02*
G03*
X466662Y890194I-14160J0D01*
G01*
X579500Y730250D02*
G03*
X566500Y724005I-8000J0D01*
G01*
Y570497D02*
G03*
X555000Y559588I-6500J-4664D01*
G01*
X506750Y567148D02*
G03*
X495750Y567148I-5500J-2398D01*
G01*
X518250Y553750D02*
G03*
X514648Y559250I-6000J0D01*
G01*
Y548250D02*
G03*
X518250Y553750I-2398J5500D01*
G01*
Y564750D02*
G03*
X506750Y567148I-6000J0D01*
G01*
X514648Y559250D02*
G03*
X518250Y564750I-2398J5500D01*
G01*
X555000Y524995D02*
G03*
X545000Y512505I-5000J-6245D01*
G01*
X565000Y496986D02*
G03*
X579200Y499480I6500J4664D01*
G01*
X518250Y531750D02*
G03*
X514648Y537250I-6000J0D01*
G01*
Y526250D02*
G03*
X518250Y531750I-2398J5500D01*
G01*
Y542750D02*
G03*
X514648Y548250I-6000J0D01*
G01*
Y537250D02*
G03*
X518250Y542750I-2398J5500D01*
G01*
Y520750D02*
G03*
X514648Y526250I-6000J0D01*
G01*
X506750Y518352D02*
G03*
X518250Y520750I5500J2398D01*
G01*
X495750Y518352D02*
G03*
X506750Y518352I5500J2398D01*
G01*
X513160Y860197D02*
G03*
X513160Y860197I-13160J0D01*
G01*
X495750Y567148D02*
G03*
X487852Y559250I-5500J-2398D01*
G01*
Y559250D02*
G03*
X487852Y548250I2398J-5500D01*
G01*
Y537250D02*
G03*
X487852Y526250I2398J-5500D01*
G01*
Y526250D02*
G03*
X495750Y518352I2398J-5500D01*
G01*
X487852Y548250D02*
G03*
X487852Y537250I2398J-5500D01*
G01*
X455000Y513255D02*
G03*
X458000Y519500I-5000J6245D01*
G01*
X74590Y950000D02*
G03*
X74590Y950000I-24590J0D01*
G01*
X50000Y995730D02*
G03*
X4270Y950000I0J-45730D01*
G01*
X454539Y615713D02*
G03*
X458000Y622300I-4539J6587D01*
G01*
D02*
G03*
X444539Y616454I-8000J0D01*
G01*
X457078Y585000D02*
G03*
X454539Y590846I-8000J0D01*
G01*
X444539Y591587D02*
G03*
X457078Y585000I4539J-6587D01*
G01*
X425532Y643364D02*
G03*
X429064Y650000I-4468J6636D01*
G01*
X445461Y561948D02*
G03*
X448922Y568535I-4539J6587D01*
G01*
D02*
G03*
X435461Y562689I-8000J0D01*
G01*
X458000Y519500D02*
G03*
X445461Y526087I-8000J0D01*
G01*
X428000Y565645D02*
G03*
X425532Y571424I-8000J0D01*
G01*
X418000Y553750D02*
G03*
X416458Y558472I-8000J0D01*
G01*
Y558472D02*
G03*
X428000Y565645I3542J7173D01*
G01*
X429064Y650000D02*
G03*
X415532Y644221I-8000J0D01*
G01*
Y615779D02*
G03*
X405000Y603755I-5532J-5779D01*
G01*
X398000Y570000D02*
G03*
X385000Y563755I-8000J0D01*
G01*
X274700Y590601D02*
G03*
X270970Y597366I-8000J0D01*
G01*
X262430D02*
G03*
X274700Y590601I4270J-6765D01*
G01*
Y670000D02*
G03*
X262430Y663235I-8000J0D01*
G01*
X270970D02*
G03*
X274700Y670000I-4270J6765D01*
G01*
X405000Y559995D02*
G03*
X418000Y553750I5000J-6245D01*
G01*
X395000Y563755D02*
G03*
X398000Y570000I-5000J6245D01*
G01*
Y542750D02*
G03*
X395000Y548995I-8000J0D01*
G01*
X385000D02*
G03*
X398000Y542750I5000J-6245D01*
G01*
X568000Y365783D02*
G03*
X565000Y372028I-8000J0D01*
G01*
X555000D02*
G03*
X568000Y365783I5000J-6245D01*
G01*
X545000Y425113D02*
G03*
X555000Y412623I5000J-6245D01*
G01*
X511235Y390000D02*
G03*
X511235Y390000I-9985J0D01*
G01*
Y364600D02*
G03*
X511235Y364600I-9985J0D01*
G01*
Y415400D02*
G03*
X511235Y415400I-9985J0D01*
G01*
X458000Y391183D02*
G03*
X455000Y397428I-8000J0D01*
G01*
X445461Y384595D02*
G03*
X458000Y391183I4539J6587D01*
G01*
X448000Y340000D02*
G03*
X445461Y345846I-8000J0D01*
G01*
X435461Y346587D02*
G03*
X448000Y340000I4539J-6587D01*
G01*
X74590Y50000D02*
G03*
X74590Y50000I-24590J0D01*
G01*
X4270D02*
G03*
X50000Y4270I45730J0D01*
G01*
X973617Y943152D02*
X993756Y963291D01*
X971839Y961302D02*
X995730Y937411D01*
X951580Y995703D02*
X995703Y951580D01*
X974063Y944936D02*
X995730Y923269D01*
X969646Y935211D02*
X995730Y909127D01*
X951178Y906570D02*
X995716Y951109D01*
X958908Y900159D02*
X995730Y936981D01*
X960346Y972308D02*
X975798Y987759D01*
X970596Y990829D02*
X990829Y970596D01*
X948437Y974540D02*
X966533Y992637D01*
X937411Y995730D02*
X961302Y971839D01*
X968444Y966263D02*
X983408Y981227D01*
X973515Y957192D02*
X989451Y973128D01*
X968444Y966263D02*
X983408Y981227D01*
X938090Y907625D02*
X956848Y926383D01*
X962424Y889533D02*
X995730Y922838D01*
X964058Y848740D02*
X995730Y880412D01*
X951136Y925436D02*
X995730Y880842D01*
X962199Y886089D02*
X995730Y852558D01*
X972667Y843207D02*
X995730Y866270D01*
X970038Y826435D02*
X995730Y852128D01*
X957711Y876435D02*
X995730Y838416D01*
X949221Y870782D02*
X995730Y824274D01*
X962114Y928601D02*
X995730Y894985D01*
X933356Y872505D02*
X959393Y846469D01*
X927730Y868980D02*
X932081Y873332D01*
X927730Y851170D02*
Y871070D01*
Y854838D02*
X942707Y869816D01*
X923269Y995730D02*
X944936Y974063D01*
X909127Y995730D02*
X935211Y969646D01*
X852558Y995730D02*
X940209Y908079D01*
X830500Y884888D02*
X941342Y995730D01*
X830500Y870745D02*
X955189Y995435D01*
X880842Y995730D02*
X925436Y951136D01*
X831890Y900420D02*
X927200Y995730D01*
X824274D02*
X924902Y895101D01*
X810132Y995730D02*
X926625Y879237D01*
X907830Y871070D02*
X927730D01*
X915677D02*
X925670Y881062D01*
X894985Y995730D02*
X928601Y962114D01*
X838416Y995730D02*
X930555Y903591D01*
X866700Y995730D02*
X995730Y866700D01*
X927729Y840696D02*
X995730Y908696D01*
X830500Y828319D02*
X933737Y931556D01*
X831700Y815376D02*
X942808Y926485D01*
X927730Y863990D02*
X960038Y831682D01*
X927214Y826038D02*
X995730Y894554D01*
X926407Y851170D02*
X960038Y817540D01*
X923570Y808252D02*
X957098Y841780D01*
X830500Y842461D02*
X927693Y939654D01*
X830500Y828319D02*
X933737Y931556D01*
X830500Y856603D02*
X925460Y951563D01*
X722550Y692085D02*
X924615Y894150D01*
X909948Y851170D02*
X927730D01*
X922468Y849576D02*
X924062Y851170D01*
X986427Y800399D02*
X995730Y809701D01*
X983166Y782995D02*
X995730Y795559D01*
X979909Y808022D02*
X995730Y823843D01*
X970038Y821682D02*
X995730Y795990D01*
X983558Y794019D02*
X995730Y781847D01*
X983166Y754710D02*
X995730Y767275D01*
X983166Y768852D02*
X995730Y781417D01*
X983166Y780270D02*
X995730Y767705D01*
X970707Y835155D02*
X995730Y810132D01*
X970038Y807540D02*
X972290Y805287D01*
X970038Y779255D02*
X973166Y776128D01*
X970038Y755725D02*
X973166Y758852D01*
X970038Y793398D02*
X973166Y790270D01*
X970038Y784009D02*
X973166Y787137D01*
X983166Y751985D02*
X995730Y739421D01*
X983166Y726426D02*
X995730Y738991D01*
X983166Y766128D02*
X995730Y753563D01*
X983166Y740568D02*
X995730Y753133D01*
X985233Y714351D02*
X995730Y724848D01*
X983166Y723701D02*
X995730Y711137D01*
X983166Y737843D02*
X995730Y725279D01*
X982028Y710697D02*
X995730Y696995D01*
X973166Y723999D02*
Y794137D01*
X983166Y723573D02*
Y793711D01*
X970038Y750971D02*
X973166Y747843D01*
X970038Y741583D02*
X973166Y744710D01*
X970038Y736829D02*
X973166Y733701D01*
X970038Y812293D02*
X995730Y837986D01*
X928730Y820564D02*
X960038Y789255D01*
X926811Y836624D02*
X960038Y803398D01*
X927502Y798042D02*
X960038Y830578D01*
X938469Y780725D02*
X960038Y802293D01*
X951368Y779482D02*
X960038Y788151D01*
X926181Y794828D02*
X939969Y781040D01*
X923811Y811340D02*
X960038Y775113D01*
X916585Y790282D02*
X930406Y776461D01*
X970038Y769867D02*
X973166Y772995D01*
X970038Y765113D02*
X973166Y761985D01*
X970038Y736495D02*
Y834555D01*
X969266Y723459D02*
X971047Y721678D01*
X960038Y736495D02*
Y752766D01*
Y771354D02*
Y834555D01*
X908265Y784460D02*
X924834Y767890D01*
X898404Y780179D02*
X927090Y751493D01*
X959023Y772994D02*
X960038Y774009D01*
X957581Y749286D02*
X960038Y746829D01*
X949010Y743714D02*
X958246Y734478D01*
X781847Y995730D02*
X907830Y869747D01*
X767705Y995730D02*
X902983Y860452D01*
X720985Y860225D02*
X856490Y995730D01*
X753563D02*
X892180Y857113D01*
X904461Y859854D02*
X907830Y863223D01*
Y857100D02*
Y871070D01*
X829493Y912165D02*
X913058Y995730D01*
X795990D02*
X920650Y871070D01*
X725279Y995730D02*
X817747Y903262D01*
X711137Y995730D02*
X820500Y886367D01*
X701000Y910951D02*
X785779Y995730D01*
X701000Y896809D02*
X799921Y995730D01*
X739421D02*
X822501Y912650D01*
X701000Y894800D02*
Y916800D01*
X725008Y850107D02*
X870632Y995730D01*
X832917Y902234D02*
X894848Y840303D01*
X722550Y833506D02*
X884774Y995730D01*
X722550Y819364D02*
X898916Y995730D01*
X830500Y862225D02*
X894460Y798265D01*
X830500Y890509D02*
X889121Y831888D01*
X830500Y876367D02*
X891453Y815414D01*
X820500Y816565D02*
Y898988D01*
X830500Y816565D02*
Y898988D01*
X701994Y855377D02*
X842347Y995730D01*
X722550Y805222D02*
X818568Y901240D01*
X722550Y791080D02*
X820500Y889030D01*
X722550Y776938D02*
X820500Y874888D01*
X700803Y882470D02*
X814063Y995730D01*
X696995D02*
X820500Y872225D01*
X692707Y916800D02*
X771637Y995730D01*
X613122Y865500D02*
X743353Y995730D01*
X697129Y864653D02*
X828205Y995730D01*
X679000Y916800D02*
X701000D01*
X679000Y894800D02*
X701000D01*
X612142Y995730D02*
X691072Y916800D01*
X679000Y894800D02*
Y916800D01*
X598000Y995730D02*
X679000Y914730D01*
X583857Y995730D02*
X679000Y900587D01*
X684788Y894800D02*
X688317Y891271D01*
X694588Y890397D02*
X698991Y894800D01*
X599500Y865500D02*
X620500D01*
X683265Y864932D02*
X687930Y869597D01*
X682852Y995730D02*
X820500Y858083D01*
X668710Y995730D02*
X820500Y843940D01*
X620500Y858735D02*
X757495Y995730D01*
X640426D02*
X820014Y816142D01*
X700871Y878717D02*
X718666Y860922D01*
X694896Y870550D02*
X709949Y855496D01*
X654568Y995730D02*
X820500Y829798D01*
X620500Y844593D02*
X679000Y903093D01*
X605725Y815676D02*
X684849Y894800D01*
X617717Y813526D02*
X680003Y875812D01*
X620500Y844500D02*
Y865500D01*
X621323Y802990D02*
X680068Y861735D01*
X599500Y844500D02*
Y865500D01*
X912265Y851170D02*
X913604Y849831D01*
X906153Y843140D02*
X907851Y841442D01*
X905587Y818553D02*
X906850Y819816D01*
X909805Y808629D02*
X912222Y811046D01*
X909920Y811089D02*
X912448Y808561D01*
X905094Y801773D02*
X907902Y798965D01*
X830500Y848083D02*
X890179Y788404D01*
X722550Y762795D02*
X820500Y860745D01*
X722550Y720369D02*
X820500Y818319D01*
X901068Y799893D02*
X901691Y800515D01*
X722550Y706227D02*
X820444Y804120D01*
X701030Y850273D02*
X712550Y838753D01*
X620500Y860093D02*
X712550Y768043D01*
X693606Y843555D02*
X712550Y824611D01*
X722550Y748653D02*
X820500Y846603D01*
X620500Y845950D02*
X712550Y753900D01*
X607808Y844500D02*
X712550Y739758D01*
X599500Y844500D02*
X620500D01*
X722550Y734511D02*
X820500Y832461D01*
X592196Y717294D02*
X712550Y837648D01*
X586085Y725325D02*
X710325Y849565D01*
X589200Y700156D02*
X712550Y823506D01*
X722550Y720369D02*
X820500Y818319D01*
X621277Y802747D02*
X712550Y711474D01*
X615159Y794722D02*
X712550Y697332D01*
X589200Y686014D02*
X712550Y809364D01*
X579164Y732546D02*
X689623Y843006D01*
X579404Y731482D02*
X585432Y725454D01*
X570684Y738208D02*
X680347Y847871D01*
X576500Y719720D02*
Y724005D01*
X932613Y745970D02*
X995730Y682852D01*
X831322Y804834D02*
X995730Y640426D01*
X830500Y833940D02*
X995730Y668710D01*
X830500Y819798D02*
X995730Y654568D01*
X921527Y594077D02*
X995730Y668280D01*
X930777Y589185D02*
X995730Y654138D01*
X901346Y630465D02*
X981099Y710217D01*
X869775Y584752D02*
X995730Y710706D01*
X895748Y639008D02*
X970734Y713994D01*
X883749Y641152D02*
X964849Y722252D01*
X893973Y614904D02*
X915463Y593414D01*
X870545Y581764D02*
X995730Y456578D01*
X995730Y950000D02*
X995730Y50000D01*
X867134Y571032D02*
X995730Y442436D01*
X815500Y431481D02*
X995730Y611711D01*
X927028Y567707D02*
X995730Y499005D01*
X912764Y567828D02*
X995730Y484863D01*
X857180Y566844D02*
X995730Y428294D01*
X815500Y566098D02*
X995730Y385868D01*
X934061Y578326D02*
X995730Y639996D01*
X900685Y622334D02*
X995730Y527289D01*
X815500Y445624D02*
X995730Y625854D01*
X933414Y575463D02*
X995730Y513147D01*
X806234Y450500D02*
X921674Y565939D01*
X701000Y906872D02*
X995730Y612142D01*
X725472Y854116D02*
X995730Y583857D01*
X626284Y995730D02*
X995730Y626284D01*
X698930Y894800D02*
X995730Y598000D01*
X757297Y571268D02*
X932246Y746217D01*
X798955Y570500D02*
X957184Y728729D01*
X723764Y580161D02*
X960038Y816435D01*
X722550Y842895D02*
X995730Y569715D01*
X722550Y635516D02*
X891767Y804733D01*
X725504Y596044D02*
X919898Y790438D01*
X722550Y677943D02*
X891106Y846499D01*
X722550Y649658D02*
X894227Y821335D01*
X722550Y758043D02*
X907828Y572764D01*
X727421Y569677D02*
X924515Y766771D01*
X722550Y607232D02*
X896145Y780827D01*
X722550Y772185D02*
X907707Y587028D01*
X762242Y448934D02*
X995730Y682422D01*
X722550Y673190D02*
X995730Y400010D01*
X722550Y743900D02*
X995730Y470720D01*
X722550Y687332D02*
X995730Y414152D01*
X766416Y558613D02*
X995730Y329299D01*
X727421Y555181D02*
X995730Y286873D01*
X722550Y616621D02*
X995730Y343441D01*
X727421Y569323D02*
X995730Y301015D01*
X727421Y555535D02*
X925758Y753872D01*
X727421Y513108D02*
X960038Y745725D01*
X722550Y828753D02*
X995730Y555573D01*
X722550Y814611D02*
X995730Y541431D01*
X765295Y565124D02*
X942982Y742811D01*
X766457Y439007D02*
X905923Y578473D01*
X748939Y449773D02*
X995730Y696564D01*
X815500Y438818D02*
X995730Y258588D01*
X952071Y73078D02*
X995730Y116737D01*
X810676Y429500D02*
X995730Y244446D01*
X796534Y429500D02*
X995730Y230304D01*
X974224Y52804D02*
X995730Y74310D01*
X970385Y34823D02*
X995730Y60168D01*
X962742Y69606D02*
X995730Y102594D01*
X970066Y62788D02*
X995730Y88452D01*
X973966Y54078D02*
X993160Y34885D01*
X815500Y551955D02*
X995730Y371726D01*
X803813Y549500D02*
X995730Y357583D01*
X973271Y40631D02*
X988531Y25371D01*
X976772Y12926D02*
X987074Y23228D01*
X967970Y31790D02*
X982216Y17544D01*
X967970Y31790D02*
X982215Y17544D01*
X826695Y4270D02*
X995730Y173305D01*
X840837Y4270D02*
X995730Y159163D01*
X798411Y4270D02*
X995730Y201589D01*
X812553Y4270D02*
X995730Y187447D01*
X954164Y4460D02*
X995540Y45836D01*
X854979Y4270D02*
X995730Y145021D01*
X869121Y4270D02*
X995730Y130879D01*
X911548Y4270D02*
X935787Y28509D01*
X939832Y4270D02*
X963752Y28190D01*
X883263Y4270D02*
X925497Y46504D01*
X897405Y4270D02*
X928969Y35833D01*
X959657Y25961D02*
X974335Y11283D01*
X947346Y24129D02*
X964758Y6717D01*
X925690Y4270D02*
X945771Y24351D01*
X623571Y517610D02*
X995730Y145451D01*
X589200Y509555D02*
X995730Y103025D01*
X589200Y537839D02*
X995730Y131309D01*
X589200Y523697D02*
X995730Y117167D01*
X589200Y495413D02*
X995730Y88883D01*
X591386Y479085D02*
X995730Y74741D01*
X581106Y475223D02*
X995730Y60599D01*
X572136Y4270D02*
X995730Y427864D01*
X760811Y550076D02*
X995730Y315157D01*
X727421Y541039D02*
X995730Y272731D01*
X638111Y531355D02*
X995730Y173736D01*
X636011Y519312D02*
X995730Y159593D01*
X764390Y433360D02*
X995730Y202020D01*
X755107Y428501D02*
X995730Y187878D01*
X727421Y484471D02*
X995730Y216162D01*
X713558Y4270D02*
X995730Y286442D01*
X727700Y4270D02*
X995730Y272300D01*
X685274Y4270D02*
X995730Y314727D01*
X699416Y4270D02*
X995730Y300584D01*
X770126Y4270D02*
X995730Y229874D01*
X784268Y4270D02*
X995730Y215732D01*
X741842Y4270D02*
X995730Y258158D01*
X755984Y4270D02*
X995730Y244016D01*
X614563Y4270D02*
X995730Y385437D01*
X628705Y4270D02*
X995730Y371295D01*
X586278Y4270D02*
X995730Y413722D01*
X600421Y4270D02*
X995730Y399579D01*
X656989Y4270D02*
X995730Y343011D01*
X671131Y4270D02*
X995730Y328869D01*
X642847Y4270D02*
X995730Y357153D01*
X722550Y786327D02*
X874906Y633970D01*
X722550Y621374D02*
X890107Y788932D01*
X722550Y663801D02*
X889055Y830306D01*
X722550Y800469D02*
X882336Y640683D01*
X862889Y592007D02*
X884534Y613652D01*
X722550Y715616D02*
X848535Y589631D01*
X722550Y701474D02*
X844347Y579677D01*
X722550Y603145D02*
Y846755D01*
Y729758D02*
X859267Y593041D01*
X724432Y574779D02*
X726171Y573040D01*
X713260Y583800D02*
X718406Y588946D01*
X813097Y570500D02*
X873847Y631249D01*
X815500Y558761D02*
X875990Y619251D01*
X722550Y659048D02*
X811098Y570500D01*
X722550Y644905D02*
X796955Y570500D01*
X815500Y549500D02*
Y570500D01*
X794500D02*
X815500D01*
X794500Y549500D02*
Y570500D01*
X724845Y600184D02*
X753613Y571416D01*
X721137Y589749D02*
X745076Y565811D01*
X722550Y630763D02*
X794500Y558813D01*
X712550Y603145D02*
Y846755D01*
X589200Y587019D02*
X712550Y710369D01*
X589200Y601161D02*
X712550Y724511D01*
X589200Y587019D02*
X712550Y710369D01*
X589200Y707545D02*
X713047Y583697D01*
X589200Y572877D02*
X712550Y696227D01*
X589200Y643588D02*
X712550Y766938D01*
X589200Y629445D02*
X712550Y752795D01*
X589200Y671872D02*
X712550Y795222D01*
X589200Y657730D02*
X712550Y781080D01*
X592104Y718782D02*
X710399Y600488D01*
X589200Y679260D02*
X704761Y563700D01*
X589200Y615303D02*
X712550Y738653D01*
X589200Y693403D02*
X709326Y573277D01*
X621450Y562700D02*
X712550Y653801D01*
X635592Y562700D02*
X712550Y639658D01*
X589200Y558735D02*
X712550Y682085D01*
X589200Y544593D02*
X712550Y667943D01*
X639150Y552116D02*
X712550Y625516D01*
X638511Y523193D02*
X709895Y594577D01*
X635730Y534554D02*
X712550Y611374D01*
X589200Y622692D02*
X718881Y493011D01*
X589200Y650976D02*
X703034Y537142D01*
X589200Y636834D02*
X695169Y530865D01*
X589200Y665118D02*
X695468Y558850D01*
X589200Y488845D02*
Y711305D01*
Y594408D02*
X620908Y562700D01*
X589200Y580266D02*
X618150Y551316D01*
X589200Y608550D02*
X635050Y562700D01*
X727421Y498966D02*
X794500Y566045D01*
Y549500D02*
X815500D01*
X730277Y473537D02*
X806239Y549500D01*
X727421Y527251D02*
X749876Y549705D01*
X727421Y484824D02*
X794500Y551903D01*
X727421Y541393D02*
X743732Y557703D01*
X727421Y476665D02*
Y570021D01*
X715120Y557375D02*
X718881Y561137D01*
Y476665D02*
Y568252D01*
X716350Y552111D02*
X718881Y549579D01*
X715101Y529072D02*
X718881Y532853D01*
X715192Y524984D02*
X718881Y521295D01*
X727421Y498613D02*
X794500Y431534D01*
X727421Y526897D02*
X803818Y450500D01*
X727421Y512755D02*
X794500Y445676D01*
Y429500D02*
X815500D01*
Y450500D01*
X794500D02*
X815500D01*
X794500Y429500D02*
Y450500D01*
X730647Y467103D02*
X748360Y449390D01*
X721545Y462063D02*
X743501Y440107D01*
X713362Y569241D02*
X718881Y563721D01*
X707083Y563481D02*
X713011Y569408D01*
X708523Y536637D02*
X718881Y546995D01*
X711500Y542818D02*
X718881Y535437D01*
X639150Y541700D02*
Y562700D01*
X618150D02*
X639150D01*
X618150Y541700D02*
Y562700D01*
X627766Y541700D02*
X633205Y536260D01*
X621737Y534703D02*
X628734Y541700D01*
X618150D02*
X639150D01*
Y558600D02*
X718881Y478868D01*
X639150Y544458D02*
X715314Y468293D01*
X589200Y566124D02*
X621162Y534161D01*
X708915Y517119D02*
X718881Y507153D01*
X589200Y502166D02*
X620747Y533713D01*
X589641Y488465D02*
X620896Y519720D01*
X589200Y551981D02*
X619460Y521721D01*
X589200Y516308D02*
X618150Y545258D01*
X589200Y530451D02*
X618150Y559400D01*
X579200Y488845D02*
Y499480D01*
X575656Y494814D02*
X579200Y491271D01*
X500615Y936840D02*
X559505Y995730D01*
X510313Y932396D02*
X573647Y995730D01*
X442436D02*
X501380Y936786D01*
X453916Y904284D02*
X545363Y995730D01*
X514147Y922088D02*
X587789Y995730D01*
X569715D02*
X680150Y885296D01*
X428294Y995730D02*
X490675Y933349D01*
X463221Y899446D02*
X485853Y922079D01*
X466579Y888662D02*
X490297Y912380D01*
X555573Y995730D02*
X685273Y866030D01*
X541431Y995730D02*
X678555Y858606D01*
X512605Y863978D02*
X644358Y995730D01*
X527289D02*
X712550Y810469D01*
X513147Y995730D02*
X712550Y796327D01*
X514093Y924074D02*
X712550Y725616D01*
X499005Y995730D02*
X712550Y782185D01*
X460596Y878576D02*
X712550Y626621D01*
X506259Y871773D02*
X630215Y995730D01*
X484863D02*
X615093Y865500D01*
X470720Y995730D02*
X600950Y865500D01*
X456578Y995730D02*
X599500Y852808D01*
X510656Y913368D02*
X607747Y816277D01*
X501289Y908593D02*
X599722Y810160D01*
X466300Y887013D02*
X487913Y865401D01*
X315157Y995730D02*
X572732Y738155D01*
X274522Y668321D02*
X601931Y995730D01*
X230304D02*
X566500Y659534D01*
X216162Y995730D02*
X566500Y645392D01*
X400010Y995730D02*
X712550Y683190D01*
X385868Y995730D02*
X712550Y669048D01*
X50000Y995730D02*
X950000D01*
X270970Y650627D02*
X616073Y995730D01*
X414152D02*
X485899Y923983D01*
X371726Y995730D02*
X495061Y872395D01*
X301015Y995730D02*
X563924Y732821D01*
X286873Y995730D02*
X566500Y716103D01*
X272731Y995730D02*
X566500Y701961D01*
X269538Y677479D02*
X500606Y908547D01*
X258588Y995730D02*
X566500Y687818D01*
X244446Y995730D02*
X566500Y673676D01*
X202020Y995730D02*
X566500Y631250D01*
X187878Y995730D02*
X566500Y617108D01*
X173736Y995730D02*
X566500Y602966D01*
X103025Y995730D02*
X555000Y543755D01*
X270970Y608200D02*
X658500Y995730D01*
X272749Y595837D02*
X672642Y995730D01*
X159593D02*
X566500Y588823D01*
X145451Y995730D02*
X566500Y574681D01*
X4270Y511206D02*
X488794Y995730D01*
X4270Y497064D02*
X502936Y995730D01*
X4270Y539490D02*
X460510Y995730D01*
X4270Y525348D02*
X474652Y995730D01*
X131309D02*
X554978Y572061D01*
X117167Y995730D02*
X555000Y557897D01*
X88883Y995730D02*
X514183Y570430D01*
X512198Y855258D02*
X712550Y654905D01*
X505204Y848110D02*
X712550Y640763D01*
X487307Y569978D02*
X566500Y649172D01*
X518077Y544180D02*
X566500Y592603D01*
X515443Y569830D02*
X566500Y620888D01*
X517073Y557319D02*
X566500Y606745D01*
X561691Y573652D02*
X566500Y578461D01*
Y570497D02*
Y724005D01*
X502152Y570682D02*
X566500Y635030D01*
X518091Y552379D02*
X545269Y525201D01*
X555000Y524995D02*
Y559588D01*
X517967Y529928D02*
X552181Y564142D01*
X517930Y566683D02*
X555000Y529613D01*
X517105Y539224D02*
X545000Y511329D01*
X515488Y526699D02*
X545000Y497186D01*
X428598Y652691D02*
X620407Y844500D01*
X448382Y876647D02*
X712550Y612479D01*
X419636Y657871D02*
X606265Y844500D01*
X425532Y635483D02*
X599324Y809275D01*
X454539Y593780D02*
X566500Y705740D01*
X456138Y581236D02*
X566500Y691598D01*
X448489Y630156D02*
X612010Y793677D01*
X425532Y621341D02*
X601474Y797283D01*
X457516Y625041D02*
X563542Y731066D01*
X270970Y636485D02*
X488424Y853938D01*
X270970Y622342D02*
X496219Y847592D01*
X454668Y615803D02*
X499879Y570591D01*
X454539Y601789D02*
X486724Y569605D01*
X454539Y607922D02*
X566500Y719883D01*
X445461Y556417D02*
X566500Y677456D01*
X445461Y542275D02*
X566500Y663314D01*
X455000Y495245D02*
X486681Y526927D01*
X457078Y585109D02*
X485199Y556988D01*
X450846Y577198D02*
X484328Y543716D01*
X448346Y565556D02*
X484934Y528968D01*
X445461Y528133D02*
X485022Y567693D01*
X456121Y524651D02*
X484318Y552848D01*
X455000Y509388D02*
X485170Y539557D01*
X65869Y968784D02*
X92814Y995730D01*
X72070Y960844D02*
X106956Y995730D01*
X56623Y973681D02*
X78672Y995730D01*
X42080Y973279D02*
X64530Y995730D01*
X357583D02*
X449321Y903992D01*
X343441Y995730D02*
X440883Y898288D01*
X74577Y949209D02*
X121098Y995730D01*
X34885Y993160D02*
X53740Y974304D01*
X25371Y988531D02*
X41013Y972889D01*
X17544Y982216D02*
X32493Y967267D01*
X7568Y967053D02*
X32947Y992432D01*
X17544Y982215D02*
X32492Y967267D01*
X11283Y974335D02*
X26978Y958640D01*
X6717Y964758D02*
X25792Y945683D01*
X4270Y935470D02*
X26720Y957921D01*
X329299Y995730D02*
X438955Y886075D01*
X74741Y995730D02*
X415118Y655352D01*
X60599Y995730D02*
X415532Y640796D01*
X4270Y553632D02*
X446368Y995730D01*
X46584Y995602D02*
X415532Y626654D01*
X74304Y953740D02*
X410044Y618000D01*
X72889Y941013D02*
X402186Y611716D01*
X67267Y932493D02*
X405000Y594760D01*
X4270Y624343D02*
X375657Y995730D01*
X4366Y952967D02*
X383169Y574164D01*
X67267Y932492D02*
X405000Y594759D01*
X58640Y926978D02*
X405000Y580617D01*
X45683Y925792D02*
X405000Y566475D01*
X4270Y808191D02*
X191809Y995730D01*
X4270Y794049D02*
X205951Y995730D01*
X4270Y836475D02*
X163525Y995730D01*
X4270Y822333D02*
X177667Y995730D01*
X4270Y751622D02*
X248378Y995730D01*
X4270Y737480D02*
X262520Y995730D01*
X4270Y779906D02*
X220093Y995730D01*
X4270Y765764D02*
X234236Y995730D01*
X4270Y864759D02*
X135241Y995730D01*
X4270Y850617D02*
X149383Y995730D01*
X4270Y949612D02*
X50388Y995730D01*
X4270Y893044D02*
X39156Y927930D01*
X4270Y878901D02*
X50791Y925423D01*
X4270Y921328D02*
X26319Y943377D01*
X4270Y907186D02*
X31216Y934131D01*
X4270Y652627D02*
X347373Y995730D01*
X4270Y638485D02*
X361515Y995730D01*
X4270Y680911D02*
X319088Y995730D01*
X4270Y666769D02*
X333231Y995730D01*
X4270Y581917D02*
X418083Y995730D01*
X4270Y567775D02*
X432225Y995730D01*
X4270Y610201D02*
X389799Y995730D01*
X4270Y596059D02*
X403941Y995730D01*
X4270Y695054D02*
X304946Y995730D01*
X4270Y938921D02*
X265312Y677879D01*
X4270Y723338D02*
X276662Y995730D01*
X4270Y709196D02*
X290804Y995730D01*
X4270Y910637D02*
X262430Y652477D01*
X4270Y896495D02*
X262430Y638335D01*
X4270Y924779D02*
X258707Y670341D01*
X444539Y591587D02*
Y616454D01*
X454539Y590846D02*
Y615713D01*
X425532Y578915D02*
X444539Y597922D01*
X426417Y644054D02*
X443503Y626968D01*
X425532Y607199D02*
X442144Y623811D01*
X425532Y630796D02*
X444539Y611789D01*
X425532Y602512D02*
X441276Y586768D01*
X425532Y588370D02*
X437943Y575960D01*
X425532Y616654D02*
X444539Y597647D01*
X425532Y593057D02*
X444539Y612064D01*
X447695Y572793D02*
X452843Y577941D01*
X427865Y567106D02*
X442011Y581251D01*
X445461Y526087D02*
Y561948D01*
X425643Y559974D02*
X435461Y550157D01*
X417995Y553480D02*
X435461Y536014D01*
X425532Y574227D02*
X433159Y566600D01*
X425532Y571424D02*
Y643364D01*
Y574228D02*
X433159Y566601D01*
X417443Y556683D02*
X418539Y557780D01*
X415532Y615779D02*
Y644221D01*
X407716Y617667D02*
X415532Y625483D01*
X394762Y576428D02*
X405000Y586667D01*
X4270Y854068D02*
X261585Y596753D01*
X4270Y882352D02*
X262430Y624192D01*
X4270Y868210D02*
X262430Y610050D01*
X270970Y597366D02*
Y663235D01*
X262430Y597366D02*
Y663235D01*
X405000Y559995D02*
Y603755D01*
X395000Y562525D02*
X405000Y572525D01*
X395000Y562333D02*
X402133Y555200D01*
X411450Y545883D02*
X435461Y521872D01*
X397399Y545792D02*
X435461Y507730D01*
X395332Y548714D02*
X402217Y555599D01*
X393495Y535554D02*
X435461Y493588D01*
X385000Y548995D02*
Y563755D01*
X274579Y668612D02*
X385000Y558191D01*
X270970Y658079D02*
X382804Y546245D01*
X395000Y548995D02*
Y563755D01*
X455000Y438677D02*
X555000Y538677D01*
X565000Y435540D02*
X709372Y579912D01*
X455000Y452819D02*
X555000Y552819D01*
X455000Y452819D02*
X555000Y552819D01*
X565000Y491329D02*
X576823Y479506D01*
X565000Y477966D02*
X579200Y492166D01*
X565000Y492108D02*
X567572Y494681D01*
X565000Y449682D02*
X632257Y516939D01*
X498468Y515434D02*
X545000Y468902D01*
X445461Y540157D02*
X545000Y440617D01*
X445461Y554299D02*
X545000Y454760D01*
X445461Y554299D02*
X545000Y454759D01*
X513216Y514828D02*
X545000Y483044D01*
Y425113D02*
Y512505D01*
X456558Y514918D02*
X545000Y426475D01*
X455000Y424535D02*
X543964Y513499D01*
X444857Y4270D02*
X995730Y555143D01*
X458999Y4270D02*
X995730Y541001D01*
X416573Y4270D02*
X995730Y583427D01*
X430715Y4270D02*
X995730Y569285D01*
X567787Y367616D02*
X718881Y518711D01*
X501426Y4270D02*
X995730Y498574D01*
X473141Y4270D02*
X995730Y526858D01*
X487284Y4270D02*
X995730Y512716D01*
X565000Y393113D02*
X695013Y523127D01*
X565000Y378971D02*
X702578Y516549D01*
X565000Y421398D02*
X693569Y549967D01*
X565000Y407256D02*
X699675Y541930D01*
X455000Y410393D02*
X545000Y500393D01*
X565000Y372028D02*
Y496986D01*
X455000Y502333D02*
X555000Y402333D01*
X4270Y270790D02*
X729210Y995730D01*
X4270Y755073D02*
X755073Y4270D01*
X4270Y299074D02*
X700926Y995730D01*
X4270Y284932D02*
X715068Y995730D01*
X4270Y712647D02*
X712647Y4270D01*
X4270Y698505D02*
X698505Y4270D01*
X4270Y740931D02*
X740931Y4270D01*
X4270Y726789D02*
X726789Y4270D01*
X4270Y313216D02*
X686784Y995730D01*
X4270Y256647D02*
X599500Y851878D01*
X4270Y482922D02*
X517078Y995730D01*
X4270Y468779D02*
X531221Y995730D01*
X4270Y656078D02*
X656078Y4270D01*
X4270Y641936D02*
X641936Y4270D01*
X4270Y684362D02*
X684362Y4270D01*
X4270Y670220D02*
X670220Y4270D01*
X275152D02*
X845496Y574614D01*
X402431Y4270D02*
X995730Y597569D01*
X4270Y627794D02*
X627794Y4270D01*
X4270Y613652D02*
X613652Y4270D01*
X289294D02*
X852751Y567728D01*
X345862Y4270D02*
X910815Y569223D01*
X218583Y4270D02*
X718881Y504568D01*
X232725Y4270D02*
X718881Y490426D01*
X4270Y571225D02*
X571225Y4270D01*
X4270Y557083D02*
X557083Y4270D01*
X4270Y599510D02*
X599510Y4270D01*
X4270Y585368D02*
X585368Y4270D01*
X4270Y528799D02*
X528799Y4270D01*
X4270Y514657D02*
X514657Y4270D01*
X4270Y542941D02*
X542941Y4270D01*
X565000Y448902D02*
X942056Y71846D01*
X565000Y434760D02*
X933215Y66545D01*
X565000Y463824D02*
X578335Y477159D01*
X565000Y463044D02*
X955503Y72541D01*
X565000Y434759D02*
X933214Y66545D01*
X511235Y339348D02*
X555000Y383113D01*
X510828Y418220D02*
X555000Y374049D01*
X508877Y421844D02*
X545000Y457966D01*
X510045Y394727D02*
X545000Y429682D01*
X555000Y372028D02*
Y412623D01*
X511235Y329215D02*
Y349185D01*
X510872Y367269D02*
X555000Y411398D01*
X507385Y407522D02*
X553004Y361903D01*
X565000Y477186D02*
X995602Y46584D01*
X543852Y4270D02*
X995730Y456148D01*
X515568Y4270D02*
X995730Y484432D01*
X529710Y4270D02*
X995730Y470290D01*
X565000Y392333D02*
X952967Y4366D01*
X565000Y378191D02*
X938921Y4270D01*
X565000Y420617D02*
X927385Y58232D01*
X557994Y4270D02*
X995730Y442006D01*
X565000Y406475D02*
X925554Y45922D01*
X567049Y362000D02*
X924779Y4270D01*
X510799Y361681D02*
X868210Y4270D01*
X511224Y389540D02*
X896495Y4270D01*
X511235Y332961D02*
X839926Y4270D01*
X556120Y358787D02*
X910637Y4270D01*
X511235Y347103D02*
X854068Y4270D01*
X497576Y424685D02*
X545000Y472108D01*
X501161Y399985D02*
X545000Y443824D01*
X455623Y396874D02*
X545000Y486250D01*
X455000Y488191D02*
X555000Y388191D01*
X503732Y374272D02*
X543569Y414109D01*
X506930Y349185D02*
X555000Y397256D01*
X50000Y4270D02*
X950000D01*
X190299D02*
X552002Y365974D01*
X455000Y474049D02*
X504070Y424978D01*
X503473Y354865D02*
X509153Y349185D01*
X491265Y329215D02*
X511235D01*
X491265Y349185D02*
X511235D01*
X388289Y4270D02*
X813519Y429500D01*
X505607Y381016D02*
X882352Y4270D01*
X360004D02*
X794500Y438766D01*
X374146Y4270D02*
X799377Y429500D01*
X447992Y339636D02*
X783357Y4270D01*
X500839Y329215D02*
X825784Y4270D01*
X445461Y370451D02*
X811642Y4270D01*
X445461Y356309D02*
X797499Y4270D01*
X303436D02*
X745227Y446061D01*
X317578Y4270D02*
X746066Y432758D01*
X246867Y4270D02*
X715921Y473324D01*
X261009Y4270D02*
X719514Y462775D01*
X331720Y4270D02*
X755993Y428543D01*
X441367Y332118D02*
X769215Y4270D01*
X204441D02*
X558167Y357996D01*
X455000Y445765D02*
X500790Y399974D01*
X455000Y431622D02*
X492266Y394357D01*
X455000Y466961D02*
X503072Y515033D01*
X455000Y459907D02*
X493372Y421535D01*
X455000Y417480D02*
X498331Y374149D01*
X455000Y403338D02*
X491516Y366823D01*
X445461Y372569D02*
X491965Y419074D01*
X445461Y358427D02*
X494806Y407772D01*
X270970Y615652D02*
X435461Y451161D01*
X270970Y601510D02*
X435461Y437019D01*
X270970Y643937D02*
X435461Y479446D01*
X270970Y629795D02*
X435461Y465304D01*
X455000Y481103D02*
X488820Y514923D01*
X455000Y397428D02*
Y513255D01*
X272851Y585487D02*
X435461Y422877D01*
Y346587D02*
Y562689D01*
X60346Y72307D02*
X435461Y447422D01*
X4565Y44811D02*
X435461Y475706D01*
X4270Y58658D02*
X435461Y489848D01*
X4270Y500515D02*
X500515Y4270D01*
X73515Y57192D02*
X435461Y419138D01*
X73617Y43152D02*
X435461Y404996D01*
X68444Y66263D02*
X435461Y433280D01*
X68444Y66263D02*
X435461Y433280D01*
X4270Y157653D02*
X384036Y537418D01*
X4270Y101084D02*
X435461Y532275D01*
X4270Y143510D02*
X407067Y546307D01*
X4270Y115226D02*
X435461Y546417D01*
X48437Y74540D02*
X435461Y461564D01*
X4270Y72800D02*
X435461Y503991D01*
X4270Y86942D02*
X435461Y518133D01*
X4270Y426353D02*
X454034Y876117D01*
X4270Y839926D02*
X435461Y408735D01*
X4270Y454637D02*
X438413Y888780D01*
X4270Y440495D02*
X443250Y879475D01*
X4270Y797499D02*
X435461Y366309D01*
X4270Y783357D02*
X435461Y352167D01*
X4270Y825784D02*
X435461Y394593D01*
X4270Y811642D02*
X435461Y380451D01*
X4270Y398069D02*
X262430Y656229D01*
X4270Y383927D02*
X262430Y642087D01*
X4270Y412211D02*
X259221Y667161D01*
X4270Y769215D02*
X432118Y341367D01*
X4270Y355642D02*
X262430Y613802D01*
X4270Y341500D02*
X262430Y599660D01*
X4270Y369785D02*
X262430Y627945D01*
X4270Y486372D02*
X486372Y4270D01*
X4270Y472230D02*
X472230Y4270D01*
X4270Y228363D02*
X415532Y639625D01*
X4270Y129368D02*
X435461Y560559D01*
X4270Y429804D02*
X429804Y4270D01*
X4270Y415662D02*
X415662Y4270D01*
X4270Y458088D02*
X458088Y4270D01*
X4270Y443946D02*
X443946Y4270D01*
X4270Y214221D02*
X402333Y612284D01*
X4270Y200079D02*
X405000Y600809D01*
X4270Y242505D02*
X413193Y651428D01*
X4270Y50015D02*
Y950000D01*
Y185937D02*
X383572Y565238D01*
X4270Y171795D02*
X385000Y552525D01*
X4270Y327358D02*
X261464Y584553D01*
X456959Y387237D02*
X495011Y349185D01*
X446214Y345038D02*
X491265Y390089D01*
X492787Y349185D02*
X498581Y354978D01*
X491265Y347663D02*
X492787Y349185D01*
X445461Y384593D02*
X491265Y338789D01*
Y329215D02*
Y349185D01*
X445461Y345846D02*
Y384595D01*
X26872Y10549D02*
X42808Y26485D01*
X36709Y6244D02*
X56848Y26383D01*
X18773Y16592D02*
X33737Y31556D01*
X18773Y16592D02*
X33737Y31556D01*
X119588Y4270D02*
X496523Y381205D01*
X133730Y4270D02*
X491578Y362118D01*
X63019Y4270D02*
X435461Y376711D01*
X77162Y4270D02*
X435461Y362569D01*
X162015Y4270D02*
X491265Y333521D01*
X176157Y4270D02*
X501102Y329215D01*
X91304Y4270D02*
X435461Y348427D01*
X147872Y4270D02*
X491265Y347663D01*
X74538Y48409D02*
X118677Y4270D01*
X105446D02*
X434962Y333786D01*
X48891Y4284D02*
X435461Y390853D01*
X71224Y37581D02*
X104535Y4270D01*
X54664Y25856D02*
X76251Y4270D01*
X64513Y30150D02*
X90393Y4270D01*
X37631Y28747D02*
X62108Y4270D01*
X4270Y330809D02*
X330809Y4270D01*
X4270Y316667D02*
X316667Y4270D01*
X4270Y401520D02*
X401520Y4270D01*
X4270Y387378D02*
X387378Y4270D01*
X4270Y118677D02*
X48409Y74538D01*
X4317Y47919D02*
X47919Y4317D01*
X4270Y302525D02*
X302525Y4270D01*
X4270Y288383D02*
X288383Y4270D01*
X4270Y76251D02*
X25856Y54664D01*
X4270Y62108D02*
X28747Y37631D01*
X4270Y104535D02*
X37581Y71224D01*
X4270Y90393D02*
X30150Y64513D01*
X12241Y24202D02*
X27693Y39654D01*
X9691Y28403D02*
X28403Y9691D01*
X7363Y33467D02*
X25460Y51563D01*
X4270Y344951D02*
X344951Y4270D01*
X4270Y274240D02*
X274240Y4270D01*
X4270Y373235D02*
X373235Y4270D01*
X4270Y359093D02*
X359093Y4270D01*
X4270Y231814D02*
X231814Y4270D01*
X4270Y217672D02*
X217672Y4270D01*
X4270Y260098D02*
X260098Y4270D01*
X4270Y245956D02*
X245956Y4270D01*
X4270Y175245D02*
X175245Y4270D01*
X4270Y161103D02*
X161103Y4270D01*
X4270Y203530D02*
X203530Y4270D01*
X4270Y189388D02*
X189388Y4270D01*
X4270Y132819D02*
X132819Y4270D01*
X4270Y146961D02*
X146961Y4270D01*
D19*
X266700Y590601D02*
Y670000D01*
X723151Y469900D02*
Y570021D01*
X716628Y576544D02*
X723151Y570021D01*
D33*
X943180Y762060D02*
D03*
Y889060D02*
D03*
D34*
X917780Y861120D02*
D03*
D35*
X900000Y850960D02*
D03*
X917780Y840800D02*
D03*
X900000Y830640D02*
D03*
X917780Y820480D02*
D03*
X900000Y810320D02*
D03*
X917780Y800160D02*
D03*
X900000Y790000D02*
D03*
D43*
X501250Y415400D02*
D03*
Y390000D02*
D03*
Y364600D02*
D03*
D44*
Y339200D02*
D03*
D47*
X920000Y580000D02*
X920000Y580000D01*
D48*
X917780Y820480D02*
X927730D01*
X690000Y855000D02*
Y866000D01*
X900000Y830640D02*
X909950D01*
X907830Y820480D02*
X917780D01*
X890050Y830640D02*
X900000D01*
X690000Y855000D02*
X701000D01*
X690000Y844000D02*
Y855000D01*
X679000D02*
X690000D01*
X610000Y805000D02*
Y815500D01*
Y805000D02*
X620500D01*
X610000Y794500D02*
Y805000D01*
X599500D02*
X610000D01*
X887501Y627498D02*
X900661D01*
X920000Y580000D02*
Y593160D01*
Y580000D02*
X933160D01*
X906840D02*
X920000D01*
Y566840D02*
Y580000D01*
X887501Y627498D02*
Y640658D01*
Y614338D02*
Y627498D01*
X874341D02*
X887501D01*
X755000Y560000D02*
Y570500D01*
Y560000D02*
X765500D01*
X755000Y549500D02*
Y560000D01*
X744500D02*
X755000D01*
Y440000D02*
Y450500D01*
Y440000D02*
X765500D01*
X755000Y429500D02*
Y440000D01*
X744500D02*
X755000D01*
X704850Y552200D02*
Y562700D01*
Y552200D02*
X715350D01*
X704850Y541700D02*
Y552200D01*
X694350D02*
X704850D01*
X500000Y922694D02*
X513160D01*
X500000D02*
Y935854D01*
Y909534D02*
Y922694D01*
X486840D02*
X500000D01*
X452502Y890194D02*
X465662D01*
X439342D02*
X452502D01*
Y903354D01*
Y877034D02*
Y890194D01*
X560000Y365783D02*
Y565833D01*
X550000Y418868D02*
Y518750D01*
X420000Y565645D02*
X420532Y566177D01*
Y649468D01*
X440461Y340461D02*
Y568074D01*
X440922Y568535D01*
X440000Y340000D02*
X440461Y340461D01*
X410000Y553750D02*
Y610000D01*
X825500Y810320D02*
Y905233D01*
X977900Y717550D02*
X978166Y717815D01*
Y799894D01*
X978431Y800160D01*
X584200Y482600D02*
Y717550D01*
X571500Y501650D02*
Y730250D01*
X965038D02*
Y840800D01*
X717550Y596900D02*
Y853000D01*
X449539Y621839D02*
X450000Y622300D01*
X449539Y585461D02*
Y621839D01*
X449078Y585000D02*
X449539Y585461D01*
X420532Y649468D02*
X421064Y650000D01*
X450000Y391183D02*
Y519500D01*
X390000Y542750D02*
Y570000D01*
D49*
X755000Y440000D02*
D03*
Y560000D02*
D03*
X610000Y805000D02*
D03*
X628650Y526800D02*
D03*
X704850Y552200D02*
D03*
Y526800D02*
D03*
D50*
X805000Y440000D02*
D03*
Y560000D02*
D03*
X628650Y552200D02*
D03*
D51*
X610000Y855000D02*
D03*
D53*
X690000D02*
D03*
Y880400D02*
D03*
D54*
Y905800D02*
D03*
D55*
X857503Y580000D02*
D03*
X920000Y580000D02*
D03*
X887501Y627498D02*
D03*
X500000Y860197D02*
D03*
X500000Y922694D02*
D03*
X452502Y890194D02*
D03*
D56*
X311150Y569457D02*
D03*
X266700Y670000D02*
D03*
Y590601D02*
D03*
X449078Y641350D02*
D03*
X304800Y698500D02*
D03*
Y649078D02*
D03*
X549748Y542750D02*
D03*
X560000Y565833D02*
D03*
X550000Y518750D02*
D03*
X425450Y547048D02*
D03*
X420000Y565645D02*
D03*
X440922Y568535D02*
D03*
X410000Y553750D02*
D03*
X660400Y856106D02*
D03*
X635000Y804719D02*
D03*
X533400Y920750D02*
D03*
X800100Y666750D02*
D03*
X917780Y629498D02*
D03*
X948503Y579590D02*
D03*
X781050Y560105D02*
D03*
X679450Y552755D02*
D03*
X729674Y440000D02*
D03*
X635000Y497965D02*
D03*
X487418Y450850D02*
D03*
X716628Y576544D02*
D03*
X723151Y469900D02*
D03*
X825500Y905233D02*
D03*
Y810320D02*
D03*
X978431Y800160D02*
D03*
X977900Y717550D02*
D03*
X584200D02*
D03*
Y482600D02*
D03*
X571500Y501650D02*
D03*
X965038Y840800D02*
D03*
Y730250D02*
D03*
X571500D02*
D03*
X717550Y853000D02*
D03*
Y596900D02*
D03*
X449078Y585000D02*
D03*
X450000Y622300D02*
D03*
X421064Y650000D02*
D03*
X450000Y391183D02*
D03*
Y519500D02*
D03*
X410000Y610000D02*
D03*
X390000Y570000D02*
D03*
Y542750D02*
D03*
X440000Y340000D02*
D03*
X560000Y365783D02*
D03*
X550000Y418868D02*
D03*
D57*
X490250Y564750D02*
D03*
X501250D02*
D03*
X512250D02*
D03*
X490250Y553750D02*
D03*
X501250D02*
D03*
X512250D02*
D03*
X490250Y542750D02*
D03*
X501250D02*
D03*
X512250D02*
D03*
X490250Y531750D02*
D03*
X501250D02*
D03*
X512250D02*
D03*
X490250Y520750D02*
D03*
X501250D02*
D03*
X512250D02*
D03*
D58*
X50000Y950000D02*
D03*
X950000D02*
D03*
X50000Y50000D02*
D03*
X950000Y48575D02*
D03*
M02*
