G04*
G04 #@! TF.GenerationSoftware,Altium Limited,Altium Designer,23.7.1 (13)*
G04*
G04 Layer_Color=8421504*
%FSLAX44Y44*%
%MOMM*%
G71*
G04*
G04 #@! TF.SameCoordinates,9BDE129D-A6D9-4E47-A380-7317F5008C5C*
G04*
G04*
G04 #@! TF.FilePolarity,Positive*
G04*
G01*
G75*
%ADD20R,0.9500X1.3500*%
G04:AMPARAMS|DCode=21|XSize=0.2mm|YSize=1.65mm|CornerRadius=0.029mm|HoleSize=0mm|Usage=FLASHONLY|Rotation=90.000|XOffset=0mm|YOffset=0mm|HoleType=Round|Shape=RoundedRectangle|*
%AMROUNDEDRECTD21*
21,1,0.2000,1.5920,0,0,90.0*
21,1,0.1420,1.6500,0,0,90.0*
1,1,0.0580,0.7960,0.0710*
1,1,0.0580,0.7960,-0.0710*
1,1,0.0580,-0.7960,-0.0710*
1,1,0.0580,-0.7960,0.0710*
%
%ADD21ROUNDEDRECTD21*%
G04:AMPARAMS|DCode=22|XSize=3.1mm|YSize=5.18mm|CornerRadius=0.0465mm|HoleSize=0mm|Usage=FLASHONLY|Rotation=0.000|XOffset=0mm|YOffset=0mm|HoleType=Round|Shape=RoundedRectangle|*
%AMROUNDEDRECTD22*
21,1,3.1000,5.0870,0,0,0.0*
21,1,3.0070,5.1800,0,0,0.0*
1,1,0.0930,1.5035,-2.5435*
1,1,0.0930,-1.5035,-2.5435*
1,1,0.0930,-1.5035,2.5435*
1,1,0.0930,1.5035,2.5435*
%
%ADD22ROUNDEDRECTD22*%
%ADD23R,1.4000X1.5000*%
%ADD24R,1.5000X1.4000*%
%ADD25R,1.4000X1.2000*%
%ADD26R,1.2000X1.4000*%
D20*
X357270Y698500D02*
D03*
X342270D02*
D03*
D21*
X470500Y585000D02*
D03*
Y578500D02*
D03*
Y572000D02*
D03*
Y565500D02*
D03*
Y559000D02*
D03*
Y552500D02*
D03*
Y546000D02*
D03*
Y539500D02*
D03*
Y533000D02*
D03*
Y526500D02*
D03*
Y520000D02*
D03*
Y513500D02*
D03*
Y507000D02*
D03*
Y500500D02*
D03*
X532000Y585000D02*
D03*
Y578500D02*
D03*
Y572000D02*
D03*
Y565500D02*
D03*
Y552500D02*
D03*
Y546000D02*
D03*
Y539500D02*
D03*
Y533000D02*
D03*
Y526500D02*
D03*
Y520000D02*
D03*
Y513500D02*
D03*
Y507000D02*
D03*
Y500500D02*
D03*
Y559000D02*
D03*
D22*
X501250Y542750D02*
D03*
D23*
X650000Y577894D02*
D03*
X630000D02*
D03*
X340000Y510000D02*
D03*
X360000D02*
D03*
X340000Y490000D02*
D03*
X360000D02*
D03*
Y610000D02*
D03*
X340000D02*
D03*
X360000Y550000D02*
D03*
X340000D02*
D03*
Y670000D02*
D03*
X360000D02*
D03*
X340000Y590000D02*
D03*
X360000D02*
D03*
Y570000D02*
D03*
X340000D02*
D03*
X360000Y650000D02*
D03*
X340000D02*
D03*
D24*
X472250Y620770D02*
D03*
Y640770D02*
D03*
X470000Y470000D02*
D03*
Y450000D02*
D03*
D25*
X590550Y553242D02*
D03*
Y535243D02*
D03*
X800000Y631000D02*
D03*
Y649000D02*
D03*
D26*
X596900Y497810D02*
D03*
X614900D02*
D03*
X341000Y630000D02*
D03*
X359000D02*
D03*
X340500Y530000D02*
D03*
X358500D02*
D03*
M02*
