G04*
G04 #@! TF.GenerationSoftware,Altium Limited,Altium Designer,23.9.2 (47)*
G04*
G04 Layer_Color=16711935*
%FSLAX44Y44*%
%MOMM*%
G71*
G04*
G04 #@! TF.SameCoordinates,AC20B462-CAF6-4E74-BB64-28AA76468CC9*
G04*
G04*
G04 #@! TF.FilePolarity,Negative*
G04*
G01*
G75*
%ADD118C,2.7032*%
%ADD119C,1.4986*%
%ADD120C,1.8032*%
%ADD121R,1.8032X1.8032*%
%ADD122C,2.2352*%
%ADD123R,1.8032X1.8032*%
%ADD124C,1.5240*%
%ADD125R,1.5240X1.5240*%
%ADD126C,1.5532*%
%ADD127R,1.5532X1.5532*%
%ADD128C,1.7032*%
%ADD129R,1.7032X1.7032*%
%ADD130R,1.7032X1.7032*%
%ADD131O,1.4032X2.1032*%
%ADD132O,1.1684X1.3716*%
%ADD134C,0.9652*%
%ADD151C,4.5212*%
D118*
X76200Y835500D02*
D03*
Y886300D02*
D03*
X876300Y505300D02*
D03*
Y556100D02*
D03*
X863600Y308450D02*
D03*
Y359250D02*
D03*
X520700Y797400D02*
D03*
X571500D02*
D03*
X622300D02*
D03*
D119*
X114718Y780101D02*
D03*
Y678501D02*
D03*
Y653101D02*
D03*
X38518D02*
D03*
Y678501D02*
D03*
Y780101D02*
D03*
D120*
X293721Y486227D02*
D03*
Y511627D02*
D03*
X242921Y435427D02*
D03*
Y460827D02*
D03*
X192121Y435427D02*
D03*
Y460827D02*
D03*
X144583Y435427D02*
D03*
Y460827D02*
D03*
X481738Y353000D02*
D03*
X456338D02*
D03*
X507137D02*
D03*
X532537D02*
D03*
X209822Y269203D02*
D03*
Y243803D02*
D03*
X101756Y116803D02*
D03*
Y91403D02*
D03*
D121*
X293721Y537027D02*
D03*
X242921Y486227D02*
D03*
X192121D02*
D03*
X144583D02*
D03*
X209822Y294603D02*
D03*
X101756Y142203D02*
D03*
D122*
X837644Y856819D02*
D03*
X837644Y919316D02*
D03*
X790146Y886816D02*
D03*
D123*
X430938Y353000D02*
D03*
D124*
X762000Y200500D02*
D03*
D125*
X812000D02*
D03*
D126*
X533787Y154264D02*
D03*
D127*
Y174264D02*
D03*
D128*
X581602Y152688D02*
D03*
X607002D02*
D03*
X668869Y48600D02*
D03*
D129*
X632402Y152688D02*
D03*
D130*
X668869Y98600D02*
D03*
D131*
X177909Y15626D02*
D03*
X261409D02*
D03*
D132*
X243027Y45626D02*
D03*
X196291D02*
D03*
D134*
X165100Y142203D02*
D03*
X710768Y497869D02*
D03*
X674423Y508148D02*
D03*
X95250Y497500D02*
D03*
X101756Y64078D02*
D03*
X184398Y135713D02*
D03*
X361950Y564590D02*
D03*
X158750Y15626D02*
D03*
X279400Y60787D02*
D03*
X261409Y52224D02*
D03*
X808645Y333671D02*
D03*
X809047Y308539D02*
D03*
X943227Y681596D02*
D03*
X498131Y302446D02*
D03*
X349975Y285214D02*
D03*
X972683Y901700D02*
D03*
X706631Y806450D02*
D03*
X795225Y787400D02*
D03*
X694798Y730250D02*
D03*
X878209Y768350D02*
D03*
X844922Y702679D02*
D03*
X895350Y717550D02*
D03*
X914400Y641350D02*
D03*
X979598Y595289D02*
D03*
X812800Y603250D02*
D03*
X730250Y592445D02*
D03*
X647700Y647700D02*
D03*
X501650Y643241D02*
D03*
X673100Y479193D02*
D03*
X819150Y474215D02*
D03*
X857244Y406400D02*
D03*
X920750Y408102D02*
D03*
X719869Y274110D02*
D03*
X714059Y343000D02*
D03*
X581602Y336784D02*
D03*
X673240Y184039D02*
D03*
X858003Y44933D02*
D03*
X614604Y102350D02*
D03*
X533854Y133350D02*
D03*
X500000Y277401D02*
D03*
X285210Y222250D02*
D03*
X386734Y243803D02*
D03*
X177909Y52224D02*
D03*
X82550Y167087D02*
D03*
Y267886D02*
D03*
X128625Y209550D02*
D03*
X317360Y486227D02*
D03*
X267240Y435427D02*
D03*
X141577Y538237D02*
D03*
X89712Y603250D02*
D03*
X186669Y628536D02*
D03*
X242921Y691036D02*
D03*
X183378Y704850D02*
D03*
X217874Y791926D02*
D03*
X120650Y952323D02*
D03*
X273050Y694327D02*
D03*
X456338Y335629D02*
D03*
X470077Y339197D02*
D03*
X531135Y469900D02*
D03*
X666750Y444780D02*
D03*
X604753Y433264D02*
D03*
X623153Y432272D02*
D03*
X564732Y652823D02*
D03*
Y588400D02*
D03*
X457996Y277205D02*
D03*
X449783Y290691D02*
D03*
X445485Y434296D02*
D03*
X428711D02*
D03*
X329660Y655060D02*
D03*
Y619479D02*
D03*
X768966Y850900D02*
D03*
X767810Y532860D02*
D03*
X763429Y425786D02*
D03*
X273050Y634346D02*
D03*
X622666Y381716D02*
D03*
X735683Y350347D02*
D03*
X436007Y485019D02*
D03*
X632726Y515722D02*
D03*
Y370853D02*
D03*
X937652Y660991D02*
D03*
X626747Y237731D02*
D03*
X221548Y117094D02*
D03*
X221510Y59632D02*
D03*
X279400Y120662D02*
D03*
X127469Y163796D02*
D03*
Y95040D02*
D03*
X373577Y102350D02*
D03*
X521485Y98138D02*
D03*
X324390Y196799D02*
D03*
X324299Y361950D02*
D03*
X116073Y491632D02*
D03*
X115921Y361950D02*
D03*
X186669Y584877D02*
D03*
Y614335D02*
D03*
X449783Y201453D02*
D03*
X457654Y314986D02*
D03*
X631369Y287400D02*
D03*
X729873Y205500D02*
D03*
X730250Y241300D02*
D03*
X939800Y743104D02*
D03*
X850075Y438233D02*
D03*
X850732Y503819D02*
D03*
X858400Y462706D02*
D03*
X858653Y554191D02*
D03*
X762000Y507110D02*
D03*
X736087Y300600D02*
D03*
X699942Y382156D02*
D03*
X699129Y274110D02*
D03*
X714059Y412750D02*
D03*
X628078Y356860D02*
D03*
X520269Y381000D02*
D03*
X444069Y331327D02*
D03*
X469900Y381000D02*
D03*
X444330D02*
D03*
X375369Y397500D02*
D03*
X384059Y781400D02*
D03*
X382965Y527392D02*
D03*
X253773Y665252D02*
D03*
X273050Y674175D02*
D03*
X253773Y649051D02*
D03*
X687368Y657700D02*
D03*
X686910Y623884D02*
D03*
X669809Y570600D02*
D03*
X699942Y578800D02*
D03*
X690676Y547197D02*
D03*
X693643Y561400D02*
D03*
X685827Y588400D02*
D03*
X678552Y552400D02*
D03*
X700370Y532669D02*
D03*
X661131Y524327D02*
D03*
X666131Y542588D02*
D03*
X692870Y482634D02*
D03*
X699165Y489908D02*
D03*
X679600Y461550D02*
D03*
X673100Y431758D02*
D03*
X714059Y392938D02*
D03*
X685369Y387458D02*
D03*
X685750Y532860D02*
D03*
X660400Y382716D02*
D03*
X508204Y431814D02*
D03*
X508396Y452692D02*
D03*
X698500Y431542D02*
D03*
X598850Y478863D02*
D03*
X572359Y487666D02*
D03*
X608669Y488003D02*
D03*
X590550Y432575D02*
D03*
X590428Y488003D02*
D03*
X580819Y478558D02*
D03*
X557530Y486174D02*
D03*
X577960Y431542D02*
D03*
X568474Y433140D02*
D03*
X565888Y477674D02*
D03*
X565150Y445699D02*
D03*
X553517Y451803D02*
D03*
X520269Y445043D02*
D03*
X520700Y431542D02*
D03*
X542910Y463332D02*
D03*
X542138Y485453D02*
D03*
X532703Y487330D02*
D03*
X469469Y462590D02*
D03*
X470077Y432272D02*
D03*
X446338Y469900D02*
D03*
X387890Y432272D02*
D03*
X389627Y489900D02*
D03*
X457654Y543300D02*
D03*
X458338Y527050D02*
D03*
X470077Y534300D02*
D03*
X469900Y502309D02*
D03*
X482313Y524327D02*
D03*
X481738Y477425D02*
D03*
X495889Y516300D02*
D03*
X495300Y451509D02*
D03*
X477072Y561400D02*
D03*
X488124Y570400D02*
D03*
X477878Y578800D02*
D03*
X487878Y603503D02*
D03*
X500000Y578800D02*
D03*
Y628532D02*
D03*
X555287Y597400D02*
D03*
X554428Y683244D02*
D03*
X535200Y705800D02*
D03*
X538678Y606850D02*
D03*
X530019Y615850D02*
D03*
X526297Y730250D02*
D03*
X545669Y756806D02*
D03*
Y628532D02*
D03*
Y317600D02*
D03*
D151*
X950000Y48575D02*
D03*
X50000Y50000D02*
D03*
X950000Y950000D02*
D03*
X50000D02*
D03*
M02*
