G04*
G04 #@! TF.GenerationSoftware,Altium Limited,Altium Designer,23.9.2 (47)*
G04*
G04 Layer_Color=8388736*
%FSLAX44Y44*%
%MOMM*%
G71*
G04*
G04 #@! TF.SameCoordinates,AC20B462-CAF6-4E74-BB64-28AA76468CC9*
G04*
G04*
G04 #@! TF.FilePolarity,Negative*
G04*
G01*
G75*
%ADD24R,1.4082X0.8221*%
G04:AMPARAMS|DCode=25|XSize=1.4082mm|YSize=0.8221mm|CornerRadius=0.4111mm|HoleSize=0mm|Usage=FLASHONLY|Rotation=0.000|XOffset=0mm|YOffset=0mm|HoleType=Round|Shape=RoundedRectangle|*
%AMROUNDEDRECTD25*
21,1,1.4082,0.0000,0,0,0.0*
21,1,0.5861,0.8221,0,0,0.0*
1,1,0.8221,0.2930,0.0000*
1,1,0.8221,-0.2930,0.0000*
1,1,0.8221,-0.2930,0.0000*
1,1,0.8221,0.2930,0.0000*
%
%ADD25ROUNDEDRECTD25*%
G04:AMPARAMS|DCode=33|XSize=1.3554mm|YSize=0.3408mm|CornerRadius=0.1704mm|HoleSize=0mm|Usage=FLASHONLY|Rotation=0.000|XOffset=0mm|YOffset=0mm|HoleType=Round|Shape=RoundedRectangle|*
%AMROUNDEDRECTD33*
21,1,1.3554,0.0000,0,0,0.0*
21,1,1.0147,0.3408,0,0,0.0*
1,1,0.3408,0.5073,0.0000*
1,1,0.3408,-0.5073,0.0000*
1,1,0.3408,-0.5073,0.0000*
1,1,0.3408,0.5073,0.0000*
%
%ADD33ROUNDEDRECTD33*%
%ADD34R,1.3554X0.3408*%
%ADD36R,1.3500X0.9500*%
%ADD40R,1.2700X0.6100*%
%ADD41R,0.6100X1.2700*%
%ADD48R,1.2000X2.5000*%
%ADD49R,1.7000X2.5000*%
%ADD50R,0.9500X1.3500*%
%ADD51R,1.5562X1.4549*%
%ADD53R,0.8065X1.3082*%
%ADD54R,1.3082X0.8065*%
%ADD57R,1.8000X1.0000*%
%ADD61R,1.6637X0.5588*%
%ADD70R,3.2000X1.6000*%
%ADD79R,0.8032X1.6532*%
%ADD80R,1.6032X1.7032*%
%ADD81R,4.0032X2.2332*%
%ADD82R,1.5532X1.2032*%
%ADD83R,1.4532X1.0032*%
%ADD84R,1.4032X1.3032*%
%ADD85R,1.2032X1.5532*%
%ADD86R,1.6532X1.3532*%
G04:AMPARAMS|DCode=87|XSize=0.6532mm|YSize=1.3532mm|CornerRadius=0.1511mm|HoleSize=0mm|Usage=FLASHONLY|Rotation=180.000|XOffset=0mm|YOffset=0mm|HoleType=Round|Shape=RoundedRectangle|*
%AMROUNDEDRECTD87*
21,1,0.6532,1.0510,0,0,180.0*
21,1,0.3510,1.3532,0,0,180.0*
1,1,0.3022,-0.1755,0.5255*
1,1,0.3022,0.1755,0.5255*
1,1,0.3022,0.1755,-0.5255*
1,1,0.3022,-0.1755,-0.5255*
%
%ADD87ROUNDEDRECTD87*%
%ADD88R,2.2332X4.0032*%
%ADD89R,1.7532X1.6032*%
%ADD90R,1.3032X1.4032*%
%ADD91R,1.0032X1.4532*%
%ADD92R,1.6032X1.7532*%
%ADD93R,1.7032X1.6032*%
%ADD94R,1.5032X0.7239*%
%ADD95R,1.6032X2.3032*%
%ADD96R,1.3532X1.6532*%
G04:AMPARAMS|DCode=97|XSize=0.8032mm|YSize=1.6532mm|CornerRadius=0.1526mm|HoleSize=0mm|Usage=FLASHONLY|Rotation=180.000|XOffset=0mm|YOffset=0mm|HoleType=Round|Shape=RoundedRectangle|*
%AMROUNDEDRECTD97*
21,1,0.8032,1.3480,0,0,180.0*
21,1,0.4980,1.6532,0,0,180.0*
1,1,0.3052,-0.2490,0.6740*
1,1,0.3052,0.2490,0.6740*
1,1,0.3052,0.2490,-0.6740*
1,1,0.3052,-0.2490,-0.6740*
%
%ADD97ROUNDEDRECTD97*%
%ADD98R,1.6032X1.4032*%
%ADD99R,1.5532X1.7532*%
%ADD100R,1.2192X1.5532*%
%ADD101R,1.2192X1.5532*%
%ADD102R,1.4032X1.6032*%
%ADD103R,0.7112X2.0032*%
%ADD104R,1.6532X0.8032*%
G04:AMPARAMS|DCode=105|XSize=0.7239mm|YSize=1.2032mm|CornerRadius=0.1459mm|HoleSize=0mm|Usage=FLASHONLY|Rotation=180.000|XOffset=0mm|YOffset=0mm|HoleType=Round|Shape=RoundedRectangle|*
%AMROUNDEDRECTD105*
21,1,0.7239,0.9115,0,0,180.0*
21,1,0.4322,1.2032,0,0,180.0*
1,1,0.2917,-0.2161,0.4557*
1,1,0.2917,0.2161,0.4557*
1,1,0.2917,0.2161,-0.4557*
1,1,0.2917,-0.2161,-0.4557*
%
%ADD105ROUNDEDRECTD105*%
%ADD106R,2.3032X1.6032*%
%ADD107R,0.7239X1.5032*%
G04:AMPARAMS|DCode=108|XSize=1.2032mm|YSize=2.2532mm|CornerRadius=0.1516mm|HoleSize=0mm|Usage=FLASHONLY|Rotation=270.000|XOffset=0mm|YOffset=0mm|HoleType=Round|Shape=RoundedRectangle|*
%AMROUNDEDRECTD108*
21,1,1.2032,1.9500,0,0,270.0*
21,1,0.9000,2.2532,0,0,270.0*
1,1,0.3032,-0.9750,-0.4500*
1,1,0.3032,-0.9750,0.4500*
1,1,0.3032,0.9750,0.4500*
1,1,0.3032,0.9750,-0.4500*
%
%ADD108ROUNDEDRECTD108*%
G04:AMPARAMS|DCode=109|XSize=3.4532mm|YSize=2.2532mm|CornerRadius=0.1529mm|HoleSize=0mm|Usage=FLASHONLY|Rotation=270.000|XOffset=0mm|YOffset=0mm|HoleType=Round|Shape=RoundedRectangle|*
%AMROUNDEDRECTD109*
21,1,3.4532,1.9475,0,0,270.0*
21,1,3.1475,2.2532,0,0,270.0*
1,1,0.3057,-0.9738,-1.5738*
1,1,0.3057,-0.9738,1.5738*
1,1,0.3057,0.9738,1.5738*
1,1,0.3057,0.9738,-1.5738*
%
%ADD109ROUNDEDRECTD109*%
%ADD110O,0.4128X2.1532*%
%ADD111R,1.7532X1.5532*%
%ADD112R,0.8032X1.4032*%
%ADD113R,1.3532X1.2032*%
%ADD114R,2.0032X2.1032*%
%ADD115R,0.4255X1.5532*%
%ADD116R,1.7782X2.1032*%
%ADD117R,1.7782X2.1032*%
%ADD118C,2.7032*%
%ADD119C,1.4986*%
%ADD120C,1.8032*%
%ADD121R,1.8032X1.8032*%
%ADD122C,2.2352*%
%ADD123R,1.8032X1.8032*%
%ADD124C,1.5240*%
%ADD125R,1.5240X1.5240*%
%ADD126C,1.5532*%
%ADD127R,1.5532X1.5532*%
%ADD128C,1.7032*%
%ADD129R,1.7032X1.7032*%
%ADD130R,1.7032X1.7032*%
%ADD131O,1.4032X2.1032*%
%ADD132O,1.1684X1.3716*%
%ADD133C,3.2032*%
%ADD134C,0.9652*%
D24*
X40632Y624041D02*
D03*
D25*
X76232D02*
D03*
D33*
X207174Y591377D02*
D03*
Y584877D02*
D03*
Y578377D02*
D03*
Y571877D02*
D03*
Y565377D02*
D03*
Y558877D02*
D03*
Y552377D02*
D03*
Y545877D02*
D03*
X151667D02*
D03*
Y552377D02*
D03*
Y558877D02*
D03*
Y565377D02*
D03*
Y571877D02*
D03*
Y578377D02*
D03*
Y584877D02*
D03*
D34*
Y591377D02*
D03*
D36*
X205042Y609832D02*
D03*
Y624832D02*
D03*
X183621Y735578D02*
D03*
Y720578D02*
D03*
X898262Y686350D02*
D03*
Y701350D02*
D03*
X926083Y686350D02*
D03*
Y701350D02*
D03*
X349522Y299803D02*
D03*
Y314803D02*
D03*
X208397Y192433D02*
D03*
Y207433D02*
D03*
X177956Y193003D02*
D03*
Y208003D02*
D03*
X147902Y193003D02*
D03*
Y208003D02*
D03*
D40*
X647618Y633500D02*
D03*
Y624500D02*
D03*
Y615500D02*
D03*
Y606500D02*
D03*
Y597400D02*
D03*
Y588400D02*
D03*
Y579400D02*
D03*
Y570400D02*
D03*
Y561400D02*
D03*
Y552400D02*
D03*
Y543300D02*
D03*
Y534300D02*
D03*
Y525300D02*
D03*
Y516300D02*
D03*
X515238D02*
D03*
Y525300D02*
D03*
Y534300D02*
D03*
Y543300D02*
D03*
Y552400D02*
D03*
Y561400D02*
D03*
Y570400D02*
D03*
Y579400D02*
D03*
Y588400D02*
D03*
Y597400D02*
D03*
Y606500D02*
D03*
Y615500D02*
D03*
Y624500D02*
D03*
Y633500D02*
D03*
D41*
X644528Y501610D02*
D03*
X635528D02*
D03*
X626528D02*
D03*
X617528D02*
D03*
X608528D02*
D03*
X599428D02*
D03*
X590428D02*
D03*
X581428D02*
D03*
X572428D02*
D03*
X563428D02*
D03*
X554428D02*
D03*
X545328D02*
D03*
X536328D02*
D03*
X527328D02*
D03*
X518328D02*
D03*
D48*
X935623Y840795D02*
D03*
Y785795D02*
D03*
X910623D02*
D03*
Y840795D02*
D03*
X960623D02*
D03*
Y785795D02*
D03*
D49*
X823322Y650090D02*
D03*
Y690090D02*
D03*
D50*
X862970Y697377D02*
D03*
X877970D02*
D03*
X971848Y690441D02*
D03*
X956848D02*
D03*
X702169Y631500D02*
D03*
X717169D02*
D03*
X702169Y604278D02*
D03*
X717169D02*
D03*
X285319Y243803D02*
D03*
X270319D02*
D03*
X153822Y53303D02*
D03*
X138822D02*
D03*
D51*
X858653Y667450D02*
D03*
Y648937D02*
D03*
D53*
X949941Y643936D02*
D03*
X966958D02*
D03*
D54*
X969283Y623841D02*
D03*
Y606824D02*
D03*
D57*
X717729Y553227D02*
D03*
Y578227D02*
D03*
D61*
X876300Y462442D02*
D03*
Y449742D02*
D03*
Y437042D02*
D03*
Y424342D02*
D03*
X819785D02*
D03*
Y437042D02*
D03*
Y449742D02*
D03*
Y462442D02*
D03*
X752158Y346550D02*
D03*
Y333850D02*
D03*
Y321150D02*
D03*
Y308450D02*
D03*
X695642D02*
D03*
Y321150D02*
D03*
Y333850D02*
D03*
Y346550D02*
D03*
D70*
X111333Y268710D02*
D03*
X161333D02*
D03*
D79*
X66700Y579627D02*
D03*
X85700D02*
D03*
X76200Y603127D02*
D03*
X877653Y747227D02*
D03*
X858653D02*
D03*
X868152Y723727D02*
D03*
D80*
X64769Y556722D02*
D03*
X84769D02*
D03*
X615369Y365700D02*
D03*
X595369D02*
D03*
X615369Y289500D02*
D03*
X595369D02*
D03*
D81*
X115921Y555927D02*
D03*
X158103Y614335D02*
D03*
X296360Y574453D02*
D03*
X244973Y587035D02*
D03*
X249481Y555927D02*
D03*
X248325Y524327D02*
D03*
X192121D02*
D03*
X144583Y518250D02*
D03*
X409169Y756600D02*
D03*
X939800Y901700D02*
D03*
X935623Y874657D02*
D03*
X788391Y477674D02*
D03*
X788838Y408490D02*
D03*
X660400Y361756D02*
D03*
Y288450D02*
D03*
X393700Y294600D02*
D03*
X58885Y90979D02*
D03*
X101756Y43904D02*
D03*
X889000Y44933D02*
D03*
D82*
X73697Y520237D02*
D03*
Y538237D02*
D03*
X145403Y643435D02*
D03*
Y661435D02*
D03*
X232273Y616135D02*
D03*
Y634135D02*
D03*
X196419Y673956D02*
D03*
Y655956D02*
D03*
X217679Y673956D02*
D03*
Y655956D02*
D03*
X237769Y673956D02*
D03*
Y655956D02*
D03*
X198321Y773830D02*
D03*
Y755830D02*
D03*
X217821D02*
D03*
Y773830D02*
D03*
X238258Y773802D02*
D03*
Y755802D02*
D03*
X757010Y741104D02*
D03*
Y723104D02*
D03*
X508396Y216413D02*
D03*
Y234413D02*
D03*
X283660Y603532D02*
D03*
Y621531D02*
D03*
D83*
X94150Y514600D02*
D03*
Y530600D02*
D03*
X513235Y267400D02*
D03*
Y251400D02*
D03*
D84*
X113719Y528600D02*
D03*
Y507600D02*
D03*
X513235Y295200D02*
D03*
Y316200D02*
D03*
D85*
X103221Y578377D02*
D03*
X121221D02*
D03*
X103121Y597662D02*
D03*
X121121D02*
D03*
X120658Y618635D02*
D03*
X102658D02*
D03*
X917623Y758295D02*
D03*
X935623D02*
D03*
X954621Y718182D02*
D03*
X972621D02*
D03*
X783337Y576784D02*
D03*
X801337D02*
D03*
X839180Y406134D02*
D03*
X821180D02*
D03*
X601669Y264100D02*
D03*
X583669D02*
D03*
X713292Y290286D02*
D03*
X695292D02*
D03*
X444338Y314900D02*
D03*
X426338D02*
D03*
X574669Y186947D02*
D03*
X592669D02*
D03*
X337644Y258794D02*
D03*
X355644D02*
D03*
D86*
X170803Y643935D02*
D03*
Y661435D02*
D03*
X309490Y603282D02*
D03*
Y620782D02*
D03*
X257673Y616385D02*
D03*
Y633885D02*
D03*
X945970Y621690D02*
D03*
Y605690D02*
D03*
D87*
X207771Y693577D02*
D03*
X214271D02*
D03*
X220771D02*
D03*
X227271D02*
D03*
X207771Y736077D02*
D03*
X214271D02*
D03*
X220771D02*
D03*
X227271D02*
D03*
D88*
X152400Y797400D02*
D03*
X759621Y822003D02*
D03*
X835705Y733979D02*
D03*
X647700Y251300D02*
D03*
X643469Y200600D02*
D03*
X101600Y952500D02*
D03*
D89*
X494869Y397500D02*
D03*
Y416500D02*
D03*
X520269Y397500D02*
D03*
Y416500D02*
D03*
X545669D02*
D03*
Y397500D02*
D03*
X571069Y416500D02*
D03*
Y397500D02*
D03*
X596469Y416500D02*
D03*
Y397500D02*
D03*
X623302Y416500D02*
D03*
Y397500D02*
D03*
X647269Y416500D02*
D03*
Y397500D02*
D03*
X672669Y416500D02*
D03*
Y397500D02*
D03*
X698069Y416500D02*
D03*
Y397500D02*
D03*
X469469D02*
D03*
Y416500D02*
D03*
X444069Y397500D02*
D03*
Y416500D02*
D03*
X418669Y397500D02*
D03*
Y416500D02*
D03*
X393269Y397500D02*
D03*
Y416500D02*
D03*
D90*
X367869Y602000D02*
D03*
X346869D02*
D03*
X734587Y770579D02*
D03*
X713587D02*
D03*
X69232Y148778D02*
D03*
X48232D02*
D03*
D91*
X362790Y581204D02*
D03*
X346790D02*
D03*
X720787Y795979D02*
D03*
X736787D02*
D03*
X50344Y167920D02*
D03*
X66344D02*
D03*
D92*
X399669Y451800D02*
D03*
X418669D02*
D03*
Y477200D02*
D03*
X399669D02*
D03*
Y502600D02*
D03*
X418669D02*
D03*
Y528000D02*
D03*
X399669D02*
D03*
X418669Y553400D02*
D03*
X399669D02*
D03*
X418669Y578800D02*
D03*
X399669D02*
D03*
Y602000D02*
D03*
X418669D02*
D03*
X399669Y629600D02*
D03*
X418669D02*
D03*
X399669Y655000D02*
D03*
X418669D02*
D03*
X399669Y683100D02*
D03*
X418669D02*
D03*
X399669Y705800D02*
D03*
X418669D02*
D03*
X399669Y731200D02*
D03*
X418669D02*
D03*
X723087Y657700D02*
D03*
X704087D02*
D03*
X730628Y532510D02*
D03*
X749628D02*
D03*
X730628Y507110D02*
D03*
X749628D02*
D03*
X730628Y483977D02*
D03*
X749628D02*
D03*
X730210Y462442D02*
D03*
X749210D02*
D03*
X729873Y437956D02*
D03*
X748873D02*
D03*
X729869Y412310D02*
D03*
X748869D02*
D03*
X729869Y388620D02*
D03*
X748869D02*
D03*
X729869Y367410D02*
D03*
X748869D02*
D03*
D93*
X756347Y786589D02*
D03*
Y766589D02*
D03*
X777516Y766070D02*
D03*
Y786070D02*
D03*
X673100Y241300D02*
D03*
Y261300D02*
D03*
X698500D02*
D03*
Y241300D02*
D03*
D94*
X712087Y741979D02*
D03*
Y732479D02*
D03*
Y722979D02*
D03*
X736087D02*
D03*
Y741979D02*
D03*
D95*
X792314Y604744D02*
D03*
Y695744D02*
D03*
X747314Y604744D02*
D03*
Y695744D02*
D03*
D96*
X953408Y666122D02*
D03*
X969908D02*
D03*
X896763Y449742D02*
D03*
X914263D02*
D03*
X772801Y333671D02*
D03*
X790301D02*
D03*
D97*
X925303Y661127D02*
D03*
X912602D02*
D03*
X899902D02*
D03*
X887203D02*
D03*
X925303Y606627D02*
D03*
X912602D02*
D03*
X899902D02*
D03*
X887203D02*
D03*
D98*
X866297Y606332D02*
D03*
Y624332D02*
D03*
X574169Y102700D02*
D03*
Y120700D02*
D03*
X598706Y102350D02*
D03*
Y120350D02*
D03*
D99*
X778422Y454793D02*
D03*
X797922D02*
D03*
X778393Y432905D02*
D03*
X797893D02*
D03*
X650767Y339197D02*
D03*
X670267D02*
D03*
X650584Y315986D02*
D03*
X670084D02*
D03*
D100*
X761569Y576784D02*
D03*
X761569Y556300D02*
D03*
D101*
X747069Y576784D02*
D03*
X747069Y556300D02*
D03*
D102*
X914763Y428581D02*
D03*
X896763D02*
D03*
X900470Y408466D02*
D03*
X882470D02*
D03*
X792672Y308450D02*
D03*
X774672D02*
D03*
X780000Y289400D02*
D03*
X762000D02*
D03*
X560369Y264100D02*
D03*
X542369D02*
D03*
X573069Y238700D02*
D03*
X555069D02*
D03*
X573330Y209235D02*
D03*
X555331D02*
D03*
D103*
X614869Y337600D02*
D03*
X595869D02*
D03*
X605369Y317600D02*
D03*
Y216000D02*
D03*
X595869Y236000D02*
D03*
X614869D02*
D03*
D104*
X696600Y210000D02*
D03*
X673100Y200500D02*
D03*
Y219500D02*
D03*
D105*
X472238Y288450D02*
D03*
X481738D02*
D03*
X491237D02*
D03*
Y315950D02*
D03*
X481738D02*
D03*
X472238D02*
D03*
D106*
X481524Y261200D02*
D03*
X390524D02*
D03*
X481524Y216200D02*
D03*
X390524D02*
D03*
D107*
X337624Y237300D02*
D03*
X356624D02*
D03*
Y213300D02*
D03*
X347124D02*
D03*
X337624D02*
D03*
D108*
X310981Y271732D02*
D03*
Y294732D02*
D03*
Y317732D02*
D03*
D109*
X247481Y294732D02*
D03*
D110*
X203472Y163303D02*
D03*
X197122D02*
D03*
X190772D02*
D03*
X184422D02*
D03*
X178072D02*
D03*
X171722D02*
D03*
X165372D02*
D03*
X159022D02*
D03*
X152672D02*
D03*
X146322D02*
D03*
X203472Y116803D02*
D03*
X197122D02*
D03*
X190772D02*
D03*
X184422D02*
D03*
X178072D02*
D03*
X171722D02*
D03*
X165372D02*
D03*
X159022D02*
D03*
X152672D02*
D03*
X146322D02*
D03*
D111*
X260077Y139269D02*
D03*
Y119769D02*
D03*
X239304Y139253D02*
D03*
Y119753D02*
D03*
D112*
X58674Y112610D02*
D03*
X49174Y130610D02*
D03*
X68174D02*
D03*
D113*
X140623Y85067D02*
D03*
X164123D02*
D03*
D114*
X231159Y15626D02*
D03*
X208159D02*
D03*
D115*
X206659Y42376D02*
D03*
X213159D02*
D03*
X232659D02*
D03*
X219659D02*
D03*
X226159D02*
D03*
D116*
X185785Y15627D02*
D03*
D117*
X253533Y15625D02*
D03*
D118*
X76200Y835500D02*
D03*
Y886300D02*
D03*
X876300Y505300D02*
D03*
Y556100D02*
D03*
X863600Y308450D02*
D03*
Y359250D02*
D03*
X520700Y797400D02*
D03*
X571500D02*
D03*
X622300D02*
D03*
D119*
X114718Y780101D02*
D03*
Y678501D02*
D03*
Y653101D02*
D03*
X38518D02*
D03*
Y678501D02*
D03*
Y780101D02*
D03*
D120*
X293721Y486227D02*
D03*
Y511627D02*
D03*
X242921Y435427D02*
D03*
Y460827D02*
D03*
X192121Y435427D02*
D03*
Y460827D02*
D03*
X144583Y435427D02*
D03*
Y460827D02*
D03*
X481738Y353000D02*
D03*
X456338D02*
D03*
X507137D02*
D03*
X532537D02*
D03*
X209822Y269203D02*
D03*
Y243803D02*
D03*
X101756Y116803D02*
D03*
Y91403D02*
D03*
D121*
X293721Y537027D02*
D03*
X242921Y486227D02*
D03*
X192121D02*
D03*
X144583D02*
D03*
X209822Y294603D02*
D03*
X101756Y142203D02*
D03*
D122*
X837644Y856819D02*
D03*
X837644Y919316D02*
D03*
X790146Y886816D02*
D03*
D123*
X430938Y353000D02*
D03*
D124*
X762000Y200500D02*
D03*
D125*
X812000D02*
D03*
D126*
X533787Y154264D02*
D03*
D127*
Y174264D02*
D03*
D128*
X581602Y152688D02*
D03*
X607002D02*
D03*
X668869Y48600D02*
D03*
D129*
X632402Y152688D02*
D03*
D130*
X668869Y98600D02*
D03*
D131*
X177909Y15626D02*
D03*
X261409D02*
D03*
D132*
X243027Y45626D02*
D03*
X196291D02*
D03*
D133*
X950000Y48575D02*
D03*
X50000Y50000D02*
D03*
X950000Y950000D02*
D03*
X50000D02*
D03*
D134*
X165100Y142203D02*
D03*
X710768Y497869D02*
D03*
X674423Y508148D02*
D03*
X95250Y497500D02*
D03*
X101756Y64078D02*
D03*
X184398Y135713D02*
D03*
X361950Y564590D02*
D03*
X158750Y15626D02*
D03*
X279400Y60787D02*
D03*
X261409Y52224D02*
D03*
X808645Y333671D02*
D03*
X809047Y308539D02*
D03*
X943227Y681596D02*
D03*
X498131Y302446D02*
D03*
X349975Y285214D02*
D03*
X972683Y901700D02*
D03*
X706631Y806450D02*
D03*
X795225Y787400D02*
D03*
X694798Y730250D02*
D03*
X878209Y768350D02*
D03*
X844922Y702679D02*
D03*
X895350Y717550D02*
D03*
X914400Y641350D02*
D03*
X979598Y595289D02*
D03*
X812800Y603250D02*
D03*
X730250Y592445D02*
D03*
X647700Y647700D02*
D03*
X501650Y643241D02*
D03*
X673100Y479193D02*
D03*
X819150Y474215D02*
D03*
X857244Y406400D02*
D03*
X920750Y408102D02*
D03*
X719869Y274110D02*
D03*
X714059Y343000D02*
D03*
X581602Y336784D02*
D03*
X673240Y184039D02*
D03*
X858003Y44933D02*
D03*
X614604Y102350D02*
D03*
X533854Y133350D02*
D03*
X500000Y277401D02*
D03*
X285210Y222250D02*
D03*
X386734Y243803D02*
D03*
X177909Y52224D02*
D03*
X82550Y167087D02*
D03*
Y267886D02*
D03*
X128625Y209550D02*
D03*
X317360Y486227D02*
D03*
X267240Y435427D02*
D03*
X141577Y538237D02*
D03*
X89712Y603250D02*
D03*
X186669Y628536D02*
D03*
X242921Y691036D02*
D03*
X183378Y704850D02*
D03*
X217874Y791926D02*
D03*
X120650Y952323D02*
D03*
X273050Y694327D02*
D03*
X456338Y335629D02*
D03*
X470077Y339197D02*
D03*
X531135Y469900D02*
D03*
X666750Y444780D02*
D03*
X604753Y433264D02*
D03*
X623153Y432272D02*
D03*
X564732Y652823D02*
D03*
Y588400D02*
D03*
X457996Y277205D02*
D03*
X449783Y290691D02*
D03*
X445485Y434296D02*
D03*
X428711D02*
D03*
X329660Y655060D02*
D03*
Y619479D02*
D03*
X768966Y850900D02*
D03*
X767810Y532860D02*
D03*
X763429Y425786D02*
D03*
X273050Y634346D02*
D03*
X622666Y381716D02*
D03*
X735683Y350347D02*
D03*
X436007Y485019D02*
D03*
X632726Y515722D02*
D03*
Y370853D02*
D03*
X937652Y660991D02*
D03*
X626747Y237731D02*
D03*
X221548Y117094D02*
D03*
X221510Y59632D02*
D03*
X279400Y120662D02*
D03*
X127469Y163796D02*
D03*
Y95040D02*
D03*
X373577Y102350D02*
D03*
X521485Y98138D02*
D03*
X324390Y196799D02*
D03*
X324299Y361950D02*
D03*
X116073Y491632D02*
D03*
X115921Y361950D02*
D03*
X186669Y584877D02*
D03*
Y614335D02*
D03*
X449783Y201453D02*
D03*
X457654Y314986D02*
D03*
X631369Y287400D02*
D03*
X729873Y205500D02*
D03*
X730250Y241300D02*
D03*
X939800Y743104D02*
D03*
X850075Y438233D02*
D03*
X850732Y503819D02*
D03*
X858400Y462706D02*
D03*
X858653Y554191D02*
D03*
X762000Y507110D02*
D03*
X736087Y300600D02*
D03*
X699942Y382156D02*
D03*
X699129Y274110D02*
D03*
X714059Y412750D02*
D03*
X628078Y356860D02*
D03*
X520269Y381000D02*
D03*
X444069Y331327D02*
D03*
X469900Y381000D02*
D03*
X444330D02*
D03*
X375369Y397500D02*
D03*
X384059Y781400D02*
D03*
X382965Y527392D02*
D03*
X253773Y665252D02*
D03*
X273050Y674175D02*
D03*
X253773Y649051D02*
D03*
X687368Y657700D02*
D03*
X686910Y623884D02*
D03*
X669809Y570600D02*
D03*
X699942Y578800D02*
D03*
X690676Y547197D02*
D03*
X693643Y561400D02*
D03*
X685827Y588400D02*
D03*
X678552Y552400D02*
D03*
X700370Y532669D02*
D03*
X661131Y524327D02*
D03*
X666131Y542588D02*
D03*
X692870Y482634D02*
D03*
X699165Y489908D02*
D03*
X679600Y461550D02*
D03*
X673100Y431758D02*
D03*
X714059Y392938D02*
D03*
X685369Y387458D02*
D03*
X685750Y532860D02*
D03*
X660400Y382716D02*
D03*
X508204Y431814D02*
D03*
X508396Y452692D02*
D03*
X698500Y431542D02*
D03*
X598850Y478863D02*
D03*
X572359Y487666D02*
D03*
X608669Y488003D02*
D03*
X590550Y432575D02*
D03*
X590428Y488003D02*
D03*
X580819Y478558D02*
D03*
X557530Y486174D02*
D03*
X577960Y431542D02*
D03*
X568474Y433140D02*
D03*
X565888Y477674D02*
D03*
X565150Y445699D02*
D03*
X553517Y451803D02*
D03*
X520269Y445043D02*
D03*
X520700Y431542D02*
D03*
X542910Y463332D02*
D03*
X542138Y485453D02*
D03*
X532703Y487330D02*
D03*
X469469Y462590D02*
D03*
X470077Y432272D02*
D03*
X446338Y469900D02*
D03*
X387890Y432272D02*
D03*
X389627Y489900D02*
D03*
X457654Y543300D02*
D03*
X458338Y527050D02*
D03*
X470077Y534300D02*
D03*
X469900Y502309D02*
D03*
X482313Y524327D02*
D03*
X481738Y477425D02*
D03*
X495889Y516300D02*
D03*
X495300Y451509D02*
D03*
X477072Y561400D02*
D03*
X488124Y570400D02*
D03*
X477878Y578800D02*
D03*
X487878Y603503D02*
D03*
X500000Y578800D02*
D03*
Y628532D02*
D03*
X555287Y597400D02*
D03*
X554428Y683244D02*
D03*
X535200Y705800D02*
D03*
X538678Y606850D02*
D03*
X530019Y615850D02*
D03*
X526297Y730250D02*
D03*
X545669Y756806D02*
D03*
Y628532D02*
D03*
Y317600D02*
D03*
M02*
