G04*
G04 #@! TF.GenerationSoftware,Altium Limited,Altium Designer,23.9.2 (47)*
G04*
G04 Layer_Physical_Order=1*
G04 Layer_Color=255*
%FSLAX44Y44*%
%MOMM*%
G71*
G04*
G04 #@! TF.SameCoordinates,AC20B462-CAF6-4E74-BB64-28AA76468CC9*
G04*
G04*
G04 #@! TF.FilePolarity,Positive*
G04*
G01*
G75*
%ADD24R,1.4082X0.8221*%
G04:AMPARAMS|DCode=25|XSize=1.4082mm|YSize=0.8221mm|CornerRadius=0.4111mm|HoleSize=0mm|Usage=FLASHONLY|Rotation=0.000|XOffset=0mm|YOffset=0mm|HoleType=Round|Shape=RoundedRectangle|*
%AMROUNDEDRECTD25*
21,1,1.4082,0.0000,0,0,0.0*
21,1,0.5861,0.8221,0,0,0.0*
1,1,0.8221,0.2930,0.0000*
1,1,0.8221,-0.2930,0.0000*
1,1,0.8221,-0.2930,0.0000*
1,1,0.8221,0.2930,0.0000*
%
%ADD25ROUNDEDRECTD25*%
%ADD26R,0.6000X1.4500*%
%ADD27R,1.4000X1.5000*%
%ADD28R,3.8000X2.0300*%
%ADD29R,1.3500X1.0000*%
%ADD30R,1.2500X0.8000*%
%ADD31R,1.2000X1.1000*%
%ADD32R,1.0000X1.3500*%
G04:AMPARAMS|DCode=33|XSize=1.3554mm|YSize=0.3408mm|CornerRadius=0.1704mm|HoleSize=0mm|Usage=FLASHONLY|Rotation=0.000|XOffset=0mm|YOffset=0mm|HoleType=Round|Shape=RoundedRectangle|*
%AMROUNDEDRECTD33*
21,1,1.3554,0.0000,0,0,0.0*
21,1,1.0147,0.3408,0,0,0.0*
1,1,0.3408,0.5073,0.0000*
1,1,0.3408,-0.5073,0.0000*
1,1,0.3408,-0.5073,0.0000*
1,1,0.3408,0.5073,0.0000*
%
%ADD33ROUNDEDRECTD33*%
%ADD34R,1.3554X0.3408*%
%ADD35R,1.4500X1.1500*%
%ADD36R,1.3500X0.9500*%
G04:AMPARAMS|DCode=37|XSize=0.45mm|YSize=1.15mm|CornerRadius=0.0495mm|HoleSize=0mm|Usage=FLASHONLY|Rotation=180.000|XOffset=0mm|YOffset=0mm|HoleType=Round|Shape=RoundedRectangle|*
%AMROUNDEDRECTD37*
21,1,0.4500,1.0510,0,0,180.0*
21,1,0.3510,1.1500,0,0,180.0*
1,1,0.0990,-0.1755,0.5255*
1,1,0.0990,0.1755,0.5255*
1,1,0.0990,0.1755,-0.5255*
1,1,0.0990,-0.1755,-0.5255*
%
%ADD37ROUNDEDRECTD37*%
%ADD38R,2.0300X3.8000*%
%ADD39R,1.5500X1.4000*%
%ADD40R,1.2700X0.6100*%
%ADD41R,0.6100X1.2700*%
%ADD42R,1.1000X1.2000*%
%ADD43R,0.8000X1.2500*%
%ADD44R,1.4000X1.5500*%
%ADD45R,1.5000X1.4000*%
%ADD46R,1.3000X0.5207*%
%ADD47R,1.4000X2.1000*%
%ADD48R,1.2000X2.5000*%
%ADD49R,1.7000X2.5000*%
%ADD50R,0.9500X1.3500*%
%ADD51R,1.5562X1.4549*%
%ADD52R,1.1500X1.4500*%
%ADD53R,0.8065X1.3082*%
%ADD54R,1.3082X0.8065*%
G04:AMPARAMS|DCode=55|XSize=0.6mm|YSize=1.45mm|CornerRadius=0.051mm|HoleSize=0mm|Usage=FLASHONLY|Rotation=180.000|XOffset=0mm|YOffset=0mm|HoleType=Round|Shape=RoundedRectangle|*
%AMROUNDEDRECTD55*
21,1,0.6000,1.3480,0,0,180.0*
21,1,0.4980,1.4500,0,0,180.0*
1,1,0.1020,-0.2490,0.6740*
1,1,0.1020,0.2490,0.6740*
1,1,0.1020,0.2490,-0.6740*
1,1,0.1020,-0.2490,-0.6740*
%
%ADD55ROUNDEDRECTD55*%
%ADD56R,1.4000X1.2000*%
%ADD57R,1.8000X1.0000*%
%ADD58R,1.3500X1.5500*%
%ADD59R,1.0160X1.3500*%
%ADD60R,1.0160X1.3500*%
%ADD61R,1.6637X0.5588*%
%ADD62R,1.2000X1.4000*%
%ADD63R,0.5080X1.8000*%
%ADD64R,1.4500X0.6000*%
G04:AMPARAMS|DCode=65|XSize=0.5207mm|YSize=1mm|CornerRadius=0.0443mm|HoleSize=0mm|Usage=FLASHONLY|Rotation=180.000|XOffset=0mm|YOffset=0mm|HoleType=Round|Shape=RoundedRectangle|*
%AMROUNDEDRECTD65*
21,1,0.5207,0.9115,0,0,180.0*
21,1,0.4322,1.0000,0,0,180.0*
1,1,0.0885,-0.2161,0.4557*
1,1,0.0885,0.2161,0.4557*
1,1,0.0885,0.2161,-0.4557*
1,1,0.0885,-0.2161,-0.4557*
%
%ADD65ROUNDEDRECTD65*%
%ADD66R,2.1000X1.4000*%
%ADD67R,0.5207X1.3000*%
G04:AMPARAMS|DCode=68|XSize=1mm|YSize=2.05mm|CornerRadius=0.05mm|HoleSize=0mm|Usage=FLASHONLY|Rotation=270.000|XOffset=0mm|YOffset=0mm|HoleType=Round|Shape=RoundedRectangle|*
%AMROUNDEDRECTD68*
21,1,1.0000,1.9500,0,0,270.0*
21,1,0.9000,2.0500,0,0,270.0*
1,1,0.1000,-0.9750,-0.4500*
1,1,0.1000,-0.9750,0.4500*
1,1,0.1000,0.9750,0.4500*
1,1,0.1000,0.9750,-0.4500*
%
%ADD68ROUNDEDRECTD68*%
G04:AMPARAMS|DCode=69|XSize=3.25mm|YSize=2.05mm|CornerRadius=0.0513mm|HoleSize=0mm|Usage=FLASHONLY|Rotation=270.000|XOffset=0mm|YOffset=0mm|HoleType=Round|Shape=RoundedRectangle|*
%AMROUNDEDRECTD69*
21,1,3.2500,1.9475,0,0,270.0*
21,1,3.1475,2.0500,0,0,270.0*
1,1,0.1025,-0.9738,-1.5738*
1,1,0.1025,-0.9738,1.5738*
1,1,0.1025,0.9738,1.5738*
1,1,0.1025,0.9738,-1.5738*
%
%ADD69ROUNDEDRECTD69*%
%ADD70R,3.2000X1.6000*%
%ADD71O,0.2096X1.9500*%
%ADD72R,1.5500X1.3500*%
%ADD73R,0.6000X1.2000*%
%ADD74R,1.1500X1.0000*%
%ADD75R,1.8000X1.9000*%
%ADD76R,0.2223X1.3500*%
%ADD77R,1.5750X1.9000*%
%ADD78R,1.5750X1.9000*%
%ADD119C,1.4986*%
%ADD124C,1.5240*%
%ADD125R,1.5240X1.5240*%
%ADD135C,0.3000*%
%ADD136C,2.5000*%
%ADD137C,1.6000*%
%ADD138R,1.6000X1.6000*%
%ADD139C,2.0320*%
%ADD140R,1.6000X1.6000*%
%ADD141C,1.3500*%
%ADD142R,1.3500X1.3500*%
%ADD143C,1.5000*%
%ADD144R,1.5000X1.5000*%
%ADD145R,1.5000X1.5000*%
%ADD146O,1.2000X1.9000*%
%ADD147O,0.9652X1.1684*%
%ADD148C,3.0000*%
%ADD149C,0.7620*%
G36*
X914623Y863546D02*
X913799D01*
X913019Y863390D01*
X912357Y862948D01*
X911915Y862287D01*
X911760Y861507D01*
Y855295D01*
X902623D01*
Y826295D01*
X911760D01*
Y800295D01*
X902623D01*
Y771295D01*
X911760D01*
Y768045D01*
X910664Y767045D01*
X910623D01*
Y749545D01*
X914763D01*
Y704918D01*
X907012D01*
Y708100D01*
X898919D01*
Y712902D01*
X900275Y714259D01*
X901160Y716394D01*
X901309Y716672D01*
X902542Y716762D01*
X902855Y716849D01*
X903173Y716912D01*
X903236Y716954D01*
X903309Y716974D01*
X903565Y717174D01*
X903835Y717354D01*
X903876Y717417D01*
X903936Y717464D01*
X904096Y717746D01*
X904277Y718016D01*
X904291Y718090D01*
X904329Y718156D01*
X904368Y718478D01*
X904432Y718796D01*
Y745227D01*
X904277Y746008D01*
X903835Y746669D01*
X903173Y747111D01*
X902393Y747266D01*
X882653D01*
Y756477D01*
X881499D01*
Y763424D01*
X881500Y763425D01*
X883134Y765059D01*
X884019Y767194D01*
Y769506D01*
X883134Y771641D01*
X881500Y773276D01*
X879365Y774160D01*
X877053D01*
X874918Y773276D01*
X873283Y771641D01*
X872399Y769506D01*
Y767194D01*
X873283Y765059D01*
X874362Y763980D01*
Y756477D01*
X872653D01*
Y747266D01*
X864653D01*
Y757477D01*
X860653D01*
Y747227D01*
X856653D01*
Y757477D01*
X852653D01*
Y747266D01*
X848856D01*
X847856Y748363D01*
Y754979D01*
X823556D01*
Y712979D01*
X847856D01*
Y719844D01*
X848856Y720940D01*
X862152D01*
X863153Y719844D01*
Y714477D01*
X865162D01*
X866257Y713477D01*
Y707026D01*
X866257Y707025D01*
X865141Y706127D01*
X856220D01*
Y693674D01*
X856204Y693658D01*
X847834D01*
Y697597D01*
X848213Y697754D01*
X849848Y699388D01*
X850732Y701524D01*
Y703835D01*
X849848Y705970D01*
X848213Y707605D01*
X846078Y708489D01*
X843767D01*
X841631Y707605D01*
X839997Y705970D01*
X839112Y703835D01*
Y701524D01*
X839997Y699388D01*
X840697Y698688D01*
Y693658D01*
X833822D01*
Y704590D01*
X812822D01*
Y699313D01*
X801314D01*
Y708244D01*
X783314D01*
Y683244D01*
X801314D01*
Y692176D01*
X812822D01*
Y676116D01*
X812822Y675590D01*
X811984Y674667D01*
X811506Y674347D01*
X811358Y674199D01*
X810916Y673538D01*
X810761Y672757D01*
Y665590D01*
X810916Y664809D01*
X811358Y664148D01*
X812020Y663706D01*
X812800Y663551D01*
X812822D01*
Y635590D01*
X833822D01*
Y646955D01*
X834822Y648051D01*
X840684D01*
Y585534D01*
X840839Y584754D01*
X841282Y584092D01*
X841943Y583650D01*
X842723Y583495D01*
X914763Y583495D01*
Y458992D01*
X906513D01*
Y440492D01*
X910694D01*
Y437581D01*
X906763D01*
X905763Y438233D01*
Y438581D01*
X898762D01*
Y428581D01*
X894762D01*
Y438581D01*
X887888D01*
X887763Y438581D01*
X886618Y438885D01*
Y441836D01*
X865982D01*
Y441206D01*
X855133D01*
X855001Y441524D01*
X853366Y443158D01*
X851231Y444043D01*
X848920D01*
X846784Y443158D01*
X845150Y441524D01*
X844265Y439389D01*
Y437077D01*
X845150Y434942D01*
X846784Y433307D01*
X848920Y432423D01*
X851231D01*
X853366Y433307D01*
X854128Y434069D01*
X865982D01*
Y432248D01*
X886493D01*
X886618Y432248D01*
X887763Y431944D01*
Y431346D01*
X887618Y430136D01*
X886493Y430136D01*
X878300D01*
Y424342D01*
X876300D01*
Y422342D01*
X864982D01*
Y418548D01*
X872234D01*
X873470Y418466D01*
X873470Y417278D01*
Y410466D01*
X882470D01*
Y408466D01*
X884470D01*
Y398466D01*
X891470D01*
Y398814D01*
X892470Y399466D01*
X892740Y399466D01*
X908470D01*
Y404533D01*
X914763D01*
Y266700D01*
X736087D01*
Y294790D01*
X737243D01*
X739378Y295675D01*
X741013Y297309D01*
X741897Y299444D01*
Y301756D01*
X742499Y302656D01*
X750157D01*
Y306450D01*
X740839D01*
Y305724D01*
X739666Y305238D01*
X739378Y305525D01*
X737243Y306410D01*
X736087D01*
Y329696D01*
X741839D01*
Y329056D01*
X762476D01*
Y329696D01*
X765051D01*
Y324719D01*
X762476D01*
Y325944D01*
X741839D01*
Y316356D01*
X762476D01*
Y317582D01*
X765672D01*
Y310450D01*
X774672D01*
Y306450D01*
X765672D01*
Y299400D01*
X764000D01*
Y289400D01*
Y279400D01*
X771000D01*
Y279748D01*
X772000Y280400D01*
X788000D01*
Y293353D01*
X790695Y296048D01*
X791469Y297206D01*
X791740Y298572D01*
Y299450D01*
X800672D01*
Y304970D01*
X804399D01*
X805756Y303613D01*
X807891Y302729D01*
X810203D01*
X812338Y303613D01*
X813973Y305248D01*
X814857Y307383D01*
Y309694D01*
X813973Y311830D01*
X812338Y313464D01*
X810203Y314349D01*
X807891D01*
X805756Y313464D01*
X804399Y312107D01*
X800672D01*
Y317450D01*
X801887Y317582D01*
X849422D01*
X851138Y315865D01*
X850088Y314047D01*
X849100Y310359D01*
Y306541D01*
X850088Y302853D01*
X851997Y299547D01*
X854697Y296847D01*
X858003Y294938D01*
X861691Y293950D01*
X865509D01*
X869197Y294938D01*
X872503Y296847D01*
X875203Y299547D01*
X877112Y302853D01*
X878100Y306541D01*
Y310359D01*
X877112Y314047D01*
X875203Y317353D01*
X872503Y320053D01*
X869197Y321962D01*
X865509Y322950D01*
X861691D01*
X858003Y321962D01*
X856185Y320912D01*
X853423Y323673D01*
X852266Y324447D01*
X850900Y324719D01*
X798051D01*
Y329696D01*
X804403D01*
X805354Y328745D01*
X807489Y327860D01*
X809801D01*
X811936Y328745D01*
X812887Y329696D01*
X839644D01*
X839618Y342082D01*
X840515Y342981D01*
X850900D01*
X852266Y343253D01*
X853423Y344027D01*
X856185Y346788D01*
X858003Y345738D01*
X861691Y344750D01*
X865509D01*
X869197Y345738D01*
X872503Y347647D01*
X875203Y350347D01*
X877112Y353653D01*
X878100Y357341D01*
Y361159D01*
X877112Y364847D01*
X875203Y368153D01*
X872503Y370853D01*
X869197Y372762D01*
X865509Y373750D01*
X861691D01*
X858003Y372762D01*
X854697Y370853D01*
X851997Y368153D01*
X850088Y364847D01*
X849100Y361159D01*
Y357341D01*
X850088Y353653D01*
X851138Y351835D01*
X849422Y350119D01*
X839601D01*
X839503Y396485D01*
X840400Y397384D01*
X846180D01*
Y402831D01*
X852596D01*
X853953Y401474D01*
X856089Y400590D01*
X858400D01*
X860535Y401474D01*
X862170Y403109D01*
X863054Y405244D01*
Y407556D01*
X862170Y409691D01*
X860535Y411325D01*
X858400Y412210D01*
X856089D01*
X853953Y411325D01*
X852596Y409969D01*
X846180D01*
Y414884D01*
X839464D01*
X839180Y548831D01*
X825322D01*
Y608100D01*
X816167D01*
X816091Y608176D01*
X813956Y609060D01*
X811644D01*
X809509Y608176D01*
X809434Y608100D01*
X801338D01*
Y673063D01*
X736592Y672905D01*
X428755D01*
X427669Y673350D01*
X427669Y674175D01*
Y679676D01*
X549780D01*
X551137Y678319D01*
X553273Y677434D01*
X555584D01*
X557719Y678319D01*
X559354Y679953D01*
X560238Y682088D01*
Y684400D01*
X559354Y686535D01*
X557719Y688169D01*
X555584Y689054D01*
X553273D01*
X551137Y688169D01*
X549780Y686813D01*
X427669D01*
Y692850D01*
X409939D01*
X409669Y692850D01*
X408669D01*
X408399Y692850D01*
X390669D01*
Y687896D01*
X276024D01*
X275772Y689166D01*
X276341Y689402D01*
X277976Y691036D01*
X278860Y693171D01*
Y695483D01*
X277976Y697618D01*
X276341Y699253D01*
X274206Y700137D01*
X271894D01*
X269759Y699253D01*
X268402Y697896D01*
X251446D01*
X248283Y701058D01*
X248769Y702232D01*
X390669D01*
Y696050D01*
X408399D01*
X408669Y696050D01*
X409669D01*
X409939Y696050D01*
X427669D01*
Y702232D01*
X530552D01*
X531909Y700875D01*
X534044Y699990D01*
X536356D01*
X538491Y700875D01*
X540126Y702509D01*
X541010Y704644D01*
Y706956D01*
X540126Y709091D01*
X538491Y710725D01*
X536356Y711610D01*
X534044D01*
X531909Y710725D01*
X530552Y709369D01*
X427669D01*
Y715550D01*
X409939D01*
X409669Y715550D01*
X408669D01*
X408399Y715550D01*
X390669D01*
Y709369D01*
X236257D01*
X235275Y710350D01*
X234117Y711124D01*
X232752Y711396D01*
X221790D01*
X220424Y711124D01*
X219266Y710350D01*
X218285Y709369D01*
X213834D01*
X212468Y709097D01*
X211310Y708323D01*
X205997Y703010D01*
X205224Y701853D01*
X205093Y701192D01*
X205042Y701182D01*
X204217Y700631D01*
X203666Y699806D01*
X203472Y698832D01*
Y692745D01*
X203452Y692646D01*
Y686035D01*
X199146Y681729D01*
X198629Y680956D01*
X187669D01*
Y672905D01*
X129697D01*
Y679622D01*
X129542Y680403D01*
X129100Y681064D01*
X128438Y681506D01*
X127658Y681662D01*
X125211D01*
X124431Y681506D01*
X123443Y682374D01*
X122314Y684330D01*
X120547Y686097D01*
X118382Y687347D01*
X115968Y687994D01*
X113468D01*
X111054Y687347D01*
X108889Y686097D01*
X107122Y684330D01*
X105993Y682374D01*
X105005Y681506D01*
X104225Y681662D01*
X73769D01*
X72988Y681506D01*
X72327Y681064D01*
X71885Y680403D01*
X71729Y679622D01*
Y672905D01*
X64597D01*
Y609600D01*
X25533D01*
X25400Y609734D01*
Y736077D01*
X169851D01*
Y723900D01*
X174871D01*
Y713828D01*
X179809D01*
Y709498D01*
X178453Y708141D01*
X177568Y706006D01*
Y703694D01*
X178453Y701559D01*
X180087Y699924D01*
X182222Y699040D01*
X184534D01*
X186669Y699924D01*
X188304Y701559D01*
X189188Y703694D01*
Y706006D01*
X188304Y708141D01*
X186947Y709498D01*
Y713828D01*
X192371D01*
Y723900D01*
X214974D01*
Y728278D01*
X216026D01*
X216999Y728472D01*
X217521Y728820D01*
X218042Y728472D01*
X219016Y728278D01*
X222526D01*
X223499Y728472D01*
X224021Y728820D01*
X224542Y728472D01*
X225516Y728278D01*
X229026D01*
X229999Y728472D01*
X230825Y729023D01*
X231376Y729849D01*
X231569Y730822D01*
Y736077D01*
X390669D01*
Y721450D01*
X408669D01*
Y721450D01*
X409669D01*
Y721450D01*
X427669D01*
Y726681D01*
X521649D01*
X523006Y725324D01*
X525141Y724440D01*
X527453D01*
X529588Y725324D01*
X531222Y726959D01*
X532107Y729094D01*
Y731406D01*
X531222Y733541D01*
X529956Y734807D01*
X530477Y736077D01*
X690618D01*
X691139Y734807D01*
X689873Y733541D01*
X688988Y731406D01*
Y729094D01*
X689873Y726959D01*
X691507Y725324D01*
X693643Y724440D01*
X695954D01*
X697230Y724969D01*
X698500Y724120D01*
Y723104D01*
X703587D01*
Y718376D01*
X715540D01*
X731695Y702221D01*
X732853Y701447D01*
X734219Y701176D01*
X738314D01*
Y683244D01*
X756314D01*
Y708244D01*
X742159D01*
X741814Y708313D01*
X735697D01*
X722079Y721930D01*
X722565Y723104D01*
X727587D01*
Y718376D01*
X744587D01*
Y719411D01*
X748260D01*
Y716104D01*
X765760D01*
Y723104D01*
X801338D01*
Y762579D01*
X787016D01*
Y775070D01*
X768016D01*
Y762579D01*
X765847D01*
Y775319D01*
X765847Y775589D01*
X766499Y776589D01*
X766847D01*
Y776826D01*
X768016Y777070D01*
X768117Y777070D01*
X787016D01*
Y781501D01*
X791645D01*
X793011Y781773D01*
X793247Y781931D01*
X794070Y781590D01*
X796381D01*
X798516Y782475D01*
X800151Y784109D01*
X801035Y786244D01*
Y788556D01*
X800151Y790691D01*
X798516Y792326D01*
X796381Y793210D01*
X794070D01*
X791934Y792326D01*
X790300Y790691D01*
X789450Y788638D01*
X787016D01*
Y795070D01*
X768117D01*
X768016Y795070D01*
X766847Y795313D01*
Y796589D01*
X758347D01*
Y786589D01*
X756347D01*
Y784589D01*
X745847D01*
Y776589D01*
X746195D01*
X746847Y775589D01*
X746847Y775319D01*
Y770205D01*
X745847Y769109D01*
X742087D01*
Y778579D01*
X740356D01*
Y787729D01*
X742787D01*
Y804229D01*
X736087D01*
Y847331D01*
X764318D01*
X765675Y845975D01*
X767367Y845273D01*
X767115Y844003D01*
X761620D01*
Y824003D01*
X772770D01*
Y844003D01*
X770816D01*
X770564Y845273D01*
X772257Y845975D01*
X773891Y847609D01*
X774776Y849744D01*
Y852056D01*
X773891Y854191D01*
X772257Y855826D01*
X770121Y856710D01*
X767810D01*
X765675Y855826D01*
X764318Y854469D01*
X736087D01*
Y876300D01*
X784041D01*
X785452Y875485D01*
X788545Y874657D01*
X791747D01*
X794839Y875485D01*
X796251Y876300D01*
X914623D01*
Y863546D01*
D02*
G37*
G36*
X779516Y759070D02*
X787266D01*
X787379Y757847D01*
Y753778D01*
X745914D01*
Y748717D01*
X745587Y747583D01*
X738087D01*
Y741980D01*
X734087D01*
Y747583D01*
X733268D01*
Y762579D01*
X742087D01*
Y767070D01*
X745847D01*
Y756589D01*
X754347D01*
Y766589D01*
X758347D01*
Y756589D01*
X766847D01*
Y758223D01*
X767766Y759070D01*
X775516D01*
Y767070D01*
X779516D01*
Y759070D01*
D02*
G37*
G36*
X937623Y861507D02*
X941947D01*
Y856295D01*
X937623D01*
Y840795D01*
Y825295D01*
X941947D01*
Y801295D01*
X937623D01*
Y785795D01*
Y770295D01*
X941947D01*
Y767045D01*
X928623D01*
Y757589D01*
X925623D01*
Y768045D01*
X919623D01*
Y758295D01*
X915623D01*
Y768045D01*
X913799D01*
Y771295D01*
X918623D01*
Y800295D01*
X913799D01*
Y826295D01*
X918623D01*
Y855295D01*
X913799D01*
Y861507D01*
X933623D01*
Y874656D01*
X937623D01*
Y861507D01*
D02*
G37*
G36*
X902393Y718796D02*
X901160Y718706D01*
X900275Y720841D01*
X898641Y722476D01*
X896506Y723360D01*
X894194D01*
X892059Y722476D01*
X890424Y720841D01*
X889540Y718706D01*
Y716394D01*
X890424Y714259D01*
X891781Y712902D01*
Y708100D01*
X889512D01*
Y694600D01*
X902393D01*
Y693100D01*
X889512D01*
Y679600D01*
X902393D01*
Y671446D01*
X901903D01*
Y661127D01*
X897903D01*
Y671446D01*
X897413D01*
X896043Y671174D01*
X894882Y670398D01*
X894106Y669237D01*
X893834Y667867D01*
Y666122D01*
X892252D01*
Y667867D01*
X892057Y668847D01*
X891502Y669677D01*
X890672Y670232D01*
X889693Y670426D01*
X885203D01*
Y684350D01*
X868297D01*
Y687729D01*
X868503Y687936D01*
X870116Y687786D01*
X870220Y687627D01*
X870371Y687627D01*
X875970D01*
Y697377D01*
Y707127D01*
X870220Y707127D01*
X870116Y706969D01*
X868503Y706819D01*
X868297Y707025D01*
Y713477D01*
X874153D01*
Y721727D01*
X868152D01*
Y723727D01*
X866152D01*
Y733977D01*
X862153D01*
Y722979D01*
X848856D01*
Y731979D01*
X835705D01*
Y735978D01*
X848856D01*
Y745227D01*
X853653D01*
Y737977D01*
X863653D01*
Y745227D01*
X872653D01*
Y737977D01*
X882653D01*
Y745227D01*
X902393D01*
Y718796D01*
D02*
G37*
G36*
X50000Y996666D02*
X950000D01*
X950140Y996694D01*
X956096Y996303D01*
X962088Y995112D01*
X967872Y993148D01*
X973352Y990446D01*
X978431Y987052D01*
X983024Y983024D01*
X987052Y978431D01*
X990446Y973352D01*
X993148Y967872D01*
X995112Y962088D01*
X996303Y956096D01*
X996694Y950140D01*
X996666Y950000D01*
Y734201D01*
X996666Y732931D01*
X939800D01*
X939020Y732776D01*
X938358Y732334D01*
X937916Y731672D01*
X937761Y730892D01*
Y695139D01*
X935833D01*
X934833Y696235D01*
Y708100D01*
X917333D01*
X916802Y709150D01*
Y749545D01*
X924623D01*
Y754454D01*
X925623Y755550D01*
X928623D01*
Y749545D01*
X932054D01*
Y747281D01*
X932326Y745915D01*
X933100Y744758D01*
X933990Y743867D01*
Y741948D01*
X934874Y739813D01*
X936509Y738178D01*
X938644Y737294D01*
X940956D01*
X943091Y738178D01*
X944725Y739813D01*
X945610Y741948D01*
Y744259D01*
X944725Y746395D01*
X943091Y748029D01*
X942497Y748275D01*
X942623Y749545D01*
X942623D01*
Y765140D01*
X942728Y765161D01*
X943389Y765603D01*
X943831Y766265D01*
X943987Y767045D01*
Y770295D01*
X943831Y771076D01*
X943623Y771388D01*
Y800203D01*
X943831Y800515D01*
X943987Y801295D01*
Y825295D01*
X943831Y826076D01*
X943623Y826388D01*
Y855203D01*
X943831Y855515D01*
X943987Y856295D01*
Y861507D01*
X945083Y862506D01*
X956623D01*
Y886806D01*
X914623D01*
Y878339D01*
X800486D01*
X800026Y879609D01*
X801477Y882123D01*
X802306Y885216D01*
Y888417D01*
X801477Y891510D01*
X799876Y894283D01*
X797612Y896547D01*
X794839Y898148D01*
X791747Y898977D01*
X788545D01*
X785452Y898148D01*
X782679Y896547D01*
X780415Y894283D01*
X778814Y891510D01*
X777986Y888417D01*
Y885216D01*
X778814Y882123D01*
X780266Y879609D01*
X779805Y878339D01*
X736087D01*
X735307Y878184D01*
X734645Y877742D01*
X734203Y877080D01*
X734048Y876300D01*
Y854469D01*
X574200D01*
X572834Y854197D01*
X571677Y853423D01*
X528115Y809862D01*
X526297Y810912D01*
X522609Y811900D01*
X518791D01*
X515103Y810912D01*
X511797Y809003D01*
X509097Y806303D01*
X507188Y802997D01*
X506200Y799309D01*
Y795491D01*
X507188Y791803D01*
X509097Y788497D01*
X511355Y786239D01*
X510829Y784969D01*
X388707D01*
X387350Y786326D01*
X385215Y787210D01*
X382903D01*
X380768Y786326D01*
X379133Y784691D01*
X378249Y782556D01*
Y780244D01*
X379133Y778109D01*
X380768Y776475D01*
X382903Y775590D01*
X385215D01*
X387350Y776475D01*
X388707Y777831D01*
X531810D01*
X533175Y778103D01*
X534333Y778877D01*
X549288Y793831D01*
X557445D01*
X557988Y791803D01*
X559897Y788497D01*
X562597Y785797D01*
X565903Y783888D01*
X569591Y782900D01*
X573409D01*
X577097Y783888D01*
X580403Y785797D01*
X583103Y788497D01*
X585012Y791803D01*
X586000Y795491D01*
Y799309D01*
X585012Y802997D01*
X583103Y806303D01*
X580403Y809003D01*
X577097Y810912D01*
X573409Y811900D01*
X569591D01*
X565903Y810912D01*
X562597Y809003D01*
X559897Y806303D01*
X557988Y802997D01*
X557445Y800969D01*
X547810D01*
X546444Y800697D01*
X545286Y799923D01*
X533646Y788283D01*
X532630Y789063D01*
X534212Y791803D01*
X535200Y795491D01*
Y799309D01*
X534212Y802997D01*
X533162Y804815D01*
X575678Y847331D01*
X734048D01*
Y804229D01*
X730787D01*
Y787729D01*
X733219D01*
Y778579D01*
X727087D01*
Y762579D01*
X731228D01*
Y747583D01*
X730132Y746583D01*
X727587D01*
Y737376D01*
X744587D01*
Y745194D01*
X745815Y745556D01*
X745990Y745612D01*
X746140Y745609D01*
X747130Y744969D01*
X747147Y744952D01*
X747260Y744785D01*
Y743104D01*
X755010D01*
Y749104D01*
X747953D01*
Y751739D01*
X787379D01*
X788159Y751895D01*
X788821Y752337D01*
X789263Y752998D01*
X789418Y753778D01*
Y757847D01*
X789400Y757940D01*
X789410Y758034D01*
X789297Y759257D01*
X789293Y759270D01*
X789698Y760093D01*
X789946Y760369D01*
X790209Y760540D01*
X799298D01*
Y725143D01*
X765760D01*
Y730104D01*
X748260D01*
Y726548D01*
X744587D01*
Y727583D01*
X727587D01*
Y725143D01*
X722565D01*
X721857Y725002D01*
X721764Y725001D01*
X720587Y725715D01*
Y727583D01*
X720587D01*
Y727876D01*
X720587D01*
Y736106D01*
X720587Y737083D01*
X720587Y738353D01*
Y746583D01*
X715656D01*
Y762579D01*
X721087D01*
Y778579D01*
X706087D01*
Y762579D01*
X708519D01*
Y746583D01*
X703587D01*
X703587Y736946D01*
X702689Y736048D01*
X698278D01*
X696912Y735776D01*
X696807Y735706D01*
X695954Y736060D01*
X693643D01*
X692734Y736438D01*
X692502Y736858D01*
X692281Y737188D01*
X692065Y737514D01*
X692062Y737516D01*
X692060Y737519D01*
X691733Y737737D01*
X691405Y737958D01*
X691401Y737959D01*
X691398Y737961D01*
X691015Y738037D01*
X690625Y738116D01*
X690621Y738116D01*
X690618Y738116D01*
X530477D01*
X530473Y738116D01*
X530470Y738116D01*
X530083Y738038D01*
X529697Y737961D01*
X529694Y737959D01*
X529690Y737958D01*
X529362Y737737D01*
X529035Y737519D01*
X529033Y737516D01*
X529030Y737514D01*
X528814Y737188D01*
X528593Y736858D01*
X528361Y736438D01*
X527452Y736060D01*
X525141D01*
X523006Y735175D01*
X521649Y733819D01*
X427669D01*
Y740950D01*
X409669D01*
Y740950D01*
X408669D01*
Y740950D01*
X390669D01*
Y738116D01*
X231569D01*
Y741332D01*
X231376Y742306D01*
X230839Y743109D01*
Y745086D01*
X234555Y748802D01*
X247008D01*
Y762802D01*
X229508D01*
Y753848D01*
X227744Y752085D01*
X226571Y752571D01*
Y762830D01*
X209071D01*
Y753622D01*
X207961Y753148D01*
X207071Y753883D01*
Y762830D01*
X189571D01*
Y748830D01*
X202024D01*
X204888Y745966D01*
X204692Y744852D01*
X204521Y744537D01*
X203496Y743852D01*
X202724Y742696D01*
X202452Y741332D01*
Y738077D01*
X207771D01*
Y736077D01*
X209771D01*
Y727307D01*
X210889Y727530D01*
X211665Y728048D01*
X212863Y727552D01*
X212935Y727486D01*
Y725939D01*
X193269D01*
X193083Y726124D01*
X193244Y727745D01*
X193371Y727828D01*
X193371Y727980D01*
Y733578D01*
X183621D01*
X173871D01*
X173871Y727828D01*
X173997Y727745D01*
X174158Y726124D01*
X173973Y725939D01*
X171890D01*
Y736077D01*
X171735Y736858D01*
X171293Y737519D01*
X170631Y737961D01*
X169851Y738116D01*
X25400D01*
X24620Y737961D01*
X23958Y737519D01*
X23516Y736858D01*
X23361Y736077D01*
Y609734D01*
X23516Y608953D01*
X23958Y608292D01*
X23958Y608292D01*
X24091Y608158D01*
X24753Y607716D01*
X25533Y607561D01*
X64597D01*
X65377Y607716D01*
X66039Y608158D01*
X66481Y608820D01*
X66636Y609600D01*
Y620731D01*
X67906Y621116D01*
X68896Y619636D01*
X70917Y618285D01*
X71685Y618132D01*
X71885Y617650D01*
X71729Y616869D01*
Y613428D01*
X71200Y612377D01*
X71200Y612377D01*
X71200Y612377D01*
Y593877D01*
X71200D01*
X71729Y592827D01*
Y591377D01*
X71863Y590705D01*
X71885Y590597D01*
X71965Y590425D01*
X72028Y589630D01*
X71673Y589091D01*
X70861Y588877D01*
X70454Y588877D01*
X70453Y588877D01*
X70451Y588877D01*
X61700D01*
Y570377D01*
X63131D01*
Y566222D01*
X55769D01*
Y547222D01*
X66628D01*
Y545237D01*
X64947D01*
Y531237D01*
X82447D01*
Y545237D01*
X73765D01*
Y547222D01*
X73769D01*
Y566222D01*
X70269D01*
Y570377D01*
X71700D01*
Y587628D01*
X71700Y588043D01*
X71894Y589009D01*
X72609Y589358D01*
X73094Y589472D01*
X73769Y589338D01*
X79621D01*
X80700Y588877D01*
Y570377D01*
X90700D01*
Y574809D01*
X96221D01*
Y569627D01*
X110221D01*
Y587127D01*
X106689D01*
Y588912D01*
X110121D01*
Y606412D01*
X96121D01*
Y606279D01*
X94851Y606026D01*
X94637Y606541D01*
X93003Y608176D01*
X90868Y609060D01*
X90547D01*
Y663417D01*
X111632D01*
X111799Y662147D01*
X111054Y661947D01*
X108889Y660697D01*
X107122Y658930D01*
X105872Y656765D01*
X105225Y654351D01*
Y651851D01*
X105872Y649437D01*
X107122Y647272D01*
X108889Y645505D01*
X111054Y644255D01*
X113468Y643608D01*
X115968D01*
X118382Y644255D01*
X120547Y645505D01*
X122314Y647272D01*
X123564Y649437D01*
X124211Y651851D01*
Y654351D01*
X123564Y656765D01*
X122314Y658930D01*
X120547Y660697D01*
X118382Y661947D01*
X117637Y662147D01*
X117804Y663417D01*
X127658D01*
X128438Y663572D01*
X129100Y664014D01*
X129542Y664675D01*
X129697Y665456D01*
Y670866D01*
X185278D01*
X185764Y669693D01*
X181323Y665252D01*
X180053Y665603D01*
Y669185D01*
X161553D01*
Y653685D01*
X180053D01*
Y657867D01*
X182553D01*
X183919Y658138D01*
X185077Y658912D01*
X185496Y659331D01*
X186669Y658845D01*
Y657956D01*
X194419D01*
Y663956D01*
X191780D01*
X191294Y665129D01*
X193120Y666956D01*
X205169D01*
Y677111D01*
X205238Y677456D01*
Y677728D01*
X207659Y680148D01*
X208929Y679622D01*
Y666956D01*
X221382D01*
X223209Y665129D01*
X222722Y663956D01*
X219679D01*
Y655956D01*
Y647956D01*
X227428D01*
Y647956D01*
X228019D01*
Y647956D01*
X235769D01*
Y655956D01*
X237769D01*
Y657956D01*
X247519D01*
Y661887D01*
X248921D01*
X250482Y660327D01*
X252617Y659442D01*
X254928D01*
X257064Y660327D01*
X258698Y661961D01*
X259583Y664096D01*
Y666408D01*
X258698Y668543D01*
X257905Y669337D01*
X258431Y670607D01*
X268402D01*
X269759Y669250D01*
X271894Y668365D01*
X274206D01*
X276341Y669250D01*
X277976Y670884D01*
X278860Y673020D01*
Y675331D01*
X277976Y677466D01*
X276341Y679101D01*
X275405Y679489D01*
X275657Y680759D01*
X390669D01*
Y673350D01*
X408669D01*
Y673350D01*
X409669D01*
Y673350D01*
X424431D01*
X425630Y673342D01*
X425708Y672954D01*
X425785Y672570D01*
X425787Y672566D01*
X425788Y672562D01*
X426008Y672235D01*
X426227Y671908D01*
X426230Y671906D01*
X426232Y671903D01*
X426559Y671686D01*
X426889Y671466D01*
X426892Y671465D01*
X426896Y671463D01*
X427981Y671018D01*
X428368Y670943D01*
X428755Y670866D01*
X736592D01*
X736595Y670867D01*
X736597Y670866D01*
X798399Y671017D01*
X799298Y670120D01*
Y617244D01*
X783314D01*
Y592244D01*
X801314D01*
Y599681D01*
X808152D01*
X809509Y598325D01*
X811644Y597440D01*
X813956D01*
X816091Y598325D01*
X817726Y599959D01*
X818610Y602094D01*
Y604406D01*
X818362Y605005D01*
X819067Y606061D01*
X823283D01*
Y548831D01*
X823438Y548051D01*
X823880Y547390D01*
X824542Y546948D01*
X825322Y546792D01*
X837145D01*
X837423Y415783D01*
X836525Y414884D01*
X832180D01*
Y397384D01*
X836347D01*
X836581Y397284D01*
X837453Y396492D01*
X837463Y396481D01*
X837560Y351018D01*
X836663Y350119D01*
X762476D01*
Y351344D01*
X742666D01*
X741753Y351467D01*
X741150Y352329D01*
X740692Y353436D01*
X744915Y357660D01*
X757869D01*
Y377160D01*
X740139D01*
X739869Y377160D01*
Y377160D01*
X738869D01*
Y377160D01*
X720869D01*
Y364729D01*
X707940D01*
X707454Y365902D01*
X715644Y374092D01*
X716418Y375250D01*
X716690Y376616D01*
Y380184D01*
X719696Y383190D01*
X720869Y382704D01*
Y378870D01*
X738599D01*
X738869Y378870D01*
X739869D01*
X740139Y378870D01*
X757869D01*
Y398370D01*
X740139D01*
X739869Y398370D01*
X738869D01*
X738599Y398370D01*
X720869D01*
Y394999D01*
X719599Y394747D01*
X718985Y396229D01*
X717350Y397864D01*
X715215Y398748D01*
X712904D01*
X710768Y397864D01*
X709134Y396229D01*
X709089Y396121D01*
X707819Y396373D01*
Y406230D01*
X707819Y406500D01*
Y407500D01*
X707819Y407770D01*
Y409315D01*
X709089Y409567D01*
X709134Y409459D01*
X710768Y407825D01*
X712904Y406940D01*
X715215D01*
X717350Y407825D01*
X718707Y409181D01*
X720869D01*
Y402560D01*
X738599D01*
X738869Y402560D01*
X739869D01*
X740139Y402560D01*
X757869D01*
Y421334D01*
X759139Y421860D01*
X760138Y420861D01*
X762273Y419976D01*
X764584D01*
X765549Y419001D01*
X765731Y418084D01*
X766505Y416927D01*
X767838Y415593D01*
Y396340D01*
X809838D01*
Y418548D01*
X817785D01*
Y422342D01*
X808466D01*
Y420640D01*
X773972D01*
X773446Y421910D01*
X774690Y423154D01*
X787143D01*
Y442654D01*
X769643D01*
Y429284D01*
X768373Y429032D01*
X768354Y429077D01*
X766720Y430712D01*
X764584Y431596D01*
X762273D01*
X760138Y430712D01*
X759143Y429717D01*
X757873Y430243D01*
Y447706D01*
X740143D01*
X739873Y447706D01*
X738873D01*
X738603Y447706D01*
X720873D01*
Y441525D01*
X703902D01*
X698124Y447303D01*
X696966Y448076D01*
X695601Y448348D01*
X671398D01*
X670041Y449705D01*
X667906Y450589D01*
X665594D01*
X663459Y449705D01*
X661824Y448071D01*
X660940Y445935D01*
Y443624D01*
X661824Y441488D01*
X663459Y439854D01*
X665594Y438969D01*
X667906D01*
X670041Y439854D01*
X671398Y441211D01*
X694122D01*
X696823Y438511D01*
X696525Y437012D01*
X695209Y436468D01*
X693575Y434833D01*
X692690Y432698D01*
Y430386D01*
X693575Y428251D01*
X694931Y426894D01*
Y425500D01*
X688319D01*
Y407770D01*
X688319Y407500D01*
Y406500D01*
X688319Y406230D01*
Y393668D01*
X687263Y392962D01*
X686524Y393268D01*
X684213D01*
X683475Y392962D01*
X682419Y393668D01*
Y406230D01*
X682419Y406500D01*
Y407500D01*
X682419Y407770D01*
Y425500D01*
X676669D01*
Y427110D01*
X678026Y428467D01*
X678910Y430602D01*
Y432913D01*
X678026Y435049D01*
X676391Y436683D01*
X674256Y437568D01*
X671944D01*
X669809Y436683D01*
X668175Y435049D01*
X667290Y432913D01*
Y430602D01*
X668175Y428467D01*
X669531Y427110D01*
Y425500D01*
X662919D01*
Y407770D01*
X662919Y407500D01*
Y406500D01*
X662919Y406230D01*
Y389336D01*
X661655Y388485D01*
X661556Y388526D01*
X659244D01*
X658104Y388054D01*
X657019Y388979D01*
Y406230D01*
X657019Y406500D01*
Y407500D01*
X657019Y407770D01*
Y425500D01*
X642566D01*
X633986Y434079D01*
X632828Y434853D01*
X631463Y435125D01*
X628260D01*
X628078Y435563D01*
X626444Y437197D01*
X624309Y438082D01*
X621997D01*
X619862Y437197D01*
X618227Y435563D01*
X617343Y433427D01*
Y431116D01*
X618227Y428980D01*
X619862Y427346D01*
X621253Y426770D01*
X621000Y425500D01*
X618599D01*
X610563Y433536D01*
Y434420D01*
X609678Y436555D01*
X608044Y438190D01*
X605908Y439074D01*
X603597D01*
X601462Y438190D01*
X599827Y436555D01*
X598943Y434420D01*
Y432109D01*
X599827Y429973D01*
X601462Y428339D01*
X603597Y427454D01*
X605908D01*
X606363Y427643D01*
X613552Y420453D01*
Y407770D01*
X613552Y407500D01*
Y406500D01*
X613552Y406230D01*
Y388500D01*
X619097D01*
Y386364D01*
X617740Y385007D01*
X616856Y382871D01*
Y380560D01*
X617740Y378425D01*
X619375Y376790D01*
X620148Y376470D01*
X619895Y375200D01*
X606369D01*
Y356200D01*
X611300D01*
Y348600D01*
X610329D01*
Y329696D01*
X609909Y328600D01*
X609059Y328600D01*
X600829Y328600D01*
X600409Y329696D01*
Y348600D01*
X591329D01*
Y340353D01*
X586250D01*
X584893Y341710D01*
X582758Y342594D01*
X580446D01*
X578311Y341710D01*
X576676Y340075D01*
X575792Y337940D01*
Y335629D01*
X576676Y333493D01*
X578311Y331859D01*
X580446Y330974D01*
X582758D01*
X584893Y331859D01*
X586250Y333216D01*
X591329D01*
Y326600D01*
X600409Y326600D01*
X600829Y325504D01*
Y312007D01*
X592845Y304023D01*
X592072Y302866D01*
X591800Y301500D01*
Y299000D01*
X586369D01*
Y280000D01*
X598100D01*
Y272850D01*
X594669D01*
Y255350D01*
X608669D01*
Y272850D01*
X605237D01*
Y279666D01*
X606369Y280000D01*
X606507Y280000D01*
X624369D01*
Y283832D01*
X626721D01*
X628078Y282475D01*
X630214Y281590D01*
X632525D01*
X634660Y282475D01*
X636295Y284109D01*
X637179Y286245D01*
Y288556D01*
X636295Y290691D01*
X634660Y292326D01*
X632525Y293210D01*
X630214D01*
X628078Y292326D01*
X626721Y290969D01*
X624369D01*
Y299000D01*
X606369D01*
Y283522D01*
X605099Y283397D01*
X604966Y284066D01*
X604369Y284959D01*
Y299000D01*
X599536D01*
X599185Y300270D01*
X605516Y306600D01*
X609909D01*
Y325504D01*
X610329Y326600D01*
X611179Y326600D01*
X619409D01*
Y348600D01*
X618437D01*
Y356200D01*
X622268D01*
Y355704D01*
X623153Y353569D01*
X624787Y351934D01*
X626923Y351050D01*
X629234D01*
X631369Y351934D01*
X632726Y353291D01*
X639400D01*
Y349606D01*
X641020D01*
X642017Y348947D01*
Y329447D01*
X659517D01*
Y342975D01*
X660302Y343391D01*
X661517Y342689D01*
Y329447D01*
X679017D01*
Y335629D01*
X683293D01*
X685324Y333597D01*
Y329056D01*
X705961D01*
Y338644D01*
X690371D01*
X688529Y340486D01*
X689055Y341756D01*
X705961D01*
Y342981D01*
X707781D01*
X708249Y342513D01*
Y341844D01*
X709134Y339709D01*
X710768Y338075D01*
X712904Y337190D01*
X715215D01*
X717350Y338075D01*
X718985Y339709D01*
X719869Y341844D01*
Y344156D01*
X718985Y346291D01*
X717350Y347925D01*
X715215Y348810D01*
X712904D01*
X712297Y348559D01*
X711782Y349073D01*
X710625Y349847D01*
X709259Y350119D01*
X705961D01*
Y351344D01*
X685324D01*
Y343220D01*
X684771Y342766D01*
X679017D01*
Y348947D01*
X680014Y349606D01*
X681400D01*
Y368150D01*
X682573Y368636D01*
X692572Y358637D01*
X693730Y357863D01*
X695096Y357592D01*
X724369D01*
X724714Y357660D01*
X732715D01*
X733388Y356511D01*
X732947Y355503D01*
X732392Y355272D01*
X730757Y353638D01*
X729873Y351502D01*
Y349191D01*
X730757Y347056D01*
X732392Y345421D01*
X734527Y344537D01*
X736838D01*
X738974Y345421D01*
X740569Y347017D01*
X740779Y347007D01*
X741839Y346709D01*
Y341756D01*
X762476D01*
Y342981D01*
X763806D01*
X765051Y342920D01*
Y337419D01*
X762476D01*
Y338644D01*
X741839D01*
Y331735D01*
X736087D01*
X735307Y331580D01*
X734645Y331138D01*
X734203Y330476D01*
X734048Y329696D01*
Y306410D01*
X734115Y306072D01*
X732796Y305525D01*
X731439Y304169D01*
X706961D01*
Y306450D01*
X695642D01*
Y308450D01*
X693643D01*
Y314244D01*
X689918D01*
X689432Y315417D01*
X690371Y316356D01*
X705961D01*
Y325944D01*
X685324D01*
Y321403D01*
X683475Y319554D01*
X678834D01*
Y325736D01*
X661334D01*
Y311028D01*
X660225Y310554D01*
X659334Y311288D01*
Y325736D01*
X641834D01*
Y306236D01*
X654287D01*
X658749Y301773D01*
X658263Y300600D01*
X639400D01*
Y276300D01*
X681400D01*
Y297031D01*
X687292D01*
Y292286D01*
X695292D01*
X703292D01*
Y297031D01*
X706292D01*
Y281536D01*
X709724D01*
Y280687D01*
X709995Y279321D01*
X710769Y278164D01*
X714059Y274873D01*
Y272954D01*
X714944Y270819D01*
X716578Y269185D01*
X718714Y268300D01*
X721025D01*
X723160Y269185D01*
X724795Y270819D01*
X725679Y272954D01*
Y275266D01*
X724795Y277401D01*
X723160Y279035D01*
X721025Y279920D01*
X719854D01*
X719607Y280266D01*
X720262Y281536D01*
X720292D01*
Y297031D01*
X731439D01*
X732796Y295675D01*
X734115Y295128D01*
X734048Y294790D01*
Y266700D01*
X734203Y265920D01*
X734645Y265258D01*
X735307Y264816D01*
X736087Y264661D01*
X914763D01*
X915543Y264816D01*
X916205Y265258D01*
X916647Y265920D01*
X916802Y266700D01*
Y402174D01*
X918072Y402923D01*
X919594Y402292D01*
X921906D01*
X924041Y403176D01*
X925676Y404811D01*
X926560Y406946D01*
Y409258D01*
X925676Y411393D01*
X924041Y413027D01*
X921906Y413912D01*
X919594D01*
X917459Y413027D01*
X916102Y411671D01*
X909518D01*
X908991Y412941D01*
X912786Y416735D01*
X913559Y417893D01*
X913831Y419258D01*
Y419581D01*
X922763D01*
Y437581D01*
X917831D01*
Y440492D01*
X922013D01*
Y458992D01*
X916802D01*
Y583495D01*
X975849Y583495D01*
X976389Y41038D01*
X975491Y40139D01*
X966281D01*
X965433Y41409D01*
X966347Y43616D01*
X967000Y46901D01*
Y50249D01*
X966347Y53534D01*
X965065Y56627D01*
X963205Y59412D01*
X960837Y61780D01*
X958053Y63640D01*
X954959Y64922D01*
X951674Y65575D01*
X948326D01*
X945041Y64922D01*
X941947Y63640D01*
X939163Y61780D01*
X936795Y59412D01*
X934935Y56627D01*
X933653Y53534D01*
X933000Y50249D01*
Y46901D01*
X933653Y43616D01*
X934567Y41409D01*
X933719Y40139D01*
X910000D01*
Y57083D01*
X868000D01*
Y48502D01*
X862651D01*
X861294Y49859D01*
X859159Y50743D01*
X856848D01*
X854712Y49859D01*
X853078Y48224D01*
X852193Y46089D01*
Y43777D01*
X853078Y41642D01*
X853407Y41312D01*
X852921Y40139D01*
X675639D01*
X675113Y41409D01*
X676471Y42767D01*
X677721Y44933D01*
X678369Y47349D01*
Y49851D01*
X678200Y50480D01*
X678973Y51488D01*
X696600D01*
X697380Y51643D01*
X698042Y52085D01*
X698484Y52747D01*
X698639Y53527D01*
Y177800D01*
X698484Y178580D01*
X698042Y179242D01*
X697380Y179684D01*
X696600Y179839D01*
X678917D01*
X678315Y181109D01*
X679050Y182883D01*
Y185194D01*
X678166Y187330D01*
X676809Y188687D01*
Y195500D01*
X682350D01*
Y205500D01*
X663850D01*
Y195500D01*
X669671D01*
Y188687D01*
X668315Y187330D01*
X667430Y185194D01*
Y182883D01*
X668165Y181109D01*
X667563Y179839D01*
X655619D01*
Y221600D01*
X631319D01*
Y204169D01*
X615787D01*
X609909Y210047D01*
Y223904D01*
X610329Y225000D01*
X611179Y225000D01*
X619409D01*
Y234163D01*
X622099D01*
X623456Y232806D01*
X625591Y231921D01*
X627902D01*
X630038Y232806D01*
X631672Y234440D01*
X632557Y236576D01*
Y238887D01*
X631672Y241022D01*
X630038Y242657D01*
X627902Y243541D01*
X625591D01*
X623456Y242657D01*
X622099Y241300D01*
X619409D01*
Y247000D01*
X610329D01*
Y228096D01*
X609909Y227000D01*
X609059Y227000D01*
X601409D01*
Y234000D01*
X597869D01*
Y224000D01*
X600829D01*
Y211278D01*
X600448Y211023D01*
X590145Y200721D01*
X589372Y199563D01*
X589100Y198197D01*
Y195697D01*
X585669D01*
Y180763D01*
X584399Y180378D01*
X584125Y180788D01*
X581669Y183244D01*
Y195697D01*
X576899D01*
Y200235D01*
X581330D01*
Y218235D01*
X569377D01*
X559182Y228430D01*
X559708Y229700D01*
X562799D01*
X563069Y229700D01*
X564069Y229048D01*
Y228700D01*
X571069D01*
Y238700D01*
Y248700D01*
X564069Y248700D01*
X563937Y249916D01*
Y255100D01*
X568369D01*
Y273100D01*
X552639D01*
X552369Y273100D01*
X551369Y273752D01*
Y274100D01*
X544369D01*
Y264100D01*
Y254100D01*
X551369D01*
Y254448D01*
X552369Y255100D01*
X552639Y255100D01*
X556800D01*
Y247700D01*
X547069D01*
Y229700D01*
X551500D01*
Y227497D01*
X551772Y226131D01*
X552545Y224973D01*
X557110Y220408D01*
X556624Y219235D01*
X546330D01*
Y211235D01*
X555330D01*
Y209235D01*
X557330D01*
Y199235D01*
X564330D01*
Y199583D01*
X565331Y200235D01*
X569762D01*
Y195697D01*
X567669D01*
Y179839D01*
X543537D01*
Y184014D01*
X535788D01*
Y174264D01*
X531787D01*
Y184014D01*
X524037D01*
Y179839D01*
X370339D01*
Y197885D01*
X445135D01*
X446492Y196528D01*
X448628Y195643D01*
X450939D01*
X453074Y196528D01*
X454709Y198162D01*
X455593Y200298D01*
Y202609D01*
X454709Y204744D01*
X453074Y206379D01*
X450939Y207263D01*
X448628D01*
X446492Y206379D01*
X445135Y205022D01*
X361228D01*
Y209732D01*
X378024D01*
Y207200D01*
X403024D01*
Y225200D01*
X378024D01*
Y216869D01*
X361228D01*
Y221800D01*
X358126D01*
X357601Y222997D01*
X358192Y223731D01*
X370232D01*
X371597Y224003D01*
X372755Y224777D01*
X385971Y237993D01*
X387890D01*
X390025Y238877D01*
X391660Y240512D01*
X392544Y242647D01*
Y244958D01*
X391660Y247094D01*
X390303Y248451D01*
Y252200D01*
X403024D01*
Y270200D01*
X378024D01*
Y252200D01*
X383166D01*
Y248451D01*
X381809Y247094D01*
X380924Y244958D01*
Y243039D01*
X368754Y230869D01*
X361228D01*
Y245800D01*
X360193D01*
Y250044D01*
X362644D01*
Y267544D01*
X348644D01*
Y250044D01*
X353056D01*
Y245800D01*
X352021D01*
Y228800D01*
X352021D01*
X352315Y228090D01*
X347926Y223702D01*
X347153Y222544D01*
X347085Y222204D01*
X346681Y221800D01*
X342521D01*
Y221800D01*
X342228D01*
Y221800D01*
X333021D01*
X332239Y222746D01*
Y227800D01*
X335624D01*
Y237300D01*
Y246800D01*
X332239D01*
Y249044D01*
X335644D01*
Y258794D01*
Y268544D01*
X332239D01*
Y277671D01*
X345467D01*
X346247Y277826D01*
X346909Y278268D01*
X347351Y278930D01*
X347734Y279854D01*
X348820Y279404D01*
X351131D01*
X352217Y279854D01*
X352600Y278930D01*
X353042Y278268D01*
X353703Y277826D01*
X354484Y277671D01*
X368300D01*
X369080Y277826D01*
X369742Y278268D01*
X370184Y278930D01*
X370339Y279710D01*
Y330200D01*
X370184Y330980D01*
X369742Y331642D01*
X369080Y332084D01*
X368300Y332239D01*
X292100D01*
X291320Y332084D01*
X290658Y331642D01*
X290216Y330980D01*
X290061Y330200D01*
Y319772D01*
X190772D01*
X189992Y319616D01*
X189330Y319174D01*
X188888Y318513D01*
X188733Y317732D01*
Y278995D01*
X188808Y278618D01*
X188888Y278215D01*
X188888Y278215D01*
X188888Y278214D01*
X189121Y277866D01*
X189330Y277553D01*
X189330Y277553D01*
X189330Y277553D01*
X189710Y277299D01*
X189991Y277111D01*
X189991Y277111D01*
X189992Y277111D01*
X190394Y277031D01*
X190772Y276956D01*
X200391Y276954D01*
X200862Y275683D01*
X199572Y273449D01*
X198970Y271203D01*
X209822D01*
X220674D01*
X220072Y273449D01*
X218784Y275679D01*
X219258Y276949D01*
X226159Y276948D01*
X226159Y276948D01*
X226159Y276948D01*
X226537Y277023D01*
X226939Y277103D01*
X226939Y277103D01*
X226940Y277103D01*
X227030Y277164D01*
X234162D01*
X234942Y277319D01*
X235564Y277734D01*
X235932Y277183D01*
X236763Y276628D01*
X237743Y276433D01*
X257218D01*
X258220Y275338D01*
Y260833D01*
X218668D01*
X218182Y262006D01*
X218624Y262449D01*
X220072Y264957D01*
X220674Y267203D01*
X209822D01*
X198970D01*
X199572Y264957D01*
X201020Y262449D01*
X201462Y262006D01*
X200976Y260833D01*
X180333D01*
Y266710D01*
X142333D01*
Y260833D01*
X129333D01*
Y278710D01*
X93333D01*
Y271455D01*
X87198D01*
X85841Y272812D01*
X83706Y273696D01*
X81394D01*
X79259Y272812D01*
X77625Y271177D01*
X76740Y269042D01*
Y266730D01*
X77625Y264595D01*
X79259Y262961D01*
X81394Y262076D01*
X81329Y260833D01*
X25400D01*
X24620Y260678D01*
X23958Y260236D01*
X23516Y259574D01*
X23361Y258794D01*
Y179839D01*
X12948D01*
X12168Y179684D01*
X11506Y179242D01*
X11064Y178580D01*
X10909Y177800D01*
Y26907D01*
X9639Y26522D01*
X9554Y26648D01*
X6852Y32127D01*
X4888Y37912D01*
X3697Y43904D01*
X3380Y48739D01*
X3334Y50000D01*
X3334Y50000D01*
X3334Y51252D01*
Y950000D01*
X3306Y950140D01*
X3697Y956096D01*
X4888Y962088D01*
X6852Y967872D01*
X9554Y973352D01*
X12948Y978431D01*
X16976Y983024D01*
X21569Y987052D01*
X26648Y990446D01*
X32127Y993148D01*
X37912Y995112D01*
X43904Y996303D01*
X49860Y996694D01*
X50000Y996666D01*
D02*
G37*
G36*
X996666Y585534D02*
X990350D01*
Y26505D01*
X989429Y25127D01*
X266730D01*
X265444Y26114D01*
X263498Y26920D01*
X261409Y27195D01*
X261176Y27164D01*
X245658D01*
X244878Y27009D01*
X244217Y26567D01*
X243775Y25905D01*
X243620Y25127D01*
X242159D01*
Y27126D01*
X220159D01*
Y27126D01*
X219159D01*
Y27126D01*
X197159D01*
Y25127D01*
X195699D01*
X195544Y25907D01*
X195102Y26569D01*
X194440Y27011D01*
X193660Y27166D01*
X178127D01*
X177909Y27195D01*
X175821Y26920D01*
X173875Y26114D01*
X172589Y25127D01*
X12948D01*
Y177800D01*
X111333D01*
Y153203D01*
X103756D01*
Y142203D01*
X99756D01*
Y153203D01*
X90756D01*
Y141738D01*
X76732D01*
Y156777D01*
X64294D01*
X63768Y158047D01*
X65391Y159670D01*
X72344D01*
Y163519D01*
X77902D01*
X79259Y162162D01*
X81394Y161277D01*
X83706D01*
X85841Y162162D01*
X87476Y163796D01*
X88360Y165932D01*
Y168243D01*
X87476Y170378D01*
X85841Y172013D01*
X83706Y172897D01*
X81394D01*
X79259Y172013D01*
X77902Y170656D01*
X72344D01*
Y176170D01*
X60344D01*
Y164717D01*
X57614Y161987D01*
X56344Y162513D01*
Y176170D01*
X44344D01*
Y159670D01*
X46775D01*
Y156777D01*
X40732D01*
Y141738D01*
X26648D01*
X26648Y38100D01*
X37858D01*
X39163Y36795D01*
X41947Y34935D01*
X45041Y33653D01*
X48326Y33000D01*
X51674D01*
X54959Y33653D01*
X58053Y34935D01*
X60837Y36795D01*
X62142Y38100D01*
X80756D01*
Y31754D01*
X122756D01*
Y38100D01*
X151910D01*
X152050Y37393D01*
X152492Y36731D01*
X152492Y36731D01*
X152706Y36518D01*
X153367Y36076D01*
X154148Y35921D01*
X191659D01*
X191725Y35934D01*
X191792Y35925D01*
X192113Y36011D01*
X192439Y36076D01*
X192495Y36113D01*
X192561Y36131D01*
X192824Y36333D01*
X193101Y36518D01*
X193138Y36574D01*
X193192Y36615D01*
X193358Y36903D01*
X193543Y37179D01*
X194509Y37960D01*
X196291Y37725D01*
X198073Y37960D01*
X198412Y38100D01*
X203548D01*
Y33626D01*
X209770D01*
Y33626D01*
X210048D01*
Y33626D01*
X216270D01*
Y33626D01*
X216548D01*
Y33626D01*
X222770D01*
Y33626D01*
X223048D01*
Y33626D01*
X229270D01*
Y33626D01*
X229548D01*
Y33626D01*
X235770D01*
Y38100D01*
X240907D01*
X241245Y37960D01*
X243027Y37725D01*
X244809Y37960D01*
X245148Y38100D01*
X868000D01*
Y32783D01*
X910000D01*
Y38100D01*
X936553D01*
X936795Y37738D01*
X939163Y35370D01*
X941947Y33510D01*
X945041Y32228D01*
X948326Y31575D01*
X951674D01*
X954959Y32228D01*
X958053Y33510D01*
X960837Y35370D01*
X963205Y37738D01*
X963447Y38100D01*
X978431D01*
X977886Y585534D01*
X842723Y585534D01*
Y648051D01*
X847872D01*
Y638663D01*
X856653D01*
Y648937D01*
X860653D01*
Y638663D01*
X864373D01*
Y633332D01*
X863278Y632332D01*
X857297D01*
Y616332D01*
X875297D01*
Y616332D01*
X876434Y616653D01*
X882827D01*
X883212Y615383D01*
X882903Y615177D01*
X882348Y614347D01*
X882153Y613367D01*
Y610196D01*
X875297D01*
Y614332D01*
X857297D01*
Y598332D01*
X875297D01*
Y603059D01*
X882153D01*
Y599887D01*
X882348Y598908D01*
X882903Y598078D01*
X883733Y597523D01*
X884713Y597328D01*
X889693D01*
X890672Y597523D01*
X891502Y598078D01*
X892057Y598908D01*
X892252Y599887D01*
Y613367D01*
X892057Y614347D01*
X891502Y615177D01*
X890672Y615732D01*
X889693Y615927D01*
X888949D01*
X888564Y617197D01*
X888644Y617251D01*
X889087Y617912D01*
X889242Y618692D01*
Y624332D01*
Y650808D01*
X889665Y651765D01*
X890215Y651932D01*
X890672Y652023D01*
X891502Y652578D01*
X892057Y653408D01*
X892252Y654387D01*
Y664083D01*
X893834D01*
X894853Y662991D01*
Y654387D01*
X895048Y653408D01*
X895603Y652578D01*
X896433Y652023D01*
X897413Y651828D01*
X902393D01*
X903372Y652023D01*
X904202Y652578D01*
X904757Y653408D01*
X904952Y654387D01*
Y667867D01*
X904757Y668847D01*
X904202Y669677D01*
X904277Y670666D01*
X904432Y671446D01*
Y678600D01*
X908012D01*
Y684350D01*
X898262D01*
Y688350D01*
X908012D01*
Y693100D01*
X916333D01*
Y688350D01*
X926083D01*
X935833D01*
Y693100D01*
X939800D01*
Y730892D01*
X996666D01*
Y585534D01*
D02*
G37*
G36*
X883164Y671054D02*
X882182Y670398D01*
X881406Y669237D01*
X881134Y667867D01*
Y663127D01*
X887203D01*
Y659127D01*
X881134D01*
Y654387D01*
X881406Y653018D01*
X882182Y651857D01*
X883343Y651081D01*
X884713Y650809D01*
X887203D01*
Y624332D01*
Y618692D01*
X876297D01*
Y622332D01*
X866297D01*
Y626332D01*
X876297D01*
Y633332D01*
X866413D01*
Y639663D01*
X868434D01*
Y657176D01*
X869434D01*
Y665450D01*
X858653D01*
X847872D01*
Y657176D01*
X848872D01*
Y650090D01*
X834822D01*
Y665590D01*
X825322D01*
Y650090D01*
X821322D01*
Y665590D01*
X812800D01*
Y672757D01*
X812948Y672905D01*
X847872D01*
Y669450D01*
X858653D01*
X869434D01*
Y672905D01*
X883164D01*
Y671054D01*
D02*
G37*
G36*
X127658Y665456D02*
X88507D01*
Y609040D01*
X86421Y608176D01*
X84786Y606541D01*
X83902Y604406D01*
Y602094D01*
X84786Y599959D01*
X86421Y598325D01*
X88507Y597460D01*
Y591377D01*
X73769D01*
Y592877D01*
X74200D01*
Y603127D01*
Y613377D01*
X73769D01*
Y616869D01*
X74232D01*
Y624041D01*
Y631213D01*
X73769D01*
Y679622D01*
X104225D01*
Y677119D01*
X104940Y674451D01*
X106321Y672058D01*
X108275Y670104D01*
X110668Y668723D01*
X112718Y668174D01*
Y678501D01*
X116718D01*
Y668174D01*
X118768Y668723D01*
X121161Y670104D01*
X123115Y672058D01*
X124496Y674451D01*
X125211Y677119D01*
Y679622D01*
X127658D01*
Y665456D01*
D02*
G37*
G36*
X368300Y279710D02*
X354484D01*
X353958Y280980D01*
X354901Y281923D01*
X355785Y284058D01*
Y286370D01*
X354901Y288505D01*
X353544Y289862D01*
Y293053D01*
X358272D01*
X358272Y306401D01*
X359272Y307053D01*
X359272Y307204D01*
Y312803D01*
X349522D01*
X339772D01*
X339772Y307053D01*
X340772Y306401D01*
X340772Y305783D01*
Y293053D01*
X346407D01*
Y289862D01*
X345050Y288505D01*
X344165Y286370D01*
Y284058D01*
X345050Y281923D01*
X345993Y280980D01*
X345467Y279710D01*
X330200D01*
Y216200D01*
X333021Y216185D01*
Y209847D01*
X325713Y202539D01*
X325546Y202609D01*
X323234D01*
X321099Y201724D01*
X319464Y200090D01*
X318580Y197955D01*
Y195643D01*
X319464Y193508D01*
X321099Y191873D01*
X323234Y190989D01*
X325546D01*
X327681Y191873D01*
X329315Y193508D01*
X330200Y195643D01*
Y196933D01*
X336605Y203338D01*
X338240Y203177D01*
X338426Y202898D01*
X342394Y198930D01*
X343552Y198156D01*
X344918Y197885D01*
X368300D01*
Y177800D01*
X525037D01*
Y165514D01*
X542537D01*
Y177800D01*
X577019D01*
X578033Y176786D01*
Y161567D01*
X577935Y161540D01*
X575769Y160290D01*
X574000Y158521D01*
X573148Y157044D01*
X542101D01*
X541941Y157641D01*
X540789Y159636D01*
X539160Y161265D01*
X537165Y162417D01*
X534939Y163014D01*
X532635D01*
X530410Y162417D01*
X528415Y161265D01*
X526786Y159636D01*
X525634Y157641D01*
X525037Y155416D01*
Y153112D01*
X525634Y150886D01*
X526786Y148891D01*
X528415Y147262D01*
X530252Y146201D01*
Y137965D01*
X528929Y136641D01*
X528044Y134506D01*
Y132194D01*
X528929Y130059D01*
X530563Y128425D01*
X532698Y127540D01*
X535010D01*
X537145Y128425D01*
X538779Y130059D01*
X539664Y132194D01*
Y134506D01*
X538779Y136641D01*
X537389Y138031D01*
Y146240D01*
X539160Y147262D01*
X540789Y148891D01*
X541376Y149907D01*
X572512D01*
X572749Y149021D01*
X574000Y146855D01*
X575769Y145086D01*
X577935Y143835D01*
X580351Y143188D01*
X582853D01*
X585269Y143835D01*
X587435Y145086D01*
X589204Y146855D01*
X590454Y149021D01*
X591102Y151437D01*
Y153938D01*
X590454Y156355D01*
X589204Y158521D01*
X587435Y160290D01*
X585269Y161540D01*
X585171Y161567D01*
Y177800D01*
X596769D01*
X610683Y163887D01*
X610025Y162748D01*
X609002Y163022D01*
Y154688D01*
X617337D01*
X617062Y155711D01*
X618201Y156368D01*
X618405Y156164D01*
X619563Y155391D01*
X620928Y155119D01*
X622902D01*
Y143188D01*
X641902D01*
Y162188D01*
X626747D01*
X626402Y162256D01*
X622407D01*
X608036Y176627D01*
X608522Y177800D01*
X696600D01*
Y53527D01*
X676994D01*
X676471Y54433D01*
X674702Y56202D01*
X672536Y57453D01*
X670119Y58100D01*
X667618D01*
X665202Y57453D01*
X663036Y56202D01*
X661267Y54433D01*
X660744Y53527D01*
X267158D01*
X266335Y55515D01*
X265901Y55949D01*
X266427Y57219D01*
X274752D01*
X276109Y55862D01*
X278244Y54977D01*
X280556D01*
X282691Y55862D01*
X284326Y57496D01*
X285210Y59632D01*
Y61943D01*
X284326Y64078D01*
X282691Y65713D01*
X280556Y66597D01*
X278244D01*
X276109Y65713D01*
X274752Y64356D01*
X245398D01*
X244032Y64084D01*
X242874Y63310D01*
X235758Y56195D01*
X227750D01*
X226902Y57465D01*
X227320Y58476D01*
Y60787D01*
X226436Y62923D01*
X224802Y64557D01*
X222666Y65441D01*
X220355D01*
X218219Y64557D01*
X216585Y62923D01*
X215700Y60787D01*
Y59414D01*
X215240Y59066D01*
X213970Y59698D01*
Y91471D01*
X517138D01*
X518503Y91743D01*
X519661Y92517D01*
X519723Y92579D01*
X520330Y92328D01*
X522641D01*
X524776Y93212D01*
X526411Y94846D01*
X527295Y96982D01*
Y99293D01*
X526411Y101429D01*
X524776Y103063D01*
X522641Y103948D01*
X520330D01*
X518194Y103063D01*
X516560Y101429D01*
X515675Y99293D01*
Y98624D01*
X515659Y98609D01*
X379691D01*
X378842Y99879D01*
X379387Y101194D01*
Y103506D01*
X378503Y105641D01*
X376869Y107275D01*
X374733Y108160D01*
X372422D01*
X370286Y107275D01*
X368652Y105641D01*
X368500Y105275D01*
X206777D01*
X206098Y106545D01*
X206343Y106911D01*
X206579Y108100D01*
Y114763D01*
X215738D01*
X216188Y114853D01*
X216623Y113803D01*
X218257Y112169D01*
X220392Y111284D01*
X222704D01*
X224839Y112169D01*
X226196Y113525D01*
X229554D01*
Y111003D01*
X249054D01*
Y128503D01*
X230317D01*
Y130503D01*
X249054D01*
Y141061D01*
X250324Y141739D01*
X250326Y141738D01*
Y130519D01*
X269827D01*
Y148019D01*
X255373D01*
X244769Y158624D01*
X243611Y159397D01*
X242245Y159669D01*
X230317D01*
Y253008D01*
X230162Y253788D01*
X229720Y254449D01*
X229058Y254891D01*
X228278Y255047D01*
X217969D01*
X217189Y254891D01*
X216528Y254449D01*
X216085Y253788D01*
X215889Y253313D01*
X214386Y252715D01*
X213682Y253121D01*
X211138Y253803D01*
X208505D01*
X205962Y253121D01*
X205258Y252715D01*
X203755Y253313D01*
X203558Y253788D01*
X203116Y254449D01*
X202455Y254891D01*
X201674Y255047D01*
X183319D01*
X182538Y254891D01*
X181877Y254449D01*
X181434Y253788D01*
X181279Y253008D01*
Y214753D01*
X169206D01*
Y211571D01*
X156652D01*
Y214753D01*
X139152D01*
Y211571D01*
X134076D01*
X133550Y212841D01*
X131916Y214475D01*
X129781Y215360D01*
X127469D01*
X125334Y214475D01*
X123699Y212841D01*
X122815Y210706D01*
Y208394D01*
X123699Y206259D01*
X125334Y204625D01*
X127469Y203740D01*
X129781D01*
X131456Y204434D01*
X138254D01*
X139152Y203536D01*
X139152Y201404D01*
X138152Y200753D01*
X138152Y200601D01*
Y195002D01*
X147902D01*
X157652D01*
X157652Y200753D01*
X156652Y201404D01*
X156652Y202023D01*
Y204434D01*
X169206D01*
Y201253D01*
X168206Y200753D01*
Y195003D01*
X177956D01*
Y193003D01*
X179956D01*
Y185253D01*
X181279D01*
Y176913D01*
X181299Y176814D01*
X181289Y176714D01*
X181376Y176427D01*
X181430Y176157D01*
X181067Y175635D01*
X180508Y175245D01*
X180072Y175537D01*
Y163303D01*
X176072D01*
Y175537D01*
X175154Y174923D01*
X174672Y174202D01*
X173919D01*
X172911Y174876D01*
X171722Y175112D01*
X170533Y174876D01*
X169525Y174202D01*
X169304Y173872D01*
X167790D01*
X167569Y174202D01*
X166561Y174876D01*
X165372Y175112D01*
X164183Y174876D01*
X163175Y174202D01*
X162954Y173872D01*
X161440D01*
X161219Y174202D01*
X160211Y174876D01*
X159022Y175112D01*
X157833Y174876D01*
X156825Y174202D01*
X156604Y173872D01*
X155090D01*
X154869Y174202D01*
X153861Y174876D01*
X152672Y175112D01*
X151483Y174876D01*
X150475Y174202D01*
X150254Y173872D01*
X148740D01*
X148519Y174202D01*
X147511Y174876D01*
X146322Y175112D01*
X145133Y174876D01*
X144125Y174202D01*
X143451Y173194D01*
X143215Y172005D01*
Y167365D01*
X132117D01*
X130760Y168722D01*
X128625Y169606D01*
X126313D01*
X124178Y168722D01*
X122544Y167087D01*
X121659Y164952D01*
Y162640D01*
X122544Y160505D01*
X124178Y158871D01*
X126313Y157986D01*
X128625D01*
X130760Y158871D01*
X132117Y160228D01*
X143215D01*
Y154600D01*
X143451Y153411D01*
X144125Y152403D01*
X145133Y151729D01*
X146322Y151493D01*
X147511Y151729D01*
X148519Y152403D01*
X148522Y152408D01*
X149883Y152466D01*
X149983Y152371D01*
X150464Y151550D01*
X150463Y151545D01*
X150473Y151445D01*
X150453Y151346D01*
Y128760D01*
X150473Y128661D01*
X150463Y128560D01*
X150464Y128555D01*
X149983Y127734D01*
X149883Y127639D01*
X148522Y127697D01*
X148519Y127702D01*
X147511Y128376D01*
X146322Y128612D01*
X145133Y128376D01*
X144125Y127702D01*
X143451Y126694D01*
X143215Y125505D01*
Y108100D01*
X143451Y106911D01*
X144125Y105903D01*
X144426Y105701D01*
X144041Y104431D01*
X107261D01*
X107129Y104405D01*
X106995Y104414D01*
X106742Y104328D01*
X106481Y104276D01*
X106369Y104201D01*
X106242Y104158D01*
X106041Y103982D01*
X105819Y103834D01*
X105745Y103722D01*
X105644Y103634D01*
X105526Y103394D01*
X105377Y103173D01*
X105351Y103041D01*
X105292Y102920D01*
X104951Y101650D01*
X104041Y101296D01*
X103636Y101252D01*
X103072Y101403D01*
X100439D01*
X99876Y101252D01*
X99471Y101296D01*
X98560Y101650D01*
X98220Y102920D01*
X98161Y103041D01*
X98134Y103173D01*
X97986Y103394D01*
X97868Y103634D01*
X97767Y103722D01*
X97692Y103834D01*
X97471Y103982D01*
X97270Y104158D01*
X97143Y104201D01*
X97031Y104276D01*
X96769Y104328D01*
X96517Y104414D01*
X96382Y104405D01*
X96250Y104431D01*
X89450D01*
X88670Y104276D01*
X88008Y103834D01*
X87566Y103173D01*
X87411Y102392D01*
Y76200D01*
X87566Y75420D01*
X88008Y74758D01*
X88670Y74316D01*
X89450Y74161D01*
X130962D01*
X131328Y74234D01*
X131696Y74297D01*
X131718Y74311D01*
X131743Y74316D01*
X132053Y74523D01*
X132368Y74723D01*
X133279Y75590D01*
X133294Y75611D01*
X133315Y75625D01*
X133523Y75936D01*
X133737Y76241D01*
X133743Y76266D01*
X133757Y76287D01*
X133830Y76653D01*
X133912Y77017D01*
X134647Y78067D01*
X148373D01*
Y91471D01*
X156373D01*
Y78067D01*
X160988D01*
X162084Y77067D01*
Y65173D01*
X161317Y65076D01*
X161059Y64990D01*
X160792Y64937D01*
X160684Y64865D01*
X160562Y64824D01*
X160357Y64646D01*
X160130Y64495D01*
X160058Y64387D01*
X159961Y64303D01*
X159839Y64059D01*
X159688Y63833D01*
X159663Y63707D01*
X159605Y63591D01*
X159586Y63320D01*
X159533Y63053D01*
Y62053D01*
X147072D01*
Y53527D01*
X145572D01*
Y62053D01*
X132072D01*
Y53527D01*
X122756D01*
Y56054D01*
X105324D01*
Y59430D01*
X106681Y60787D01*
X107566Y62923D01*
Y65234D01*
X106681Y67369D01*
X105047Y69004D01*
X102912Y69888D01*
X100600D01*
X98465Y69004D01*
X96830Y67369D01*
X95946Y65234D01*
Y62923D01*
X96830Y60787D01*
X98187Y59430D01*
Y56054D01*
X80756D01*
Y53527D01*
X66631D01*
X66347Y54959D01*
X65065Y58053D01*
X63205Y60837D01*
X60837Y63205D01*
X58053Y65065D01*
X54959Y66347D01*
X51674Y67000D01*
X48326D01*
X45041Y66347D01*
X41947Y65065D01*
X39163Y63205D01*
X36795Y60837D01*
X34935Y58053D01*
X33653Y54959D01*
X33368Y53527D01*
X28688D01*
X28688Y139699D01*
X40732D01*
X41512Y139854D01*
X42174Y140296D01*
X42495Y140778D01*
X49635D01*
X50121Y139604D01*
X49127Y138610D01*
X44174D01*
Y122610D01*
X52022D01*
X52674Y121610D01*
X52674Y121340D01*
Y114610D01*
X64674D01*
Y121340D01*
X64674Y121610D01*
X65325Y122610D01*
X73174D01*
Y138610D01*
X71742D01*
Y140778D01*
X74968D01*
X75290Y140296D01*
X75951Y139854D01*
X76732Y139699D01*
X90756D01*
X91756Y138603D01*
Y132203D01*
X111756D01*
Y151248D01*
X112114Y151319D01*
X112775Y151761D01*
X113217Y152422D01*
X113372Y153203D01*
Y177800D01*
X113217Y178580D01*
X112775Y179242D01*
X112114Y179684D01*
X111333Y179839D01*
X25400D01*
Y258794D01*
X93333D01*
Y258710D01*
X129333D01*
Y258794D01*
X143333D01*
Y258710D01*
X179333D01*
Y258794D01*
X258220D01*
Y229700D01*
X258375Y228920D01*
X258817Y228258D01*
X259479Y227816D01*
X260259Y227661D01*
X280608D01*
X281134Y226391D01*
X280285Y225541D01*
X279400Y223406D01*
Y221094D01*
X280285Y218959D01*
X281919Y217325D01*
X284054Y216440D01*
X286366D01*
X288501Y217325D01*
X290135Y218959D01*
X291020Y221094D01*
Y223406D01*
X290135Y225541D01*
X288779Y226898D01*
Y235053D01*
X292069D01*
Y247506D01*
X304754Y260191D01*
X305527Y261349D01*
X305799Y262714D01*
Y264683D01*
X320731D01*
X321706Y264877D01*
X322533Y265430D01*
X323086Y266257D01*
X323279Y267232D01*
Y276232D01*
X323086Y277208D01*
X322533Y278035D01*
X321706Y278587D01*
X320731Y278781D01*
X313020D01*
Y286664D01*
X314112Y287683D01*
X320731D01*
X321706Y287878D01*
X322533Y288430D01*
X323086Y289257D01*
X323279Y290232D01*
Y299232D01*
X323086Y300208D01*
X322533Y301035D01*
X321706Y301587D01*
X320731Y301781D01*
X314112D01*
X313020Y302801D01*
Y309664D01*
X320731D01*
X322096Y309935D01*
X323254Y310709D01*
X324027Y311867D01*
X324299Y313232D01*
Y315732D01*
X310981D01*
Y317732D01*
X308981D01*
Y325801D01*
X301231D01*
X299865Y325529D01*
X298707Y324756D01*
X297934Y323598D01*
X297662Y322232D01*
Y319772D01*
X292100D01*
Y330200D01*
X368300D01*
Y279710D01*
D02*
G37*
G36*
X298682Y313232D02*
X298876Y312257D01*
X299428Y311430D01*
X300255Y310877D01*
X301231Y310683D01*
X310981D01*
Y302801D01*
X301231D01*
X299865Y302529D01*
X298707Y301756D01*
X297934Y300598D01*
X297662Y299232D01*
Y296732D01*
X310981D01*
Y292732D01*
X297662D01*
Y290232D01*
X297934Y288867D01*
X298707Y287709D01*
X299865Y286936D01*
X301231Y286664D01*
X310981D01*
Y278781D01*
X301231D01*
X300255Y278587D01*
X299428Y278035D01*
X298876Y277208D01*
X298682Y276232D01*
Y268331D01*
X298662Y268232D01*
Y264192D01*
X287022Y252553D01*
X278721Y252553D01*
X278069Y253553D01*
X277917Y253553D01*
X272319D01*
Y243803D01*
Y234053D01*
X278069Y234053D01*
X278721Y235053D01*
X279339Y235053D01*
X281641D01*
Y229700D01*
X260259D01*
Y277224D01*
X260527Y277624D01*
X260799Y278995D01*
Y292732D01*
X247481D01*
X234162D01*
Y279203D01*
X226375D01*
X226159Y278987D01*
X211931Y278990D01*
X211138Y279203D01*
X208505D01*
X207716Y278991D01*
X190772Y278995D01*
Y317732D01*
X298682D01*
Y313232D01*
D02*
G37*
G36*
X228278Y159669D02*
X207041D01*
Y163303D01*
X206769Y164668D01*
X206579Y164952D01*
Y172005D01*
X206343Y173194D01*
X205669Y174202D01*
X204661Y174876D01*
X203472Y175112D01*
X202283Y174876D01*
X201275Y174202D01*
X201054Y173872D01*
X199540D01*
X199319Y174202D01*
X198311Y174876D01*
X197122Y175112D01*
X195933Y174876D01*
X194925Y174202D01*
X194172D01*
X193690Y174923D01*
X192772Y175537D01*
Y163303D01*
Y151069D01*
X193511Y151562D01*
X194103Y151682D01*
X194853D01*
X195095Y151499D01*
X199833Y146761D01*
X200991Y145988D01*
X202356Y145716D01*
X226794D01*
X228278Y144232D01*
Y120662D01*
X226196D01*
X224839Y122019D01*
X222704Y122904D01*
X220392D01*
X218257Y122019D01*
X216623Y120385D01*
X215738Y118250D01*
Y116803D01*
X206579D01*
Y125505D01*
X206343Y126694D01*
X205669Y127702D01*
X204661Y128376D01*
X203472Y128612D01*
X202283Y128376D01*
X201275Y127702D01*
X201054Y127372D01*
X199540D01*
X199319Y127702D01*
X198311Y128376D01*
X197122Y128612D01*
X195933Y128376D01*
X194925Y127702D01*
X194704Y127372D01*
X193190D01*
X192969Y127702D01*
X191961Y128376D01*
X190772Y128612D01*
X189583Y128376D01*
X188575Y127702D01*
X188354Y127372D01*
X186840D01*
X186619Y127702D01*
X185611Y128376D01*
X185381Y128422D01*
X184752Y129842D01*
X184788Y129903D01*
X185554D01*
X187689Y130788D01*
X189324Y132422D01*
X190208Y134558D01*
Y136869D01*
X189324Y139004D01*
X187689Y140639D01*
X185554Y141523D01*
X183243D01*
X181107Y140639D01*
X179473Y139004D01*
X178588Y136869D01*
Y134946D01*
X176001Y132359D01*
X175227Y131201D01*
X174956Y129835D01*
Y128421D01*
X174535Y128129D01*
X173686Y127858D01*
X172911Y128376D01*
X171722Y128612D01*
X170533Y128376D01*
X169525Y127702D01*
X169304Y127372D01*
X167790D01*
X167569Y127702D01*
X166561Y128376D01*
X165372Y128612D01*
X164183Y128376D01*
X163175Y127702D01*
X162422D01*
X161940Y128423D01*
X161022Y129037D01*
Y116803D01*
X157022D01*
Y129037D01*
X156104Y128423D01*
X155622Y127702D01*
X154869D01*
X153861Y128376D01*
X152672Y128612D01*
X152492Y128760D01*
Y151346D01*
X152672Y151493D01*
X153861Y151729D01*
X154869Y152403D01*
X155090Y152733D01*
X156604D01*
X156825Y152403D01*
X157833Y151729D01*
X159022Y151493D01*
X160211Y151729D01*
X161219Y152403D01*
X161440Y152733D01*
X162954D01*
X163175Y152403D01*
X164183Y151729D01*
X165372Y151493D01*
X166431Y151704D01*
X166672Y151655D01*
X167557Y151061D01*
X167631Y149781D01*
X165863Y148013D01*
X163944D01*
X161809Y147128D01*
X160175Y145494D01*
X159290Y143358D01*
Y141047D01*
X160175Y138912D01*
X161809Y137277D01*
X163944Y136393D01*
X166256D01*
X168391Y137277D01*
X170026Y138912D01*
X170910Y141047D01*
Y142966D01*
X173793Y145849D01*
X174567Y147007D01*
X174838Y148372D01*
Y151684D01*
X175259Y151976D01*
X176108Y152247D01*
X176883Y151729D01*
X178072Y151493D01*
X179261Y151729D01*
X180269Y152403D01*
X181022D01*
X181504Y151682D01*
X182422Y151069D01*
Y163303D01*
X186422D01*
Y151069D01*
X186639Y151214D01*
X187597Y151583D01*
X188555Y151214D01*
X188772Y151069D01*
Y163303D01*
Y175537D01*
X188555Y175392D01*
X187597Y175022D01*
X186639Y175392D01*
X186001Y175818D01*
X184422Y176132D01*
X184300Y176108D01*
X183319Y176913D01*
Y186253D01*
X186706D01*
Y199753D01*
X183319D01*
Y201253D01*
X186706D01*
Y203865D01*
X198749D01*
X199647Y202967D01*
X199647Y200835D01*
X198647Y200183D01*
X198647Y200031D01*
Y194433D01*
X208397D01*
X218147D01*
X218147Y200183D01*
X217147Y200835D01*
X217147Y201453D01*
Y214183D01*
X199647D01*
Y211002D01*
X186706D01*
Y214753D01*
X183319D01*
Y253008D01*
X201674D01*
X202201Y251737D01*
X201020Y250557D01*
X199572Y248048D01*
X198970Y245803D01*
X209822D01*
X220674D01*
X220072Y248048D01*
X218624Y250557D01*
X217443Y251737D01*
X217969Y253008D01*
X228278D01*
Y159669D01*
D02*
G37*
G36*
X152492Y101495D02*
Y98609D01*
X132117D01*
X130760Y99965D01*
X128625Y100850D01*
X126313D01*
X124178Y99965D01*
X122544Y98331D01*
X121659Y96196D01*
Y93884D01*
X122544Y91749D01*
X124178Y90114D01*
X126313Y89230D01*
X128625D01*
X130603Y90049D01*
X131873Y89568D01*
Y87067D01*
X140623D01*
Y83067D01*
X131873D01*
Y77067D01*
X130962Y76200D01*
X89450D01*
Y102392D01*
X96250D01*
X96591Y101122D01*
X95002Y100205D01*
X92954Y98157D01*
X91505Y95648D01*
X90904Y93403D01*
X101756D01*
X112608D01*
X112006Y95648D01*
X110558Y98157D01*
X108510Y100205D01*
X106921Y101122D01*
X107261Y102392D01*
X151595D01*
X152492Y101495D01*
D02*
G37*
G36*
X211931Y55099D02*
X211025Y54192D01*
X210251Y53035D01*
X210070Y52126D01*
X208659D01*
Y42376D01*
X204659D01*
Y52126D01*
X202548D01*
Y51787D01*
X201278Y51356D01*
X201160Y51510D01*
X199734Y52604D01*
X198073Y53292D01*
X196291Y53527D01*
X194509Y53292D01*
X192849Y52604D01*
X191423Y51510D01*
X190329Y50084D01*
X189960Y49194D01*
X185985D01*
X183719Y51460D01*
Y53379D01*
X182835Y55515D01*
X181200Y57149D01*
X179065Y58033D01*
X176754D01*
X174618Y57149D01*
X172984Y55515D01*
X172099Y53379D01*
Y51068D01*
X172984Y48932D01*
X174618Y47298D01*
X176754Y46413D01*
X178673D01*
X181984Y43103D01*
X183141Y42329D01*
X184507Y42057D01*
X189960D01*
X190329Y41167D01*
X191423Y39742D01*
X192090Y39230D01*
X191659Y37960D01*
X154148D01*
X153934Y38173D01*
Y43553D01*
X161572D01*
Y51303D01*
X153822D01*
Y55303D01*
X161572D01*
Y63053D01*
X162779Y63205D01*
X164063D01*
X164123Y63264D01*
Y77067D01*
X172873D01*
Y83067D01*
X164123D01*
Y87067D01*
X172873D01*
Y91471D01*
X211931D01*
Y55099D01*
D02*
G37*
%LPC*%
G36*
X839644Y869907D02*
Y858819D01*
X850732D01*
X849907Y861899D01*
X848175Y864900D01*
X845724Y867350D01*
X842723Y869082D01*
X839644Y869907D01*
D02*
G37*
G36*
X835644D02*
X832564Y869082D01*
X829564Y867350D01*
X827113Y864900D01*
X825381Y861899D01*
X824556Y858819D01*
X835644D01*
Y869907D01*
D02*
G37*
G36*
X850732Y854819D02*
X839644D01*
Y843731D01*
X842723Y844556D01*
X845724Y846289D01*
X848175Y848739D01*
X849907Y851740D01*
X850732Y854819D01*
D02*
G37*
G36*
X835644D02*
X824556D01*
X825381Y851740D01*
X827113Y848739D01*
X829564Y846289D01*
X832564Y844556D01*
X835644Y843731D01*
Y854819D01*
D02*
G37*
G36*
X757620Y844003D02*
X746470D01*
Y824003D01*
X757620D01*
Y844003D01*
D02*
G37*
G36*
X772770Y820003D02*
X761620D01*
Y800003D01*
X772770D01*
Y820003D01*
D02*
G37*
G36*
X757620D02*
X746470D01*
Y800003D01*
X757620D01*
Y820003D01*
D02*
G37*
G36*
X754347Y796589D02*
X745847D01*
Y788589D01*
X754347D01*
Y796589D01*
D02*
G37*
G36*
X40518Y688828D02*
Y680501D01*
X48845D01*
X48296Y682551D01*
X46915Y684944D01*
X44961Y686897D01*
X42568Y688279D01*
X40518Y688828D01*
D02*
G37*
G36*
X36518D02*
X34468Y688279D01*
X32075Y686897D01*
X30122Y684944D01*
X28740Y682551D01*
X28191Y680501D01*
X36518D01*
Y688828D01*
D02*
G37*
G36*
X48845Y676501D02*
X40518D01*
Y668174D01*
X42568Y668723D01*
X44961Y670104D01*
X46915Y672058D01*
X48296Y674451D01*
X48845Y676501D01*
D02*
G37*
G36*
X36518D02*
X28191D01*
X28740Y674451D01*
X30122Y672058D01*
X32075Y670104D01*
X34468Y668723D01*
X36518Y668174D01*
Y676501D01*
D02*
G37*
G36*
X40518Y663428D02*
Y655101D01*
X48845D01*
X48296Y657151D01*
X46915Y659544D01*
X44961Y661497D01*
X42568Y662879D01*
X40518Y663428D01*
D02*
G37*
G36*
X36518D02*
X34468Y662879D01*
X32075Y661497D01*
X30122Y659544D01*
X28740Y657151D01*
X28191Y655101D01*
X36518D01*
Y663428D01*
D02*
G37*
G36*
X48845Y651101D02*
X40518D01*
Y642774D01*
X42568Y643323D01*
X44961Y644704D01*
X46915Y646658D01*
X48296Y649051D01*
X48845Y651101D01*
D02*
G37*
G36*
X36518D02*
X28191D01*
X28740Y649051D01*
X30122Y646658D01*
X32075Y644704D01*
X34468Y643323D01*
X36518Y642774D01*
Y651101D01*
D02*
G37*
G36*
X50673Y631152D02*
X42632D01*
Y626041D01*
X50673D01*
Y631152D01*
D02*
G37*
G36*
X38632D02*
X30591D01*
Y626041D01*
X38632D01*
Y631152D01*
D02*
G37*
G36*
X50673Y622041D02*
X42632D01*
Y616931D01*
X50673D01*
Y622041D01*
D02*
G37*
G36*
X38632D02*
X30591D01*
Y616931D01*
X38632D01*
Y622041D01*
D02*
G37*
G36*
X878209Y570600D02*
X874391D01*
X870703Y569612D01*
X867397Y567703D01*
X864697Y565003D01*
X862788Y561697D01*
X862413Y560297D01*
X860898Y559550D01*
X859808Y560001D01*
X857497D01*
X855361Y559117D01*
X853727Y557482D01*
X852843Y555347D01*
Y553035D01*
X853727Y550900D01*
X855361Y549266D01*
X857497Y548381D01*
X859808D01*
X861944Y549266D01*
X862195Y549516D01*
X863454Y549351D01*
X864697Y547197D01*
X867397Y544497D01*
X870703Y542588D01*
X874391Y541600D01*
X878209D01*
X881897Y542588D01*
X885203Y544497D01*
X887903Y547197D01*
X889812Y550503D01*
X890800Y554191D01*
Y558009D01*
X889812Y561697D01*
X887903Y565003D01*
X885203Y567703D01*
X881897Y569612D01*
X878209Y570600D01*
D02*
G37*
G36*
Y519800D02*
X874391D01*
X870703Y518812D01*
X867397Y516903D01*
X864697Y514203D01*
X862788Y510897D01*
X862046Y508128D01*
X854640D01*
X854023Y508744D01*
X851888Y509629D01*
X849577D01*
X847441Y508744D01*
X845807Y507110D01*
X844922Y504975D01*
Y502663D01*
X845807Y500528D01*
X847441Y498894D01*
X849577Y498009D01*
X851888D01*
X854023Y498894D01*
X855658Y500528D01*
X855850Y500991D01*
X862443D01*
X862788Y499703D01*
X864697Y496397D01*
X867397Y493697D01*
X870703Y491788D01*
X874391Y490800D01*
X878209D01*
X881897Y491788D01*
X885203Y493697D01*
X887903Y496397D01*
X889812Y499703D01*
X890800Y503391D01*
Y507209D01*
X889812Y510897D01*
X887903Y514203D01*
X885203Y516903D01*
X881897Y518812D01*
X878209Y519800D01*
D02*
G37*
G36*
X859556Y468516D02*
X857244D01*
X855109Y467631D01*
X853475Y465997D01*
X852590Y463861D01*
Y461550D01*
X853475Y459415D01*
X855109Y457780D01*
X857244Y456896D01*
X859556D01*
X861691Y457780D01*
X862916Y459005D01*
X865982D01*
Y457648D01*
X886618D01*
Y467236D01*
X865982D01*
Y466142D01*
X863180D01*
X861691Y467631D01*
X859556Y468516D01*
D02*
G37*
G36*
X904513Y458992D02*
X889013D01*
Y453310D01*
X886618D01*
Y454536D01*
X865982D01*
Y444948D01*
X886618D01*
Y446173D01*
X889013D01*
Y440492D01*
X904513D01*
Y458992D01*
D02*
G37*
G36*
X874300Y430136D02*
X864982D01*
Y426342D01*
X874300D01*
Y430136D01*
D02*
G37*
G36*
X880470Y406466D02*
X873470D01*
Y398466D01*
X880470D01*
Y406466D01*
D02*
G37*
G36*
X763476Y314244D02*
X754157D01*
Y310450D01*
X763476D01*
Y314244D01*
D02*
G37*
G36*
X750157D02*
X740839D01*
Y310450D01*
X750157D01*
Y314244D01*
D02*
G37*
G36*
X763476Y306450D02*
X754157D01*
Y302656D01*
X763476D01*
Y306450D01*
D02*
G37*
G36*
X760000Y299400D02*
X753000D01*
Y291400D01*
X760000D01*
Y299400D01*
D02*
G37*
G36*
Y287400D02*
X753000D01*
Y279400D01*
X760000D01*
Y287400D01*
D02*
G37*
G36*
X933623Y856295D02*
X926623D01*
Y842795D01*
X933623D01*
Y856295D01*
D02*
G37*
G36*
Y838795D02*
X926623D01*
Y825295D01*
X933623D01*
Y838795D01*
D02*
G37*
G36*
Y801295D02*
X926623D01*
Y787795D01*
X933623D01*
Y801295D01*
D02*
G37*
G36*
Y783795D02*
X926623D01*
Y770295D01*
X933623D01*
Y783795D01*
D02*
G37*
G36*
X874153Y733977D02*
X870153D01*
Y725727D01*
X874153D01*
Y733977D01*
D02*
G37*
G36*
X879970Y707127D02*
Y699377D01*
X885720D01*
Y707127D01*
X879970D01*
D02*
G37*
G36*
X885720Y695377D02*
X879970D01*
Y687627D01*
X885720D01*
Y695377D01*
D02*
G37*
G36*
X113750Y973500D02*
X89450D01*
Y936547D01*
X73677Y920773D01*
X72903Y919616D01*
X72631Y918250D01*
Y900355D01*
X70603Y899812D01*
X67297Y897903D01*
X64597Y895203D01*
X62688Y891897D01*
X61700Y888209D01*
Y884391D01*
X62688Y880703D01*
X64597Y877397D01*
X67297Y874697D01*
X70603Y872788D01*
X74291Y871800D01*
X78109D01*
X81797Y872788D01*
X85103Y874697D01*
X87803Y877397D01*
X89712Y880703D01*
X90700Y884391D01*
Y888209D01*
X89712Y891897D01*
X87803Y895203D01*
X85103Y897903D01*
X81797Y899812D01*
X79769Y900355D01*
Y916772D01*
X94497Y931500D01*
X113750D01*
Y948755D01*
X116002D01*
X117359Y947398D01*
X119494Y946513D01*
X121806D01*
X123941Y947398D01*
X125576Y949032D01*
X126460Y951168D01*
Y953479D01*
X125576Y955614D01*
X123941Y957249D01*
X121806Y958133D01*
X119494D01*
X117359Y957249D01*
X116002Y955892D01*
X113750D01*
Y973500D01*
D02*
G37*
G36*
X951674Y967000D02*
X948326D01*
X945041Y966347D01*
X941947Y965065D01*
X939163Y963205D01*
X936795Y960837D01*
X934935Y958053D01*
X933653Y954959D01*
X933000Y951674D01*
Y948326D01*
X933653Y945041D01*
X934935Y941947D01*
X936795Y939163D01*
X939163Y936795D01*
X941947Y934935D01*
X945041Y933653D01*
X948326Y933000D01*
X951674D01*
X954959Y933653D01*
X958053Y934935D01*
X960837Y936795D01*
X963205Y939163D01*
X965065Y941947D01*
X966347Y945041D01*
X967000Y948326D01*
Y951674D01*
X966347Y954959D01*
X965065Y958053D01*
X963205Y960837D01*
X960837Y963205D01*
X958053Y965065D01*
X954959Y966347D01*
X951674Y967000D01*
D02*
G37*
G36*
X51674D02*
X48326D01*
X45041Y966347D01*
X41947Y965065D01*
X39163Y963205D01*
X36795Y960837D01*
X34935Y958053D01*
X33653Y954959D01*
X33000Y951674D01*
Y948326D01*
X33653Y945041D01*
X34935Y941947D01*
X36795Y939163D01*
X39163Y936795D01*
X41947Y934935D01*
X45041Y933653D01*
X48326Y933000D01*
X51674D01*
X54959Y933653D01*
X58053Y934935D01*
X60837Y936795D01*
X63205Y939163D01*
X65065Y941947D01*
X66347Y945041D01*
X67000Y948326D01*
Y951674D01*
X66347Y954959D01*
X65065Y958053D01*
X63205Y960837D01*
X60837Y963205D01*
X58053Y965065D01*
X54959Y966347D01*
X51674Y967000D01*
D02*
G37*
G36*
X839245Y931476D02*
X836043D01*
X832950Y930647D01*
X830178Y929046D01*
X827914Y926782D01*
X826312Y924009D01*
X825484Y920917D01*
Y917715D01*
X826312Y914622D01*
X827914Y911849D01*
X830178Y909585D01*
X832950Y907984D01*
X836043Y907156D01*
X839245D01*
X842337Y907984D01*
X845110Y909585D01*
X847374Y911849D01*
X848975Y914622D01*
X849804Y917715D01*
Y920917D01*
X848975Y924009D01*
X847374Y926782D01*
X845110Y929046D01*
X842337Y930647D01*
X839245Y931476D01*
D02*
G37*
G36*
X960800Y913850D02*
X918800D01*
Y889550D01*
X960800D01*
Y898131D01*
X968036D01*
X969392Y896775D01*
X971528Y895890D01*
X973839D01*
X975975Y896775D01*
X977609Y898409D01*
X978493Y900544D01*
Y902856D01*
X977609Y904991D01*
X975975Y906626D01*
X973839Y907510D01*
X971528D01*
X969392Y906626D01*
X968036Y905269D01*
X960800D01*
Y913850D01*
D02*
G37*
G36*
X177800Y852939D02*
X82843D01*
X82646Y852900D01*
X82445D01*
X82260Y852823D01*
X82063Y852784D01*
X81896Y852672D01*
X81710Y852596D01*
X81568Y852454D01*
X81401Y852342D01*
X81290Y852175D01*
X81148Y852033D01*
X81071Y851847D01*
X80959Y851680D01*
X80920Y851483D01*
X80843Y851298D01*
X80708Y850618D01*
X79569Y849712D01*
X79486Y849686D01*
X79348Y849668D01*
X78109Y850000D01*
X74291D01*
X73052Y849668D01*
X72913Y849686D01*
X72831Y849711D01*
X71692Y850618D01*
X71557Y851298D01*
X71480Y851483D01*
X71441Y851680D01*
X71329Y851847D01*
X71252Y852033D01*
X71110Y852175D01*
X70999Y852342D01*
X70832Y852454D01*
X70690Y852596D01*
X70504Y852672D01*
X70337Y852784D01*
X70140Y852823D01*
X69955Y852900D01*
X69754D01*
X69557Y852939D01*
X21569D01*
X20789Y852784D01*
X20127Y852342D01*
X19685Y851680D01*
X19530Y850900D01*
Y762000D01*
X19685Y761220D01*
X20127Y760558D01*
X20789Y760116D01*
X21569Y759961D01*
X177800D01*
X178580Y760116D01*
X179242Y760558D01*
X179684Y761220D01*
X179839Y762000D01*
Y850900D01*
X179684Y851680D01*
X179242Y852342D01*
X178580Y852784D01*
X177800Y852939D01*
D02*
G37*
G36*
X969623Y856295D02*
X962623D01*
Y842795D01*
X969623D01*
Y856295D01*
D02*
G37*
G36*
X958623D02*
X951623D01*
Y842795D01*
X958623D01*
Y856295D01*
D02*
G37*
G36*
X969623Y838795D02*
X962623D01*
Y825295D01*
X969623D01*
Y838795D01*
D02*
G37*
G36*
X958623D02*
X951623D01*
Y825295D01*
X958623D01*
Y838795D01*
D02*
G37*
G36*
X707786Y812260D02*
X705475D01*
X703340Y811376D01*
X701705Y809741D01*
X700821Y807606D01*
Y805294D01*
X701705Y803159D01*
X703340Y801525D01*
X705475Y800640D01*
X707786D01*
X709922Y801525D01*
X710395Y801997D01*
X711972D01*
X714787Y799183D01*
Y787729D01*
X726787D01*
Y804229D01*
X719834D01*
X715974Y808089D01*
X714816Y808863D01*
X713450Y809135D01*
X711807D01*
X711556Y809741D01*
X709922Y811376D01*
X707786Y812260D01*
D02*
G37*
G36*
X624209Y811900D02*
X620391D01*
X616703Y810912D01*
X613397Y809003D01*
X610697Y806303D01*
X608788Y802997D01*
X607800Y799309D01*
Y795491D01*
X608788Y791803D01*
X610697Y788497D01*
X613397Y785797D01*
X616703Y783888D01*
X620391Y782900D01*
X624209D01*
X627897Y783888D01*
X631203Y785797D01*
X633903Y788497D01*
X635812Y791803D01*
X636800Y795491D01*
Y799309D01*
X635812Y802997D01*
X633903Y806303D01*
X631203Y809003D01*
X627897Y810912D01*
X624209Y811900D01*
D02*
G37*
G36*
X968623Y800295D02*
X952623D01*
Y771295D01*
X968623D01*
Y800295D01*
D02*
G37*
G36*
X219029Y797736D02*
X216718D01*
X214583Y796851D01*
X212948Y795217D01*
X212064Y793082D01*
Y790770D01*
X212948Y788635D01*
X214415Y787169D01*
X214266Y786374D01*
X214025Y785899D01*
X208571D01*
X207205Y785627D01*
X206047Y784853D01*
X202024Y780830D01*
X189571D01*
Y766830D01*
X207071D01*
X208071Y766178D01*
Y765830D01*
X215821D01*
Y773830D01*
X219821D01*
Y765830D01*
X227571D01*
Y775704D01*
X228761Y776225D01*
X229508Y775623D01*
Y766802D01*
X247008D01*
Y780802D01*
X234555D01*
X230503Y784853D01*
X229345Y785627D01*
X227980Y785899D01*
X221844D01*
Y787679D01*
X222799Y788635D01*
X223684Y790770D01*
Y793082D01*
X222799Y795217D01*
X221165Y796851D01*
X219029Y797736D01*
D02*
G37*
G36*
X430169Y768750D02*
X388169D01*
Y744450D01*
X430169D01*
Y753237D01*
X541021D01*
X542378Y751880D01*
X544513Y750996D01*
X546824D01*
X548960Y751880D01*
X550594Y753515D01*
X551479Y755650D01*
Y757961D01*
X550594Y760097D01*
X548960Y761731D01*
X546824Y762616D01*
X544513D01*
X542378Y761731D01*
X541021Y760374D01*
X430169D01*
Y768750D01*
D02*
G37*
G36*
X766760Y749104D02*
X759010D01*
Y743104D01*
X766760D01*
Y749104D01*
D02*
G37*
G36*
X193371Y743328D02*
X185621D01*
Y737578D01*
X193371D01*
Y743328D01*
D02*
G37*
G36*
X181621D02*
X173871D01*
Y737578D01*
X181621D01*
Y743328D01*
D02*
G37*
G36*
X766760Y739104D02*
X759010D01*
Y733104D01*
X766760D01*
Y739104D01*
D02*
G37*
G36*
X755010D02*
X747260D01*
Y733104D01*
X755010D01*
Y739104D01*
D02*
G37*
G36*
X205770Y734077D02*
X202452D01*
Y730822D01*
X202724Y729458D01*
X203496Y728302D01*
X204652Y727530D01*
X205770Y727308D01*
Y734077D01*
D02*
G37*
G36*
X155153Y669435D02*
X147403D01*
Y663435D01*
X155153D01*
Y669435D01*
D02*
G37*
G36*
X143403D02*
X135653D01*
Y663435D01*
X143403D01*
Y669435D01*
D02*
G37*
G36*
X714087Y667450D02*
X713087D01*
X712817Y667450D01*
X695087D01*
Y661269D01*
X692016D01*
X690659Y662626D01*
X688524Y663510D01*
X686212D01*
X684077Y662626D01*
X682443Y660991D01*
X681558Y658856D01*
Y656544D01*
X682443Y654409D01*
X684077Y652775D01*
X686212Y651890D01*
X688524D01*
X690659Y652775D01*
X692016Y654131D01*
X695087D01*
Y647950D01*
X712817D01*
X713087Y647950D01*
X714087D01*
X714357Y647950D01*
X732087D01*
Y667450D01*
X714357D01*
X714087Y667450D01*
D02*
G37*
G36*
X409669Y664750D02*
X408669D01*
X408399Y664750D01*
X390669D01*
Y658629D01*
X334308D01*
X332951Y659986D01*
X330816Y660870D01*
X328504D01*
X326369Y659986D01*
X324734Y658352D01*
X323850Y656216D01*
Y653905D01*
X324734Y651769D01*
X326369Y650135D01*
X328504Y649250D01*
X330816D01*
X332951Y650135D01*
X334308Y651492D01*
X390669D01*
Y645250D01*
X408399D01*
X408669Y645250D01*
X409669D01*
X409939Y645250D01*
X427669D01*
Y649255D01*
X497788D01*
X498004Y648844D01*
X498177Y647984D01*
X496725Y646532D01*
X495840Y644396D01*
Y642085D01*
X496725Y639949D01*
X498359Y638315D01*
X500494Y637431D01*
X502806D01*
X502915Y637476D01*
X506888Y633503D01*
Y630403D01*
X505618Y630150D01*
X504925Y631823D01*
X503291Y633457D01*
X501156Y634342D01*
X498844D01*
X496709Y633457D01*
X495352Y632100D01*
X427669D01*
Y639350D01*
X409939D01*
X409669Y639350D01*
X408669D01*
X408399Y639350D01*
X390669D01*
Y633169D01*
X336824D01*
X333123Y636869D01*
X331965Y637643D01*
X330600Y637915D01*
X277698D01*
X276341Y639272D01*
X274206Y640156D01*
X271894D01*
X269759Y639272D01*
X268193Y637705D01*
X267854Y637731D01*
X266923Y638054D01*
Y641635D01*
X257341D01*
Y644403D01*
X258698Y645760D01*
X259583Y647895D01*
Y650206D01*
X258698Y652342D01*
X257064Y653976D01*
X254928Y654861D01*
X252617D01*
X250482Y653976D01*
X248847Y652342D01*
X248789Y652201D01*
X247519Y652454D01*
Y653956D01*
X239769D01*
Y647956D01*
X246790D01*
X247553Y647916D01*
X248325Y647020D01*
X248847Y645760D01*
X250204Y644403D01*
Y641635D01*
X248423D01*
Y626135D01*
X266923D01*
Y630638D01*
X267854Y630961D01*
X268193Y630987D01*
X269759Y629421D01*
X271894Y628536D01*
X273910D01*
Y623531D01*
X283660D01*
X293410D01*
Y629532D01*
X293410D01*
X293468Y630778D01*
X329122D01*
X332822Y627077D01*
X333980Y626303D01*
X335346Y626031D01*
X390669D01*
Y619850D01*
X408399D01*
X408669Y619850D01*
X409669D01*
X409939Y619850D01*
X427669D01*
Y624963D01*
X495352D01*
X496709Y623606D01*
X498844Y622722D01*
X501156D01*
X503291Y623606D01*
X504925Y625241D01*
X505618Y626913D01*
X506888Y626660D01*
Y619450D01*
Y610450D01*
Y601450D01*
Y592350D01*
Y582669D01*
X504348D01*
X503291Y583726D01*
X501156Y584610D01*
X498844D01*
X496709Y583726D01*
X495075Y582091D01*
X494190Y579956D01*
Y577644D01*
X495075Y575509D01*
X495442Y575142D01*
X494955Y573969D01*
X492771D01*
X491415Y575326D01*
X489279Y576210D01*
X486968D01*
X484832Y575326D01*
X483198Y573691D01*
X482313Y571556D01*
Y569244D01*
X483198Y567109D01*
X484068Y566239D01*
X483542Y564969D01*
X481721D01*
X480364Y566325D01*
X478228Y567210D01*
X475917D01*
X473781Y566325D01*
X472147Y564691D01*
X471263Y562556D01*
Y560244D01*
X472147Y558109D01*
X472667Y557589D01*
X472141Y556319D01*
X427669D01*
Y563150D01*
X409939D01*
X409669Y563150D01*
X408669D01*
X408399Y563150D01*
X390669D01*
Y543650D01*
X408399D01*
X408669Y543650D01*
X409669D01*
X409939Y543650D01*
X427669D01*
Y549182D01*
X453605D01*
X454049Y547911D01*
X452729Y546591D01*
X451844Y544456D01*
Y542144D01*
X452729Y540009D01*
X454363Y538375D01*
X456498Y537490D01*
X458810D01*
X460945Y538375D01*
X462302Y539731D01*
X465495D01*
X466021Y538461D01*
X465151Y537591D01*
X464267Y535456D01*
Y533144D01*
X465151Y531009D01*
X466786Y529375D01*
X468921Y528490D01*
X471232D01*
X473368Y529375D01*
X474725Y530732D01*
X479274D01*
X479527Y529462D01*
X479022Y529252D01*
X477388Y527618D01*
X476503Y525483D01*
Y523171D01*
X477388Y521036D01*
X479022Y519402D01*
X481158Y518517D01*
X483469D01*
X485605Y519402D01*
X487239Y521036D01*
X487326Y521245D01*
X490821D01*
X491347Y519975D01*
X490963Y519591D01*
X490079Y517456D01*
Y515144D01*
X490963Y513009D01*
X492598Y511375D01*
X494733Y510490D01*
X497044D01*
X499180Y511375D01*
X500537Y512732D01*
X506888D01*
Y511250D01*
X523588D01*
Y520250D01*
Y529250D01*
Y538250D01*
Y547350D01*
Y556350D01*
Y565350D01*
Y574350D01*
Y584832D01*
X560084D01*
X561441Y583475D01*
X563577Y582590D01*
X565888D01*
X568023Y583475D01*
X569658Y585109D01*
X570542Y587244D01*
Y589556D01*
X569658Y591691D01*
X568023Y593326D01*
X565888Y594210D01*
X563577D01*
X561441Y593326D01*
X560903Y592788D01*
X560723Y592824D01*
X560242Y594035D01*
X560255Y594212D01*
X561097Y596244D01*
Y598556D01*
X560212Y600691D01*
X558578Y602326D01*
X556442Y603210D01*
X554131D01*
X551996Y602326D01*
X550639Y600969D01*
X542727D01*
X542283Y602239D01*
X543603Y603559D01*
X544488Y605694D01*
Y608006D01*
X543603Y610141D01*
X541969Y611776D01*
X539833Y612660D01*
X537522D01*
X536120Y612079D01*
X535148Y613051D01*
X535829Y614694D01*
Y617006D01*
X534944Y619141D01*
X533310Y620775D01*
X531174Y621660D01*
X528863D01*
X526728Y620775D01*
X525371Y619419D01*
X523588D01*
Y622471D01*
X524570Y623127D01*
X526525Y625081D01*
X540902D01*
X542378Y623606D01*
X544513Y622722D01*
X546824D01*
X548960Y623606D01*
X550594Y625241D01*
X551479Y627376D01*
Y629687D01*
X550594Y631823D01*
X548960Y633457D01*
X546824Y634342D01*
X544513D01*
X542378Y633457D01*
X541139Y632219D01*
X525047D01*
X524858Y632181D01*
X523588Y633223D01*
Y638550D01*
X511935D01*
X507460Y643025D01*
Y644396D01*
X506576Y646532D01*
X505123Y647984D01*
X505297Y648844D01*
X505512Y649255D01*
X560084D01*
X561441Y647898D01*
X563577Y647013D01*
X565888D01*
X568023Y647898D01*
X569658Y649532D01*
X570542Y651667D01*
Y653979D01*
X569658Y656114D01*
X568023Y657748D01*
X565888Y658633D01*
X563577D01*
X561441Y657748D01*
X560084Y656392D01*
X427669D01*
Y664750D01*
X409939D01*
X409669Y664750D01*
D02*
G37*
G36*
X215679Y663956D02*
X207929D01*
Y657956D01*
X215679D01*
Y663956D01*
D02*
G37*
G36*
X206169D02*
X198419D01*
Y657956D01*
X206169D01*
Y663956D01*
D02*
G37*
G36*
X155153Y659435D02*
X147403D01*
Y653435D01*
X155153D01*
Y659435D01*
D02*
G37*
G36*
X143403D02*
X135653D01*
Y653435D01*
X143403D01*
Y659435D01*
D02*
G37*
G36*
X215679Y653956D02*
X207929D01*
Y647956D01*
X215679D01*
Y653956D01*
D02*
G37*
G36*
X206169D02*
X198419D01*
Y647956D01*
X206169D01*
Y653956D01*
D02*
G37*
G36*
X194419D02*
X186669D01*
Y647956D01*
X194419D01*
Y653956D01*
D02*
G37*
G36*
X180053Y651685D02*
X161553D01*
Y647004D01*
X154153D01*
Y650435D01*
X136653D01*
Y636435D01*
X154153D01*
Y639867D01*
X161553D01*
Y636185D01*
X167235D01*
Y626485D01*
X145748D01*
X145403Y626554D01*
X145058Y626485D01*
X137103D01*
Y607145D01*
X135930Y606659D01*
X127658Y614931D01*
Y627385D01*
X113658D01*
Y609885D01*
X122611D01*
X124910Y607586D01*
X124424Y606412D01*
X114121D01*
Y588912D01*
X128121D01*
Y593495D01*
X129391Y593845D01*
X140020Y583216D01*
X139494Y581946D01*
X128221D01*
Y587127D01*
X114221D01*
Y569627D01*
X128221D01*
Y574809D01*
X136809D01*
X137335Y573539D01*
X131874Y568077D01*
X94921D01*
Y566507D01*
X93769Y566222D01*
Y566222D01*
X75769D01*
Y547222D01*
X93769D01*
Y547222D01*
X94921Y546937D01*
Y543777D01*
X136921D01*
Y563031D01*
X141441Y567551D01*
X142036Y567463D01*
X142149Y567395D01*
X142961Y566098D01*
X142817Y565377D01*
X143105Y563932D01*
X143923Y562707D01*
Y561548D01*
X143105Y560322D01*
X142817Y558877D01*
X143105Y557432D01*
X143923Y556207D01*
Y555047D01*
X143105Y553822D01*
X142817Y552377D01*
X143105Y550932D01*
X143923Y549707D01*
X143753Y548293D01*
X143109Y547329D01*
X139938Y544158D01*
X139650Y543727D01*
X138286Y543162D01*
X136652Y541528D01*
X135767Y539393D01*
Y537081D01*
X136652Y534946D01*
X138286Y533312D01*
X140421Y532427D01*
X142733D01*
X144868Y533312D01*
X146503Y534946D01*
X147387Y537081D01*
Y539393D01*
X146766Y540893D01*
X147974Y542101D01*
X156740D01*
X158185Y542388D01*
X159410Y543207D01*
X160229Y544432D01*
X160516Y545877D01*
X160229Y547322D01*
X159410Y548548D01*
Y549707D01*
X160229Y550932D01*
X160516Y552377D01*
X160229Y553822D01*
X159410Y555047D01*
Y556207D01*
X160229Y557432D01*
X160516Y558877D01*
X160229Y560322D01*
X159410Y561548D01*
Y562707D01*
X160229Y563932D01*
X160516Y565377D01*
X160229Y566822D01*
X159410Y568047D01*
Y569207D01*
X160229Y570432D01*
X160516Y571877D01*
X160229Y573322D01*
X159410Y574548D01*
Y575707D01*
X160229Y576932D01*
X160516Y578377D01*
X160229Y579822D01*
X159580Y580793D01*
X159410Y582207D01*
X160229Y583432D01*
X160516Y584877D01*
X160229Y586322D01*
X160175Y586403D01*
X160444Y587673D01*
X160444D01*
X160444Y587673D01*
Y595081D01*
X151808D01*
X151463Y595150D01*
X147440D01*
X141577Y601012D01*
X142063Y602185D01*
X179103D01*
Y610767D01*
X182021D01*
X183378Y609410D01*
X185513Y608525D01*
X187825D01*
X189960Y609410D01*
X191595Y611044D01*
X192479Y613180D01*
Y615491D01*
X191595Y617626D01*
X189960Y619261D01*
X187825Y620145D01*
X185513D01*
X183378Y619261D01*
X182021Y617904D01*
X179103D01*
Y626485D01*
X174372D01*
Y636185D01*
X180053D01*
Y651685D01*
D02*
G37*
G36*
X242023Y642135D02*
X234273D01*
Y636135D01*
X242023D01*
Y642135D01*
D02*
G37*
G36*
X230273D02*
X222523D01*
Y636135D01*
X230273D01*
Y642135D01*
D02*
G37*
G36*
X232273Y634135D02*
D01*
D01*
D01*
D02*
G37*
G36*
X700169Y641250D02*
X694419D01*
Y633500D01*
X700169D01*
Y641250D01*
D02*
G37*
G36*
X242023Y632135D02*
X234273D01*
Y626135D01*
X242023D01*
Y632135D01*
D02*
G37*
G36*
X230273D02*
X222523D01*
Y626135D01*
X230273D01*
Y632135D01*
D02*
G37*
G36*
X700169Y629500D02*
X694419D01*
Y621750D01*
X700169D01*
Y629500D01*
D02*
G37*
G36*
X110658Y628385D02*
X104658D01*
Y620635D01*
X110658D01*
Y628385D01*
D02*
G37*
G36*
X100658D02*
X94658D01*
Y620635D01*
X100658D01*
Y628385D01*
D02*
G37*
G36*
X266923Y624135D02*
X248423D01*
Y619704D01*
X241023D01*
Y623135D01*
X223523D01*
Y609135D01*
X228704D01*
Y599185D01*
X223973D01*
Y590604D01*
X221473D01*
X220107Y590332D01*
X218949Y589559D01*
X216744Y587353D01*
X215757Y588162D01*
X216569Y589377D01*
X197511D01*
X197350Y588942D01*
X197084Y588446D01*
X191317D01*
X189960Y589803D01*
X187825Y590687D01*
X185513D01*
X183378Y589803D01*
X181744Y588168D01*
X180859Y586033D01*
Y583722D01*
X181744Y581586D01*
X183378Y579952D01*
X185513Y579067D01*
X187825D01*
X189960Y579952D01*
X191317Y581309D01*
X198078D01*
X198757Y580039D01*
X198612Y579822D01*
X198325Y578377D01*
X198612Y576932D01*
X199431Y575707D01*
Y574548D01*
X198612Y573322D01*
X198325Y571877D01*
X198612Y570432D01*
X199431Y569207D01*
Y568047D01*
X198612Y566822D01*
X198325Y565377D01*
X198612Y563932D01*
X199431Y562707D01*
Y561548D01*
X198612Y560322D01*
X198325Y558877D01*
X198612Y557432D01*
X199431Y556207D01*
Y555047D01*
X198612Y553822D01*
X198325Y552377D01*
X198612Y550932D01*
X198757Y550716D01*
X198078Y549446D01*
X174625D01*
X173260Y549174D01*
X172102Y548401D01*
X159559Y535858D01*
X158786Y534700D01*
X158514Y533335D01*
Y530400D01*
X123583D01*
Y506100D01*
X141014D01*
Y496227D01*
X134583D01*
Y476227D01*
X154583D01*
Y496227D01*
X148151D01*
Y506100D01*
X165583D01*
Y526555D01*
X165651Y526900D01*
Y531856D01*
X169851Y536056D01*
X171121Y535530D01*
Y512177D01*
X188552D01*
Y496227D01*
X182121D01*
Y476227D01*
X202121D01*
Y496227D01*
X195689D01*
Y512177D01*
X213121D01*
Y531430D01*
X219409Y537719D01*
X221018Y537737D01*
X227325Y531430D01*
Y512177D01*
X244757D01*
Y496227D01*
X232921D01*
Y476227D01*
X252921D01*
Y496227D01*
X251894D01*
Y512177D01*
X269325D01*
Y536477D01*
X232372D01*
X226183Y542666D01*
Y549370D01*
X225911Y550736D01*
X225888Y550771D01*
X225749Y551469D01*
X224975Y552627D01*
X217498Y560104D01*
X216848Y560539D01*
X217233Y561809D01*
X228481D01*
Y543777D01*
X270480D01*
Y552359D01*
X273342D01*
X283721Y541981D01*
Y527027D01*
X303721D01*
Y547027D01*
X288767D01*
X277344Y558451D01*
X276186Y559224D01*
X274821Y559496D01*
X270480D01*
Y568077D01*
X271655Y568309D01*
X275360D01*
Y562303D01*
X317360D01*
Y586603D01*
X287229D01*
Y596532D01*
X292410D01*
Y599963D01*
X300240D01*
Y595532D01*
X318740D01*
Y611032D01*
X300240D01*
Y607100D01*
X292410D01*
Y610532D01*
X274910D01*
Y596532D01*
X280092D01*
Y586603D01*
X275360D01*
Y575446D01*
X265973D01*
Y599185D01*
X235841D01*
Y609135D01*
X241023D01*
Y612567D01*
X248423D01*
Y608635D01*
X266923D01*
Y624135D01*
D02*
G37*
G36*
X648856Y653510D02*
X646544D01*
X644409Y652626D01*
X642775Y650991D01*
X641890Y648856D01*
Y646544D01*
X642775Y644409D01*
X644131Y643052D01*
Y638550D01*
X639268D01*
Y628450D01*
Y619450D01*
Y612550D01*
X638268D01*
Y608500D01*
X656968D01*
Y612550D01*
X655968D01*
Y620623D01*
X681972D01*
X681985Y620592D01*
X683619Y618958D01*
X685754Y618074D01*
X688066D01*
X690201Y618958D01*
X691836Y620592D01*
X692720Y622728D01*
Y625039D01*
X691836Y627175D01*
X690201Y628809D01*
X688066Y629694D01*
X685754D01*
X683619Y628809D01*
X682570Y627760D01*
X655968D01*
Y638550D01*
X651269D01*
Y643052D01*
X652626Y644409D01*
X653510Y646544D01*
Y648856D01*
X652626Y650991D01*
X650991Y652626D01*
X648856Y653510D01*
D02*
G37*
G36*
X318740Y628532D02*
X300240D01*
Y613032D01*
X318740D01*
Y615910D01*
X325012D01*
X326369Y614553D01*
X328504Y613669D01*
X330816D01*
X332951Y614553D01*
X334585Y616188D01*
X335470Y618323D01*
Y620635D01*
X334585Y622770D01*
X332951Y624404D01*
X330816Y625289D01*
X328504D01*
X326369Y624404D01*
X325012Y623047D01*
X318740D01*
Y628532D01*
D02*
G37*
G36*
X293410Y619532D02*
X285660D01*
Y613532D01*
X293410D01*
Y619532D01*
D02*
G37*
G36*
X281660D02*
X273910D01*
Y613532D01*
X281660D01*
Y619532D01*
D02*
G37*
G36*
X709919Y641250D02*
X709767Y641250D01*
X704169D01*
Y631500D01*
Y621750D01*
X709919Y621750D01*
X710571Y622750D01*
X711189Y622750D01*
X713600D01*
Y613028D01*
X710419D01*
X709919Y614028D01*
X704169D01*
Y604278D01*
X702169D01*
Y602278D01*
X694419D01*
Y597597D01*
X692015D01*
X689688Y599923D01*
X688530Y600697D01*
X687165Y600969D01*
X656968D01*
Y604500D01*
X638268D01*
Y600450D01*
X639268D01*
Y592350D01*
Y583350D01*
Y574350D01*
Y565350D01*
Y556350D01*
Y547350D01*
Y538250D01*
Y529250D01*
Y519580D01*
X637085D01*
X636017Y520648D01*
X633882Y521532D01*
X631571D01*
X629435Y520648D01*
X627801Y519013D01*
X626916Y516878D01*
Y514566D01*
X627801Y512431D01*
X629002Y511230D01*
X628476Y509960D01*
X513278D01*
Y500329D01*
X476261D01*
X475710Y501153D01*
Y503464D01*
X474826Y505600D01*
X473191Y507234D01*
X471056Y508119D01*
X468744D01*
X466609Y507234D01*
X465252Y505877D01*
X427669D01*
Y512350D01*
X409669D01*
Y512350D01*
X408669D01*
Y512350D01*
X390669D01*
Y495710D01*
X388471D01*
X386336Y494826D01*
X384701Y493191D01*
X383817Y491056D01*
Y488744D01*
X384701Y486609D01*
X386336Y484975D01*
X388471Y484090D01*
X390669D01*
Y467450D01*
X408669D01*
Y467450D01*
X409669D01*
Y467450D01*
X427669D01*
Y472356D01*
X434507D01*
X435872Y472628D01*
X437030Y473402D01*
X437485Y473857D01*
X440418D01*
X441162Y472586D01*
X440527Y471056D01*
Y468744D01*
X441412Y466609D01*
X443046Y464975D01*
X445182Y464090D01*
X447493D01*
X449629Y464975D01*
X450985Y466331D01*
X463355D01*
X464204Y465061D01*
X463659Y463746D01*
Y461434D01*
X464543Y459299D01*
X466178Y457664D01*
X468313Y456780D01*
X470624D01*
X472760Y457664D01*
X474117Y459021D01*
X505176D01*
X505429Y457751D01*
X505104Y457617D01*
X503470Y455983D01*
X502586Y453847D01*
Y451536D01*
X503470Y449401D01*
X505104Y447766D01*
X507240Y446882D01*
X509551D01*
X511687Y447766D01*
X512705Y448784D01*
X514155D01*
X515004Y447514D01*
X514459Y446198D01*
Y443887D01*
X515343Y441752D01*
X516978Y440117D01*
X519113Y439233D01*
X521424D01*
X523560Y440117D01*
X524917Y441474D01*
X537967D01*
X538383Y441196D01*
X539749Y440925D01*
X561708D01*
X561859Y440773D01*
X563994Y439889D01*
X565691D01*
X566306Y439889D01*
X566752Y438715D01*
X566159Y438470D01*
X565183Y438065D01*
X563826Y436709D01*
X563059D01*
X561693Y436437D01*
X560535Y435663D01*
X550372Y425500D01*
X535919D01*
Y407770D01*
X535919Y407500D01*
Y406500D01*
X535919Y406230D01*
Y388500D01*
X555419D01*
Y406230D01*
X555419Y406500D01*
Y407500D01*
X555419Y407770D01*
Y420453D01*
X560049Y425083D01*
X561319Y424557D01*
Y407770D01*
X561319Y407500D01*
Y406500D01*
X561319Y406230D01*
Y388500D01*
X580819D01*
Y406230D01*
X580819Y406500D01*
Y407500D01*
X580819Y407770D01*
Y421655D01*
X580887Y422000D01*
Y426466D01*
X581251Y426617D01*
X582886Y428251D01*
X583770Y430386D01*
Y430442D01*
X585040Y430695D01*
X585625Y429284D01*
X587259Y427650D01*
X589394Y426766D01*
X589384Y425500D01*
X586719D01*
Y407770D01*
X586719Y407500D01*
Y406500D01*
X586719Y406230D01*
Y388500D01*
X592900D01*
Y375200D01*
X586369D01*
Y356200D01*
X604369D01*
Y375200D01*
X600037D01*
Y388500D01*
X606219D01*
Y406230D01*
X606219Y406500D01*
Y407500D01*
X606219Y407770D01*
Y425500D01*
X600037D01*
Y426294D01*
X599766Y427659D01*
X598992Y428817D01*
X596360Y431449D01*
Y433731D01*
X595476Y435867D01*
X593841Y437501D01*
X591706Y438386D01*
X589394D01*
X587259Y437501D01*
X585625Y435867D01*
X584740Y433731D01*
Y433675D01*
X583470Y433423D01*
X582886Y434833D01*
X581251Y436468D01*
X579116Y437352D01*
X576805D01*
X574669Y436468D01*
X574659Y436457D01*
X573118Y436712D01*
X571765Y438065D01*
X569630Y438950D01*
X567933D01*
X567318Y438950D01*
X566872Y440123D01*
X567465Y440369D01*
X568441Y440773D01*
X570075Y442408D01*
X570960Y444543D01*
Y446854D01*
X570075Y448990D01*
X568441Y450624D01*
X566306Y451509D01*
X563994D01*
X561859Y450624D01*
X560413Y449178D01*
X560080Y449146D01*
X559242Y450211D01*
X559217Y450382D01*
X559327Y450648D01*
Y452959D01*
X558443Y455094D01*
X556808Y456729D01*
X554673Y457613D01*
X552362D01*
X550226Y456729D01*
X548868Y455370D01*
X525080D01*
X524662Y455650D01*
X523297Y455921D01*
X513347D01*
X513321Y455983D01*
X511687Y457617D01*
X511363Y457751D01*
X511615Y459021D01*
X539004D01*
X539619Y458406D01*
X541755Y457522D01*
X544066D01*
X546202Y458406D01*
X547836Y460041D01*
X548720Y462176D01*
Y464488D01*
X547836Y466623D01*
X546202Y468257D01*
X544066Y469142D01*
X541755D01*
X539619Y468257D01*
X538273Y466911D01*
X537500Y466869D01*
X536814Y467676D01*
X536681Y468105D01*
X536945Y468744D01*
Y471056D01*
X536061Y473191D01*
X534426Y474826D01*
X532291Y475710D01*
X529980D01*
X527844Y474826D01*
X526487Y473469D01*
X487657D01*
X486913Y474739D01*
X487547Y476269D01*
Y478581D01*
X487002Y479896D01*
X487851Y481166D01*
X515803D01*
X517169Y481438D01*
X518326Y482212D01*
X526168Y490053D01*
X527244Y489334D01*
X526893Y488486D01*
Y486174D01*
X527778Y484039D01*
X529412Y482405D01*
X531547Y481520D01*
X533859D01*
X535775Y482314D01*
X536572Y482290D01*
X537213Y482162D01*
X538847Y480528D01*
X540983Y479643D01*
X543294D01*
X545429Y480528D01*
X547064Y482162D01*
X547948Y484298D01*
Y486609D01*
X547697Y487215D01*
X547852Y487370D01*
X548625Y488528D01*
X548897Y489893D01*
Y493260D01*
X550860D01*
Y490527D01*
X551131Y489161D01*
X551905Y488003D01*
X551972Y487937D01*
X551720Y487330D01*
Y485019D01*
X552605Y482883D01*
X554239Y481249D01*
X556375Y480364D01*
X558686D01*
X559474Y480691D01*
X560446Y479719D01*
X560078Y478830D01*
Y476518D01*
X560962Y474383D01*
X562597Y472748D01*
X564732Y471864D01*
X567044D01*
X569179Y472748D01*
X570813Y474383D01*
X571698Y476518D01*
Y478830D01*
X570930Y480682D01*
X570944Y480740D01*
X571409Y481554D01*
X571714Y481856D01*
X573514D01*
X574754Y482369D01*
X575702Y481387D01*
X575009Y479714D01*
Y477402D01*
X575893Y475267D01*
X577528Y473632D01*
X579663Y472748D01*
X581974D01*
X584110Y473632D01*
X585744Y475267D01*
X586629Y477402D01*
Y479714D01*
X585744Y481849D01*
X585040Y482553D01*
X585138Y483281D01*
X586481Y483734D01*
X587137Y483078D01*
X589273Y482193D01*
X591584D01*
X592815Y482703D01*
X593742Y481713D01*
X593040Y480018D01*
Y477707D01*
X593925Y475572D01*
X595559Y473937D01*
X597695Y473053D01*
X600006D01*
X602141Y473937D01*
X603776Y475572D01*
X604660Y477707D01*
Y480018D01*
X603776Y482154D01*
X602986Y482944D01*
X602967Y483157D01*
X603069Y483607D01*
X604458Y483997D01*
X605378Y483078D01*
X607513Y482193D01*
X609824D01*
X611960Y483078D01*
X613594Y484712D01*
X614479Y486848D01*
Y489159D01*
X613594Y491294D01*
X612899Y491990D01*
X613425Y493260D01*
X615838D01*
X616555Y492187D01*
X632072Y476670D01*
X633230Y475896D01*
X634595Y475625D01*
X668452D01*
X669809Y474268D01*
X671944Y473383D01*
X674256D01*
X676391Y474268D01*
X678026Y475902D01*
X678910Y478038D01*
Y480349D01*
X678026Y482484D01*
X678456Y483850D01*
X678651Y483980D01*
X680262Y485590D01*
X686663D01*
X687368Y484534D01*
X687060Y483790D01*
Y481478D01*
X687944Y479343D01*
X689578Y477709D01*
X691714Y476824D01*
X694025D01*
X696161Y477709D01*
X697482Y479030D01*
X709377D01*
X710742Y479301D01*
X711900Y480075D01*
X712233Y480408D01*
X721628D01*
Y474226D01*
X739358D01*
X739628Y474226D01*
X740628D01*
X740898Y474226D01*
X758628D01*
Y493726D01*
X740898D01*
X740628Y493727D01*
X739628D01*
X739358Y493726D01*
X721628D01*
Y487545D01*
X710755D01*
X709389Y487273D01*
X708232Y486500D01*
X707898Y486167D01*
X705278D01*
X704430Y487437D01*
X704975Y488753D01*
Y491064D01*
X704160Y493030D01*
X704649Y494300D01*
X706120D01*
X707477Y492943D01*
X709612Y492059D01*
X711924D01*
X714059Y492943D01*
X715694Y494578D01*
X716578Y496713D01*
Y499025D01*
X715694Y501160D01*
X714059Y502794D01*
X712817Y503309D01*
X713070Y504579D01*
X721628D01*
Y497360D01*
X739358D01*
X739628Y497360D01*
X740628D01*
X740898Y497360D01*
X758628D01*
Y500844D01*
X759898Y501692D01*
X760844Y501300D01*
X763156D01*
X765291Y502185D01*
X766926Y503819D01*
X767810Y505954D01*
Y508266D01*
X766926Y510401D01*
X765291Y512035D01*
X763156Y512920D01*
X760844D01*
X759898Y512528D01*
X758628Y513377D01*
Y516860D01*
X740898D01*
X740628Y516860D01*
X739628D01*
X739358Y516860D01*
X721628D01*
Y511716D01*
X679071D01*
X677714Y513073D01*
X675579Y513957D01*
X673267D01*
X671132Y513073D01*
X669498Y511439D01*
X668613Y509303D01*
Y506992D01*
X668927Y506235D01*
X668221Y505179D01*
X649578D01*
Y509960D01*
X636977D01*
X636451Y511230D01*
X637652Y512431D01*
X637657Y512443D01*
X639268D01*
Y511250D01*
X655968D01*
Y519477D01*
X657238Y520003D01*
X657839Y519402D01*
X659975Y518517D01*
X662286D01*
X664422Y519402D01*
X666056Y521036D01*
X666941Y523171D01*
Y525483D01*
X666056Y527618D01*
X664790Y528884D01*
X665600Y529870D01*
X666583Y529213D01*
X667949Y528941D01*
X681452D01*
X682459Y527934D01*
X684595Y527050D01*
X686906D01*
X689042Y527934D01*
X690676Y529569D01*
X691560Y531704D01*
Y534016D01*
X690676Y536151D01*
X689042Y537785D01*
X686906Y538670D01*
X684595D01*
X682459Y537785D01*
X680825Y536151D01*
X680795Y536079D01*
X670529D01*
X669388Y537333D01*
X669421Y537653D01*
X669488Y537729D01*
X671056Y539297D01*
X671941Y541432D01*
Y543744D01*
X671056Y545879D01*
X669422Y547514D01*
X669306Y547561D01*
X669559Y548831D01*
X673904D01*
X675261Y547475D01*
X677396Y546590D01*
X679708D01*
X681843Y547475D01*
X683477Y549109D01*
X684362Y551244D01*
Y553556D01*
X683477Y555691D01*
X682607Y556562D01*
X683133Y557831D01*
X688995D01*
X690351Y556475D01*
X692487Y555590D01*
X694798D01*
X696934Y556475D01*
X698568Y558109D01*
X699453Y560244D01*
Y562556D01*
X698568Y564691D01*
X696934Y566325D01*
X694798Y567210D01*
X692487D01*
X690351Y566325D01*
X688995Y564969D01*
X674190D01*
X673664Y566239D01*
X674734Y567309D01*
X675619Y569444D01*
Y571756D01*
X674734Y573891D01*
X674364Y574262D01*
X674890Y575532D01*
X695007D01*
X695016Y575509D01*
X696651Y573875D01*
X698786Y572990D01*
X701098D01*
X703233Y573875D01*
X704867Y575509D01*
X705459Y576937D01*
X706729Y576685D01*
Y571227D01*
X728729D01*
Y574659D01*
X739989D01*
Y568034D01*
X754149D01*
X754149Y568034D01*
X754489Y568034D01*
Y568034D01*
X755419Y568034D01*
X758000D01*
Y565948D01*
X757102Y565050D01*
X754489Y565050D01*
X753219Y565050D01*
X739989D01*
Y556796D01*
X728729D01*
Y560227D01*
X706729D01*
Y553296D01*
X694456D01*
X693091Y553024D01*
X692593Y552691D01*
X691832Y553007D01*
X689520D01*
X687385Y552122D01*
X685750Y550488D01*
X684866Y548353D01*
Y546041D01*
X685750Y543906D01*
X687385Y542271D01*
X689520Y541387D01*
X691832D01*
X693967Y542271D01*
X695601Y543906D01*
X696486Y546041D01*
Y546159D01*
X714229D01*
X714574Y546227D01*
X728729D01*
Y549659D01*
X739989D01*
Y547550D01*
X753219D01*
X754489Y547550D01*
X755419Y547550D01*
X768649D01*
Y565050D01*
X765137D01*
Y568034D01*
X768649D01*
Y585534D01*
X759536D01*
X759073Y585997D01*
X759017Y586278D01*
X758243Y587436D01*
X755838Y589842D01*
X754680Y590615D01*
X753314Y590887D01*
X739148D01*
X739103Y590974D01*
X739342Y591637D01*
X739872Y592244D01*
X752469D01*
X752814Y592175D01*
X764649D01*
X776338Y580487D01*
Y568034D01*
X790337D01*
Y585534D01*
X781384D01*
X768651Y598267D01*
X767493Y599041D01*
X766127Y599313D01*
X756314D01*
Y617244D01*
X738314D01*
Y593491D01*
X738314Y592474D01*
X737253Y591738D01*
X736060Y592932D01*
Y593601D01*
X735175Y595736D01*
X733541Y597370D01*
X731406Y598255D01*
X729094D01*
X727075Y597419D01*
X723919Y600575D01*
Y613028D01*
X720737D01*
Y622750D01*
X723919D01*
Y640250D01*
X710571Y640250D01*
X709919Y641250D01*
D02*
G37*
G36*
X187825Y634346D02*
X185513D01*
X183378Y633461D01*
X181744Y631827D01*
X180859Y629692D01*
Y627380D01*
X181744Y625245D01*
X183378Y623611D01*
X185513Y622726D01*
X187825D01*
X189960Y623611D01*
X191317Y624967D01*
X193794D01*
X194068Y624785D01*
X195434Y624513D01*
X196292D01*
X196292Y618233D01*
X195292Y617582D01*
X195292Y617430D01*
Y611832D01*
X205042D01*
X214792D01*
X214792Y617582D01*
X213792Y618233D01*
X213792Y618852D01*
Y631582D01*
X202137D01*
X201792Y631650D01*
X196618D01*
X196345Y631833D01*
X194979Y632105D01*
X191317D01*
X189960Y633461D01*
X187825Y634346D01*
D02*
G37*
G36*
X110658Y616635D02*
X104658D01*
Y608885D01*
X110658D01*
Y616635D01*
D02*
G37*
G36*
X100658D02*
X94658D01*
Y608885D01*
X100658D01*
Y616635D01*
D02*
G37*
G36*
X700169Y614028D02*
X694419D01*
Y606278D01*
X700169D01*
Y614028D01*
D02*
G37*
G36*
X409669Y611750D02*
X408669D01*
X408399Y611750D01*
X390669D01*
Y605569D01*
X375369D01*
Y610000D01*
X360369D01*
Y594000D01*
X375369D01*
Y598432D01*
X390669D01*
Y592250D01*
X408399D01*
X408669Y592250D01*
X409669D01*
X409939Y592250D01*
X427669D01*
Y599935D01*
X483230D01*
X484586Y598578D01*
X486722Y597693D01*
X489033D01*
X491169Y598578D01*
X492803Y600212D01*
X493688Y602348D01*
Y604659D01*
X492803Y606794D01*
X491169Y608429D01*
X489033Y609313D01*
X486722D01*
X484586Y608429D01*
X483230Y607072D01*
X427669D01*
Y611750D01*
X409939D01*
X409669Y611750D01*
D02*
G37*
G36*
X214792Y607832D02*
X207042D01*
Y602082D01*
X214792D01*
Y607832D01*
D02*
G37*
G36*
X203042D02*
X195292D01*
Y602082D01*
X203042D01*
Y607832D01*
D02*
G37*
G36*
X212248Y596173D02*
X209174D01*
Y593377D01*
X216569D01*
X215639Y594768D01*
X214083Y595808D01*
X212248Y596173D01*
D02*
G37*
G36*
X205175D02*
X202101D01*
X200266Y595808D01*
X198710Y594768D01*
X197780Y593377D01*
X205175D01*
Y596173D01*
D02*
G37*
G36*
X809337Y586534D02*
X803337D01*
Y578784D01*
X809337D01*
Y586534D01*
D02*
G37*
G36*
X799337D02*
X793337D01*
Y578784D01*
X799337D01*
Y586534D01*
D02*
G37*
G36*
X409669Y588550D02*
X408669D01*
X408399Y588550D01*
X390669D01*
Y569050D01*
X408399D01*
X408669Y569050D01*
X409669D01*
X409939Y569050D01*
X427669D01*
Y575232D01*
X473230D01*
X474587Y573875D01*
X476722Y572990D01*
X479033D01*
X481169Y573875D01*
X482803Y575509D01*
X483688Y577644D01*
Y579956D01*
X482803Y582091D01*
X481169Y583726D01*
X479033Y584610D01*
X476722D01*
X474587Y583726D01*
X473230Y582369D01*
X427669D01*
Y588550D01*
X409939D01*
X409669Y588550D01*
D02*
G37*
G36*
X354369Y610000D02*
X339369D01*
Y594000D01*
X343221D01*
Y589454D01*
X340790D01*
Y572954D01*
X352790D01*
Y589454D01*
X350359D01*
Y594000D01*
X354369D01*
Y610000D01*
D02*
G37*
G36*
X809337Y574784D02*
X803337D01*
Y567034D01*
X809337D01*
Y574784D01*
D02*
G37*
G36*
X799337D02*
X793337D01*
Y567034D01*
X799337D01*
Y574784D01*
D02*
G37*
G36*
X368790Y589454D02*
X356790D01*
Y572954D01*
X358801D01*
Y569575D01*
X358659Y569515D01*
X357024Y567881D01*
X356140Y565746D01*
Y563434D01*
X357024Y561299D01*
X358659Y559665D01*
X360794Y558780D01*
X363106D01*
X365241Y559665D01*
X366875Y561299D01*
X367760Y563434D01*
Y565746D01*
X366875Y567881D01*
X365939Y568818D01*
Y572954D01*
X368790D01*
Y589454D01*
D02*
G37*
G36*
X740628Y542260D02*
X739628D01*
X739358Y542260D01*
X721628D01*
Y536238D01*
X705018D01*
X703661Y537595D01*
X701526Y538479D01*
X699215D01*
X697079Y537595D01*
X695445Y535960D01*
X694560Y533825D01*
Y531513D01*
X695445Y529378D01*
X697079Y527744D01*
X699215Y526859D01*
X701526D01*
X703661Y527744D01*
X705018Y529101D01*
X721628D01*
Y522760D01*
X739358D01*
X739628Y522760D01*
X740628D01*
X740898Y522760D01*
X758628D01*
Y529291D01*
X763162D01*
X764519Y527934D01*
X766654Y527050D01*
X768966D01*
X771101Y527934D01*
X772736Y529569D01*
X773620Y531704D01*
Y534016D01*
X772736Y536151D01*
X771101Y537785D01*
X768966Y538670D01*
X766654D01*
X764519Y537785D01*
X763162Y536429D01*
X758628D01*
Y542260D01*
X740898D01*
X740628Y542260D01*
D02*
G37*
G36*
X409669Y537750D02*
X408669D01*
X408399Y537750D01*
X390669D01*
Y530960D01*
X387612D01*
X386256Y532317D01*
X384120Y533202D01*
X381809D01*
X379673Y532317D01*
X378039Y530683D01*
X377155Y528547D01*
Y526236D01*
X378039Y524101D01*
X379673Y522466D01*
X381809Y521582D01*
X384120D01*
X386256Y522466D01*
X387612Y523823D01*
X390669D01*
Y518250D01*
X408399D01*
X408669Y518250D01*
X409669D01*
X409939Y518250D01*
X427669D01*
Y523481D01*
X453689D01*
X455046Y522124D01*
X457182Y521240D01*
X459493D01*
X461629Y522124D01*
X463263Y523759D01*
X464147Y525894D01*
Y528206D01*
X463263Y530341D01*
X461629Y531976D01*
X459493Y532860D01*
X457182D01*
X455046Y531976D01*
X453689Y530619D01*
X427669D01*
Y537750D01*
X409939D01*
X409669Y537750D01*
D02*
G37*
G36*
X102400Y536600D02*
X85900D01*
Y525076D01*
X85900Y524600D01*
X84959Y523806D01*
X82447D01*
Y527237D01*
X64947D01*
Y513237D01*
X82447D01*
Y516668D01*
X84785D01*
X85900Y515553D01*
Y508600D01*
X91681D01*
Y502148D01*
X90324Y500791D01*
X89440Y498656D01*
Y496344D01*
X90324Y494209D01*
X91959Y492575D01*
X94094Y491690D01*
X96406D01*
X98541Y492575D01*
X100176Y494209D01*
X101060Y496344D01*
Y498656D01*
X100176Y500791D01*
X98819Y502148D01*
Y508600D01*
X102400D01*
Y520600D01*
X90947D01*
X88787Y522760D01*
X87934Y523330D01*
X88283Y524600D01*
X102400D01*
Y527032D01*
X105719D01*
Y521100D01*
X121719D01*
Y536100D01*
X105719D01*
Y534169D01*
X102400D01*
Y536600D01*
D02*
G37*
G36*
X295721Y522479D02*
Y513627D01*
X304573D01*
X303971Y515873D01*
X302523Y518381D01*
X300475Y520429D01*
X297966Y521878D01*
X295721Y522479D01*
D02*
G37*
G36*
X291721Y522479D02*
X289475Y521878D01*
X286966Y520429D01*
X284918Y518381D01*
X283470Y515873D01*
X282869Y513627D01*
X291721D01*
Y522479D01*
D02*
G37*
G36*
X304573Y509627D02*
X295721D01*
Y500775D01*
X297966Y501377D01*
X300475Y502825D01*
X302523Y504873D01*
X303971Y507381D01*
X304573Y509627D01*
D02*
G37*
G36*
X291721D02*
X282868D01*
X283470Y507381D01*
X284918Y504873D01*
X286966Y502825D01*
X289475Y501377D01*
X291721Y500775D01*
Y509627D01*
D02*
G37*
G36*
X121719Y515100D02*
X105719D01*
Y500100D01*
X112504D01*
Y496280D01*
X111147Y494923D01*
X110263Y492788D01*
Y490476D01*
X111147Y488341D01*
X112782Y486706D01*
X114917Y485822D01*
X117228D01*
X119364Y486706D01*
X120998Y488341D01*
X121883Y490476D01*
Y492788D01*
X120998Y494923D01*
X119641Y496280D01*
Y500100D01*
X121719D01*
Y515100D01*
D02*
G37*
G36*
X318516Y492037D02*
X316204D01*
X314069Y491153D01*
X312435Y489518D01*
X311550Y487383D01*
Y485071D01*
X312435Y482936D01*
X314069Y481302D01*
X316204Y480417D01*
X318516D01*
X320651Y481302D01*
X322286Y482936D01*
X323170Y485071D01*
Y487383D01*
X322286Y489518D01*
X320651Y491153D01*
X318516Y492037D01*
D02*
G37*
G36*
X295037Y496227D02*
X292404D01*
X289861Y495546D01*
X287581Y494229D01*
X285719Y492367D01*
X284402Y490087D01*
X283721Y487544D01*
Y484911D01*
X284402Y482367D01*
X285719Y480087D01*
X287581Y478225D01*
X289861Y476909D01*
X292404Y476227D01*
X295037D01*
X297581Y476909D01*
X299861Y478225D01*
X301723Y480087D01*
X303039Y482367D01*
X303721Y484911D01*
Y487544D01*
X303039Y490087D01*
X301723Y492367D01*
X299861Y494229D01*
X297581Y495546D01*
X295037Y496227D01*
D02*
G37*
G36*
X809391Y489824D02*
X767391D01*
Y466010D01*
X758210D01*
Y472192D01*
X740480D01*
X740210Y472192D01*
X739210D01*
X738940Y472192D01*
X721210D01*
Y465119D01*
X684248D01*
X682891Y466475D01*
X680756Y467360D01*
X678445D01*
X676309Y466475D01*
X674675Y464841D01*
X673790Y462706D01*
Y460394D01*
X674675Y458259D01*
X676309Y456625D01*
X678445Y455740D01*
X680756D01*
X682891Y456625D01*
X684248Y457981D01*
X721210D01*
Y452692D01*
X738940D01*
X739210Y452692D01*
X740210D01*
X740480Y452692D01*
X758210D01*
Y458873D01*
X769672D01*
Y445043D01*
X787172D01*
Y459698D01*
X787240Y460043D01*
Y465524D01*
X788475D01*
X789172Y464543D01*
X789172Y464254D01*
Y445043D01*
X806672D01*
Y450717D01*
X807942Y451014D01*
X809466Y449489D01*
Y444948D01*
X830104D01*
Y454536D01*
X814513D01*
X812671Y456378D01*
X813197Y457648D01*
X830104D01*
Y467236D01*
X822719D01*
Y469567D01*
X824075Y470924D01*
X824960Y473059D01*
Y475370D01*
X824075Y477506D01*
X822441Y479140D01*
X820306Y480025D01*
X817994D01*
X815859Y479140D01*
X814224Y477506D01*
X813340Y475370D01*
Y473059D01*
X814224Y470924D01*
X815581Y469567D01*
Y467236D01*
X809466Y467236D01*
X809391Y468475D01*
Y489824D01*
D02*
G37*
G36*
X146583Y471679D02*
Y462827D01*
X155435D01*
X154833Y465073D01*
X153385Y467581D01*
X151337Y469629D01*
X148828Y471077D01*
X146583Y471679D01*
D02*
G37*
G36*
X142583Y471679D02*
X140337Y471077D01*
X137829Y469629D01*
X135780Y467581D01*
X134332Y465073D01*
X133730Y462827D01*
X142583D01*
Y471679D01*
D02*
G37*
G36*
X244921Y471679D02*
Y462827D01*
X253773D01*
X253171Y465073D01*
X251723Y467581D01*
X249675Y469629D01*
X247167Y471077D01*
X244921Y471679D01*
D02*
G37*
G36*
X194121D02*
Y462827D01*
X202973D01*
X202371Y465073D01*
X200923Y467581D01*
X198875Y469629D01*
X196367Y471077D01*
X194121Y471679D01*
D02*
G37*
G36*
X240921Y471679D02*
X238675Y471077D01*
X236166Y469629D01*
X234118Y467581D01*
X232670Y465073D01*
X232069Y462827D01*
X240921D01*
Y471679D01*
D02*
G37*
G36*
X190121D02*
X187875Y471077D01*
X185366Y469629D01*
X183319Y467581D01*
X181870Y465073D01*
X181269Y462827D01*
X190121D01*
Y471679D01*
D02*
G37*
G36*
X155435Y458827D02*
X146583D01*
Y449975D01*
X148828Y450577D01*
X151337Y452025D01*
X153385Y454073D01*
X154833Y456581D01*
X155435Y458827D01*
D02*
G37*
G36*
X253773Y458827D02*
X244921D01*
Y449975D01*
X247167Y450577D01*
X249675Y452025D01*
X251723Y454073D01*
X253171Y456581D01*
X253773Y458827D01*
D02*
G37*
G36*
X202973D02*
X194121D01*
Y449975D01*
X196367Y450577D01*
X198875Y452025D01*
X200923Y454073D01*
X202371Y456581D01*
X202973Y458827D01*
D02*
G37*
G36*
X240921D02*
X232069D01*
X232670Y456581D01*
X234118Y454073D01*
X236166Y452025D01*
X238675Y450577D01*
X240921Y449975D01*
Y458827D01*
D02*
G37*
G36*
X190121D02*
X181269D01*
X181870Y456581D01*
X183319Y454073D01*
X185366Y452025D01*
X187875Y450577D01*
X190121Y449975D01*
Y458827D01*
D02*
G37*
G36*
X142583Y458827D02*
X133730D01*
X134332Y456581D01*
X135780Y454073D01*
X137829Y452025D01*
X140337Y450577D01*
X142583Y449975D01*
Y458827D01*
D02*
G37*
G36*
X409669Y461550D02*
X408669D01*
X408399Y461550D01*
X390669D01*
Y442050D01*
X408399D01*
X408669Y442050D01*
X409669D01*
X409939Y442050D01*
X427669D01*
Y447940D01*
X490652D01*
X492009Y446583D01*
X494144Y445699D01*
X496456D01*
X498591Y446583D01*
X500225Y448218D01*
X501110Y450353D01*
Y452664D01*
X500225Y454800D01*
X498591Y456434D01*
X496456Y457319D01*
X494144D01*
X492009Y456434D01*
X490652Y455077D01*
X427669D01*
Y461550D01*
X409939D01*
X409669Y461550D01*
D02*
G37*
G36*
X244237Y445427D02*
X241604D01*
X239061Y444746D01*
X236781Y443429D01*
X234919Y441567D01*
X233602Y439287D01*
X233524Y438996D01*
X201517D01*
X201439Y439287D01*
X200123Y441567D01*
X198261Y443429D01*
X195980Y444746D01*
X193437Y445427D01*
X190804D01*
X188261Y444746D01*
X185981Y443429D01*
X184119Y441567D01*
X182802Y439287D01*
X182724Y438996D01*
X153979D01*
X153901Y439287D01*
X152585Y441567D01*
X150723Y443429D01*
X148442Y444746D01*
X145899Y445427D01*
X143266D01*
X140723Y444746D01*
X138442Y443429D01*
X136581Y441567D01*
X135264Y439287D01*
X134583Y436744D01*
Y434111D01*
X135264Y431567D01*
X136581Y429287D01*
X138442Y427425D01*
X140723Y426109D01*
X143266Y425427D01*
X145899D01*
X148442Y426109D01*
X150723Y427425D01*
X152585Y429287D01*
X153901Y431567D01*
X153979Y431859D01*
X182724D01*
X182802Y431567D01*
X184119Y429287D01*
X185981Y427425D01*
X188261Y426109D01*
X190804Y425427D01*
X193437D01*
X195980Y426109D01*
X198261Y427425D01*
X200123Y429287D01*
X201439Y431567D01*
X201517Y431859D01*
X233524D01*
X233602Y431567D01*
X234919Y429287D01*
X236781Y427425D01*
X239061Y426109D01*
X241604Y425427D01*
X244237D01*
X246780Y426109D01*
X249061Y427425D01*
X250923Y429287D01*
X252239Y431567D01*
X252317Y431859D01*
X262592D01*
X263949Y430502D01*
X266084Y429617D01*
X268396D01*
X270531Y430502D01*
X272166Y432136D01*
X273050Y434272D01*
Y436583D01*
X272166Y438718D01*
X270531Y440353D01*
X268396Y441237D01*
X266084D01*
X263949Y440353D01*
X262592Y438996D01*
X252317D01*
X252239Y439287D01*
X250923Y441567D01*
X249061Y443429D01*
X246780Y444746D01*
X244237Y445427D01*
D02*
G37*
G36*
X429866Y440106D02*
X427555D01*
X425420Y439221D01*
X423785Y437587D01*
X423534Y436980D01*
X422722D01*
X421356Y436709D01*
X420199Y435935D01*
X416145Y431882D01*
X415372Y430724D01*
X415100Y429359D01*
Y425500D01*
X408919D01*
Y407770D01*
X408919Y407500D01*
Y406500D01*
X408919Y406230D01*
Y388500D01*
X428419D01*
Y406230D01*
X428419Y406500D01*
Y407500D01*
X428419Y407770D01*
Y425500D01*
X422237D01*
Y427880D01*
X424200Y429843D01*
X424947D01*
X425420Y429370D01*
X427555Y428486D01*
X429866D01*
X432002Y429370D01*
X433636Y431005D01*
X434521Y433140D01*
Y435451D01*
X433636Y437587D01*
X432002Y439221D01*
X429866Y440106D01*
D02*
G37*
G36*
X831104Y430136D02*
X821785D01*
Y426342D01*
X831104D01*
Y430136D01*
D02*
G37*
G36*
X806643Y442654D02*
X789143D01*
Y423154D01*
X806643D01*
Y429336D01*
X808466D01*
Y426342D01*
X817785D01*
Y430136D01*
X814197D01*
X813671Y431406D01*
X814513Y432248D01*
X830104D01*
Y441836D01*
X809466D01*
Y437295D01*
X808645Y436473D01*
X806643D01*
Y442654D01*
D02*
G37*
G36*
X831104Y422342D02*
X821785D01*
Y418548D01*
X831104D01*
Y422342D01*
D02*
G37*
G36*
X829180Y415884D02*
X823180D01*
Y408134D01*
X829180D01*
Y415884D01*
D02*
G37*
G36*
X819180D02*
X813180D01*
Y408134D01*
X819180D01*
Y415884D01*
D02*
G37*
G36*
X389046Y438082D02*
X386734D01*
X384599Y437197D01*
X382965Y435563D01*
X382080Y433427D01*
Y431116D01*
X382965Y428980D01*
X384599Y427346D01*
X385990Y426770D01*
X385737Y425500D01*
X383519D01*
Y407770D01*
X383519Y407500D01*
Y406500D01*
X383519Y406230D01*
Y401069D01*
X380017D01*
X378660Y402425D01*
X376524Y403310D01*
X374213D01*
X372078Y402425D01*
X370443Y400791D01*
X369559Y398656D01*
Y396344D01*
X370443Y394209D01*
X372078Y392575D01*
X374213Y391690D01*
X376524D01*
X378660Y392575D01*
X380017Y393932D01*
X383519D01*
Y388500D01*
X403019D01*
Y406230D01*
X403019Y406500D01*
Y407500D01*
X403019Y407770D01*
Y425500D01*
X397269D01*
Y426462D01*
X396997Y427827D01*
X396223Y428985D01*
X393700Y431508D01*
Y433427D01*
X392816Y435563D01*
X391181Y437197D01*
X389046Y438082D01*
D02*
G37*
G36*
X829180Y404134D02*
X823180D01*
Y396384D01*
X829180D01*
Y404134D01*
D02*
G37*
G36*
X819180D02*
X813180D01*
Y396384D01*
X819180D01*
Y404134D01*
D02*
G37*
G36*
X509359Y437624D02*
X507048D01*
X504913Y436739D01*
X503278Y435105D01*
X502394Y432969D01*
Y430658D01*
X503078Y429006D01*
X499572Y425500D01*
X485119D01*
Y407770D01*
X485119Y407500D01*
Y406500D01*
X485119Y406230D01*
Y388500D01*
X504619D01*
Y406230D01*
X504619Y406500D01*
Y407500D01*
X504619Y407770D01*
Y420453D01*
X509249Y425083D01*
X510519Y424557D01*
Y407770D01*
X510519Y407500D01*
Y406500D01*
X510519Y406230D01*
Y388500D01*
X516700D01*
Y385648D01*
X515343Y384291D01*
X514459Y382156D01*
Y379844D01*
X515343Y377709D01*
X516978Y376074D01*
X519113Y375190D01*
X521424D01*
X523560Y376074D01*
X525194Y377709D01*
X526079Y379844D01*
Y382156D01*
X525194Y384291D01*
X523837Y385648D01*
Y388500D01*
X530019D01*
Y406230D01*
X530019Y406500D01*
Y407500D01*
X530019Y407770D01*
Y425500D01*
X524269D01*
Y426894D01*
X525625Y428251D01*
X526510Y430386D01*
Y432698D01*
X525625Y434833D01*
X523991Y436468D01*
X521856Y437352D01*
X519544D01*
X517409Y436468D01*
X515774Y434833D01*
X515187Y433415D01*
X513821Y433435D01*
X513129Y435105D01*
X511495Y436739D01*
X509359Y437624D01*
D02*
G37*
G36*
X471232Y438082D02*
X468921D01*
X466786Y437197D01*
X465151Y435563D01*
X464267Y433427D01*
Y431116D01*
X465151Y428980D01*
X466508Y427624D01*
Y425500D01*
X459719D01*
Y407770D01*
X459719Y407500D01*
Y406500D01*
X459719Y406230D01*
Y388500D01*
X466331D01*
Y385648D01*
X464975Y384291D01*
X464090Y382156D01*
Y379844D01*
X464975Y377709D01*
X466609Y376074D01*
X468744Y375190D01*
X471056D01*
X473191Y376074D01*
X474826Y377709D01*
X475710Y379844D01*
Y382156D01*
X474826Y384291D01*
X473469Y385648D01*
Y388500D01*
X479219D01*
Y406230D01*
X479219Y406500D01*
Y407500D01*
X479219Y407770D01*
Y425500D01*
X473645D01*
Y427624D01*
X475002Y428980D01*
X475887Y431116D01*
Y433427D01*
X475002Y435563D01*
X473368Y437197D01*
X471232Y438082D01*
D02*
G37*
G36*
X446641Y440106D02*
X444330D01*
X442194Y439221D01*
X440560Y437587D01*
X439675Y435451D01*
Y433140D01*
X440560Y431005D01*
X441917Y429648D01*
Y425500D01*
X434319D01*
Y407770D01*
X434319Y407500D01*
Y406500D01*
X434319Y406230D01*
Y388500D01*
X440761D01*
Y385648D01*
X439404Y384291D01*
X438520Y382156D01*
Y379844D01*
X439404Y377709D01*
X441039Y376074D01*
X443174Y375190D01*
X445485D01*
X447621Y376074D01*
X449255Y377709D01*
X450140Y379844D01*
Y382156D01*
X449255Y384291D01*
X447898Y385648D01*
Y388500D01*
X453819D01*
Y406230D01*
X453819Y406500D01*
Y407500D01*
X453819Y407770D01*
Y425500D01*
X449054D01*
Y429648D01*
X450411Y431005D01*
X451295Y433140D01*
Y435451D01*
X450411Y437587D01*
X448777Y439221D01*
X446641Y440106D01*
D02*
G37*
G36*
X325455Y367760D02*
X323143D01*
X321008Y366875D01*
X319651Y365519D01*
X120569D01*
X119212Y366875D01*
X117076Y367760D01*
X114765D01*
X112630Y366875D01*
X110995Y365241D01*
X110111Y363106D01*
Y360794D01*
X110995Y358659D01*
X112630Y357024D01*
X114765Y356140D01*
X117076D01*
X119212Y357024D01*
X120569Y358381D01*
X319651D01*
X321008Y357024D01*
X323143Y356140D01*
X325455D01*
X327590Y357024D01*
X329225Y358659D01*
X330109Y360794D01*
Y363106D01*
X329225Y365241D01*
X327590Y366875D01*
X325455Y367760D01*
D02*
G37*
G36*
X441937Y364000D02*
X432938D01*
Y355000D01*
X441937D01*
Y364000D01*
D02*
G37*
G36*
X428937D02*
X419938D01*
Y355000D01*
X428937D01*
Y364000D01*
D02*
G37*
G36*
X533854Y363000D02*
X531221D01*
X528678Y362319D01*
X526397Y361002D01*
X524536Y359140D01*
X523219Y356860D01*
X522537Y354317D01*
Y351684D01*
X523219Y349140D01*
X523370Y348879D01*
X506378Y331887D01*
X462451D01*
X461603Y333157D01*
X462147Y334473D01*
Y336784D01*
X461938Y337290D01*
X463093Y338446D01*
X464331Y337887D01*
X465151Y335906D01*
X466786Y334272D01*
X468921Y333387D01*
X471232D01*
X473368Y334272D01*
X474725Y335629D01*
X493335D01*
X494700Y335900D01*
X495858Y336674D01*
X503017Y343832D01*
X503278Y343682D01*
X505821Y343000D01*
X508454D01*
X510997Y343682D01*
X513278Y344998D01*
X515140Y346860D01*
X516456Y349140D01*
X517137Y351684D01*
Y354317D01*
X516456Y356860D01*
X515140Y359140D01*
X513278Y361002D01*
X510997Y362319D01*
X508454Y363000D01*
X505821D01*
X503278Y362319D01*
X500997Y361002D01*
X499136Y359140D01*
X497819Y356860D01*
X497137Y354317D01*
Y351684D01*
X497819Y349140D01*
X497970Y348879D01*
X491856Y342766D01*
X486551D01*
X486211Y344036D01*
X487878Y344998D01*
X489739Y346860D01*
X491056Y349140D01*
X491738Y351684D01*
Y354317D01*
X491056Y356860D01*
X489739Y359140D01*
X487878Y361002D01*
X485597Y362319D01*
X483054Y363000D01*
X480421D01*
X477878Y362319D01*
X475597Y361002D01*
X473736Y359140D01*
X472419Y356860D01*
X471738Y354317D01*
Y351684D01*
X471763Y351590D01*
X470249Y350076D01*
X467221D01*
X466247Y351346D01*
X466338Y351684D01*
Y354317D01*
X465656Y356860D01*
X464339Y359140D01*
X462478Y361002D01*
X460197Y362319D01*
X457654Y363000D01*
X455021D01*
X452478Y362319D01*
X450197Y361002D01*
X448336Y359140D01*
X447019Y356860D01*
X446338Y354317D01*
Y351684D01*
X447019Y349140D01*
X448336Y346860D01*
X450197Y344998D01*
X452478Y343682D01*
X454745Y343074D01*
X455218Y342297D01*
X455376Y341730D01*
X455182Y341438D01*
X453046Y340554D01*
X451412Y338920D01*
X450527Y336784D01*
Y335556D01*
X449302Y334364D01*
X449095Y334375D01*
X448994Y334618D01*
X447360Y336252D01*
X445224Y337137D01*
X442913D01*
X440778Y336252D01*
X439143Y334618D01*
X438259Y332482D01*
Y330171D01*
X439143Y328036D01*
X440778Y326401D01*
X442913Y325517D01*
X445224D01*
X447360Y326401D01*
X447833Y326874D01*
X449707D01*
X450786Y325795D01*
X451944Y325022D01*
X453310Y324750D01*
X477444D01*
X477829Y323480D01*
X477095Y322989D01*
X477095Y322989D01*
X477072Y322968D01*
X476159Y322268D01*
X475351Y322808D01*
X474398Y322998D01*
X470077D01*
X469123Y322808D01*
X468316Y322268D01*
X467776Y321460D01*
X467586Y320507D01*
Y318554D01*
X462302D01*
X460945Y319911D01*
X458810Y320796D01*
X456498D01*
X454363Y319911D01*
X453006Y318554D01*
X451338D01*
Y323650D01*
X437337D01*
Y306150D01*
X451338D01*
Y311417D01*
X453006D01*
X454363Y310060D01*
X456498Y309176D01*
X458810D01*
X460945Y310060D01*
X462302Y311417D01*
X467586D01*
Y311393D01*
X467776Y310440D01*
X468316Y309632D01*
X469123Y309092D01*
X470077Y308902D01*
X474398D01*
X475351Y309092D01*
X476159Y309632D01*
X477072Y308932D01*
X477095Y308911D01*
X477095Y308911D01*
X478233Y308150D01*
X479577Y307883D01*
X479737D01*
Y315950D01*
X483737D01*
Y307883D01*
X483898D01*
X485242Y308150D01*
X486380Y308911D01*
X486381Y308911D01*
X486403Y308932D01*
X487316Y309632D01*
X488124Y309092D01*
X489077Y308902D01*
X493398D01*
X494352Y309092D01*
X495159Y309632D01*
X495699Y310440D01*
X495889Y311393D01*
Y312381D01*
X505235D01*
Y308700D01*
X521235D01*
Y314032D01*
X541021D01*
X542378Y312675D01*
X544513Y311790D01*
X546824D01*
X548960Y312675D01*
X550594Y314309D01*
X551479Y316444D01*
Y318756D01*
X550594Y320891D01*
X548960Y322525D01*
X546824Y323410D01*
X544513D01*
X542378Y322525D01*
X541021Y321169D01*
X521235D01*
Y323700D01*
X509087D01*
X508962Y324970D01*
X509222Y325022D01*
X510379Y325795D01*
X528416Y343832D01*
X528678Y343682D01*
X531221Y343000D01*
X533854D01*
X536397Y343682D01*
X538678Y344998D01*
X540540Y346860D01*
X541856Y349140D01*
X542537Y351684D01*
Y354317D01*
X541856Y356860D01*
X540540Y359140D01*
X538678Y361002D01*
X536397Y362319D01*
X533854Y363000D01*
D02*
G37*
G36*
X441937Y351000D02*
X432938D01*
Y342000D01*
X441937D01*
Y351000D01*
D02*
G37*
G36*
X428937D02*
X419938D01*
Y342000D01*
X428937D01*
Y351000D01*
D02*
G37*
G36*
X434338Y324650D02*
X428337D01*
Y316900D01*
X434338D01*
Y324650D01*
D02*
G37*
G36*
X424337D02*
X418338D01*
Y316900D01*
X424337D01*
Y324650D01*
D02*
G37*
G36*
X706961Y314244D02*
X697643D01*
Y310450D01*
X706961D01*
Y314244D01*
D02*
G37*
G36*
X434338Y312900D02*
X428337D01*
Y305150D01*
X434338D01*
Y312900D01*
D02*
G37*
G36*
X424337D02*
X418338D01*
Y305150D01*
X424337D01*
Y312900D01*
D02*
G37*
G36*
X415700Y307750D02*
X395700D01*
Y296600D01*
X415700D01*
Y307750D01*
D02*
G37*
G36*
X391700D02*
X371700D01*
Y296600D01*
X391700D01*
Y307750D01*
D02*
G37*
G36*
X499287Y308256D02*
X496976D01*
X494840Y307372D01*
X493206Y305738D01*
X492954Y305131D01*
X492056D01*
X490690Y304859D01*
X489533Y304086D01*
X482611Y297164D01*
X481837Y296006D01*
X481834Y295990D01*
X481342Y295498D01*
X479577D01*
X478624Y295308D01*
X477816Y294768D01*
X477751Y294672D01*
X476224D01*
X476159Y294768D01*
X475351Y295308D01*
X474398Y295498D01*
X470077D01*
X469123Y295308D01*
X468316Y294768D01*
X467976Y294260D01*
X454431D01*
X453074Y295617D01*
X450939Y296501D01*
X448628D01*
X446492Y295617D01*
X444858Y293982D01*
X443973Y291847D01*
Y289536D01*
X444858Y287400D01*
X446492Y285766D01*
X448628Y284881D01*
X450939D01*
X453074Y285766D01*
X454431Y287123D01*
X467586D01*
Y283893D01*
X467776Y282940D01*
X468316Y282132D01*
X468448Y282043D01*
X468063Y280773D01*
X462644D01*
X461287Y282130D01*
X459151Y283015D01*
X456840D01*
X454705Y282130D01*
X453070Y280496D01*
X452186Y278360D01*
Y276049D01*
X453070Y273913D01*
X454705Y272279D01*
X456840Y271395D01*
X459151D01*
X461287Y272279D01*
X462644Y273636D01*
X482786D01*
X484152Y273908D01*
X485309Y274681D01*
X490364Y279736D01*
X491138Y280894D01*
X491141Y280910D01*
X491633Y281402D01*
X493398D01*
X494161Y281554D01*
X494668Y281076D01*
X495005Y280526D01*
X494190Y278557D01*
Y276245D01*
X494434Y275657D01*
X488977Y270200D01*
X469024D01*
Y252200D01*
X494024D01*
Y265153D01*
X500462Y271591D01*
X501156D01*
X503291Y272476D01*
X503716Y272900D01*
X504986Y272374D01*
Y261400D01*
X521485D01*
Y273400D01*
X516804D01*
Y287700D01*
X521235D01*
Y302700D01*
X505235D01*
Y287700D01*
X509667D01*
Y273400D01*
X505901D01*
X505856Y273433D01*
X505157Y274670D01*
X505810Y276245D01*
Y278557D01*
X504925Y280692D01*
X503291Y282327D01*
X501156Y283211D01*
X498844D01*
X496780Y282356D01*
X496398Y282562D01*
X495742Y283156D01*
X495889Y283893D01*
Y293007D01*
X495699Y293960D01*
X495159Y294768D01*
X494352Y295308D01*
X493398Y295498D01*
X492697D01*
X492211Y296671D01*
X493534Y297994D01*
X494367D01*
X494840Y297521D01*
X496976Y296637D01*
X499287D01*
X501422Y297521D01*
X503057Y299155D01*
X503941Y301291D01*
Y303602D01*
X503057Y305738D01*
X501422Y307372D01*
X499287Y308256D01*
D02*
G37*
G36*
X415700Y292600D02*
X395700D01*
Y281450D01*
X415700D01*
Y292600D01*
D02*
G37*
G36*
X391700D02*
X371700D01*
Y281450D01*
X391700D01*
Y292600D01*
D02*
G37*
G36*
X180333Y279710D02*
X163333D01*
Y270710D01*
X180333D01*
Y279710D01*
D02*
G37*
G36*
X159333D02*
X142333D01*
Y270710D01*
X159333D01*
Y279710D01*
D02*
G37*
G36*
X540369Y274100D02*
X533369D01*
Y266100D01*
X540369D01*
Y274100D01*
D02*
G37*
G36*
X591669Y273850D02*
X585669D01*
Y266100D01*
X591669D01*
Y273850D01*
D02*
G37*
G36*
X581669D02*
X575669D01*
Y266100D01*
X581669D01*
Y273850D01*
D02*
G37*
G36*
X703292Y288286D02*
X695292D01*
X687292D01*
Y280536D01*
X696143D01*
X696395Y279266D01*
X695838Y279035D01*
X694481Y277679D01*
X686410D01*
X685044Y277407D01*
X683887Y276633D01*
X677553Y270300D01*
X663600D01*
Y264869D01*
X659850D01*
Y272300D01*
X635550D01*
Y230300D01*
X659850D01*
Y257731D01*
X663600D01*
Y252300D01*
X682600D01*
Y265253D01*
X686730Y269383D01*
X688000Y268857D01*
Y263300D01*
X698500D01*
X709000D01*
Y271300D01*
X705397D01*
X704691Y272356D01*
X704939Y272954D01*
Y275266D01*
X704054Y277401D01*
X702420Y279035D01*
X701863Y279266D01*
X702115Y280536D01*
X703292D01*
Y288286D01*
D02*
G37*
G36*
X345644Y268544D02*
X339644D01*
Y260794D01*
X345644D01*
Y268544D01*
D02*
G37*
G36*
X591669Y262100D02*
X585669D01*
Y254350D01*
X591669D01*
Y262100D01*
D02*
G37*
G36*
X581669D02*
X575669D01*
Y254350D01*
X581669D01*
Y262100D01*
D02*
G37*
G36*
X540369Y262100D02*
X533369D01*
Y254100D01*
X540369D01*
Y262100D01*
D02*
G37*
G36*
X522485Y258400D02*
X515235D01*
Y253400D01*
X522485D01*
Y258400D01*
D02*
G37*
G36*
X511236D02*
X503985D01*
Y253400D01*
X511236D01*
Y258400D01*
D02*
G37*
G36*
X345644Y256794D02*
X339644D01*
Y249044D01*
X345644D01*
Y256794D01*
D02*
G37*
G36*
X522485Y249400D02*
X515235D01*
Y244400D01*
X522485D01*
Y249400D01*
D02*
G37*
G36*
X511236D02*
X503985D01*
Y244400D01*
X511236D01*
Y249400D01*
D02*
G37*
G36*
X575069Y248700D02*
Y240700D01*
X582069D01*
Y248700D01*
X575069D01*
D02*
G37*
G36*
X343228Y246800D02*
X339624D01*
Y239300D01*
X343228D01*
Y246800D01*
D02*
G37*
G36*
X601409Y248000D02*
X597869D01*
Y238000D01*
X601409D01*
Y248000D01*
D02*
G37*
G36*
X593869D02*
X590329D01*
Y238000D01*
X593869D01*
Y248000D01*
D02*
G37*
G36*
X518146Y242413D02*
X510396D01*
Y236413D01*
X518146D01*
Y242413D01*
D02*
G37*
G36*
X506396D02*
X498646D01*
Y236413D01*
X506396D01*
Y242413D01*
D02*
G37*
G36*
X709000Y259300D02*
X698500D01*
X688000D01*
Y251300D01*
X688348D01*
X689000Y250300D01*
X689000Y250030D01*
Y232300D01*
X708000D01*
Y237731D01*
X725602D01*
X726959Y236374D01*
X729094Y235490D01*
X731406D01*
X733541Y236374D01*
X735175Y238009D01*
X736060Y240144D01*
Y242456D01*
X735175Y244591D01*
X733541Y246225D01*
X731406Y247110D01*
X729094D01*
X726959Y246225D01*
X725602Y244869D01*
X708000D01*
Y250030D01*
X708000Y250300D01*
X708652Y251300D01*
X709000D01*
Y259300D01*
D02*
G37*
G36*
X582069Y236700D02*
X575069D01*
Y228700D01*
X582069D01*
Y236700D01*
D02*
G37*
G36*
X343228Y235300D02*
X339624D01*
Y227800D01*
X343228D01*
Y235300D01*
D02*
G37*
G36*
X518146Y232413D02*
X510396D01*
Y226413D01*
X518146D01*
Y232413D01*
D02*
G37*
G36*
X506396D02*
X498646D01*
Y226413D01*
X506396D01*
Y232413D01*
D02*
G37*
G36*
X593869Y234000D02*
X590329D01*
Y224000D01*
X593869D01*
Y234000D01*
D02*
G37*
G36*
X682600Y250300D02*
X663600D01*
Y232300D01*
X669531D01*
Y224500D01*
X663850D01*
Y214500D01*
X682350D01*
Y224500D01*
X676669D01*
Y232300D01*
X682600D01*
Y250300D01*
D02*
G37*
G36*
X494024Y225200D02*
X469024D01*
Y207200D01*
X494024D01*
Y212631D01*
X499646D01*
Y209413D01*
X517146D01*
Y223413D01*
X499646D01*
Y219769D01*
X494024D01*
Y225200D01*
D02*
G37*
G36*
X822620Y211120D02*
X814000D01*
Y202500D01*
X822620D01*
Y211120D01*
D02*
G37*
G36*
X810000D02*
X801380D01*
Y202500D01*
X810000D01*
Y211120D01*
D02*
G37*
G36*
X553330Y207235D02*
X546330D01*
Y199235D01*
X553330D01*
Y207235D01*
D02*
G37*
G36*
X705850Y215000D02*
X687350D01*
Y205000D01*
X705850D01*
Y206182D01*
X722893D01*
X724063Y205013D01*
Y204344D01*
X724947Y202209D01*
X726582Y200575D01*
X728717Y199690D01*
X731028D01*
X731635Y199941D01*
X733599Y197977D01*
X734757Y197203D01*
X736123Y196931D01*
X752997D01*
X753036Y196787D01*
X754302Y194593D01*
X756093Y192802D01*
X758287Y191536D01*
X760733Y190880D01*
X763267D01*
X765713Y191536D01*
X767907Y192802D01*
X769698Y194593D01*
X770964Y196787D01*
X771620Y199233D01*
Y201766D01*
X770964Y204213D01*
X769698Y206407D01*
X767907Y208198D01*
X765713Y209464D01*
X763267Y210120D01*
X760733D01*
X758287Y209464D01*
X756093Y208198D01*
X754302Y206407D01*
X753036Y204213D01*
X752997Y204069D01*
X737601D01*
X735683Y205987D01*
Y206656D01*
X734798Y208791D01*
X733164Y210425D01*
X731028Y211310D01*
X728717D01*
X728111Y211059D01*
X726895Y212274D01*
X725737Y213048D01*
X724371Y213320D01*
X705850D01*
Y215000D01*
D02*
G37*
G36*
X822620Y198500D02*
X814000D01*
Y189880D01*
X822620D01*
Y198500D01*
D02*
G37*
G36*
X810000D02*
X801380D01*
Y189880D01*
X810000D01*
Y198500D01*
D02*
G37*
%LPD*%
G36*
X177800Y762000D02*
X21569D01*
Y850900D01*
X69557D01*
X69809Y849630D01*
X68858Y849236D01*
X66319Y847540D01*
X64160Y845381D01*
X62464Y842842D01*
X61296Y840021D01*
X60794Y837500D01*
X76200D01*
X91606D01*
X91104Y840021D01*
X89936Y842842D01*
X88240Y845381D01*
X86081Y847540D01*
X83542Y849236D01*
X82591Y849630D01*
X82843Y850900D01*
X177800D01*
Y762000D01*
D02*
G37*
%LPC*%
G36*
X91606Y833500D02*
X78200D01*
Y820094D01*
X80721Y820596D01*
X83542Y821764D01*
X86081Y823460D01*
X88240Y825619D01*
X89936Y828158D01*
X91104Y830979D01*
X91606Y833500D01*
D02*
G37*
G36*
X74200D02*
X60794D01*
X61296Y830979D01*
X62464Y828158D01*
X64160Y825619D01*
X66319Y823460D01*
X68858Y821764D01*
X71679Y820596D01*
X74200Y820094D01*
Y833500D01*
D02*
G37*
G36*
X165550Y819400D02*
X154400D01*
Y799400D01*
X165550D01*
Y819400D01*
D02*
G37*
G36*
X150400D02*
X139250D01*
Y799400D01*
X150400D01*
Y819400D01*
D02*
G37*
G36*
X40518Y790428D02*
Y782101D01*
X48845D01*
X48296Y784151D01*
X46915Y786544D01*
X44961Y788497D01*
X42568Y789879D01*
X40518Y790428D01*
D02*
G37*
G36*
X36518D02*
X34468Y789879D01*
X32075Y788497D01*
X30122Y786544D01*
X28740Y784151D01*
X28191Y782101D01*
X36518D01*
Y790428D01*
D02*
G37*
G36*
X165550Y795400D02*
X154400D01*
Y775400D01*
X165550D01*
Y795400D01*
D02*
G37*
G36*
X150400D02*
X139250D01*
Y775400D01*
X150400D01*
Y795400D01*
D02*
G37*
G36*
X115968Y789594D02*
X113468D01*
X111054Y788947D01*
X108889Y787697D01*
X107122Y785930D01*
X105872Y783765D01*
X105225Y781351D01*
Y778851D01*
X105872Y776437D01*
X107122Y774272D01*
X108889Y772505D01*
X111054Y771255D01*
X113468Y770608D01*
X115968D01*
X118382Y771255D01*
X120547Y772505D01*
X122314Y774272D01*
X123564Y776437D01*
X124211Y778851D01*
Y781351D01*
X123564Y783765D01*
X122314Y785930D01*
X120547Y787697D01*
X118382Y788947D01*
X115968Y789594D01*
D02*
G37*
G36*
X48845Y778101D02*
X40518D01*
Y769773D01*
X42568Y770323D01*
X44961Y771704D01*
X46915Y773658D01*
X48296Y776051D01*
X48845Y778101D01*
D02*
G37*
G36*
X36518D02*
X28191D01*
X28740Y776051D01*
X30122Y773658D01*
X32075Y771704D01*
X34468Y770323D01*
X36518Y769773D01*
Y778101D01*
D02*
G37*
G36*
X952621Y727932D02*
X946621D01*
Y720182D01*
X952621D01*
Y727932D01*
D02*
G37*
G36*
X962621D02*
X956621D01*
Y718182D01*
X954621D01*
Y716182D01*
X946621D01*
Y708432D01*
X956584D01*
Y700191D01*
X949098D01*
Y692441D01*
X956848D01*
Y688441D01*
X949098D01*
Y685668D01*
X947828Y685210D01*
X946518Y686521D01*
X944382Y687406D01*
X942071D01*
X939936Y686521D01*
X938301Y684887D01*
X937417Y682751D01*
Y680440D01*
X938301Y678305D01*
X939936Y676670D01*
X942071Y675786D01*
X944382D01*
X944598Y675875D01*
X945658Y675047D01*
Y656872D01*
X946372D01*
Y652477D01*
X943908D01*
Y635395D01*
X943313Y634371D01*
X917582D01*
X917580Y634371D01*
X917578Y634371D01*
X917187Y634293D01*
X916801Y634216D01*
X916800Y634215D01*
X916798Y634215D01*
X916471Y633996D01*
X916140Y633774D01*
X916139Y633773D01*
X916137Y633772D01*
X915241Y632872D01*
X915240Y632871D01*
X915238Y632870D01*
X915014Y632532D01*
X914800Y632210D01*
X914799Y632208D01*
X914798Y632207D01*
X914722Y631814D01*
X914646Y631429D01*
X914646Y631427D01*
X914646Y631426D01*
X914696Y616826D01*
X913799Y615927D01*
X910113D01*
X909133Y615732D01*
X908303Y615177D01*
X907748Y614347D01*
X907553Y613367D01*
Y599887D01*
X907748Y598908D01*
X908303Y598078D01*
X909133Y597523D01*
X910113Y597328D01*
X915092D01*
X915927Y597494D01*
X916383Y596730D01*
X916535Y596562D01*
X916657Y596371D01*
X916800Y596270D01*
X916917Y596140D01*
X917122Y596043D01*
X917307Y595913D01*
X917478Y595875D01*
X917636Y595800D01*
X917862Y595788D01*
X918084Y595739D01*
X918463Y595729D01*
X918799Y595788D01*
X919138Y595827D01*
X919189Y595855D01*
X919247Y595866D01*
X919535Y596048D01*
X919833Y596214D01*
X920164Y596495D01*
X920312Y596682D01*
X920489Y596844D01*
X921083Y597656D01*
X921833Y597523D01*
X922813Y597328D01*
X927793D01*
X928772Y597523D01*
X929824Y596699D01*
X930095Y596259D01*
X930257Y596084D01*
X930389Y595886D01*
X930525Y595796D01*
X930636Y595676D01*
X930853Y595577D01*
X931051Y595444D01*
X931211Y595412D01*
X931360Y595344D01*
X931598Y595335D01*
X931831Y595289D01*
X935704D01*
X935854Y595319D01*
X936007Y595312D01*
X936240Y595396D01*
X936484Y595444D01*
X936611Y595529D01*
X936755Y595581D01*
X937772Y596193D01*
X937956Y596360D01*
X938162Y596498D01*
X938247Y596626D01*
X938361Y596728D01*
X938466Y596953D01*
X938604Y597160D01*
X938634Y597310D01*
X938699Y597448D01*
X938711Y597697D01*
X938760Y597940D01*
X955220D01*
Y603255D01*
X960742D01*
Y600791D01*
X972777D01*
X974831Y598738D01*
X974673Y598580D01*
X973788Y596445D01*
Y594133D01*
X974673Y591998D01*
X976307Y590364D01*
X978443Y589479D01*
X980754D01*
X982889Y590364D01*
X984524Y591998D01*
X985408Y594133D01*
Y596445D01*
X984524Y598580D01*
X982889Y600214D01*
X982161Y600516D01*
X982011Y601267D01*
X981238Y602425D01*
X980288Y603374D01*
X980395Y604020D01*
X980690Y604769D01*
X980786Y604842D01*
X981063Y605027D01*
X981100Y605083D01*
X981153Y605123D01*
X981320Y605412D01*
X981505Y605689D01*
X981518Y605754D01*
X981551Y605812D01*
X981595Y606143D01*
X981660Y606469D01*
Y615869D01*
X981599Y616178D01*
X981563Y616492D01*
X981522Y616566D01*
X981505Y616649D01*
X981330Y616911D01*
X981177Y617187D01*
X980380Y618127D01*
X980313Y618180D01*
X980266Y618250D01*
X980004Y618426D01*
X979757Y618622D01*
X979675Y618645D01*
X979605Y618692D01*
X979295Y618754D01*
X978992Y618841D01*
X978195Y619161D01*
X977824Y619907D01*
Y627775D01*
X978195Y628521D01*
X978992Y628841D01*
X979295Y628928D01*
X979605Y628990D01*
X979675Y629037D01*
X979757Y629060D01*
X980004Y629256D01*
X980266Y629432D01*
X980313Y629502D01*
X980380Y629555D01*
X981177Y630495D01*
X981330Y630771D01*
X981505Y631033D01*
X981522Y631116D01*
X981563Y631191D01*
X981599Y631504D01*
X981660Y631814D01*
Y679430D01*
X981656Y679448D01*
X981660Y679467D01*
X981637Y680727D01*
X981556Y681098D01*
X981482Y681471D01*
X981472Y681487D01*
X981468Y681505D01*
X981252Y681817D01*
X981040Y682133D01*
X981025Y682143D01*
X981014Y682158D01*
X980695Y682364D01*
X980379Y682575D01*
X980360Y682578D01*
X980345Y682588D01*
X979971Y682656D01*
X979598Y682730D01*
X978598D01*
Y698151D01*
X979598Y698151D01*
X979971Y698226D01*
X980345Y698293D01*
X980360Y698303D01*
X980379Y698307D01*
X980695Y698518D01*
X981014Y698723D01*
X981025Y698738D01*
X981040Y698749D01*
X981252Y699065D01*
X981468Y699377D01*
X981472Y699395D01*
X981482Y699410D01*
X981556Y699783D01*
X981637Y700154D01*
X981660Y701415D01*
X981656Y701433D01*
X981660Y701451D01*
Y708432D01*
X981505Y709212D01*
X981063Y709874D01*
X980401Y710316D01*
X979621Y710471D01*
Y726932D01*
X965621D01*
Y719317D01*
X964621Y718221D01*
X962621D01*
Y727932D01*
D02*
G37*
G36*
X935833Y684350D02*
X928083D01*
Y678600D01*
X935833D01*
Y684350D01*
D02*
G37*
G36*
X924083D02*
X916333D01*
Y678600D01*
X924083D01*
Y684350D01*
D02*
G37*
G36*
X927793Y670426D02*
X922813D01*
X921833Y670232D01*
X921003Y669677D01*
X920448Y668847D01*
X920253Y667867D01*
Y654387D01*
X920448Y653408D01*
X921003Y652578D01*
X921833Y652023D01*
X922813Y651828D01*
X927793D01*
X928772Y652023D01*
X929602Y652578D01*
X930157Y653408D01*
X930352Y654387D01*
Y657423D01*
X933004D01*
X934361Y656066D01*
X936497Y655181D01*
X938808D01*
X940944Y656066D01*
X942578Y657700D01*
X943462Y659836D01*
Y662147D01*
X942578Y664282D01*
X940944Y665917D01*
X938808Y666801D01*
X936497D01*
X934361Y665917D01*
X933004Y664560D01*
X930352D01*
Y667867D01*
X930157Y668847D01*
X929602Y669677D01*
X928772Y670232D01*
X927793Y670426D01*
D02*
G37*
G36*
X915092D02*
X910113D01*
X909133Y670232D01*
X908303Y669677D01*
X907748Y668847D01*
X907553Y667867D01*
Y654387D01*
X907748Y653408D01*
X908303Y652578D01*
X909034Y652089D01*
Y644398D01*
X909144Y643844D01*
X908590Y642506D01*
Y640194D01*
X909474Y638059D01*
X911109Y636424D01*
X913244Y635540D01*
X915556D01*
X917691Y636424D01*
X919325Y638059D01*
X920210Y640194D01*
Y642506D01*
X919325Y644641D01*
X917691Y646275D01*
X916171Y646905D01*
Y652089D01*
X916902Y652578D01*
X917457Y653408D01*
X917652Y654387D01*
Y667867D01*
X917457Y668847D01*
X916902Y669677D01*
X916072Y670232D01*
X915092Y670426D01*
D02*
G37*
G36*
X902393Y615927D02*
X897413D01*
X896433Y615732D01*
X895603Y615177D01*
X895048Y614347D01*
X894853Y613367D01*
Y599887D01*
X895048Y598908D01*
X895603Y598078D01*
X896433Y597523D01*
X897413Y597328D01*
X902393D01*
X903372Y597523D01*
X904202Y598078D01*
X904757Y598908D01*
X904952Y599887D01*
Y613367D01*
X904757Y614347D01*
X904202Y615177D01*
X903372Y615732D01*
X902393Y615927D01*
D02*
G37*
%LPD*%
G36*
X974621Y708432D02*
X979621D01*
Y701451D01*
X979598Y700191D01*
X978351Y700191D01*
X973848D01*
Y690441D01*
Y680691D01*
X979598Y680691D01*
X979621Y679430D01*
Y631814D01*
X978824Y630874D01*
X978351Y630873D01*
X971283D01*
Y623841D01*
Y616809D01*
X978351D01*
X978824Y616809D01*
X979621Y615869D01*
Y606469D01*
X978351Y605845D01*
X977824Y606251D01*
Y612856D01*
X960742D01*
Y610392D01*
X955220D01*
Y612940D01*
X956220D01*
Y619690D01*
X945970D01*
X935720D01*
Y612940D01*
X936720D01*
Y597940D01*
X935704Y597328D01*
X931831D01*
X931116Y598489D01*
X931115Y598598D01*
X931371Y599887D01*
Y604627D01*
X925303D01*
X919234D01*
Y599887D01*
X919438Y598861D01*
X918844Y598049D01*
X918513Y597768D01*
X918133Y597777D01*
X917522Y598800D01*
X917470Y598973D01*
X917652Y599887D01*
Y613367D01*
X917457Y614347D01*
X916902Y615177D01*
X916740Y615285D01*
X916685Y631433D01*
X917582Y632332D01*
X958623D01*
Y656872D01*
X961158D01*
X961158Y656872D01*
X962158D01*
Y656872D01*
X962428Y656872D01*
X977658D01*
Y675372D01*
X967205D01*
X963182Y679396D01*
X962024Y680169D01*
X960658Y680441D01*
X960706Y681691D01*
X963447Y681691D01*
X964098Y680691D01*
X964250Y680691D01*
X969848D01*
Y690441D01*
Y700191D01*
X964098Y700191D01*
X963447Y699191D01*
X962828Y699191D01*
X958623D01*
Y709432D01*
X961621D01*
Y716182D01*
X964621D01*
Y708432D01*
X970621D01*
Y718182D01*
X974621D01*
Y708432D01*
D02*
G37*
%LPC*%
G36*
X973990Y653477D02*
X968958D01*
Y645936D01*
X973990D01*
Y653477D01*
D02*
G37*
G36*
X964958D02*
X959925D01*
Y645936D01*
X964958D01*
Y653477D01*
D02*
G37*
G36*
X973990Y641936D02*
X968958D01*
Y634395D01*
X973990D01*
Y641936D01*
D02*
G37*
G36*
X964958D02*
X959925D01*
Y634395D01*
X964958D01*
Y641936D01*
D02*
G37*
G36*
X967283Y630873D02*
X959742D01*
Y625841D01*
X967283D01*
Y630873D01*
D02*
G37*
G36*
X956220Y630440D02*
X947970D01*
Y623690D01*
X956220D01*
Y630440D01*
D02*
G37*
G36*
X943970D02*
X935720D01*
Y623690D01*
X943970D01*
Y630440D01*
D02*
G37*
G36*
X967283Y621841D02*
X959742D01*
Y616809D01*
X967283D01*
Y621841D01*
D02*
G37*
G36*
X927793Y616946D02*
X927303D01*
Y608627D01*
X931371D01*
Y613367D01*
X931099Y614737D01*
X930323Y615898D01*
X929162Y616674D01*
X927793Y616946D01*
D02*
G37*
G36*
X923303D02*
X922813D01*
X921443Y616674D01*
X920282Y615898D01*
X919506Y614737D01*
X919234Y613367D01*
Y608627D01*
X923303D01*
Y616946D01*
D02*
G37*
G36*
X79162Y631213D02*
X78232D01*
Y626041D01*
X86030D01*
X85373Y627627D01*
X84233Y629113D01*
X82748Y630252D01*
X81018Y630969D01*
X79162Y631213D01*
D02*
G37*
G36*
X86030Y622041D02*
X78232D01*
Y616869D01*
X79162D01*
X81018Y617114D01*
X82748Y617830D01*
X84233Y618970D01*
X85373Y620455D01*
X86030Y622041D01*
D02*
G37*
G36*
X82200Y613377D02*
X78200D01*
Y605127D01*
X82200D01*
Y613377D01*
D02*
G37*
G36*
Y601127D02*
X78200D01*
Y592877D01*
X82200D01*
Y601127D01*
D02*
G37*
G36*
X320731Y325801D02*
X312981D01*
Y319732D01*
X324299D01*
Y322232D01*
X324027Y323598D01*
X323254Y324756D01*
X322096Y325529D01*
X320731Y325801D01*
D02*
G37*
G36*
X359272Y322553D02*
X351522D01*
Y316803D01*
X359272D01*
Y322553D01*
D02*
G37*
G36*
X347522D02*
X339772D01*
Y316803D01*
X347522D01*
Y322553D01*
D02*
G37*
G36*
X175956Y191003D02*
X168206D01*
Y185253D01*
X175956D01*
Y191003D01*
D02*
G37*
G36*
X157652Y191003D02*
X149902D01*
Y185253D01*
X157652D01*
Y191003D01*
D02*
G37*
G36*
X145902D02*
X138152D01*
Y185253D01*
X145902D01*
Y191003D01*
D02*
G37*
G36*
X605002Y163022D02*
X602949Y162472D01*
X600555Y161090D01*
X598600Y159135D01*
X597218Y156741D01*
X596668Y154688D01*
X605002D01*
Y163022D01*
D02*
G37*
G36*
X617337Y150688D02*
X609002D01*
Y142353D01*
X611055Y142903D01*
X613449Y144286D01*
X615404Y146241D01*
X616786Y148635D01*
X617337Y150688D01*
D02*
G37*
G36*
X605002D02*
X596668D01*
X597218Y148635D01*
X598600Y146241D01*
X600555Y144286D01*
X602949Y142903D01*
X605002Y142353D01*
Y150688D01*
D02*
G37*
G36*
X584169Y129700D02*
X576169D01*
Y122700D01*
X584169D01*
Y129700D01*
D02*
G37*
G36*
X572169D02*
X564169D01*
Y122700D01*
X572169D01*
Y129700D01*
D02*
G37*
G36*
X608706Y129350D02*
X600706D01*
Y122350D01*
X608706D01*
Y129350D01*
D02*
G37*
G36*
X596707D02*
X588706D01*
Y122350D01*
X596707D01*
Y129350D01*
D02*
G37*
G36*
X103756Y127655D02*
Y118803D01*
X112608D01*
X112006Y121048D01*
X110558Y123557D01*
X108510Y125605D01*
X106002Y127053D01*
X103756Y127655D01*
D02*
G37*
G36*
X99756D02*
X97510Y127053D01*
X95002Y125605D01*
X92954Y123557D01*
X91505Y121048D01*
X90904Y118803D01*
X99756D01*
Y127655D01*
D02*
G37*
G36*
X269827Y128519D02*
X250326D01*
Y111019D01*
X269827D01*
Y117094D01*
X274752D01*
X276109Y115737D01*
X278244Y114853D01*
X280556D01*
X282691Y115737D01*
X284326Y117371D01*
X285210Y119507D01*
Y121818D01*
X284326Y123954D01*
X282691Y125588D01*
X280556Y126473D01*
X278244D01*
X276109Y125588D01*
X274752Y124231D01*
X269827D01*
Y128519D01*
D02*
G37*
G36*
X112608Y114803D02*
X103756D01*
Y105950D01*
X106002Y106552D01*
X108510Y108000D01*
X110558Y110049D01*
X112006Y112557D01*
X112608Y114803D01*
D02*
G37*
G36*
X99756D02*
X90904D01*
X91505Y112557D01*
X92954Y110049D01*
X95002Y108000D01*
X97510Y106552D01*
X99756Y105950D01*
Y114803D01*
D02*
G37*
G36*
X679369Y109100D02*
X670869D01*
Y100600D01*
X679369D01*
Y109100D01*
D02*
G37*
G36*
X666869D02*
X658369D01*
Y100600D01*
X666869D01*
Y109100D01*
D02*
G37*
G36*
X584169Y118700D02*
X574169D01*
X564169D01*
Y111700D01*
X564517D01*
X565169Y110700D01*
X565169Y110430D01*
Y94700D01*
X583169D01*
Y99131D01*
X589706D01*
Y94350D01*
X607706D01*
Y98781D01*
X609956D01*
X611313Y97424D01*
X613448Y96540D01*
X615760D01*
X617895Y97424D01*
X619529Y99059D01*
X620414Y101194D01*
Y103506D01*
X619529Y105641D01*
X617895Y107275D01*
X615760Y108160D01*
X613448D01*
X611313Y107275D01*
X609956Y105919D01*
X607706D01*
Y110080D01*
X607706Y110350D01*
X608358Y111350D01*
X608706D01*
Y118350D01*
X598707D01*
X588706D01*
Y111350D01*
X589054D01*
X589706Y110350D01*
X589706Y110080D01*
Y106269D01*
X583169D01*
Y110430D01*
X583169Y110700D01*
X583821Y111700D01*
X584169D01*
Y118700D01*
D02*
G37*
G36*
X64674Y110610D02*
X52674D01*
Y104129D01*
X36885D01*
Y92979D01*
X80885D01*
Y104129D01*
X64674D01*
Y110610D01*
D02*
G37*
G36*
X679369Y96600D02*
X670869D01*
Y88100D01*
X679369D01*
Y96600D01*
D02*
G37*
G36*
X666869D02*
X658369D01*
Y88100D01*
X666869D01*
Y96600D01*
D02*
G37*
G36*
X80885Y88980D02*
X60885D01*
Y77829D01*
X80885D01*
Y88980D01*
D02*
G37*
G36*
X56885D02*
X36885D01*
Y77829D01*
X56885D01*
Y88980D01*
D02*
G37*
G36*
X257218Y314051D02*
X249481D01*
Y296732D01*
X260799D01*
Y310470D01*
X260527Y311840D01*
X259750Y313002D01*
X258589Y313779D01*
X257218Y314051D01*
D02*
G37*
G36*
X245481D02*
X237743D01*
X236373Y313779D01*
X235211Y313002D01*
X234434Y311840D01*
X234162Y310470D01*
Y296732D01*
X245481D01*
Y314051D01*
D02*
G37*
G36*
X220822Y305603D02*
X211822D01*
Y296603D01*
X220822D01*
Y305603D01*
D02*
G37*
G36*
X207822D02*
X198822D01*
Y296603D01*
X207822D01*
Y305603D01*
D02*
G37*
G36*
X220822Y292603D02*
X211822D01*
Y283603D01*
X220822D01*
Y292603D01*
D02*
G37*
G36*
X207822D02*
X198822D01*
Y283603D01*
X207822D01*
Y292603D01*
D02*
G37*
G36*
X268319Y253553D02*
X262569D01*
Y245803D01*
X268319D01*
Y253553D01*
D02*
G37*
G36*
Y241803D02*
X262569D01*
Y234053D01*
X268319D01*
Y241803D01*
D02*
G37*
G36*
X207822Y241803D02*
X198970D01*
X199572Y239557D01*
X201020Y237048D01*
X203068Y235000D01*
X205576Y233552D01*
X207822Y232950D01*
Y241803D01*
D02*
G37*
G36*
X220674D02*
X211822D01*
Y232950D01*
X214068Y233552D01*
X216576Y235000D01*
X218624Y237048D01*
X220072Y239557D01*
X220674Y241803D01*
D02*
G37*
G36*
X218147Y190433D02*
X210397D01*
Y184683D01*
X218147D01*
Y190433D01*
D02*
G37*
G36*
X206397D02*
X198647D01*
Y184683D01*
X206397D01*
Y190433D01*
D02*
G37*
G36*
X112608Y89403D02*
X103756D01*
Y80550D01*
X106002Y81152D01*
X108510Y82600D01*
X110558Y84649D01*
X112006Y87157D01*
X112608Y89403D01*
D02*
G37*
G36*
X99756D02*
X90904D01*
X91505Y87157D01*
X92954Y84649D01*
X95002Y82600D01*
X97510Y81152D01*
X99756Y80550D01*
Y89403D01*
D02*
G37*
%LPD*%
D24*
X40632Y624041D02*
D03*
D25*
X76232D02*
D03*
D26*
X66700Y579627D02*
D03*
X85700D02*
D03*
X76200Y603127D02*
D03*
X877653Y747227D02*
D03*
X858653D02*
D03*
X868152Y723727D02*
D03*
D27*
X64769Y556722D02*
D03*
X84769D02*
D03*
X615369Y365700D02*
D03*
X595369D02*
D03*
X615369Y289500D02*
D03*
X595369D02*
D03*
D28*
X115921Y555927D02*
D03*
X158103Y614335D02*
D03*
X296360Y574453D02*
D03*
X244973Y587035D02*
D03*
X249481Y555927D02*
D03*
X248325Y524327D02*
D03*
X192121D02*
D03*
X144583Y518250D02*
D03*
X409169Y756600D02*
D03*
X939800Y901700D02*
D03*
X935623Y874657D02*
D03*
X788391Y477674D02*
D03*
X788838Y408490D02*
D03*
X660400Y361756D02*
D03*
Y288450D02*
D03*
X393700Y294600D02*
D03*
X58885Y90979D02*
D03*
X101756Y43904D02*
D03*
X889000Y44933D02*
D03*
D29*
X73697Y520237D02*
D03*
Y538237D02*
D03*
X145403Y643435D02*
D03*
Y661435D02*
D03*
X232273Y616135D02*
D03*
Y634135D02*
D03*
X196419Y673956D02*
D03*
Y655956D02*
D03*
X217679Y673956D02*
D03*
Y655956D02*
D03*
X237769Y673956D02*
D03*
Y655956D02*
D03*
X198321Y773830D02*
D03*
Y755830D02*
D03*
X217821D02*
D03*
Y773830D02*
D03*
X238258Y773802D02*
D03*
Y755802D02*
D03*
X757010Y741104D02*
D03*
Y723104D02*
D03*
X508396Y216413D02*
D03*
Y234413D02*
D03*
X283660Y603532D02*
D03*
Y621531D02*
D03*
D30*
X94150Y514600D02*
D03*
Y530600D02*
D03*
X513235Y267400D02*
D03*
Y251400D02*
D03*
D31*
X113719Y528600D02*
D03*
Y507600D02*
D03*
X513235Y295200D02*
D03*
Y316200D02*
D03*
D32*
X103221Y578377D02*
D03*
X121221D02*
D03*
X103121Y597662D02*
D03*
X121121D02*
D03*
X120658Y618635D02*
D03*
X102658D02*
D03*
X917623Y758295D02*
D03*
X935623D02*
D03*
X954621Y718182D02*
D03*
X972621D02*
D03*
X783337Y576784D02*
D03*
X801337D02*
D03*
X839180Y406134D02*
D03*
X821180D02*
D03*
X601669Y264100D02*
D03*
X583669D02*
D03*
X713292Y290286D02*
D03*
X695292D02*
D03*
X444338Y314900D02*
D03*
X426338D02*
D03*
X574669Y186947D02*
D03*
X592669D02*
D03*
X337644Y258794D02*
D03*
X355644D02*
D03*
D33*
X207174Y591377D02*
D03*
Y584877D02*
D03*
Y578377D02*
D03*
Y571877D02*
D03*
Y565377D02*
D03*
Y558877D02*
D03*
Y552377D02*
D03*
Y545877D02*
D03*
X151667D02*
D03*
Y552377D02*
D03*
Y558877D02*
D03*
Y565377D02*
D03*
Y571877D02*
D03*
Y578377D02*
D03*
Y584877D02*
D03*
D34*
Y591377D02*
D03*
D35*
X170803Y643935D02*
D03*
Y661435D02*
D03*
X309490Y603282D02*
D03*
Y620782D02*
D03*
X257673Y616385D02*
D03*
Y633885D02*
D03*
X945970Y621690D02*
D03*
Y605690D02*
D03*
D36*
X205042Y609832D02*
D03*
Y624832D02*
D03*
X183621Y735578D02*
D03*
Y720578D02*
D03*
X898262Y686350D02*
D03*
Y701350D02*
D03*
X926083Y686350D02*
D03*
Y701350D02*
D03*
X349522Y299803D02*
D03*
Y314803D02*
D03*
X208397Y192433D02*
D03*
Y207433D02*
D03*
X177956Y193003D02*
D03*
Y208003D02*
D03*
X147902Y193003D02*
D03*
Y208003D02*
D03*
D37*
X207771Y693577D02*
D03*
X214271D02*
D03*
X220771D02*
D03*
X227271D02*
D03*
X207771Y736077D02*
D03*
X214271D02*
D03*
X220771D02*
D03*
X227271D02*
D03*
D38*
X152400Y797400D02*
D03*
X759621Y822003D02*
D03*
X835705Y733979D02*
D03*
X647700Y251300D02*
D03*
X643469Y200600D02*
D03*
X101600Y952500D02*
D03*
D39*
X494869Y397500D02*
D03*
Y416500D02*
D03*
X520269Y397500D02*
D03*
Y416500D02*
D03*
X545669D02*
D03*
Y397500D02*
D03*
X571069Y416500D02*
D03*
Y397500D02*
D03*
X596469Y416500D02*
D03*
Y397500D02*
D03*
X623302Y416500D02*
D03*
Y397500D02*
D03*
X647269Y416500D02*
D03*
Y397500D02*
D03*
X672669Y416500D02*
D03*
Y397500D02*
D03*
X698069Y416500D02*
D03*
Y397500D02*
D03*
X469469D02*
D03*
Y416500D02*
D03*
X444069Y397500D02*
D03*
Y416500D02*
D03*
X418669Y397500D02*
D03*
Y416500D02*
D03*
X393269Y397500D02*
D03*
Y416500D02*
D03*
D40*
X647618Y633500D02*
D03*
Y624500D02*
D03*
Y615500D02*
D03*
Y606500D02*
D03*
Y597400D02*
D03*
Y588400D02*
D03*
Y579400D02*
D03*
Y570400D02*
D03*
Y561400D02*
D03*
Y552400D02*
D03*
Y543300D02*
D03*
Y534300D02*
D03*
Y525300D02*
D03*
Y516300D02*
D03*
X515238D02*
D03*
Y525300D02*
D03*
Y534300D02*
D03*
Y543300D02*
D03*
Y552400D02*
D03*
Y561400D02*
D03*
Y570400D02*
D03*
Y579400D02*
D03*
Y588400D02*
D03*
Y597400D02*
D03*
Y606500D02*
D03*
Y615500D02*
D03*
Y624500D02*
D03*
Y633500D02*
D03*
D41*
X644528Y501610D02*
D03*
X635528D02*
D03*
X626528D02*
D03*
X617528D02*
D03*
X608528D02*
D03*
X599428D02*
D03*
X590428D02*
D03*
X581428D02*
D03*
X572428D02*
D03*
X563428D02*
D03*
X554428D02*
D03*
X545328D02*
D03*
X536328D02*
D03*
X527328D02*
D03*
X518328D02*
D03*
D42*
X367869Y602000D02*
D03*
X346869D02*
D03*
X734587Y770579D02*
D03*
X713587D02*
D03*
X69232Y148778D02*
D03*
X48232D02*
D03*
D43*
X362790Y581204D02*
D03*
X346790D02*
D03*
X720787Y795979D02*
D03*
X736787D02*
D03*
X50344Y167920D02*
D03*
X66344D02*
D03*
D44*
X399669Y451800D02*
D03*
X418669D02*
D03*
Y477200D02*
D03*
X399669D02*
D03*
Y502600D02*
D03*
X418669D02*
D03*
Y528000D02*
D03*
X399669D02*
D03*
X418669Y553400D02*
D03*
X399669D02*
D03*
X418669Y578800D02*
D03*
X399669D02*
D03*
Y602000D02*
D03*
X418669D02*
D03*
X399669Y629600D02*
D03*
X418669D02*
D03*
X399669Y655000D02*
D03*
X418669D02*
D03*
X399669Y683100D02*
D03*
X418669D02*
D03*
X399669Y705800D02*
D03*
X418669D02*
D03*
X399669Y731200D02*
D03*
X418669D02*
D03*
X723087Y657700D02*
D03*
X704087D02*
D03*
X730628Y532510D02*
D03*
X749628D02*
D03*
X730628Y507110D02*
D03*
X749628D02*
D03*
X730628Y483977D02*
D03*
X749628D02*
D03*
X730210Y462442D02*
D03*
X749210D02*
D03*
X729873Y437956D02*
D03*
X748873D02*
D03*
X729869Y412310D02*
D03*
X748869D02*
D03*
X729869Y388620D02*
D03*
X748869D02*
D03*
X729869Y367410D02*
D03*
X748869D02*
D03*
D45*
X756347Y786589D02*
D03*
Y766589D02*
D03*
X777516Y766070D02*
D03*
Y786070D02*
D03*
X673100Y241300D02*
D03*
Y261300D02*
D03*
X698500D02*
D03*
Y241300D02*
D03*
D46*
X712087Y741979D02*
D03*
Y732479D02*
D03*
Y722979D02*
D03*
X736087D02*
D03*
Y741979D02*
D03*
D47*
X792314Y604744D02*
D03*
Y695744D02*
D03*
X747314Y604744D02*
D03*
Y695744D02*
D03*
D48*
X935623Y840795D02*
D03*
Y785795D02*
D03*
X910623D02*
D03*
Y840795D02*
D03*
X960623D02*
D03*
Y785795D02*
D03*
D49*
X823322Y650090D02*
D03*
Y690090D02*
D03*
D50*
X862970Y697377D02*
D03*
X877970D02*
D03*
X971848Y690441D02*
D03*
X956848D02*
D03*
X702169Y631500D02*
D03*
X717169D02*
D03*
X702169Y604278D02*
D03*
X717169D02*
D03*
X285319Y243803D02*
D03*
X270319D02*
D03*
X153822Y53303D02*
D03*
X138822D02*
D03*
D51*
X858653Y667450D02*
D03*
Y648937D02*
D03*
D52*
X953408Y666122D02*
D03*
X969908D02*
D03*
X896763Y449742D02*
D03*
X914263D02*
D03*
X772801Y333671D02*
D03*
X790301D02*
D03*
D53*
X949941Y643936D02*
D03*
X966958D02*
D03*
D54*
X969283Y623841D02*
D03*
Y606824D02*
D03*
D55*
X925303Y661127D02*
D03*
X912602D02*
D03*
X899902D02*
D03*
X887203D02*
D03*
X925303Y606627D02*
D03*
X912602D02*
D03*
X899902D02*
D03*
X887203D02*
D03*
D56*
X866297Y606332D02*
D03*
Y624332D02*
D03*
X574169Y102700D02*
D03*
Y120700D02*
D03*
X598706Y102350D02*
D03*
Y120350D02*
D03*
D57*
X717729Y553227D02*
D03*
Y578227D02*
D03*
D58*
X778422Y454793D02*
D03*
X797922D02*
D03*
X778393Y432905D02*
D03*
X797893D02*
D03*
X650767Y339197D02*
D03*
X670267D02*
D03*
X650584Y315986D02*
D03*
X670084D02*
D03*
D59*
X761569Y576784D02*
D03*
X761569Y556300D02*
D03*
D60*
X747069Y576784D02*
D03*
X747069Y556300D02*
D03*
D61*
X876300Y462442D02*
D03*
Y449742D02*
D03*
Y437042D02*
D03*
Y424342D02*
D03*
X819785D02*
D03*
Y437042D02*
D03*
Y449742D02*
D03*
Y462442D02*
D03*
X752158Y346550D02*
D03*
Y333850D02*
D03*
Y321150D02*
D03*
Y308450D02*
D03*
X695642D02*
D03*
Y321150D02*
D03*
Y333850D02*
D03*
Y346550D02*
D03*
D62*
X914763Y428581D02*
D03*
X896763D02*
D03*
X900470Y408466D02*
D03*
X882470D02*
D03*
X792672Y308450D02*
D03*
X774672D02*
D03*
X780000Y289400D02*
D03*
X762000D02*
D03*
X560369Y264100D02*
D03*
X542369D02*
D03*
X573069Y238700D02*
D03*
X555069D02*
D03*
X573330Y209235D02*
D03*
X555331D02*
D03*
D63*
X614869Y337600D02*
D03*
X595869D02*
D03*
X605369Y317600D02*
D03*
Y216000D02*
D03*
X595869Y236000D02*
D03*
X614869D02*
D03*
D64*
X696600Y210000D02*
D03*
X673100Y200500D02*
D03*
Y219500D02*
D03*
D65*
X472238Y288450D02*
D03*
X481738D02*
D03*
X491237D02*
D03*
Y315950D02*
D03*
X481738D02*
D03*
X472238D02*
D03*
D66*
X481524Y261200D02*
D03*
X390524D02*
D03*
X481524Y216200D02*
D03*
X390524D02*
D03*
D67*
X337624Y237300D02*
D03*
X356624D02*
D03*
Y213300D02*
D03*
X347124D02*
D03*
X337624D02*
D03*
D68*
X310981Y271732D02*
D03*
Y294732D02*
D03*
Y317732D02*
D03*
D69*
X247481Y294732D02*
D03*
D70*
X111333Y268710D02*
D03*
X161333D02*
D03*
D71*
X203472Y163303D02*
D03*
X197122D02*
D03*
X190772D02*
D03*
X184422D02*
D03*
X178072D02*
D03*
X171722D02*
D03*
X165372D02*
D03*
X159022D02*
D03*
X152672D02*
D03*
X146322D02*
D03*
X203472Y116803D02*
D03*
X197122D02*
D03*
X190772D02*
D03*
X184422D02*
D03*
X178072D02*
D03*
X171722D02*
D03*
X165372D02*
D03*
X159022D02*
D03*
X152672D02*
D03*
X146322D02*
D03*
D72*
X260077Y139269D02*
D03*
Y119769D02*
D03*
X239304Y139253D02*
D03*
Y119753D02*
D03*
D73*
X58674Y112610D02*
D03*
X49174Y130610D02*
D03*
X68174D02*
D03*
D74*
X140623Y85067D02*
D03*
X164123D02*
D03*
D75*
X231159Y15626D02*
D03*
X208159D02*
D03*
D76*
X206659Y42376D02*
D03*
X213159D02*
D03*
X232659D02*
D03*
X219659D02*
D03*
X226159D02*
D03*
D77*
X185785Y15627D02*
D03*
D78*
X253533Y15625D02*
D03*
D119*
X114718Y780101D02*
D03*
Y678501D02*
D03*
Y653101D02*
D03*
X38518D02*
D03*
Y678501D02*
D03*
Y780101D02*
D03*
D124*
X762000Y200500D02*
D03*
D125*
X812000D02*
D03*
D135*
X165100Y142203D02*
X171270Y148372D01*
Y162850D01*
X171722Y163303D01*
X671152Y501610D02*
X674893Y497869D01*
X710768D01*
X674423Y508148D02*
X729590D01*
X644528Y501610D02*
X671152D01*
X729590Y508148D02*
X730628Y507110D01*
X94150Y514600D02*
X95250Y513500D01*
Y497500D02*
Y513500D01*
X89712Y603250D02*
X95300Y597662D01*
X103121D01*
X101756Y43904D02*
Y64078D01*
X178072Y116803D02*
X178524Y117255D01*
Y129835D01*
X184398Y135709D01*
Y135713D01*
X361950Y564590D02*
X362370Y565010D01*
Y580784D02*
X362790Y581204D01*
X362370Y565010D02*
Y580784D01*
X238993Y42376D02*
X242243Y45626D01*
X243027D01*
X232659Y42376D02*
X238993D01*
X177909Y15626D02*
X208159D01*
X158750D02*
X177909D01*
X237236Y52626D02*
X245398Y60787D01*
X279400D01*
X278516Y59903D02*
X279400Y60787D01*
X254812Y45626D02*
X261409Y52224D01*
X243027Y45626D02*
X254812D01*
X790301Y333671D02*
X808645D01*
X792760Y308539D02*
X809047D01*
X788172Y303950D02*
X792760Y308539D01*
X949200Y676872D02*
X960658D01*
X944477Y681596D02*
X949200Y676872D01*
X943227Y681596D02*
X944477D01*
X960658Y676872D02*
X969908Y667622D01*
Y666122D02*
Y667622D01*
X497247Y301562D02*
X498131Y302446D01*
X485134Y294641D02*
X492056Y301562D01*
X497247D01*
X481738Y288450D02*
Y290847D01*
X485134Y294243D02*
Y294641D01*
X481738Y290847D02*
X485134Y294243D01*
X349522Y299803D02*
X349975Y299349D01*
Y285214D02*
Y299349D01*
X939800Y901700D02*
X972683D01*
X713450Y805566D02*
X720787Y798229D01*
X707515Y805566D02*
X713450D01*
X706631Y806450D02*
X707515Y805566D01*
X720787Y795979D02*
Y798229D01*
X791645Y785070D02*
X793975Y787400D01*
X777516Y785070D02*
X791645D01*
X793975Y787400D02*
X795225D01*
X696048Y730250D02*
X698278Y732479D01*
X694798Y730250D02*
X696048D01*
X698278Y732479D02*
X712087D01*
X877653Y747227D02*
X877931Y747505D01*
Y768072D01*
X878209Y768350D01*
X844265Y690090D02*
X857682D01*
X823322D02*
X844265D01*
Y702022D02*
X844922Y702679D01*
X844265Y690090D02*
Y702022D01*
X862970Y695377D02*
Y697377D01*
X857682Y690090D02*
X862970Y695377D01*
X817668Y695744D02*
X823322Y690090D01*
X792314Y695744D02*
X817668D01*
X895350Y704262D02*
X898262Y701350D01*
X895350Y704262D02*
Y717550D01*
X926083Y701350D02*
X926083Y701350D01*
X898262Y701350D02*
X926083D01*
X912602Y644398D02*
X914400Y642600D01*
Y641350D02*
Y642600D01*
X912602Y644398D02*
Y661127D01*
X971792Y606824D02*
X978714Y599901D01*
Y596173D02*
Y599901D01*
Y596173D02*
X979598Y595289D01*
X969283Y606824D02*
X971792D01*
X945970Y605690D02*
X947104Y606824D01*
X969283D01*
X793808Y603250D02*
X812800D01*
X792314Y604744D02*
X793808Y603250D01*
X755720Y584303D02*
X761569Y578454D01*
X731500Y592445D02*
X736627Y587318D01*
X730250Y592445D02*
X731500D01*
X761569Y576784D02*
Y578454D01*
X755720Y584303D02*
Y584913D01*
X753314Y587318D02*
X755720Y584913D01*
X736627Y587318D02*
X753314D01*
X761569Y556300D02*
Y576784D01*
X761569Y576784D01*
X726117Y593329D02*
X729366D01*
X730250Y592445D01*
X717169Y602278D02*
Y604278D01*
Y602278D02*
X726117Y593329D01*
X717169Y604278D02*
Y631500D01*
X717169Y604278D02*
X717169Y604278D01*
X647618Y633500D02*
X647700Y633582D01*
Y647700D01*
X511938Y633500D02*
X515238D01*
X502198Y643241D02*
X511938Y633500D01*
X501650Y643241D02*
X502198D01*
X619078Y494710D02*
X634595Y479193D01*
X673100D01*
X667416Y489159D02*
X670072Y486503D01*
X633629Y489159D02*
X667416D01*
X670072Y486503D02*
X676128D01*
X678784Y489159D02*
X688877D01*
X676128Y486503D02*
X678784Y489159D01*
X819150Y463077D02*
Y474215D01*
Y463077D02*
X819785Y462442D01*
X839180Y406134D02*
X839446Y406400D01*
X857244D01*
X900834Y408102D02*
X920750D01*
X900470Y408466D02*
X900834Y408102D01*
X914263Y429081D02*
X914763Y428581D01*
X914263Y429081D02*
Y449742D01*
X900470Y409466D02*
X910263Y419258D01*
Y424081D02*
X914763Y428581D01*
X900470Y408466D02*
Y409466D01*
X910263Y419258D02*
Y424081D01*
X780000Y290400D02*
X788172Y298572D01*
Y303950D01*
X780000Y289400D02*
Y290400D01*
X713292Y280687D02*
Y290286D01*
Y280687D02*
X719869Y274110D01*
X709259Y346550D02*
X712809Y343000D01*
X695642Y346550D02*
X709259D01*
X712809Y343000D02*
X714059D01*
X595053Y336784D02*
X595869Y337600D01*
X581602Y336784D02*
X595053D01*
X673100Y200500D02*
X673240Y200360D01*
Y184039D02*
Y200360D01*
X858003Y44933D02*
X889000D01*
X598706Y102350D02*
X614604D01*
X574169Y102700D02*
X598356D01*
X598706Y102350D01*
X533821Y154230D02*
X534575Y153476D01*
X533821Y133383D02*
X533854Y133350D01*
X533787Y154264D02*
X533821Y154230D01*
Y133383D02*
Y154230D01*
X534575Y153476D02*
X580814D01*
X581602Y152688D01*
X574669Y185197D02*
Y186947D01*
X581602Y152688D02*
Y178264D01*
X574669Y185197D02*
X581602Y178264D01*
X573330Y188286D02*
X574669Y186947D01*
X573330Y188286D02*
Y209235D01*
X555069Y227497D02*
Y238700D01*
Y227497D02*
X567831Y214735D01*
X568830D01*
X573330Y210235D01*
Y209235D02*
Y210235D01*
X555069Y238700D02*
Y239700D01*
X560369Y245000D02*
Y264100D01*
X555069Y239700D02*
X560369Y245000D01*
X485024Y261200D02*
X500000Y276176D01*
Y277401D01*
X481524Y261200D02*
X485024D01*
X457996Y277205D02*
X482786D01*
X487841Y282260D01*
Y282657D01*
X491237Y286054D02*
Y288450D01*
X487841Y282657D02*
X491237Y286054D01*
X285210Y222250D02*
Y243694D01*
X285319Y243803D01*
X347124Y217197D02*
X350450Y220522D01*
Y221179D01*
X356571Y227300D01*
X370232D01*
X386734Y243803D01*
X347124Y213300D02*
Y217197D01*
X386734Y257410D02*
X390524Y261200D01*
X386734Y243803D02*
Y257410D01*
X310981Y271732D02*
X316231D01*
X302230Y262714D02*
Y268232D01*
X305731Y271732D02*
X310981D01*
X285319Y243803D02*
Y245803D01*
X302230Y262714D01*
Y268232D02*
X305731Y271732D01*
X177909Y52224D02*
X184507Y45626D01*
X196291D01*
X257746Y15932D02*
Y20565D01*
X231159Y15626D02*
X255373D01*
X208159D02*
X231159D01*
X131423Y43904D02*
X138822Y51303D01*
X101756Y43904D02*
X131423D01*
X138822Y51303D02*
Y53303D01*
X66344Y167920D02*
X67177Y167087D01*
X82550D01*
X55181Y139277D02*
X59513Y143609D01*
Y158839D02*
X66344Y165670D01*
Y167920D01*
X49174Y130610D02*
Y133610D01*
X54841Y139277D01*
X55181D01*
X59513Y143609D02*
Y158839D01*
X110510Y267886D02*
X111333Y268710D01*
X82550Y267886D02*
X110510D01*
X129875Y209550D02*
X131422Y208003D01*
X147902D01*
X128625Y209550D02*
X129875D01*
X177956Y208003D02*
X178525Y207433D01*
X208397D01*
X147902Y208003D02*
X177956D01*
X242921Y435427D02*
X267240D01*
X192121D02*
X242921D01*
X144583D02*
X192121D01*
X144583Y524684D02*
X153433D01*
X162083Y526900D02*
Y533335D01*
X174625Y545877D01*
X144583Y518250D02*
X153433D01*
X162083Y526900D01*
X144583Y486227D02*
Y518250D01*
X146704Y545877D02*
X151667D01*
X142461Y539121D02*
Y541635D01*
X141577Y538237D02*
X142461Y539121D01*
Y541635D02*
X146704Y545877D01*
X73697Y520237D02*
X86263D01*
X91900Y514600D01*
X94150D01*
X86950Y578377D02*
X103221D01*
X85700Y579627D02*
X86950Y578377D01*
X103121Y578477D02*
X103221Y578377D01*
X103121Y578477D02*
Y597662D01*
X195434Y628082D02*
X201792D01*
X194979Y628536D02*
X195434Y628082D01*
X186669Y628536D02*
X194979D01*
X201792Y628082D02*
X205042Y624832D01*
X241670Y691036D02*
X242921D01*
X239129Y693577D02*
X241670Y691036D01*
X230681Y702827D02*
X232921Y700587D01*
X245949Y683726D02*
X246550Y684327D01*
X249967Y694327D02*
X273050D01*
X239893Y683726D02*
X245949D01*
X246550Y684327D02*
X398442D01*
X227271Y693577D02*
X239129D01*
X217361Y684327D02*
X239292D01*
X243708Y700587D02*
X249967Y694327D01*
X239292Y684327D02*
X239893Y683726D01*
X232921Y700587D02*
X243708D01*
X183378Y704850D02*
Y720335D01*
X183621Y720578D01*
X218275Y782330D02*
X227980D01*
X208571D02*
X218275D01*
X217874Y791926D02*
X218275Y791525D01*
Y782330D02*
Y791525D01*
X227980Y782330D02*
X236508Y773802D01*
X198321Y773830D02*
X200071D01*
X208571Y782330D01*
X236508Y773802D02*
X238258D01*
X101600Y952500D02*
X101777Y952323D01*
X120650D01*
X76200Y918250D02*
X101600Y943650D01*
Y952500D01*
X76200Y886300D02*
Y918250D01*
X223861Y702827D02*
X230681D01*
X221521Y700487D02*
X223861Y702827D01*
X221521Y694327D02*
Y700487D01*
X221790Y707827D02*
X232752D01*
X220771Y693577D02*
X221521Y694327D01*
X232752Y707827D02*
X234779Y705800D01*
X219763D02*
X221790Y707827D01*
X213834Y705800D02*
X219763D01*
X234779D02*
X399669D01*
X217361Y674009D02*
Y684327D01*
X215021Y686667D02*
Y692827D01*
X214271Y693577D02*
X215021Y692827D01*
Y686667D02*
X217361Y684327D01*
X227271Y746564D02*
X236508Y755802D01*
X227271Y736077D02*
Y746564D01*
X236508Y755802D02*
X238258D01*
X220021Y736827D02*
Y744130D01*
X217821Y746330D02*
Y755830D01*
Y746330D02*
X220021Y744130D01*
Y736827D02*
X220771Y736077D01*
X208242Y747658D02*
X208849D01*
X213521Y742987D01*
Y736827D02*
X214271Y736077D01*
X198321Y755830D02*
X200071D01*
X208242Y747658D01*
X213521Y736827D02*
Y742987D01*
X456338Y335629D02*
Y336737D01*
X451185Y330443D02*
X453310Y328318D01*
X444069Y331327D02*
X444953Y330443D01*
X507856Y328318D02*
X532537Y353000D01*
X456338Y336737D02*
X466108Y346507D01*
X444953Y330443D02*
X451185D01*
X453310Y328318D02*
X507856D01*
X466108Y346507D02*
X471727D01*
X478220Y353000D02*
X481738D01*
X471727Y346507D02*
X478220Y353000D01*
X470077Y339197D02*
X493335D01*
X608599Y488074D02*
X608669Y488003D01*
X608528Y501610D02*
X608599Y501540D01*
Y488074D02*
Y501540D01*
X346790Y601921D02*
X346869Y602000D01*
X346790Y581204D02*
Y601921D01*
X446338Y469900D02*
X531135D01*
X695601Y444780D02*
X702424Y437956D01*
X666750Y444780D02*
X695601D01*
X604753Y433264D02*
X605788D01*
X617052Y422000D01*
X617802D01*
X623868Y431556D02*
X631463D01*
X646519Y416500D01*
X623153Y432272D02*
X623868Y431556D01*
X418669Y655000D02*
X420846Y652823D01*
X564732D01*
X515238Y588400D02*
X564732D01*
X472238Y288450D02*
Y289588D01*
X471134Y290691D02*
X472238Y289588D01*
X449783Y290691D02*
X471134D01*
X445485Y417917D02*
Y434296D01*
X444069Y416500D02*
X445485Y417917D01*
X418669Y429359D02*
X422722Y433412D01*
X427827D02*
X428711Y434296D01*
X422722Y433412D02*
X427827D01*
X399608Y655060D02*
X399669Y655000D01*
X329660Y655060D02*
X399608D01*
X309490Y620782D02*
X310792Y619479D01*
X329660D01*
X574200Y850900D02*
X768966D01*
X520700Y797400D02*
X574200Y850900D01*
X749978Y532860D02*
X767810D01*
X749628Y532510D02*
X749978Y532860D01*
X763429Y425786D02*
X764679D01*
X767926Y422539D01*
X769028D01*
X273050Y634346D02*
X330600D01*
X335346Y629600D01*
X622666Y381716D02*
Y396863D01*
X623302Y397500D01*
X735683Y350347D02*
X736567Y351231D01*
Y354358D02*
X748869Y366660D01*
X736567Y351231D02*
Y354358D01*
X436007Y485019D02*
X436290Y484735D01*
X427765Y489900D02*
X430193Y492329D01*
X470258D01*
X436290Y484735D02*
X515803D01*
X470258Y492329D02*
X474689Y496760D01*
X647329Y516011D02*
X647618Y516300D01*
X633015Y516011D02*
X647329D01*
X632726Y515722D02*
X633015Y516011D01*
X633976Y370853D02*
X638529Y375406D01*
X680850D01*
X632726Y370853D02*
X633976D01*
X925439Y660991D02*
X937652D01*
X614869Y236000D02*
Y236691D01*
X615909Y237731D01*
X626747D01*
X236645Y117094D02*
X239304Y119753D01*
X221548Y117094D02*
X236645D01*
X223598Y52626D02*
X237236D01*
X221548Y49126D02*
Y50576D01*
X219659Y47237D02*
X221548Y49126D01*
X213548Y51669D02*
X221510Y59632D01*
X219659Y42376D02*
Y47237D01*
X213548Y47626D02*
Y51669D01*
X221548Y50576D02*
X223598Y52626D01*
X260970Y120662D02*
X279400D01*
X260077Y119769D02*
X260970Y120662D01*
X127469Y95040D02*
X517138D01*
X146322Y163303D02*
Y163344D01*
X145870Y163796D02*
X146322Y163344D01*
X127469Y163796D02*
X145870D01*
X517138Y95040D02*
X520235Y98138D01*
X521485D01*
X372934Y101706D02*
X373577Y102350D01*
X171685Y101706D02*
X372934D01*
X165372Y109005D02*
X167174Y107203D01*
X165372Y109005D02*
Y116803D01*
X167174Y106217D02*
X171685Y101706D01*
X167174Y106217D02*
Y107203D01*
X238407Y120650D02*
X239304Y119753D01*
X324390Y196799D02*
X325019D01*
X337624Y209403D01*
X115921Y361950D02*
X324299D01*
X116073Y491632D02*
Y505246D01*
X113719Y507600D02*
X116073Y505246D01*
X337624Y209403D02*
Y213300D01*
X111693Y530600D02*
X113920Y528373D01*
X94150Y530600D02*
X111693D01*
X151589Y571799D02*
X151667Y571877D01*
X115921Y555927D02*
X124771D01*
X140643Y571799D01*
X151589D01*
X115126Y556722D02*
X115921Y555927D01*
X84769Y556722D02*
X115126D01*
X64769D02*
X70197Y551294D01*
Y541737D02*
Y551294D01*
Y541737D02*
X73697Y538237D01*
X66700Y558653D02*
Y579627D01*
X64769Y556722D02*
X66700Y558653D01*
X121221Y578377D02*
X151667D01*
X151589Y584955D02*
X151667Y584877D01*
X143328Y584955D02*
X151589D01*
X130621Y597662D02*
X143328Y584955D01*
X121121Y597662D02*
X130621D01*
X151463Y591581D02*
X151667Y591377D01*
X120658Y616885D02*
Y618635D01*
Y616885D02*
X145961Y591581D01*
X151463D01*
X200971Y524327D02*
X217452Y540808D01*
Y548033D01*
X214403Y551081D02*
X217452Y548033D01*
X213654Y551081D02*
X214403D01*
X192121Y524327D02*
X200971D01*
X212358Y552377D02*
X213654Y551081D01*
X207174Y552377D02*
X212358D01*
X214974Y557581D02*
X222452Y550104D01*
X213654Y557581D02*
X214974D01*
X222452Y549533D02*
X222614Y549370D01*
X222452Y549533D02*
Y550104D01*
X222614Y541188D02*
X239475Y524327D01*
X222614Y541188D02*
Y549370D01*
X207174Y558877D02*
X212358D01*
X213654Y557581D01*
X239475Y524327D02*
X248325D01*
Y491632D02*
Y524327D01*
X242921Y486227D02*
X248325Y491632D01*
X249481Y555927D02*
X274821D01*
X293721Y537027D01*
X240631Y555927D02*
X249481D01*
X207174Y565377D02*
X231181D01*
X240631Y555927D01*
X192121Y486227D02*
Y524327D01*
X174625Y545877D02*
X207174D01*
X283660Y603532D02*
X309826D01*
X309866Y603572D01*
X292310Y574453D02*
X296360D01*
X283660Y583103D02*
X292310Y574453D01*
X283660Y583103D02*
Y603532D01*
X293784Y571877D02*
X296360Y574453D01*
X207174Y571877D02*
X293784D01*
X170303Y643435D02*
X170803Y643935D01*
X145403Y643435D02*
X170303D01*
X232273Y616135D02*
X257423D01*
X257673Y616385D01*
X221473Y587035D02*
X240923D01*
X232273Y595685D02*
X240923Y587035D01*
X232273Y595685D02*
Y616135D01*
X240923Y587035D02*
X244973D01*
X212358Y578377D02*
X213654Y579673D01*
X214403D01*
X217938Y583501D02*
X221473Y587035D01*
X207174Y578377D02*
X212358D01*
X214403Y579673D02*
X217938Y583208D01*
Y583501D01*
X186669Y584877D02*
X207174D01*
X162153Y614335D02*
X186669D01*
X158103D02*
X162153D01*
X170803Y622985D01*
Y643935D01*
X145403Y622985D02*
X154053Y614335D01*
X158103D01*
X50344Y150890D02*
Y167920D01*
X48232Y148778D02*
X50344Y150890D01*
X68174Y130610D02*
Y147719D01*
X69232Y148778D01*
X259076Y119769D02*
X260077D01*
X259076Y139269D02*
X260077D01*
X242245Y156100D02*
X259076Y139269D01*
X203472Y156553D02*
X203924Y156100D01*
X242245D01*
X203472Y156553D02*
Y163303D01*
X202356Y149285D02*
X228272D01*
X238304Y139253D01*
X197122Y163303D02*
X197574Y162850D01*
X238304Y139253D02*
X239304D01*
X197574Y154067D02*
X202356Y149285D01*
X197574Y154067D02*
Y162850D01*
X356624Y237300D02*
Y257814D01*
X355644Y258794D02*
X356624Y257814D01*
X387624Y213300D02*
X390524Y216200D01*
X356624Y213300D02*
X387624D01*
X340950Y205421D02*
Y206078D01*
X337624Y209403D02*
X340950Y206078D01*
X344918Y201453D02*
X449783D01*
X340950Y205421D02*
X344918Y201453D01*
X513235Y267629D02*
Y295200D01*
X444338Y314900D02*
X444423Y314986D01*
X457654D01*
X471273D02*
X472238Y315950D01*
X457654Y314986D02*
X471273D01*
X513235Y267629D02*
X513251Y267614D01*
X508183Y216200D02*
X508396Y216413D01*
X481524Y216200D02*
X508183D01*
X614869Y365200D02*
X615369Y365700D01*
X614869Y337600D02*
Y365200D01*
X595369Y301500D02*
X603969Y310100D01*
X604329D01*
X595369Y289500D02*
Y301500D01*
X604329Y310100D02*
X605369Y311140D01*
Y317600D01*
X595369Y289000D02*
X601669Y282700D01*
X595369Y289000D02*
Y289500D01*
X601669Y264100D02*
Y282700D01*
X615369Y289500D02*
X617469Y287400D01*
X631369D01*
X597919Y181697D02*
X620928Y158688D01*
X592669Y185197D02*
Y186947D01*
Y185197D02*
X596169Y181697D01*
X597919D01*
X620928Y158688D02*
X626402D01*
X632402Y152688D01*
X592669Y198197D02*
X602971Y208500D01*
X604329D01*
X592669Y186947D02*
Y198197D01*
X604329Y208500D02*
X605369Y209540D01*
Y216000D01*
X614309Y200600D02*
X643469D01*
X605369Y209540D02*
X614309Y200600D01*
X761593Y200500D02*
X762005Y200089D01*
X736123Y200500D02*
X761593D01*
X731123Y205500D02*
X736123Y200500D01*
X729873Y205500D02*
X731123D01*
X695065Y209751D02*
X724371D01*
X728623Y205500D01*
X729873D01*
X698500Y241300D02*
X698500Y241300D01*
X730250D01*
X673100Y219500D02*
Y241300D01*
X657643Y347073D02*
X658643D01*
X660400Y348830D01*
Y361756D01*
X650767Y339197D02*
Y340197D01*
X657643Y347073D01*
X684954Y315986D02*
X690118Y321150D01*
X695642D01*
X670084Y315986D02*
X684954D01*
X684771Y339197D02*
X690118Y333850D01*
X695642D01*
X670267Y339197D02*
X684771D01*
X850900Y321150D02*
X863600Y308450D01*
X752158Y321150D02*
X850900D01*
Y346550D02*
X863600Y359250D01*
X752158Y346550D02*
X850900D01*
X772621Y333850D02*
X772801Y333671D01*
X752158Y333850D02*
X772621D01*
X736787Y795979D02*
Y796621D01*
Y772779D02*
Y795979D01*
X734587Y770579D02*
X736787Y772779D01*
X736450Y796959D02*
X736787Y796621D01*
X712087Y769663D02*
X713747Y771323D01*
X712087Y741979D02*
Y769663D01*
X756886Y722979D02*
X757010Y723104D01*
X736087Y722979D02*
X756886D01*
X712087D02*
X715984D01*
X747314Y695744D02*
Y699244D01*
X741814Y704744D02*
X747314Y699244D01*
X734219Y704744D02*
X741814D01*
X715984Y722979D02*
X734219Y704744D01*
X935623Y747281D02*
Y758295D01*
Y747281D02*
X939800Y743104D01*
X925303Y661127D02*
X925439Y660991D01*
X949941Y643936D02*
Y662655D01*
X953408Y666122D01*
X866297Y606332D02*
X866592Y606627D01*
X887203D01*
X875704Y437637D02*
X876300Y437042D01*
X850671Y437637D02*
X875704D01*
X850075Y438233D02*
X850671Y437637D01*
X851473Y504560D02*
X875559D01*
X876300Y505300D01*
X850732Y503819D02*
X851473Y504560D01*
X858532Y462574D02*
X876168D01*
X876300Y462442D01*
X858400Y462706D02*
X858532Y462574D01*
X875275Y555075D02*
X876300Y556100D01*
X859537Y555075D02*
X875275D01*
X858653Y554191D02*
X859537Y555075D01*
X876300Y449742D02*
X896763D01*
X809210Y454793D02*
X814260Y449742D01*
X819785D01*
X797922Y454793D02*
X809210D01*
X814260Y437042D02*
X819785D01*
X797893Y432905D02*
X810123D01*
X814260Y437042D01*
X747314Y601244D02*
X752814Y595744D01*
X766127D01*
X783337Y578534D01*
X747314Y601244D02*
Y604744D01*
X783337Y576784D02*
Y578534D01*
X769028Y419450D02*
Y422539D01*
X779988Y408490D02*
X788838D01*
X769028Y419450D02*
X779988Y408490D01*
X778393Y431904D02*
Y432905D01*
X769028Y422539D02*
X778393Y431904D01*
X749628Y507110D02*
X762000D01*
X783672Y469024D02*
X795390Y480742D01*
X783672Y460043D02*
Y469024D01*
X795390Y480742D02*
X797891D01*
X778422Y454793D02*
X783672Y460043D01*
X749210Y462442D02*
X771773D01*
X778422Y455793D01*
Y454793D02*
Y455793D01*
X662241Y293829D02*
X664970Y296558D01*
Y300600D01*
X650584Y314986D02*
Y315986D01*
Y314986D02*
X664970Y300600D01*
X736087D01*
X748869Y366660D02*
Y367410D01*
X698069Y397500D02*
X699942Y395627D01*
Y382156D02*
Y395627D01*
X701159Y371724D02*
X708121Y378687D01*
X703230Y366724D02*
X713121Y376616D01*
X682921Y380406D02*
X696602Y366724D01*
X686253Y384145D02*
X698673Y371724D01*
X686253Y384145D02*
Y386574D01*
X696602Y366724D02*
X703230D01*
X695096Y361160D02*
X724369D01*
X713121Y376616D02*
Y381662D01*
X680850Y375406D02*
X695096Y361160D01*
X708121Y378687D02*
Y387000D01*
X685369Y387458D02*
X686253Y386574D01*
X713121Y381662D02*
X720079Y388620D01*
X681910Y380406D02*
X682921D01*
X698673Y371724D02*
X701159D01*
X724369Y361160D02*
X729869Y366660D01*
Y367410D01*
X656350Y261300D02*
X673100D01*
X647700Y252650D02*
X656350Y261300D01*
X647700Y251300D02*
Y252650D01*
X686410Y274110D02*
X699129D01*
X673100Y261300D02*
X673600D01*
X686410Y274110D01*
X708121Y387000D02*
X714059Y392938D01*
Y412750D02*
X729429D01*
X655504Y356860D02*
X660400Y361756D01*
X628078Y356860D02*
X655504D01*
X595283Y366088D02*
X596469Y367274D01*
Y397500D01*
X520269Y381000D02*
Y397500D01*
X493335Y339197D02*
X507137Y353000D01*
X469469Y397500D02*
X469900Y397069D01*
Y381000D02*
Y397069D01*
X444330Y381000D02*
Y397239D01*
X444069Y397500D02*
X444330Y397239D01*
X375369Y397500D02*
X393269D01*
X384059Y781400D02*
X531810D01*
X547810Y797400D01*
X571500D01*
X399061Y527392D02*
X399669Y528000D01*
X382965Y527392D02*
X399061D01*
X367869Y602000D02*
X399669D01*
X227929Y665456D02*
X253569D01*
X253773Y665252D01*
X237769Y673956D02*
X237989Y674175D01*
X273050D01*
X335346Y629600D02*
X399669D01*
X398442Y684327D02*
X399669Y683100D01*
X253773Y637785D02*
Y649051D01*
Y637785D02*
X257673Y633885D01*
X219429Y673956D02*
X227929Y665456D01*
X201669Y679206D02*
X207021Y684557D01*
Y692646D01*
X207769Y693394D01*
X196419Y673956D02*
X198169D01*
X201669Y677456D01*
Y679206D01*
X191169Y670051D02*
Y670456D01*
X195471Y674757D01*
X170803Y661435D02*
X182553D01*
X191169Y670051D01*
X208521Y700487D02*
X213834Y705800D01*
X208521Y694327D02*
Y700487D01*
X687368Y657700D02*
X704087D01*
X647926Y624192D02*
X686602D01*
X647618Y624500D02*
X647926Y624192D01*
X686602D02*
X686910Y623884D01*
X697928Y594028D02*
X713729Y578227D01*
X690537Y594028D02*
X697928D01*
X713729Y578227D02*
X717729D01*
X687165Y597400D02*
X690537Y594028D01*
X647618Y597400D02*
X687165D01*
X669709Y570500D02*
X669809Y570600D01*
X647618Y570400D02*
X647718Y570500D01*
X669709D01*
X699642Y579100D02*
X699942Y578800D01*
X647918Y579100D02*
X699642D01*
X647618Y588400D02*
X685827D01*
X647618Y561400D02*
X693643D01*
X717729Y578227D02*
X745626D01*
X747069Y576784D01*
X691926Y547197D02*
X694456Y549727D01*
X714229D01*
X717729Y553227D01*
X690676Y547197D02*
X691926D01*
X647618Y552400D02*
X678552D01*
X743996Y553227D02*
X747069Y556300D01*
X717729Y553227D02*
X743996D01*
X647618Y579400D02*
X647918Y579100D01*
X730469Y532669D02*
X730628Y532510D01*
X700370Y532669D02*
X730469D01*
X665775Y542944D02*
X666131Y542588D01*
X647974Y542944D02*
X665775D01*
X660644Y524813D02*
X661131Y524327D01*
X648105Y524813D02*
X660644D01*
X692870Y482634D02*
X692905Y482598D01*
X709377D01*
X710755Y483977D02*
X730628D01*
X699129Y489944D02*
X699165Y489908D01*
X709377Y482598D02*
X710755Y483977D01*
X689662Y489944D02*
X699129D01*
X688877Y489159D02*
X689662Y489944D01*
X679600Y461550D02*
X729318D01*
X730210Y462442D01*
X647618Y543300D02*
X647974Y542944D01*
X702424Y437956D02*
X729873D01*
X673100Y416931D02*
Y431758D01*
X720079Y388620D02*
X729869D01*
X685400Y532510D02*
X685750Y532860D01*
X667949Y532510D02*
X685400D01*
X666159Y534300D02*
X667949Y532510D01*
X647618Y534300D02*
X666159D01*
X679600Y382716D02*
X681910Y380406D01*
X660400Y382716D02*
X679600D01*
X729429Y412750D02*
X729869Y412310D01*
X647618Y525300D02*
X648105Y524813D01*
X498728Y419610D02*
X508204Y429085D01*
X497978Y419610D02*
X498728D01*
X508204Y429085D02*
Y431814D01*
X508735Y452353D02*
X523297D01*
X508396Y452692D02*
X508735Y452353D01*
X617528Y501610D02*
X619078Y500060D01*
Y494710D02*
Y500060D01*
X672669Y416500D02*
X673100Y416931D01*
X628078Y494710D02*
Y500060D01*
Y494710D02*
X633629Y489159D01*
X626528Y501610D02*
X628078Y500060D01*
X698069Y416500D02*
X698500Y416931D01*
Y431542D01*
X599139Y479151D02*
Y501321D01*
X599428Y501610D01*
X598850Y478863D02*
X599139Y479151D01*
X572359Y501541D02*
X572428Y501610D01*
X572359Y487666D02*
Y501541D01*
X596469Y416500D02*
Y426294D01*
X590550Y432213D02*
X596469Y426294D01*
X617802Y422000D02*
X623302Y416500D01*
X590550Y432213D02*
Y432575D01*
X646519Y416500D02*
X647269D01*
X590428Y488003D02*
Y501610D01*
X580819Y478558D02*
X581124Y478863D01*
Y501305D02*
X581428Y501610D01*
X581124Y478863D02*
Y501305D01*
X564840Y482425D02*
X565004Y482262D01*
X564840Y482425D02*
Y489202D01*
X557530Y486174D02*
Y487425D01*
X565004Y478558D02*
Y482262D01*
X554428Y490527D02*
X557530Y487425D01*
X554428Y490527D02*
Y501610D01*
X563059Y433140D02*
X568474D01*
X571069Y416500D02*
X571819D01*
X577319Y422000D01*
Y430900D01*
X577960Y431542D01*
X563428Y490614D02*
X564840Y489202D01*
X565004Y478558D02*
X565888Y477674D01*
X563428Y490614D02*
Y501610D01*
X546419Y416500D02*
X563059Y433140D01*
X545669Y416500D02*
X546419D01*
X539749Y444493D02*
X562694D01*
X563900Y445699D02*
X565150D01*
X562694Y444493D02*
X563900Y445699D01*
X523848Y451802D02*
X553516D01*
X553517Y451803D01*
X539199Y445043D02*
X539749Y444493D01*
X520269Y445043D02*
X539199D01*
X523297Y452353D02*
X523848Y451802D01*
X520700Y416931D02*
Y431542D01*
X520269Y416500D02*
X520700Y416931D01*
X469469Y462590D02*
X542169D01*
X542910Y463332D01*
X494869Y416500D02*
X497978Y419610D01*
X542138Y486703D02*
X545328Y489893D01*
X542138Y485453D02*
Y486703D01*
X545328Y489893D02*
Y501610D01*
X536328Y491222D02*
Y501610D01*
X532703Y487330D02*
Y487596D01*
X536328Y491222D01*
X389627Y489900D02*
X427765D01*
X434507Y475925D02*
X436007Y477425D01*
X419944Y475925D02*
X434507D01*
X436007Y477425D02*
X481738D01*
X469469Y416500D02*
X470077Y417108D01*
Y432272D01*
X418960Y451509D02*
X495300D01*
X515803Y484735D02*
X525778Y494710D01*
Y500060D02*
X527328Y501610D01*
X525778Y494710D02*
Y500060D01*
X418669Y477200D02*
X419944Y475925D01*
X418669Y416500D02*
Y429359D01*
X387890Y432272D02*
X393700Y426462D01*
Y416931D02*
Y426462D01*
X474689Y496760D02*
X516778D01*
X518328Y498310D02*
Y501610D01*
X516778Y496760D02*
X518328Y498310D01*
X393269Y416500D02*
X393700Y416931D01*
X457654Y543300D02*
X515238D01*
X419319Y552750D02*
X514636D01*
X514669D02*
X515238Y553319D01*
X418669Y528000D02*
X419619Y527050D01*
X458338D01*
X470077Y534300D02*
X515238D01*
X418669Y502600D02*
X418960Y502309D01*
X469900D01*
X482313Y524327D02*
X482800Y524813D01*
X514752D02*
X515238Y525300D01*
X482800Y524813D02*
X514752D01*
X495889Y516300D02*
X515238D01*
X418669Y451800D02*
X418960Y451509D01*
X477072Y561400D02*
X515238D01*
X488124Y570400D02*
X515238D01*
X418669Y578800D02*
X477878D01*
X420172Y603503D02*
X487878D01*
X418669Y602000D02*
X420172Y603503D01*
X500000Y578800D02*
X500300Y579100D01*
X514938D02*
X515238Y579400D01*
X500300Y579100D02*
X514938D01*
X419737Y628532D02*
X500000D01*
X418669Y629600D02*
X419737Y628532D01*
X515238Y597400D02*
X555287D01*
X418813Y683244D02*
X554428D01*
X418669Y683100D02*
X418813Y683244D01*
X418669Y705800D02*
X535200D01*
X514636Y606850D02*
X538678D01*
X514636Y615850D02*
X530019D01*
X419619Y730250D02*
X526297D01*
X418669Y731200D02*
X419619Y730250D01*
X514636Y552750D02*
X514669D01*
X418669Y553400D02*
X419319Y552750D01*
X409374Y756806D02*
X545669D01*
X409169Y756600D02*
X409374Y756806D01*
X545550Y628650D02*
X545669Y628532D01*
X525047Y628650D02*
X545550D01*
X522047Y625650D02*
X525047Y628650D01*
X513629Y625650D02*
X522047D01*
X491237Y315950D02*
X512985D01*
X513235Y316200D01*
X514636Y317600D02*
X545669D01*
X513235Y316200D02*
X514636Y317600D01*
X512079Y624100D02*
X513629Y625650D01*
D136*
X76200Y835500D02*
D03*
Y886300D02*
D03*
X876300Y505300D02*
D03*
Y556100D02*
D03*
X863600Y308450D02*
D03*
Y359250D02*
D03*
X520700Y797400D02*
D03*
X571500D02*
D03*
X622300D02*
D03*
D137*
X293721Y486227D02*
D03*
Y511627D02*
D03*
X242921Y435427D02*
D03*
Y460827D02*
D03*
X192121Y435427D02*
D03*
Y460827D02*
D03*
X144583Y435427D02*
D03*
Y460827D02*
D03*
X481738Y353000D02*
D03*
X456338D02*
D03*
X507137D02*
D03*
X532537D02*
D03*
X209822Y269203D02*
D03*
Y243803D02*
D03*
X101756Y116803D02*
D03*
Y91403D02*
D03*
D138*
X293721Y537027D02*
D03*
X242921Y486227D02*
D03*
X192121D02*
D03*
X144583D02*
D03*
X209822Y294603D02*
D03*
X101756Y142203D02*
D03*
D139*
X837644Y856819D02*
D03*
X837644Y919316D02*
D03*
X790146Y886816D02*
D03*
D140*
X430938Y353000D02*
D03*
D141*
X533787Y154264D02*
D03*
D142*
Y174264D02*
D03*
D143*
X581602Y152688D02*
D03*
X607002D02*
D03*
X668869Y48600D02*
D03*
D144*
X632402Y152688D02*
D03*
D145*
X668869Y98600D02*
D03*
D146*
X177909Y15626D02*
D03*
X261409D02*
D03*
D147*
X243027Y45626D02*
D03*
X196291D02*
D03*
D148*
X950000Y48575D02*
D03*
X50000Y50000D02*
D03*
X950000Y950000D02*
D03*
X50000D02*
D03*
D149*
X165100Y142203D02*
D03*
X710768Y497869D02*
D03*
X674423Y508148D02*
D03*
X95250Y497500D02*
D03*
X101756Y64078D02*
D03*
X184398Y135713D02*
D03*
X361950Y564590D02*
D03*
X158750Y15626D02*
D03*
X279400Y60787D02*
D03*
X261409Y52224D02*
D03*
X808645Y333671D02*
D03*
X809047Y308539D02*
D03*
X943227Y681596D02*
D03*
X498131Y302446D02*
D03*
X349975Y285214D02*
D03*
X972683Y901700D02*
D03*
X706631Y806450D02*
D03*
X795225Y787400D02*
D03*
X694798Y730250D02*
D03*
X878209Y768350D02*
D03*
X844922Y702679D02*
D03*
X895350Y717550D02*
D03*
X914400Y641350D02*
D03*
X979598Y595289D02*
D03*
X812800Y603250D02*
D03*
X730250Y592445D02*
D03*
X647700Y647700D02*
D03*
X501650Y643241D02*
D03*
X673100Y479193D02*
D03*
X819150Y474215D02*
D03*
X857244Y406400D02*
D03*
X920750Y408102D02*
D03*
X719869Y274110D02*
D03*
X714059Y343000D02*
D03*
X581602Y336784D02*
D03*
X673240Y184039D02*
D03*
X858003Y44933D02*
D03*
X614604Y102350D02*
D03*
X533854Y133350D02*
D03*
X500000Y277401D02*
D03*
X285210Y222250D02*
D03*
X386734Y243803D02*
D03*
X177909Y52224D02*
D03*
X82550Y167087D02*
D03*
Y267886D02*
D03*
X128625Y209550D02*
D03*
X317360Y486227D02*
D03*
X267240Y435427D02*
D03*
X141577Y538237D02*
D03*
X89712Y603250D02*
D03*
X186669Y628536D02*
D03*
X242921Y691036D02*
D03*
X183378Y704850D02*
D03*
X217874Y791926D02*
D03*
X120650Y952323D02*
D03*
X273050Y694327D02*
D03*
X456338Y335629D02*
D03*
X470077Y339197D02*
D03*
X531135Y469900D02*
D03*
X666750Y444780D02*
D03*
X604753Y433264D02*
D03*
X623153Y432272D02*
D03*
X564732Y652823D02*
D03*
Y588400D02*
D03*
X457996Y277205D02*
D03*
X449783Y290691D02*
D03*
X445485Y434296D02*
D03*
X428711D02*
D03*
X329660Y655060D02*
D03*
Y619479D02*
D03*
X768966Y850900D02*
D03*
X767810Y532860D02*
D03*
X763429Y425786D02*
D03*
X273050Y634346D02*
D03*
X622666Y381716D02*
D03*
X735683Y350347D02*
D03*
X436007Y485019D02*
D03*
X632726Y515722D02*
D03*
Y370853D02*
D03*
X937652Y660991D02*
D03*
X626747Y237731D02*
D03*
X221548Y117094D02*
D03*
X221510Y59632D02*
D03*
X279400Y120662D02*
D03*
X127469Y163796D02*
D03*
Y95040D02*
D03*
X373577Y102350D02*
D03*
X521485Y98138D02*
D03*
X324390Y196799D02*
D03*
X324299Y361950D02*
D03*
X116073Y491632D02*
D03*
X115921Y361950D02*
D03*
X186669Y584877D02*
D03*
Y614335D02*
D03*
X449783Y201453D02*
D03*
X457654Y314986D02*
D03*
X631369Y287400D02*
D03*
X729873Y205500D02*
D03*
X730250Y241300D02*
D03*
X939800Y743104D02*
D03*
X850075Y438233D02*
D03*
X850732Y503819D02*
D03*
X858400Y462706D02*
D03*
X858653Y554191D02*
D03*
X762000Y507110D02*
D03*
X736087Y300600D02*
D03*
X699942Y382156D02*
D03*
X699129Y274110D02*
D03*
X714059Y412750D02*
D03*
X628078Y356860D02*
D03*
X520269Y381000D02*
D03*
X444069Y331327D02*
D03*
X469900Y381000D02*
D03*
X444330D02*
D03*
X375369Y397500D02*
D03*
X384059Y781400D02*
D03*
X382965Y527392D02*
D03*
X253773Y665252D02*
D03*
X273050Y674175D02*
D03*
X253773Y649051D02*
D03*
X687368Y657700D02*
D03*
X686910Y623884D02*
D03*
X669809Y570600D02*
D03*
X699942Y578800D02*
D03*
X690676Y547197D02*
D03*
X693643Y561400D02*
D03*
X685827Y588400D02*
D03*
X678552Y552400D02*
D03*
X700370Y532669D02*
D03*
X661131Y524327D02*
D03*
X666131Y542588D02*
D03*
X692870Y482634D02*
D03*
X699165Y489908D02*
D03*
X679600Y461550D02*
D03*
X673100Y431758D02*
D03*
X714059Y392938D02*
D03*
X685369Y387458D02*
D03*
X685750Y532860D02*
D03*
X660400Y382716D02*
D03*
X508204Y431814D02*
D03*
X508396Y452692D02*
D03*
X698500Y431542D02*
D03*
X598850Y478863D02*
D03*
X572359Y487666D02*
D03*
X608669Y488003D02*
D03*
X590550Y432575D02*
D03*
X590428Y488003D02*
D03*
X580819Y478558D02*
D03*
X557530Y486174D02*
D03*
X577960Y431542D02*
D03*
X568474Y433140D02*
D03*
X565888Y477674D02*
D03*
X565150Y445699D02*
D03*
X553517Y451803D02*
D03*
X520269Y445043D02*
D03*
X520700Y431542D02*
D03*
X542910Y463332D02*
D03*
X542138Y485453D02*
D03*
X532703Y487330D02*
D03*
X469469Y462590D02*
D03*
X470077Y432272D02*
D03*
X446338Y469900D02*
D03*
X387890Y432272D02*
D03*
X389627Y489900D02*
D03*
X457654Y543300D02*
D03*
X458338Y527050D02*
D03*
X470077Y534300D02*
D03*
X469900Y502309D02*
D03*
X482313Y524327D02*
D03*
X481738Y477425D02*
D03*
X495889Y516300D02*
D03*
X495300Y451509D02*
D03*
X477072Y561400D02*
D03*
X488124Y570400D02*
D03*
X477878Y578800D02*
D03*
X487878Y603503D02*
D03*
X500000Y578800D02*
D03*
Y628532D02*
D03*
X555287Y597400D02*
D03*
X554428Y683244D02*
D03*
X535200Y705800D02*
D03*
X538678Y606850D02*
D03*
X530019Y615850D02*
D03*
X526297Y730250D02*
D03*
X545669Y756806D02*
D03*
Y628532D02*
D03*
Y317600D02*
D03*
M02*
