G04*
G04 #@! TF.GenerationSoftware,Altium Limited,Altium Designer,23.9.2 (47)*
G04*
G04 Layer_Color=65535*
%FSLAX44Y44*%
%MOMM*%
G71*
G04*
G04 #@! TF.SameCoordinates,AC20B462-CAF6-4E74-BB64-28AA76468CC9*
G04*
G04*
G04 #@! TF.FilePolarity,Positive*
G04*
G01*
G75*
%ADD10C,0.2500*%
%ADD11C,0.5000*%
%ADD12C,0.6000*%
%ADD13C,0.1524*%
%ADD14C,0.2000*%
%ADD15C,0.4000*%
%ADD16C,0.2032*%
%ADD17C,0.5000*%
%ADD18C,0.0508*%
%ADD19C,0.1778*%
%ADD20C,0.2540*%
%ADD21C,0.0762*%
%ADD22C,0.1500*%
%ADD23C,0.1500*%
D10*
X37188Y633152D02*
G03*
X37188Y633152I-1250J0D01*
G01*
X59450Y579627D02*
G03*
X59450Y579627I-1250J0D01*
G01*
X138390Y591377D02*
G03*
X138390Y591377I-1250J0D01*
G01*
X201271Y693577D02*
G03*
X201271Y693577I-1250J0D01*
G01*
X660928Y633350D02*
G03*
X660928Y633350I-1250J0D01*
G01*
X713337Y750979D02*
G03*
X713337Y750979I-1250J0D01*
G01*
X736064Y604744D02*
G03*
X736064Y604744I-1250J0D01*
G01*
X912111Y766045D02*
G03*
X912111Y766045I-1250J0D01*
G01*
X887403Y747227D02*
G03*
X887403Y747227I-1250J0D01*
G01*
X824572Y632090D02*
G03*
X824572Y632090I-1250J0D01*
G01*
X879952Y606627D02*
G03*
X879952Y606627I-1250J0D01*
G01*
X624619Y337600D02*
G03*
X624619Y337600I-1250J0D01*
G01*
Y236000D02*
G03*
X624619Y236000I-1250J0D01*
G01*
X674350Y228000D02*
G03*
X674350Y228000I-1250J0D01*
G01*
X464987Y288450D02*
G03*
X464987Y288450I-1250J0D01*
G01*
X482774Y203700D02*
G03*
X482774Y203700I-1250J0D01*
G01*
X329874Y213300D02*
G03*
X329874Y213300I-1250J0D01*
G01*
X312231Y261232D02*
G03*
X312231Y261232I-1250J0D01*
G01*
X90583Y268710D02*
G03*
X90583Y268710I-1250J0D01*
G01*
X140072Y116803D02*
G03*
X140072Y116803I-1250J0D01*
G01*
X77924Y130610D02*
G03*
X77924Y130610I-1250J0D01*
G01*
X207909Y54626D02*
G03*
X207909Y54626I-1250J0D01*
G01*
D11*
X173444Y586127D02*
G03*
X173444Y586127I-2500J0D01*
G01*
D12*
X894252Y627877D02*
G03*
X894252Y627877I-3000J0D01*
G01*
D13*
X860787Y200500D02*
G03*
X860787Y200500I-73787J0D01*
G01*
X22389Y637607D02*
Y795595D01*
X130847D01*
Y637607D02*
Y795595D01*
X22389Y637607D02*
X130847D01*
X826833Y469681D02*
X869251D01*
X826833Y417103D02*
X869251D01*
X702691Y353789D02*
X745109D01*
X702691Y301211D02*
X745109D01*
X868407Y194150D02*
Y206850D01*
X862057Y200500D02*
X874757D01*
X16464Y626882D02*
Y617995D01*
X20908D01*
X22389Y619476D01*
Y625401D01*
X20908Y626882D01*
X16464D01*
X25351Y617995D02*
X28314D01*
X26833D01*
Y626882D01*
X25351Y625401D01*
X49319Y595415D02*
Y601340D01*
X47838Y602821D01*
X44875D01*
X43394Y601340D01*
Y595415D01*
X44875Y593934D01*
X47838D01*
X46356Y596896D02*
X49319Y593934D01*
X47838D02*
X49319Y595415D01*
X58206Y593934D02*
X52281D01*
X58206Y599858D01*
Y601340D01*
X56725Y602821D01*
X53762D01*
X52281Y601340D01*
X33873Y554356D02*
Y563244D01*
X38316D01*
X39797Y561762D01*
Y558800D01*
X38316Y557319D01*
X33873D01*
X36835D02*
X39797Y554356D01*
X42760D02*
X45722D01*
X44241D01*
Y563244D01*
X42760Y561762D01*
X56090Y563244D02*
X53128Y561762D01*
X50166Y558800D01*
Y555838D01*
X51647Y554356D01*
X54609D01*
X56090Y555838D01*
Y557319D01*
X54609Y558800D01*
X50166D01*
X86583Y536047D02*
Y544934D01*
X91026D01*
X92507Y543453D01*
Y540491D01*
X91026Y539009D01*
X86583D01*
X95470Y544934D02*
Y537528D01*
X96951Y536047D01*
X99913D01*
X101395Y537528D01*
Y544934D01*
X104357Y536047D02*
Y544934D01*
X107319Y541972D01*
X110282Y544934D01*
Y536047D01*
X113244D02*
Y544934D01*
X117688D01*
X119169Y543453D01*
Y540491D01*
X117688Y539009D01*
X113244D01*
X122131Y534566D02*
X128056D01*
X136943Y543453D02*
X135462Y544934D01*
X132500D01*
X131018Y543453D01*
Y541972D01*
X132500Y540491D01*
X135462D01*
X136943Y539009D01*
Y537528D01*
X135462Y536047D01*
X132500D01*
X131018Y537528D01*
X145830Y544934D02*
X139906D01*
Y536047D01*
X145830D01*
X139906Y540491D02*
X142868D01*
X148793Y544934D02*
Y536047D01*
X154717D01*
X63893Y519128D02*
X55006D01*
Y523572D01*
X56488Y525053D01*
X59450D01*
X60931Y523572D01*
Y519128D01*
Y522090D02*
X63893Y525053D01*
Y528015D02*
Y530978D01*
Y529496D01*
X55006D01*
X56488Y528015D01*
X63893Y541346D02*
Y535421D01*
X57969Y541346D01*
X56488D01*
X55006Y539865D01*
Y536902D01*
X56488Y535421D01*
X87643Y479748D02*
X78756D01*
Y484191D01*
X80238Y485672D01*
X83200D01*
X84681Y484191D01*
Y479748D01*
Y482710D02*
X87643Y485672D01*
X80238Y488635D02*
X78756Y490116D01*
Y493078D01*
X80238Y494559D01*
X81719D01*
X83200Y493078D01*
Y491597D01*
Y493078D01*
X84681Y494559D01*
X86162D01*
X87643Y493078D01*
Y490116D01*
X86162Y488635D01*
X87643Y497522D02*
Y500484D01*
Y499003D01*
X78756D01*
X80238Y497522D01*
X87643Y510853D02*
Y504928D01*
X81719Y510853D01*
X80238D01*
X78756Y509371D01*
Y506409D01*
X80238Y504928D01*
X97890Y482820D02*
X106777D01*
Y488745D01*
X97890Y497632D02*
Y491707D01*
X106777D01*
Y497632D01*
X102333Y491707D02*
Y494669D01*
X97890Y500594D02*
X106777D01*
Y505038D01*
X105296Y506519D01*
X99371D01*
X97890Y505038D01*
Y500594D01*
X99371Y509481D02*
X97890Y510962D01*
Y513925D01*
X99371Y515406D01*
X100852D01*
X102333Y513925D01*
Y512444D01*
Y513925D01*
X103814Y515406D01*
X105296D01*
X106777Y513925D01*
Y510962D01*
X105296Y509481D01*
X99371Y518368D02*
X97890Y519850D01*
Y522812D01*
X99371Y524293D01*
X105296D01*
X106777Y522812D01*
Y519850D01*
X105296Y518368D01*
X99371D01*
X106777Y533180D02*
Y527256D01*
X100852Y533180D01*
X99371D01*
X97890Y531699D01*
Y528737D01*
X99371Y527256D01*
X127236Y579756D02*
Y588644D01*
X131679D01*
X133161Y587162D01*
Y584200D01*
X131679Y582719D01*
X127236D01*
X130198D02*
X133161Y579756D01*
X136123Y581238D02*
X137604Y579756D01*
X140567D01*
X142048Y581238D01*
Y587162D01*
X140567Y588644D01*
X137604D01*
X136123Y587162D01*
Y585681D01*
X137604Y584200D01*
X142048D01*
X81494Y598969D02*
Y607856D01*
X85938D01*
X87419Y606375D01*
Y603412D01*
X85938Y601931D01*
X81494D01*
X84457D02*
X87419Y598969D01*
X90381Y606375D02*
X91862Y607856D01*
X94825D01*
X96306Y606375D01*
Y604893D01*
X94825Y603412D01*
X96306Y601931D01*
Y600450D01*
X94825Y598969D01*
X91862D01*
X90381Y600450D01*
Y601931D01*
X91862Y603412D01*
X90381Y604893D01*
Y606375D01*
X91862Y603412D02*
X94825D01*
X85275Y617995D02*
Y626882D01*
X89719D01*
X91200Y625401D01*
Y622438D01*
X89719Y620957D01*
X85275D01*
X88238D02*
X91200Y617995D01*
X94162D02*
X97125D01*
X95644D01*
Y626882D01*
X94162Y625401D01*
X150457Y604004D02*
Y596598D01*
X151938Y595117D01*
X154900D01*
X156382Y596598D01*
Y604004D01*
X159344Y595117D02*
X162306D01*
X160825D01*
Y604004D01*
X159344Y602523D01*
X147452Y634975D02*
X145971Y636456D01*
X143009D01*
X141528Y634975D01*
Y633494D01*
X143009Y632013D01*
X145971D01*
X147452Y630532D01*
Y629050D01*
X145971Y627569D01*
X143009D01*
X141528Y629050D01*
X150415Y636456D02*
Y627569D01*
X154858D01*
X156340Y629050D01*
Y634975D01*
X154858Y636456D01*
X150415D01*
X159302Y627569D02*
Y633494D01*
X162264Y636456D01*
X165227Y633494D01*
Y627569D01*
Y632013D01*
X159302D01*
X137257Y669637D02*
Y678524D01*
X141701D01*
X143182Y677043D01*
Y674081D01*
X141701Y672600D01*
X137257D01*
X140219D02*
X143182Y669637D01*
X152069D02*
X146144D01*
X152069Y675562D01*
Y677043D01*
X150588Y678524D01*
X147625D01*
X146144Y677043D01*
X164601Y671440D02*
Y680327D01*
X169045D01*
X170526Y678846D01*
Y675884D01*
X169045Y674402D01*
X164601D01*
X167564D02*
X170526Y671440D01*
X173488Y680327D02*
X179413D01*
Y678846D01*
X173488Y672921D01*
Y671440D01*
X300151Y595430D02*
X303113D01*
X301632D01*
Y586543D01*
X300151D01*
X303113D01*
X307557D02*
Y595430D01*
X313482Y586543D01*
Y595430D01*
X316444D02*
X322369D01*
X319407D01*
Y586543D01*
X325331Y585061D02*
X331256D01*
X334218Y586543D02*
Y592467D01*
X338662D01*
X340143Y590986D01*
Y586543D01*
X301966Y630441D02*
Y639328D01*
X306410D01*
X307891Y637847D01*
Y634884D01*
X306410Y633403D01*
X301966D01*
X304928D02*
X307891Y630441D01*
X316778Y639328D02*
X310853D01*
Y634884D01*
X313816Y636365D01*
X315297D01*
X316778Y634884D01*
Y631922D01*
X315297Y630441D01*
X312334D01*
X310853Y631922D01*
X274412Y618086D02*
X265525D01*
Y622529D01*
X267006Y624011D01*
X269968D01*
X271450Y622529D01*
Y618086D01*
Y621048D02*
X274412Y624011D01*
X265525Y632898D02*
X267006Y629935D01*
X269968Y626973D01*
X272931D01*
X274412Y628454D01*
Y631416D01*
X272931Y632898D01*
X271450D01*
X269968Y631416D01*
Y626973D01*
X247963Y618729D02*
X239076D01*
Y623173D01*
X240557Y624654D01*
X243519D01*
X245000Y623173D01*
Y618729D01*
Y621692D02*
X247963Y624654D01*
X240557Y627616D02*
X239076Y629098D01*
Y632060D01*
X240557Y633541D01*
X242038D01*
X243519Y632060D01*
Y630579D01*
Y632060D01*
X245000Y633541D01*
X246481D01*
X247963Y632060D01*
Y629098D01*
X246481Y627616D01*
X229025Y606375D02*
X227544Y607856D01*
X224582D01*
X223100Y606375D01*
Y604893D01*
X224582Y603412D01*
X227544D01*
X229025Y601931D01*
Y600450D01*
X227544Y598969D01*
X224582D01*
X223100Y600450D01*
X237912Y606375D02*
X236431Y607856D01*
X233469D01*
X231988Y606375D01*
Y600450D01*
X233469Y598969D01*
X236431D01*
X237912Y600450D01*
X240875Y607856D02*
Y598969D01*
X246800D01*
X207680Y602158D02*
X206199Y603639D01*
X203236D01*
X201755Y602158D01*
Y596233D01*
X203236Y594752D01*
X206199D01*
X207680Y596233D01*
X210642Y594752D02*
X213605D01*
X212123D01*
Y603639D01*
X210642Y602158D01*
X199841Y629235D02*
X190954D01*
Y633678D01*
X192435Y635160D01*
X195397D01*
X196879Y633678D01*
Y629235D01*
Y632197D02*
X199841Y635160D01*
Y638122D02*
Y641084D01*
Y639603D01*
X190954D01*
X192435Y638122D01*
X199841Y649971D02*
X190954D01*
X195397Y645528D01*
Y651453D01*
X220236Y629235D02*
X211349D01*
Y633678D01*
X212830Y635160D01*
X215792D01*
X217273Y633678D01*
Y629235D01*
Y632197D02*
X220236Y635160D01*
Y638122D02*
Y641084D01*
Y639603D01*
X211349D01*
X212830Y638122D01*
Y645528D02*
X211349Y647009D01*
Y649971D01*
X212830Y651453D01*
X214311D01*
X215792Y649971D01*
Y648490D01*
Y649971D01*
X217273Y651453D01*
X218755D01*
X220236Y649971D01*
Y647009D01*
X218755Y645528D01*
X257428Y652847D02*
X248540D01*
Y657290D01*
X250022Y658772D01*
X252984D01*
X254465Y657290D01*
Y652847D01*
Y655809D02*
X257428Y658772D01*
Y661734D02*
Y664696D01*
Y663215D01*
X248540D01*
X250022Y661734D01*
X248540Y669140D02*
Y675065D01*
X250022D01*
X255946Y669140D01*
X257428D01*
X237958Y734738D02*
Y727332D01*
X239439Y725851D01*
X242402D01*
X243883Y727332D01*
Y734738D01*
X246845Y733257D02*
X248326Y734738D01*
X251289D01*
X252770Y733257D01*
Y731775D01*
X251289Y730294D01*
X249808D01*
X251289D01*
X252770Y728813D01*
Y727332D01*
X251289Y725851D01*
X248326D01*
X246845Y727332D01*
X171390Y752731D02*
X169908Y754212D01*
X166946D01*
X165465Y752731D01*
Y746807D01*
X166946Y745325D01*
X169908D01*
X171390Y746807D01*
X180277Y745325D02*
X174352D01*
X180277Y751250D01*
Y752731D01*
X178795Y754212D01*
X175833D01*
X174352Y752731D01*
X205681Y781635D02*
X196794D01*
Y786078D01*
X198275Y787560D01*
X201237D01*
X202718Y786078D01*
Y781635D01*
Y784597D02*
X205681Y787560D01*
Y790522D02*
Y793484D01*
Y792003D01*
X196794D01*
X198275Y790522D01*
Y797928D02*
X196794Y799409D01*
Y802372D01*
X198275Y803853D01*
X199756D01*
X201237Y802372D01*
X202718Y803853D01*
X204200D01*
X205681Y802372D01*
Y799409D01*
X204200Y797928D01*
X202718D01*
X201237Y799409D01*
X199756Y797928D01*
X198275D01*
X201237Y799409D02*
Y802372D01*
X225239Y781635D02*
X216352D01*
Y786078D01*
X217833Y787560D01*
X220795D01*
X222276Y786078D01*
Y781635D01*
Y784597D02*
X225239Y787560D01*
Y790522D02*
Y793484D01*
Y792003D01*
X216352D01*
X217833Y790522D01*
X216352Y803853D02*
Y797928D01*
X220795D01*
X219314Y800890D01*
Y802372D01*
X220795Y803853D01*
X223758D01*
X225239Y802372D01*
Y799409D01*
X223758Y797928D01*
X245559Y781381D02*
X236672D01*
Y785824D01*
X238153Y787306D01*
X241115D01*
X242596Y785824D01*
Y781381D01*
Y784343D02*
X245559Y787306D01*
Y790268D02*
Y793230D01*
Y791749D01*
X236672D01*
X238153Y790268D01*
X244078Y797674D02*
X245559Y799155D01*
Y802117D01*
X244078Y803599D01*
X238153D01*
X236672Y802117D01*
Y799155D01*
X238153Y797674D01*
X239634D01*
X241115Y799155D01*
Y803599D01*
X176574Y772383D02*
X167687D01*
Y776826D01*
X169168Y778307D01*
X172130D01*
X173611Y776826D01*
Y772383D01*
X167687Y781270D02*
X175093D01*
X176574Y782751D01*
Y785713D01*
X175093Y787195D01*
X167687D01*
X176574Y790157D02*
X167687D01*
X170649Y793119D01*
X167687Y796082D01*
X176574D01*
Y799044D02*
X167687D01*
Y803488D01*
X169168Y804969D01*
X172130D01*
X173611Y803488D01*
Y799044D01*
X178055Y807931D02*
Y813856D01*
X176574Y816818D02*
X167687D01*
Y821262D01*
X169168Y822743D01*
X172130D01*
X173611Y821262D01*
Y816818D01*
X167687Y825705D02*
X176574D01*
X173611Y828668D01*
X176574Y831630D01*
X167687D01*
X176574Y834593D02*
X167687D01*
Y839036D01*
X169168Y840517D01*
X172130D01*
X173611Y839036D01*
Y834593D01*
Y837555D02*
X176574Y840517D01*
X19050Y907762D02*
X16088D01*
X17569D01*
Y900356D01*
X16088Y898875D01*
X14606D01*
X13125Y900356D01*
X22012Y898875D02*
X24975D01*
X23494D01*
Y907762D01*
X22012Y906280D01*
X6775Y785494D02*
Y776606D01*
Y779569D01*
X12700Y785494D01*
X8256Y781050D01*
X12700Y776606D01*
X15662D02*
X18625D01*
X17144D01*
Y785494D01*
X15662Y784012D01*
X207048Y567797D02*
Y576684D01*
X211492D01*
X212973Y575203D01*
Y572241D01*
X211492Y570759D01*
X207048D01*
X215935Y567797D02*
Y576684D01*
X220379D01*
X221860Y575203D01*
Y572241D01*
X220379Y570759D01*
X215935D01*
X218897D02*
X221860Y567797D01*
X229266Y576684D02*
X226303D01*
X224822Y575203D01*
Y569278D01*
X226303Y567797D01*
X229266D01*
X230747Y569278D01*
Y575203D01*
X229266Y576684D01*
X233709D02*
X239634Y567797D01*
Y576684D02*
X233709Y567797D01*
X242596Y566316D02*
X248521D01*
X255927Y576684D02*
X252965D01*
X251484Y575203D01*
Y569278D01*
X252965Y567797D01*
X255927D01*
X257408Y569278D01*
Y575203D01*
X255927Y576684D01*
X260371D02*
Y569278D01*
X261852Y567797D01*
X264814D01*
X266296Y569278D01*
Y576684D01*
X269258D02*
X275183D01*
X272220D01*
Y567797D01*
X278145Y575203D02*
X279626Y576684D01*
X282589D01*
X284070Y575203D01*
Y573722D01*
X282589Y572241D01*
X281107D01*
X282589D01*
X284070Y570759D01*
Y569278D01*
X282589Y567797D01*
X279626D01*
X278145Y569278D01*
X206262Y536335D02*
Y545223D01*
X210706D01*
X212187Y543741D01*
Y540779D01*
X210706Y539298D01*
X206262D01*
X215149Y536335D02*
Y545223D01*
X219593D01*
X221074Y543741D01*
Y540779D01*
X219593Y539298D01*
X215149D01*
X218111D02*
X221074Y536335D01*
X228480Y545223D02*
X225518D01*
X224036Y543741D01*
Y537817D01*
X225518Y536335D01*
X228480D01*
X229961Y537817D01*
Y543741D01*
X228480Y545223D01*
X232923D02*
X238848Y536335D01*
Y545223D02*
X232923Y536335D01*
X241810Y534854D02*
X247735D01*
X255141Y545223D02*
X252179D01*
X250698Y543741D01*
Y537817D01*
X252179Y536335D01*
X255141D01*
X256622Y537817D01*
Y543741D01*
X255141Y545223D01*
X259585D02*
Y537817D01*
X261066Y536335D01*
X264028D01*
X265510Y537817D01*
Y545223D01*
X268472D02*
X274397D01*
X271434D01*
Y536335D01*
X283284D02*
X277359D01*
X283284Y542260D01*
Y543741D01*
X281803Y545223D01*
X278840D01*
X277359Y543741D01*
X165618Y504742D02*
Y513629D01*
X170062D01*
X171543Y512148D01*
Y509185D01*
X170062Y507704D01*
X165618D01*
X174506Y504742D02*
Y513629D01*
X178949D01*
X180430Y512148D01*
Y509185D01*
X178949Y507704D01*
X174506D01*
X177468D02*
X180430Y504742D01*
X187836Y513629D02*
X184874D01*
X183393Y512148D01*
Y506223D01*
X184874Y504742D01*
X187836D01*
X189317Y506223D01*
Y512148D01*
X187836Y513629D01*
X192280D02*
X198205Y504742D01*
Y513629D02*
X192280Y504742D01*
X201167Y503261D02*
X207092D01*
X214498Y513629D02*
X211535D01*
X210054Y512148D01*
Y506223D01*
X211535Y504742D01*
X214498D01*
X215979Y506223D01*
Y512148D01*
X214498Y513629D01*
X218941D02*
Y506223D01*
X220422Y504742D01*
X223385D01*
X224866Y506223D01*
Y513629D01*
X227828D02*
X233753D01*
X230791D01*
Y504742D01*
X236716D02*
X239678D01*
X238197D01*
Y513629D01*
X236716Y512148D01*
X128772Y429213D02*
X119885D01*
Y433657D01*
X121366Y435138D01*
X124328D01*
X125809Y433657D01*
Y429213D01*
X128772Y438101D02*
X119885D01*
Y442544D01*
X121366Y444025D01*
X124328D01*
X125809Y442544D01*
Y438101D01*
Y441063D02*
X128772Y444025D01*
X119885Y451431D02*
Y448469D01*
X121366Y446988D01*
X127291D01*
X128772Y448469D01*
Y451431D01*
X127291Y452912D01*
X121366D01*
X119885Y451431D01*
Y455875D02*
X128772Y461800D01*
X119885D02*
X128772Y455875D01*
X130253Y464762D02*
Y470687D01*
X119885Y478093D02*
Y475130D01*
X121366Y473649D01*
X127291D01*
X128772Y475130D01*
Y478093D01*
X127291Y479574D01*
X121366D01*
X119885Y478093D01*
Y482536D02*
X127291D01*
X128772Y484017D01*
Y486980D01*
X127291Y488461D01*
X119885D01*
Y491423D02*
Y497348D01*
Y494386D01*
X128772D01*
X121366Y500311D02*
X119885Y501792D01*
Y504754D01*
X121366Y506235D01*
X127291D01*
X128772Y504754D01*
Y501792D01*
X127291Y500311D01*
X121366D01*
X282004Y459106D02*
Y467994D01*
X286448D01*
X287929Y466512D01*
Y463550D01*
X286448Y462069D01*
X282004D01*
X290891Y467994D02*
X296816D01*
Y466512D01*
X290891Y460588D01*
Y459106D01*
X230737Y408306D02*
Y417194D01*
X235180D01*
X236661Y415712D01*
Y412750D01*
X235180Y411269D01*
X230737D01*
X245548Y417194D02*
X242586Y415712D01*
X239624Y412750D01*
Y409788D01*
X241105Y408306D01*
X244067D01*
X245548Y409788D01*
Y411269D01*
X244067Y412750D01*
X239624D01*
X183263Y408306D02*
Y417194D01*
X187707D01*
X189188Y415712D01*
Y412750D01*
X187707Y411269D01*
X183263D01*
X198075Y417194D02*
X192150D01*
Y412750D01*
X195113Y414231D01*
X196594D01*
X198075Y412750D01*
Y409788D01*
X196594Y408306D01*
X193631D01*
X192150Y409788D01*
X134642Y408306D02*
Y417194D01*
X139085D01*
X140567Y415712D01*
Y412750D01*
X139085Y411269D01*
X134642D01*
X147973Y408306D02*
Y417194D01*
X143529Y412750D01*
X149454D01*
X499537Y427834D02*
X490650D01*
Y432278D01*
X492132Y433759D01*
X495094D01*
X496575Y432278D01*
Y427834D01*
Y430797D02*
X499537Y433759D01*
Y441165D02*
X490650D01*
X495094Y436721D01*
Y442646D01*
X492132Y445609D02*
X490650Y447090D01*
Y450052D01*
X492132Y451533D01*
X493613D01*
X495094Y450052D01*
X496575Y451533D01*
X498056D01*
X499537Y450052D01*
Y447090D01*
X498056Y445609D01*
X496575D01*
X495094Y447090D01*
X493613Y445609D01*
X492132D01*
X495094Y447090D02*
Y450052D01*
X524937Y427834D02*
X516050D01*
Y432278D01*
X517532Y433759D01*
X520494D01*
X521975Y432278D01*
Y427834D01*
Y430797D02*
X524937Y433759D01*
X516050Y442646D02*
Y436721D01*
X520494D01*
X519013Y439684D01*
Y441165D01*
X520494Y442646D01*
X523456D01*
X524937Y441165D01*
Y438203D01*
X523456Y436721D01*
X517532Y445609D02*
X516050Y447090D01*
Y450052D01*
X517532Y451533D01*
X519013D01*
X520494Y450052D01*
X521975Y451533D01*
X523456D01*
X524937Y450052D01*
Y447090D01*
X523456Y445609D01*
X521975D01*
X520494Y447090D01*
X519013Y445609D01*
X517532D01*
X520494Y447090D02*
Y450052D01*
X550337Y427834D02*
X541450D01*
Y432278D01*
X542932Y433759D01*
X545894D01*
X547375Y432278D01*
Y427834D01*
Y430797D02*
X550337Y433759D01*
Y442646D02*
Y436721D01*
X544413Y442646D01*
X542932D01*
X541450Y441165D01*
Y438203D01*
X542932Y436721D01*
Y445609D02*
X541450Y447090D01*
Y450052D01*
X542932Y451533D01*
X544413D01*
X545894Y450052D01*
X547375Y451533D01*
X548856D01*
X550337Y450052D01*
Y447090D01*
X548856Y445609D01*
X547375D01*
X545894Y447090D01*
X544413Y445609D01*
X542932D01*
X545894Y447090D02*
Y450052D01*
X575737Y427834D02*
X566850D01*
Y432278D01*
X568331Y433759D01*
X571294D01*
X572775Y432278D01*
Y427834D01*
Y430797D02*
X575737Y433759D01*
Y442646D02*
Y436721D01*
X569813Y442646D01*
X568331D01*
X566850Y441165D01*
Y438203D01*
X568331Y436721D01*
X574256Y445609D02*
X575737Y447090D01*
Y450052D01*
X574256Y451533D01*
X568331D01*
X566850Y450052D01*
Y447090D01*
X568331Y445609D01*
X569813D01*
X571294Y447090D01*
Y451533D01*
X601137Y427834D02*
X592250D01*
Y432278D01*
X593731Y433759D01*
X596694D01*
X598175Y432278D01*
Y427834D01*
Y430797D02*
X601137Y433759D01*
X593731Y436721D02*
X592250Y438203D01*
Y441165D01*
X593731Y442646D01*
X595213D01*
X596694Y441165D01*
Y439684D01*
Y441165D01*
X598175Y442646D01*
X599656D01*
X601137Y441165D01*
Y438203D01*
X599656Y436721D01*
X593731Y445609D02*
X592250Y447090D01*
Y450052D01*
X593731Y451533D01*
X595213D01*
X596694Y450052D01*
Y448571D01*
Y450052D01*
X598175Y451533D01*
X599656D01*
X601137Y450052D01*
Y447090D01*
X599656Y445609D01*
X627807Y427834D02*
X618920D01*
Y432278D01*
X620401Y433759D01*
X623364D01*
X624845Y432278D01*
Y427834D01*
Y430797D02*
X627807Y433759D01*
X620401Y436721D02*
X618920Y438203D01*
Y441165D01*
X620401Y442646D01*
X621883D01*
X623364Y441165D01*
Y439684D01*
Y441165D01*
X624845Y442646D01*
X626326D01*
X627807Y441165D01*
Y438203D01*
X626326Y436721D01*
Y445609D02*
X627807Y447090D01*
Y450052D01*
X626326Y451533D01*
X620401D01*
X618920Y450052D01*
Y447090D01*
X620401Y445609D01*
X621883D01*
X623364Y447090D01*
Y451533D01*
X652143Y427834D02*
X643256D01*
Y432278D01*
X644738Y433759D01*
X647700D01*
X649181Y432278D01*
Y427834D01*
Y430797D02*
X652143Y433759D01*
X644738Y436721D02*
X643256Y438203D01*
Y441165D01*
X644738Y442646D01*
X646219D01*
X647700Y441165D01*
Y439684D01*
Y441165D01*
X649181Y442646D01*
X650662D01*
X652143Y441165D01*
Y438203D01*
X650662Y436721D01*
X643256Y445609D02*
Y451533D01*
X644738D01*
X650662Y445609D01*
X652143D01*
X677544Y427834D02*
X668656D01*
Y432278D01*
X670138Y433759D01*
X673100D01*
X674581Y432278D01*
Y427834D01*
Y430797D02*
X677544Y433759D01*
X670138Y436721D02*
X668656Y438203D01*
Y441165D01*
X670138Y442646D01*
X671619D01*
X673100Y441165D01*
Y439684D01*
Y441165D01*
X674581Y442646D01*
X676062D01*
X677544Y441165D01*
Y438203D01*
X676062Y436721D01*
X677544Y451533D02*
Y445608D01*
X671619Y451533D01*
X670138D01*
X668656Y450052D01*
Y447090D01*
X670138Y445608D01*
X703112Y424872D02*
X694225D01*
Y429315D01*
X695706Y430797D01*
X698669D01*
X700150Y429315D01*
Y424872D01*
Y427834D02*
X703112Y430797D01*
X695706Y433759D02*
X694225Y435240D01*
Y438203D01*
X695706Y439684D01*
X697188D01*
X698669Y438203D01*
Y436721D01*
Y438203D01*
X700150Y439684D01*
X701631D01*
X703112Y438203D01*
Y435240D01*
X701631Y433759D01*
X703112Y442646D02*
Y445609D01*
Y444127D01*
X694225D01*
X695706Y442646D01*
X474344Y427782D02*
X465456D01*
Y432225D01*
X466938Y433706D01*
X469900D01*
X471381Y432225D01*
Y427782D01*
Y430744D02*
X474344Y433706D01*
X465456Y442594D02*
X466938Y439631D01*
X469900Y436669D01*
X472862D01*
X474344Y438150D01*
Y441112D01*
X472862Y442594D01*
X471381D01*
X469900Y441112D01*
Y436669D01*
X474344Y445556D02*
Y448518D01*
Y447037D01*
X465456D01*
X466938Y445556D01*
X448944Y426301D02*
X440056D01*
Y430744D01*
X441538Y432225D01*
X444500D01*
X445981Y430744D01*
Y426301D01*
Y429263D02*
X448944Y432225D01*
X440056Y441112D02*
X441538Y438150D01*
X444500Y435188D01*
X447462D01*
X448944Y436669D01*
Y439631D01*
X447462Y441112D01*
X445981D01*
X444500Y439631D01*
Y435188D01*
X441538Y444075D02*
X440056Y445556D01*
Y448518D01*
X441538Y450000D01*
X447462D01*
X448944Y448518D01*
Y445556D01*
X447462Y444075D01*
X441538D01*
X404888Y427356D02*
Y436244D01*
X409332D01*
X410813Y434762D01*
Y431800D01*
X409332Y430319D01*
X404888D01*
X407850D02*
X410813Y427356D01*
X419700Y436244D02*
X413775D01*
Y431800D01*
X416738Y433281D01*
X418219D01*
X419700Y431800D01*
Y428838D01*
X418219Y427356D01*
X415256D01*
X413775Y428838D01*
X428587Y436244D02*
X422662D01*
Y431800D01*
X425625Y433281D01*
X427106D01*
X428587Y431800D01*
Y428838D01*
X427106Y427356D01*
X424143D01*
X422662Y428838D01*
X375500Y427356D02*
Y436244D01*
X379944D01*
X381425Y434762D01*
Y431800D01*
X379944Y430319D01*
X375500D01*
X378463D02*
X381425Y427356D01*
X390312Y436244D02*
X384388D01*
Y431800D01*
X387350Y433281D01*
X388831D01*
X390312Y431800D01*
Y428838D01*
X388831Y427356D01*
X385869D01*
X384388Y428838D01*
X393275D02*
X394756Y427356D01*
X397718D01*
X399199Y428838D01*
Y434762D01*
X397718Y436244D01*
X394756D01*
X393275Y434762D01*
Y433281D01*
X394756Y431800D01*
X399199D01*
X381220Y779884D02*
X387145Y770997D01*
Y779884D02*
X381220Y770997D01*
X390107D02*
Y779884D01*
X394551D01*
X396032Y778403D01*
Y775441D01*
X394551Y773959D01*
X390107D01*
X393069D02*
X396032Y770997D01*
X404919Y779884D02*
X398994D01*
Y770997D01*
X404919D01*
X398994Y775441D02*
X401956D01*
X413806Y778403D02*
X412325Y779884D01*
X409362D01*
X407881Y778403D01*
Y776922D01*
X409362Y775441D01*
X412325D01*
X413806Y773959D01*
Y772478D01*
X412325Y770997D01*
X409362D01*
X407881Y772478D01*
X416768Y769516D02*
X422693D01*
X425656Y770997D02*
Y779884D01*
X431580Y770997D01*
Y779884D01*
X459532Y782956D02*
Y791844D01*
X462494Y788881D01*
X465456Y791844D01*
Y782956D01*
X468419Y791844D02*
Y782956D01*
X472862D01*
X474344Y784438D01*
Y790362D01*
X472862Y791844D01*
X468419D01*
X477306Y782956D02*
X480268D01*
X478787D01*
Y791844D01*
X477306Y790362D01*
X328596Y620394D02*
Y611506D01*
X334521D01*
X343408Y620394D02*
X337483D01*
Y611506D01*
X343408D01*
X337483Y615950D02*
X340446D01*
X346370Y620394D02*
Y611506D01*
X350814D01*
X352295Y612988D01*
Y618912D01*
X350814Y620394D01*
X346370D01*
X355257Y611506D02*
X358220D01*
X356739D01*
Y620394D01*
X355257Y618912D01*
X329232Y560706D02*
Y569594D01*
X333675D01*
X335156Y568112D01*
Y565150D01*
X333675Y563669D01*
X329232D01*
X332194D02*
X335156Y560706D01*
X344044Y569594D02*
X341081Y568112D01*
X338119Y565150D01*
Y562188D01*
X339600Y560706D01*
X342562D01*
X344044Y562188D01*
Y563669D01*
X342562Y565150D01*
X338119D01*
X352931Y560706D02*
X347006D01*
X352931Y566631D01*
Y568112D01*
X351449Y569594D01*
X348487D01*
X347006Y568112D01*
X364815Y446406D02*
Y455294D01*
X369258D01*
X370740Y453812D01*
Y450850D01*
X369258Y449369D01*
X364815D01*
X367777D02*
X370740Y446406D01*
X379627Y455294D02*
X373702D01*
Y450850D01*
X376664Y452331D01*
X378146D01*
X379627Y450850D01*
Y447888D01*
X378146Y446406D01*
X375183D01*
X373702Y447888D01*
X382589Y455294D02*
X388514D01*
Y453812D01*
X382589Y447888D01*
Y446406D01*
X364815Y471806D02*
Y480694D01*
X369258D01*
X370740Y479212D01*
Y476250D01*
X369258Y474769D01*
X364815D01*
X367777D02*
X370740Y471806D01*
X373702Y479212D02*
X375183Y480694D01*
X378146D01*
X379627Y479212D01*
Y477731D01*
X378146Y476250D01*
X376664D01*
X378146D01*
X379627Y474769D01*
Y473288D01*
X378146Y471806D01*
X375183D01*
X373702Y473288D01*
X382589Y479212D02*
X384070Y480694D01*
X387033D01*
X388514Y479212D01*
Y473288D01*
X387033Y471806D01*
X384070D01*
X382589Y473288D01*
Y479212D01*
X364815Y497206D02*
Y506094D01*
X369258D01*
X370740Y504612D01*
Y501650D01*
X369258Y500169D01*
X364815D01*
X367777D02*
X370740Y497206D01*
X379627Y506094D02*
X373702D01*
Y501650D01*
X376664Y503131D01*
X378146D01*
X379627Y501650D01*
Y498688D01*
X378146Y497206D01*
X375183D01*
X373702Y498688D01*
X388514Y497206D02*
X382589D01*
X388514Y503131D01*
Y504612D01*
X387033Y506094D01*
X384070D01*
X382589Y504612D01*
X364815Y522606D02*
Y531494D01*
X369258D01*
X370740Y530012D01*
Y527050D01*
X369258Y525569D01*
X364815D01*
X367777D02*
X370740Y522606D01*
X378146D02*
Y531494D01*
X373702Y527050D01*
X379627D01*
X388514Y531494D02*
X382589D01*
Y527050D01*
X385551Y528531D01*
X387033D01*
X388514Y527050D01*
Y524088D01*
X387033Y522606D01*
X384070D01*
X382589Y524088D01*
X364815Y548006D02*
Y556894D01*
X369258D01*
X370740Y555412D01*
Y552450D01*
X369258Y550969D01*
X364815D01*
X367777D02*
X370740Y548006D01*
X379627Y556894D02*
X373702D01*
Y552450D01*
X376664Y553931D01*
X378146D01*
X379627Y552450D01*
Y549488D01*
X378146Y548006D01*
X375183D01*
X373702Y549488D01*
X387033Y548006D02*
Y556894D01*
X382589Y552450D01*
X388514D01*
X367187Y574023D02*
Y582910D01*
X371631D01*
X373112Y581429D01*
Y578466D01*
X371631Y576985D01*
X367187D01*
X370150D02*
X373112Y574023D01*
X381999Y582910D02*
X376074D01*
Y578466D01*
X379037Y579948D01*
X380518D01*
X381999Y578466D01*
Y575504D01*
X380518Y574023D01*
X377556D01*
X376074Y575504D01*
X390886Y582910D02*
X387924Y581429D01*
X384962Y578466D01*
Y575504D01*
X386443Y574023D01*
X389405D01*
X390886Y575504D01*
Y576985D01*
X389405Y578466D01*
X384962D01*
X370636Y597175D02*
Y606062D01*
X375079D01*
X376561Y604581D01*
Y601619D01*
X375079Y600138D01*
X370636D01*
X373598D02*
X376561Y597175D01*
X385448Y606062D02*
X379523D01*
Y601619D01*
X382485Y603100D01*
X383966D01*
X385448Y601619D01*
Y598657D01*
X383966Y597175D01*
X381004D01*
X379523Y598657D01*
X388410Y604581D02*
X389891Y606062D01*
X392854D01*
X394335Y604581D01*
Y598657D01*
X392854Y597175D01*
X389891D01*
X388410Y598657D01*
Y604581D01*
X367187Y623888D02*
Y632775D01*
X371631D01*
X373112Y631294D01*
Y628332D01*
X371631Y626850D01*
X367187D01*
X370150D02*
X373112Y623888D01*
X380518D02*
Y632775D01*
X376074Y628332D01*
X381999D01*
X390886Y632775D02*
X387924Y631294D01*
X384962Y628332D01*
Y625369D01*
X386443Y623888D01*
X389405D01*
X390886Y625369D01*
Y626850D01*
X389405Y628332D01*
X384962D01*
X367187Y649108D02*
Y657995D01*
X371631D01*
X373112Y656514D01*
Y653552D01*
X371631Y652071D01*
X367187D01*
X370150D02*
X373112Y649108D01*
X380518D02*
Y657995D01*
X376074Y653552D01*
X381999D01*
X389405Y649108D02*
Y657995D01*
X384962Y653552D01*
X390886D01*
X368134Y676540D02*
Y685427D01*
X372578D01*
X374059Y683946D01*
Y680984D01*
X372578Y679503D01*
X368134D01*
X371097D02*
X374059Y676540D01*
X381465D02*
Y685427D01*
X377022Y680984D01*
X382946D01*
X385909Y683946D02*
X387390Y685427D01*
X390352D01*
X391833Y683946D01*
Y678021D01*
X390352Y676540D01*
X387390D01*
X385909Y678021D01*
Y683946D01*
X367187Y700406D02*
Y709294D01*
X371631D01*
X373112Y707812D01*
Y704850D01*
X371631Y703369D01*
X367187D01*
X370150D02*
X373112Y700406D01*
X380518D02*
Y709294D01*
X376074Y704850D01*
X381999D01*
X390886Y700406D02*
X384962D01*
X390886Y706331D01*
Y707812D01*
X389405Y709294D01*
X386443D01*
X384962Y707812D01*
X368134Y725851D02*
Y734738D01*
X372578D01*
X374059Y733257D01*
Y730294D01*
X372578Y728813D01*
X368134D01*
X371097D02*
X374059Y725851D01*
X377022Y733257D02*
X378503Y734738D01*
X381465D01*
X382946Y733257D01*
Y731775D01*
X381465Y730294D01*
X379984D01*
X381465D01*
X382946Y728813D01*
Y727332D01*
X381465Y725851D01*
X378503D01*
X377022Y727332D01*
X391833Y734738D02*
X388871Y733257D01*
X385909Y730294D01*
Y727332D01*
X387390Y725851D01*
X390352D01*
X391833Y727332D01*
Y728813D01*
X390352Y730294D01*
X385909D01*
X773644Y979806D02*
Y988694D01*
X778088D01*
X779569Y987212D01*
Y984250D01*
X778088Y982769D01*
X773644D01*
X788456Y979806D02*
X782531D01*
X788456Y985731D01*
Y987212D01*
X786975Y988694D01*
X784012D01*
X782531Y987212D01*
X717193Y853384D02*
Y847459D01*
X720155Y844497D01*
X723118Y847459D01*
Y853384D01*
X726080D02*
Y844497D01*
X730524D01*
X732005Y845978D01*
Y847459D01*
X730524Y848941D01*
X726080D01*
X730524D01*
X732005Y850422D01*
Y851903D01*
X730524Y853384D01*
X726080D01*
X734967Y844497D02*
Y850422D01*
X737930Y853384D01*
X740892Y850422D01*
Y844497D01*
Y848941D01*
X734967D01*
X743854Y853384D02*
X749779D01*
X746817D01*
Y844497D01*
X752741Y843016D02*
X758666D01*
X761628Y844497D02*
Y853384D01*
X766072D01*
X767553Y851903D01*
Y848941D01*
X766072Y847459D01*
X761628D01*
X774959Y853384D02*
X771997D01*
X770516Y851903D01*
Y845978D01*
X771997Y844497D01*
X774959D01*
X776440Y845978D01*
Y851903D01*
X774959Y853384D01*
X785328Y851903D02*
X783846Y853384D01*
X780884D01*
X779403Y851903D01*
Y850422D01*
X780884Y848941D01*
X783846D01*
X785328Y847459D01*
Y845978D01*
X783846Y844497D01*
X780884D01*
X779403Y845978D01*
X713913Y806880D02*
Y815767D01*
X718356D01*
X719837Y814286D01*
Y811323D01*
X718356Y809842D01*
X713913D01*
X716875D02*
X719837Y806880D01*
X722800Y814286D02*
X724281Y815767D01*
X727243D01*
X728724Y814286D01*
Y812805D01*
X727243Y811323D01*
X725762D01*
X727243D01*
X728724Y809842D01*
Y808361D01*
X727243Y806880D01*
X724281D01*
X722800Y808361D01*
X731687Y806880D02*
X734649D01*
X733168D01*
Y815767D01*
X731687Y814286D01*
X739093Y806880D02*
X742055D01*
X740574D01*
Y815767D01*
X739093Y814286D01*
X698888Y785494D02*
Y776606D01*
X704813D01*
X713700Y785494D02*
X707775D01*
Y776606D01*
X713700D01*
X707775Y781050D02*
X710738D01*
X716662Y785494D02*
Y776606D01*
X721106D01*
X722587Y778088D01*
Y784012D01*
X721106Y785494D01*
X716662D01*
X725549Y784012D02*
X727031Y785494D01*
X729993D01*
X731474Y784012D01*
Y782531D01*
X729993Y781050D01*
X728512D01*
X729993D01*
X731474Y779569D01*
Y778088D01*
X729993Y776606D01*
X727031D01*
X725549Y778088D01*
X734437Y784012D02*
X735918Y785494D01*
X738880D01*
X740361Y784012D01*
Y778088D01*
X738880Y776606D01*
X735918D01*
X734437Y778088D01*
Y784012D01*
X743324Y776606D02*
X746286D01*
X744805D01*
Y785494D01*
X743324Y784012D01*
X733007Y751206D02*
Y760094D01*
X737450D01*
X738932Y758612D01*
Y755650D01*
X737450Y754169D01*
X733007D01*
X735969D02*
X738932Y751206D01*
X741894Y758612D02*
X743375Y760094D01*
X746338D01*
X747819Y758612D01*
Y757131D01*
X746338Y755650D01*
X744856D01*
X746338D01*
X747819Y754169D01*
Y752688D01*
X746338Y751206D01*
X743375D01*
X741894Y752688D01*
X750781Y758612D02*
X752262Y760094D01*
X755225D01*
X756706Y758612D01*
Y752688D01*
X755225Y751206D01*
X752262D01*
X750781Y752688D01*
Y758612D01*
X765593Y760094D02*
X759668D01*
Y755650D01*
X762631Y757131D01*
X764112D01*
X765593Y755650D01*
Y752688D01*
X764112Y751206D01*
X761150D01*
X759668Y752688D01*
X785494Y794613D02*
X776606D01*
Y799057D01*
X778088Y800538D01*
X781050D01*
X782531Y799057D01*
Y794613D01*
Y797576D02*
X785494Y800538D01*
X778088Y803500D02*
X776606Y804982D01*
Y807944D01*
X778088Y809425D01*
X779569D01*
X781050Y807944D01*
Y806463D01*
Y807944D01*
X782531Y809425D01*
X784012D01*
X785494Y807944D01*
Y804982D01*
X784012Y803500D01*
X778088Y812387D02*
X776606Y813869D01*
Y816831D01*
X778088Y818312D01*
X784012D01*
X785494Y816831D01*
Y813869D01*
X784012Y812387D01*
X778088D01*
X776606Y827199D02*
X778088Y824237D01*
X781050Y821275D01*
X784012D01*
X785494Y822756D01*
Y825718D01*
X784012Y827199D01*
X782531D01*
X781050Y825718D01*
Y821275D01*
X777421Y719959D02*
X768533D01*
Y724403D01*
X770015Y725884D01*
X772977D01*
X774458Y724403D01*
Y719959D01*
Y722922D02*
X777421Y725884D01*
X770015Y728846D02*
X768533Y730327D01*
Y733290D01*
X770015Y734771D01*
X771496D01*
X772977Y733290D01*
Y731809D01*
Y733290D01*
X774458Y734771D01*
X775939D01*
X777421Y733290D01*
Y730327D01*
X775939Y728846D01*
X770015Y737733D02*
X768533Y739215D01*
Y742177D01*
X770015Y743658D01*
X775939D01*
X777421Y742177D01*
Y739215D01*
X775939Y737733D01*
X770015D01*
X775939Y746620D02*
X777421Y748102D01*
Y751064D01*
X775939Y752545D01*
X770015D01*
X768533Y751064D01*
Y748102D01*
X770015Y746620D01*
X771496D01*
X772977Y748102D01*
Y752545D01*
X691570Y736252D02*
X698976D01*
X700457Y737733D01*
Y740696D01*
X698976Y742177D01*
X691570D01*
X693051Y745139D02*
X691570Y746620D01*
Y749583D01*
X693051Y751064D01*
X694532D01*
X696014Y749583D01*
Y748102D01*
Y749583D01*
X697495Y751064D01*
X698976D01*
X700457Y749583D01*
Y746620D01*
X698976Y745139D01*
X693051Y754026D02*
X691570Y755508D01*
Y758470D01*
X693051Y759951D01*
X698976D01*
X700457Y758470D01*
Y755508D01*
X698976Y754026D01*
X693051D01*
X700457Y768838D02*
Y762914D01*
X694532Y768838D01*
X693051D01*
X691570Y767357D01*
Y764395D01*
X693051Y762914D01*
X767719Y715394D02*
X766238Y716876D01*
X763276D01*
X761795Y715394D01*
Y713913D01*
X763276Y712432D01*
X766238D01*
X767719Y710951D01*
Y709470D01*
X766238Y707988D01*
X763276D01*
X761795Y709470D01*
X770682Y716876D02*
Y707988D01*
X773644Y710951D01*
X776606Y707988D01*
Y716876D01*
X779569Y715394D02*
X781050Y716876D01*
X784012D01*
X785494Y715394D01*
Y713913D01*
X784012Y712432D01*
X782531D01*
X784012D01*
X785494Y710951D01*
Y709470D01*
X784012Y707988D01*
X781050D01*
X779569Y709470D01*
X788456Y715394D02*
X789937Y716876D01*
X792899D01*
X794381Y715394D01*
Y709470D01*
X792899Y707988D01*
X789937D01*
X788456Y709470D01*
Y715394D01*
X797343Y707988D02*
X800305D01*
X798824D01*
Y716876D01*
X797343Y715394D01*
X929432Y923712D02*
X927951Y925194D01*
X924988D01*
X923507Y923712D01*
Y917788D01*
X924988Y916306D01*
X927951D01*
X929432Y917788D01*
Y920750D01*
X926469D01*
X932394Y916306D02*
Y925194D01*
X938319Y916306D01*
Y925194D01*
X941281D02*
Y916306D01*
X945725D01*
X947206Y917788D01*
Y923712D01*
X945725Y925194D01*
X941281D01*
X950168Y923712D02*
X951649Y925194D01*
X954612D01*
X956093Y923712D01*
Y917788D01*
X954612Y916306D01*
X951649D01*
X950168Y917788D01*
Y923712D01*
X959055Y881484D02*
Y875559D01*
X962018Y872597D01*
X964980Y875559D01*
Y881484D01*
X967943Y871116D02*
X973867D01*
X982754Y881484D02*
X976830D01*
Y872597D01*
X982754D01*
X976830Y877041D02*
X979792D01*
X985717Y872597D02*
Y881484D01*
X991641Y872597D01*
Y881484D01*
X879640Y800538D02*
X878158Y799057D01*
Y796094D01*
X879640Y794613D01*
X881121D01*
X882602Y796094D01*
Y799057D01*
X884083Y800538D01*
X885564D01*
X887045Y799057D01*
Y796094D01*
X885564Y794613D01*
X878158Y803500D02*
X887045D01*
X884083Y806463D01*
X887045Y809425D01*
X878158D01*
X879640Y812387D02*
X878158Y813869D01*
Y816831D01*
X879640Y818312D01*
X881121D01*
X882602Y816831D01*
Y815350D01*
Y816831D01*
X884083Y818312D01*
X885564D01*
X887045Y816831D01*
Y813869D01*
X885564Y812387D01*
X879640Y821274D02*
X878158Y822756D01*
Y825718D01*
X879640Y827199D01*
X885564D01*
X887045Y825718D01*
Y822756D01*
X885564Y821274D01*
X879640D01*
Y830162D02*
X878158Y831643D01*
Y834605D01*
X879640Y836086D01*
X885564D01*
X887045Y834605D01*
Y831643D01*
X885564Y830162D01*
X879640D01*
X910811Y763906D02*
Y772794D01*
X915255D01*
X916736Y771312D01*
Y768350D01*
X915255Y766869D01*
X910811D01*
X913773D02*
X916736Y763906D01*
X919698Y771312D02*
X921179Y772794D01*
X924142D01*
X925623Y771312D01*
Y769831D01*
X924142Y768350D01*
X922661D01*
X924142D01*
X925623Y766869D01*
Y765388D01*
X924142Y763906D01*
X921179D01*
X919698Y765388D01*
X928585Y771312D02*
X930066Y772794D01*
X933029D01*
X934510Y771312D01*
Y765388D01*
X933029Y763906D01*
X930066D01*
X928585Y765388D01*
Y771312D01*
X937472Y763906D02*
X940435D01*
X938954D01*
Y772794D01*
X937472Y771312D01*
X853232Y761083D02*
Y767008D01*
X851750Y768489D01*
X848788D01*
X847307Y767008D01*
Y761083D01*
X848788Y759602D01*
X851750D01*
X850269Y762564D02*
X853232Y759602D01*
X851750D02*
X853232Y761083D01*
X856194Y767008D02*
X857675Y768489D01*
X860638D01*
X862119Y767008D01*
Y765527D01*
X860638Y764045D01*
X859156D01*
X860638D01*
X862119Y762564D01*
Y761083D01*
X860638Y759602D01*
X857675D01*
X856194Y761083D01*
X865081Y767008D02*
X866562Y768489D01*
X869525D01*
X871006Y767008D01*
Y761083D01*
X869525Y759602D01*
X866562D01*
X865081Y761083D01*
Y767008D01*
X873968D02*
X875450Y768489D01*
X878412D01*
X879893Y767008D01*
Y761083D01*
X878412Y759602D01*
X875450D01*
X873968Y761083D01*
Y767008D01*
X813966Y722799D02*
X819891D01*
X822853Y725761D01*
X819891Y728724D01*
X813966D01*
Y731686D02*
X822853D01*
Y736130D01*
X821372Y737611D01*
X819891D01*
X818409Y736130D01*
Y731686D01*
Y736130D01*
X816928Y737611D01*
X815447D01*
X813966Y736130D01*
Y731686D01*
X822853Y740573D02*
X816928D01*
X813966Y743536D01*
X816928Y746498D01*
X822853D01*
X818409D01*
Y740573D01*
X813966Y749461D02*
Y755385D01*
Y752423D01*
X822853D01*
X824334Y758348D02*
Y764272D01*
X822853Y767235D02*
X816928D01*
X813966Y770197D01*
X816928Y773159D01*
X822853D01*
X818409D01*
Y767235D01*
X807029Y715528D02*
Y706641D01*
X811473D01*
X812954Y708122D01*
Y714047D01*
X811473Y715528D01*
X807029D01*
X815917Y714047D02*
X817398Y715528D01*
X820360D01*
X821841Y714047D01*
Y712565D01*
X820360Y711084D01*
X818879D01*
X820360D01*
X821841Y709603D01*
Y708122D01*
X820360Y706641D01*
X817398D01*
X815917Y708122D01*
X824804Y714047D02*
X826285Y715528D01*
X829247D01*
X830728Y714047D01*
Y708122D01*
X829247Y706641D01*
X826285D01*
X824804Y708122D01*
Y714047D01*
X833691D02*
X835172Y715528D01*
X838134D01*
X839615Y714047D01*
Y708122D01*
X838134Y706641D01*
X835172D01*
X833691Y708122D01*
Y714047D01*
X858883Y718490D02*
X857402Y719971D01*
X854440D01*
X852958Y718490D01*
Y712565D01*
X854440Y711084D01*
X857402D01*
X858883Y712565D01*
X861846Y718490D02*
X863327Y719971D01*
X866289D01*
X867770Y718490D01*
Y717009D01*
X866289Y715528D01*
X864808D01*
X866289D01*
X867770Y714047D01*
Y712565D01*
X866289Y711084D01*
X863327D01*
X861846Y712565D01*
X870733Y718490D02*
X872214Y719971D01*
X875176D01*
X876657Y718490D01*
Y712565D01*
X875176Y711084D01*
X872214D01*
X870733Y712565D01*
Y718490D01*
X879620D02*
X881101Y719971D01*
X884063D01*
X885545Y718490D01*
Y712565D01*
X884063Y711084D01*
X881101D01*
X879620Y712565D01*
Y718490D01*
X844859Y684688D02*
Y675800D01*
X850784D01*
X853747Y683206D02*
X855228Y684688D01*
X858190D01*
X859671Y683206D01*
Y681725D01*
X858190Y680244D01*
X856709D01*
X858190D01*
X859671Y678763D01*
Y677282D01*
X858190Y675800D01*
X855228D01*
X853747Y677282D01*
X862634Y683206D02*
X864115Y684688D01*
X867077D01*
X868559Y683206D01*
Y677282D01*
X867077Y675800D01*
X864115D01*
X862634Y677282D01*
Y683206D01*
X871521D02*
X873002Y684688D01*
X875964D01*
X877446Y683206D01*
Y677282D01*
X875964Y675800D01*
X873002D01*
X871521Y677282D01*
Y683206D01*
X897661Y713564D02*
X896179Y712083D01*
Y709120D01*
X897661Y707639D01*
X903585D01*
X905066Y709120D01*
Y712083D01*
X903585Y713564D01*
X897661Y716526D02*
X896179Y718007D01*
Y720970D01*
X897661Y722451D01*
X899142D01*
X900623Y720970D01*
Y719488D01*
Y720970D01*
X902104Y722451D01*
X903585D01*
X905066Y720970D01*
Y718007D01*
X903585Y716526D01*
X897661Y725413D02*
X896179Y726894D01*
Y729857D01*
X897661Y731338D01*
X903585D01*
X905066Y729857D01*
Y726894D01*
X903585Y725413D01*
X897661D01*
Y734300D02*
X896179Y735781D01*
Y738744D01*
X897661Y740225D01*
X899142D01*
X900623Y738744D01*
Y737263D01*
Y738744D01*
X902104Y740225D01*
X903585D01*
X905066Y738744D01*
Y735781D01*
X903585Y734300D01*
X923338Y713564D02*
X921857Y712083D01*
Y709120D01*
X923338Y707639D01*
X929263D01*
X930744Y709120D01*
Y712083D01*
X929263Y713564D01*
X923338Y716526D02*
X921857Y718007D01*
Y720970D01*
X923338Y722451D01*
X924819D01*
X926300Y720970D01*
Y719488D01*
Y720970D01*
X927781Y722451D01*
X929263D01*
X930744Y720970D01*
Y718007D01*
X929263Y716526D01*
X923338Y725413D02*
X921857Y726894D01*
Y729857D01*
X923338Y731338D01*
X929263D01*
X930744Y729857D01*
Y726894D01*
X929263Y725413D01*
X923338D01*
X930744Y738744D02*
X921857D01*
X926300Y734300D01*
Y740225D01*
X948328Y728660D02*
Y737547D01*
X952772D01*
X954253Y736066D01*
Y733104D01*
X952772Y731622D01*
X948328D01*
X951290D02*
X954253Y728660D01*
X957215Y736066D02*
X958696Y737547D01*
X961659D01*
X963140Y736066D01*
Y734585D01*
X961659Y733104D01*
X960178D01*
X961659D01*
X963140Y731622D01*
Y730141D01*
X961659Y728660D01*
X958696D01*
X957215Y730141D01*
X966102Y736066D02*
X967583Y737547D01*
X970546D01*
X972027Y736066D01*
Y730141D01*
X970546Y728660D01*
X967583D01*
X966102Y730141D01*
Y736066D01*
X974989D02*
X976470Y737547D01*
X979433D01*
X980914Y736066D01*
Y730141D01*
X979433Y728660D01*
X976470D01*
X974989Y730141D01*
Y736066D01*
X981288Y681443D02*
X979806Y679962D01*
Y677000D01*
X981288Y675519D01*
X987212D01*
X988694Y677000D01*
Y679962D01*
X987212Y681443D01*
X981288Y684406D02*
X979806Y685887D01*
Y688849D01*
X981288Y690331D01*
X982769D01*
X984250Y688849D01*
Y687368D01*
Y688849D01*
X985731Y690331D01*
X987212D01*
X988694Y688849D01*
Y685887D01*
X987212Y684406D01*
X981288Y693293D02*
X979806Y694774D01*
Y697737D01*
X981288Y699218D01*
X987212D01*
X988694Y697737D01*
Y694774D01*
X987212Y693293D01*
X981288D01*
X988694Y708105D02*
Y702180D01*
X982769Y708105D01*
X981288D01*
X979806Y706624D01*
Y703661D01*
X981288Y702180D01*
X936838Y658288D02*
X935356Y656807D01*
Y653845D01*
X936838Y652363D01*
X942762D01*
X944244Y653845D01*
Y656807D01*
X942762Y658288D01*
X936838Y661251D02*
X935356Y662732D01*
Y665694D01*
X936838Y667175D01*
X938319D01*
X939800Y665694D01*
Y664213D01*
Y665694D01*
X941281Y667175D01*
X942762D01*
X944244Y665694D01*
Y662732D01*
X942762Y661251D01*
X936838Y670138D02*
X935356Y671619D01*
Y674581D01*
X936838Y676062D01*
X942762D01*
X944244Y674581D01*
Y671619D01*
X942762Y670138D01*
X936838D01*
X935356Y684949D02*
X936838Y681987D01*
X939800Y679025D01*
X942762D01*
X944244Y680506D01*
Y683468D01*
X942762Y684949D01*
X941281D01*
X939800Y683468D01*
Y679025D01*
X985066Y630797D02*
X976179D01*
Y635240D01*
X977661Y636721D01*
X980623D01*
X982104Y635240D01*
Y630797D01*
Y633759D02*
X985066Y636721D01*
X977661Y639684D02*
X976179Y641165D01*
Y644127D01*
X977661Y645609D01*
X979142D01*
X980623Y644127D01*
Y642646D01*
Y644127D01*
X982104Y645609D01*
X983585D01*
X985066Y644127D01*
Y641165D01*
X983585Y639684D01*
X977661Y648571D02*
X976179Y650052D01*
Y653015D01*
X977661Y654496D01*
X983585D01*
X985066Y653015D01*
Y650052D01*
X983585Y648571D01*
X977661D01*
X985066Y663383D02*
Y657458D01*
X979142Y663383D01*
X977661D01*
X976179Y661902D01*
Y658939D01*
X977661Y657458D01*
X989510Y590334D02*
X980623D01*
Y594778D01*
X982104Y596259D01*
X985066D01*
X986548Y594778D01*
Y590334D01*
Y593297D02*
X989510Y596259D01*
X982104Y599221D02*
X980623Y600703D01*
Y603665D01*
X982104Y605146D01*
X983585D01*
X985066Y603665D01*
Y602184D01*
Y603665D01*
X986548Y605146D01*
X988029D01*
X989510Y603665D01*
Y600703D01*
X988029Y599221D01*
X982104Y608108D02*
X980623Y609590D01*
Y612552D01*
X982104Y614033D01*
X988029D01*
X989510Y612552D01*
Y609590D01*
X988029Y608108D01*
X982104D01*
Y616996D02*
X980623Y618477D01*
Y621439D01*
X982104Y622920D01*
X983585D01*
X985066Y621439D01*
Y619958D01*
Y621439D01*
X986548Y622920D01*
X988029D01*
X989510Y621439D01*
Y618477D01*
X988029Y616996D01*
X954761Y594376D02*
X953280Y592895D01*
Y589932D01*
X954761Y588451D01*
X960686D01*
X962167Y589932D01*
Y592895D01*
X960686Y594376D01*
X954761Y597338D02*
X953280Y598819D01*
Y601782D01*
X954761Y603263D01*
X956242D01*
X957723Y601782D01*
Y600300D01*
Y601782D01*
X959204Y603263D01*
X960686D01*
X962167Y601782D01*
Y598819D01*
X960686Y597338D01*
X954761Y606225D02*
X953280Y607706D01*
Y610669D01*
X954761Y612150D01*
X960686D01*
X962167Y610669D01*
Y607706D01*
X960686Y606225D01*
X954761D01*
X953280Y621037D02*
Y615112D01*
X957723D01*
X956242Y618075D01*
Y619556D01*
X957723Y621037D01*
X960686D01*
X962167Y619556D01*
Y616594D01*
X960686Y615112D01*
X874959Y598079D02*
Y590673D01*
X876441Y589192D01*
X879403D01*
X880884Y590673D01*
Y598079D01*
X883847Y596598D02*
X885328Y598079D01*
X888290D01*
X889771Y596598D01*
Y595116D01*
X888290Y593635D01*
X886809D01*
X888290D01*
X889771Y592154D01*
Y590673D01*
X888290Y589192D01*
X885328D01*
X883847Y590673D01*
X892734Y596598D02*
X894215Y598079D01*
X897177D01*
X898659Y596598D01*
Y590673D01*
X897177Y589192D01*
X894215D01*
X892734Y590673D01*
Y596598D01*
X901621D02*
X903102Y598079D01*
X906064D01*
X907546Y596598D01*
Y590673D01*
X906064Y589192D01*
X903102D01*
X901621Y590673D01*
Y596598D01*
X848108Y608990D02*
X846627Y607509D01*
Y604547D01*
X848108Y603065D01*
X854033D01*
X855514Y604547D01*
Y607509D01*
X854033Y608990D01*
X848108Y611953D02*
X846627Y613434D01*
Y616396D01*
X848108Y617877D01*
X849589D01*
X851071Y616396D01*
Y614915D01*
Y616396D01*
X852552Y617877D01*
X854033D01*
X855514Y616396D01*
Y613434D01*
X854033Y611953D01*
X848108Y620840D02*
X846627Y622321D01*
Y625283D01*
X848108Y626764D01*
X854033D01*
X855514Y625283D01*
Y622321D01*
X854033Y620840D01*
X848108D01*
X855514Y629727D02*
Y632689D01*
Y631208D01*
X846627D01*
X848108Y629727D01*
X700238Y668656D02*
Y677544D01*
X704681D01*
X706162Y676062D01*
Y673100D01*
X704681Y671619D01*
X700238D01*
X703200D02*
X706162Y668656D01*
X709125Y676062D02*
X710606Y677544D01*
X713568D01*
X715050Y676062D01*
Y674581D01*
X713568Y673100D01*
X712087D01*
X713568D01*
X715050Y671619D01*
Y670138D01*
X713568Y668656D01*
X710606D01*
X709125Y670138D01*
X718012Y676062D02*
X719493Y677544D01*
X722455D01*
X723937Y676062D01*
Y674581D01*
X722455Y673100D01*
X723937Y671619D01*
Y670138D01*
X722455Y668656D01*
X719493D01*
X718012Y670138D01*
Y671619D01*
X719493Y673100D01*
X718012Y674581D01*
Y676062D01*
X719493Y673100D02*
X722455D01*
X726825Y628387D02*
X725343Y626906D01*
Y623943D01*
X726825Y622462D01*
X732749D01*
X734231Y623943D01*
Y626906D01*
X732749Y628387D01*
X734231Y631349D02*
Y634312D01*
Y632830D01*
X725343D01*
X726825Y631349D01*
X734231Y638755D02*
Y641718D01*
Y640236D01*
X725343D01*
X726825Y638755D01*
Y599560D02*
X725343Y598079D01*
Y595116D01*
X726825Y593635D01*
X732749D01*
X734231Y595116D01*
Y598079D01*
X732749Y599560D01*
X734231Y602522D02*
Y605485D01*
Y604003D01*
X725343D01*
X726825Y602522D01*
Y609928D02*
X725343Y611409D01*
Y614372D01*
X726825Y615853D01*
X732749D01*
X734231Y614372D01*
Y611409D01*
X732749Y609928D01*
X726825D01*
X696014Y591804D02*
Y590323D01*
X698976Y587361D01*
X701938Y590323D01*
Y591804D01*
X698976Y587361D02*
Y582917D01*
X704901D02*
X707863D01*
X706382D01*
Y591804D01*
X704901Y590323D01*
X935661Y579839D02*
X932699D01*
X934180D01*
Y572433D01*
X932699Y570951D01*
X931218D01*
X929736Y572433D01*
X944548Y579839D02*
X938624D01*
Y575395D01*
X941586Y576876D01*
X943067D01*
X944548Y575395D01*
Y572433D01*
X943067Y570951D01*
X940105D01*
X938624Y572433D01*
X777044Y587361D02*
Y596248D01*
X781488D01*
X782969Y594767D01*
Y591804D01*
X781488Y590323D01*
X777044D01*
X780007D02*
X782969Y587361D01*
X785931Y594767D02*
X787413Y596248D01*
X790375D01*
X791856Y594767D01*
Y593285D01*
X790375Y591804D01*
X788894D01*
X790375D01*
X791856Y590323D01*
Y588842D01*
X790375Y587361D01*
X787413D01*
X785931Y588842D01*
X794819Y594767D02*
X796300Y596248D01*
X799262D01*
X800743Y594767D01*
Y588842D01*
X799262Y587361D01*
X796300D01*
X794819Y588842D01*
Y594767D01*
X803706Y596248D02*
X809631D01*
Y594767D01*
X803706Y588842D01*
Y587361D01*
X772823Y502234D02*
X775785D01*
X774304D01*
Y493347D01*
X772823D01*
X775785D01*
X780229D02*
Y502234D01*
X786153Y493347D01*
Y502234D01*
X789116Y491866D02*
X795040D01*
X798003Y502234D02*
Y493347D01*
X802446D01*
X803928Y494828D01*
Y496310D01*
X802446Y497791D01*
X798003D01*
X802446D01*
X803928Y499272D01*
Y500753D01*
X802446Y502234D01*
X798003D01*
X806890Y493347D02*
X809852D01*
X808371D01*
Y502234D01*
X806890Y500753D01*
X776859Y440036D02*
Y448923D01*
X781302D01*
X782784Y447442D01*
Y444480D01*
X781302Y442999D01*
X776859D01*
X779821D02*
X782784Y440036D01*
X791671D02*
X785746D01*
X791671Y445961D01*
Y447442D01*
X790190Y448923D01*
X787227D01*
X785746Y447442D01*
X799077Y440036D02*
Y448923D01*
X794633Y444480D01*
X800558D01*
X777906Y417004D02*
Y425891D01*
X782349D01*
X783831Y424410D01*
Y421447D01*
X782349Y419966D01*
X777906D01*
X780868D02*
X783831Y417004D01*
X792718D02*
X786793D01*
X792718Y422929D01*
Y424410D01*
X791236Y425891D01*
X788274D01*
X786793Y424410D01*
X801605Y425891D02*
X795680D01*
Y421447D01*
X798642Y422929D01*
X800124D01*
X801605Y421447D01*
Y418485D01*
X800124Y417004D01*
X797161D01*
X795680Y418485D01*
X770015Y573914D02*
X768533Y572433D01*
Y569470D01*
X770015Y567989D01*
X775939D01*
X777421Y569470D01*
Y572433D01*
X775939Y573914D01*
X770015Y576876D02*
X768533Y578357D01*
Y581320D01*
X770015Y582801D01*
X771496D01*
X772977Y581320D01*
X774458Y582801D01*
X775939D01*
X777421Y581320D01*
Y578357D01*
X775939Y576876D01*
X774458D01*
X772977Y578357D01*
X771496Y576876D01*
X770015D01*
X772977Y578357D02*
Y581320D01*
X770015Y550969D02*
X768533Y549488D01*
Y546525D01*
X770015Y545044D01*
X775939D01*
X777421Y546525D01*
Y549488D01*
X775939Y550969D01*
Y553931D02*
X777421Y555412D01*
Y558375D01*
X775939Y559856D01*
X770015D01*
X768533Y558375D01*
Y555412D01*
X770015Y553931D01*
X771496D01*
X772977Y555412D01*
Y559856D01*
X722675Y521550D02*
X713788D01*
Y525994D01*
X715269Y527475D01*
X718231D01*
X719713Y525994D01*
Y521550D01*
Y524513D02*
X722675Y527475D01*
Y534881D02*
X713788D01*
X718231Y530438D01*
Y536362D01*
X713788Y539325D02*
Y545249D01*
X715269D01*
X721194Y539325D01*
X722675D01*
X766113Y496151D02*
X757226D01*
Y500594D01*
X758707Y502075D01*
X761670D01*
X763151Y500594D01*
Y496151D01*
Y499113D02*
X766113Y502075D01*
Y509481D02*
X757226D01*
X761670Y505038D01*
Y510962D01*
X764632Y513925D02*
X766113Y515406D01*
Y518368D01*
X764632Y519850D01*
X758707D01*
X757226Y518368D01*
Y515406D01*
X758707Y513925D01*
X760189D01*
X761670Y515406D01*
Y519850D01*
X720886Y470751D02*
X711999D01*
Y475194D01*
X713480Y476675D01*
X716443D01*
X717924Y475194D01*
Y470751D01*
Y473713D02*
X720886Y476675D01*
X713480Y479638D02*
X711999Y481119D01*
Y484081D01*
X713480Y485562D01*
X714962D01*
X716443Y484081D01*
Y482600D01*
Y484081D01*
X717924Y485562D01*
X719405D01*
X720886Y484081D01*
Y481119D01*
X719405Y479638D01*
X720886Y492968D02*
X711999D01*
X716443Y488525D01*
Y494450D01*
X766113Y450383D02*
X757226D01*
Y454827D01*
X758707Y456308D01*
X761670D01*
X763151Y454827D01*
Y450383D01*
Y453345D02*
X766113Y456308D01*
X757226Y465195D02*
Y459270D01*
X761670D01*
X760189Y462233D01*
Y463714D01*
X761670Y465195D01*
X764632D01*
X766113Y463714D01*
Y460751D01*
X764632Y459270D01*
X758707Y468157D02*
X757226Y469638D01*
Y472601D01*
X758707Y474082D01*
X760189D01*
X761670Y472601D01*
Y471120D01*
Y472601D01*
X763151Y474082D01*
X764632D01*
X766113Y472601D01*
Y469638D01*
X764632Y468157D01*
X720886Y429315D02*
X711999D01*
Y433759D01*
X713480Y435240D01*
X716443D01*
X717924Y433759D01*
Y429315D01*
Y432278D02*
X720886Y435240D01*
X711999Y444127D02*
Y438203D01*
X716443D01*
X714962Y441165D01*
Y442646D01*
X716443Y444127D01*
X719405D01*
X720886Y442646D01*
Y439684D01*
X719405Y438203D01*
X720886Y447090D02*
Y450052D01*
Y448571D01*
X711999D01*
X713480Y447090D01*
X771341Y394441D02*
X774304D01*
X772823D01*
Y385554D01*
X771341D01*
X774304D01*
X778747D02*
Y394441D01*
X784672Y385554D01*
Y394441D01*
X787635Y384072D02*
X793559D01*
X796522Y394441D02*
Y385554D01*
X800965D01*
X802446Y387035D01*
Y388516D01*
X800965Y389997D01*
X796522D01*
X800965D01*
X802446Y391478D01*
Y392959D01*
X800965Y394441D01*
X796522D01*
X811333Y385554D02*
X805409D01*
X811333Y391478D01*
Y392959D01*
X809852Y394441D01*
X806890D01*
X805409Y392959D01*
X875422Y477533D02*
Y470127D01*
X876904Y468646D01*
X879866D01*
X881347Y470127D01*
Y477533D01*
X890234D02*
X884309D01*
Y473090D01*
X887272Y474571D01*
X888753D01*
X890234Y473090D01*
Y470127D01*
X888753Y468646D01*
X885791D01*
X884309Y470127D01*
X923044Y445698D02*
Y454585D01*
X927488D01*
X928969Y453104D01*
Y450141D01*
X927488Y448660D01*
X923044D01*
X926007D02*
X928969Y445698D01*
X937856D02*
X931931D01*
X937856Y451623D01*
Y453104D01*
X936375Y454585D01*
X933413D01*
X931931Y453104D01*
X946743Y454585D02*
X943781Y453104D01*
X940818Y450141D01*
Y447179D01*
X942300Y445698D01*
X945262D01*
X946743Y447179D01*
Y448660D01*
X945262Y450141D01*
X940818D01*
X929771Y430837D02*
X928290Y432318D01*
X925328D01*
X923847Y430837D01*
Y424912D01*
X925328Y423431D01*
X928290D01*
X929771Y424912D01*
X938659Y432318D02*
X935696Y430837D01*
X932734Y427874D01*
Y424912D01*
X934215Y423431D01*
X937177D01*
X938659Y424912D01*
Y426393D01*
X937177Y427874D01*
X932734D01*
X917867Y411155D02*
X916386Y412636D01*
X913423D01*
X911942Y411155D01*
Y405231D01*
X913423Y403749D01*
X916386D01*
X917867Y405231D01*
X926754Y412636D02*
X920829D01*
Y408193D01*
X923792Y409674D01*
X925273D01*
X926754Y408193D01*
Y405231D01*
X925273Y403749D01*
X922310D01*
X920829Y405231D01*
X820001Y389256D02*
Y398144D01*
X824444D01*
X825925Y396662D01*
Y393700D01*
X824444Y392219D01*
X820001D01*
X822963D02*
X825925Y389256D01*
X834812D02*
X828888D01*
X834812Y395181D01*
Y396662D01*
X833331Y398144D01*
X830369D01*
X828888Y396662D01*
X837775Y398144D02*
X843699D01*
Y396662D01*
X837775Y390738D01*
Y389256D01*
X922365Y385444D02*
X919403D01*
X920884D01*
Y378038D01*
X919403Y376556D01*
X917922D01*
X916441Y378038D01*
X929771Y376556D02*
Y385444D01*
X925328Y381000D01*
X931253D01*
X396321Y356253D02*
Y365140D01*
X400764D01*
X402245Y363659D01*
Y360696D01*
X400764Y359215D01*
X396321D01*
X405208Y363659D02*
X406689Y365140D01*
X409651D01*
X411133Y363659D01*
Y362178D01*
X409651Y360696D01*
X411133Y359215D01*
Y357734D01*
X409651Y356253D01*
X406689D01*
X405208Y357734D01*
Y359215D01*
X406689Y360696D01*
X405208Y362178D01*
Y363659D01*
X406689Y360696D02*
X409651D01*
X535509Y380157D02*
X528737D01*
Y375078D01*
X532123Y376771D01*
X533816D01*
X535509Y375078D01*
Y371693D01*
X533816Y370000D01*
X530430D01*
X528737Y371693D01*
X429738Y370000D02*
X433123D01*
X431430D01*
Y380157D01*
X429738Y378464D01*
X595743Y375511D02*
Y384399D01*
X600187D01*
X601668Y382917D01*
Y379955D01*
X600187Y378474D01*
X595743D01*
X598706D02*
X601668Y375511D01*
X610555Y384399D02*
X607593Y382917D01*
X604631Y379955D01*
Y376993D01*
X606112Y375511D01*
X609074D01*
X610555Y376993D01*
Y378474D01*
X609074Y379955D01*
X604631D01*
X613518Y384399D02*
X619442D01*
Y382917D01*
X613518Y376993D01*
Y375511D01*
X583927Y346620D02*
Y352545D01*
X582445Y354026D01*
X579483D01*
X578002Y352545D01*
Y346620D01*
X579483Y345139D01*
X582445D01*
X580964Y348101D02*
X583927Y345139D01*
X582445D02*
X583927Y346620D01*
X591332Y345139D02*
Y354026D01*
X586889Y349582D01*
X592814D01*
X640683Y385139D02*
X643645D01*
X642164D01*
Y376252D01*
X640683D01*
X643645D01*
X648089D02*
Y385139D01*
X654014Y376252D01*
Y385139D01*
X656976Y374771D02*
X662901D01*
X665863Y376252D02*
Y382177D01*
X668826Y385139D01*
X671788Y382177D01*
Y376252D01*
Y380696D01*
X665863D01*
X680675Y376252D02*
X674750D01*
X680675Y382177D01*
Y383658D01*
X679194Y385139D01*
X676232D01*
X674750Y383658D01*
X766443Y400034D02*
X757556D01*
Y404478D01*
X759038Y405959D01*
X762000D01*
X763481Y404478D01*
Y400034D01*
Y402997D02*
X766443Y405959D01*
Y413365D02*
X757556D01*
X762000Y408922D01*
Y414846D01*
X759038Y417809D02*
X757556Y419290D01*
Y422252D01*
X759038Y423733D01*
X760519D01*
X762000Y422252D01*
Y420771D01*
Y422252D01*
X763481Y423733D01*
X764962D01*
X766443Y422252D01*
Y419290D01*
X764962Y417809D01*
X720886Y378888D02*
X711999D01*
Y383332D01*
X713480Y384813D01*
X716443D01*
X717924Y383332D01*
Y378888D01*
Y381851D02*
X720886Y384813D01*
Y392219D02*
X711999D01*
X716443Y387775D01*
Y393700D01*
X720886Y396662D02*
Y399625D01*
Y398144D01*
X711999D01*
X713480Y396662D01*
X757959Y362006D02*
Y370894D01*
X762402D01*
X763884Y369412D01*
Y366450D01*
X762402Y364969D01*
X757959D01*
X760921D02*
X763884Y362006D01*
X766846Y369412D02*
X768327Y370894D01*
X771290D01*
X772771Y369412D01*
Y367931D01*
X771290Y366450D01*
X769808D01*
X771290D01*
X772771Y364969D01*
Y363488D01*
X771290Y362006D01*
X768327D01*
X766846Y363488D01*
X781658Y370894D02*
X775733D01*
Y366450D01*
X778695Y367931D01*
X780177D01*
X781658Y366450D01*
Y363488D01*
X780177Y362006D01*
X777214D01*
X775733Y363488D01*
X737703Y296273D02*
Y288867D01*
X739184Y287386D01*
X742147D01*
X743628Y288867D01*
Y296273D01*
X751034Y287386D02*
Y296273D01*
X746590Y291830D01*
X752515D01*
X769808Y345021D02*
Y353908D01*
X774252D01*
X775733Y352427D01*
Y349465D01*
X774252Y347984D01*
X769808D01*
X772771D02*
X775733Y345021D01*
X784620D02*
X778695D01*
X784620Y350946D01*
Y352427D01*
X783139Y353908D01*
X780177D01*
X778695Y352427D01*
X793507Y345021D02*
X787582D01*
X793507Y350946D01*
Y352427D01*
X792026Y353908D01*
X789064D01*
X787582Y352427D01*
X804132Y309669D02*
X802651Y308188D01*
Y305225D01*
X804132Y303744D01*
X810057D01*
X811538Y305225D01*
Y308188D01*
X810057Y309669D01*
X811538Y317075D02*
X802651D01*
X807094Y312631D01*
Y318556D01*
X790788Y285905D02*
X789306Y284424D01*
Y281462D01*
X790788Y279980D01*
X796712D01*
X798194Y281462D01*
Y284424D01*
X796712Y285905D01*
X790788Y288867D02*
X789306Y290349D01*
Y293311D01*
X790788Y294792D01*
X792269D01*
X793750Y293311D01*
Y291830D01*
Y293311D01*
X795231Y294792D01*
X796712D01*
X798194Y293311D01*
Y290349D01*
X796712Y288867D01*
X591400Y299756D02*
Y308644D01*
X595844D01*
X597325Y307162D01*
Y304200D01*
X595844Y302719D01*
X591400D01*
X594363D02*
X597325Y299756D01*
X606212Y308644D02*
X603250Y307162D01*
X600288Y304200D01*
Y301238D01*
X601769Y299756D01*
X604731D01*
X606212Y301238D01*
Y302719D01*
X604731Y304200D01*
X600288D01*
X615099Y308644D02*
X612137Y307162D01*
X609175Y304200D01*
Y301238D01*
X610656Y299756D01*
X613618D01*
X615099Y301238D01*
Y302719D01*
X613618Y304200D01*
X609175D01*
X581963Y271925D02*
Y280812D01*
X586407D01*
X587888Y279331D01*
Y276368D01*
X586407Y274887D01*
X581963D01*
X584926D02*
X587888Y271925D01*
X596775Y280812D02*
X593813Y279331D01*
X590850Y276368D01*
Y273406D01*
X592332Y271925D01*
X595294D01*
X596775Y273406D01*
Y274887D01*
X595294Y276368D01*
X590850D01*
X605662Y280812D02*
X599737D01*
Y276368D01*
X602700Y277849D01*
X604181D01*
X605662Y276368D01*
Y273406D01*
X604181Y271925D01*
X601219D01*
X599737Y273406D01*
X590414Y205765D02*
Y211690D01*
X588933Y213171D01*
X585970D01*
X584489Y211690D01*
Y205765D01*
X585970Y204284D01*
X588933D01*
X587452Y207247D02*
X590414Y204284D01*
X588933D02*
X590414Y205765D01*
X593376Y211690D02*
X594857Y213171D01*
X597820D01*
X599301Y211690D01*
Y210209D01*
X597820Y208728D01*
X596339D01*
X597820D01*
X599301Y207247D01*
Y205765D01*
X597820Y204284D01*
X594857D01*
X593376Y205765D01*
X619489Y335107D02*
Y343994D01*
X623933D01*
X625414Y342512D01*
Y339550D01*
X623933Y338069D01*
X619489D01*
X622451D02*
X625414Y335107D01*
X634301D02*
X628376D01*
X634301Y341031D01*
Y342512D01*
X632820Y343994D01*
X629857D01*
X628376Y342512D01*
X637263D02*
X638745Y343994D01*
X641707D01*
X643188Y342512D01*
Y336588D01*
X641707Y335107D01*
X638745D01*
X637263Y336588D01*
Y342512D01*
X620970Y313056D02*
Y321944D01*
X625414D01*
X626895Y320462D01*
Y317500D01*
X625414Y316019D01*
X620970D01*
X623933D02*
X626895Y313056D01*
X635782D02*
X629857D01*
X635782Y318981D01*
Y320462D01*
X634301Y321944D01*
X631339D01*
X629857Y320462D01*
X638745Y313056D02*
X641707D01*
X640226D01*
Y321944D01*
X638745Y320462D01*
X863584Y263766D02*
Y256360D01*
X865065Y254879D01*
X868027D01*
X869508Y256360D01*
Y263766D01*
X878395Y254879D02*
X872471D01*
X878395Y260804D01*
Y262285D01*
X876914Y263766D01*
X873952D01*
X872471Y262285D01*
X691443Y273170D02*
Y282057D01*
X695886D01*
X697367Y280576D01*
Y277614D01*
X695886Y276132D01*
X691443D01*
X694405D02*
X697367Y273170D01*
X706255D02*
X700330D01*
X706255Y279095D01*
Y280576D01*
X704773Y282057D01*
X701811D01*
X700330Y280576D01*
X709217D02*
X710698Y282057D01*
X713660D01*
X715142Y280576D01*
Y279095D01*
X713660Y277614D01*
X712179D01*
X713660D01*
X715142Y276132D01*
Y274651D01*
X713660Y273170D01*
X710698D01*
X709217Y274651D01*
X630692Y273315D02*
Y276278D01*
Y274796D01*
X639579D01*
Y273315D01*
Y276278D01*
Y280721D02*
X630692D01*
X639579Y286646D01*
X630692D01*
X641060Y289608D02*
Y295533D01*
X639579Y298495D02*
X633655D01*
X630692Y301458D01*
X633655Y304420D01*
X639579D01*
X635136D01*
Y298495D01*
X639579Y307382D02*
Y310345D01*
Y308864D01*
X630692D01*
X632173Y307382D01*
X626092Y234971D02*
X634979D01*
Y239415D01*
X633498Y240896D01*
X632017D01*
X630536Y239415D01*
Y234971D01*
Y239415D01*
X629054Y240896D01*
X627573D01*
X626092Y239415D01*
Y234971D01*
Y243858D02*
X633498D01*
X634979Y245339D01*
Y248302D01*
X633498Y249783D01*
X626092D01*
Y252745D02*
Y258670D01*
X627573D01*
X633498Y252745D01*
X634979D01*
Y258670D01*
X626092Y261632D02*
Y267557D01*
X627573D01*
X633498Y261632D01*
X634979D01*
Y267557D01*
X689346Y243597D02*
X680459D01*
Y248041D01*
X681940Y249522D01*
X684902D01*
X686383Y248041D01*
Y243597D01*
Y246560D02*
X689346Y249522D01*
Y252484D02*
Y255447D01*
Y253965D01*
X680459D01*
X681940Y252484D01*
X689346Y259890D02*
Y262852D01*
Y261371D01*
X680459D01*
X681940Y259890D01*
X716443Y242116D02*
X707556D01*
Y246560D01*
X709037Y248041D01*
X711999D01*
X713480Y246560D01*
Y242116D01*
Y245078D02*
X716443Y248041D01*
Y251003D02*
Y253965D01*
Y252484D01*
X707556D01*
X709037Y251003D01*
Y258409D02*
X707556Y259890D01*
Y262852D01*
X709037Y264334D01*
X714962D01*
X716443Y262852D01*
Y259890D01*
X714962Y258409D01*
X709037D01*
X666750Y225638D02*
Y231562D01*
X665269Y233044D01*
X662306D01*
X660825Y231562D01*
Y225638D01*
X662306Y224156D01*
X665269D01*
X663788Y227119D02*
X666750Y224156D01*
X665269D02*
X666750Y225638D01*
X669712Y224156D02*
X672675D01*
X671194D01*
Y233044D01*
X669712Y231562D01*
X623226Y176205D02*
X621744Y177686D01*
X618782D01*
X617301Y176205D01*
Y174724D01*
X618782Y173243D01*
X621744D01*
X623226Y171762D01*
Y170280D01*
X621744Y168799D01*
X618782D01*
X617301Y170280D01*
X632113Y177686D02*
X626188D01*
Y168799D01*
X632113D01*
X626188Y173243D02*
X629150D01*
X635075Y168799D02*
Y177686D01*
X639519D01*
X641000Y176205D01*
Y173243D01*
X639519Y171762D01*
X635075D01*
X638037D02*
X641000Y168799D01*
X643962Y177686D02*
Y171762D01*
X646925Y168799D01*
X649887Y171762D01*
Y177686D01*
X652849Y167318D02*
X658774D01*
X661736Y168799D02*
Y177686D01*
X666180D01*
X667661Y176205D01*
Y173243D01*
X666180Y171762D01*
X661736D01*
X670624Y177686D02*
Y170280D01*
X672105Y168799D01*
X675067D01*
X676548Y170280D01*
Y177686D01*
X679511D02*
Y168799D01*
X685435D01*
X694323Y176205D02*
X692841Y177686D01*
X689879D01*
X688398Y176205D01*
Y174724D01*
X689879Y173243D01*
X692841D01*
X694323Y171762D01*
Y170280D01*
X692841Y168799D01*
X689879D01*
X688398Y170280D01*
X703210Y177686D02*
X697285D01*
Y168799D01*
X703210D01*
X697285Y173243D02*
X700247D01*
X423097Y296164D02*
Y305052D01*
X427541D01*
X429022Y303570D01*
Y300608D01*
X427541Y299127D01*
X423097D01*
X426060D02*
X429022Y296164D01*
X437909Y305052D02*
X434947Y303570D01*
X431985Y300608D01*
Y297646D01*
X433466Y296164D01*
X436428D01*
X437909Y297646D01*
Y299127D01*
X436428Y300608D01*
X431985D01*
X445315Y296164D02*
Y305052D01*
X440872Y300608D01*
X446796D01*
X461077Y332916D02*
Y325510D01*
X462558Y324029D01*
X465521D01*
X467002Y325510D01*
Y332916D01*
X469964D02*
X475889D01*
Y331435D01*
X469964Y325510D01*
Y324029D01*
X522143Y287907D02*
X531031D01*
Y293832D01*
X522143Y302719D02*
Y296794D01*
X531031D01*
Y302719D01*
X526587Y296794D02*
Y299756D01*
X522143Y305681D02*
X531031D01*
Y310125D01*
X529549Y311606D01*
X523625D01*
X522143Y310125D01*
Y305681D01*
X531031Y320493D02*
Y314568D01*
X525106Y320493D01*
X523625D01*
X522143Y319012D01*
Y316049D01*
X523625Y314568D01*
X531031Y249626D02*
X522143D01*
Y254070D01*
X523625Y255551D01*
X526587D01*
X528068Y254070D01*
Y249626D01*
Y252589D02*
X531031Y255551D01*
X522143Y264438D02*
X523625Y261476D01*
X526587Y258513D01*
X529549D01*
X531031Y259995D01*
Y262957D01*
X529549Y264438D01*
X528068D01*
X526587Y262957D01*
Y258513D01*
X523625Y267401D02*
X522143Y268882D01*
Y271844D01*
X523625Y273325D01*
X525106D01*
X526587Y271844D01*
Y270363D01*
Y271844D01*
X528068Y273325D01*
X529549D01*
X531031Y271844D01*
Y268882D01*
X529549Y267401D01*
X526587Y208707D02*
X517700D01*
Y213151D01*
X519181Y214632D01*
X522143D01*
X523625Y213151D01*
Y208707D01*
Y211669D02*
X526587Y214632D01*
X519181Y217594D02*
X517700Y219075D01*
Y222038D01*
X519181Y223519D01*
X520662D01*
X522143Y222038D01*
Y220557D01*
Y222038D01*
X523625Y223519D01*
X525106D01*
X526587Y222038D01*
Y219075D01*
X525106Y217594D01*
X519181Y226481D02*
X517700Y227962D01*
Y230925D01*
X519181Y232406D01*
X525106D01*
X526587Y230925D01*
Y227962D01*
X525106Y226481D01*
X519181D01*
Y235368D02*
X517700Y236849D01*
Y239812D01*
X519181Y241293D01*
X520662D01*
X522143Y239812D01*
X523625Y241293D01*
X525106D01*
X526587Y239812D01*
Y236849D01*
X525106Y235368D01*
X523625D01*
X522143Y236849D01*
X520662Y235368D01*
X519181D01*
X522143Y236849D02*
Y239812D01*
X511227Y201372D02*
X509746Y202854D01*
X506783D01*
X505302Y201372D01*
Y195448D01*
X506783Y193966D01*
X509746D01*
X511227Y195448D01*
X514189Y193966D02*
X517152D01*
X515671D01*
Y202854D01*
X514189Y201372D01*
X527520Y193966D02*
X521595D01*
X527520Y199891D01*
Y201372D01*
X526039Y202854D01*
X523076D01*
X521595Y201372D01*
X547991Y280576D02*
X546510Y282057D01*
X543548D01*
X542067Y280576D01*
Y274651D01*
X543548Y273170D01*
X546510D01*
X547991Y274651D01*
X550954Y273170D02*
X553916D01*
X552435D01*
Y282057D01*
X550954Y280576D01*
X562803Y273170D02*
Y282057D01*
X558360Y277614D01*
X564285D01*
X558848Y255162D02*
X557367Y256643D01*
X554404D01*
X552923Y255162D01*
Y249237D01*
X554404Y247756D01*
X557367D01*
X558848Y249237D01*
X561810Y247756D02*
X564773D01*
X563292D01*
Y256643D01*
X561810Y255162D01*
X569216Y256643D02*
X575141D01*
Y255162D01*
X569216Y249237D01*
Y247756D01*
X559342Y226046D02*
X557861Y227528D01*
X554898D01*
X553417Y226046D01*
Y220121D01*
X554898Y218640D01*
X557861D01*
X559342Y220121D01*
X562304Y218640D02*
X565267D01*
X563785D01*
Y227528D01*
X562304Y226046D01*
X569710D02*
X571191Y227528D01*
X574154D01*
X575635Y226046D01*
Y224565D01*
X574154Y223084D01*
X575635Y221603D01*
Y220121D01*
X574154Y218640D01*
X571191D01*
X569710Y220121D01*
Y221603D01*
X571191Y223084D01*
X569710Y224565D01*
Y226046D01*
X571191Y223084D02*
X574154D01*
X599804Y182370D02*
Y191257D01*
X604247D01*
X605729Y189776D01*
Y186813D01*
X604247Y185332D01*
X599804D01*
X602766D02*
X605729Y182370D01*
X614616Y191257D02*
X611653Y189776D01*
X608691Y186813D01*
Y183851D01*
X610172Y182370D01*
X613134D01*
X614616Y183851D01*
Y185332D01*
X613134Y186813D01*
X608691D01*
X617578Y189776D02*
X619059Y191257D01*
X622022D01*
X623503Y189776D01*
Y188294D01*
X622022Y186813D01*
X623503Y185332D01*
Y183851D01*
X622022Y182370D01*
X619059D01*
X617578Y183851D01*
Y185332D01*
X619059Y186813D01*
X617578Y188294D01*
Y189776D01*
X619059Y186813D02*
X622022D01*
X567486Y176946D02*
X564524D01*
X566005D01*
Y169540D01*
X564524Y168059D01*
X563042D01*
X561561Y169540D01*
X570448Y176946D02*
X576373D01*
Y175465D01*
X570448Y169540D01*
Y168059D01*
X628467Y133372D02*
X626985Y134853D01*
X624023D01*
X622542Y133372D01*
Y127448D01*
X624023Y125966D01*
X626985D01*
X628467Y127448D01*
X631429Y125966D02*
X634391D01*
X632910D01*
Y134853D01*
X631429Y133372D01*
X638835D02*
X640316Y134853D01*
X643279D01*
X644760Y133372D01*
Y131891D01*
X643279Y130410D01*
X641797D01*
X643279D01*
X644760Y128929D01*
Y127448D01*
X643279Y125966D01*
X640316D01*
X638835Y127448D01*
X565741Y137816D02*
X564260Y139297D01*
X561298D01*
X559817Y137816D01*
Y131891D01*
X561298Y130410D01*
X564260D01*
X565741Y131891D01*
X568704Y130410D02*
X571666D01*
X570185D01*
Y139297D01*
X568704Y137816D01*
X582034Y139297D02*
X576110D01*
Y134853D01*
X579072Y136335D01*
X580553D01*
X582034Y134853D01*
Y131891D01*
X580553Y130410D01*
X577591D01*
X576110Y131891D01*
X594175Y136847D02*
X592694Y138328D01*
X589732D01*
X588251Y136847D01*
Y130922D01*
X589732Y129441D01*
X592694D01*
X594175Y130922D01*
X597138Y129441D02*
X600100D01*
X598619D01*
Y138328D01*
X597138Y136847D01*
X610468Y138328D02*
X607506Y136847D01*
X604543Y133884D01*
Y130922D01*
X606025Y129441D01*
X608987D01*
X610468Y130922D01*
Y132403D01*
X608987Y133884D01*
X604543D01*
X339934Y329522D02*
X338452Y331003D01*
X335490D01*
X334009Y329522D01*
Y323597D01*
X335490Y322116D01*
X338452D01*
X339934Y323597D01*
X342896Y329522D02*
X344377Y331003D01*
X347340D01*
X348821Y329522D01*
Y328041D01*
X347340Y326559D01*
X345858D01*
X347340D01*
X348821Y325078D01*
Y323597D01*
X347340Y322116D01*
X344377D01*
X342896Y323597D01*
X351783Y329522D02*
X353264Y331003D01*
X356227D01*
X357708Y329522D01*
Y323597D01*
X356227Y322116D01*
X353264D01*
X351783Y323597D01*
Y329522D01*
X360670Y331003D02*
X366595D01*
Y329522D01*
X360670Y323597D01*
Y322116D01*
X376664Y315372D02*
X378146Y316853D01*
X381108D01*
X382589Y315372D01*
Y313891D01*
X381108Y312410D01*
X379627D01*
X381108D01*
X382589Y310929D01*
Y309447D01*
X381108Y307966D01*
X378146D01*
X376664Y309447D01*
X385551Y307966D02*
Y309447D01*
X387033D01*
Y307966D01*
X385551D01*
X392957Y315372D02*
X394439Y316853D01*
X397401D01*
X398882Y315372D01*
Y313891D01*
X397401Y312410D01*
X395920D01*
X397401D01*
X398882Y310929D01*
Y309447D01*
X397401Y307966D01*
X394439D01*
X392957Y309447D01*
X401845Y316853D02*
Y310929D01*
X404807Y307966D01*
X407769Y310929D01*
Y316853D01*
X386215Y279331D02*
X384734Y280812D01*
X381772D01*
X380291Y279331D01*
Y277849D01*
X381772Y276368D01*
X384734D01*
X386215Y274887D01*
Y273406D01*
X384734Y271925D01*
X381772D01*
X380291Y273406D01*
X389178Y280812D02*
Y271925D01*
X392140Y274887D01*
X395103Y271925D01*
Y280812D01*
X398065Y279331D02*
X399546Y280812D01*
X402508D01*
X403990Y279331D01*
Y277849D01*
X402508Y276368D01*
X401027D01*
X402508D01*
X403990Y274887D01*
Y273406D01*
X402508Y271925D01*
X399546D01*
X398065Y273406D01*
X406952Y279331D02*
X408433Y280812D01*
X411395D01*
X412877Y279331D01*
Y273406D01*
X411395Y271925D01*
X408433D01*
X406952Y273406D01*
Y279331D01*
X421764Y271925D02*
X415839D01*
X421764Y277849D01*
Y279331D01*
X420283Y280812D01*
X417320D01*
X415839Y279331D01*
X330746Y268988D02*
Y277875D01*
X335189D01*
X336670Y276394D01*
Y273432D01*
X335189Y271950D01*
X330746D01*
X333708D02*
X336670Y268988D01*
X339633Y276394D02*
X341114Y277875D01*
X344076D01*
X345558Y276394D01*
Y274913D01*
X344076Y273432D01*
X342595D01*
X344076D01*
X345558Y271950D01*
Y270469D01*
X344076Y268988D01*
X341114D01*
X339633Y270469D01*
X348520Y268988D02*
X351482D01*
X350001D01*
Y277875D01*
X348520Y276394D01*
X355926D02*
X357407Y277875D01*
X360369D01*
X361851Y276394D01*
Y270469D01*
X360369Y268988D01*
X357407D01*
X355926Y270469D01*
Y276394D01*
X332942Y201253D02*
Y193847D01*
X334423Y192366D01*
X337385D01*
X338867Y193847D01*
Y201253D01*
X341829Y199772D02*
X343310Y201253D01*
X346272D01*
X347754Y199772D01*
Y198291D01*
X346272Y196810D01*
X344791D01*
X346272D01*
X347754Y195329D01*
Y193847D01*
X346272Y192366D01*
X343310D01*
X341829Y193847D01*
X350716Y199772D02*
X352197Y201253D01*
X355159D01*
X356641Y199772D01*
Y193847D01*
X355159Y192366D01*
X352197D01*
X350716Y193847D01*
Y199772D01*
X359603D02*
X361084Y201253D01*
X364047D01*
X365528Y199772D01*
Y198291D01*
X364047Y196810D01*
X362565D01*
X364047D01*
X365528Y195329D01*
Y193847D01*
X364047Y192366D01*
X361084D01*
X359603Y193847D01*
X267052Y227004D02*
X265571Y228485D01*
X262608D01*
X261127Y227004D01*
Y221079D01*
X262608Y219598D01*
X265571D01*
X267052Y221079D01*
X270014Y227004D02*
X271495Y228485D01*
X274458D01*
X275939Y227004D01*
Y225522D01*
X274458Y224041D01*
X272977D01*
X274458D01*
X275939Y222560D01*
Y221079D01*
X274458Y219598D01*
X271495D01*
X270014Y221079D01*
X278901Y227004D02*
X280383Y228485D01*
X283345D01*
X284826Y227004D01*
Y221079D01*
X283345Y219598D01*
X280383D01*
X278901Y221079D01*
Y227004D01*
X287789D02*
X289270Y228485D01*
X292232D01*
X293713Y227004D01*
Y225522D01*
X292232Y224041D01*
X293713Y222560D01*
Y221079D01*
X292232Y219598D01*
X289270D01*
X287789Y221079D01*
Y222560D01*
X289270Y224041D01*
X287789Y225522D01*
Y227004D01*
X289270Y224041D02*
X292232D01*
X261661Y341415D02*
Y334009D01*
X263143Y332528D01*
X266105D01*
X267586Y334009D01*
Y341415D01*
X270548Y339934D02*
X272030Y341415D01*
X274992D01*
X276473Y339934D01*
Y338453D01*
X274992Y336972D01*
X273511D01*
X274992D01*
X276473Y335490D01*
Y334009D01*
X274992Y332528D01*
X272030D01*
X270548Y334009D01*
X279436Y339934D02*
X280917Y341415D01*
X283879D01*
X285360Y339934D01*
Y334009D01*
X283879Y332528D01*
X280917D01*
X279436Y334009D01*
Y339934D01*
X292766Y332528D02*
Y341415D01*
X288323Y336972D01*
X294247D01*
X196595Y313039D02*
Y321926D01*
X201039D01*
X202520Y320445D01*
Y317483D01*
X201039Y316001D01*
X196595D01*
X205483Y320445D02*
X206964Y321926D01*
X209926D01*
X211407Y320445D01*
Y318964D01*
X209926Y317483D01*
X208445D01*
X209926D01*
X211407Y316001D01*
Y314520D01*
X209926Y313039D01*
X206964D01*
X205483Y314520D01*
X106409Y314037D02*
X104928Y315519D01*
X101965D01*
X100484Y314037D01*
Y308113D01*
X101965Y306632D01*
X104928D01*
X106409Y308113D01*
X109371Y315519D02*
X115296D01*
Y314037D01*
X109371Y308113D01*
Y306632D01*
X38597Y274405D02*
X35635D01*
X37116D01*
Y266999D01*
X35635Y265518D01*
X34153D01*
X32672Y266999D01*
X47484Y265518D02*
X41559D01*
X47484Y271442D01*
Y272924D01*
X46003Y274405D01*
X43041D01*
X41559Y272924D01*
X234823Y170551D02*
X231861D01*
X233342D01*
Y163145D01*
X231861Y161664D01*
X230380D01*
X228899Y163145D01*
X237786Y169070D02*
X239267Y170551D01*
X242229D01*
X243710Y169070D01*
Y167589D01*
X242229Y166108D01*
X240748D01*
X242229D01*
X243710Y164627D01*
Y163145D01*
X242229Y161664D01*
X239267D01*
X237786Y163145D01*
X202386Y224952D02*
X200905Y226434D01*
X197942D01*
X196461Y224952D01*
Y219028D01*
X197942Y217547D01*
X200905D01*
X202386Y219028D01*
X211273Y217547D02*
X205348D01*
X211273Y223471D01*
Y224952D01*
X209792Y226434D01*
X206829D01*
X205348Y224952D01*
X214235D02*
X215717Y226434D01*
X218679D01*
X220160Y224952D01*
Y219028D01*
X218679Y217547D01*
X215717D01*
X214235Y219028D01*
Y224952D01*
X171423Y224061D02*
X169941Y225543D01*
X166979D01*
X165498Y224061D01*
Y218137D01*
X166979Y216655D01*
X169941D01*
X171423Y218137D01*
X180310Y216655D02*
X174385D01*
X180310Y222580D01*
Y224061D01*
X178829Y225543D01*
X175866D01*
X174385Y224061D01*
X189197Y216655D02*
X183272D01*
X189197Y222580D01*
Y224061D01*
X187716Y225543D01*
X184753D01*
X183272Y224061D01*
X143277D02*
X141796Y225543D01*
X138834D01*
X137352Y224061D01*
Y218137D01*
X138834Y216655D01*
X141796D01*
X143277Y218137D01*
X152164Y216655D02*
X146240D01*
X152164Y222580D01*
Y224061D01*
X150683Y225543D01*
X147721D01*
X146240Y224061D01*
X155127Y216655D02*
X158089D01*
X156608D01*
Y225543D01*
X155127Y224061D01*
X128286Y182105D02*
Y174699D01*
X129767Y173218D01*
X132730D01*
X134211Y174699D01*
Y182105D01*
X137173Y180624D02*
X138654Y182105D01*
X141617D01*
X143098Y180624D01*
Y179143D01*
X141617Y177661D01*
X143098Y176180D01*
Y174699D01*
X141617Y173218D01*
X138654D01*
X137173Y174699D01*
Y176180D01*
X138654Y177661D01*
X137173Y179143D01*
Y180624D01*
X138654Y177661D02*
X141617D01*
X279581Y119701D02*
X270694D01*
Y124145D01*
X272175Y125626D01*
X275137D01*
X276618Y124145D01*
Y119701D01*
Y122664D02*
X279581Y125626D01*
X270694Y128588D02*
Y134513D01*
X272175D01*
X278100Y128588D01*
X279581D01*
X272175Y137476D02*
X270694Y138957D01*
Y141919D01*
X272175Y143400D01*
X278100D01*
X279581Y141919D01*
Y138957D01*
X278100Y137476D01*
X272175D01*
X229015Y119924D02*
X220128D01*
Y124368D01*
X221609Y125849D01*
X224572D01*
X226053Y124368D01*
Y119924D01*
Y122886D02*
X229015Y125849D01*
X220128Y134736D02*
X221609Y131774D01*
X224572Y128811D01*
X227534D01*
X229015Y130292D01*
Y133255D01*
X227534Y134736D01*
X226053D01*
X224572Y133255D01*
Y128811D01*
X227534Y137698D02*
X229015Y139179D01*
Y142142D01*
X227534Y143623D01*
X221609D01*
X220128Y142142D01*
Y139179D01*
X221609Y137698D01*
X223090D01*
X224572Y139179D01*
Y143623D01*
X103481Y160298D02*
Y169185D01*
X107924D01*
X109405Y167704D01*
Y164742D01*
X107924Y163260D01*
X103481D01*
X112368Y160298D02*
X115330D01*
X113849D01*
Y169185D01*
X112368Y167704D01*
X41878Y175668D02*
Y184555D01*
X46322D01*
X47803Y183074D01*
Y180112D01*
X46322Y178631D01*
X41878D01*
X44841D02*
X47803Y175668D01*
X50765Y183074D02*
X52247Y184555D01*
X55209D01*
X56690Y183074D01*
Y181593D01*
X55209Y180112D01*
X53728D01*
X55209D01*
X56690Y178631D01*
Y177150D01*
X55209Y175668D01*
X52247D01*
X50765Y177150D01*
X59653Y183074D02*
X61134Y184555D01*
X64096D01*
X65577Y183074D01*
Y177150D01*
X64096Y175668D01*
X61134D01*
X59653Y177150D01*
Y183074D01*
X72983Y175668D02*
Y184555D01*
X68540Y180112D01*
X74464D01*
X30561Y111838D02*
X37967D01*
X39448Y113319D01*
Y116282D01*
X37967Y117763D01*
X30561D01*
X32042Y120725D02*
X30561Y122206D01*
Y125169D01*
X32042Y126650D01*
X33523D01*
X35004Y125169D01*
Y123688D01*
Y125169D01*
X36486Y126650D01*
X37967D01*
X39448Y125169D01*
Y122206D01*
X37967Y120725D01*
X32042Y129612D02*
X30561Y131094D01*
Y134056D01*
X32042Y135537D01*
X37967D01*
X39448Y134056D01*
Y131094D01*
X37967Y129612D01*
X32042D01*
X39448Y138500D02*
Y141462D01*
Y139981D01*
X30561D01*
X32042Y138500D01*
X50103Y111714D02*
X44178D01*
Y107270D01*
X47140Y108751D01*
X48622D01*
X50103Y107270D01*
Y104308D01*
X48622Y102827D01*
X45659D01*
X44178Y104308D01*
X53065Y102827D02*
Y104308D01*
X54546D01*
Y102827D01*
X53065D01*
X60471Y110233D02*
X61952Y111714D01*
X64915D01*
X66396Y110233D01*
Y104308D01*
X64915Y102827D01*
X61952D01*
X60471Y104308D01*
Y110233D01*
X69358Y111714D02*
Y105789D01*
X72321Y102827D01*
X75283Y105789D01*
Y111714D01*
X173872Y89438D02*
Y80551D01*
X179797D01*
X182759D02*
X185721D01*
X184240D01*
Y89438D01*
X182759Y87957D01*
X91965Y28362D02*
X90484Y29844D01*
X87521D01*
X86040Y28362D01*
Y22438D01*
X87521Y20956D01*
X90484D01*
X91965Y22438D01*
Y25400D01*
X89003D01*
X94927Y20956D02*
Y29844D01*
X100852Y20956D01*
Y29844D01*
X103814D02*
Y20956D01*
X108258D01*
X109739Y22438D01*
Y28362D01*
X108258Y29844D01*
X103814D01*
X118626Y20956D02*
X112702D01*
X118626Y26881D01*
Y28362D01*
X117145Y29844D01*
X114183D01*
X112702Y28362D01*
X140866Y72812D02*
X139385Y74294D01*
X136422D01*
X134941Y72812D01*
Y66888D01*
X136422Y65406D01*
X139385D01*
X140866Y66888D01*
X143828Y65406D02*
X146791D01*
X145309D01*
Y74294D01*
X143828Y72812D01*
X151234Y66888D02*
X152715Y65406D01*
X155678D01*
X157159Y66888D01*
Y72812D01*
X155678Y74294D01*
X152715D01*
X151234Y72812D01*
Y71331D01*
X152715Y69850D01*
X157159D01*
X186178Y68496D02*
X183216D01*
X184697D01*
Y61090D01*
X183216Y59609D01*
X181735D01*
X180253Y61090D01*
X189140Y67015D02*
X190622Y68496D01*
X193584D01*
X195065Y67015D01*
Y65534D01*
X193584Y64053D01*
X195065Y62572D01*
Y61090D01*
X193584Y59609D01*
X190622D01*
X189140Y61090D01*
Y62572D01*
X190622Y64053D01*
X189140Y65534D01*
Y67015D01*
X190622Y64053D02*
X193584D01*
X498567Y869323D02*
X495605D01*
X497086D01*
Y861917D01*
X495605Y860436D01*
X494123D01*
X492642Y861917D01*
X507454Y869323D02*
X504492Y867842D01*
X501530Y864880D01*
Y861917D01*
X503011Y860436D01*
X505973D01*
X507454Y861917D01*
Y863399D01*
X505973Y864880D01*
X501530D01*
X278598Y630441D02*
Y639328D01*
X283042D01*
X284523Y637847D01*
Y634884D01*
X283042Y633403D01*
X278598D01*
X281560D02*
X284523Y630441D01*
X291929D02*
Y639328D01*
X287485Y634884D01*
X293410D01*
X33659Y164507D02*
Y155620D01*
X39584D01*
X48471Y164507D02*
X42546D01*
Y155620D01*
X48471D01*
X42546Y160064D02*
X45509D01*
X51434Y164507D02*
Y155620D01*
X55877D01*
X57358Y157101D01*
Y163026D01*
X55877Y164507D01*
X51434D01*
X60321Y163026D02*
X61802Y164507D01*
X64764D01*
X66245Y163026D01*
Y161545D01*
X64764Y160064D01*
X63283D01*
X64764D01*
X66245Y158582D01*
Y157101D01*
X64764Y155620D01*
X61802D01*
X60321Y157101D01*
X69208Y163026D02*
X70689Y164507D01*
X73651D01*
X75132Y163026D01*
Y157101D01*
X73651Y155620D01*
X70689D01*
X69208Y157101D01*
Y163026D01*
X78095D02*
X79576Y164507D01*
X82538D01*
X84020Y163026D01*
Y157101D01*
X82538Y155620D01*
X79576D01*
X78095Y157101D01*
Y163026D01*
X876265Y70442D02*
X874784Y71923D01*
X871822D01*
X870340Y70442D01*
Y64517D01*
X871822Y63036D01*
X874784D01*
X876265Y64517D01*
Y67480D01*
X873303D01*
X879228Y63036D02*
Y71923D01*
X885152Y63036D01*
Y71923D01*
X888115D02*
Y63036D01*
X892558D01*
X894039Y64517D01*
Y70442D01*
X892558Y71923D01*
X888115D01*
X897002Y70442D02*
X898483Y71923D01*
X901445D01*
X902926Y70442D01*
Y68961D01*
X901445Y67480D01*
X899964D01*
X901445D01*
X902926Y65999D01*
Y64517D01*
X901445Y63036D01*
X898483D01*
X897002Y64517D01*
X97755Y986874D02*
X96274Y988355D01*
X93312D01*
X91830Y986874D01*
Y980949D01*
X93312Y979468D01*
X96274D01*
X97755Y980949D01*
Y983912D01*
X94793D01*
X100717Y979468D02*
Y988355D01*
X106642Y979468D01*
Y988355D01*
X109605D02*
Y979468D01*
X114048D01*
X115529Y980949D01*
Y986874D01*
X114048Y988355D01*
X109605D01*
X118492Y979468D02*
X121454D01*
X119973D01*
Y988355D01*
X118492Y986874D01*
D14*
X558787Y164264D02*
G03*
X558787Y164264I-25000J0D01*
G01*
X718869Y73600D02*
G03*
X718869Y73600I-50000J0D01*
G01*
X44982Y616041D02*
Y616841D01*
Y616041D02*
X71882D01*
Y616841D01*
X44982Y631241D02*
Y632041D01*
X71882D01*
Y631241D02*
Y632041D01*
X61200Y590377D02*
Y598377D01*
X69200D01*
X91200Y590377D02*
Y598377D01*
X83200D02*
X91200D01*
X67947Y528237D02*
Y530237D01*
X79447Y528237D02*
Y530237D01*
X88900Y521600D02*
Y523600D01*
X99400Y521600D02*
Y523600D01*
X118719Y516600D02*
Y519600D01*
X108719Y516600D02*
Y519600D01*
X118719D01*
X111221Y584127D02*
X113221D01*
X111221Y572627D02*
X113221D01*
X111121Y603412D02*
X113121D01*
X111121Y591912D02*
X113121D01*
X110658Y612885D02*
X112658D01*
X110658Y624385D02*
X112658D01*
X163444Y543627D02*
Y593627D01*
Y543627D02*
X195397D01*
Y593627D01*
X163444D02*
X195397D01*
X139653Y651435D02*
Y653435D01*
X151153Y651435D02*
Y653435D01*
X226523Y624135D02*
Y626135D01*
X238023Y624135D02*
Y626135D01*
X215792Y606332D02*
Y628332D01*
X194292Y606332D02*
Y628332D01*
X202169Y663956D02*
Y665956D01*
X190669Y663956D02*
Y665956D01*
X223429Y663956D02*
Y665956D01*
X211929Y663956D02*
Y665956D01*
X243519Y663956D02*
Y665956D01*
X232019Y663956D02*
Y665956D01*
X202021Y703327D02*
X233021D01*
X202021Y726327D02*
X233021D01*
X202021Y703327D02*
Y726327D01*
X233021Y703327D02*
Y726327D01*
X172871Y717078D02*
Y739078D01*
X194371Y717078D02*
Y739078D01*
X204071Y763830D02*
Y765830D01*
X192571Y763830D02*
Y765830D01*
X212071Y763830D02*
Y765830D01*
X223571Y763830D02*
Y765830D01*
X244008Y763802D02*
Y765802D01*
X232508Y763802D02*
Y765802D01*
X280271Y472027D02*
Y551227D01*
X307171D01*
Y472027D02*
Y551227D01*
X280271Y472027D02*
X307171D01*
X229471Y421227D02*
Y500427D01*
X256371D01*
Y421227D02*
Y500427D01*
X229471Y421227D02*
X256371D01*
X178671D02*
Y500427D01*
X205571D01*
Y421227D02*
Y500427D01*
X178671Y421227D02*
X205571D01*
X131133D02*
Y500427D01*
X158033D01*
Y421227D02*
Y500427D01*
X131133Y421227D02*
X158033D01*
X652178Y497050D02*
Y509500D01*
X510678Y497050D02*
X511528D01*
X651328D02*
X652178D01*
X510678D02*
Y509500D01*
X355869Y597000D02*
Y607000D01*
Y597000D02*
X358869D01*
X355869Y607000D02*
X358869D01*
X353790Y575954D02*
X355790D01*
X353790Y586454D02*
X355790D01*
X727787Y801229D02*
X729787D01*
X727787Y790729D02*
X729787D01*
X722587Y765579D02*
X725587D01*
X722587Y775579D02*
X725587D01*
Y765579D02*
Y775579D01*
X762760Y731104D02*
Y733104D01*
X751260Y731104D02*
Y733104D01*
X722587Y747979D02*
X725587D01*
X722587Y716979D02*
X725587D01*
X722587D02*
Y747979D01*
X725587Y716979D02*
Y747979D01*
X739814Y620244D02*
X799814D01*
X739814Y680244D02*
X799814D01*
Y620244D02*
Y680244D01*
X739814Y620244D02*
Y680244D01*
X980623Y795295D02*
Y831295D01*
X970623Y795295D02*
X980623D01*
X970623Y831295D02*
X980623D01*
X890623Y795295D02*
X900623D01*
X890623D02*
Y831295D01*
X900623D01*
X925623Y764045D02*
X927623D01*
X925623Y752545D02*
X927623D01*
X883152Y728477D02*
Y736477D01*
X875153Y728477D02*
X883152D01*
X853152D02*
Y736477D01*
Y728477D02*
X861153D01*
X808722Y647090D02*
Y693090D01*
X835572D02*
X837922D01*
X808722D02*
X811072D01*
X837922Y647090D02*
Y693090D01*
X835572Y647090D02*
X837922D01*
X808722D02*
X811072D01*
X859470Y708377D02*
X881470D01*
X859470Y686377D02*
X881470D01*
X846872Y641663D02*
Y674725D01*
X870434Y641663D02*
Y674725D01*
X887762Y681350D02*
Y706350D01*
X908762Y681350D02*
Y706350D01*
X915583Y681350D02*
Y706350D01*
X936583Y681350D02*
Y706350D01*
X962621Y723932D02*
X964621D01*
X962621Y712432D02*
X964621D01*
X953348Y679691D02*
X975348D01*
X953348Y701191D02*
X975348D01*
X957723Y650186D02*
X959175D01*
X957723Y637686D02*
X959175D01*
X975533Y614606D02*
Y616059D01*
X963033Y614606D02*
Y616059D01*
X931253Y617877D02*
Y649877D01*
X881253Y617877D02*
Y649877D01*
X931253D01*
X881253Y617877D02*
X931253D01*
X698669Y642250D02*
X720669D01*
X698669Y620750D02*
X720669D01*
X698669Y615028D02*
X720669D01*
X698615Y593451D02*
X720615D01*
X704729Y549727D02*
Y581727D01*
X730729Y549727D02*
Y581727D01*
X791338Y582534D02*
X793337D01*
X791338Y571034D02*
X793337D01*
X829180Y400384D02*
X831180D01*
X829180Y411884D02*
X831180D01*
X546738Y339550D02*
Y366450D01*
X416738D02*
X546738D01*
X416738Y339550D02*
Y366450D01*
Y339550D02*
X546738D01*
X620369Y324600D02*
X620369Y320600D01*
X612369Y320600D02*
X620369Y320600D01*
X590369Y324600D02*
X590369Y320600D01*
X598369D01*
X591669Y258350D02*
X593669D01*
X591669Y269850D02*
X593669D01*
X590369Y219000D02*
X598369D01*
X590369Y223000D02*
X590369Y219000D01*
X612369Y219000D02*
X620369Y219000D01*
X620369Y223000D02*
X620369Y219000D01*
X703292Y284536D02*
X705292D01*
X703292Y296036D02*
X705292D01*
X691850Y195000D02*
Y203000D01*
X683850Y195000D02*
X691850D01*
Y217000D02*
Y225000D01*
X683850D02*
X691850D01*
X434338Y309150D02*
X436338D01*
X434338Y320650D02*
X436338D01*
X466237Y297200D02*
Y307200D01*
X497238Y297200D02*
Y307200D01*
X466237Y297200D02*
X497238D01*
X466237Y307200D02*
X497238D01*
X508235Y307200D02*
X518235D01*
X508235Y304200D02*
Y307200D01*
X518235Y304200D02*
Y307200D01*
X518485Y258400D02*
Y260400D01*
X507985Y258400D02*
Y260400D01*
X502646Y224413D02*
Y226413D01*
X514146Y224413D02*
Y226413D01*
X582669Y192697D02*
X584669D01*
X582669Y181197D02*
X584669D01*
X645102Y139988D02*
Y165388D01*
X568902Y139988D02*
X645102D01*
X568902D02*
Y165388D01*
X645102D01*
X338695Y296356D02*
Y318356D01*
X360272Y296303D02*
Y318303D01*
X466024Y208700D02*
Y268700D01*
X406024Y208700D02*
Y268700D01*
X466024D01*
X406024Y208700D02*
X466024D01*
X345644Y264544D02*
X347644D01*
X345644Y253044D02*
X347644D01*
X331624Y226800D02*
X362624D01*
X331624Y223800D02*
X362624D01*
Y226800D01*
X331624Y223800D02*
Y226800D01*
X266766Y232976D02*
X288766D01*
X266819Y254553D02*
X288819D01*
X297731Y261232D02*
Y328232D01*
X260731Y261232D02*
Y328232D01*
Y261232D02*
X297731D01*
X260731Y328232D02*
X297731D01*
X196372Y229603D02*
X223272D01*
Y308803D01*
X196372D02*
X223272D01*
X196372Y229603D02*
Y308803D01*
X102333Y234710D02*
Y256960D01*
Y280460D02*
Y302710D01*
X160333D01*
X102333Y234710D02*
X160333D01*
X170333Y280710D02*
Y292710D01*
Y244710D02*
Y256710D01*
X160333Y302710D02*
X170333Y292710D01*
X160333Y234710D02*
X170333Y244710D01*
X197647Y188933D02*
Y210933D01*
X219147Y188933D02*
Y210933D01*
X167206Y189503D02*
Y211503D01*
X188706Y189503D02*
Y211503D01*
X137152Y189503D02*
Y211503D01*
X158652Y189503D02*
Y211503D01*
X218397Y130053D02*
Y150053D01*
X131397Y130053D02*
Y150053D01*
X218397D01*
X131397Y130053D02*
X218397D01*
X88306Y77203D02*
X115206D01*
Y156403D01*
X88306D02*
X115206D01*
X88306Y77203D02*
Y156403D01*
X57344Y173170D02*
X59344D01*
X57344Y162670D02*
X59344D01*
X43174Y114610D02*
X51674D01*
X43174D02*
Y120610D01*
X65674Y114610D02*
X74174D01*
Y120610D01*
X135322Y42553D02*
X157322D01*
X135322Y64053D02*
X157322D01*
X182159Y-11874D02*
X257159D01*
X251659Y44126D02*
X257159D01*
Y29126D02*
Y44126D01*
Y-11874D02*
Y2126D01*
X182159Y-11874D02*
Y2126D01*
Y29126D02*
Y44126D01*
X187659D01*
X57232Y143777D02*
Y153777D01*
Y143777D02*
X60232D01*
X57232Y153777D02*
X60232D01*
X277910Y611532D02*
Y613532D01*
X289410Y611532D02*
Y613532D01*
D15*
X141397Y138053D02*
G03*
X141397Y138053I-2000J0D01*
G01*
D16*
X38100Y822800D02*
X50800D01*
X38100D02*
Y848200D01*
X50800D01*
X38100Y873600D02*
X50800D01*
X38100D02*
Y899000D01*
X50800D01*
X114300Y810100D02*
Y911700D01*
X50800Y810100D02*
Y911700D01*
X25400Y810100D02*
X50800D01*
X25400D02*
Y911700D01*
X127000D01*
Y810100D02*
Y911700D01*
X50800Y810100D02*
X127000D01*
X825500Y581500D02*
X901700D01*
X825500Y479900D02*
Y581500D01*
Y479900D02*
X927100D01*
Y581500D01*
X901700D02*
X927100D01*
X901700Y479900D02*
Y581500D01*
X838200Y479900D02*
Y581500D01*
X901700Y492600D02*
X914400D01*
Y518000D01*
X901700D02*
X914400D01*
X901700Y543400D02*
X914400D01*
Y568800D01*
X901700D02*
X914400D01*
X812800Y384650D02*
X889000D01*
X812800Y283050D02*
Y384650D01*
Y283050D02*
X914400D01*
Y384650D01*
X889000D02*
X914400D01*
X889000Y283050D02*
Y384650D01*
X825500Y283050D02*
Y384650D01*
X889000Y295750D02*
X901700D01*
Y321150D01*
X889000D02*
X901700D01*
X889000Y346550D02*
X901700D01*
Y371950D01*
X889000D02*
X901700D01*
X508000Y822800D02*
Y835500D01*
X533400D01*
Y822800D02*
Y835500D01*
X558800Y822800D02*
Y835500D01*
X584200D01*
Y822800D02*
Y835500D01*
X609600Y822800D02*
Y835500D01*
X635000D01*
Y822800D02*
Y835500D01*
X495300Y759300D02*
X647700D01*
X495300Y822800D02*
X647700D01*
X495300Y816450D02*
Y848200D01*
X647700D01*
Y746600D02*
Y848200D01*
X495300Y746600D02*
X647700D01*
X495300D02*
Y816450D01*
D17*
X792686Y993691D02*
X792686Y848819D01*
X792686Y993691D02*
X882602Y993691D01*
X882602Y848819D02*
X882602Y993691D01*
X792686Y848819D02*
X882602Y848819D01*
D18*
X344424Y956150D02*
X344932D01*
X384556Y912462D02*
X394716D01*
X384556Y911954D02*
X394716D01*
X385064Y911446D02*
X394716D01*
X385064Y910938D02*
X394716D01*
X385064Y910430D02*
X394716D01*
X385572Y909922D02*
X394716D01*
X385572Y909414D02*
X394716D01*
X386080Y908906D02*
X394716D01*
X381508Y908398D02*
X383032D01*
X386080D02*
X394716D01*
X382016Y907890D02*
X383032D01*
X386080D02*
X394716D01*
X386080Y907382D02*
X394716D01*
X386588Y906874D02*
X394716D01*
X386588Y906366D02*
X394716D01*
X387604Y905858D02*
X394716D01*
X389128Y905350D02*
X394716D01*
X390144Y904842D02*
X394716D01*
X391160Y904334D02*
X393700D01*
X394208D02*
X394716D01*
X392684Y903826D02*
X393700D01*
X380492Y903318D02*
X389636D01*
X382524Y902810D02*
X391160D01*
X383032Y902302D02*
X391668D01*
X385064Y901794D02*
X393192D01*
X386588Y901286D02*
X394716D01*
X387604Y900778D02*
X395732D01*
X389128Y900270D02*
X397256D01*
X387096Y932782D02*
X394716D01*
X387096Y932274D02*
X395224D01*
X387096Y931766D02*
X395224D01*
X387096Y931258D02*
X395224D01*
X387096Y930750D02*
X395224D01*
X387096Y930242D02*
X395224D01*
X387096Y929734D02*
X395224D01*
X387604Y929226D02*
X395224D01*
X387604Y928718D02*
X395224D01*
X387604Y928210D02*
X395224D01*
X383540Y916526D02*
X394716D01*
X383540Y916018D02*
X394716D01*
X383540Y915510D02*
X394716D01*
X384048Y915002D02*
X394716D01*
X384048Y914494D02*
X394716D01*
X384556Y913986D02*
X394716D01*
X384556Y913478D02*
X394716D01*
X381508Y951578D02*
X384556D01*
X381508Y951070D02*
X384556D01*
X381508Y950562D02*
X384556D01*
X381508Y950054D02*
X384556D01*
X381508Y949546D02*
X384556D01*
X381508Y949038D02*
X384556D01*
X381508Y948530D02*
X384556D01*
X381508Y948022D02*
X384556D01*
X381508Y947514D02*
X384556D01*
X381508Y947006D02*
X384556D01*
X381508Y946498D02*
X384556D01*
X381508Y945990D02*
X384556D01*
X381508Y945482D02*
X384556D01*
X381508Y944974D02*
X384556D01*
X381508Y944466D02*
X384556D01*
X381508Y943958D02*
X384556D01*
X381508Y943450D02*
X384556D01*
X381508Y942942D02*
X384556D01*
X381508Y942434D02*
X384556D01*
X381508Y941926D02*
X385064D01*
X381508Y941418D02*
X387096D01*
X381508Y940910D02*
X388620D01*
X381508Y940402D02*
X390144D01*
X382524Y939894D02*
X391160D01*
X384048Y939386D02*
X392684D01*
X386080Y938878D02*
X394208D01*
X386588Y938370D02*
X395224D01*
X388620Y937862D02*
X396748D01*
X390144Y937354D02*
X398272D01*
X391668Y936846D02*
X399796D01*
X388112Y935322D02*
X389128D01*
X388112Y934814D02*
X389636D01*
X387096Y934306D02*
X391160D01*
X387096Y933798D02*
X392684D01*
X369316Y892142D02*
X373380D01*
X369316Y891634D02*
X372872D01*
X368300Y891126D02*
X372364D01*
X368300Y890618D02*
X372364D01*
X367792Y890110D02*
X372872D01*
X368300Y889602D02*
X373380D01*
X368808Y889094D02*
X373380D01*
X369316Y888586D02*
X373380D01*
X368808Y888078D02*
X372872D01*
X368300Y887570D02*
X372364D01*
X367792Y887062D02*
X372364D01*
X367284Y886554D02*
X371348D01*
X366776Y886046D02*
X370840D01*
X366268Y885538D02*
X370840D01*
X365760Y885030D02*
X369824D01*
X364744Y884522D02*
X369316D01*
X364236Y884014D02*
X368808D01*
X363220Y883506D02*
X368300D01*
X362204Y882998D02*
X367792D01*
X361188Y882490D02*
X366776D01*
X360680Y881982D02*
X366268D01*
X360172Y880458D02*
X363728D01*
X360680Y879950D02*
X364236D01*
X360172Y879442D02*
X364236D01*
X370840Y947514D02*
X373888D01*
X374396D02*
X379476D01*
X365760Y947006D02*
X369316D01*
X370840D02*
X373888D01*
X374904D02*
X379476D01*
X360680Y946498D02*
X369316D01*
X370840D02*
X375920D01*
X377444D02*
X379476D01*
X361188Y945990D02*
X369316D01*
X370840D02*
X377952D01*
X378460D02*
X379476D01*
X362712Y945482D02*
X368300D01*
X370840D02*
X377952D01*
X363220Y944974D02*
X368300D01*
X370840D02*
X377952D01*
X370840Y944466D02*
X373888D01*
X374904D02*
X377952D01*
X370332Y943958D02*
X373888D01*
X376936D02*
X377952D01*
X370332Y943450D02*
X373888D01*
X377444D02*
X377952D01*
X371856Y942942D02*
X374396D01*
X366268Y942434D02*
X367284D01*
X373380D02*
X374396D01*
X366268Y941926D02*
X367792D01*
X364744Y941418D02*
X370332D01*
X376428Y939386D02*
X377444D01*
X376428Y938878D02*
X379476D01*
X365760Y936846D02*
X374396D01*
X365760Y936338D02*
X374396D01*
X365760Y935830D02*
X374396D01*
X365760Y935322D02*
X373888D01*
X364236Y934814D02*
X364744D01*
X365760D02*
X373888D01*
X361696Y934306D02*
X363728D01*
X365760D02*
X373380D01*
X365760Y933798D02*
X373380D01*
X361188Y955134D02*
X373380D01*
X341376Y871822D02*
X345948D01*
X347980D02*
X353568D01*
X341376Y871314D02*
X345948D01*
X347980D02*
X353568D01*
X341884Y870806D02*
X345948D01*
X347980D02*
X353568D01*
X341884Y870298D02*
X346456D01*
X347980D02*
X353568D01*
X341884Y869790D02*
X346456D01*
X347980D02*
X353568D01*
X341884Y869282D02*
X346456D01*
X347980D02*
X353568D01*
X341884Y868774D02*
X346456D01*
X347980D02*
X353568D01*
X341376Y868266D02*
X346456D01*
X348488D02*
X354076D01*
X340868Y867758D02*
X346456D01*
X348488D02*
X354076D01*
X344424Y867250D02*
X346964D01*
X348996D02*
X354584D01*
X344424Y866742D02*
X346964D01*
X348996D02*
X354584D01*
X344424Y866234D02*
X347472D01*
X348996D02*
X354584D01*
X344424Y865726D02*
X347472D01*
X348996D02*
X355092D01*
X344424Y865218D02*
X347472D01*
X349504D02*
X355092D01*
X344932Y864710D02*
X347980D01*
X349504D02*
X355092D01*
X340868Y864202D02*
X343408D01*
X344932D02*
X347980D01*
X350012D02*
X355092D01*
X340868Y863694D02*
X343916D01*
X345440D02*
X348488D01*
X350012D02*
X354584D01*
X340868Y863186D02*
X343916D01*
X345440D02*
X348488D01*
X350012D02*
X354584D01*
X340868Y862678D02*
X343916D01*
X345948D02*
X348996D01*
X350012D02*
X354584D01*
X341376Y862170D02*
X344424D01*
X345948D02*
X354584D01*
X341376Y861662D02*
X344424D01*
X345948D02*
X354584D01*
X341376Y861154D02*
X344424D01*
X345948D02*
X354076D01*
X341884Y860646D02*
X354076D01*
X341884Y860138D02*
X354076D01*
X341884Y859630D02*
X353060D01*
X339852Y889602D02*
X344424D01*
X340868Y889094D02*
X343916D01*
X352552Y885030D02*
X359156D01*
X352044Y884522D02*
X358140D01*
X351536Y884014D02*
X357632D01*
X351028Y883506D02*
X356616D01*
X350012Y882998D02*
X354584D01*
X349504Y882490D02*
X353060D01*
X348996Y881982D02*
X352552D01*
X348488Y881474D02*
X350520D01*
X347472Y880966D02*
X348996D01*
X346964Y880458D02*
X347980D01*
X345948Y879950D02*
X346456D01*
X339852Y878426D02*
X340868D01*
X339852Y877918D02*
X341376D01*
X340360Y877410D02*
X341884D01*
X340360Y876902D02*
X342392D01*
X340360Y876394D02*
X342392D01*
X340360Y875886D02*
X342900D01*
X345948D02*
X358648D01*
X340360Y875378D02*
X342900D01*
X344932D02*
X357632D01*
X340360Y874870D02*
X342900D01*
X343916D02*
X354076D01*
X339852Y874362D02*
X353060D01*
X339852Y873854D02*
X353060D01*
X339852Y873346D02*
X353568D01*
X340868Y872838D02*
X345948D01*
X347472D02*
X353568D01*
Y912462D02*
X357124D01*
X352552Y911954D02*
X356616D01*
X351536Y911446D02*
X356616D01*
X351536Y910938D02*
X356108D01*
X353060Y910430D02*
X356108D01*
X354584Y909922D02*
X355600D01*
X350012Y907890D02*
X351028D01*
Y907382D02*
X353060D01*
X351536Y906874D02*
X354584D01*
X352552Y906366D02*
X356616D01*
X352552Y905858D02*
X357632D01*
X353060Y905350D02*
X359156D01*
X343408Y903318D02*
X346456D01*
X355092D02*
X359156D01*
X341884Y902810D02*
X347472D01*
X341376Y902302D02*
X347472D01*
X340868Y901794D02*
X347980D01*
X339852Y901286D02*
X347980D01*
X345440Y900270D02*
X348488D01*
X346456Y899762D02*
X348488D01*
X346964Y899254D02*
X348488D01*
X347472Y898746D02*
X348488D01*
X342900Y896206D02*
X343408D01*
X342900Y895698D02*
X343916D01*
X339852Y895190D02*
X341376D01*
X342900D02*
X344424D01*
X342900Y894682D02*
X344932D01*
X342392Y894174D02*
X344932D01*
X342392Y893666D02*
X345440D01*
X348996Y929226D02*
X351028D01*
X347472Y928718D02*
X354076D01*
X347472Y927702D02*
X355600D01*
X347472Y927194D02*
X355600D01*
X347472Y926686D02*
X355600D01*
X347472Y926178D02*
X355600D01*
X347472Y925670D02*
X355600D01*
X347472Y925162D02*
X355600D01*
X347472Y924654D02*
X356108D01*
X347472Y924146D02*
X356616D01*
X341376Y920590D02*
X350012D01*
X354584Y919574D02*
X355092D01*
X355600D02*
X356616D01*
X352044Y919066D02*
X356616D01*
X350012Y918558D02*
X356108D01*
X348996Y918050D02*
X356108D01*
X347472Y917542D02*
X356108D01*
X345948Y917034D02*
X355600D01*
X344424Y916526D02*
X355092D01*
X357124D02*
X357632D01*
X343916Y916018D02*
X354584D01*
X357124D02*
X357632D01*
X356616Y915510D02*
X357632D01*
X356108Y915002D02*
X357632D01*
X356108Y914494D02*
X357632D01*
X355600Y913986D02*
X357632D01*
X354584Y913478D02*
X357632D01*
X346456Y953102D02*
X349504D01*
X350012D02*
X354076D01*
X346456Y952594D02*
X353568D01*
X346964Y952086D02*
X353060D01*
X347472Y951578D02*
X352552D01*
X347980Y951070D02*
X351536D01*
X347980Y950562D02*
X351536D01*
X347980Y950054D02*
X351536D01*
X347980Y949546D02*
X351536D01*
X347472Y949038D02*
X351536D01*
X347472Y948530D02*
X351536D01*
X348996Y948022D02*
X351536D01*
X339852Y947514D02*
X342392D01*
X339852Y947006D02*
X344424D01*
X351536Y945482D02*
X357124D01*
X351028Y944974D02*
X358140D01*
X339852Y941418D02*
X346456D01*
X339852Y940910D02*
X346456D01*
X339852Y940402D02*
X346456D01*
X339852Y939894D02*
X346456D01*
X347472Y938878D02*
X355600D01*
X347472Y938370D02*
X355600D01*
X347472Y937862D02*
X355600D01*
X347472Y937354D02*
X355600D01*
X347472Y936846D02*
X356108D01*
X347472Y936338D02*
X356108D01*
X347980Y934814D02*
X358648D01*
X342392Y956658D02*
X342900D01*
X362712Y911954D02*
X372872D01*
X365252Y911446D02*
X372364D01*
X366268Y910938D02*
X372364D01*
X368808Y910430D02*
X372364D01*
X369824Y909922D02*
X372364D01*
X369824Y909414D02*
X372364D01*
X369824Y908906D02*
X372364D01*
X369824Y908398D02*
X373380D01*
X369824Y907890D02*
X374904D01*
X361188Y907382D02*
X367792D01*
X369824D02*
X376428D01*
X362712Y906874D02*
X368300D01*
X369824D02*
X378460D01*
X364236Y906366D02*
X369824D01*
X364744Y905858D02*
X369316D01*
X365252Y905350D02*
X368808D01*
X364744Y904842D02*
X368808D01*
X364236Y904334D02*
X369316D01*
X364744Y903826D02*
X369824D01*
X365760Y903318D02*
X370840D01*
X366776Y902810D02*
X371348D01*
X367284Y902302D02*
X372364D01*
X368300Y901794D02*
X372872D01*
X368808Y901286D02*
X373380D01*
X369316Y900778D02*
X373888D01*
X370332Y900270D02*
X374396D01*
X370840Y899762D02*
X374904D01*
X371348Y899254D02*
X375412D01*
X372364Y898746D02*
X375920D01*
X372872Y898238D02*
X376428D01*
X373380Y897730D02*
X376428D01*
X372872Y897222D02*
X376428D01*
X372872Y896714D02*
X375920D01*
X372364Y896206D02*
X375920D01*
X372364Y895698D02*
X375412D01*
X371856Y895190D02*
X374904D01*
X371348Y894682D02*
X374904D01*
X371348Y894174D02*
X374396D01*
X370840Y893666D02*
X374396D01*
X370332Y893158D02*
X373888D01*
X365760Y932782D02*
X373380D01*
X365760Y932274D02*
X373380D01*
X365760Y931766D02*
X373380D01*
X365760Y931258D02*
X373380D01*
X365760Y930750D02*
X373380D01*
X365760Y930242D02*
X373380D01*
X365760Y929734D02*
X373380D01*
X365760Y929226D02*
X373380D01*
X365760Y928718D02*
X373380D01*
X365760Y928210D02*
X373380D01*
X365760Y927702D02*
X373380D01*
X365760Y927194D02*
X373380D01*
X365760Y926686D02*
X373380D01*
X365760Y926178D02*
X373380D01*
X365760Y925670D02*
X373380D01*
X365760Y925162D02*
X373380D01*
X365760Y924654D02*
X373380D01*
X365760Y924146D02*
X373380D01*
X365760Y923638D02*
X373380D01*
X365760Y923130D02*
X373380D01*
X365760Y922622D02*
X373380D01*
X365760Y922114D02*
X373380D01*
X365760Y921606D02*
X373380D01*
X365760Y921098D02*
X373380D01*
X365252Y920590D02*
X373380D01*
X364744Y920082D02*
X373888D01*
X364744Y919574D02*
X373888D01*
X360172Y919066D02*
X363220D01*
X364744D02*
X374396D01*
X360680Y918558D02*
X363220D01*
X364744D02*
X374396D01*
X360680Y918050D02*
X363220D01*
X364744D02*
X374396D01*
X360680Y917542D02*
X363220D01*
X364744D02*
X374396D01*
X360680Y917034D02*
X363220D01*
X364744D02*
X374396D01*
X360680Y916526D02*
X363220D01*
X364744D02*
X374396D01*
X360172Y916018D02*
X363220D01*
X364744D02*
X374396D01*
X360172Y915510D02*
X363220D01*
X366268D02*
X374396D01*
X360172Y915002D02*
X363220D01*
X368300D02*
X374396D01*
X369316Y914494D02*
X374396D01*
X371348Y913986D02*
X373380D01*
X360680Y952594D02*
X364236D01*
X360172Y952086D02*
X365252D01*
X370332Y950562D02*
X371856D01*
X364744Y950054D02*
X368300D01*
X370332D02*
X372872D01*
X365760Y949546D02*
X368808D01*
X370840D02*
X374904D01*
X366268Y949038D02*
X369316D01*
X370840D02*
X376936D01*
X366268Y948530D02*
X369316D01*
X370840D02*
X377952D01*
X378968D02*
X379476D01*
X366268Y948022D02*
X369316D01*
X370840D02*
X379476D01*
X366268Y947514D02*
X369316D01*
X290576Y915002D02*
X313944D01*
X276352Y914494D02*
X313944D01*
X277876Y913478D02*
X314960D01*
X277368Y913986D02*
X314452D01*
X275844Y953610D02*
X277876D01*
X265684Y933290D02*
X273812D01*
X239268Y912970D02*
X249428D01*
X239776Y933290D02*
X246888D01*
X247396D02*
X255524D01*
X234696Y912970D02*
X237236D01*
X230632Y933290D02*
X233680D01*
X398272Y912462D02*
X400812D01*
X398272Y911954D02*
X400812D01*
X398272Y911446D02*
X400812D01*
X398272Y910938D02*
X400812D01*
X398272Y910430D02*
X400812D01*
X398272Y909922D02*
X400812D01*
X398272Y909414D02*
X400812D01*
X398272Y908906D02*
X400812D01*
X398272Y908398D02*
X400812D01*
X398272Y907890D02*
X400812D01*
X398272Y907382D02*
X400812D01*
X398272Y906874D02*
X400812D01*
X398272Y906366D02*
X400812D01*
X398272Y905858D02*
X400812D01*
X398272Y905350D02*
X400812D01*
X398272Y904842D02*
X400812D01*
X398272Y904334D02*
X400812D01*
X398272Y903826D02*
X400812D01*
X398272Y903318D02*
X400812D01*
X398272Y902810D02*
X400812D01*
X398272Y902302D02*
X400812D01*
X398272Y901794D02*
X400812D01*
X398272Y901286D02*
X400812D01*
X398272Y900778D02*
X400812D01*
X398272Y900270D02*
X400812D01*
X390652Y899762D02*
X400812D01*
X391668Y899254D02*
X400812D01*
X393192Y898746D02*
X400812D01*
X394716Y898238D02*
X400812D01*
X396240Y897730D02*
X400812D01*
X396748Y897222D02*
X400812D01*
X398272Y896714D02*
X400812D01*
X399796Y896206D02*
X400812D01*
X400304Y895698D02*
X400812D01*
X399796Y932782D02*
X402844D01*
X399796Y932274D02*
X402844D01*
X399796Y931766D02*
X402844D01*
X399796Y931258D02*
X402844D01*
X399796Y930750D02*
X402844D01*
X399796Y930242D02*
X402844D01*
X399796Y929734D02*
X402844D01*
X399796Y929226D02*
X402844D01*
X399796Y928718D02*
X402844D01*
X399796Y928210D02*
X402844D01*
X399796Y927702D02*
X402844D01*
X399796Y927194D02*
X402844D01*
X399796Y926686D02*
X402844D01*
X399796Y926178D02*
X402844D01*
X399796Y925670D02*
X402844D01*
X399288Y925162D02*
X402844D01*
X398272Y924654D02*
X402844D01*
X336296Y928210D02*
X346456D01*
X347472D02*
X364744D01*
X376428D02*
X387096D01*
X336296Y927702D02*
X346456D01*
X356108D02*
X364744D01*
X336296Y927194D02*
X346456D01*
X356616D02*
X365252D01*
X336804Y926686D02*
X346456D01*
X356616D02*
X365252D01*
X336804Y926178D02*
X346456D01*
X357124D02*
X365252D01*
X337312Y925670D02*
X346456D01*
X357124D02*
X365252D01*
X337312Y925162D02*
X346456D01*
X357124D02*
X365252D01*
X337312Y924654D02*
X346456D01*
X357124D02*
X365252D01*
X337820Y924146D02*
X346456D01*
X357124D02*
X365252D01*
X337820Y923638D02*
X346456D01*
X347472D02*
X365252D01*
X337820Y923130D02*
X346456D01*
X347472D02*
X365252D01*
X337820Y922622D02*
X346456D01*
X347472D02*
X364744D01*
X338328Y922114D02*
X364744D01*
X338836Y921606D02*
X364744D01*
X338836Y921098D02*
X353060D01*
X356616D02*
X364744D01*
X359156Y920590D02*
X364236D01*
X327660Y920082D02*
X348488D01*
X359664D02*
X363728D01*
X329184Y919574D02*
X347472D01*
X359664D02*
X363220D01*
X331724Y919066D02*
X346456D01*
X333756Y918558D02*
X344932D01*
X337820Y917542D02*
X342392D01*
X376428Y916526D02*
X383032D01*
X376428Y916018D02*
X383032D01*
X324104Y915510D02*
X354076D01*
X375920D02*
X383032D01*
X324612Y915002D02*
X353568D01*
X375920D02*
X383540D01*
X324612Y914494D02*
X353060D01*
X359664D02*
X364236D01*
X375920D02*
X383540D01*
X325120Y913986D02*
X352552D01*
X359664D02*
X366268D01*
X375920D02*
X383540D01*
X325628Y913478D02*
X351536D01*
X359664D02*
X368808D01*
X375920D02*
X384048D01*
X318008Y953102D02*
X319532D01*
X336804D02*
X339852D01*
X369316D02*
X384556D01*
X317500Y952594D02*
X327660D01*
X336804D02*
X339852D01*
X372364D02*
X384556D01*
X317500Y952086D02*
X327660D01*
X336804D02*
X339852D01*
X373380D02*
X384556D01*
X317500Y951578D02*
X327152D01*
X336804D02*
X339852D01*
X359156D02*
X366268D01*
X316992Y951070D02*
X326136D01*
X336804D02*
X339852D01*
X359156D02*
X367284D01*
X336296Y950562D02*
X339852D01*
X358648D02*
X368300D01*
X336296Y950054D02*
X339852D01*
X358648D02*
X362204D01*
X317500Y949546D02*
X321564D01*
X337312D02*
X340360D01*
X358648D02*
X361696D01*
X315468Y949038D02*
X323596D01*
X359156D02*
X361696D01*
X314960Y948530D02*
X324104D01*
X359156D02*
X361696D01*
X313944Y948022D02*
X325120D01*
X359156D02*
X362712D01*
X359664Y947514D02*
X363220D01*
X359664Y947006D02*
X364236D01*
X339344Y946498D02*
X347472D01*
X339344Y945990D02*
X347472D01*
X339344Y945482D02*
X347472D01*
X339344Y944974D02*
X347472D01*
X339344Y944466D02*
X347472D01*
X350012D02*
X359664D01*
X339344Y943958D02*
X347472D01*
X348996D02*
X360680D01*
X339344Y943450D02*
X347472D01*
X348996D02*
X361188D01*
X339344Y942942D02*
X347472D01*
X347980D02*
X362204D01*
X339344Y942434D02*
X347472D01*
X347980D02*
X362712D01*
X339344Y941926D02*
X347472D01*
X347980D02*
X363220D01*
X329184Y941418D02*
X339344D01*
X347472D02*
X364236D01*
X329184Y940910D02*
X339344D01*
X347472D02*
X372364D01*
X329184Y940402D02*
X339344D01*
X347472D02*
X374396D01*
X329184Y939894D02*
X339344D01*
X347472D02*
X374396D01*
X329184Y939386D02*
X346456D01*
X347472D02*
X374396D01*
X329184Y938878D02*
X346456D01*
X356108D02*
X374396D01*
X329184Y938370D02*
X346456D01*
X356616D02*
X374396D01*
X375920D02*
X379984D01*
X329184Y937862D02*
X346456D01*
X356616D02*
X374396D01*
X375920D02*
X382016D01*
X329184Y937354D02*
X346456D01*
X357124D02*
X374396D01*
X375920D02*
X383540D01*
X329184Y936846D02*
X346456D01*
X357124D02*
X364744D01*
X375920D02*
X384556D01*
X329184Y936338D02*
X346456D01*
X357124D02*
X364744D01*
X375920D02*
X384556D01*
X329184Y935830D02*
X346456D01*
X347472D02*
X364744D01*
X375920D02*
X385064D01*
X329184Y935322D02*
X346456D01*
X347472D02*
X364744D01*
X375920D02*
X385064D01*
X329184Y934814D02*
X346456D01*
X359664D02*
X363728D01*
X375920D02*
X385064D01*
X329184Y934306D02*
X346456D01*
X347980D02*
X359664D01*
X375920D02*
X385572D01*
X356616Y899762D02*
X364744D01*
X337820Y899254D02*
X342900D01*
X357124D02*
X365760D01*
X313944Y898746D02*
X320548D01*
X337820D02*
X342392D01*
X357124D02*
X366268D01*
X313944Y898238D02*
X320548D01*
X337312D02*
X341884D01*
X357632D02*
X366776D01*
X314452Y897730D02*
X320548D01*
X336296D02*
X341376D01*
X357632D02*
X367792D01*
X315468Y897222D02*
X320548D01*
X336296D02*
X341376D01*
X357632D02*
X368300D01*
X315976Y896714D02*
X320548D01*
X357632D02*
X368808D01*
X357632Y896206D02*
X368300D01*
X357632Y895698D02*
X367792D01*
X329692Y895190D02*
X339344D01*
X357632D02*
X367792D01*
X339344Y894682D02*
X341376D01*
X357632D02*
X367284D01*
X339344Y894174D02*
X341884D01*
X357632D02*
X366776D01*
X338836Y893666D02*
X341884D01*
X357632D02*
X366268D01*
X338328Y893158D02*
X345948D01*
X357124D02*
X365760D01*
X329184Y932782D02*
X346456D01*
X348996D02*
X361696D01*
X376428D02*
X386080D01*
X329184Y932274D02*
X346456D01*
X349504D02*
X362712D01*
X376428D02*
X386080D01*
X329184Y931766D02*
X346456D01*
X349504D02*
X363220D01*
X376428D02*
X386080D01*
X329184Y931258D02*
X346456D01*
X350012D02*
X363728D01*
X376428D02*
X386080D01*
X329184Y930750D02*
X346456D01*
X351028D02*
X364236D01*
X376428D02*
X386588D01*
X329184Y930242D02*
X346456D01*
X351536D02*
X364236D01*
X376428D02*
X386588D01*
X329184Y929734D02*
X346456D01*
X352044D02*
X364744D01*
X376428D02*
X386588D01*
X329184Y929226D02*
X346456D01*
X353060D02*
X364744D01*
X376428D02*
X386588D01*
X336296Y928718D02*
X346456D01*
X354584D02*
X364744D01*
X376428D02*
X387096D01*
X329184Y933798D02*
X346456D01*
X347980D02*
X360680D01*
X375920D02*
X385572D01*
X323596Y959706D02*
X352552D01*
X337820Y958690D02*
X357632D01*
X343408Y958182D02*
X360680D01*
X347472Y957674D02*
X362712D01*
X319024Y957166D02*
X326136D01*
X349504D02*
X364744D01*
X318008Y956658D02*
X327152D01*
X333248D02*
X339852D01*
X353060D02*
X366776D01*
X317500Y956150D02*
X327152D01*
X333248D02*
X343408D01*
X356108D02*
X369824D01*
X317500Y955642D02*
X322072D01*
X333248D02*
X343408D01*
X359664D02*
X372364D01*
X317500Y955134D02*
X324612D01*
X333248D02*
X343408D01*
X318008Y954626D02*
X326644D01*
X336804D02*
X343408D01*
X363220D02*
X384556D01*
X318516Y954118D02*
X327152D01*
X336804D02*
X339852D01*
X365760D02*
X384556D01*
X276860Y892142D02*
X289052D01*
X277368Y891634D02*
X289560D01*
X277876Y891126D02*
X289560D01*
X278384Y890618D02*
X290068D01*
X273812Y885538D02*
X278384D01*
X286004Y883506D02*
X298704D01*
X273304Y882998D02*
X278892D01*
X287528D02*
X299212D01*
X274320Y882490D02*
X279908D01*
X289052D02*
X300736D01*
X274320Y881982D02*
X280924D01*
X289560D02*
X301244D01*
X275844Y881474D02*
X281940D01*
X291592D02*
X302260D01*
X276860Y880966D02*
X283464D01*
X293624D02*
X303784D01*
X277368Y880458D02*
X284480D01*
X278384Y879950D02*
X286004D01*
X288544Y874870D02*
X300228D01*
X288544Y874362D02*
X305308D01*
X234696Y912462D02*
X237744D01*
X251968D02*
X260096D01*
X234696Y911954D02*
X237744D01*
X251968D02*
X259588D01*
X234696Y911446D02*
X237744D01*
X251968D02*
X259588D01*
X235204Y910938D02*
X238252D01*
X251968D02*
X259080D01*
X235204Y910430D02*
X238252D01*
X275336D02*
X278892D01*
X235204Y909922D02*
X238252D01*
X275336D02*
X280416D01*
X235204Y909414D02*
X238252D01*
X275336D02*
X280924D01*
X235204Y908906D02*
X238252D01*
X275844D02*
X282448D01*
X235204Y908398D02*
X238252D01*
X275844D02*
X281940D01*
X235712Y907890D02*
X238252D01*
X276352D02*
X280924D01*
X235712Y907382D02*
X238760D01*
X257048D02*
X267208D01*
X276860D02*
X280416D01*
X235712Y906874D02*
X238760D01*
X255016D02*
X265684D01*
X276860D02*
X279400D01*
X235712Y906366D02*
X238760D01*
X252984D02*
X263144D01*
X277368D02*
X278892D01*
X235712Y905858D02*
X238760D01*
X251968D02*
X262128D01*
X277876D02*
X278384D01*
X236220Y905350D02*
X238760D01*
X249936D02*
X260096D01*
X236220Y904842D02*
X239268D01*
X236220Y904334D02*
X239268D01*
X236220Y903826D02*
X239268D01*
X236728Y903318D02*
X239268D01*
X236728Y902810D02*
X239268D01*
X236728Y902302D02*
X239268D01*
X236728Y901794D02*
X239776D01*
X236728Y901286D02*
X246888D01*
X236728Y900778D02*
X245872D01*
X237236Y900270D02*
X244348D01*
X277876D02*
X287020D01*
X322580Y869790D02*
X323088D01*
X326644D02*
X334264D01*
X321056Y869282D02*
X322580D01*
X329692D02*
X335280D01*
X332232Y868774D02*
X336296D01*
X332740Y868266D02*
X336804D01*
X333756Y867758D02*
X337820D01*
X322580Y864710D02*
X329184D01*
X323088Y862678D02*
X335280D01*
X323088Y862170D02*
X326136D01*
X327660D02*
X334772D01*
X323088Y861662D02*
X326136D01*
X327660D02*
X330708D01*
X332232D02*
X334772D01*
X323088Y861154D02*
X326136D01*
X327660D02*
X330708D01*
X332232D02*
X334772D01*
X323088Y860646D02*
X325628D01*
X327660D02*
X330708D01*
X332232D02*
X335280D01*
X322580Y860138D02*
X326136D01*
X327660D02*
X330708D01*
X332232D02*
X335280D01*
X322580Y859630D02*
X326136D01*
X327660D02*
X330708D01*
X332232D02*
X335280D01*
X322580Y859122D02*
X325628D01*
X327660D02*
X330708D01*
X332232D02*
X335788D01*
X327660Y858614D02*
X330708D01*
X332740D02*
X335788D01*
X327152Y858106D02*
X330708D01*
X332740D02*
X335788D01*
X323088Y853534D02*
X336296D01*
X327152Y853026D02*
X333248D01*
X332232Y892142D02*
X335788D01*
X324612Y890618D02*
X328676D01*
X322580Y890110D02*
X331724D01*
X321056Y889602D02*
X333248D01*
X321056Y889094D02*
X334264D01*
X319532Y888586D02*
X334772D01*
X320040Y888078D02*
X335280D01*
X327152Y882490D02*
X327660D01*
X332232D02*
X332740D01*
X327152Y881982D02*
X328168D01*
X332232D02*
X332740D01*
X326644Y881474D02*
X328676D01*
X331724D02*
X333248D01*
X321564Y880966D02*
X333248D01*
X322580Y880458D02*
X333248D01*
X323088Y879950D02*
X335788D01*
X324104Y879442D02*
X335788D01*
X324612Y878934D02*
X335280D01*
X325628Y878426D02*
X334772D01*
X327152Y877918D02*
X334264D01*
X328168Y877410D02*
X333248D01*
X329692Y876902D02*
X332740D01*
X324612Y875378D02*
X329692D01*
X322072Y874870D02*
X332740D01*
X321056Y874362D02*
X334264D01*
X320548Y873854D02*
X335788D01*
X320548Y873346D02*
X335788D01*
X320548Y872838D02*
X336804D01*
X330200Y903318D02*
X338836D01*
X330200Y902810D02*
X338836D01*
X330200Y902302D02*
X338328D01*
X330708Y901794D02*
X337820D01*
X330708Y901286D02*
X337820D01*
X330708Y900778D02*
X337820D01*
X330708Y900270D02*
X337312D01*
X330708Y899762D02*
X336804D01*
X331216Y899254D02*
X336296D01*
X331216Y898746D02*
X336296D01*
X331216Y898238D02*
X335788D01*
X331216Y897730D02*
X334772D01*
X331216Y897222D02*
X334772D01*
X329692Y896714D02*
X330200D01*
X331724D02*
X333248D01*
X329692Y896206D02*
X330708D01*
X322072Y895698D02*
X322580D01*
X329692D02*
X331216D01*
X321564Y895190D02*
X322580D01*
X320040Y894682D02*
X322580D01*
X330200D02*
X338836D01*
X330200Y894174D02*
X338836D01*
X330708Y893666D02*
X337820D01*
X331216Y893158D02*
X337312D01*
X320040Y932782D02*
X328168D01*
X320040Y932274D02*
X328168D01*
X320040Y931766D02*
X328168D01*
X320040Y931258D02*
X328168D01*
X320040Y930750D02*
X328168D01*
X320040Y930242D02*
X328168D01*
X320040Y929734D02*
X328168D01*
X320040Y929226D02*
X328168D01*
X319532Y928718D02*
X328168D01*
X329184D02*
X335788D01*
X329184Y928210D02*
X335788D01*
X329184Y927702D02*
X335788D01*
X328676Y927194D02*
X335788D01*
X328168Y926686D02*
X336296D01*
X328168Y926178D02*
X336296D01*
X328168Y925670D02*
X336296D01*
X328168Y925162D02*
X336296D01*
X328168Y924654D02*
X336296D01*
X328168Y924146D02*
X336296D01*
X328168Y923638D02*
X336296D01*
X328168Y923130D02*
X336296D01*
X323088Y920590D02*
X337312D01*
X321564Y918558D02*
X322580D01*
X322072Y918050D02*
X324104D01*
X327660D02*
X328168D01*
X322580Y917542D02*
X326136D01*
X327660D02*
X330200D01*
X323088Y917034D02*
X331724D01*
X323088Y916526D02*
X333248D01*
X323596Y916018D02*
X333756D01*
X323088Y953102D02*
X327660D01*
X329184D02*
X332232D01*
X329184Y952594D02*
X332232D01*
X329184Y952086D02*
X332232D01*
X329184Y951578D02*
X332232D01*
X329184Y951070D02*
X332232D01*
X321564Y950562D02*
X323596D01*
X328676D02*
X332740D01*
X329184Y950054D02*
X330200D01*
X330708D02*
X332740D01*
X329184Y948530D02*
X330708D01*
X329184Y948022D02*
X336804D01*
X328168Y947514D02*
X337312D01*
X328168Y947006D02*
X337312D01*
X328168Y946498D02*
X337312D01*
X328168Y945990D02*
X337820D01*
X328168Y945482D02*
X337820D01*
X328168Y944974D02*
X337820D01*
X328168Y944466D02*
X338328D01*
X328168Y943958D02*
X338328D01*
X328168Y943450D02*
X338836D01*
X319532Y942942D02*
X328168D01*
X328676D02*
X338836D01*
X319532Y942434D02*
X328168D01*
X329184D02*
X338836D01*
X319532Y941926D02*
X328168D01*
X329184D02*
X338836D01*
X320040Y941418D02*
X328168D01*
X320040Y940910D02*
X328168D01*
X320040Y940402D02*
X328168D01*
X320040Y939894D02*
X328168D01*
X320040Y939386D02*
X328168D01*
X320040Y938878D02*
X328168D01*
X320040Y938370D02*
X328168D01*
X320040Y937862D02*
X328168D01*
X320040Y937354D02*
X328168D01*
X320040Y936846D02*
X328168D01*
X320040Y936338D02*
X328168D01*
X320040Y935830D02*
X328168D01*
X320040Y935322D02*
X328168D01*
X320040Y934814D02*
X328168D01*
X320040Y934306D02*
X328168D01*
X320040Y933798D02*
X328168D01*
X319532Y957674D02*
X325120D01*
X333248D02*
X334264D01*
X326644Y957166D02*
X327152D01*
X328676D02*
X332740D01*
X333248D02*
X334264D01*
X329184Y956658D02*
X332740D01*
X329184Y956150D02*
X332232D01*
X325120Y955642D02*
X326136D01*
X329184D02*
X332232D01*
X325628Y955134D02*
X326136D01*
X329184D02*
X332232D01*
X329184Y954626D02*
X332232D01*
X333756D02*
X334264D01*
X329184Y954118D02*
X332232D01*
X313436Y869790D02*
X316992D01*
X313944Y869282D02*
X317500D01*
X237236Y899762D02*
X242824D01*
X277368D02*
X287020D01*
X237236Y899254D02*
X241808D01*
X277368D02*
X287020D01*
X237236Y898746D02*
X240284D01*
X278384D02*
X287020D01*
X237236Y898238D02*
X238760D01*
X278384Y897730D02*
X287528D01*
X277876Y897222D02*
X287528D01*
X277368Y896714D02*
X287528D01*
X276860Y896206D02*
X287528D01*
X276860Y895698D02*
X287528D01*
X275844Y895190D02*
X287528D01*
X275844Y894682D02*
X288036D01*
X275336Y894174D02*
X288036D01*
X275336Y893666D02*
X288544D01*
X275844Y893158D02*
X288544D01*
X257048Y932782D02*
X263144D01*
X275336D02*
X300736D01*
X237236Y932274D02*
X246888D01*
X257048D02*
X263144D01*
X275844D02*
X300736D01*
X237236Y931766D02*
X246888D01*
X257048D02*
X262636D01*
X276860D02*
X300736D01*
X236728Y931258D02*
X246888D01*
X257048D02*
X262636D01*
X276860D02*
X300736D01*
X236728Y930750D02*
X246380D01*
X257048D02*
X262636D01*
X277876D02*
X300736D01*
X236728Y930242D02*
X245872D01*
X256540D02*
X262636D01*
X279400D02*
X300736D01*
X236728Y929734D02*
X245872D01*
X256540D02*
X262636D01*
X280924D02*
X300736D01*
X236728Y929226D02*
X245872D01*
X256540D02*
X262636D01*
X283972D02*
X300736D01*
X236728Y928718D02*
X245872D01*
X256540D02*
X262636D01*
X284480D02*
X300736D01*
X236728Y928210D02*
X246380D01*
X256540D02*
X262636D01*
X276860D02*
X282956D01*
X284480D02*
X300736D01*
X236728Y927702D02*
X246380D01*
X256540D02*
X262636D01*
X276352D02*
X282956D01*
X236728Y927194D02*
X246380D01*
X256540D02*
X262128D01*
X275336D02*
X283464D01*
X236728Y926686D02*
X246380D01*
X246888D02*
X262128D01*
X275336D02*
X283464D01*
X236728Y926178D02*
X246380D01*
X246888D02*
X262128D01*
X275336D02*
X283464D01*
X269748Y888586D02*
X274320D01*
X270256Y888078D02*
X275336D01*
X271272Y887570D02*
X275844D01*
X271780Y887062D02*
X276352D01*
X272288Y886554D02*
X277368D01*
X273304Y886046D02*
X277876D01*
X274320Y885030D02*
X277876D01*
X273812Y884522D02*
X277368D01*
X273812Y884014D02*
X277368D01*
X272796Y883506D02*
X277368D01*
X264668Y912462D02*
X270764D01*
X274320D02*
X275844D01*
X264668Y911954D02*
X270764D01*
X274320D02*
X276860D01*
X264668Y911446D02*
X270764D01*
X274828D02*
X277368D01*
X264668Y910938D02*
X267208D01*
X268224D02*
X271272D01*
X274828D02*
X277876D01*
X264668Y910430D02*
X267208D01*
X268732D02*
X271780D01*
X264668Y909922D02*
X267208D01*
X268732D02*
X271780D01*
X264160Y909414D02*
X267208D01*
X268732D02*
X271780D01*
X262128Y908906D02*
X267208D01*
X268732D02*
X272288D01*
X260096Y908398D02*
X267208D01*
X269240D02*
X272288D01*
X259080Y907890D02*
X267208D01*
X269240D02*
X272288D01*
X269748Y907382D02*
X272796D01*
X270256Y906874D02*
X273304D01*
X270256Y906366D02*
X273812D01*
X270764Y905858D02*
X273812D01*
X270764Y905350D02*
X274320D01*
X271780Y904842D02*
X274828D01*
X271780Y904334D02*
X275336D01*
X271272Y903826D02*
X275336D01*
X270764Y903318D02*
X275336D01*
X270256Y902810D02*
X274320D01*
X269240Y902302D02*
X273812D01*
X268732Y901794D02*
X273304D01*
X268224Y901286D02*
X272796D01*
X267716Y900778D02*
X272288D01*
X267208Y900270D02*
X271780D01*
X267208Y899762D02*
X270764D01*
X267208Y899254D02*
X270764D01*
X267716Y898746D02*
X271272D01*
X268224Y898238D02*
X271780D01*
X268732Y897730D02*
X272288D01*
X268732Y897222D02*
X272796D01*
X267716Y896714D02*
X272796D01*
X267208Y896206D02*
X271780D01*
X266700Y895698D02*
X271272D01*
X266192Y895190D02*
X270764D01*
X265684Y894682D02*
X269748D01*
X265176Y894174D02*
X269240D01*
X265176Y893666D02*
X268732D01*
X265684Y893158D02*
X269240D01*
X265684Y932782D02*
X273812D01*
X265684Y932274D02*
X273812D01*
X265684Y931766D02*
X273812D01*
X265684Y931258D02*
X273812D01*
X265684Y930750D02*
X273812D01*
X265684Y930242D02*
X273812D01*
X265684Y929734D02*
X273812D01*
X265684Y929226D02*
X273812D01*
X265684Y928718D02*
X273812D01*
X265684Y928210D02*
X273812D01*
X265684Y927702D02*
X273812D01*
X265684Y927194D02*
X273812D01*
X265684Y926686D02*
X273812D01*
X265684Y926178D02*
X273812D01*
X265684Y925670D02*
X273812D01*
X265684Y925162D02*
X273812D01*
X265684Y924654D02*
X273812D01*
X265684Y924146D02*
X273812D01*
X265684Y923638D02*
X274320D01*
X265684Y923130D02*
X274320D01*
X265684Y922622D02*
X274320D01*
X265176Y919574D02*
X275336D01*
X265176Y919066D02*
X272796D01*
X265176Y918558D02*
X271780D01*
X265176Y918050D02*
X271780D01*
X265176Y917542D02*
X270764D01*
X265176Y917034D02*
X270764D01*
X265176Y916526D02*
X270764D01*
X265176Y916018D02*
X270764D01*
X265176Y915510D02*
X265684D01*
X267716D02*
X270256D01*
X267716Y915002D02*
X270256D01*
X267716Y914494D02*
X270256D01*
X267208Y913986D02*
X270764D01*
X274320D02*
X274828D01*
X264668Y913478D02*
X270764D01*
X274320D02*
X275336D01*
X273812Y953102D02*
X277368D01*
X270764Y952594D02*
X271780D01*
X274320D02*
X277368D01*
X269240Y952086D02*
X271780D01*
X274320D02*
X277368D01*
X267208Y951578D02*
X271780D01*
X274320D02*
X277368D01*
X265176Y951070D02*
X265684D01*
X267208D02*
X272288D01*
X274320D02*
X277368D01*
X262636Y950562D02*
X265684D01*
X267208D02*
X273812D01*
X274320D02*
X277368D01*
X261620Y950054D02*
X265176D01*
X267208D02*
X273812D01*
X274320D02*
X277368D01*
X261112Y949546D02*
X265176D01*
X267208D02*
X277368D01*
X262128Y949038D02*
X265176D01*
X267208D02*
X277368D01*
X262128Y948530D02*
X265176D01*
X267208D02*
X270256D01*
X270764D02*
X277368D01*
X262128Y948022D02*
X265176D01*
X267208D02*
X270256D01*
X271780D02*
X277368D01*
X262128Y947514D02*
X265176D01*
X267208D02*
X270256D01*
X272796D02*
X277368D01*
X262128Y947006D02*
X265176D01*
X267208D02*
X270256D01*
X272796D02*
X277876D01*
X262128Y946498D02*
X265176D01*
X267208D02*
X270256D01*
X273812D02*
X277368D01*
X262128Y945990D02*
X265176D01*
X267208D02*
X270256D01*
X273812D02*
X274320D01*
X261620Y945482D02*
X265176D01*
X267208D02*
X270764D01*
X261112Y944974D02*
X264668D01*
X267208D02*
X270764D01*
X260096Y944466D02*
X264160D01*
X267208D02*
X268224D01*
X271780Y943958D02*
X274320D01*
X270256Y943450D02*
X274320D01*
X267716Y942942D02*
X274320D01*
X266192Y942434D02*
X274320D01*
X263652Y941926D02*
X265176D01*
X266192D02*
X274320D01*
X262128Y941418D02*
X274320D01*
X260096Y940910D02*
X264668D01*
X265176D02*
X274320D01*
X265176Y940402D02*
X274320D01*
X265176Y939894D02*
X274320D01*
X265176Y939386D02*
X274320D01*
X265176Y938878D02*
X273812D01*
X265176Y938370D02*
X273812D01*
X265176Y937862D02*
X273812D01*
X265176Y937354D02*
X273812D01*
X265176Y936846D02*
X273812D01*
X265684Y936338D02*
X273812D01*
X265684Y935830D02*
X273812D01*
X265684Y935322D02*
X273812D01*
X265684Y934814D02*
X273812D01*
X265684Y934306D02*
X273812D01*
X265684Y933798D02*
X273812D01*
X263652Y956150D02*
X277368D01*
X261112Y955642D02*
X273812D01*
X260096Y955134D02*
X272288D01*
X239776Y912462D02*
X248920D01*
X239776Y911954D02*
X248920D01*
X239776Y911446D02*
X248920D01*
X239776Y910938D02*
X248920D01*
X240284Y910430D02*
X248920D01*
X251968D02*
X257048D01*
X240284Y909922D02*
X248920D01*
X251968D02*
X255524D01*
X240284Y909414D02*
X248920D01*
X251968D02*
X254000D01*
X240284Y908906D02*
X248412D01*
X240284Y908398D02*
X248412D01*
X240284Y907890D02*
X248412D01*
X240284Y907382D02*
X247904D01*
X240792Y906874D02*
X246888D01*
X240792Y906366D02*
X245364D01*
X240792Y905858D02*
X244348D01*
X240792Y905350D02*
X242824D01*
X240792Y904842D02*
X241808D01*
X248412D02*
X257556D01*
X247396Y904334D02*
X257048D01*
X245872Y903826D02*
X255016D01*
X243840Y903318D02*
X252984D01*
X242316Y902810D02*
X250952D01*
X241808Y902302D02*
X250444D01*
X240284Y901794D02*
X248412D01*
X238252Y932782D02*
X246888D01*
X247396D02*
X255524D01*
X247396Y932274D02*
X255524D01*
X247396Y931766D02*
X255524D01*
X247396Y931258D02*
X255524D01*
X247396Y930750D02*
X255524D01*
X247396Y930242D02*
X255524D01*
X247396Y929734D02*
X255524D01*
X247396Y929226D02*
X256032D01*
X247396Y928718D02*
X256032D01*
X247396Y928210D02*
X256032D01*
X247396Y927702D02*
X256032D01*
X247396Y927194D02*
X256032D01*
X238760Y918558D02*
X250444D01*
X238760Y918050D02*
X249936D01*
X238760Y917542D02*
X249936D01*
X238760Y917034D02*
X249936D01*
X239268Y916526D02*
X249936D01*
X239268Y916018D02*
X249936D01*
X239268Y915510D02*
X249936D01*
X239268Y915002D02*
X249936D01*
X239268Y914494D02*
X249936D01*
X239268Y913986D02*
X249428D01*
X239268Y913478D02*
X249428D01*
X250444Y951578D02*
X252984D01*
X250444Y951070D02*
X252984D01*
X250444Y950562D02*
X252984D01*
X250444Y950054D02*
X252984D01*
X250444Y949546D02*
X252984D01*
X250444Y949038D02*
X252984D01*
X250444Y948530D02*
X252984D01*
X250444Y948022D02*
X252984D01*
X250444Y947514D02*
X252984D01*
X250444Y947006D02*
X252984D01*
X250444Y946498D02*
X252984D01*
X250444Y945990D02*
X252984D01*
X250444Y945482D02*
X252984D01*
X250444Y944974D02*
X252984D01*
X250444Y944466D02*
X252984D01*
X250444Y943958D02*
X252984D01*
X250444Y943450D02*
X252984D01*
X250444Y942942D02*
X252984D01*
X249428Y942434D02*
X252984D01*
X248412Y941926D02*
X252984D01*
X246380Y941418D02*
X252984D01*
X244856Y940910D02*
X252984D01*
X243332Y940402D02*
X251968D01*
X242316Y939894D02*
X250952D01*
X240792Y939386D02*
X249428D01*
X239268Y938878D02*
X247904D01*
X254000D02*
X255524D01*
X238252Y938370D02*
X246888D01*
X252984D02*
X255524D01*
X250952Y937862D02*
X255524D01*
X249936Y937354D02*
X255524D01*
X247904Y936846D02*
X255524D01*
X247904Y936338D02*
X255524D01*
X245872Y935830D02*
X246888D01*
X247396D02*
X255524D01*
X244348Y935322D02*
X246888D01*
X247396D02*
X255524D01*
X243332Y934814D02*
X246888D01*
X247396D02*
X255524D01*
X241808Y934306D02*
X246888D01*
X247396D02*
X255524D01*
X240284Y933798D02*
X246888D01*
X247396D02*
X255524D01*
X230632Y932782D02*
X233680D01*
X230632Y932274D02*
X233680D01*
X230632Y931766D02*
X233680D01*
X230632Y931258D02*
X233680D01*
X230632Y930750D02*
X233680D01*
X230632Y930242D02*
X233680D01*
X230632Y929734D02*
X233680D01*
X230632Y929226D02*
X233680D01*
X230632Y928718D02*
X233680D01*
X230632Y928210D02*
X233680D01*
X230632Y927702D02*
X233680D01*
X230632Y927194D02*
X233680D01*
X230632Y926686D02*
X233680D01*
X230632Y926178D02*
X233680D01*
X230632Y925670D02*
X233680D01*
X230632Y925162D02*
X233680D01*
X230632Y924654D02*
X234188D01*
X230632Y924146D02*
X234696D01*
X231140Y923638D02*
X235204D01*
X231648Y923130D02*
X235204D01*
X232156Y922622D02*
X235712D01*
X232664Y922114D02*
X235712D01*
X233172Y921606D02*
X235712D01*
X233172Y921098D02*
X235712D01*
X233172Y920590D02*
X236220D01*
X233172Y920082D02*
X236220D01*
X233680Y919574D02*
X236220D01*
X233680Y919066D02*
X236728D01*
X233680Y918558D02*
X236728D01*
X233680Y918050D02*
X236728D01*
X233680Y917542D02*
X236728D01*
X233680Y917034D02*
X236728D01*
X233680Y916526D02*
X236728D01*
X234188Y916018D02*
X237236D01*
X234188Y915510D02*
X237236D01*
X234188Y915002D02*
X237236D01*
X234188Y914494D02*
X237236D01*
X234188Y913986D02*
X237236D01*
X234188Y913478D02*
X237236D01*
X230632Y934814D02*
X237236D01*
X230632Y934306D02*
X235712D01*
X230632Y933798D02*
X234188D01*
X384556Y912970D02*
X394716D01*
X387096Y933290D02*
X393192D01*
X369824Y892650D02*
X373380D01*
X365760Y933290D02*
X373380D01*
X354584Y912970D02*
X357124D01*
X341376Y872330D02*
X345948D01*
X347980D02*
X354076D01*
X345948Y953610D02*
X349504D01*
X351028D02*
X355092D01*
X332232Y892650D02*
X336296D01*
X320548Y872330D02*
X325628D01*
X332232D02*
X337312D01*
X329184Y953610D02*
X332232D01*
X320040Y933290D02*
X328168D01*
X278892Y953610D02*
X282448D01*
X284988D02*
X289052D01*
X291084D02*
X293624D01*
X264160Y912970D02*
X270764D01*
X274320D02*
X275336D01*
X266192Y892650D02*
X269748D01*
X398272Y924146D02*
X402336D01*
X398272Y923638D02*
X401828D01*
X398272Y923130D02*
X401320D01*
X398272Y922622D02*
X400812D01*
X398272Y922114D02*
X400812D01*
X398272Y921606D02*
X400812D01*
X398272Y921098D02*
X400812D01*
X398272Y920590D02*
X400812D01*
X398272Y920082D02*
X400812D01*
X398272Y919574D02*
X400812D01*
X398272Y919066D02*
X400812D01*
X398272Y918558D02*
X400812D01*
X398272Y918050D02*
X400812D01*
X398272Y917542D02*
X400812D01*
X398272Y917034D02*
X400812D01*
X398272Y916526D02*
X400812D01*
X398272Y916018D02*
X400812D01*
X398272Y915510D02*
X400812D01*
X398272Y915002D02*
X400812D01*
X398272Y914494D02*
X400812D01*
X398272Y913986D02*
X400812D01*
X398272Y913478D02*
X400812D01*
X392684Y936338D02*
X400304D01*
X394208Y935830D02*
X401828D01*
X395224Y935322D02*
X402844D01*
X396240Y934814D02*
X402844D01*
X397764Y934306D02*
X402844D01*
X399288Y933798D02*
X402844D01*
X313944Y868774D02*
X322580D01*
X314452Y868266D02*
X322580D01*
X314452Y867758D02*
X322580D01*
X314452Y867250D02*
X323088D01*
X314452Y866742D02*
X323596D01*
X318516Y866234D02*
X324612D01*
X319024Y865726D02*
X326136D01*
X319024Y865218D02*
X327152D01*
X319024Y864710D02*
X321564D01*
X332232D02*
X342900D01*
X319024Y864202D02*
X321564D01*
X323088D02*
X339852D01*
X319024Y863694D02*
X321564D01*
X323088D02*
X339344D01*
X319024Y863186D02*
X321564D01*
X323088D02*
X339344D01*
X318516Y862678D02*
X321564D01*
X336296D02*
X339344D01*
X318516Y862170D02*
X321564D01*
X336296D02*
X339344D01*
X318516Y861662D02*
X321056D01*
X336296D02*
X339344D01*
X318008Y861154D02*
X321056D01*
X336804D02*
X339852D01*
X318008Y860646D02*
X321056D01*
X336804D02*
X339852D01*
X318008Y860138D02*
X321056D01*
X336804D02*
X339852D01*
X317500Y859630D02*
X321056D01*
X337312D02*
X340360D01*
X337312Y859122D02*
X352552D01*
X337312Y858614D02*
X351536D01*
X337312Y858106D02*
X351536D01*
X332232Y857598D02*
X350520D01*
X315468Y854550D02*
X343408D01*
X318516Y854042D02*
X340868D01*
X314452Y892142D02*
X321056D01*
X338328D02*
X345948D01*
X357124D02*
X365252D01*
X315468Y891634D02*
X320548D01*
X338328D02*
X345948D01*
X356616D02*
X364744D01*
X316484Y891126D02*
X319532D01*
X338836D02*
X345440D01*
X356616D02*
X363728D01*
X338836Y890618D02*
X344932D01*
X356616D02*
X363220D01*
X339344Y890110D02*
X344932D01*
X356108D02*
X363728D01*
X356108Y889602D02*
X364236D01*
X355600Y889094D02*
X364744D01*
X355600Y888586D02*
X364744D01*
X355092Y888078D02*
X363728D01*
X319024Y887570D02*
X335280D01*
X354584D02*
X363220D01*
X318008Y887062D02*
X335788D01*
X354584D02*
X362712D01*
X314452Y886554D02*
X337312D01*
X354076D02*
X361696D01*
X314452Y886046D02*
X339344D01*
X353568D02*
X360680D01*
X314452Y885538D02*
X339344D01*
X353060D02*
X360680D01*
X331216Y884522D02*
X343916D01*
X332232Y884014D02*
X343916D01*
X333248Y883506D02*
X342900D01*
X333756Y882998D02*
X342392D01*
X313436Y881982D02*
X325628D01*
X317500Y881474D02*
X325628D01*
X359664D02*
X365252D01*
X359664Y880966D02*
X364236D01*
X339344Y879442D02*
X339852D01*
X339344Y878934D02*
X339852D01*
X359664D02*
X364744D01*
X357632Y878426D02*
X364236D01*
X355092Y877918D02*
X363220D01*
X351536Y877410D02*
X362204D01*
X350012Y876902D02*
X361696D01*
X347980Y876394D02*
X360680D01*
X326136Y912462D02*
X350012D01*
X359156D02*
X372364D01*
X375920D02*
X384048D01*
X326644Y911954D02*
X348488D01*
X359156D02*
X361696D01*
X375920D02*
X384048D01*
X327152Y911446D02*
X346964D01*
X358648D02*
X361696D01*
X375920D02*
X384048D01*
X327152Y910938D02*
X346456D01*
X358648D02*
X361696D01*
X375920D02*
X384048D01*
X327152Y910430D02*
X345440D01*
X358140D02*
X361188D01*
X375920D02*
X384048D01*
X327660Y909922D02*
X344424D01*
X358140D02*
X362712D01*
X376936D02*
X384048D01*
X327660Y909414D02*
X343916D01*
X357632D02*
X363220D01*
X377952D02*
X384048D01*
X328168Y908906D02*
X342900D01*
X357632D02*
X364744D01*
X379984D02*
X384048D01*
X328168Y908398D02*
X342392D01*
X359156D02*
X366268D01*
X328168Y907890D02*
X342392D01*
X359664D02*
X366776D01*
X328676Y907382D02*
X341376D01*
X329184Y906874D02*
X340868D01*
X329184Y906366D02*
X340868D01*
X370332D02*
X381000D01*
X329184Y905858D02*
X340360D01*
X371348D02*
X381508D01*
X329184Y905350D02*
X339852D01*
X373380D02*
X383540D01*
X329692Y904842D02*
X339344D01*
X354076D02*
X360172D01*
X375920D02*
X385064D01*
X329692Y904334D02*
X339344D01*
X354076D02*
X360172D01*
X376428D02*
X386080D01*
X329692Y903826D02*
X339344D01*
X354584D02*
X359664D01*
X378460D02*
X387604D01*
X355600Y902810D02*
X359664D01*
X355600Y902302D02*
X360680D01*
X356108Y901794D02*
X361188D01*
X356108Y901286D02*
X362712D01*
X339344Y900778D02*
X347980D01*
X356616D02*
X362712D01*
X338836Y900270D02*
X344424D01*
X356616D02*
X364236D01*
X338328Y899762D02*
X343408D01*
X279908Y919066D02*
X301752D01*
X250952Y918558D02*
X261112D01*
X281940D02*
X299212D01*
X250952Y918050D02*
X261112D01*
X250952Y917542D02*
X260604D01*
X273812D02*
X278384D01*
X250952Y917034D02*
X260604D01*
X273812D02*
X280416D01*
X250952Y916526D02*
X260604D01*
X274320D02*
X281940D01*
X250952Y916018D02*
X260604D01*
X274320D02*
X282956D01*
X250952Y915510D02*
X260604D01*
X275336D02*
X284988D01*
X251460Y915002D02*
X260604D01*
X275844D02*
X289560D01*
X251460Y914494D02*
X260604D01*
X251460Y913986D02*
X260604D01*
X251460Y913478D02*
X260096D01*
X250444Y953102D02*
X264160D01*
X250444Y952594D02*
X261112D01*
X250444Y952086D02*
X260096D01*
X257048Y949038D02*
X259080D01*
X256032Y948530D02*
X259080D01*
X255016Y948022D02*
X258572D01*
X255016Y947514D02*
X258572D01*
X376428Y924146D02*
X394716D01*
X376428Y923638D02*
X394716D01*
X376428Y922622D02*
X394716D01*
X376428Y925162D02*
X394716D01*
X376428Y923130D02*
X394716D01*
X376428Y924654D02*
X394716D01*
X376428Y922114D02*
X394716D01*
X376428Y921606D02*
X394716D01*
X376428Y925670D02*
X394716D01*
X376428Y926178D02*
X394716D01*
X275336Y933290D02*
X300736D01*
X376428Y927702D02*
X395224D01*
X376428Y927194D02*
X395224D01*
X376428Y926686D02*
X394716D01*
X256540Y933290D02*
X263144D01*
X250444Y953610D02*
X266700D01*
X276352Y892650D02*
X289052D01*
X251460Y912970D02*
X260096D01*
X375920Y933290D02*
X385572D01*
X348488D02*
X361188D01*
X329184D02*
X346456D01*
X366776Y953610D02*
X384556D01*
X336804D02*
X339852D01*
X318516D02*
X327152D01*
X357124Y892650D02*
X365760D01*
X338328D02*
X345948D01*
X313944D02*
X321564D01*
X375920Y912970D02*
X384048D01*
X359664D02*
X369824D01*
X325628D02*
X351028D01*
X399796Y933290D02*
X402844D01*
X398272Y912970D02*
X400812D01*
X250444Y954118D02*
X267716D01*
X250444Y954626D02*
X269748D01*
X266700Y956658D02*
X280416D01*
X268732Y957166D02*
X283972D01*
X270764Y957674D02*
X286004D01*
X272796Y958182D02*
X290068D01*
X275844Y958690D02*
X295656D01*
X277368Y959198D02*
X298704D01*
X292608Y933798D02*
X300736D01*
X275336D02*
X292100D01*
X256032D02*
X263652D01*
X292608Y934306D02*
X300736D01*
X275336D02*
X292100D01*
X256032D02*
X263652D01*
X292608Y934814D02*
X300736D01*
X274828D02*
X292100D01*
X256032D02*
X263652D01*
X292608Y935322D02*
X300736D01*
X274828D02*
X291592D01*
X256032D02*
X263652D01*
X230632D02*
X237744D01*
X292608Y935830D02*
X300736D01*
X274828D02*
X290576D01*
X256032D02*
X264160D01*
X231648D02*
X239268D01*
X292608Y936338D02*
X300736D01*
X274828D02*
X289560D01*
X256032D02*
X264160D01*
X233172D02*
X240792D01*
X292608Y936846D02*
X300736D01*
X274828D02*
X289052D01*
X256032D02*
X264160D01*
X233680D02*
X241808D01*
X292608Y937354D02*
X300736D01*
X274828D02*
X286004D01*
X256032D02*
X264668D01*
X235204D02*
X243332D01*
X292608Y937862D02*
X300736D01*
X274828D02*
X283972D01*
X256032D02*
X264668D01*
X236728D02*
X245364D01*
X292608Y938370D02*
X300736D01*
X274828D02*
X283464D01*
X256032D02*
X264668D01*
X292608Y938878D02*
X300736D01*
X274828D02*
X282956D01*
X256032D02*
X264668D01*
X292608Y939386D02*
X300736D01*
X275336D02*
X282956D01*
X257048D02*
X264668D01*
X292608Y939894D02*
X300736D01*
X275336D02*
X282956D01*
X257048D02*
X264668D01*
X292608Y940402D02*
X300736D01*
X275336D02*
X283464D01*
X258064D02*
X264668D01*
X292608Y940910D02*
X300736D01*
X275336D02*
X292100D01*
X292608Y941418D02*
X300736D01*
X275844D02*
X292100D01*
X292608Y941926D02*
X300736D01*
X275844D02*
X292100D01*
X256032D02*
X260096D01*
X292608Y942434D02*
X300736D01*
X276352D02*
X292100D01*
X256032D02*
X260604D01*
X276860Y942942D02*
X292100D01*
X255524D02*
X262128D01*
X277368Y943450D02*
X292100D01*
X255524D02*
X263144D01*
X277368Y943958D02*
X292100D01*
X255524D02*
X263652D01*
X278384Y944466D02*
X292100D01*
X255524D02*
X258572D01*
X255524Y944974D02*
X258572D01*
X255524Y945482D02*
X258572D01*
X255524Y945990D02*
X258572D01*
X255524Y946498D02*
X258572D01*
X255524Y947006D02*
X258572D01*
X283464Y887062D02*
X293624D01*
X283464Y886554D02*
X294132D01*
X282956Y886046D02*
X294640D01*
X282448Y885538D02*
X295656D01*
X283464Y885030D02*
X296164D01*
X284480Y884522D02*
X297180D01*
X284480Y884014D02*
X297688D01*
X279400Y879442D02*
X287528D01*
X280416Y878934D02*
X288544D01*
X281940Y878426D02*
X290576D01*
X283464Y877918D02*
X292608D01*
X285496Y877410D02*
X292608D01*
X286004Y876902D02*
X292100D01*
X287528Y876394D02*
X292608D01*
X289052Y875886D02*
X295656D01*
X289052Y875378D02*
X297180D01*
X288544Y906874D02*
X289560D01*
X287020Y906366D02*
X289052D01*
X286512Y905858D02*
X289052D01*
X285496Y905350D02*
X288544D01*
X284480Y904842D02*
X288544D01*
X283972Y904334D02*
X288544D01*
X282956Y903826D02*
X288036D01*
X281940Y903318D02*
X287528D01*
X280924Y902810D02*
X287528D01*
X280924Y902302D02*
X287528D01*
X279908Y901794D02*
X287528D01*
X278892Y901286D02*
X287528D01*
X278892Y900778D02*
X287528D01*
X278892Y898238D02*
X287020D01*
X281940Y929226D02*
X282956D01*
X278892Y928718D02*
X282956D01*
X284480Y925670D02*
X292100D01*
X282448Y918050D02*
X298196D01*
X284988Y917542D02*
X296672D01*
X288036Y917034D02*
X294132D01*
Y915510D02*
X297180D01*
X279400Y953102D02*
X282448D01*
X285496D02*
X289052D01*
X290576D02*
X293624D01*
X279400Y952594D02*
X282448D01*
X286004D02*
X289560D01*
X290576D02*
X293116D01*
X279400Y952086D02*
X282448D01*
X286004D02*
X292608D01*
X279400Y951578D02*
X282448D01*
X286004D02*
X292608D01*
X279400Y951070D02*
X282448D01*
X287020D02*
X292100D01*
X279400Y950562D02*
X282448D01*
X287020D02*
X292100D01*
X279400Y950054D02*
X282448D01*
X287020D02*
X292100D01*
X279400Y949546D02*
X282448D01*
X287528D02*
X291592D01*
X279400Y949038D02*
X282448D01*
X287528D02*
X291592D01*
X279400Y948530D02*
X282448D01*
X287528D02*
X289560D01*
X279400Y948022D02*
X283464D01*
X278892Y947514D02*
X281940D01*
X278892Y947006D02*
X280416D01*
X282448Y946498D02*
X290068D01*
X280416Y945990D02*
X291592D01*
X279400Y945482D02*
X292100D01*
X278892Y944974D02*
X292100D01*
X283972Y940402D02*
X292100D01*
X284480Y939894D02*
X292100D01*
X284480Y939386D02*
X292100D01*
X284480Y938878D02*
X291084D01*
X284480Y938370D02*
X291084D01*
X284480Y937862D02*
X287020D01*
X291592Y956150D02*
X295148D01*
X286004Y955642D02*
X288544D01*
X291592D02*
X294640D01*
X284480Y955134D02*
X288544D01*
X291592D02*
X294640D01*
X280416Y954626D02*
X283464D01*
X284480D02*
X288544D01*
X291084D02*
X294132D01*
X278892Y954118D02*
X282448D01*
X284988D02*
X289052D01*
X291084D02*
X294132D01*
X266700Y892142D02*
X270256D01*
X266700Y891634D02*
X270764D01*
X267208Y891126D02*
X271272D01*
X267716Y890618D02*
X271780D01*
X268224Y890110D02*
X272288D01*
X268732Y889602D02*
X272796D01*
X269240Y889094D02*
X273304D01*
X314452Y866234D02*
X316992D01*
X314452Y865726D02*
X316992D01*
X313944Y865218D02*
X316992D01*
X313944Y864710D02*
X316992D01*
X313944Y864202D02*
X316992D01*
X313944Y863694D02*
X316992D01*
X313944Y863186D02*
X316992D01*
X313436Y862678D02*
X316992D01*
X313436Y862170D02*
X316992D01*
X313436Y861662D02*
X316992D01*
X316484Y881474D02*
X316992D01*
X315976Y874870D02*
X316484D01*
X314960Y874362D02*
X315976D01*
X314452Y873854D02*
X315976D01*
X313944Y873346D02*
X315976D01*
X344424Y955642D02*
X348996D01*
X344424Y955134D02*
X348996D01*
X344932Y954626D02*
X348996D01*
X351028D02*
X354076D01*
X342392Y954118D02*
X343408D01*
X345440D02*
X348996D01*
X351028D02*
X355092D01*
X321056Y871822D02*
X324104D01*
X333248D02*
X337820D01*
X328168Y870298D02*
X332740D01*
X316484Y962754D02*
X317500D01*
X278892Y890110D02*
X290576D01*
X279908Y889602D02*
X291084D01*
X280416Y889094D02*
X291084D01*
X281432Y888586D02*
X292100D01*
X282448Y888078D02*
X292608D01*
X283464Y887570D02*
X293116D01*
X288036Y910430D02*
X316484D01*
X376428Y920590D02*
X394716D01*
X376428Y920082D02*
X394716D01*
X376428Y919574D02*
X394716D01*
X376428Y919066D02*
X394716D01*
X283464Y911446D02*
X315976D01*
X293624Y924146D02*
X308864D01*
X376428Y917542D02*
X394716D01*
X376428Y917034D02*
X394716D01*
X293116Y925162D02*
X309880D01*
X293624Y924654D02*
X309372D01*
X376428Y918558D02*
X394716D01*
X376428Y918050D02*
X394716D01*
X284480Y927702D02*
X327660D01*
X279908Y912462D02*
X315468D01*
X281940Y911954D02*
X315976D01*
X284988Y927194D02*
X327660D01*
X284480Y926686D02*
X327660D01*
X284480Y910938D02*
X315976D01*
X293624Y873346D02*
X311404D01*
X292100Y873854D02*
X309880D01*
X376428Y921098D02*
X394716D01*
X284480Y926178D02*
X310388D01*
X293116Y925670D02*
X310388D01*
X237236D02*
X246380D01*
X246888D02*
X262128D01*
X275336D02*
X283972D01*
X237744Y925162D02*
X262128D01*
X275336D02*
X292100D01*
X237744Y924654D02*
X246380D01*
X246888D02*
X262128D01*
X275336D02*
X292100D01*
X237744Y924146D02*
X262128D01*
X275336D02*
X291084D01*
X237744Y923638D02*
X262128D01*
X275336D02*
X291084D01*
X294132D02*
X307848D01*
X238252Y923130D02*
X261620D01*
X275336D02*
X290576D01*
X294132D02*
X307848D01*
X238252Y922622D02*
X261620D01*
X275336D02*
X290068D01*
X238252Y922114D02*
X261620D01*
X265684D02*
X289560D01*
X238252Y921606D02*
X261620D01*
X265684D02*
X288544D01*
X238252Y921098D02*
X261112D01*
X265684D02*
X288544D01*
X238252Y920590D02*
X261112D01*
X265684D02*
X287528D01*
X238252Y920082D02*
X261112D01*
X265176D02*
X287020D01*
X238760Y919574D02*
X261112D01*
X277368D02*
X289052D01*
X293116D02*
X304292D01*
X238760Y919066D02*
X261112D01*
X293624Y944466D02*
X310388D01*
X280924Y959706D02*
X309880D01*
X294132Y944974D02*
X310388D01*
X293624Y943958D02*
X327660D01*
X293116Y942942D02*
X318008D01*
X293624Y943450D02*
X327660D01*
X294132Y945482D02*
X310388D01*
X294640Y945990D02*
X310388D01*
X278892Y912970D02*
X314960D01*
X284480Y960214D02*
X348996D01*
X291084Y961230D02*
X342392D01*
X287020Y960722D02*
X346456D01*
X309880Y884522D02*
X327660D01*
X309880Y884014D02*
X327152D01*
X312420Y882490D02*
X325628D01*
X310896Y883506D02*
X326136D01*
X309372Y885030D02*
X344424D01*
X311404Y855566D02*
X345948D01*
X311404Y882998D02*
X326136D01*
X312928Y855058D02*
X344932D01*
X308864Y897730D02*
X312928D01*
X307340Y898238D02*
X312420D01*
X306324Y898746D02*
X311404D01*
X305308Y899254D02*
X310896D01*
X303784Y899762D02*
X310896D01*
X299212Y902302D02*
X307848D01*
X299212Y902810D02*
X307340D01*
X301244Y903826D02*
X303784D01*
X306324Y905350D02*
X318516D01*
X300228Y903318D02*
X306324D01*
X305308Y905858D02*
X318516D01*
X302260Y931766D02*
X318008D01*
X308864Y897222D02*
X313436D01*
X309372Y896714D02*
X313944D01*
X305816Y895190D02*
X307848D01*
X303784Y906874D02*
X318008D01*
X306832Y896206D02*
X307848D01*
X308864Y894682D02*
X310896D01*
X305308D02*
X307848D01*
X310388Y896206D02*
X314960D01*
X305308Y894174D02*
X307848D01*
X302260Y932274D02*
X318008D01*
X308864Y893666D02*
X311404D01*
X302260Y932782D02*
X318008D01*
X305308Y893666D02*
X307848D01*
X310388Y895698D02*
X315468D01*
X305308Y906366D02*
X318008D01*
X310896Y895190D02*
X315976D01*
X309372D02*
X310388D01*
X306324Y895698D02*
X307848D01*
X308864Y894174D02*
X310896D01*
X311404Y894682D02*
X318008D01*
X304800Y893158D02*
X312420D01*
X298704Y870298D02*
X304292D01*
X298704Y870806D02*
X304292D01*
X295656Y956658D02*
X304800D01*
X297688Y948022D02*
X307848D01*
X296164Y950054D02*
X304800D01*
X307340Y857090D02*
X349504D01*
X296164Y950562D02*
X304800D01*
X298704Y872330D02*
X315468D01*
X297688Y864202D02*
X302768D01*
X297180Y961738D02*
X336296D01*
X297688Y866234D02*
X303784D01*
X304800Y962246D02*
X328676D01*
X295148Y946498D02*
X310388D01*
X296164Y947006D02*
X309372D01*
X312420Y900270D02*
X320040D01*
X311404Y900778D02*
X319532D01*
X311404Y901286D02*
X319532D01*
X310896Y901794D02*
X319532D01*
X310388Y902302D02*
X319532D01*
X309372Y902810D02*
X319532D01*
X334264Y881982D02*
X339852D01*
X298704Y862170D02*
X311404D01*
X298704Y901286D02*
X309372D01*
X297688Y915510D02*
X313436D01*
X298704Y916018D02*
X312928D01*
X334264Y882490D02*
X340868D01*
X297688Y863694D02*
X303276D01*
X298704Y861662D02*
X311404D01*
X312928Y899762D02*
X320040D01*
X297688Y866742D02*
X303784D01*
X296672Y947514D02*
X309372D01*
X312928Y899254D02*
X320040D01*
X335788Y896714D02*
X340868D01*
X334772Y896206D02*
X339852D01*
X334772Y895698D02*
X339852D01*
X311912Y894174D02*
X322580D01*
X312420Y893666D02*
X322072D01*
X296164Y954626D02*
X299212D01*
X296164Y955134D02*
X301244D01*
X296164Y955642D02*
X304800D01*
X296164Y956150D02*
X304800D01*
X297688Y864710D02*
X302768D01*
X298196Y868266D02*
X304292D01*
X312928Y893158D02*
X322072D01*
X297688Y863186D02*
X307340D01*
X302768Y859122D02*
X321056D01*
X310896Y926178D02*
X327152D01*
X298196Y862678D02*
X307340D01*
X303784Y858614D02*
X326136D01*
X310896Y925670D02*
X327152D01*
X297688Y898746D02*
X299720D01*
X304292Y858106D02*
X326136D01*
X311404Y925162D02*
X326136D01*
X297688Y898238D02*
X298704D01*
X305816Y857598D02*
X331216D01*
X311404Y924654D02*
X326136D01*
X297688Y897730D02*
X298704D01*
X307848Y856582D02*
X348996D01*
X311912Y924146D02*
X325628D01*
X294640Y920082D02*
X306324D01*
X296164Y872838D02*
X315468D01*
X312420Y923638D02*
X324612D01*
X296164Y953102D02*
X304292D01*
X295656Y909922D02*
X316992D01*
X310388Y923130D02*
X324612D01*
X296164Y952594D02*
X299720D01*
X297180Y909414D02*
X316992D01*
X334772Y918050D02*
X344424D01*
X296164Y952086D02*
X299212D01*
X307340Y904842D02*
X319024D01*
X312928Y947514D02*
X326136D01*
X296164Y951578D02*
X304800D01*
X307340Y904334D02*
X319024D01*
X312928Y947006D02*
X326136D01*
X296164Y951070D02*
X304800D01*
X307848Y903826D02*
X319024D01*
X311912Y946498D02*
X326644D01*
X294640Y880458D02*
X304292D01*
X296164Y953610D02*
X304292D01*
X311404Y945990D02*
X327152D01*
X297180Y879950D02*
X305816D01*
X298704Y871822D02*
X315468D01*
X310896Y945482D02*
X327152D01*
X297688Y899762D02*
X301244D01*
X296164Y954118D02*
X304292D01*
X310896Y944974D02*
X327660D01*
X297688Y899254D02*
X300736D01*
X310896Y944466D02*
X327660D01*
X297688Y865726D02*
X303276D01*
X334772Y959198D02*
X356108D01*
X297688Y865218D02*
X302768D01*
X308864Y903318D02*
X319024D01*
X298704Y871314D02*
X304292D01*
X297688Y867250D02*
X303784D01*
X298704Y901794D02*
X308864D01*
X297688Y867758D02*
X303784D01*
X298196Y900778D02*
X309880D01*
X298704Y869282D02*
X304292D01*
X298196Y900270D02*
X310388D01*
X298196Y868774D02*
X304292D01*
X302260Y928718D02*
X319024D01*
X298704Y869790D02*
X304292D01*
X302260Y928210D02*
X327660D01*
X294640Y922622D02*
X336296D01*
X295656Y922114D02*
X335280D01*
X297688Y921606D02*
X334264D01*
X298196Y921098D02*
X334772D01*
X296164Y920590D02*
X310896D01*
X334772Y871314D02*
X337820D01*
X335788Y870806D02*
X337820D01*
X335788Y870298D02*
X337820D01*
X334264Y881474D02*
X337820D01*
X334264Y880966D02*
X336296D01*
X334264Y880458D02*
X336296D01*
X334772Y921606D02*
X335280D01*
X334772Y916526D02*
X335788D01*
X334772Y916018D02*
X337312D01*
X306324Y871314D02*
X315976D01*
X306324Y870806D02*
X308356D01*
X310388D02*
X315976D01*
X305816Y870298D02*
X308356D01*
X310388D02*
X315976D01*
X305816Y869790D02*
X308356D01*
X310388D02*
X312928D01*
X305816Y869282D02*
X308356D01*
X310388D02*
X312928D01*
X305816Y868774D02*
X308356D01*
X310388D02*
X312928D01*
X305816Y868266D02*
X308356D01*
X310388D02*
X312928D01*
X305816Y867758D02*
X308356D01*
X309880D02*
X312928D01*
X305816Y867250D02*
X308356D01*
X309880D02*
X312928D01*
X305308Y866742D02*
X307848D01*
X309880D02*
X312928D01*
X305308Y866234D02*
X307848D01*
X309880D02*
X312420D01*
X305308Y865726D02*
X307848D01*
X309372D02*
X312420D01*
X309372Y865218D02*
X312420D01*
X304292Y864710D02*
X307848D01*
X304800Y865218D02*
X307848D01*
X309372Y864710D02*
X312420D01*
X309372Y863694D02*
X311912D01*
X308864Y863186D02*
X311912D01*
X303784Y863694D02*
X307340D01*
X302768Y907382D02*
X318008D01*
X300736Y908398D02*
X317500D01*
X308864Y862678D02*
X311404D01*
X304292Y864202D02*
X307340D01*
X309372D02*
X312420D01*
X301244Y907890D02*
X317500D01*
X299212Y908906D02*
X317500D01*
X307340Y889094D02*
X310388D01*
X299212Y879442D02*
X306832D01*
X300736Y878934D02*
X307340D01*
X304292Y878426D02*
X309372D01*
X308356Y877918D02*
X310896D01*
X305308Y891634D02*
X312420D01*
X304800Y892142D02*
X312420D01*
X305308Y891126D02*
X312420D01*
X306324Y889602D02*
X310896D01*
X301244Y859630D02*
X316484D01*
X305816Y890618D02*
X311912D01*
X305816Y890110D02*
X311404D01*
X300736Y860138D02*
X315976D01*
X300228Y860646D02*
X311912D01*
X312928Y861154D02*
X316484D01*
X299212D02*
X311404D01*
X312928Y860646D02*
X315976D01*
X311404Y952086D02*
X314960D01*
X305308Y917034D02*
X311912D01*
X302260Y939894D02*
X318008D01*
X311912Y951070D02*
X315976D01*
X303784Y957674D02*
X304800D01*
X303784Y933798D02*
X318008D01*
X305816Y950562D02*
X309880D01*
X306324Y951578D02*
X309372D01*
X299212Y916526D02*
X312420D01*
X302260Y931258D02*
X318008D01*
X303784Y952594D02*
X304800D01*
X310388Y934306D02*
X318008D01*
X310388Y934814D02*
X318008D01*
X310896Y952594D02*
X314452D01*
X310388Y938370D02*
X318008D01*
X300736Y917034D02*
X304292D01*
X306324Y917542D02*
X311404D01*
X301752Y942434D02*
X318008D01*
X300228Y949038D02*
X305308D01*
X310388Y936338D02*
X318008D01*
X310388Y936846D02*
X318008D01*
X311912Y951578D02*
X315468D01*
X302260Y929226D02*
X318516D01*
X302260Y941418D02*
X318008D01*
X302260Y941926D02*
X318008D01*
X302260Y917542D02*
X304292D01*
X308864Y918050D02*
X310896D01*
X310388Y935322D02*
X318008D01*
X310388Y935830D02*
X318008D01*
X302260Y938370D02*
X305308D01*
X302260Y929734D02*
X318008D01*
X302260Y930242D02*
X318008D01*
X306324Y952086D02*
X309372D01*
X306324Y951070D02*
X310388D01*
X302260Y930750D02*
X318008D01*
X310388Y937354D02*
X318008D01*
X310388Y937862D02*
X318008D01*
X302260Y939386D02*
X309372D01*
X310388Y938878D02*
X318008D01*
X310388Y939386D02*
X318008D01*
X306324Y952594D02*
X309372D01*
X299212Y948530D02*
X306324D01*
Y953102D02*
X313944D01*
X302260Y940402D02*
X318008D01*
X306324Y957674D02*
X314452D01*
X302260Y938878D02*
X309372D01*
X302260Y940910D02*
X318008D01*
X302260Y952086D02*
X304800D01*
X306324Y955642D02*
X309372D01*
X297688Y897222D02*
X298196D01*
X303276Y933290D02*
X318008D01*
X312928Y955642D02*
X315976D01*
X312420Y955134D02*
X315976D01*
X306324Y954118D02*
X315468D01*
X305816Y957166D02*
X315468D01*
X303276Y955134D02*
X304800D01*
X295656Y916018D02*
X296672D01*
X306324Y954626D02*
X315976D01*
X300228D02*
X304292D01*
X306324Y955134D02*
X309372D01*
X335788Y866234D02*
X343408D01*
X334264Y865218D02*
X342900D01*
X334772Y867250D02*
X343916D01*
X300736Y957166D02*
X304800D01*
X309372Y856074D02*
X347472D01*
X334772Y865726D02*
X342900D01*
X306324Y953610D02*
X315468D01*
X296164Y949546D02*
X297180D01*
X304800Y892650D02*
X312420D01*
X306324Y956150D02*
X315976D01*
X334772Y866742D02*
X343916D01*
X306324Y956658D02*
X315976D01*
D19*
X304876Y850582D02*
X298105D01*
Y840426D01*
X304876D01*
X298105Y845504D02*
X301491D01*
X315033Y848890D02*
X313340Y850582D01*
X309954D01*
X308262Y848890D01*
Y842119D01*
X309954Y840426D01*
X313340D01*
X315033Y842119D01*
X325190Y850582D02*
X318419D01*
Y840426D01*
X325190D01*
X318419Y845504D02*
X321804D01*
X343810Y840426D02*
Y850582D01*
X338732Y845504D01*
X345503D01*
X355660Y850582D02*
X348889D01*
Y845504D01*
X352274Y847197D01*
X353967D01*
X355660Y845504D01*
Y842119D01*
X353967Y840426D01*
X350581D01*
X348889Y842119D01*
X359045Y848890D02*
X360738Y850582D01*
X364124D01*
X365816Y848890D01*
Y847197D01*
X364124Y845504D01*
X362431D01*
X364124D01*
X365816Y843811D01*
Y842119D01*
X364124Y840426D01*
X360738D01*
X359045Y842119D01*
D20*
X408940Y969861D02*
X419097D01*
X414018D01*
Y954626D01*
X431793D02*
X426714D01*
X424175Y957165D01*
Y962244D01*
X426714Y964783D01*
X431793D01*
X434332Y962244D01*
Y959704D01*
X424175D01*
X441949Y964783D02*
X447028D01*
X449567Y962244D01*
Y954626D01*
X441949D01*
X439410Y957165D01*
X441949Y959704D01*
X449567D01*
X454645Y954626D02*
Y964783D01*
X457184D01*
X459724Y962244D01*
Y954626D01*
Y962244D01*
X462263Y964783D01*
X464802Y962244D01*
Y954626D01*
X469880Y967322D02*
X472420Y969861D01*
X477498D01*
X480037Y967322D01*
Y957165D01*
X477498Y954626D01*
X472420D01*
X469880Y957165D01*
Y967322D01*
X492733Y954626D02*
Y969861D01*
X485115Y962244D01*
X495272D01*
X500350D02*
X510507D01*
X518125Y964783D02*
X523203D01*
X525742Y962244D01*
Y954626D01*
X518125D01*
X515586Y957165D01*
X518125Y959704D01*
X525742D01*
X530821Y954626D02*
X535899D01*
X533360D01*
Y969861D01*
X530821D01*
X551134Y954626D02*
X546056D01*
X543517Y957165D01*
Y962244D01*
X546056Y964783D01*
X551134D01*
X553673Y962244D01*
Y959704D01*
X543517D01*
X558751Y969861D02*
X568908Y954626D01*
Y969861D02*
X558751Y954626D01*
X573987Y962244D02*
X584143D01*
X599378Y969861D02*
X589222D01*
Y954626D01*
X599378D01*
X589222Y962244D02*
X594300D01*
X614613Y967322D02*
X612074Y969861D01*
X606996D01*
X604457Y967322D01*
Y964783D01*
X606996Y962244D01*
X612074D01*
X614613Y959704D01*
Y957165D01*
X612074Y954626D01*
X606996D01*
X604457Y957165D01*
X232800Y985813D02*
Y973117D01*
X235340Y970578D01*
X240418D01*
X242957Y973117D01*
Y985813D01*
X258192D02*
X253114Y983274D01*
X248035Y978196D01*
Y973117D01*
X250575Y970578D01*
X255653D01*
X258192Y973117D01*
Y975657D01*
X255653Y978196D01*
X248035D01*
D21*
X35343Y823362D02*
X43807Y814898D01*
X35343D02*
X43807Y823362D01*
X35343Y819130D02*
X43807D01*
X39575Y814898D02*
Y823362D01*
X814070Y477340D02*
X822534Y468876D01*
X814070D02*
X822534Y477340D01*
X814070Y473108D02*
X822534D01*
X818302Y468876D02*
Y477340D01*
X689928Y361448D02*
X698391Y352984D01*
X689928D02*
X698391Y361448D01*
X689928Y357216D02*
X698391D01*
X694159Y352984D02*
Y361448D01*
D22*
X533785Y204014D02*
Y194017D01*
X538783Y199015D02*
X528787D01*
D23*
X668866Y138250D02*
Y128253D01*
X673865Y133252D02*
X663868D01*
M02*
