M48
;Layer_Color=9474304
;FILE_FORMAT=4:3
METRIC,LZ
;TYPE=PLATED
T01F00S00C0.300
T02F00S00C0.500
T03F00S00C0.889
T04F00S00C0.890
T05F00S00C0.900
T06F00S00C1.100
T07F00S00C1.143
T08F00S00C2.550
;TYPE=NON_PLATED
T09F00S00C3.250
%
T01
X0051225Y0052075
Y0053175
Y0054275
Y0055375
Y0056475
X0050125
X0049025
Y0055375
X0050125
Y0054275
X0049025
Y0053175
X0050125
Y0052075
X0049025
T02
X0056Y0036578
X0055Y0041887
X005842Y004826
X005715Y0050165
X0055Y0051875
X0054975Y0054275
X0056Y0056583
X0067945Y0055276
X00635Y0049796
X0072315Y004699
X0072967Y0044
X0078105Y005601
X0044092Y0056854
X0042Y0056565
X0041Y0055375
X0042545Y0054705
X0039Y0054275
Y0057
X0031115Y0056946
X0045Y005195
X0048742Y0045085
X0045Y0039118
X0044Y0034
X0044908Y00585
X0045Y006223
X0044908Y0064135
X0042106Y0065
X0041Y0061
X003048Y0064908
Y006985
X002667Y0067
Y005906
X005842Y0071755
X005715Y0073025
X00635Y0080472
X006604Y0085611
X0071755Y00853
X008255Y0081032
Y0090523
X008001Y0066675
X0071755Y005969
X0071663Y0057654
X005334Y0092075
X0096504Y008408
X0097843Y0080016
X009779Y0071755
X0096504Y0073025
X0091778Y006295
X009485Y0057959
T03
X0050125Y003392
Y003646
Y0039
Y004154
T04
X009Y0079
Y0081032
Y0083064
Y0085096
X0091778Y0086112
Y008408
Y0082048
Y0080016
T05
X0062865Y005268
Y005522
X0070485
Y005268
X00755Y0056
X00805
Y0044
X00755
X0061Y00805
Y00855
T06
X0069Y00855
Y008804
Y009058
T07
X004525Y0089019
X005Y008602
X005Y0092269
X008875Y006275
X008575Y0058
X0092Y0058
T08
X0005Y0005
X0095Y0004858
X0005Y0095
X0095
T09
X0094318Y0076206
Y0088906
M30
