M48
;Layer_Color=9474304
;FILE_FORMAT=4:3
METRIC,LZ
;TYPE=PLATED
T01F00S00C0.300
T02F00S00C0.890
T03F00S00C2.550
;TYPE=NON_PLATED
T04F00S00C3.250
%
T01
X0051118Y0013
X0055462Y0013099
X0065Y0017
X0069Y0042
X00695Y00492
X007264Y005013
X0073537Y0049373
X0075849Y0049274
X0076576Y005013
X0078Y0048
X0077Y0055842
X0072781Y0055814
X0069599Y00562
X0052973Y0056125
X0053904Y0049025
Y0045
X0053Y0044
X0051
X0088891Y0046038
X00889Y0053175
X008596Y0052802
X0039Y0052
X0037656Y00517
X0038919Y0044
X004Y0043
X0041Y0045
X0042Y0042
X0045Y00432
X0047952Y002615
X0044967Y0057424
X0045717Y006
X00455Y0061573
Y0062986
X0045681Y0064
X0047Y00652
X0044Y0065
X0044576Y00625
X00445Y0060889
X0041Y0060989
X004Y0061717
Y0064
X0039018Y0063302
X0038Y00625
X0037Y0062
X0038Y0061
X0039Y0060237
Y007
X004Y0071
X0038Y0069
X0034Y0071
X0033Y0073
X0043
X0023
X0024Y007
X0014Y0069
X0013Y0073
X00529
X00529Y00652
X0054328Y0063302
X005513Y0062599
X0055535Y0061573
X0060348Y00645
X0062Y0063099
X0071975Y0062325
X008203Y0061563
X0083002Y0073
X0073
X0063
T02
X0046936Y0008
X0048968
X0049984Y0009778
X0047952
X004592
X0052016
X0053032Y0008
X0051
T03
X0005Y0005
X0095Y0004858
X0005Y0095
X0095
T04
X0043126Y000546
X0055826
M30
