G04*
G04 #@! TF.GenerationSoftware,Altium Limited,Altium Designer,23.7.1 (13)*
G04*
G04 Layer_Physical_Order=2*
G04 Layer_Color=16711680*
%FSLAX44Y44*%
%MOMM*%
G71*
G04*
G04 #@! TF.SameCoordinates,778E7F24-0D39-4E9A-B56D-B03573EA8545*
G04*
G04*
G04 #@! TF.FilePolarity,Positive*
G04*
G01*
G75*
%ADD36C,3.2500*%
%ADD37R,1.3900X1.3900*%
%ADD38C,1.3900*%
%ADD41C,0.3048*%
%ADD44C,0.6000*%
%ADD45C,4.3180*%
G36*
X50000Y996666D02*
X950000D01*
X950140Y996694D01*
X956096Y996303D01*
X962088Y995112D01*
X967872Y993148D01*
X973352Y990446D01*
X978431Y987052D01*
X983024Y983024D01*
X987052Y978431D01*
X990446Y973352D01*
X993148Y967872D01*
X995112Y962088D01*
X996303Y956096D01*
X996694Y950140D01*
X996666Y950000D01*
X996666Y50000D01*
X996694Y49860D01*
X996303Y43904D01*
X995112Y37912D01*
X993148Y32127D01*
X990446Y26648D01*
X987052Y21569D01*
X983024Y16976D01*
X978431Y12948D01*
X973352Y9554D01*
X967872Y6852D01*
X962088Y4888D01*
X956096Y3697D01*
X950140Y3306D01*
X950000Y3334D01*
X50000D01*
X49860Y3306D01*
X43904Y3697D01*
X37912Y4888D01*
X32128Y6852D01*
X26648Y9554D01*
X21569Y12948D01*
X16976Y16976D01*
X12948Y21569D01*
X9554Y26648D01*
X6852Y32127D01*
X4888Y37912D01*
X3697Y43904D01*
X3380Y48739D01*
X3334Y50000D01*
X3334Y50000D01*
X3334Y51252D01*
Y950000D01*
X3306Y950140D01*
X3697Y956096D01*
X4888Y962088D01*
X6852Y967872D01*
X9554Y973352D01*
X12948Y978431D01*
X16976Y983024D01*
X21569Y987052D01*
X26648Y990446D01*
X32127Y993148D01*
X37912Y995112D01*
X43904Y996303D01*
X49860Y996694D01*
X50000Y996666D01*
D02*
G37*
%LPC*%
G36*
X952323Y973590D02*
X947677D01*
X943119Y972683D01*
X938826Y970905D01*
X934962Y968324D01*
X931676Y965038D01*
X929095Y961174D01*
X927317Y956881D01*
X926410Y952323D01*
Y947677D01*
X927317Y943119D01*
X929095Y938826D01*
X931676Y934962D01*
X934962Y931676D01*
X938826Y929095D01*
X943119Y927317D01*
X947677Y926410D01*
X952323D01*
X956881Y927317D01*
X961174Y929095D01*
X965038Y931676D01*
X968324Y934962D01*
X970905Y938826D01*
X972683Y943119D01*
X973590Y947677D01*
Y952323D01*
X972683Y956881D01*
X970905Y961174D01*
X968324Y965038D01*
X965038Y968324D01*
X961174Y970905D01*
X956881Y972683D01*
X952323Y973590D01*
D02*
G37*
G36*
X52323D02*
X47677D01*
X43119Y972683D01*
X38826Y970905D01*
X34962Y968324D01*
X31676Y965038D01*
X29095Y961174D01*
X27317Y956881D01*
X26410Y952323D01*
Y947677D01*
X27317Y943119D01*
X29095Y938826D01*
X31676Y934962D01*
X34962Y931676D01*
X38826Y929095D01*
X43119Y927317D01*
X47677Y926410D01*
X52323D01*
X56881Y927317D01*
X61174Y929095D01*
X65038Y931676D01*
X68324Y934962D01*
X70905Y938826D01*
X72683Y943119D01*
X73590Y947677D01*
Y952323D01*
X72683Y956881D01*
X70905Y961174D01*
X68324Y965038D01*
X65038Y968324D01*
X61174Y970905D01*
X56881Y972683D01*
X52323Y973590D01*
D02*
G37*
G36*
X400994Y715000D02*
X399005D01*
X397168Y714239D01*
X396522Y713593D01*
X343478D01*
X342832Y714239D01*
X340995Y715000D01*
X339005D01*
X337168Y714239D01*
X335761Y712832D01*
X335000Y710995D01*
Y709005D01*
X335761Y707168D01*
X337168Y705761D01*
X339005Y705000D01*
X340995D01*
X342832Y705761D01*
X343478Y706407D01*
X396522D01*
X397168Y705761D01*
X399005Y705000D01*
X400994D01*
X402832Y705761D01*
X404239Y707168D01*
X405000Y709005D01*
Y710995D01*
X404239Y712832D01*
X402832Y714239D01*
X400994Y715000D01*
D02*
G37*
G36*
X390995Y705000D02*
X389005D01*
X387168Y704239D01*
X386522Y703593D01*
X243478D01*
X242832Y704239D01*
X240995Y705000D01*
X239005D01*
X237168Y704239D01*
X235761Y702832D01*
X235000Y700995D01*
Y699005D01*
X235761Y697168D01*
X237168Y695761D01*
X239005Y695000D01*
X240995D01*
X242832Y695761D01*
X243478Y696407D01*
X386522D01*
X387168Y695761D01*
X389005Y695000D01*
X390995D01*
X392832Y695761D01*
X394239Y697168D01*
X395000Y699005D01*
Y700995D01*
X394239Y702832D01*
X392832Y704239D01*
X390995Y705000D01*
D02*
G37*
G36*
X380995Y695000D02*
X379005D01*
X377168Y694239D01*
X376522Y693593D01*
X143478D01*
X142832Y694239D01*
X140995Y695000D01*
X139005D01*
X137168Y694239D01*
X135761Y692832D01*
X135000Y690995D01*
Y689005D01*
X135761Y687168D01*
X137168Y685761D01*
X139005Y685000D01*
X140995D01*
X142832Y685761D01*
X143478Y686407D01*
X376522D01*
X377168Y685761D01*
X379005Y685000D01*
X380995D01*
X382832Y685761D01*
X384239Y687168D01*
X385000Y689005D01*
Y690995D01*
X384239Y692832D01*
X382832Y694239D01*
X380995Y695000D01*
D02*
G37*
G36*
X470995Y657000D02*
X469005D01*
X467168Y656239D01*
X465761Y654832D01*
X465248Y653593D01*
X443478D01*
X442832Y654239D01*
X440995Y655000D01*
X439005D01*
X437168Y654239D01*
X435761Y652832D01*
X435000Y650995D01*
Y649005D01*
X435761Y647168D01*
X437168Y645761D01*
X439005Y645000D01*
X440995D01*
X442832Y645761D01*
X443478Y646407D01*
X467201D01*
X468576Y646681D01*
X469054Y647000D01*
X470995D01*
X472832Y647761D01*
X474239Y649168D01*
X475000Y651005D01*
Y652995D01*
X474239Y654832D01*
X472832Y656239D01*
X470995Y657000D01*
D02*
G37*
G36*
X457800Y645000D02*
X455811D01*
X453973Y644239D01*
X453327Y643593D01*
X403478D01*
X402832Y644239D01*
X400994Y645000D01*
X399005D01*
X397168Y644239D01*
X395761Y642832D01*
X395000Y640995D01*
Y639005D01*
X395460Y637896D01*
X394817Y636870D01*
X393497Y636776D01*
X393017Y637256D01*
X391179Y638017D01*
X389190D01*
X387352Y637256D01*
X385946Y635849D01*
X385185Y634012D01*
Y632023D01*
X385946Y630185D01*
X386268Y629863D01*
X385742Y628593D01*
X383478D01*
X382832Y629239D01*
X380995Y630000D01*
X379005D01*
X377168Y629239D01*
X375761Y627832D01*
X375000Y625995D01*
Y624005D01*
X375098Y623769D01*
X374021Y623050D01*
X372832Y624239D01*
X370995Y625000D01*
X369005D01*
X367168Y624239D01*
X365761Y622832D01*
X365000Y620995D01*
Y619005D01*
X365761Y617168D01*
X367168Y615761D01*
X369005Y615000D01*
X369919D01*
X370709Y614209D01*
X371875Y613430D01*
X373250Y613157D01*
X374521D01*
X375370Y611887D01*
X375000Y610995D01*
Y609005D01*
X375761Y607168D01*
X377168Y605761D01*
X379005Y605000D01*
X380995D01*
X382832Y605761D01*
X383370Y606299D01*
X385200D01*
X385690Y605029D01*
X385000Y603363D01*
Y601374D01*
X385761Y599536D01*
X387168Y598130D01*
X389005Y597369D01*
X390995D01*
X392832Y598130D01*
X393478Y598776D01*
X452263D01*
X452929Y597168D01*
X454335Y595761D01*
X456173Y595000D01*
X458162D01*
X460000Y595761D01*
X461407Y597168D01*
X462168Y599005D01*
Y600995D01*
X461407Y602832D01*
X460000Y604239D01*
X458162Y605000D01*
X457204D01*
X456174Y605688D01*
X454799Y605962D01*
X450573D01*
X449724Y607232D01*
X450000Y607898D01*
Y609887D01*
X449594Y610868D01*
X450325Y611963D01*
X451619Y612041D01*
X452168Y611493D01*
X454005Y610732D01*
X455995D01*
X457832Y611493D01*
X459239Y612899D01*
X460000Y614737D01*
Y616726D01*
X459239Y618564D01*
X457832Y619970D01*
X455995Y620731D01*
X454005D01*
X452168Y619970D01*
X451522Y619324D01*
X449347D01*
X449096Y619605D01*
X448593Y620761D01*
X450000Y622168D01*
X450761Y624005D01*
Y625230D01*
X452031Y625756D01*
X452168Y625620D01*
X454005Y624859D01*
X455995D01*
X457832Y625620D01*
X459239Y627026D01*
X460000Y628864D01*
Y630853D01*
X459239Y632691D01*
X458103Y633827D01*
X458234Y634963D01*
X458358Y635231D01*
X459638Y635761D01*
X461044Y637168D01*
X461805Y639005D01*
Y640995D01*
X461044Y642832D01*
X459638Y644239D01*
X457800Y645000D01*
D02*
G37*
G36*
X544270Y638017D02*
X542281D01*
X540443Y637256D01*
X539037Y635849D01*
X538276Y634012D01*
Y632023D01*
X539037Y630185D01*
X540443Y628778D01*
X542281Y628017D01*
X544270D01*
X545577Y628558D01*
X546549Y627586D01*
X546301Y626989D01*
Y625000D01*
X547062Y623162D01*
X548469Y621756D01*
X550307Y620995D01*
X551879D01*
X551954Y620874D01*
X552269Y619725D01*
X551108Y618564D01*
X550347Y616726D01*
Y614737D01*
X551108Y612899D01*
X552514Y611493D01*
X554352Y610732D01*
X556341D01*
X558179Y611493D01*
X558773Y612087D01*
X816767D01*
X817464Y611389D01*
X819302Y610628D01*
X821291D01*
X823129Y611389D01*
X824535Y612796D01*
X825296Y614633D01*
Y616623D01*
X824535Y618460D01*
X823129Y619867D01*
X821291Y620628D01*
X819302D01*
X817464Y619867D01*
X816870Y619273D01*
X724503D01*
X724041Y620543D01*
X724750Y622255D01*
Y624245D01*
X723989Y626082D01*
X722582Y627489D01*
X720745Y628250D01*
X718755D01*
X716918Y627489D01*
X716296Y626867D01*
X624603D01*
X624117Y628040D01*
X624239Y628162D01*
X625000Y630000D01*
Y631989D01*
X624239Y633827D01*
X622832Y635233D01*
X620995Y635995D01*
X619066D01*
X618554Y636337D01*
X617179Y636610D01*
X546754D01*
X546108Y637256D01*
X544270Y638017D01*
D02*
G37*
G36*
X696989Y567000D02*
X695000D01*
X693162Y566239D01*
X691767Y564843D01*
X533204D01*
X532558Y565489D01*
X530721Y566250D01*
X528731D01*
X526894Y565489D01*
X525487Y564082D01*
X524726Y562244D01*
Y560255D01*
X525487Y558418D01*
X526894Y557011D01*
X528731Y556250D01*
X530721D01*
X532558Y557011D01*
X533204Y557657D01*
X693414D01*
X695000Y557000D01*
X696989D01*
X698827Y557761D01*
X700233Y559168D01*
X700994Y561006D01*
Y562995D01*
X700233Y564832D01*
X698827Y566239D01*
X696989Y567000D01*
D02*
G37*
G36*
X770995Y563418D02*
X769005D01*
X767168Y562657D01*
X766522Y562011D01*
X731014D01*
X730642Y562383D01*
X728804Y563144D01*
X726815D01*
X724978Y562383D01*
X723571Y560976D01*
X722810Y559138D01*
Y557149D01*
X723571Y555311D01*
X724978Y553905D01*
X726815Y553144D01*
X728804D01*
X730642Y553905D01*
X731562Y554825D01*
X766522D01*
X767168Y554179D01*
X769005Y553418D01*
X770995D01*
X772832Y554179D01*
X774239Y555585D01*
X775000Y557423D01*
Y559412D01*
X774239Y561250D01*
X772832Y562657D01*
X770995Y563418D01*
D02*
G37*
G36*
X390995Y525000D02*
X389005D01*
X387168Y524239D01*
X385761Y522832D01*
X385000Y520995D01*
Y520880D01*
X384713Y520593D01*
X380040D01*
X379394Y521239D01*
X377557Y522000D01*
X375568D01*
X373730Y521239D01*
X372323Y519832D01*
X371562Y517995D01*
Y516006D01*
X372323Y514168D01*
X373730Y512761D01*
X375568Y512000D01*
X377557D01*
X379394Y512761D01*
X380040Y513407D01*
X386201D01*
X387576Y513680D01*
X388742Y514459D01*
X389282Y515000D01*
X390995D01*
X392832Y515761D01*
X394239Y517168D01*
X395000Y519005D01*
Y520995D01*
X394239Y522832D01*
X392832Y524239D01*
X390995Y525000D01*
D02*
G37*
G36*
X766756Y506298D02*
X764767D01*
X762929Y505537D01*
X762283Y504892D01*
X729881D01*
X729236Y505537D01*
X727398Y506298D01*
X725409D01*
X723571Y505537D01*
X722165Y504131D01*
X721403Y502293D01*
Y500304D01*
X722165Y498466D01*
X723571Y497060D01*
X725409Y496298D01*
X727398D01*
X729236Y497060D01*
X729428Y497252D01*
X730124Y497139D01*
X730817Y495801D01*
X730373Y494728D01*
Y492739D01*
X731134Y490901D01*
X732541Y489494D01*
X734378Y488733D01*
X736367D01*
X738205Y489494D01*
X738851Y490140D01*
X754158D01*
X754255Y489906D01*
X755662Y488500D01*
X757500Y487739D01*
X759489D01*
X761326Y488500D01*
X762733Y489906D01*
X763494Y491744D01*
Y493733D01*
X762733Y495571D01*
X762221Y496083D01*
X762929Y497060D01*
X764767Y496298D01*
X766756D01*
X768594Y497060D01*
X770000Y498466D01*
X770761Y500304D01*
Y502293D01*
X770000Y504131D01*
X768594Y505537D01*
X766756Y506298D01*
D02*
G37*
G36*
X695994Y497000D02*
X694005D01*
X692168Y496239D01*
X690761Y494832D01*
X690351Y493843D01*
X542515D01*
X541869Y494489D01*
X540031Y495250D01*
X538042D01*
X536205Y494489D01*
X534798Y493082D01*
X534037Y491245D01*
Y489255D01*
X534798Y487418D01*
X536205Y486011D01*
X538042Y485250D01*
X540031D01*
X541869Y486011D01*
X542515Y486657D01*
X693250D01*
X694625Y486930D01*
X694729Y487000D01*
X695994D01*
X697832Y487761D01*
X699239Y489168D01*
X700000Y491005D01*
Y492995D01*
X699239Y494832D01*
X697832Y496239D01*
X695994Y497000D01*
D02*
G37*
G36*
X540031Y455000D02*
X538042D01*
X536205Y454239D01*
X535559Y453593D01*
X413478D01*
X412832Y454239D01*
X410995Y455000D01*
X409005D01*
X407168Y454239D01*
X405761Y452832D01*
X405000Y450995D01*
Y449005D01*
X405761Y447168D01*
X407168Y445761D01*
X409005Y445000D01*
X410995D01*
X412832Y445761D01*
X413478Y446407D01*
X535559D01*
X536205Y445761D01*
X538042Y445000D01*
X540031D01*
X541869Y445761D01*
X543276Y447168D01*
X544037Y449005D01*
Y450995D01*
X543276Y452832D01*
X541869Y454239D01*
X540031Y455000D01*
D02*
G37*
G36*
X530995Y445000D02*
X529005D01*
X527168Y444239D01*
X526522Y443593D01*
X513478D01*
X512832Y444239D01*
X510995Y445000D01*
X509005D01*
X507168Y444239D01*
X506522Y443593D01*
X392668D01*
X392022Y444239D01*
X390185Y445000D01*
X388195D01*
X386358Y444239D01*
X384951Y442832D01*
X384190Y440995D01*
Y439005D01*
X384951Y437168D01*
X386358Y435761D01*
X388195Y435000D01*
X390185D01*
X392022Y435761D01*
X392668Y436407D01*
X398586D01*
X399193Y435137D01*
X399082Y435000D01*
X399005D01*
X397168Y434239D01*
X395761Y432832D01*
X395000Y430995D01*
Y429005D01*
X395761Y427168D01*
X397168Y425761D01*
X399005Y425000D01*
X400994D01*
X402832Y425761D01*
X404239Y427168D01*
X404752Y428407D01*
X446522D01*
X447168Y427761D01*
X449005Y427000D01*
X450995D01*
X452832Y427761D01*
X454239Y429168D01*
X455000Y431006D01*
Y432995D01*
X454239Y434832D01*
X453934Y435137D01*
X454460Y436407D01*
X506522D01*
X507168Y435761D01*
X509005Y435000D01*
X510995D01*
X512832Y435761D01*
X513478Y436407D01*
X526522D01*
X527168Y435761D01*
X529005Y435000D01*
X530995D01*
X532832Y435761D01*
X534239Y437168D01*
X535000Y439005D01*
Y440995D01*
X534239Y442832D01*
X532832Y444239D01*
X530995Y445000D01*
D02*
G37*
G36*
X690995Y425000D02*
X689005D01*
X687168Y424239D01*
X686522Y423593D01*
X423478D01*
X422832Y424239D01*
X420995Y425000D01*
X419005D01*
X417168Y424239D01*
X415761Y422832D01*
X415000Y420995D01*
Y419005D01*
X415761Y417168D01*
X417168Y415761D01*
X419005Y415000D01*
X420995D01*
X422832Y415761D01*
X423478Y416407D01*
X686522D01*
X687168Y415761D01*
X689005Y415000D01*
X690995D01*
X692832Y415761D01*
X694239Y417168D01*
X695000Y419005D01*
Y420995D01*
X694239Y422832D01*
X692832Y424239D01*
X690995Y425000D01*
D02*
G37*
G36*
X555610Y135995D02*
X553621D01*
X551783Y135233D01*
X550377Y133827D01*
X550280Y133593D01*
X514656D01*
X514011Y134239D01*
X512173Y135000D01*
X510184D01*
X508346Y134239D01*
X506940Y132832D01*
X506178Y130995D01*
Y129005D01*
X506940Y127168D01*
X508346Y125761D01*
X510184Y125000D01*
X512173D01*
X514011Y125761D01*
X514656Y126407D01*
X552625D01*
X553621Y125995D01*
X555610D01*
X557448Y126756D01*
X558854Y128162D01*
X559615Y130000D01*
Y131989D01*
X558854Y133827D01*
X557448Y135233D01*
X555610Y135995D01*
D02*
G37*
G36*
X501840Y107545D02*
Y99780D01*
X509605D01*
X509112Y101621D01*
X507802Y103889D01*
X505949Y105742D01*
X503681Y107052D01*
X501840Y107545D01*
D02*
G37*
G36*
X497840D02*
X495999Y107052D01*
X493731Y105742D01*
X491878Y103889D01*
X490568Y101621D01*
X490075Y99780D01*
X497840D01*
Y107545D01*
D02*
G37*
G36*
Y95780D02*
X490075D01*
X490568Y93939D01*
X491878Y91671D01*
X492757Y90791D01*
X492100Y89653D01*
X491680Y89765D01*
Y82000D01*
X499445D01*
X498952Y83841D01*
X497642Y86109D01*
X496763Y86989D01*
X497420Y88127D01*
X497840Y88015D01*
Y95780D01*
D02*
G37*
G36*
X480698Y106730D02*
X478342D01*
X476065Y106120D01*
X474025Y104942D01*
X472358Y103275D01*
X471180Y101235D01*
X470570Y98958D01*
Y96602D01*
X471180Y94325D01*
X472358Y92285D01*
X474025Y90618D01*
X476065Y89440D01*
X478342Y88830D01*
X480698D01*
X482975Y89440D01*
X485015Y90618D01*
X486682Y92285D01*
X487860Y94325D01*
X488470Y96602D01*
Y98958D01*
X487860Y101235D01*
X486682Y103275D01*
X485015Y104942D01*
X482975Y106120D01*
X480698Y106730D01*
D02*
G37*
G36*
X460378D02*
X458022D01*
X455745Y106120D01*
X453705Y104942D01*
X452038Y103275D01*
X450860Y101235D01*
X450250Y98958D01*
Y96602D01*
X450860Y94325D01*
X452038Y92285D01*
X453705Y90618D01*
X455745Y89440D01*
X458022Y88830D01*
X460378D01*
X462655Y89440D01*
X464695Y90618D01*
X466362Y92285D01*
X467540Y94325D01*
X468150Y96602D01*
Y98958D01*
X467540Y101235D01*
X466362Y103275D01*
X464695Y104942D01*
X462655Y106120D01*
X460378Y106730D01*
D02*
G37*
G36*
X509605Y95780D02*
X501840D01*
Y88015D01*
X503681Y88508D01*
X505949Y89818D01*
X507802Y91671D01*
X509112Y93939D01*
X509605Y95780D01*
D02*
G37*
G36*
X487680Y89765D02*
X485839Y89272D01*
X483571Y87962D01*
X481718Y86109D01*
X480408Y83841D01*
X479915Y82000D01*
X487680D01*
Y89765D01*
D02*
G37*
G36*
X521338Y106730D02*
X518982D01*
X516705Y106120D01*
X514665Y104942D01*
X512998Y103275D01*
X511820Y101235D01*
X511210Y98958D01*
Y96602D01*
X511820Y94325D01*
X512998Y92285D01*
X514665Y90618D01*
X516705Y89440D01*
X518982Y88830D01*
X520566D01*
X521338Y88830D01*
X521370Y88806D01*
X521370Y87821D01*
Y71050D01*
X539270D01*
Y88950D01*
X525306D01*
X524966Y90220D01*
X525655Y90618D01*
X527322Y92285D01*
X528500Y94325D01*
X529110Y96602D01*
Y98958D01*
X528500Y101235D01*
X527322Y103275D01*
X525655Y104942D01*
X523615Y106120D01*
X521338Y106730D01*
D02*
G37*
G36*
X511178Y88950D02*
X508822D01*
X506545Y88340D01*
X504505Y87162D01*
X502838Y85495D01*
X501660Y83455D01*
X501050Y81178D01*
Y78822D01*
X501660Y76545D01*
X502838Y74505D01*
X504505Y72838D01*
X506545Y71660D01*
X508822Y71050D01*
X511178D01*
X513455Y71660D01*
X515495Y72838D01*
X517162Y74505D01*
X518340Y76545D01*
X518950Y78822D01*
Y81178D01*
X518340Y83455D01*
X517162Y85495D01*
X515495Y87162D01*
X513455Y88340D01*
X511178Y88950D01*
D02*
G37*
G36*
X470538D02*
X468182D01*
X465905Y88340D01*
X463865Y87162D01*
X462198Y85495D01*
X461020Y83455D01*
X460410Y81178D01*
Y78822D01*
X461020Y76545D01*
X462198Y74505D01*
X463865Y72838D01*
X465905Y71660D01*
X468182Y71050D01*
X470538D01*
X472815Y71660D01*
X474855Y72838D01*
X476522Y74505D01*
X477700Y76545D01*
X478310Y78822D01*
Y81178D01*
X477700Y83455D01*
X476522Y85495D01*
X474855Y87162D01*
X472815Y88340D01*
X470538Y88950D01*
D02*
G37*
G36*
X499445Y78000D02*
X491680D01*
Y70235D01*
X493521Y70728D01*
X495789Y72038D01*
X497642Y73891D01*
X498952Y76159D01*
X499445Y78000D01*
D02*
G37*
G36*
X487680D02*
X479915D01*
X480408Y76159D01*
X481718Y73891D01*
X483571Y72038D01*
X485839Y70728D01*
X487680Y70235D01*
Y78000D01*
D02*
G37*
G36*
X560057Y72850D02*
X556463D01*
X552937Y72149D01*
X549615Y70773D01*
X546626Y68776D01*
X544084Y66234D01*
X542087Y63245D01*
X540711Y59923D01*
X540010Y56398D01*
Y52803D01*
X540711Y49277D01*
X542087Y45955D01*
X544084Y42966D01*
X546626Y40424D01*
X549615Y38427D01*
X552937Y37051D01*
X556463Y36350D01*
X560057D01*
X563583Y37051D01*
X566905Y38427D01*
X569894Y40424D01*
X572436Y42966D01*
X574433Y45955D01*
X575809Y49277D01*
X576510Y52803D01*
Y56398D01*
X575809Y59923D01*
X574433Y63245D01*
X572436Y66234D01*
X569894Y68776D01*
X566905Y70773D01*
X563583Y72149D01*
X560057Y72850D01*
D02*
G37*
G36*
X433058D02*
X429463D01*
X425937Y72149D01*
X422615Y70773D01*
X419626Y68776D01*
X417084Y66234D01*
X415087Y63245D01*
X413711Y59923D01*
X413010Y56398D01*
Y52803D01*
X413711Y49277D01*
X415087Y45955D01*
X417084Y42966D01*
X419626Y40424D01*
X422615Y38427D01*
X425937Y37051D01*
X429463Y36350D01*
X433058D01*
X436583Y37051D01*
X439905Y38427D01*
X442894Y40424D01*
X445436Y42966D01*
X447433Y45955D01*
X448809Y49277D01*
X449510Y52803D01*
Y56398D01*
X448809Y59923D01*
X447433Y63245D01*
X445436Y66234D01*
X442894Y68776D01*
X439905Y70773D01*
X436583Y72149D01*
X433058Y72850D01*
D02*
G37*
G36*
X52323Y73590D02*
X47677D01*
X43119Y72683D01*
X38826Y70905D01*
X34962Y68324D01*
X31676Y65038D01*
X29095Y61174D01*
X27317Y56881D01*
X26410Y52323D01*
Y47677D01*
X27317Y43119D01*
X29095Y38826D01*
X31676Y34962D01*
X34962Y31676D01*
X38826Y29095D01*
X43119Y27317D01*
X47677Y26410D01*
X52323D01*
X56881Y27317D01*
X61174Y29095D01*
X65038Y31676D01*
X68324Y34962D01*
X70905Y38826D01*
X72683Y43119D01*
X73590Y47677D01*
Y52323D01*
X72683Y56881D01*
X70905Y61174D01*
X68324Y65038D01*
X65038Y68324D01*
X61174Y70905D01*
X56881Y72683D01*
X52323Y73590D01*
D02*
G37*
G36*
X952323Y72165D02*
X947677D01*
X943119Y71259D01*
X938826Y69480D01*
X934962Y66899D01*
X931676Y63613D01*
X929095Y59749D01*
X927317Y55456D01*
X926410Y50898D01*
Y46252D01*
X927317Y41694D01*
X929095Y37401D01*
X931676Y33537D01*
X934962Y30252D01*
X938826Y27670D01*
X943119Y25892D01*
X947677Y24985D01*
X952323D01*
X956881Y25892D01*
X961174Y27670D01*
X965038Y30252D01*
X968324Y33537D01*
X970905Y37401D01*
X972683Y41694D01*
X973590Y46252D01*
Y50898D01*
X972683Y55456D01*
X970905Y59749D01*
X968324Y63613D01*
X965038Y66899D01*
X961174Y69480D01*
X956881Y71259D01*
X952323Y72165D01*
D02*
G37*
%LPD*%
D36*
X431260Y54600D02*
D03*
X558260D02*
D03*
D37*
X530320Y80000D02*
D03*
D38*
X520160Y97780D02*
D03*
X510000Y80000D02*
D03*
X499840Y97780D02*
D03*
X489680Y80000D02*
D03*
X479520Y97780D02*
D03*
X469360Y80000D02*
D03*
X459200Y97780D02*
D03*
D41*
X511178Y130000D02*
X552822D01*
X553817Y130995D01*
X554615D01*
X376562Y517000D02*
X386201D01*
X389201Y520000D01*
X390000D01*
X728084Y558418D02*
X770000D01*
X727810Y558144D02*
X728084Y558418D01*
X726403Y501298D02*
X765761D01*
X735373Y493733D02*
X756701D01*
X757695Y492739D01*
X758494D01*
X695430Y561435D02*
X695994Y562000D01*
X693935Y561435D02*
X695430D01*
X693750Y561250D02*
X693935Y561435D01*
X529726Y561250D02*
X693750D01*
X510000Y440000D02*
X530000D01*
X539037Y490250D02*
X693250D01*
X695000Y492000D01*
X381364Y609892D02*
X443202D01*
X410000Y450000D02*
X539037D01*
X389190Y440000D02*
X510000D01*
X551301Y625995D02*
X551866Y625430D01*
X560397Y623274D02*
X719726D01*
X551866Y625430D02*
X558242D01*
X560397Y623274D01*
X555347Y615732D02*
X555398Y615680D01*
X820245D02*
X820296Y615628D01*
X555398Y615680D02*
X820245D01*
X719726Y623274D02*
X719750Y623250D01*
X543276Y633017D02*
X617179D01*
X619201Y630995D02*
X620000D01*
X617179Y633017D02*
X619201Y630995D01*
X440000Y650000D02*
X467201D01*
X469201Y652000D01*
X470000D01*
X451674Y630424D02*
X454435D01*
X455000Y629859D01*
X449080Y633017D02*
X451674Y630424D01*
X390185Y633017D02*
X449080D01*
X400000Y640000D02*
X456805D01*
X446922Y615732D02*
X455000D01*
X373250Y616750D02*
X445904D01*
X446922Y615732D01*
X443202Y609892D02*
X444201Y608893D01*
X381256Y610000D02*
X381364Y609892D01*
X380000Y610000D02*
X381256D01*
X444201Y608893D02*
X445000D01*
X380000Y625000D02*
X445761D01*
X402000Y432000D02*
X450000D01*
X400000Y430000D02*
X402000Y432000D01*
X420000Y420000D02*
X690000D01*
X340000Y710000D02*
X400000D01*
X240000Y700000D02*
X390000D01*
X140000Y690000D02*
X380000D01*
X390000Y602369D02*
X454799D01*
X457168Y600000D01*
X370000Y620000D02*
X373250Y616750D01*
D44*
X889000Y531746D02*
D03*
X888910Y460379D02*
D03*
X603482Y645000D02*
D03*
X859600Y528019D02*
D03*
X554615Y130995D02*
D03*
X511178Y130000D02*
D03*
X479520Y261500D02*
D03*
X376562Y517000D02*
D03*
X780000Y480000D02*
D03*
X727810Y558144D02*
D03*
X765761Y501298D02*
D03*
X758494Y492739D02*
D03*
X735373Y493733D02*
D03*
X726403Y501298D02*
D03*
X770000Y558418D02*
D03*
X449668Y574239D02*
D03*
X695994Y562000D02*
D03*
X529726Y561250D02*
D03*
X530000Y440000D02*
D03*
X695000Y492000D02*
D03*
X539037Y490250D02*
D03*
X650000Y170000D02*
D03*
X410000Y609887D02*
D03*
Y450000D02*
D03*
X539037D02*
D03*
X389190Y440000D02*
D03*
X510000D02*
D03*
X551301Y625995D02*
D03*
X555347Y615732D02*
D03*
X543276Y633017D02*
D03*
X529000Y652000D02*
D03*
X470000D02*
D03*
X455000Y629859D02*
D03*
X456805Y640000D02*
D03*
X455000Y615732D02*
D03*
X445000Y608893D02*
D03*
X445761Y625000D02*
D03*
X400000Y617168D02*
D03*
Y430000D02*
D03*
X450000Y432000D02*
D03*
X690000Y420000D02*
D03*
X420000D02*
D03*
X820296Y615628D02*
D03*
X719750Y623250D02*
D03*
X620000Y630995D02*
D03*
X440000Y650000D02*
D03*
X400000Y640000D02*
D03*
Y710000D02*
D03*
X340000D02*
D03*
X390185Y633017D02*
D03*
X390000Y700000D02*
D03*
X240000D02*
D03*
X380000Y625000D02*
D03*
Y690000D02*
D03*
X140000D02*
D03*
X457168Y600000D02*
D03*
X390000Y602369D02*
D03*
Y520000D02*
D03*
X370000Y620000D02*
D03*
X380000Y610000D02*
D03*
X830020Y730000D02*
D03*
X730000D02*
D03*
X630000D02*
D03*
X529000Y730000D02*
D03*
X430000D02*
D03*
X330000D02*
D03*
X230000D02*
D03*
X130000D02*
D03*
D45*
X950000Y48575D02*
D03*
X50000Y50000D02*
D03*
X950000Y950000D02*
D03*
X50000D02*
D03*
M02*
