G04*
G04 #@! TF.GenerationSoftware,Altium Limited,Altium Designer,23.7.1 (13)*
G04*
G04 Layer_Color=8388736*
%FSLAX44Y44*%
%MOMM*%
G71*
G04*
G04 #@! TF.SameCoordinates,778E7F24-0D39-4E9A-B56D-B03573EA8545*
G04*
G04*
G04 #@! TF.FilePolarity,Negative*
G04*
G01*
G75*
G04:AMPARAMS|DCode=16|XSize=1.3554mm|YSize=0.3408mm|CornerRadius=0.1704mm|HoleSize=0mm|Usage=FLASHONLY|Rotation=180.000|XOffset=0mm|YOffset=0mm|HoleType=Round|Shape=RoundedRectangle|*
%AMROUNDEDRECTD16*
21,1,1.3554,0.0000,0,0,180.0*
21,1,1.0147,0.3408,0,0,180.0*
1,1,0.3408,-0.5073,0.0000*
1,1,0.3408,0.5073,0.0000*
1,1,0.3408,0.5073,0.0000*
1,1,0.3408,-0.5073,0.0000*
%
%ADD16ROUNDEDRECTD16*%
%ADD17R,1.3554X0.3408*%
%ADD22R,0.9500X1.3500*%
%ADD27R,1.3500X0.9500*%
%ADD28R,1.2032X1.5532*%
%ADD29R,1.7032X1.6032*%
%ADD30R,1.6532X1.3532*%
%ADD31R,2.2332X4.0032*%
%ADD32R,1.5532X1.2032*%
%ADD33R,1.4032X1.3032*%
%ADD34R,1.4532X1.0032*%
G04:AMPARAMS|DCode=35|XSize=0.6532mm|YSize=1.3532mm|CornerRadius=0.1511mm|HoleSize=0mm|Usage=FLASHONLY|Rotation=90.000|XOffset=0mm|YOffset=0mm|HoleType=Round|Shape=RoundedRectangle|*
%AMROUNDEDRECTD35*
21,1,0.6532,1.0510,0,0,90.0*
21,1,0.3510,1.3532,0,0,90.0*
1,1,0.3022,0.5255,0.1755*
1,1,0.3022,0.5255,-0.1755*
1,1,0.3022,-0.5255,-0.1755*
1,1,0.3022,-0.5255,0.1755*
%
%ADD35ROUNDEDRECTD35*%
%ADD36C,3.2500*%
%ADD37R,1.3900X1.3900*%
%ADD38C,1.3900*%
%ADD39C,3.2032*%
%ADD40C,0.8032*%
D16*
X472246Y597250D02*
D03*
Y603750D02*
D03*
Y610250D02*
D03*
Y616750D02*
D03*
Y623250D02*
D03*
Y629750D02*
D03*
Y636250D02*
D03*
Y642750D02*
D03*
X527754D02*
D03*
Y636250D02*
D03*
Y629750D02*
D03*
Y623250D02*
D03*
Y616750D02*
D03*
Y610250D02*
D03*
Y603750D02*
D03*
D17*
Y597250D02*
D03*
D22*
X462168Y574239D02*
D03*
X477168D02*
D03*
D27*
X842283Y542500D02*
D03*
Y527500D02*
D03*
D28*
X585482Y579613D02*
D03*
X603482D02*
D03*
Y618162D02*
D03*
X585482D02*
D03*
X603482Y598369D02*
D03*
X585482D02*
D03*
X871000Y495060D02*
D03*
X889000D02*
D03*
Y475000D02*
D03*
X871000D02*
D03*
X889000Y515004D02*
D03*
X871000D02*
D03*
D29*
X537804Y380000D02*
D03*
Y360000D02*
D03*
D30*
X510600Y378750D02*
D03*
Y361250D02*
D03*
X450000Y378750D02*
D03*
Y361250D02*
D03*
X420000Y378750D02*
D03*
Y361250D02*
D03*
D31*
X569894Y220000D02*
D03*
X510600D02*
D03*
X538214Y291000D02*
D03*
X479520Y290000D02*
D03*
X450000Y220000D02*
D03*
X420000Y290000D02*
D03*
D32*
X710000Y562000D02*
D03*
Y580000D02*
D03*
X360000Y670000D02*
D03*
Y652000D02*
D03*
Y600369D02*
D03*
Y582369D02*
D03*
Y535000D02*
D03*
Y517000D02*
D03*
X710000Y440000D02*
D03*
Y422000D02*
D03*
Y510000D02*
D03*
Y492000D02*
D03*
D33*
X830000Y809000D02*
D03*
Y830000D02*
D03*
X730000Y809000D02*
D03*
Y830000D02*
D03*
X630000Y809000D02*
D03*
Y830000D02*
D03*
X529000Y809000D02*
D03*
Y830000D02*
D03*
X430000Y809000D02*
D03*
Y830000D02*
D03*
X330000Y809000D02*
D03*
Y830000D02*
D03*
X230000Y809000D02*
D03*
Y830000D02*
D03*
X130000Y809000D02*
D03*
Y830000D02*
D03*
X650000Y249000D02*
D03*
Y270000D02*
D03*
D34*
X830000Y758000D02*
D03*
Y742000D02*
D03*
X730000Y758000D02*
D03*
Y742000D02*
D03*
X630000Y758000D02*
D03*
Y742000D02*
D03*
X529000Y758000D02*
D03*
Y742000D02*
D03*
X430000Y758000D02*
D03*
Y742000D02*
D03*
X330000Y760000D02*
D03*
Y744000D02*
D03*
X230000Y760000D02*
D03*
Y744000D02*
D03*
X130000Y760000D02*
D03*
Y744000D02*
D03*
X650000Y200000D02*
D03*
Y184000D02*
D03*
D35*
X778750Y509750D02*
D03*
Y503250D02*
D03*
Y496750D02*
D03*
Y490250D02*
D03*
X821250Y509750D02*
D03*
Y503250D02*
D03*
Y496750D02*
D03*
Y490250D02*
D03*
D36*
X431260Y54600D02*
D03*
X558260D02*
D03*
D37*
X530320Y80000D02*
D03*
D38*
X520160Y97780D02*
D03*
X510000Y80000D02*
D03*
X499840Y97780D02*
D03*
X489680Y80000D02*
D03*
X479520Y97780D02*
D03*
X469360Y80000D02*
D03*
X459200Y97780D02*
D03*
D39*
X950000Y48575D02*
D03*
X50000Y50000D02*
D03*
X950000Y950000D02*
D03*
X50000D02*
D03*
D40*
X889000Y531746D02*
D03*
X888910Y460379D02*
D03*
X603482Y645000D02*
D03*
X859600Y528019D02*
D03*
X554615Y130995D02*
D03*
X511178Y130000D02*
D03*
X479520Y261500D02*
D03*
X376562Y517000D02*
D03*
X780000Y480000D02*
D03*
X727810Y558144D02*
D03*
X765761Y501298D02*
D03*
X758494Y492739D02*
D03*
X735373Y493733D02*
D03*
X726403Y501298D02*
D03*
X770000Y558418D02*
D03*
X449668Y574239D02*
D03*
X695994Y562000D02*
D03*
X529726Y561250D02*
D03*
X530000Y440000D02*
D03*
X695000Y492000D02*
D03*
X539037Y490250D02*
D03*
X650000Y170000D02*
D03*
X410000Y609887D02*
D03*
Y450000D02*
D03*
X539037D02*
D03*
X389190Y440000D02*
D03*
X510000D02*
D03*
X551301Y625995D02*
D03*
X555347Y615732D02*
D03*
X543276Y633017D02*
D03*
X529000Y652000D02*
D03*
X470000D02*
D03*
X455000Y629859D02*
D03*
X456805Y640000D02*
D03*
X455000Y615732D02*
D03*
X445000Y608893D02*
D03*
X445761Y625000D02*
D03*
X400000Y617168D02*
D03*
Y430000D02*
D03*
X450000Y432000D02*
D03*
X690000Y420000D02*
D03*
X420000D02*
D03*
X820296Y615628D02*
D03*
X719750Y623250D02*
D03*
X620000Y630995D02*
D03*
X440000Y650000D02*
D03*
X400000Y640000D02*
D03*
Y710000D02*
D03*
X340000D02*
D03*
X390185Y633017D02*
D03*
X390000Y700000D02*
D03*
X240000D02*
D03*
X380000Y625000D02*
D03*
Y690000D02*
D03*
X140000D02*
D03*
X457168Y600000D02*
D03*
X390000Y602369D02*
D03*
Y520000D02*
D03*
X370000Y620000D02*
D03*
X380000Y610000D02*
D03*
X830020Y730000D02*
D03*
X730000D02*
D03*
X630000D02*
D03*
X529000Y730000D02*
D03*
X430000D02*
D03*
X330000D02*
D03*
X230000D02*
D03*
X130000D02*
D03*
M02*
