G04*
G04 #@! TF.GenerationSoftware,Altium Limited,Altium Designer,23.7.1 (13)*
G04*
G04 Layer_Color=8421504*
%FSLAX44Y44*%
%MOMM*%
G71*
G04*
G04 #@! TF.SameCoordinates,778E7F24-0D39-4E9A-B56D-B03573EA8545*
G04*
G04*
G04 #@! TF.FilePolarity,Positive*
G04*
G01*
G75*
G04:AMPARAMS|DCode=16|XSize=1.3554mm|YSize=0.3408mm|CornerRadius=0.1704mm|HoleSize=0mm|Usage=FLASHONLY|Rotation=180.000|XOffset=0mm|YOffset=0mm|HoleType=Round|Shape=RoundedRectangle|*
%AMROUNDEDRECTD16*
21,1,1.3554,0.0000,0,0,180.0*
21,1,1.0147,0.3408,0,0,180.0*
1,1,0.3408,-0.5073,0.0000*
1,1,0.3408,0.5073,0.0000*
1,1,0.3408,0.5073,0.0000*
1,1,0.3408,-0.5073,0.0000*
%
%ADD16ROUNDEDRECTD16*%
%ADD17R,1.3554X0.3408*%
%ADD18R,1.0000X1.3500*%
%ADD19R,1.5000X1.4000*%
%ADD20R,1.4500X1.1500*%
%ADD21R,2.0300X3.8000*%
%ADD22R,0.9500X1.3500*%
%ADD23R,1.3500X1.0000*%
%ADD24R,1.2000X1.1000*%
%ADD25R,1.2500X0.8000*%
G04:AMPARAMS|DCode=26|XSize=0.45mm|YSize=1.15mm|CornerRadius=0.0495mm|HoleSize=0mm|Usage=FLASHONLY|Rotation=90.000|XOffset=0mm|YOffset=0mm|HoleType=Round|Shape=RoundedRectangle|*
%AMROUNDEDRECTD26*
21,1,0.4500,1.0510,0,0,90.0*
21,1,0.3510,1.1500,0,0,90.0*
1,1,0.0990,0.5255,0.1755*
1,1,0.0990,0.5255,-0.1755*
1,1,0.0990,-0.5255,-0.1755*
1,1,0.0990,-0.5255,0.1755*
%
%ADD26ROUNDEDRECTD26*%
%ADD27R,1.3500X0.9500*%
D16*
X472246Y597250D02*
D03*
Y603750D02*
D03*
Y610250D02*
D03*
Y616750D02*
D03*
Y623250D02*
D03*
Y629750D02*
D03*
Y636250D02*
D03*
Y642750D02*
D03*
X527754D02*
D03*
Y636250D02*
D03*
Y629750D02*
D03*
Y623250D02*
D03*
Y616750D02*
D03*
Y610250D02*
D03*
Y603750D02*
D03*
D17*
Y597250D02*
D03*
D18*
X585482Y579613D02*
D03*
X603482D02*
D03*
Y618162D02*
D03*
X585482D02*
D03*
X603482Y598369D02*
D03*
X585482D02*
D03*
X871000Y495060D02*
D03*
X889000D02*
D03*
Y475000D02*
D03*
X871000D02*
D03*
X889000Y515004D02*
D03*
X871000D02*
D03*
D19*
X537804Y380000D02*
D03*
Y360000D02*
D03*
D20*
X510600Y378750D02*
D03*
Y361250D02*
D03*
X450000Y378750D02*
D03*
Y361250D02*
D03*
X420000Y378750D02*
D03*
Y361250D02*
D03*
D21*
X569894Y220000D02*
D03*
X510600D02*
D03*
X538214Y291000D02*
D03*
X479520Y290000D02*
D03*
X450000Y220000D02*
D03*
X420000Y290000D02*
D03*
D22*
X462168Y574239D02*
D03*
X477168D02*
D03*
D23*
X710000Y562000D02*
D03*
Y580000D02*
D03*
X360000Y670000D02*
D03*
Y652000D02*
D03*
Y600369D02*
D03*
Y582369D02*
D03*
Y535000D02*
D03*
Y517000D02*
D03*
X710000Y440000D02*
D03*
Y422000D02*
D03*
Y510000D02*
D03*
Y492000D02*
D03*
D24*
X830000Y809000D02*
D03*
Y830000D02*
D03*
X730000Y809000D02*
D03*
Y830000D02*
D03*
X630000Y809000D02*
D03*
Y830000D02*
D03*
X529000Y809000D02*
D03*
Y830000D02*
D03*
X430000Y809000D02*
D03*
Y830000D02*
D03*
X330000Y809000D02*
D03*
Y830000D02*
D03*
X230000Y809000D02*
D03*
Y830000D02*
D03*
X130000Y809000D02*
D03*
Y830000D02*
D03*
X650000Y249000D02*
D03*
Y270000D02*
D03*
D25*
X830000Y758000D02*
D03*
Y742000D02*
D03*
X730000Y758000D02*
D03*
Y742000D02*
D03*
X630000Y758000D02*
D03*
Y742000D02*
D03*
X529000Y758000D02*
D03*
Y742000D02*
D03*
X430000Y758000D02*
D03*
Y742000D02*
D03*
X330000Y760000D02*
D03*
Y744000D02*
D03*
X230000Y760000D02*
D03*
Y744000D02*
D03*
X130000Y760000D02*
D03*
Y744000D02*
D03*
X650000Y200000D02*
D03*
Y184000D02*
D03*
D26*
X778750Y509750D02*
D03*
Y503250D02*
D03*
Y496750D02*
D03*
Y490250D02*
D03*
X821250Y509750D02*
D03*
Y503250D02*
D03*
Y496750D02*
D03*
Y490250D02*
D03*
D27*
X842283Y542500D02*
D03*
Y527500D02*
D03*
M02*
